%TF.GenerationSoftware,KiCad,Pcbnew,8.0.5*%
%TF.CreationDate,2024-09-18T07:38:00+09:00*%
%TF.ProjectId,SandyLP_Plate_Base,53616e64-794c-4505-9f50-6c6174655f42,v.0*%
%TF.SameCoordinates,Original*%
%TF.FileFunction,Drillmap*%
%TF.FilePolarity,Positive*%
%FSLAX45Y45*%
G04 Gerber Fmt 4.5, Leading zero omitted, Abs format (unit mm)*
G04 Created by KiCad (PCBNEW 8.0.5) date 2024-09-18 07:38:00*
%MOMM*%
%LPD*%
G01*
G04 APERTURE LIST*
%ADD10C,0.300000*%
%ADD11C,0.120000*%
%ADD12C,0.100000*%
%ADD13C,0.200000*%
G04 APERTURE END LIST*
D10*
X2223485Y-11009403D02*
X2223485Y-5797528D01*
X2423485Y-5597528D02*
X6310984Y-5597528D01*
X6510984Y-3654403D02*
X6510984Y-5397528D01*
X6710984Y-3454403D02*
X10044735Y-3454403D01*
X10244735Y-3654403D02*
X10244735Y-5397528D01*
X10444735Y-5597528D02*
X10928790Y-5597528D01*
D11*
X10928790Y-4843466D02*
X10928790Y-5597528D01*
X11563790Y-5478466D02*
X11563790Y-5597528D01*
D10*
X11563790Y-5597528D02*
X11906922Y-5597528D01*
D11*
X11682852Y-5359403D02*
X20358492Y-5359403D01*
D10*
X12106922Y-5797528D02*
X12106922Y-7302528D01*
X12306922Y-7502528D02*
X12859422Y-7502528D01*
X13059422Y-7702528D02*
X13059422Y-9177532D01*
X18735047Y-9377532D02*
X13259422Y-9377532D01*
X18935047Y-7702528D02*
X18935047Y-9177532D01*
X19687547Y-7502528D02*
X19135047Y-7502528D01*
X19887547Y-5797528D02*
X19887547Y-7302528D01*
D11*
X20477555Y-5478466D02*
X20477555Y-5597528D01*
D10*
X20477555Y-5597528D02*
X20087547Y-5597528D01*
D11*
X20993492Y-4724403D02*
X11047852Y-4724403D01*
D12*
X21112555Y-5597528D02*
X21112555Y-4843466D01*
D10*
X21549735Y-5597528D02*
X21112555Y-5597528D01*
X21749735Y-3654403D02*
X21749735Y-5397528D01*
X25283484Y-3454403D02*
X21949735Y-3454403D01*
X25483484Y-3654403D02*
X25483484Y-5397528D01*
X29294734Y-11485653D02*
X2699735Y-11485653D01*
X29570984Y-5597528D02*
X25683484Y-5597528D01*
X29770984Y-5797528D02*
X29770984Y-11009403D01*
X2223485Y-5797528D02*
G75*
G02*
X2423485Y-5597528I200000J0D01*
G01*
X2699735Y-11485653D02*
G75*
G02*
X2223485Y-11009403I-1J476249D01*
G01*
X6510984Y-3654403D02*
G75*
G02*
X6710984Y-3454402I200000J1D01*
G01*
X6510984Y-5397528D02*
G75*
G02*
X6310984Y-5597528I-200000J0D01*
G01*
X10044735Y-3454403D02*
G75*
G02*
X10244734Y-3654403I10J-199989D01*
G01*
X10444735Y-5597528D02*
G75*
G02*
X10244729Y-5397528I0J200006D01*
G01*
D11*
X10928790Y-4843466D02*
G75*
G02*
X11047852Y-4724407I119045J14D01*
G01*
X11563790Y-5478466D02*
G75*
G02*
X11682852Y-5359407I119045J14D01*
G01*
D10*
X11906922Y-5597528D02*
G75*
G02*
X12106918Y-5797528I3J-199994D01*
G01*
X12306922Y-7502528D02*
G75*
G02*
X12106918Y-7302528I3J200006D01*
G01*
X12859422Y-7502528D02*
G75*
G02*
X13059418Y-7702528I3J-199994D01*
G01*
X13259422Y-9377532D02*
G75*
G02*
X13059424Y-9177532I3J200000D01*
G01*
X18935047Y-7702528D02*
G75*
G02*
X19135047Y-7502524I200008J-4D01*
G01*
X18935047Y-9177532D02*
G75*
G02*
X18735047Y-9377535I-200003J0D01*
G01*
X19887547Y-5797528D02*
G75*
G02*
X20087547Y-5597524I200008J-4D01*
G01*
X19887547Y-7302528D02*
G75*
G02*
X19687547Y-7502524I-199993J-4D01*
G01*
D11*
X20358492Y-5359403D02*
G75*
G02*
X20477554Y-5478466I-8J-119069D01*
G01*
X20993492Y-4724403D02*
G75*
G02*
X21112554Y-4843466I2J-119059D01*
G01*
D10*
X21749735Y-3654403D02*
G75*
G02*
X21949735Y-3454402I200010J-9D01*
G01*
X21749735Y-5397528D02*
G75*
G02*
X21549735Y-5597522I-199990J-4D01*
G01*
X25283484Y-3454403D02*
G75*
G02*
X25483483Y-3654403I0J-199999D01*
G01*
X25683484Y-5597528D02*
G75*
G02*
X25483488Y-5397528I0J199996D01*
G01*
X29570984Y-5597528D02*
G75*
G02*
X29770978Y-5797528I0J-199994D01*
G01*
X29770984Y-11009403D02*
G75*
G02*
X29294734Y-11485652I-476250J1D01*
G01*
D13*
X2469261Y-11812137D02*
X2469261Y-11612137D01*
X2469261Y-11612137D02*
X2516880Y-11612137D01*
X2516880Y-11612137D02*
X2545452Y-11621661D01*
X2545452Y-11621661D02*
X2564499Y-11640708D01*
X2564499Y-11640708D02*
X2574023Y-11659756D01*
X2574023Y-11659756D02*
X2583547Y-11697851D01*
X2583547Y-11697851D02*
X2583547Y-11726422D01*
X2583547Y-11726422D02*
X2574023Y-11764518D01*
X2574023Y-11764518D02*
X2564499Y-11783565D01*
X2564499Y-11783565D02*
X2545452Y-11802613D01*
X2545452Y-11802613D02*
X2516880Y-11812137D01*
X2516880Y-11812137D02*
X2469261Y-11812137D01*
X2669261Y-11812137D02*
X2669261Y-11678803D01*
X2669261Y-11716899D02*
X2678785Y-11697851D01*
X2678785Y-11697851D02*
X2688309Y-11688327D01*
X2688309Y-11688327D02*
X2707357Y-11678803D01*
X2707357Y-11678803D02*
X2726404Y-11678803D01*
X2793071Y-11812137D02*
X2793071Y-11678803D01*
X2793071Y-11612137D02*
X2783547Y-11621661D01*
X2783547Y-11621661D02*
X2793071Y-11631184D01*
X2793071Y-11631184D02*
X2802595Y-11621661D01*
X2802595Y-11621661D02*
X2793071Y-11612137D01*
X2793071Y-11612137D02*
X2793071Y-11631184D01*
X2916880Y-11812137D02*
X2897833Y-11802613D01*
X2897833Y-11802613D02*
X2888309Y-11783565D01*
X2888309Y-11783565D02*
X2888309Y-11612137D01*
X3021642Y-11812137D02*
X3002595Y-11802613D01*
X3002595Y-11802613D02*
X2993071Y-11783565D01*
X2993071Y-11783565D02*
X2993071Y-11612137D01*
X3250214Y-11812137D02*
X3250214Y-11612137D01*
X3250214Y-11612137D02*
X3316880Y-11754994D01*
X3316880Y-11754994D02*
X3383547Y-11612137D01*
X3383547Y-11612137D02*
X3383547Y-11812137D01*
X3564499Y-11812137D02*
X3564499Y-11707375D01*
X3564499Y-11707375D02*
X3554976Y-11688327D01*
X3554976Y-11688327D02*
X3535928Y-11678803D01*
X3535928Y-11678803D02*
X3497833Y-11678803D01*
X3497833Y-11678803D02*
X3478785Y-11688327D01*
X3564499Y-11802613D02*
X3545452Y-11812137D01*
X3545452Y-11812137D02*
X3497833Y-11812137D01*
X3497833Y-11812137D02*
X3478785Y-11802613D01*
X3478785Y-11802613D02*
X3469261Y-11783565D01*
X3469261Y-11783565D02*
X3469261Y-11764518D01*
X3469261Y-11764518D02*
X3478785Y-11745470D01*
X3478785Y-11745470D02*
X3497833Y-11735946D01*
X3497833Y-11735946D02*
X3545452Y-11735946D01*
X3545452Y-11735946D02*
X3564499Y-11726422D01*
X3659737Y-11678803D02*
X3659737Y-11878803D01*
X3659737Y-11688327D02*
X3678785Y-11678803D01*
X3678785Y-11678803D02*
X3716880Y-11678803D01*
X3716880Y-11678803D02*
X3735928Y-11688327D01*
X3735928Y-11688327D02*
X3745452Y-11697851D01*
X3745452Y-11697851D02*
X3754976Y-11716899D01*
X3754976Y-11716899D02*
X3754976Y-11774041D01*
X3754976Y-11774041D02*
X3745452Y-11793089D01*
X3745452Y-11793089D02*
X3735928Y-11802613D01*
X3735928Y-11802613D02*
X3716880Y-11812137D01*
X3716880Y-11812137D02*
X3678785Y-11812137D01*
X3678785Y-11812137D02*
X3659737Y-11802613D01*
X3840690Y-11793089D02*
X3850214Y-11802613D01*
X3850214Y-11802613D02*
X3840690Y-11812137D01*
X3840690Y-11812137D02*
X3831166Y-11802613D01*
X3831166Y-11802613D02*
X3840690Y-11793089D01*
X3840690Y-11793089D02*
X3840690Y-11812137D01*
X3840690Y-11688327D02*
X3850214Y-11697851D01*
X3850214Y-11697851D02*
X3840690Y-11707375D01*
X3840690Y-11707375D02*
X3831166Y-11697851D01*
X3831166Y-11697851D02*
X3840690Y-11688327D01*
X3840690Y-11688327D02*
X3840690Y-11707375D01*
M02*
