M48
; DRILL file {KiCad 8.0.5} date 2024-09-18T07:38:00+0900
; FORMAT={-:-/ absolute / metric / decimal}
; #@! TF.CreationDate,2024-09-18T07:38:00+09:00
; #@! TF.GenerationSoftware,Kicad,Pcbnew,8.0.5
; #@! TF.FileFunction,NonPlated,1,2,NPTH
FMAT,2
METRIC
; #@! TA.AperFunction,NonPlated,NPTH,ComponentDrill
T1C0.787
; #@! TA.AperFunction,NonPlated,NPTH,ComponentDrill
T2C1.000
%
G90
G05
T1
X109.322Y-55.975
X110.592Y-55.975
X111.862Y-55.975
X113.132Y-55.975
X114.402Y-55.975
X115.672Y-55.975
X204.776Y-55.975
X206.046Y-55.975
X207.316Y-55.975
X208.586Y-55.975
X209.856Y-55.975
X211.126Y-55.975
T2
X29.672Y-71.7G85X29.672Y-58.7
G05
X29.672Y-58.7G85X42.672Y-58.7
G05
X29.672Y-71.7G85X42.672Y-71.7
G05
X39.197Y-90.75G85X39.197Y-77.75
G05
X42.672Y-71.7G85X42.672Y-58.7
G05
X39.197Y-77.75G85X52.197Y-77.75
G05
X39.197Y-90.75G85X52.197Y-90.75
G05
X48.722Y-71.7G85X48.722Y-58.7
G05
X52.197Y-90.75G85X52.197Y-77.75
G05
X48.722Y-58.7G85X61.722Y-58.7
G05
X48.722Y-71.7G85X61.722Y-71.7
G05
X58.247Y-90.75G85X58.247Y-77.75
G05
X61.722Y-71.7G85X61.722Y-58.7
G05
X58.247Y-77.75G85X71.247Y-77.75
G05
X58.247Y-90.75G85X71.247Y-90.75
G05
X67.772Y-52.65G85X67.772Y-39.65
G05
X67.772Y-71.7G85X67.772Y-58.7
G05
X71.247Y-90.75G85X71.247Y-77.75
G05
X72.535Y-109.8G85X72.535Y-96.8
G05
X67.772Y-39.65G85X80.772Y-39.65
G05
X67.772Y-52.65G85X80.772Y-52.65
G05
X67.772Y-58.7G85X80.772Y-58.7
G05
X67.772Y-71.7G85X80.772Y-71.7
G05
X77.297Y-90.75G85X77.297Y-77.75
G05
X72.535Y-96.8G85X85.535Y-96.8
G05
X72.535Y-109.8G85X85.535Y-109.8
G05
X80.772Y-52.65G85X80.772Y-39.65
G05
X80.772Y-71.7G85X80.772Y-58.7
G05
X77.297Y-77.75G85X90.297Y-77.75
G05
X77.297Y-90.75G85X90.297Y-90.75
G05
X85.535Y-109.8G85X85.535Y-96.8
G05
X86.822Y-52.65G85X86.822Y-39.65
G05
X86.822Y-71.7G85X86.822Y-58.7
G05
X90.297Y-90.75G85X90.297Y-77.75
G05
X91.585Y-109.8G85X91.585Y-96.8
G05
X86.822Y-39.65G85X99.822Y-39.65
G05
X86.822Y-52.65G85X99.822Y-52.65
G05
X86.822Y-58.7G85X99.822Y-58.7
G05
X86.822Y-71.7G85X99.822Y-71.7
G05
X96.347Y-90.75G85X96.347Y-77.75
G05
X91.585Y-96.8G85X104.585Y-96.8
G05
X91.585Y-109.8G85X104.585Y-109.8
G05
X99.822Y-52.65G85X99.822Y-39.65
G05
X99.822Y-71.7G85X99.822Y-58.7
G05
X96.347Y-77.75G85X109.347Y-77.75
G05
X96.347Y-90.75G85X109.347Y-90.75
G05
X104.585Y-109.8G85X104.585Y-96.8
G05
X105.872Y-71.7G85X105.872Y-58.7
G05
X109.347Y-90.75G85X109.347Y-77.75
G05
X105.872Y-58.7G85X118.872Y-58.7
G05
X105.872Y-71.7G85X118.872Y-71.7
G05
X113.016Y-109.8G85X113.016Y-96.8
G05
X115.397Y-90.75G85X115.397Y-77.75
G05
X118.872Y-71.7G85X118.872Y-58.7
G05
X113.016Y-96.8G85X126.016Y-96.8
G05
X113.016Y-109.8G85X126.016Y-109.8
G05
X115.397Y-77.75G85X128.397Y-77.75
G05
X115.397Y-90.75G85X128.397Y-90.75
G05
X126.016Y-109.8G85X126.016Y-96.8
G05
X128.397Y-90.75G85X128.397Y-77.75
G05
X134.447Y-109.8G85X134.447Y-96.8
G05
X134.447Y-96.8G85X147.447Y-96.8
G05
X134.447Y-109.8G85X147.447Y-109.8
G05
X147.447Y-109.8G85X147.447Y-96.8
G05
X152.247Y-109.8G85X152.247Y-96.8
G05
X167.747Y-96.8G85X152.247Y-96.8
G05
X167.747Y-109.8G85X152.247Y-109.8
G05
X167.747Y-109.8G85X167.747Y-96.8
G05
X172.547Y-109.8G85X172.547Y-96.8
G05
X172.547Y-96.8G85X185.547Y-96.8
G05
X172.547Y-109.8G85X185.547Y-109.8
G05
X185.547Y-109.8G85X185.547Y-96.8
G05
X191.597Y-90.75G85X191.597Y-77.75
G05
X193.979Y-109.8G85X193.979Y-96.8
G05
X191.597Y-77.75G85X204.597Y-77.75
G05
X191.597Y-90.75G85X204.597Y-90.75
G05
X193.979Y-96.8G85X206.979Y-96.8
G05
X193.979Y-109.8G85X206.979Y-109.8
G05
X201.122Y-71.7G85X201.122Y-58.7
G05
X204.597Y-90.75G85X204.597Y-77.75
G05
X206.979Y-109.8G85X206.979Y-96.8
G05
X201.122Y-58.7G85X214.122Y-58.7
G05
X201.122Y-71.7G85X214.122Y-71.7
G05
X210.647Y-90.75G85X210.647Y-77.75
G05
X214.122Y-71.7G85X214.122Y-58.7
G05
X215.41Y-109.8G85X215.41Y-96.8
G05
X210.647Y-77.75G85X223.647Y-77.75
G05
X210.647Y-90.75G85X223.647Y-90.75
G05
X220.172Y-52.65G85X220.172Y-39.65
G05
X220.172Y-71.7G85X220.172Y-58.7
G05
X215.41Y-96.8G85X228.41Y-96.8
G05
X215.41Y-109.8G85X228.41Y-109.8
G05
X223.647Y-90.75G85X223.647Y-77.75
G05
X220.172Y-39.65G85X233.172Y-39.65
G05
X220.172Y-52.65G85X233.172Y-52.65
G05
X220.172Y-58.7G85X233.172Y-58.7
G05
X220.172Y-71.7G85X233.172Y-71.7
G05
X228.41Y-109.8G85X228.41Y-96.8
G05
X229.697Y-90.75G85X229.697Y-77.75
G05
X233.172Y-52.65G85X233.172Y-39.65
G05
X233.172Y-71.7G85X233.172Y-58.7
G05
X234.46Y-109.8G85X234.46Y-96.8
G05
X229.697Y-77.75G85X242.697Y-77.75
G05
X229.697Y-90.75G85X242.697Y-90.75
G05
X239.222Y-52.65G85X239.222Y-39.65
G05
X239.222Y-71.7G85X239.222Y-58.7
G05
X234.46Y-96.8G85X247.46Y-96.8
G05
X234.46Y-109.8G85X247.46Y-109.8
G05
X242.697Y-90.75G85X242.697Y-77.75
G05
X239.222Y-39.65G85X252.222Y-39.65
G05
X239.222Y-52.65G85X252.222Y-52.65
G05
X239.222Y-58.7G85X252.222Y-58.7
G05
X239.222Y-71.7G85X252.222Y-71.7
G05
X247.46Y-109.8G85X247.46Y-96.8
G05
X248.747Y-90.75G85X248.747Y-77.75
G05
X252.222Y-52.65G85X252.222Y-39.65
G05
X252.222Y-71.7G85X252.222Y-58.7
G05
X248.747Y-77.75G85X261.747Y-77.75
G05
X248.747Y-90.75G85X261.747Y-90.75
G05
X258.272Y-71.7G85X258.272Y-58.7
G05
X261.747Y-90.75G85X261.747Y-77.75
G05
X258.272Y-58.7G85X271.272Y-58.7
G05
X258.272Y-71.7G85X271.272Y-71.7
G05
X267.797Y-90.75G85X267.797Y-77.75
G05
X271.272Y-71.7G85X271.272Y-58.7
G05
X267.797Y-77.75G85X280.797Y-77.75
G05
X267.797Y-90.75G85X280.797Y-90.75
G05
X277.322Y-71.7G85X277.322Y-58.7
G05
X280.797Y-90.75G85X280.797Y-77.75
G05
X277.322Y-58.7G85X290.322Y-58.7
G05
X277.322Y-71.7G85X290.322Y-71.7
G05
X290.322Y-71.7G85X290.322Y-58.7
G05
M30
