G04 #@! TF.GenerationSoftware,KiCad,Pcbnew,8.0.5*
G04 #@! TF.CreationDate,2024-09-18T07:38:04+09:00*
G04 #@! TF.ProjectId,SandyLP_Plate_Base,53616e64-794c-4505-9f50-6c6174655f42,v.0*
G04 #@! TF.SameCoordinates,Original*
G04 #@! TF.FileFunction,Soldermask,Top*
G04 #@! TF.FilePolarity,Negative*
%FSLAX46Y46*%
G04 Gerber Fmt 4.6, Leading zero omitted, Abs format (unit mm)*
G04 Created by KiCad (PCBNEW 8.0.5) date 2024-09-18 07:38:04*
%MOMM*%
%LPD*%
G01*
G04 APERTURE LIST*
G04 Aperture macros list*
%AMRoundRect*
0 Rectangle with rounded corners*
0 $1 Rounding radius*
0 $2 $3 $4 $5 $6 $7 $8 $9 X,Y pos of 4 corners*
0 Add a 4 corners polygon primitive as box body*
4,1,4,$2,$3,$4,$5,$6,$7,$8,$9,$2,$3,0*
0 Add four circle primitives for the rounded corners*
1,1,$1+$1,$2,$3*
1,1,$1+$1,$4,$5*
1,1,$1+$1,$6,$7*
1,1,$1+$1,$8,$9*
0 Add four rect primitives between the rounded corners*
20,1,$1+$1,$2,$3,$4,$5,0*
20,1,$1+$1,$4,$5,$6,$7,0*
20,1,$1+$1,$6,$7,$8,$9,0*
20,1,$1+$1,$8,$9,$2,$3,0*%
G04 Aperture macros list end*
%ADD10C,1.550000*%
%ADD11RoundRect,0.900000X0.000010X-6.500000X0.000010X6.500000X-0.000010X6.500000X-0.000010X-6.500000X0*%
%ADD12RoundRect,0.900000X-6.500000X-0.000010X6.500000X-0.000010X6.500000X0.000010X-6.500000X0.000010X0*%
%ADD13C,0.787400*%
%ADD14RoundRect,0.900000X7.750000X0.000010X-7.750000X0.000010X-7.750000X-0.000010X7.750000X-0.000010X0*%
G04 APERTURE END LIST*
D10*
X29803605Y-78297246D02*
G75*
G02*
X28253605Y-78297246I-775000J0D01*
G01*
X28253605Y-78297246D02*
G75*
G02*
X29803605Y-78297246I775000J0D01*
G01*
X29803605Y-84250376D02*
G75*
G02*
X28253605Y-84250376I-775000J0D01*
G01*
X28253605Y-84250376D02*
G75*
G02*
X29803605Y-84250376I775000J0D01*
G01*
X29803605Y-90203506D02*
G75*
G02*
X28253605Y-90203506I-775000J0D01*
G01*
X28253605Y-90203506D02*
G75*
G02*
X29803605Y-90203506I775000J0D01*
G01*
X291741325Y-78297246D02*
G75*
G02*
X290191325Y-78297246I-775000J0D01*
G01*
X290191325Y-78297246D02*
G75*
G02*
X291741325Y-78297246I775000J0D01*
G01*
X291741325Y-84250376D02*
G75*
G02*
X290191325Y-84250376I-775000J0D01*
G01*
X290191325Y-84250376D02*
G75*
G02*
X291741325Y-84250376I775000J0D01*
G01*
X291741325Y-90203506D02*
G75*
G02*
X290191325Y-90203506I-775000J0D01*
G01*
X290191325Y-90203506D02*
G75*
G02*
X291741325Y-90203506I775000J0D01*
G01*
D11*
X58247345Y-84250320D03*
D12*
X64747345Y-77750320D03*
X64747345Y-90750320D03*
D11*
X71247345Y-84250320D03*
X67772345Y-65200320D03*
D12*
X74272345Y-58700320D03*
X74272345Y-71700320D03*
D11*
X80772345Y-65200320D03*
X248747345Y-84250320D03*
D12*
X255247345Y-77750320D03*
X255247345Y-90750320D03*
D11*
X261747345Y-84250320D03*
D13*
X109322345Y-55975280D03*
X110592345Y-55975280D03*
X111862345Y-55975280D03*
X113132345Y-55975280D03*
X114402345Y-55975280D03*
X115672345Y-55975280D03*
X204775546Y-55975280D03*
X206045546Y-55975280D03*
X207315546Y-55975280D03*
X208585546Y-55975280D03*
X209855546Y-55975280D03*
X211125546Y-55975280D03*
D11*
X48722345Y-65200320D03*
D12*
X55222345Y-58700320D03*
X55222345Y-71700320D03*
D11*
X61722345Y-65200320D03*
X220172345Y-46150320D03*
D12*
X226672345Y-39650320D03*
X226672345Y-52650320D03*
D11*
X233172345Y-46150320D03*
X86822345Y-65200320D03*
D12*
X93322345Y-58700320D03*
X93322345Y-71700320D03*
D11*
X99822345Y-65200320D03*
X67772345Y-46150320D03*
D12*
X74272345Y-39650320D03*
X74272345Y-52650320D03*
D11*
X80772345Y-46150320D03*
X201122345Y-65200320D03*
D12*
X207622345Y-58700320D03*
X207622345Y-71700320D03*
D11*
X214122345Y-65200320D03*
X91584845Y-103300320D03*
D12*
X98084845Y-96800320D03*
X98084845Y-109800320D03*
D11*
X104584845Y-103300320D03*
X277322345Y-65200320D03*
D12*
X283822345Y-58700320D03*
X283822345Y-71700320D03*
D11*
X290322345Y-65200320D03*
X258272345Y-65200320D03*
D12*
X264772345Y-58700320D03*
X264772345Y-71700320D03*
D11*
X271272345Y-65200320D03*
X86822345Y-46150320D03*
D12*
X93322345Y-39650320D03*
X93322345Y-52650320D03*
D11*
X99822345Y-46150320D03*
X239222345Y-46150320D03*
D12*
X245722345Y-39650320D03*
X245722345Y-52650320D03*
D11*
X252222345Y-46150320D03*
X193978595Y-103300320D03*
D12*
X200478595Y-96800320D03*
X200478595Y-109800320D03*
D11*
X206978595Y-103300320D03*
D14*
X159997345Y-109800320D03*
D11*
X152247345Y-103300320D03*
X167747345Y-103300320D03*
D14*
X159997345Y-96800320D03*
D11*
X115397345Y-84250320D03*
D12*
X121897345Y-77750320D03*
X121897345Y-90750320D03*
D11*
X128397345Y-84250320D03*
X267797345Y-84250320D03*
D12*
X274297345Y-77750320D03*
X274297345Y-90750320D03*
D11*
X280797345Y-84250320D03*
X210647345Y-84250320D03*
D12*
X217147345Y-77750320D03*
X217147345Y-90750320D03*
D11*
X223647345Y-84250320D03*
X39197345Y-84250320D03*
D12*
X45697345Y-77750320D03*
X45697345Y-90750320D03*
D11*
X52197345Y-84250320D03*
X220172345Y-65200320D03*
D12*
X226672345Y-58700320D03*
X226672345Y-71700320D03*
D11*
X233172345Y-65200320D03*
X229697345Y-84250320D03*
D12*
X236197345Y-77750320D03*
X236197345Y-90750320D03*
D11*
X242697345Y-84250320D03*
X113016095Y-103300320D03*
D12*
X119516095Y-96800320D03*
X119516095Y-109800320D03*
D11*
X126016095Y-103300320D03*
X72534845Y-103300320D03*
D12*
X79034845Y-96800320D03*
X79034845Y-109800320D03*
D11*
X85534845Y-103300320D03*
X29672345Y-65200320D03*
D12*
X36172345Y-58700320D03*
X36172345Y-71700320D03*
D11*
X42672345Y-65200320D03*
X134447345Y-103300320D03*
D12*
X140947345Y-96800320D03*
X140947345Y-109800320D03*
D11*
X147447345Y-103300320D03*
X234459845Y-103300320D03*
D12*
X240959845Y-96800320D03*
X240959845Y-109800320D03*
D11*
X247459845Y-103300320D03*
X239222345Y-65200320D03*
D12*
X245722345Y-58700320D03*
X245722345Y-71700320D03*
D11*
X252222345Y-65200320D03*
X96347345Y-84250320D03*
D12*
X102847345Y-77750320D03*
X102847345Y-90750320D03*
D11*
X109347345Y-84250320D03*
X172547345Y-103300320D03*
D12*
X179047345Y-96800320D03*
X179047345Y-109800320D03*
D11*
X185547345Y-103300320D03*
X191597345Y-84250320D03*
D12*
X198097345Y-77750320D03*
X198097345Y-90750320D03*
D11*
X204597345Y-84250320D03*
X77297345Y-84250320D03*
D12*
X83797345Y-77750320D03*
X83797345Y-90750320D03*
D11*
X90297345Y-84250320D03*
X105872345Y-65200320D03*
D12*
X112372345Y-58700320D03*
X112372345Y-71700320D03*
D11*
X118872345Y-65200320D03*
X215409845Y-103300320D03*
D12*
X221909845Y-96800320D03*
X221909845Y-109800320D03*
D11*
X228409845Y-103300320D03*
M02*
