G04 #@! TF.GenerationSoftware,KiCad,Pcbnew,8.0.5*
G04 #@! TF.CreationDate,2024-09-18T07:38:04+09:00*
G04 #@! TF.ProjectId,SandyLP_Plate_Base,53616e64-794c-4505-9f50-6c6174655f42,v.0*
G04 #@! TF.SameCoordinates,Original*
G04 #@! TF.FileFunction,Profile,NP*
%FSLAX46Y46*%
G04 Gerber Fmt 4.6, Leading zero omitted, Abs format (unit mm)*
G04 Created by KiCad (PCBNEW 8.0.5) date 2024-09-18 07:38:04*
%MOMM*%
%LPD*%
G01*
G04 APERTURE LIST*
G04 #@! TA.AperFunction,Profile*
%ADD10C,0.300000*%
G04 #@! TD*
G04 #@! TA.AperFunction,Profile*
%ADD11C,0.120000*%
G04 #@! TD*
G04 #@! TA.AperFunction,Profile*
%ADD12C,0.100000*%
G04 #@! TD*
G04 APERTURE END LIST*
D10*
X22234845Y-110094030D02*
X22234845Y-57975280D01*
X24234845Y-55975280D02*
X63109845Y-55975280D01*
X65109845Y-36544030D02*
X65109845Y-53975280D01*
X67109845Y-34544030D02*
X100447345Y-34544030D01*
X102447345Y-36544030D02*
X102447345Y-53975280D01*
X104447345Y-55975280D02*
X109287899Y-55975277D01*
D11*
X109287899Y-48434655D02*
X109287899Y-55975277D01*
X115637896Y-54784655D02*
X115637899Y-55975280D01*
D10*
X115637899Y-55975280D02*
X119069220Y-55975280D01*
D11*
X116828524Y-53594027D02*
X203584921Y-53594030D01*
D10*
X121069220Y-57975280D02*
X121069220Y-73025280D01*
X123069220Y-75025280D02*
X128594220Y-75025280D01*
X130594220Y-77025280D02*
X130594220Y-91775320D01*
X187350470Y-93775320D02*
X132594220Y-93775320D01*
X189350470Y-77025280D02*
X189350470Y-91775320D01*
X196875470Y-75025280D02*
X191350470Y-75025280D01*
X198875470Y-57975280D02*
X198875470Y-73025280D01*
D11*
X204775546Y-54784655D02*
X204775546Y-55975280D01*
D10*
X204775546Y-55975280D02*
X200875470Y-55975280D01*
D11*
X209934921Y-47244030D02*
X110478524Y-47244030D01*
D12*
X211125546Y-55975280D02*
X211125546Y-48434655D01*
D10*
X215497345Y-55975280D02*
X211125546Y-55975280D01*
X217497345Y-36544030D02*
X217497345Y-53975280D01*
X252834845Y-34544030D02*
X219497345Y-34544030D01*
X254834845Y-36544030D02*
X254834845Y-53975280D01*
X292947345Y-114856530D02*
X26997345Y-114856530D01*
X295709845Y-55975280D02*
X256834845Y-55975280D01*
X297709845Y-57975280D02*
X297709845Y-110094030D01*
X22234845Y-57975280D02*
G75*
G02*
X24234845Y-55975280I2000000J0D01*
G01*
X26997345Y-114856530D02*
G75*
G02*
X22234845Y-110094030I-10J4762490D01*
G01*
X65109845Y-36544030D02*
G75*
G02*
X67109845Y-34544020I2000000J10D01*
G01*
X65109845Y-53975280D02*
G75*
G02*
X63109845Y-55975280I-2000000J0D01*
G01*
X100447345Y-34544030D02*
G75*
G02*
X102447335Y-36544030I100J-1999890D01*
G01*
X104447345Y-55975280D02*
G75*
G02*
X102447285Y-53975280I0J2000060D01*
G01*
D11*
X109287899Y-48434655D02*
G75*
G02*
X110478524Y-47244074I1190446J135D01*
G01*
X115637896Y-54784655D02*
G75*
G02*
X116828524Y-53594071I1190449J135D01*
G01*
D10*
X119069220Y-55975280D02*
G75*
G02*
X121069185Y-57975280I25J-1999940D01*
G01*
X123069220Y-75025280D02*
G75*
G02*
X121069185Y-73025280I25J2000060D01*
G01*
X128594220Y-75025280D02*
G75*
G02*
X130594185Y-77025280I25J-1999940D01*
G01*
X132594220Y-93775320D02*
G75*
G02*
X130594245Y-91775320I25J2000000D01*
G01*
X189350470Y-77025280D02*
G75*
G02*
X191350470Y-75025245I2000075J-40D01*
G01*
X189350470Y-91775320D02*
G75*
G02*
X187350470Y-93775345I-2000025J0D01*
G01*
X198875470Y-57975280D02*
G75*
G02*
X200875470Y-55975245I2000075J-40D01*
G01*
X198875470Y-73025280D02*
G75*
G02*
X196875470Y-75025245I-1999925J-40D01*
G01*
D11*
X203584921Y-53594030D02*
G75*
G02*
X204775535Y-54784655I-76J-1190690D01*
G01*
X209934921Y-47244030D02*
G75*
G02*
X211125535Y-48434655I24J-1190590D01*
G01*
D10*
X217497345Y-36544030D02*
G75*
G02*
X219497345Y-34544020I2000100J-90D01*
G01*
X217497345Y-53975280D02*
G75*
G02*
X215497345Y-55975220I-1999900J-40D01*
G01*
X252834845Y-34544030D02*
G75*
G02*
X254834835Y-36544030I0J-1999990D01*
G01*
X256834845Y-55975280D02*
G75*
G02*
X254834885Y-53975280I0J1999960D01*
G01*
X295709845Y-55975280D02*
G75*
G02*
X297709785Y-57975280I0J-1999940D01*
G01*
X297709845Y-110094030D02*
G75*
G02*
X292947345Y-114856520I-4762500J10D01*
G01*
M02*
