%TF.GenerationSoftware,KiCad,Pcbnew,8.0.5*%
%TF.CreationDate,2024-09-18T07:56:25+09:00*%
%TF.ProjectId,SandyLP_Plate_Bottom,53616e64-794c-4505-9f50-6c6174655f42,v.0*%
%TF.SameCoordinates,Original*%
%TF.FileFunction,Drillmap*%
%TF.FilePolarity,Positive*%
%FSLAX45Y45*%
G04 Gerber Fmt 4.5, Leading zero omitted, Abs format (unit mm)*
G04 Created by KiCad (PCBNEW 8.0.5) date 2024-09-18 07:56:25*
%MOMM*%
%LPD*%
G01*
G04 APERTURE LIST*
%ADD10C,0.300000*%
%ADD11C,0.200000*%
%ADD12C,0.220000*%
G04 APERTURE END LIST*
D10*
X2140844Y-10999712D02*
X2140844Y-3920961D01*
X2807020Y-3444711D02*
X2617094Y-3444711D01*
X2867020Y-4264712D02*
X2867020Y-3504711D01*
X2927020Y-4324712D02*
X4044593Y-4324712D01*
X4029741Y-7802914D02*
X4029741Y-7072914D01*
X4089741Y-7862914D02*
X5787314Y-7862914D01*
X4104593Y-4264712D02*
X4104593Y-3504711D01*
X5787314Y-7012914D02*
X4089741Y-7012914D01*
X5847314Y-7802914D02*
X5847314Y-7072914D01*
X29212093Y-3444711D02*
X4164593Y-3444711D01*
X29212093Y-11475961D02*
X2617094Y-11475961D01*
X29688343Y-10999712D02*
X29688343Y-3920961D01*
X2140844Y-3920961D02*
G75*
G02*
X2617094Y-3444711I476250J0D01*
G01*
X2617094Y-11475961D02*
G75*
G02*
X2140844Y-10999712I0J476250D01*
G01*
X2807020Y-3444711D02*
G75*
G02*
X2867020Y-3504711I0J-60000D01*
G01*
X2927020Y-4324712D02*
G75*
G02*
X2867020Y-4264712I0J60000D01*
G01*
X4029741Y-7072914D02*
G75*
G02*
X4089741Y-7012914I60000J0D01*
G01*
X4089741Y-7862914D02*
G75*
G02*
X4029741Y-7802914I0J60000D01*
G01*
X4104593Y-3504711D02*
G75*
G02*
X4164593Y-3444711I60000J0D01*
G01*
X4104593Y-4264712D02*
G75*
G02*
X4044593Y-4324712I-60000J0D01*
G01*
X5787314Y-7012914D02*
G75*
G02*
X5847314Y-7072914I0J-60000D01*
G01*
X5847314Y-7802914D02*
G75*
G02*
X5787314Y-7862914I-60000J0D01*
G01*
X29212093Y-3444711D02*
G75*
G02*
X29688342Y-3920961I0J-476249D01*
G01*
X29688343Y-10999712D02*
G75*
G02*
X29212093Y-11475960I-476250J1D01*
G01*
D11*
D12*
X2279594Y-4074090D02*
X2499594Y-4294091D01*
X2499594Y-4074090D02*
X2279594Y-4294091D01*
X2359594Y-11018778D02*
X2579594Y-11238778D01*
X2579594Y-11018778D02*
X2359594Y-11238778D01*
X6282093Y-7352840D02*
X6502093Y-7572840D01*
X6502093Y-7352840D02*
X6282093Y-7572840D01*
X10568344Y-11098778D02*
X10788344Y-11318778D01*
X10788344Y-11098778D02*
X10568344Y-11318778D01*
X10806469Y-3661903D02*
X11026469Y-3881903D01*
X11026469Y-3661903D02*
X10806469Y-3881903D01*
X15807093Y-7352840D02*
X16027093Y-7572840D01*
X16027093Y-7352840D02*
X15807093Y-7572840D01*
X20807719Y-3661903D02*
X21027719Y-3881903D01*
X21027719Y-3661903D02*
X20807719Y-3881903D01*
X20807719Y-11098778D02*
X21027719Y-11318778D01*
X21027719Y-11098778D02*
X20807719Y-11318778D01*
X25332093Y-7352840D02*
X25552093Y-7572840D01*
X25552093Y-7352840D02*
X25332093Y-7572840D01*
X29254593Y-11018778D02*
X29474593Y-11238778D01*
X29474593Y-11018778D02*
X29254593Y-11238778D01*
X29334593Y-4074090D02*
X29554593Y-4294091D01*
X29554593Y-4074090D02*
X29334593Y-4294091D01*
D11*
X2386620Y-11802445D02*
X2386620Y-11602445D01*
X2386620Y-11602445D02*
X2434239Y-11602445D01*
X2434239Y-11602445D02*
X2462811Y-11611969D01*
X2462811Y-11611969D02*
X2481858Y-11631017D01*
X2481858Y-11631017D02*
X2491382Y-11650064D01*
X2491382Y-11650064D02*
X2500906Y-11688159D01*
X2500906Y-11688159D02*
X2500906Y-11716731D01*
X2500906Y-11716731D02*
X2491382Y-11754826D01*
X2491382Y-11754826D02*
X2481858Y-11773874D01*
X2481858Y-11773874D02*
X2462811Y-11792921D01*
X2462811Y-11792921D02*
X2434239Y-11802445D01*
X2434239Y-11802445D02*
X2386620Y-11802445D01*
X2586620Y-11802445D02*
X2586620Y-11669112D01*
X2586620Y-11707207D02*
X2596144Y-11688159D01*
X2596144Y-11688159D02*
X2605668Y-11678636D01*
X2605668Y-11678636D02*
X2624716Y-11669112D01*
X2624716Y-11669112D02*
X2643763Y-11669112D01*
X2710430Y-11802445D02*
X2710430Y-11669112D01*
X2710430Y-11602445D02*
X2700906Y-11611969D01*
X2700906Y-11611969D02*
X2710430Y-11621493D01*
X2710430Y-11621493D02*
X2719954Y-11611969D01*
X2719954Y-11611969D02*
X2710430Y-11602445D01*
X2710430Y-11602445D02*
X2710430Y-11621493D01*
X2834239Y-11802445D02*
X2815192Y-11792921D01*
X2815192Y-11792921D02*
X2805668Y-11773874D01*
X2805668Y-11773874D02*
X2805668Y-11602445D01*
X2939001Y-11802445D02*
X2919954Y-11792921D01*
X2919954Y-11792921D02*
X2910430Y-11773874D01*
X2910430Y-11773874D02*
X2910430Y-11602445D01*
X3167573Y-11802445D02*
X3167573Y-11602445D01*
X3167573Y-11602445D02*
X3234239Y-11745302D01*
X3234239Y-11745302D02*
X3300906Y-11602445D01*
X3300906Y-11602445D02*
X3300906Y-11802445D01*
X3481858Y-11802445D02*
X3481858Y-11697683D01*
X3481858Y-11697683D02*
X3472335Y-11678636D01*
X3472335Y-11678636D02*
X3453287Y-11669112D01*
X3453287Y-11669112D02*
X3415192Y-11669112D01*
X3415192Y-11669112D02*
X3396144Y-11678636D01*
X3481858Y-11792921D02*
X3462811Y-11802445D01*
X3462811Y-11802445D02*
X3415192Y-11802445D01*
X3415192Y-11802445D02*
X3396144Y-11792921D01*
X3396144Y-11792921D02*
X3386620Y-11773874D01*
X3386620Y-11773874D02*
X3386620Y-11754826D01*
X3386620Y-11754826D02*
X3396144Y-11735779D01*
X3396144Y-11735779D02*
X3415192Y-11726255D01*
X3415192Y-11726255D02*
X3462811Y-11726255D01*
X3462811Y-11726255D02*
X3481858Y-11716731D01*
X3577096Y-11669112D02*
X3577096Y-11869112D01*
X3577096Y-11678636D02*
X3596144Y-11669112D01*
X3596144Y-11669112D02*
X3634239Y-11669112D01*
X3634239Y-11669112D02*
X3653287Y-11678636D01*
X3653287Y-11678636D02*
X3662811Y-11688159D01*
X3662811Y-11688159D02*
X3672335Y-11707207D01*
X3672335Y-11707207D02*
X3672335Y-11764350D01*
X3672335Y-11764350D02*
X3662811Y-11783398D01*
X3662811Y-11783398D02*
X3653287Y-11792921D01*
X3653287Y-11792921D02*
X3634239Y-11802445D01*
X3634239Y-11802445D02*
X3596144Y-11802445D01*
X3596144Y-11802445D02*
X3577096Y-11792921D01*
X3758049Y-11783398D02*
X3767573Y-11792921D01*
X3767573Y-11792921D02*
X3758049Y-11802445D01*
X3758049Y-11802445D02*
X3748525Y-11792921D01*
X3748525Y-11792921D02*
X3758049Y-11783398D01*
X3758049Y-11783398D02*
X3758049Y-11802445D01*
X3758049Y-11678636D02*
X3767573Y-11688159D01*
X3767573Y-11688159D02*
X3758049Y-11697683D01*
X3758049Y-11697683D02*
X3748525Y-11688159D01*
X3748525Y-11688159D02*
X3758049Y-11678636D01*
X3758049Y-11678636D02*
X3758049Y-11697683D01*
X1925843Y-12030961D02*
X2125844Y-12230961D01*
X2125844Y-12030961D02*
X1925843Y-12230961D01*
X2377097Y-12041493D02*
X2386620Y-12031969D01*
X2386620Y-12031969D02*
X2405668Y-12022445D01*
X2405668Y-12022445D02*
X2453287Y-12022445D01*
X2453287Y-12022445D02*
X2472335Y-12031969D01*
X2472335Y-12031969D02*
X2481858Y-12041493D01*
X2481858Y-12041493D02*
X2491382Y-12060540D01*
X2491382Y-12060540D02*
X2491382Y-12079588D01*
X2491382Y-12079588D02*
X2481858Y-12108159D01*
X2481858Y-12108159D02*
X2367573Y-12222445D01*
X2367573Y-12222445D02*
X2491382Y-12222445D01*
X2577097Y-12203398D02*
X2586620Y-12212921D01*
X2586620Y-12212921D02*
X2577097Y-12222445D01*
X2577097Y-12222445D02*
X2567573Y-12212921D01*
X2567573Y-12212921D02*
X2577097Y-12203398D01*
X2577097Y-12203398D02*
X2577097Y-12222445D01*
X2662811Y-12041493D02*
X2672335Y-12031969D01*
X2672335Y-12031969D02*
X2691382Y-12022445D01*
X2691382Y-12022445D02*
X2739001Y-12022445D01*
X2739001Y-12022445D02*
X2758049Y-12031969D01*
X2758049Y-12031969D02*
X2767573Y-12041493D01*
X2767573Y-12041493D02*
X2777097Y-12060540D01*
X2777097Y-12060540D02*
X2777097Y-12079588D01*
X2777097Y-12079588D02*
X2767573Y-12108159D01*
X2767573Y-12108159D02*
X2653287Y-12222445D01*
X2653287Y-12222445D02*
X2777097Y-12222445D01*
X2900906Y-12022445D02*
X2919954Y-12022445D01*
X2919954Y-12022445D02*
X2939001Y-12031969D01*
X2939001Y-12031969D02*
X2948525Y-12041493D01*
X2948525Y-12041493D02*
X2958049Y-12060540D01*
X2958049Y-12060540D02*
X2967573Y-12098636D01*
X2967573Y-12098636D02*
X2967573Y-12146255D01*
X2967573Y-12146255D02*
X2958049Y-12184350D01*
X2958049Y-12184350D02*
X2948525Y-12203398D01*
X2948525Y-12203398D02*
X2939001Y-12212921D01*
X2939001Y-12212921D02*
X2919954Y-12222445D01*
X2919954Y-12222445D02*
X2900906Y-12222445D01*
X2900906Y-12222445D02*
X2881858Y-12212921D01*
X2881858Y-12212921D02*
X2872335Y-12203398D01*
X2872335Y-12203398D02*
X2862811Y-12184350D01*
X2862811Y-12184350D02*
X2853287Y-12146255D01*
X2853287Y-12146255D02*
X2853287Y-12098636D01*
X2853287Y-12098636D02*
X2862811Y-12060540D01*
X2862811Y-12060540D02*
X2872335Y-12041493D01*
X2872335Y-12041493D02*
X2881858Y-12031969D01*
X2881858Y-12031969D02*
X2900906Y-12022445D01*
X3091382Y-12022445D02*
X3110430Y-12022445D01*
X3110430Y-12022445D02*
X3129477Y-12031969D01*
X3129477Y-12031969D02*
X3139001Y-12041493D01*
X3139001Y-12041493D02*
X3148525Y-12060540D01*
X3148525Y-12060540D02*
X3158049Y-12098636D01*
X3158049Y-12098636D02*
X3158049Y-12146255D01*
X3158049Y-12146255D02*
X3148525Y-12184350D01*
X3148525Y-12184350D02*
X3139001Y-12203398D01*
X3139001Y-12203398D02*
X3129477Y-12212921D01*
X3129477Y-12212921D02*
X3110430Y-12222445D01*
X3110430Y-12222445D02*
X3091382Y-12222445D01*
X3091382Y-12222445D02*
X3072335Y-12212921D01*
X3072335Y-12212921D02*
X3062811Y-12203398D01*
X3062811Y-12203398D02*
X3053287Y-12184350D01*
X3053287Y-12184350D02*
X3043763Y-12146255D01*
X3043763Y-12146255D02*
X3043763Y-12098636D01*
X3043763Y-12098636D02*
X3053287Y-12060540D01*
X3053287Y-12060540D02*
X3062811Y-12041493D01*
X3062811Y-12041493D02*
X3072335Y-12031969D01*
X3072335Y-12031969D02*
X3091382Y-12022445D01*
X3243763Y-12222445D02*
X3243763Y-12089112D01*
X3243763Y-12108159D02*
X3253287Y-12098636D01*
X3253287Y-12098636D02*
X3272335Y-12089112D01*
X3272335Y-12089112D02*
X3300906Y-12089112D01*
X3300906Y-12089112D02*
X3319954Y-12098636D01*
X3319954Y-12098636D02*
X3329477Y-12117683D01*
X3329477Y-12117683D02*
X3329477Y-12222445D01*
X3329477Y-12117683D02*
X3339001Y-12098636D01*
X3339001Y-12098636D02*
X3358049Y-12089112D01*
X3358049Y-12089112D02*
X3386620Y-12089112D01*
X3386620Y-12089112D02*
X3405668Y-12098636D01*
X3405668Y-12098636D02*
X3415192Y-12117683D01*
X3415192Y-12117683D02*
X3415192Y-12222445D01*
X3510430Y-12222445D02*
X3510430Y-12089112D01*
X3510430Y-12108159D02*
X3519954Y-12098636D01*
X3519954Y-12098636D02*
X3539001Y-12089112D01*
X3539001Y-12089112D02*
X3567573Y-12089112D01*
X3567573Y-12089112D02*
X3586620Y-12098636D01*
X3586620Y-12098636D02*
X3596144Y-12117683D01*
X3596144Y-12117683D02*
X3596144Y-12222445D01*
X3596144Y-12117683D02*
X3605668Y-12098636D01*
X3605668Y-12098636D02*
X3624716Y-12089112D01*
X3624716Y-12089112D02*
X3653287Y-12089112D01*
X3653287Y-12089112D02*
X3672335Y-12098636D01*
X3672335Y-12098636D02*
X3681858Y-12117683D01*
X3681858Y-12117683D02*
X3681858Y-12222445D01*
X4072335Y-12012921D02*
X3900906Y-12270064D01*
X4329478Y-12022445D02*
X4348525Y-12022445D01*
X4348525Y-12022445D02*
X4367573Y-12031969D01*
X4367573Y-12031969D02*
X4377097Y-12041493D01*
X4377097Y-12041493D02*
X4386621Y-12060540D01*
X4386621Y-12060540D02*
X4396144Y-12098636D01*
X4396144Y-12098636D02*
X4396144Y-12146255D01*
X4396144Y-12146255D02*
X4386621Y-12184350D01*
X4386621Y-12184350D02*
X4377097Y-12203398D01*
X4377097Y-12203398D02*
X4367573Y-12212921D01*
X4367573Y-12212921D02*
X4348525Y-12222445D01*
X4348525Y-12222445D02*
X4329478Y-12222445D01*
X4329478Y-12222445D02*
X4310430Y-12212921D01*
X4310430Y-12212921D02*
X4300906Y-12203398D01*
X4300906Y-12203398D02*
X4291382Y-12184350D01*
X4291382Y-12184350D02*
X4281859Y-12146255D01*
X4281859Y-12146255D02*
X4281859Y-12098636D01*
X4281859Y-12098636D02*
X4291382Y-12060540D01*
X4291382Y-12060540D02*
X4300906Y-12041493D01*
X4300906Y-12041493D02*
X4310430Y-12031969D01*
X4310430Y-12031969D02*
X4329478Y-12022445D01*
X4481859Y-12203398D02*
X4491382Y-12212921D01*
X4491382Y-12212921D02*
X4481859Y-12222445D01*
X4481859Y-12222445D02*
X4472335Y-12212921D01*
X4472335Y-12212921D02*
X4481859Y-12203398D01*
X4481859Y-12203398D02*
X4481859Y-12222445D01*
X4615192Y-12022445D02*
X4634240Y-12022445D01*
X4634240Y-12022445D02*
X4653287Y-12031969D01*
X4653287Y-12031969D02*
X4662811Y-12041493D01*
X4662811Y-12041493D02*
X4672335Y-12060540D01*
X4672335Y-12060540D02*
X4681859Y-12098636D01*
X4681859Y-12098636D02*
X4681859Y-12146255D01*
X4681859Y-12146255D02*
X4672335Y-12184350D01*
X4672335Y-12184350D02*
X4662811Y-12203398D01*
X4662811Y-12203398D02*
X4653287Y-12212921D01*
X4653287Y-12212921D02*
X4634240Y-12222445D01*
X4634240Y-12222445D02*
X4615192Y-12222445D01*
X4615192Y-12222445D02*
X4596144Y-12212921D01*
X4596144Y-12212921D02*
X4586621Y-12203398D01*
X4586621Y-12203398D02*
X4577097Y-12184350D01*
X4577097Y-12184350D02*
X4567573Y-12146255D01*
X4567573Y-12146255D02*
X4567573Y-12098636D01*
X4567573Y-12098636D02*
X4577097Y-12060540D01*
X4577097Y-12060540D02*
X4586621Y-12041493D01*
X4586621Y-12041493D02*
X4596144Y-12031969D01*
X4596144Y-12031969D02*
X4615192Y-12022445D01*
X4796144Y-12108159D02*
X4777097Y-12098636D01*
X4777097Y-12098636D02*
X4767573Y-12089112D01*
X4767573Y-12089112D02*
X4758049Y-12070064D01*
X4758049Y-12070064D02*
X4758049Y-12060540D01*
X4758049Y-12060540D02*
X4767573Y-12041493D01*
X4767573Y-12041493D02*
X4777097Y-12031969D01*
X4777097Y-12031969D02*
X4796144Y-12022445D01*
X4796144Y-12022445D02*
X4834240Y-12022445D01*
X4834240Y-12022445D02*
X4853287Y-12031969D01*
X4853287Y-12031969D02*
X4862811Y-12041493D01*
X4862811Y-12041493D02*
X4872335Y-12060540D01*
X4872335Y-12060540D02*
X4872335Y-12070064D01*
X4872335Y-12070064D02*
X4862811Y-12089112D01*
X4862811Y-12089112D02*
X4853287Y-12098636D01*
X4853287Y-12098636D02*
X4834240Y-12108159D01*
X4834240Y-12108159D02*
X4796144Y-12108159D01*
X4796144Y-12108159D02*
X4777097Y-12117683D01*
X4777097Y-12117683D02*
X4767573Y-12127207D01*
X4767573Y-12127207D02*
X4758049Y-12146255D01*
X4758049Y-12146255D02*
X4758049Y-12184350D01*
X4758049Y-12184350D02*
X4767573Y-12203398D01*
X4767573Y-12203398D02*
X4777097Y-12212921D01*
X4777097Y-12212921D02*
X4796144Y-12222445D01*
X4796144Y-12222445D02*
X4834240Y-12222445D01*
X4834240Y-12222445D02*
X4853287Y-12212921D01*
X4853287Y-12212921D02*
X4862811Y-12203398D01*
X4862811Y-12203398D02*
X4872335Y-12184350D01*
X4872335Y-12184350D02*
X4872335Y-12146255D01*
X4872335Y-12146255D02*
X4862811Y-12127207D01*
X4862811Y-12127207D02*
X4853287Y-12117683D01*
X4853287Y-12117683D02*
X4834240Y-12108159D01*
X5043763Y-12022445D02*
X5005668Y-12022445D01*
X5005668Y-12022445D02*
X4986621Y-12031969D01*
X4986621Y-12031969D02*
X4977097Y-12041493D01*
X4977097Y-12041493D02*
X4958049Y-12070064D01*
X4958049Y-12070064D02*
X4948525Y-12108159D01*
X4948525Y-12108159D02*
X4948525Y-12184350D01*
X4948525Y-12184350D02*
X4958049Y-12203398D01*
X4958049Y-12203398D02*
X4967573Y-12212921D01*
X4967573Y-12212921D02*
X4986621Y-12222445D01*
X4986621Y-12222445D02*
X5024716Y-12222445D01*
X5024716Y-12222445D02*
X5043763Y-12212921D01*
X5043763Y-12212921D02*
X5053287Y-12203398D01*
X5053287Y-12203398D02*
X5062811Y-12184350D01*
X5062811Y-12184350D02*
X5062811Y-12136731D01*
X5062811Y-12136731D02*
X5053287Y-12117683D01*
X5053287Y-12117683D02*
X5043763Y-12108159D01*
X5043763Y-12108159D02*
X5024716Y-12098636D01*
X5024716Y-12098636D02*
X4986621Y-12098636D01*
X4986621Y-12098636D02*
X4967573Y-12108159D01*
X4967573Y-12108159D02*
X4958049Y-12117683D01*
X4958049Y-12117683D02*
X4948525Y-12136731D01*
X5234240Y-12022445D02*
X5196144Y-12022445D01*
X5196144Y-12022445D02*
X5177097Y-12031969D01*
X5177097Y-12031969D02*
X5167573Y-12041493D01*
X5167573Y-12041493D02*
X5148525Y-12070064D01*
X5148525Y-12070064D02*
X5139002Y-12108159D01*
X5139002Y-12108159D02*
X5139002Y-12184350D01*
X5139002Y-12184350D02*
X5148525Y-12203398D01*
X5148525Y-12203398D02*
X5158049Y-12212921D01*
X5158049Y-12212921D02*
X5177097Y-12222445D01*
X5177097Y-12222445D02*
X5215192Y-12222445D01*
X5215192Y-12222445D02*
X5234240Y-12212921D01*
X5234240Y-12212921D02*
X5243763Y-12203398D01*
X5243763Y-12203398D02*
X5253287Y-12184350D01*
X5253287Y-12184350D02*
X5253287Y-12136731D01*
X5253287Y-12136731D02*
X5243763Y-12117683D01*
X5243763Y-12117683D02*
X5234240Y-12108159D01*
X5234240Y-12108159D02*
X5215192Y-12098636D01*
X5215192Y-12098636D02*
X5177097Y-12098636D01*
X5177097Y-12098636D02*
X5158049Y-12108159D01*
X5158049Y-12108159D02*
X5148525Y-12117683D01*
X5148525Y-12117683D02*
X5139002Y-12136731D01*
X5329478Y-12022445D02*
X5329478Y-12060540D01*
X5405668Y-12022445D02*
X5405668Y-12060540D01*
X5700906Y-12298636D02*
X5691382Y-12289112D01*
X5691382Y-12289112D02*
X5672335Y-12260540D01*
X5672335Y-12260540D02*
X5662811Y-12241493D01*
X5662811Y-12241493D02*
X5653287Y-12212921D01*
X5653287Y-12212921D02*
X5643763Y-12165302D01*
X5643763Y-12165302D02*
X5643763Y-12127207D01*
X5643763Y-12127207D02*
X5653287Y-12079588D01*
X5653287Y-12079588D02*
X5662811Y-12051017D01*
X5662811Y-12051017D02*
X5672335Y-12031969D01*
X5672335Y-12031969D02*
X5691382Y-12003398D01*
X5691382Y-12003398D02*
X5700906Y-11993874D01*
X5881859Y-12222445D02*
X5767573Y-12222445D01*
X5824716Y-12222445D02*
X5824716Y-12022445D01*
X5824716Y-12022445D02*
X5805668Y-12051017D01*
X5805668Y-12051017D02*
X5786621Y-12070064D01*
X5786621Y-12070064D02*
X5767573Y-12079588D01*
X6072335Y-12222445D02*
X5958049Y-12222445D01*
X6015192Y-12222445D02*
X6015192Y-12022445D01*
X6015192Y-12022445D02*
X5996144Y-12051017D01*
X5996144Y-12051017D02*
X5977097Y-12070064D01*
X5977097Y-12070064D02*
X5958049Y-12079588D01*
X6310430Y-12222445D02*
X6310430Y-12022445D01*
X6396144Y-12222445D02*
X6396144Y-12117683D01*
X6396144Y-12117683D02*
X6386621Y-12098636D01*
X6386621Y-12098636D02*
X6367573Y-12089112D01*
X6367573Y-12089112D02*
X6339002Y-12089112D01*
X6339002Y-12089112D02*
X6319954Y-12098636D01*
X6319954Y-12098636D02*
X6310430Y-12108159D01*
X6519954Y-12222445D02*
X6500906Y-12212921D01*
X6500906Y-12212921D02*
X6491383Y-12203398D01*
X6491383Y-12203398D02*
X6481859Y-12184350D01*
X6481859Y-12184350D02*
X6481859Y-12127207D01*
X6481859Y-12127207D02*
X6491383Y-12108159D01*
X6491383Y-12108159D02*
X6500906Y-12098636D01*
X6500906Y-12098636D02*
X6519954Y-12089112D01*
X6519954Y-12089112D02*
X6548525Y-12089112D01*
X6548525Y-12089112D02*
X6567573Y-12098636D01*
X6567573Y-12098636D02*
X6577097Y-12108159D01*
X6577097Y-12108159D02*
X6586621Y-12127207D01*
X6586621Y-12127207D02*
X6586621Y-12184350D01*
X6586621Y-12184350D02*
X6577097Y-12203398D01*
X6577097Y-12203398D02*
X6567573Y-12212921D01*
X6567573Y-12212921D02*
X6548525Y-12222445D01*
X6548525Y-12222445D02*
X6519954Y-12222445D01*
X6700906Y-12222445D02*
X6681859Y-12212921D01*
X6681859Y-12212921D02*
X6672335Y-12193874D01*
X6672335Y-12193874D02*
X6672335Y-12022445D01*
X6853287Y-12212921D02*
X6834240Y-12222445D01*
X6834240Y-12222445D02*
X6796144Y-12222445D01*
X6796144Y-12222445D02*
X6777097Y-12212921D01*
X6777097Y-12212921D02*
X6767573Y-12193874D01*
X6767573Y-12193874D02*
X6767573Y-12117683D01*
X6767573Y-12117683D02*
X6777097Y-12098636D01*
X6777097Y-12098636D02*
X6796144Y-12089112D01*
X6796144Y-12089112D02*
X6834240Y-12089112D01*
X6834240Y-12089112D02*
X6853287Y-12098636D01*
X6853287Y-12098636D02*
X6862811Y-12117683D01*
X6862811Y-12117683D02*
X6862811Y-12136731D01*
X6862811Y-12136731D02*
X6767573Y-12155779D01*
X6939002Y-12212921D02*
X6958049Y-12222445D01*
X6958049Y-12222445D02*
X6996144Y-12222445D01*
X6996144Y-12222445D02*
X7015192Y-12212921D01*
X7015192Y-12212921D02*
X7024716Y-12193874D01*
X7024716Y-12193874D02*
X7024716Y-12184350D01*
X7024716Y-12184350D02*
X7015192Y-12165302D01*
X7015192Y-12165302D02*
X6996144Y-12155779D01*
X6996144Y-12155779D02*
X6967573Y-12155779D01*
X6967573Y-12155779D02*
X6948525Y-12146255D01*
X6948525Y-12146255D02*
X6939002Y-12127207D01*
X6939002Y-12127207D02*
X6939002Y-12117683D01*
X6939002Y-12117683D02*
X6948525Y-12098636D01*
X6948525Y-12098636D02*
X6967573Y-12089112D01*
X6967573Y-12089112D02*
X6996144Y-12089112D01*
X6996144Y-12089112D02*
X7015192Y-12098636D01*
X7091383Y-12298636D02*
X7100906Y-12289112D01*
X7100906Y-12289112D02*
X7119954Y-12260540D01*
X7119954Y-12260540D02*
X7129478Y-12241493D01*
X7129478Y-12241493D02*
X7139002Y-12212921D01*
X7139002Y-12212921D02*
X7148525Y-12165302D01*
X7148525Y-12165302D02*
X7148525Y-12127207D01*
X7148525Y-12127207D02*
X7139002Y-12079588D01*
X7139002Y-12079588D02*
X7129478Y-12051017D01*
X7129478Y-12051017D02*
X7119954Y-12031969D01*
X7119954Y-12031969D02*
X7100906Y-12003398D01*
X7100906Y-12003398D02*
X7091383Y-11993874D01*
X7453287Y-12298636D02*
X7443764Y-12289112D01*
X7443764Y-12289112D02*
X7424716Y-12260540D01*
X7424716Y-12260540D02*
X7415192Y-12241493D01*
X7415192Y-12241493D02*
X7405668Y-12212921D01*
X7405668Y-12212921D02*
X7396145Y-12165302D01*
X7396145Y-12165302D02*
X7396145Y-12127207D01*
X7396145Y-12127207D02*
X7405668Y-12079588D01*
X7405668Y-12079588D02*
X7415192Y-12051017D01*
X7415192Y-12051017D02*
X7424716Y-12031969D01*
X7424716Y-12031969D02*
X7443764Y-12003398D01*
X7443764Y-12003398D02*
X7453287Y-11993874D01*
X7529478Y-12089112D02*
X7529478Y-12222445D01*
X7529478Y-12108159D02*
X7539002Y-12098636D01*
X7539002Y-12098636D02*
X7558049Y-12089112D01*
X7558049Y-12089112D02*
X7586621Y-12089112D01*
X7586621Y-12089112D02*
X7605668Y-12098636D01*
X7605668Y-12098636D02*
X7615192Y-12117683D01*
X7615192Y-12117683D02*
X7615192Y-12222445D01*
X7739002Y-12222445D02*
X7719954Y-12212921D01*
X7719954Y-12212921D02*
X7710430Y-12203398D01*
X7710430Y-12203398D02*
X7700906Y-12184350D01*
X7700906Y-12184350D02*
X7700906Y-12127207D01*
X7700906Y-12127207D02*
X7710430Y-12108159D01*
X7710430Y-12108159D02*
X7719954Y-12098636D01*
X7719954Y-12098636D02*
X7739002Y-12089112D01*
X7739002Y-12089112D02*
X7767573Y-12089112D01*
X7767573Y-12089112D02*
X7786621Y-12098636D01*
X7786621Y-12098636D02*
X7796145Y-12108159D01*
X7796145Y-12108159D02*
X7805668Y-12127207D01*
X7805668Y-12127207D02*
X7805668Y-12184350D01*
X7805668Y-12184350D02*
X7796145Y-12203398D01*
X7796145Y-12203398D02*
X7786621Y-12212921D01*
X7786621Y-12212921D02*
X7767573Y-12222445D01*
X7767573Y-12222445D02*
X7739002Y-12222445D01*
X7862811Y-12089112D02*
X7939002Y-12089112D01*
X7891383Y-12022445D02*
X7891383Y-12193874D01*
X7891383Y-12193874D02*
X7900906Y-12212921D01*
X7900906Y-12212921D02*
X7919954Y-12222445D01*
X7919954Y-12222445D02*
X7939002Y-12222445D01*
X8158049Y-12089112D02*
X8158049Y-12289112D01*
X8158049Y-12098636D02*
X8177097Y-12089112D01*
X8177097Y-12089112D02*
X8215192Y-12089112D01*
X8215192Y-12089112D02*
X8234240Y-12098636D01*
X8234240Y-12098636D02*
X8243764Y-12108159D01*
X8243764Y-12108159D02*
X8253287Y-12127207D01*
X8253287Y-12127207D02*
X8253287Y-12184350D01*
X8253287Y-12184350D02*
X8243764Y-12203398D01*
X8243764Y-12203398D02*
X8234240Y-12212921D01*
X8234240Y-12212921D02*
X8215192Y-12222445D01*
X8215192Y-12222445D02*
X8177097Y-12222445D01*
X8177097Y-12222445D02*
X8158049Y-12212921D01*
X8367573Y-12222445D02*
X8348526Y-12212921D01*
X8348526Y-12212921D02*
X8339002Y-12193874D01*
X8339002Y-12193874D02*
X8339002Y-12022445D01*
X8529478Y-12222445D02*
X8529478Y-12117683D01*
X8529478Y-12117683D02*
X8519954Y-12098636D01*
X8519954Y-12098636D02*
X8500907Y-12089112D01*
X8500907Y-12089112D02*
X8462811Y-12089112D01*
X8462811Y-12089112D02*
X8443764Y-12098636D01*
X8529478Y-12212921D02*
X8510430Y-12222445D01*
X8510430Y-12222445D02*
X8462811Y-12222445D01*
X8462811Y-12222445D02*
X8443764Y-12212921D01*
X8443764Y-12212921D02*
X8434240Y-12193874D01*
X8434240Y-12193874D02*
X8434240Y-12174826D01*
X8434240Y-12174826D02*
X8443764Y-12155779D01*
X8443764Y-12155779D02*
X8462811Y-12146255D01*
X8462811Y-12146255D02*
X8510430Y-12146255D01*
X8510430Y-12146255D02*
X8529478Y-12136731D01*
X8596145Y-12089112D02*
X8672335Y-12089112D01*
X8624716Y-12022445D02*
X8624716Y-12193874D01*
X8624716Y-12193874D02*
X8634240Y-12212921D01*
X8634240Y-12212921D02*
X8653288Y-12222445D01*
X8653288Y-12222445D02*
X8672335Y-12222445D01*
X8815192Y-12212921D02*
X8796145Y-12222445D01*
X8796145Y-12222445D02*
X8758049Y-12222445D01*
X8758049Y-12222445D02*
X8739002Y-12212921D01*
X8739002Y-12212921D02*
X8729478Y-12193874D01*
X8729478Y-12193874D02*
X8729478Y-12117683D01*
X8729478Y-12117683D02*
X8739002Y-12098636D01*
X8739002Y-12098636D02*
X8758049Y-12089112D01*
X8758049Y-12089112D02*
X8796145Y-12089112D01*
X8796145Y-12089112D02*
X8815192Y-12098636D01*
X8815192Y-12098636D02*
X8824716Y-12117683D01*
X8824716Y-12117683D02*
X8824716Y-12136731D01*
X8824716Y-12136731D02*
X8729478Y-12155779D01*
X8996145Y-12222445D02*
X8996145Y-12022445D01*
X8996145Y-12212921D02*
X8977097Y-12222445D01*
X8977097Y-12222445D02*
X8939002Y-12222445D01*
X8939002Y-12222445D02*
X8919954Y-12212921D01*
X8919954Y-12212921D02*
X8910430Y-12203398D01*
X8910430Y-12203398D02*
X8900907Y-12184350D01*
X8900907Y-12184350D02*
X8900907Y-12127207D01*
X8900907Y-12127207D02*
X8910430Y-12108159D01*
X8910430Y-12108159D02*
X8919954Y-12098636D01*
X8919954Y-12098636D02*
X8939002Y-12089112D01*
X8939002Y-12089112D02*
X8977097Y-12089112D01*
X8977097Y-12089112D02*
X8996145Y-12098636D01*
X9072335Y-12298636D02*
X9081859Y-12289112D01*
X9081859Y-12289112D02*
X9100907Y-12260540D01*
X9100907Y-12260540D02*
X9110430Y-12241493D01*
X9110430Y-12241493D02*
X9119954Y-12212921D01*
X9119954Y-12212921D02*
X9129478Y-12165302D01*
X9129478Y-12165302D02*
X9129478Y-12127207D01*
X9129478Y-12127207D02*
X9119954Y-12079588D01*
X9119954Y-12079588D02*
X9110430Y-12051017D01*
X9110430Y-12051017D02*
X9100907Y-12031969D01*
X9100907Y-12031969D02*
X9081859Y-12003398D01*
X9081859Y-12003398D02*
X9072335Y-11993874D01*
M02*
