G04 #@! TF.GenerationSoftware,KiCad,Pcbnew,8.0.5*
G04 #@! TF.CreationDate,2024-09-18T07:56:29+09:00*
G04 #@! TF.ProjectId,SandyLP_Plate_Bottom,53616e64-794c-4505-9f50-6c6174655f42,v.0*
G04 #@! TF.SameCoordinates,Original*
G04 #@! TF.FileFunction,Legend,Top*
G04 #@! TF.FilePolarity,Positive*
%FSLAX46Y46*%
G04 Gerber Fmt 4.6, Leading zero omitted, Abs format (unit mm)*
G04 Created by KiCad (PCBNEW 8.0.5) date 2024-09-18 07:56:29*
%MOMM*%
%LPD*%
G01*
G04 APERTURE LIST*
%ADD10C,0.200000*%
%ADD11C,0.900000*%
%ADD12C,0.330000*%
%ADD13C,0.000000*%
%ADD14C,2.200000*%
G04 APERTURE END LIST*
D10*
X128680010Y-103667006D02*
X129965724Y-103667006D01*
X129194295Y-102895577D02*
X128680010Y-105209863D01*
X129794295Y-104438434D02*
X128508581Y-104438434D01*
X129280010Y-105209863D02*
X129794295Y-102895577D01*
X130480010Y-104781292D02*
X130737153Y-104867006D01*
X130737153Y-104867006D02*
X131165724Y-104867006D01*
X131165724Y-104867006D02*
X131337153Y-104781292D01*
X131337153Y-104781292D02*
X131422867Y-104695577D01*
X131422867Y-104695577D02*
X131508581Y-104524149D01*
X131508581Y-104524149D02*
X131508581Y-104352720D01*
X131508581Y-104352720D02*
X131422867Y-104181292D01*
X131422867Y-104181292D02*
X131337153Y-104095577D01*
X131337153Y-104095577D02*
X131165724Y-104009863D01*
X131165724Y-104009863D02*
X130822867Y-103924149D01*
X130822867Y-103924149D02*
X130651438Y-103838434D01*
X130651438Y-103838434D02*
X130565724Y-103752720D01*
X130565724Y-103752720D02*
X130480010Y-103581292D01*
X130480010Y-103581292D02*
X130480010Y-103409863D01*
X130480010Y-103409863D02*
X130565724Y-103238434D01*
X130565724Y-103238434D02*
X130651438Y-103152720D01*
X130651438Y-103152720D02*
X130822867Y-103067006D01*
X130822867Y-103067006D02*
X131251438Y-103067006D01*
X131251438Y-103067006D02*
X131508581Y-103152720D01*
X133051439Y-104867006D02*
X133051439Y-103924149D01*
X133051439Y-103924149D02*
X132965724Y-103752720D01*
X132965724Y-103752720D02*
X132794296Y-103667006D01*
X132794296Y-103667006D02*
X132451439Y-103667006D01*
X132451439Y-103667006D02*
X132280010Y-103752720D01*
X133051439Y-104781292D02*
X132880010Y-104867006D01*
X132880010Y-104867006D02*
X132451439Y-104867006D01*
X132451439Y-104867006D02*
X132280010Y-104781292D01*
X132280010Y-104781292D02*
X132194296Y-104609863D01*
X132194296Y-104609863D02*
X132194296Y-104438434D01*
X132194296Y-104438434D02*
X132280010Y-104267006D01*
X132280010Y-104267006D02*
X132451439Y-104181292D01*
X132451439Y-104181292D02*
X132880010Y-104181292D01*
X132880010Y-104181292D02*
X133051439Y-104095577D01*
X133908581Y-103667006D02*
X133908581Y-104867006D01*
X133908581Y-103838434D02*
X133994295Y-103752720D01*
X133994295Y-103752720D02*
X134165724Y-103667006D01*
X134165724Y-103667006D02*
X134422867Y-103667006D01*
X134422867Y-103667006D02*
X134594295Y-103752720D01*
X134594295Y-103752720D02*
X134680010Y-103924149D01*
X134680010Y-103924149D02*
X134680010Y-104867006D01*
X136308581Y-104867006D02*
X136308581Y-103067006D01*
X136308581Y-104781292D02*
X136137152Y-104867006D01*
X136137152Y-104867006D02*
X135794295Y-104867006D01*
X135794295Y-104867006D02*
X135622866Y-104781292D01*
X135622866Y-104781292D02*
X135537152Y-104695577D01*
X135537152Y-104695577D02*
X135451438Y-104524149D01*
X135451438Y-104524149D02*
X135451438Y-104009863D01*
X135451438Y-104009863D02*
X135537152Y-103838434D01*
X135537152Y-103838434D02*
X135622866Y-103752720D01*
X135622866Y-103752720D02*
X135794295Y-103667006D01*
X135794295Y-103667006D02*
X136137152Y-103667006D01*
X136137152Y-103667006D02*
X136308581Y-103752720D01*
X136994294Y-103667006D02*
X137422866Y-104867006D01*
X137851437Y-103667006D02*
X137422866Y-104867006D01*
X137422866Y-104867006D02*
X137251437Y-105295577D01*
X137251437Y-105295577D02*
X137165723Y-105381292D01*
X137165723Y-105381292D02*
X136994294Y-105467006D01*
X139394295Y-104867006D02*
X138537152Y-104867006D01*
X138537152Y-104867006D02*
X138537152Y-103067006D01*
X139994295Y-104867006D02*
X139994295Y-103067006D01*
X139994295Y-103067006D02*
X140680009Y-103067006D01*
X140680009Y-103067006D02*
X140851438Y-103152720D01*
X140851438Y-103152720D02*
X140937152Y-103238434D01*
X140937152Y-103238434D02*
X141022866Y-103409863D01*
X141022866Y-103409863D02*
X141022866Y-103667006D01*
X141022866Y-103667006D02*
X140937152Y-103838434D01*
X140937152Y-103838434D02*
X140851438Y-103924149D01*
X140851438Y-103924149D02*
X140680009Y-104009863D01*
X140680009Y-104009863D02*
X139994295Y-104009863D01*
X141365724Y-105038434D02*
X142737152Y-105038434D01*
X143165724Y-104867006D02*
X143165724Y-103067006D01*
X143337153Y-104181292D02*
X143851438Y-104867006D01*
X143851438Y-103667006D02*
X143165724Y-104352720D01*
X144622867Y-104867006D02*
X144622867Y-103067006D01*
X144622867Y-103752720D02*
X144794296Y-103667006D01*
X144794296Y-103667006D02*
X145137153Y-103667006D01*
X145137153Y-103667006D02*
X145308581Y-103752720D01*
X145308581Y-103752720D02*
X145394296Y-103838434D01*
X145394296Y-103838434D02*
X145480010Y-104009863D01*
X145480010Y-104009863D02*
X145480010Y-104524149D01*
X145480010Y-104524149D02*
X145394296Y-104695577D01*
X145394296Y-104695577D02*
X145308581Y-104781292D01*
X145308581Y-104781292D02*
X145137153Y-104867006D01*
X145137153Y-104867006D02*
X144794296Y-104867006D01*
X144794296Y-104867006D02*
X144622867Y-104781292D01*
X147022867Y-104867006D02*
X147022867Y-103067006D01*
X147022867Y-104781292D02*
X146851438Y-104867006D01*
X146851438Y-104867006D02*
X146508581Y-104867006D01*
X146508581Y-104867006D02*
X146337152Y-104781292D01*
X146337152Y-104781292D02*
X146251438Y-104695577D01*
X146251438Y-104695577D02*
X146165724Y-104524149D01*
X146165724Y-104524149D02*
X146165724Y-104009863D01*
X146165724Y-104009863D02*
X146251438Y-103838434D01*
X146251438Y-103838434D02*
X146337152Y-103752720D01*
X146337152Y-103752720D02*
X146508581Y-103667006D01*
X146508581Y-103667006D02*
X146851438Y-103667006D01*
X146851438Y-103667006D02*
X147022867Y-103752720D01*
X149251438Y-104867006D02*
X149251438Y-103067006D01*
X149251438Y-103067006D02*
X149680009Y-103067006D01*
X149680009Y-103067006D02*
X149937152Y-103152720D01*
X149937152Y-103152720D02*
X150108581Y-103324149D01*
X150108581Y-103324149D02*
X150194295Y-103495577D01*
X150194295Y-103495577D02*
X150280009Y-103838434D01*
X150280009Y-103838434D02*
X150280009Y-104095577D01*
X150280009Y-104095577D02*
X150194295Y-104438434D01*
X150194295Y-104438434D02*
X150108581Y-104609863D01*
X150108581Y-104609863D02*
X149937152Y-104781292D01*
X149937152Y-104781292D02*
X149680009Y-104867006D01*
X149680009Y-104867006D02*
X149251438Y-104867006D01*
X151051438Y-104867006D02*
X151051438Y-103067006D01*
X151051438Y-103067006D02*
X152080009Y-104867006D01*
X152080009Y-104867006D02*
X152080009Y-103067006D01*
X153280009Y-103067006D02*
X153451438Y-103067006D01*
X153451438Y-103067006D02*
X153622866Y-103152720D01*
X153622866Y-103152720D02*
X153708581Y-103238434D01*
X153708581Y-103238434D02*
X153794295Y-103409863D01*
X153794295Y-103409863D02*
X153880009Y-103752720D01*
X153880009Y-103752720D02*
X153880009Y-104181292D01*
X153880009Y-104181292D02*
X153794295Y-104524149D01*
X153794295Y-104524149D02*
X153708581Y-104695577D01*
X153708581Y-104695577D02*
X153622866Y-104781292D01*
X153622866Y-104781292D02*
X153451438Y-104867006D01*
X153451438Y-104867006D02*
X153280009Y-104867006D01*
X153280009Y-104867006D02*
X153108581Y-104781292D01*
X153108581Y-104781292D02*
X153022866Y-104695577D01*
X153022866Y-104695577D02*
X152937152Y-104524149D01*
X152937152Y-104524149D02*
X152851438Y-104181292D01*
X152851438Y-104181292D02*
X152851438Y-103752720D01*
X152851438Y-103752720D02*
X152937152Y-103409863D01*
X152937152Y-103409863D02*
X153022866Y-103238434D01*
X153022866Y-103238434D02*
X153108581Y-103152720D01*
X153108581Y-103152720D02*
X153280009Y-103067006D01*
X154994295Y-103067006D02*
X155165724Y-103067006D01*
X155165724Y-103067006D02*
X155337152Y-103152720D01*
X155337152Y-103152720D02*
X155422867Y-103238434D01*
X155422867Y-103238434D02*
X155508581Y-103409863D01*
X155508581Y-103409863D02*
X155594295Y-103752720D01*
X155594295Y-103752720D02*
X155594295Y-104181292D01*
X155594295Y-104181292D02*
X155508581Y-104524149D01*
X155508581Y-104524149D02*
X155422867Y-104695577D01*
X155422867Y-104695577D02*
X155337152Y-104781292D01*
X155337152Y-104781292D02*
X155165724Y-104867006D01*
X155165724Y-104867006D02*
X154994295Y-104867006D01*
X154994295Y-104867006D02*
X154822867Y-104781292D01*
X154822867Y-104781292D02*
X154737152Y-104695577D01*
X154737152Y-104695577D02*
X154651438Y-104524149D01*
X154651438Y-104524149D02*
X154565724Y-104181292D01*
X154565724Y-104181292D02*
X154565724Y-103752720D01*
X154565724Y-103752720D02*
X154651438Y-103409863D01*
X154651438Y-103409863D02*
X154737152Y-103238434D01*
X154737152Y-103238434D02*
X154822867Y-103152720D01*
X154822867Y-103152720D02*
X154994295Y-103067006D01*
X157308581Y-104867006D02*
X156280010Y-104867006D01*
X156794295Y-104867006D02*
X156794295Y-103067006D01*
X156794295Y-103067006D02*
X156622867Y-103324149D01*
X156622867Y-103324149D02*
X156451438Y-103495577D01*
X156451438Y-103495577D02*
X156280010Y-103581292D01*
X158422867Y-103067006D02*
X158594296Y-103067006D01*
X158594296Y-103067006D02*
X158765724Y-103152720D01*
X158765724Y-103152720D02*
X158851439Y-103238434D01*
X158851439Y-103238434D02*
X158937153Y-103409863D01*
X158937153Y-103409863D02*
X159022867Y-103752720D01*
X159022867Y-103752720D02*
X159022867Y-104181292D01*
X159022867Y-104181292D02*
X158937153Y-104524149D01*
X158937153Y-104524149D02*
X158851439Y-104695577D01*
X158851439Y-104695577D02*
X158765724Y-104781292D01*
X158765724Y-104781292D02*
X158594296Y-104867006D01*
X158594296Y-104867006D02*
X158422867Y-104867006D01*
X158422867Y-104867006D02*
X158251439Y-104781292D01*
X158251439Y-104781292D02*
X158165724Y-104695577D01*
X158165724Y-104695577D02*
X158080010Y-104524149D01*
X158080010Y-104524149D02*
X157994296Y-104181292D01*
X157994296Y-104181292D02*
X157994296Y-103752720D01*
X157994296Y-103752720D02*
X158080010Y-103409863D01*
X158080010Y-103409863D02*
X158165724Y-103238434D01*
X158165724Y-103238434D02*
X158251439Y-103152720D01*
X158251439Y-103152720D02*
X158422867Y-103067006D01*
X159880010Y-104781292D02*
X159880010Y-104867006D01*
X159880010Y-104867006D02*
X159794296Y-105038434D01*
X159794296Y-105038434D02*
X159708582Y-105124149D01*
X162622868Y-103924149D02*
X162880011Y-104009863D01*
X162880011Y-104009863D02*
X162965725Y-104095577D01*
X162965725Y-104095577D02*
X163051439Y-104267006D01*
X163051439Y-104267006D02*
X163051439Y-104524149D01*
X163051439Y-104524149D02*
X162965725Y-104695577D01*
X162965725Y-104695577D02*
X162880011Y-104781292D01*
X162880011Y-104781292D02*
X162708582Y-104867006D01*
X162708582Y-104867006D02*
X162022868Y-104867006D01*
X162022868Y-104867006D02*
X162022868Y-103067006D01*
X162022868Y-103067006D02*
X162622868Y-103067006D01*
X162622868Y-103067006D02*
X162794297Y-103152720D01*
X162794297Y-103152720D02*
X162880011Y-103238434D01*
X162880011Y-103238434D02*
X162965725Y-103409863D01*
X162965725Y-103409863D02*
X162965725Y-103581292D01*
X162965725Y-103581292D02*
X162880011Y-103752720D01*
X162880011Y-103752720D02*
X162794297Y-103838434D01*
X162794297Y-103838434D02*
X162622868Y-103924149D01*
X162622868Y-103924149D02*
X162022868Y-103924149D01*
X164080011Y-104867006D02*
X163908582Y-104781292D01*
X163908582Y-104781292D02*
X163822868Y-104695577D01*
X163822868Y-104695577D02*
X163737154Y-104524149D01*
X163737154Y-104524149D02*
X163737154Y-104009863D01*
X163737154Y-104009863D02*
X163822868Y-103838434D01*
X163822868Y-103838434D02*
X163908582Y-103752720D01*
X163908582Y-103752720D02*
X164080011Y-103667006D01*
X164080011Y-103667006D02*
X164337154Y-103667006D01*
X164337154Y-103667006D02*
X164508582Y-103752720D01*
X164508582Y-103752720D02*
X164594297Y-103838434D01*
X164594297Y-103838434D02*
X164680011Y-104009863D01*
X164680011Y-104009863D02*
X164680011Y-104524149D01*
X164680011Y-104524149D02*
X164594297Y-104695577D01*
X164594297Y-104695577D02*
X164508582Y-104781292D01*
X164508582Y-104781292D02*
X164337154Y-104867006D01*
X164337154Y-104867006D02*
X164080011Y-104867006D01*
X165194296Y-103667006D02*
X165880010Y-103667006D01*
X165451439Y-103067006D02*
X165451439Y-104609863D01*
X165451439Y-104609863D02*
X165537153Y-104781292D01*
X165537153Y-104781292D02*
X165708582Y-104867006D01*
X165708582Y-104867006D02*
X165880010Y-104867006D01*
X166222867Y-103667006D02*
X166908581Y-103667006D01*
X166480010Y-103067006D02*
X166480010Y-104609863D01*
X166480010Y-104609863D02*
X166565724Y-104781292D01*
X166565724Y-104781292D02*
X166737153Y-104867006D01*
X166737153Y-104867006D02*
X166908581Y-104867006D01*
X167765724Y-104867006D02*
X167594295Y-104781292D01*
X167594295Y-104781292D02*
X167508581Y-104695577D01*
X167508581Y-104695577D02*
X167422867Y-104524149D01*
X167422867Y-104524149D02*
X167422867Y-104009863D01*
X167422867Y-104009863D02*
X167508581Y-103838434D01*
X167508581Y-103838434D02*
X167594295Y-103752720D01*
X167594295Y-103752720D02*
X167765724Y-103667006D01*
X167765724Y-103667006D02*
X168022867Y-103667006D01*
X168022867Y-103667006D02*
X168194295Y-103752720D01*
X168194295Y-103752720D02*
X168280010Y-103838434D01*
X168280010Y-103838434D02*
X168365724Y-104009863D01*
X168365724Y-104009863D02*
X168365724Y-104524149D01*
X168365724Y-104524149D02*
X168280010Y-104695577D01*
X168280010Y-104695577D02*
X168194295Y-104781292D01*
X168194295Y-104781292D02*
X168022867Y-104867006D01*
X168022867Y-104867006D02*
X167765724Y-104867006D01*
X169137152Y-104867006D02*
X169137152Y-103667006D01*
X169137152Y-103838434D02*
X169222866Y-103752720D01*
X169222866Y-103752720D02*
X169394295Y-103667006D01*
X169394295Y-103667006D02*
X169651438Y-103667006D01*
X169651438Y-103667006D02*
X169822866Y-103752720D01*
X169822866Y-103752720D02*
X169908581Y-103924149D01*
X169908581Y-103924149D02*
X169908581Y-104867006D01*
X169908581Y-103924149D02*
X169994295Y-103752720D01*
X169994295Y-103752720D02*
X170165723Y-103667006D01*
X170165723Y-103667006D02*
X170422866Y-103667006D01*
X170422866Y-103667006D02*
X170594295Y-103752720D01*
X170594295Y-103752720D02*
X170680009Y-103924149D01*
X170680009Y-103924149D02*
X170680009Y-104867006D01*
X172908581Y-104867006D02*
X172908581Y-103067006D01*
X172908581Y-103752720D02*
X173080010Y-103667006D01*
X173080010Y-103667006D02*
X173422867Y-103667006D01*
X173422867Y-103667006D02*
X173594295Y-103752720D01*
X173594295Y-103752720D02*
X173680010Y-103838434D01*
X173680010Y-103838434D02*
X173765724Y-104009863D01*
X173765724Y-104009863D02*
X173765724Y-104524149D01*
X173765724Y-104524149D02*
X173680010Y-104695577D01*
X173680010Y-104695577D02*
X173594295Y-104781292D01*
X173594295Y-104781292D02*
X173422867Y-104867006D01*
X173422867Y-104867006D02*
X173080010Y-104867006D01*
X173080010Y-104867006D02*
X172908581Y-104781292D01*
X174365723Y-103667006D02*
X174794295Y-104867006D01*
X175222866Y-103667006D02*
X174794295Y-104867006D01*
X174794295Y-104867006D02*
X174622866Y-105295577D01*
X174622866Y-105295577D02*
X174537152Y-105381292D01*
X174537152Y-105381292D02*
X174365723Y-105467006D01*
X178394296Y-104009863D02*
X178308581Y-103924149D01*
X178308581Y-103924149D02*
X178137153Y-103838434D01*
X178137153Y-103838434D02*
X177965724Y-103838434D01*
X177965724Y-103838434D02*
X177794296Y-103924149D01*
X177794296Y-103924149D02*
X177708581Y-104009863D01*
X177708581Y-104009863D02*
X177622867Y-104181292D01*
X177622867Y-104181292D02*
X177622867Y-104352720D01*
X177622867Y-104352720D02*
X177708581Y-104524149D01*
X177708581Y-104524149D02*
X177794296Y-104609863D01*
X177794296Y-104609863D02*
X177965724Y-104695577D01*
X177965724Y-104695577D02*
X178137153Y-104695577D01*
X178137153Y-104695577D02*
X178308581Y-104609863D01*
X178308581Y-104609863D02*
X178394296Y-104524149D01*
X178394296Y-103838434D02*
X178394296Y-104524149D01*
X178394296Y-104524149D02*
X178480010Y-104609863D01*
X178480010Y-104609863D02*
X178565724Y-104609863D01*
X178565724Y-104609863D02*
X178737153Y-104524149D01*
X178737153Y-104524149D02*
X178822867Y-104352720D01*
X178822867Y-104352720D02*
X178822867Y-103924149D01*
X178822867Y-103924149D02*
X178651439Y-103667006D01*
X178651439Y-103667006D02*
X178394296Y-103495577D01*
X178394296Y-103495577D02*
X178051439Y-103409863D01*
X178051439Y-103409863D02*
X177708581Y-103495577D01*
X177708581Y-103495577D02*
X177451439Y-103667006D01*
X177451439Y-103667006D02*
X177280010Y-103924149D01*
X177280010Y-103924149D02*
X177194296Y-104267006D01*
X177194296Y-104267006D02*
X177280010Y-104609863D01*
X177280010Y-104609863D02*
X177451439Y-104867006D01*
X177451439Y-104867006D02*
X177708581Y-105038434D01*
X177708581Y-105038434D02*
X178051439Y-105124149D01*
X178051439Y-105124149D02*
X178394296Y-105038434D01*
X178394296Y-105038434D02*
X178651439Y-104867006D01*
X179594296Y-103667006D02*
X179594296Y-105209863D01*
X179594296Y-105209863D02*
X179508582Y-105381292D01*
X179508582Y-105381292D02*
X179337153Y-105467006D01*
X179337153Y-105467006D02*
X179251439Y-105467006D01*
X179594296Y-103067006D02*
X179508582Y-103152720D01*
X179508582Y-103152720D02*
X179594296Y-103238434D01*
X179594296Y-103238434D02*
X179680010Y-103152720D01*
X179680010Y-103152720D02*
X179594296Y-103067006D01*
X179594296Y-103067006D02*
X179594296Y-103238434D01*
X180451439Y-103667006D02*
X180451439Y-105467006D01*
X180451439Y-103752720D02*
X180622868Y-103667006D01*
X180622868Y-103667006D02*
X180965725Y-103667006D01*
X180965725Y-103667006D02*
X181137153Y-103752720D01*
X181137153Y-103752720D02*
X181222868Y-103838434D01*
X181222868Y-103838434D02*
X181308582Y-104009863D01*
X181308582Y-104009863D02*
X181308582Y-104524149D01*
X181308582Y-104524149D02*
X181222868Y-104695577D01*
X181222868Y-104695577D02*
X181137153Y-104781292D01*
X181137153Y-104781292D02*
X180965725Y-104867006D01*
X180965725Y-104867006D02*
X180622868Y-104867006D01*
X180622868Y-104867006D02*
X180451439Y-104781292D01*
X181994296Y-104781292D02*
X182165724Y-104867006D01*
X182165724Y-104867006D02*
X182508581Y-104867006D01*
X182508581Y-104867006D02*
X182680010Y-104781292D01*
X182680010Y-104781292D02*
X182765724Y-104609863D01*
X182765724Y-104609863D02*
X182765724Y-104524149D01*
X182765724Y-104524149D02*
X182680010Y-104352720D01*
X182680010Y-104352720D02*
X182508581Y-104267006D01*
X182508581Y-104267006D02*
X182251439Y-104267006D01*
X182251439Y-104267006D02*
X182080010Y-104181292D01*
X182080010Y-104181292D02*
X181994296Y-104009863D01*
X181994296Y-104009863D02*
X181994296Y-103924149D01*
X181994296Y-103924149D02*
X182080010Y-103752720D01*
X182080010Y-103752720D02*
X182251439Y-103667006D01*
X182251439Y-103667006D02*
X182508581Y-103667006D01*
X182508581Y-103667006D02*
X182680010Y-103752720D01*
X183537153Y-104867006D02*
X183537153Y-103067006D01*
X183708582Y-104181292D02*
X184222867Y-104867006D01*
X184222867Y-103667006D02*
X183537153Y-104352720D01*
X185680010Y-104781292D02*
X185508582Y-104867006D01*
X185508582Y-104867006D02*
X185165725Y-104867006D01*
X185165725Y-104867006D02*
X184994296Y-104781292D01*
X184994296Y-104781292D02*
X184908582Y-104609863D01*
X184908582Y-104609863D02*
X184908582Y-103924149D01*
X184908582Y-103924149D02*
X184994296Y-103752720D01*
X184994296Y-103752720D02*
X185165725Y-103667006D01*
X185165725Y-103667006D02*
X185508582Y-103667006D01*
X185508582Y-103667006D02*
X185680010Y-103752720D01*
X185680010Y-103752720D02*
X185765725Y-103924149D01*
X185765725Y-103924149D02*
X185765725Y-104095577D01*
X185765725Y-104095577D02*
X184908582Y-104267006D01*
X186537153Y-103667006D02*
X186537153Y-104867006D01*
X186537153Y-103838434D02*
X186622867Y-103752720D01*
X186622867Y-103752720D02*
X186794296Y-103667006D01*
X186794296Y-103667006D02*
X187051439Y-103667006D01*
X187051439Y-103667006D02*
X187222867Y-103752720D01*
X187222867Y-103752720D02*
X187308582Y-103924149D01*
X187308582Y-103924149D02*
X187308582Y-104867006D01*
X188165724Y-103667006D02*
X188165724Y-104867006D01*
X188165724Y-103838434D02*
X188251438Y-103752720D01*
X188251438Y-103752720D02*
X188422867Y-103667006D01*
X188422867Y-103667006D02*
X188680010Y-103667006D01*
X188680010Y-103667006D02*
X188851438Y-103752720D01*
X188851438Y-103752720D02*
X188937153Y-103924149D01*
X188937153Y-103924149D02*
X188937153Y-104867006D01*
X129537153Y-106564905D02*
X129537153Y-108022048D01*
X129537153Y-108022048D02*
X129451438Y-108193476D01*
X129451438Y-108193476D02*
X129365724Y-108279191D01*
X129365724Y-108279191D02*
X129194295Y-108364905D01*
X129194295Y-108364905D02*
X128937153Y-108364905D01*
X128937153Y-108364905D02*
X128765724Y-108279191D01*
X129537153Y-107679191D02*
X129365724Y-107764905D01*
X129365724Y-107764905D02*
X129022867Y-107764905D01*
X129022867Y-107764905D02*
X128851438Y-107679191D01*
X128851438Y-107679191D02*
X128765724Y-107593476D01*
X128765724Y-107593476D02*
X128680010Y-107422048D01*
X128680010Y-107422048D02*
X128680010Y-106907762D01*
X128680010Y-106907762D02*
X128765724Y-106736333D01*
X128765724Y-106736333D02*
X128851438Y-106650619D01*
X128851438Y-106650619D02*
X129022867Y-106564905D01*
X129022867Y-106564905D02*
X129365724Y-106564905D01*
X129365724Y-106564905D02*
X129537153Y-106650619D01*
X130394295Y-107764905D02*
X130394295Y-106564905D01*
X130394295Y-105964905D02*
X130308581Y-106050619D01*
X130308581Y-106050619D02*
X130394295Y-106136333D01*
X130394295Y-106136333D02*
X130480009Y-106050619D01*
X130480009Y-106050619D02*
X130394295Y-105964905D01*
X130394295Y-105964905D02*
X130394295Y-106136333D01*
X130994295Y-106564905D02*
X131680009Y-106564905D01*
X131251438Y-105964905D02*
X131251438Y-107507762D01*
X131251438Y-107507762D02*
X131337152Y-107679191D01*
X131337152Y-107679191D02*
X131508581Y-107764905D01*
X131508581Y-107764905D02*
X131680009Y-107764905D01*
X132280009Y-107764905D02*
X132280009Y-105964905D01*
X133051438Y-107764905D02*
X133051438Y-106822048D01*
X133051438Y-106822048D02*
X132965723Y-106650619D01*
X132965723Y-106650619D02*
X132794295Y-106564905D01*
X132794295Y-106564905D02*
X132537152Y-106564905D01*
X132537152Y-106564905D02*
X132365723Y-106650619D01*
X132365723Y-106650619D02*
X132280009Y-106736333D01*
X134680009Y-106564905D02*
X134680009Y-107764905D01*
X133908580Y-106564905D02*
X133908580Y-107507762D01*
X133908580Y-107507762D02*
X133994294Y-107679191D01*
X133994294Y-107679191D02*
X134165723Y-107764905D01*
X134165723Y-107764905D02*
X134422866Y-107764905D01*
X134422866Y-107764905D02*
X134594294Y-107679191D01*
X134594294Y-107679191D02*
X134680009Y-107593476D01*
X135537151Y-107764905D02*
X135537151Y-105964905D01*
X135537151Y-106650619D02*
X135708580Y-106564905D01*
X135708580Y-106564905D02*
X136051437Y-106564905D01*
X136051437Y-106564905D02*
X136222865Y-106650619D01*
X136222865Y-106650619D02*
X136308580Y-106736333D01*
X136308580Y-106736333D02*
X136394294Y-106907762D01*
X136394294Y-106907762D02*
X136394294Y-107422048D01*
X136394294Y-107422048D02*
X136308580Y-107593476D01*
X136308580Y-107593476D02*
X136222865Y-107679191D01*
X136222865Y-107679191D02*
X136051437Y-107764905D01*
X136051437Y-107764905D02*
X135708580Y-107764905D01*
X135708580Y-107764905D02*
X135537151Y-107679191D01*
X137165722Y-107593476D02*
X137251436Y-107679191D01*
X137251436Y-107679191D02*
X137165722Y-107764905D01*
X137165722Y-107764905D02*
X137080008Y-107679191D01*
X137080008Y-107679191D02*
X137165722Y-107593476D01*
X137165722Y-107593476D02*
X137165722Y-107764905D01*
X138794294Y-107679191D02*
X138622865Y-107764905D01*
X138622865Y-107764905D02*
X138280008Y-107764905D01*
X138280008Y-107764905D02*
X138108579Y-107679191D01*
X138108579Y-107679191D02*
X138022865Y-107593476D01*
X138022865Y-107593476D02*
X137937151Y-107422048D01*
X137937151Y-107422048D02*
X137937151Y-106907762D01*
X137937151Y-106907762D02*
X138022865Y-106736333D01*
X138022865Y-106736333D02*
X138108579Y-106650619D01*
X138108579Y-106650619D02*
X138280008Y-106564905D01*
X138280008Y-106564905D02*
X138622865Y-106564905D01*
X138622865Y-106564905D02*
X138794294Y-106650619D01*
X139822865Y-107764905D02*
X139651436Y-107679191D01*
X139651436Y-107679191D02*
X139565722Y-107593476D01*
X139565722Y-107593476D02*
X139480008Y-107422048D01*
X139480008Y-107422048D02*
X139480008Y-106907762D01*
X139480008Y-106907762D02*
X139565722Y-106736333D01*
X139565722Y-106736333D02*
X139651436Y-106650619D01*
X139651436Y-106650619D02*
X139822865Y-106564905D01*
X139822865Y-106564905D02*
X140080008Y-106564905D01*
X140080008Y-106564905D02*
X140251436Y-106650619D01*
X140251436Y-106650619D02*
X140337151Y-106736333D01*
X140337151Y-106736333D02*
X140422865Y-106907762D01*
X140422865Y-106907762D02*
X140422865Y-107422048D01*
X140422865Y-107422048D02*
X140337151Y-107593476D01*
X140337151Y-107593476D02*
X140251436Y-107679191D01*
X140251436Y-107679191D02*
X140080008Y-107764905D01*
X140080008Y-107764905D02*
X139822865Y-107764905D01*
X141194293Y-107764905D02*
X141194293Y-106564905D01*
X141194293Y-106736333D02*
X141280007Y-106650619D01*
X141280007Y-106650619D02*
X141451436Y-106564905D01*
X141451436Y-106564905D02*
X141708579Y-106564905D01*
X141708579Y-106564905D02*
X141880007Y-106650619D01*
X141880007Y-106650619D02*
X141965722Y-106822048D01*
X141965722Y-106822048D02*
X141965722Y-107764905D01*
X141965722Y-106822048D02*
X142051436Y-106650619D01*
X142051436Y-106650619D02*
X142222864Y-106564905D01*
X142222864Y-106564905D02*
X142480007Y-106564905D01*
X142480007Y-106564905D02*
X142651436Y-106650619D01*
X142651436Y-106650619D02*
X142737150Y-106822048D01*
X142737150Y-106822048D02*
X142737150Y-107764905D01*
X144880007Y-105879191D02*
X143337150Y-108193476D01*
X145480007Y-106564905D02*
X145480007Y-108107762D01*
X145480007Y-108107762D02*
X145394293Y-108279191D01*
X145394293Y-108279191D02*
X145222864Y-108364905D01*
X145222864Y-108364905D02*
X145137150Y-108364905D01*
X145480007Y-105964905D02*
X145394293Y-106050619D01*
X145394293Y-106050619D02*
X145480007Y-106136333D01*
X145480007Y-106136333D02*
X145565721Y-106050619D01*
X145565721Y-106050619D02*
X145480007Y-105964905D01*
X145480007Y-105964905D02*
X145480007Y-106136333D01*
X146337150Y-106564905D02*
X146337150Y-108364905D01*
X146337150Y-106650619D02*
X146508579Y-106564905D01*
X146508579Y-106564905D02*
X146851436Y-106564905D01*
X146851436Y-106564905D02*
X147022864Y-106650619D01*
X147022864Y-106650619D02*
X147108579Y-106736333D01*
X147108579Y-106736333D02*
X147194293Y-106907762D01*
X147194293Y-106907762D02*
X147194293Y-107422048D01*
X147194293Y-107422048D02*
X147108579Y-107593476D01*
X147108579Y-107593476D02*
X147022864Y-107679191D01*
X147022864Y-107679191D02*
X146851436Y-107764905D01*
X146851436Y-107764905D02*
X146508579Y-107764905D01*
X146508579Y-107764905D02*
X146337150Y-107679191D01*
X147880007Y-107679191D02*
X148051435Y-107764905D01*
X148051435Y-107764905D02*
X148394292Y-107764905D01*
X148394292Y-107764905D02*
X148565721Y-107679191D01*
X148565721Y-107679191D02*
X148651435Y-107507762D01*
X148651435Y-107507762D02*
X148651435Y-107422048D01*
X148651435Y-107422048D02*
X148565721Y-107250619D01*
X148565721Y-107250619D02*
X148394292Y-107164905D01*
X148394292Y-107164905D02*
X148137150Y-107164905D01*
X148137150Y-107164905D02*
X147965721Y-107079191D01*
X147965721Y-107079191D02*
X147880007Y-106907762D01*
X147880007Y-106907762D02*
X147880007Y-106822048D01*
X147880007Y-106822048D02*
X147965721Y-106650619D01*
X147965721Y-106650619D02*
X148137150Y-106564905D01*
X148137150Y-106564905D02*
X148394292Y-106564905D01*
X148394292Y-106564905D02*
X148565721Y-106650619D01*
X149422864Y-107764905D02*
X149422864Y-105964905D01*
X149594293Y-107079191D02*
X150108578Y-107764905D01*
X150108578Y-106564905D02*
X149422864Y-107250619D01*
X151565721Y-107679191D02*
X151394293Y-107764905D01*
X151394293Y-107764905D02*
X151051436Y-107764905D01*
X151051436Y-107764905D02*
X150880007Y-107679191D01*
X150880007Y-107679191D02*
X150794293Y-107507762D01*
X150794293Y-107507762D02*
X150794293Y-106822048D01*
X150794293Y-106822048D02*
X150880007Y-106650619D01*
X150880007Y-106650619D02*
X151051436Y-106564905D01*
X151051436Y-106564905D02*
X151394293Y-106564905D01*
X151394293Y-106564905D02*
X151565721Y-106650619D01*
X151565721Y-106650619D02*
X151651436Y-106822048D01*
X151651436Y-106822048D02*
X151651436Y-106993476D01*
X151651436Y-106993476D02*
X150794293Y-107164905D01*
X152422864Y-106564905D02*
X152422864Y-107764905D01*
X152422864Y-106736333D02*
X152508578Y-106650619D01*
X152508578Y-106650619D02*
X152680007Y-106564905D01*
X152680007Y-106564905D02*
X152937150Y-106564905D01*
X152937150Y-106564905D02*
X153108578Y-106650619D01*
X153108578Y-106650619D02*
X153194293Y-106822048D01*
X153194293Y-106822048D02*
X153194293Y-107764905D01*
X154051435Y-106564905D02*
X154051435Y-107764905D01*
X154051435Y-106736333D02*
X154137149Y-106650619D01*
X154137149Y-106650619D02*
X154308578Y-106564905D01*
X154308578Y-106564905D02*
X154565721Y-106564905D01*
X154565721Y-106564905D02*
X154737149Y-106650619D01*
X154737149Y-106650619D02*
X154822864Y-106822048D01*
X154822864Y-106822048D02*
X154822864Y-107764905D01*
X156965720Y-105879191D02*
X155422863Y-108193476D01*
X157480006Y-107679191D02*
X157737149Y-107764905D01*
X157737149Y-107764905D02*
X158165720Y-107764905D01*
X158165720Y-107764905D02*
X158337149Y-107679191D01*
X158337149Y-107679191D02*
X158422863Y-107593476D01*
X158422863Y-107593476D02*
X158508577Y-107422048D01*
X158508577Y-107422048D02*
X158508577Y-107250619D01*
X158508577Y-107250619D02*
X158422863Y-107079191D01*
X158422863Y-107079191D02*
X158337149Y-106993476D01*
X158337149Y-106993476D02*
X158165720Y-106907762D01*
X158165720Y-106907762D02*
X157822863Y-106822048D01*
X157822863Y-106822048D02*
X157651434Y-106736333D01*
X157651434Y-106736333D02*
X157565720Y-106650619D01*
X157565720Y-106650619D02*
X157480006Y-106479191D01*
X157480006Y-106479191D02*
X157480006Y-106307762D01*
X157480006Y-106307762D02*
X157565720Y-106136333D01*
X157565720Y-106136333D02*
X157651434Y-106050619D01*
X157651434Y-106050619D02*
X157822863Y-105964905D01*
X157822863Y-105964905D02*
X158251434Y-105964905D01*
X158251434Y-105964905D02*
X158508577Y-106050619D01*
X160051435Y-107764905D02*
X160051435Y-106822048D01*
X160051435Y-106822048D02*
X159965720Y-106650619D01*
X159965720Y-106650619D02*
X159794292Y-106564905D01*
X159794292Y-106564905D02*
X159451435Y-106564905D01*
X159451435Y-106564905D02*
X159280006Y-106650619D01*
X160051435Y-107679191D02*
X159880006Y-107764905D01*
X159880006Y-107764905D02*
X159451435Y-107764905D01*
X159451435Y-107764905D02*
X159280006Y-107679191D01*
X159280006Y-107679191D02*
X159194292Y-107507762D01*
X159194292Y-107507762D02*
X159194292Y-107336333D01*
X159194292Y-107336333D02*
X159280006Y-107164905D01*
X159280006Y-107164905D02*
X159451435Y-107079191D01*
X159451435Y-107079191D02*
X159880006Y-107079191D01*
X159880006Y-107079191D02*
X160051435Y-106993476D01*
X160908577Y-106564905D02*
X160908577Y-107764905D01*
X160908577Y-106736333D02*
X160994291Y-106650619D01*
X160994291Y-106650619D02*
X161165720Y-106564905D01*
X161165720Y-106564905D02*
X161422863Y-106564905D01*
X161422863Y-106564905D02*
X161594291Y-106650619D01*
X161594291Y-106650619D02*
X161680006Y-106822048D01*
X161680006Y-106822048D02*
X161680006Y-107764905D01*
X163308577Y-107764905D02*
X163308577Y-105964905D01*
X163308577Y-107679191D02*
X163137148Y-107764905D01*
X163137148Y-107764905D02*
X162794291Y-107764905D01*
X162794291Y-107764905D02*
X162622862Y-107679191D01*
X162622862Y-107679191D02*
X162537148Y-107593476D01*
X162537148Y-107593476D02*
X162451434Y-107422048D01*
X162451434Y-107422048D02*
X162451434Y-106907762D01*
X162451434Y-106907762D02*
X162537148Y-106736333D01*
X162537148Y-106736333D02*
X162622862Y-106650619D01*
X162622862Y-106650619D02*
X162794291Y-106564905D01*
X162794291Y-106564905D02*
X163137148Y-106564905D01*
X163137148Y-106564905D02*
X163308577Y-106650619D01*
X163994290Y-106564905D02*
X164422862Y-107764905D01*
X164851433Y-106564905D02*
X164422862Y-107764905D01*
X164422862Y-107764905D02*
X164251433Y-108193476D01*
X164251433Y-108193476D02*
X164165719Y-108279191D01*
X164165719Y-108279191D02*
X163994290Y-108364905D01*
X166394291Y-107764905D02*
X165537148Y-107764905D01*
X165537148Y-107764905D02*
X165537148Y-105964905D01*
X166994291Y-107764905D02*
X166994291Y-105964905D01*
X166994291Y-105964905D02*
X167680005Y-105964905D01*
X167680005Y-105964905D02*
X167851434Y-106050619D01*
X167851434Y-106050619D02*
X167937148Y-106136333D01*
X167937148Y-106136333D02*
X168022862Y-106307762D01*
X168022862Y-106307762D02*
X168022862Y-106564905D01*
X168022862Y-106564905D02*
X167937148Y-106736333D01*
X167937148Y-106736333D02*
X167851434Y-106822048D01*
X167851434Y-106822048D02*
X167680005Y-106907762D01*
X167680005Y-106907762D02*
X166994291Y-106907762D01*
D11*
G36*
X115755304Y-47073298D02*
G01*
X115603675Y-47346783D01*
X115322227Y-47463600D01*
X115177913Y-47473367D01*
X114996197Y-47429404D01*
X114815946Y-47383975D01*
X114502534Y-47403023D01*
X114201026Y-47446943D01*
X113898959Y-47507393D01*
X113735904Y-47545175D01*
X113430665Y-47619020D01*
X113133678Y-47689024D01*
X112845398Y-47753476D01*
X112648535Y-47791372D01*
X112545842Y-48085667D01*
X112443846Y-48378339D01*
X112342545Y-48669388D01*
X112286567Y-48830381D01*
X112187557Y-49133456D01*
X112095220Y-49442228D01*
X112016280Y-49745337D01*
X111986148Y-49881113D01*
X111996066Y-50179092D01*
X112082868Y-50213772D01*
X112157606Y-50200583D01*
X112458140Y-50167713D01*
X112761358Y-50137961D01*
X113076196Y-50113308D01*
X113327041Y-50103863D01*
X113621854Y-50126583D01*
X113928978Y-50222565D01*
X114175329Y-50417310D01*
X114275192Y-50578671D01*
X114173320Y-50855505D01*
X113921054Y-51028970D01*
X113863398Y-51032963D01*
X113691940Y-50990464D01*
X113520482Y-50947966D01*
X113227350Y-50954738D01*
X113137997Y-50958224D01*
X112838235Y-50958224D01*
X112758444Y-50958224D01*
X112438619Y-50964378D01*
X112135078Y-50985363D01*
X111882100Y-51021239D01*
X111666678Y-51120890D01*
X111565562Y-51383207D01*
X111491732Y-51675102D01*
X111467376Y-51787673D01*
X111408552Y-52077147D01*
X111348867Y-52389658D01*
X111297553Y-52692321D01*
X111262121Y-52998324D01*
X111272470Y-53121239D01*
X111366557Y-53403820D01*
X111364794Y-53424589D01*
X111192885Y-53669141D01*
X111134717Y-53713284D01*
X110866264Y-53846549D01*
X110790335Y-53855433D01*
X110490846Y-53793394D01*
X110365352Y-53635614D01*
X110317439Y-53313014D01*
X110327156Y-53000850D01*
X110363838Y-52676686D01*
X110414399Y-52366643D01*
X110467934Y-52092488D01*
X110537418Y-51787207D01*
X110615728Y-51478430D01*
X110694210Y-51187900D01*
X110784714Y-50867174D01*
X110887238Y-50516252D01*
X110977913Y-50213772D01*
X111068589Y-49910949D01*
X111151570Y-49627498D01*
X111244478Y-49300425D01*
X111325364Y-49003619D01*
X111406560Y-48687407D01*
X111479409Y-48373580D01*
X111487893Y-48333591D01*
X111537715Y-48034710D01*
X111511340Y-47871972D01*
X111440998Y-47882230D01*
X111373587Y-47892488D01*
X111177216Y-47723961D01*
X111129862Y-47433902D01*
X111134717Y-47405956D01*
X111332027Y-47174987D01*
X111382380Y-47152432D01*
X111677460Y-47062290D01*
X111734089Y-47046919D01*
X111753140Y-46898908D01*
X111896755Y-46629630D01*
X112178123Y-46539871D01*
X112461237Y-46657663D01*
X112693283Y-46853439D01*
X112714480Y-46873995D01*
X113022467Y-46814284D01*
X113311700Y-46760445D01*
X113668172Y-46697797D01*
X113991305Y-46645590D01*
X114348339Y-46595015D01*
X114653280Y-46560754D01*
X114950447Y-46541176D01*
X115032833Y-46539871D01*
X115324926Y-46571304D01*
X115542812Y-46651246D01*
X115747806Y-46869319D01*
X115755304Y-47073298D01*
G37*
G36*
X116892729Y-49189773D02*
G01*
X117189076Y-49261179D01*
X117515964Y-49430440D01*
X117764863Y-49684330D01*
X117935772Y-50022851D01*
X118012773Y-50332280D01*
X118045905Y-50689313D01*
X118035167Y-51093951D01*
X118003637Y-51390156D01*
X117952609Y-51707519D01*
X117919784Y-51874135D01*
X117850037Y-52204069D01*
X117782947Y-52508770D01*
X117702819Y-52854161D01*
X117626841Y-53160125D01*
X117541146Y-53475238D01*
X117448722Y-53771113D01*
X117436183Y-53807073D01*
X117251169Y-54054369D01*
X116959931Y-54136479D01*
X116936462Y-54136801D01*
X116630906Y-54065284D01*
X116502870Y-53796357D01*
X116549581Y-53531567D01*
X116259787Y-53673258D01*
X115973657Y-53774467D01*
X115656139Y-53839936D01*
X115412387Y-53855433D01*
X115089442Y-53828528D01*
X114787392Y-53747814D01*
X114506236Y-53613289D01*
X114452512Y-53579927D01*
X114216461Y-53380905D01*
X114067568Y-53126053D01*
X114041640Y-52804723D01*
X114052442Y-52741686D01*
X114076359Y-52681602D01*
X115123692Y-52681602D01*
X115246515Y-52948218D01*
X115550964Y-53010042D01*
X115619016Y-53011330D01*
X115925199Y-52973743D01*
X116209010Y-52871530D01*
X116318039Y-52814958D01*
X116580928Y-52638760D01*
X116763132Y-52396210D01*
X116800174Y-52280067D01*
X116588347Y-52075253D01*
X116533461Y-52073437D01*
X116230615Y-52082940D01*
X115902934Y-52121544D01*
X115584335Y-52207067D01*
X115315518Y-52360890D01*
X115143968Y-52607957D01*
X115123692Y-52681602D01*
X114076359Y-52681602D01*
X114161974Y-52466517D01*
X114344973Y-52230487D01*
X114571214Y-52030573D01*
X114814251Y-51864129D01*
X114905338Y-51809655D01*
X115193680Y-51656623D01*
X115467576Y-51541179D01*
X115762911Y-51455266D01*
X116072611Y-51417296D01*
X116105548Y-51416912D01*
X116978960Y-51416912D01*
X117034648Y-51154596D01*
X117090146Y-50824875D01*
X117098939Y-50502978D01*
X117012568Y-50198964D01*
X116746954Y-50020133D01*
X116633112Y-50010074D01*
X116309699Y-50046959D01*
X116016332Y-50179446D01*
X115804299Y-50408286D01*
X115685488Y-50687561D01*
X115662980Y-50780904D01*
X115478292Y-51016282D01*
X115321528Y-51041755D01*
X115039766Y-50924908D01*
X114990335Y-50877624D01*
X114865685Y-50609041D01*
X114873098Y-50530311D01*
X114958187Y-50245371D01*
X115108432Y-49956563D01*
X115316405Y-49701372D01*
X115487125Y-49549920D01*
X115737810Y-49381942D01*
X116032311Y-49250334D01*
X116340027Y-49179469D01*
X116552512Y-49165970D01*
X116892729Y-49189773D01*
G37*
G36*
X120846301Y-48153339D02*
G01*
X120722211Y-48429620D01*
X120610363Y-48544617D01*
X120337078Y-48682141D01*
X120200035Y-48697024D01*
X119908954Y-48628312D01*
X119741347Y-48502118D01*
X119604168Y-48237930D01*
X119610921Y-48021448D01*
X119736905Y-47745168D01*
X119851256Y-47630171D01*
X120121496Y-47495773D01*
X120279170Y-47477764D01*
X120571202Y-47544926D01*
X120730530Y-47668273D01*
X120858872Y-47947054D01*
X120846301Y-48153339D01*
G37*
G36*
X120450628Y-49611469D02*
G01*
X120362828Y-49895236D01*
X120255722Y-50153688D01*
X120142962Y-50429578D01*
X120062282Y-50694442D01*
X119607990Y-52880904D01*
X119580582Y-53180956D01*
X119586163Y-53489939D01*
X119587474Y-53516912D01*
X119364341Y-53714801D01*
X119199128Y-53761644D01*
X118892043Y-53708784D01*
X118672250Y-53500609D01*
X118620902Y-53174316D01*
X118627599Y-53093395D01*
X118666388Y-52792358D01*
X118713715Y-52443175D01*
X118759754Y-52124116D01*
X118813300Y-51781010D01*
X118864992Y-51481284D01*
X118914829Y-51224938D01*
X118983315Y-50904884D01*
X119052302Y-50601431D01*
X119121789Y-50314580D01*
X119205835Y-49992271D01*
X119290603Y-49693867D01*
X119361793Y-49463458D01*
X119376448Y-49356480D01*
X119619532Y-49170621D01*
X119703245Y-49165970D01*
X120000036Y-49203168D01*
X120194173Y-49271483D01*
X120430926Y-49447899D01*
X120450628Y-49611469D01*
G37*
G36*
X123616015Y-50037917D02*
G01*
X123545673Y-50276787D01*
X123322662Y-50487426D01*
X123040230Y-50601801D01*
X123025436Y-50602118D01*
X122766760Y-50453134D01*
X122723552Y-50376438D01*
X122720910Y-50078506D01*
X122489079Y-49916284D01*
X122253182Y-50132668D01*
X122076022Y-50425027D01*
X121919710Y-50725079D01*
X121834020Y-50901072D01*
X121717842Y-51172904D01*
X121621580Y-51459882D01*
X121542760Y-51745999D01*
X121468989Y-52064795D01*
X121458863Y-52113005D01*
X121400800Y-52407086D01*
X121353350Y-52703584D01*
X121344557Y-53004002D01*
X121370935Y-53273647D01*
X121205826Y-53523454D01*
X121152582Y-53559411D01*
X120872588Y-53661077D01*
X120775960Y-53667855D01*
X120472560Y-53606208D01*
X120313317Y-53349432D01*
X120328995Y-53146152D01*
X120384682Y-53001072D01*
X120438904Y-52864784D01*
X120497340Y-52567205D01*
X120554180Y-52253779D01*
X120607143Y-51945723D01*
X120664021Y-51601295D01*
X120714410Y-51286487D01*
X120765222Y-50971893D01*
X120822512Y-50628289D01*
X120875784Y-50321676D01*
X120932855Y-50010715D01*
X120991382Y-49716982D01*
X121128219Y-49431218D01*
X121393650Y-49277345D01*
X121642045Y-49248036D01*
X121933905Y-49311096D01*
X122053838Y-49447338D01*
X122281471Y-49249501D01*
X122553496Y-49108818D01*
X122779239Y-49072181D01*
X123067522Y-49127136D01*
X123221807Y-49212865D01*
X123422263Y-49441628D01*
X123503175Y-49588022D01*
X123611006Y-49871742D01*
X123616015Y-50037917D01*
G37*
G36*
X127257676Y-53609236D02*
G01*
X127033899Y-53801337D01*
X126826832Y-53855433D01*
X126536145Y-53782160D01*
X126291940Y-53667855D01*
X126318318Y-53540360D01*
X126381699Y-53251665D01*
X126448950Y-52962054D01*
X126475122Y-52851595D01*
X126548280Y-52544192D01*
X126613646Y-52256732D01*
X126628995Y-52184812D01*
X126707542Y-51779401D01*
X126766227Y-51413867D01*
X126805052Y-51088209D01*
X126825923Y-50716029D01*
X126811486Y-50414740D01*
X126723627Y-50095728D01*
X126482903Y-49918500D01*
X126442882Y-49916284D01*
X126168567Y-50033635D01*
X125962212Y-50216703D01*
X125741959Y-50452642D01*
X125542084Y-50700304D01*
X125362588Y-50959690D01*
X125203472Y-51230799D01*
X125064734Y-51513633D01*
X124946376Y-51808189D01*
X124848396Y-52114470D01*
X124770796Y-52432474D01*
X124735190Y-52728886D01*
X124725366Y-52973228D01*
X124711735Y-53269811D01*
X124679937Y-53512516D01*
X124504786Y-53752705D01*
X124495290Y-53758713D01*
X124216395Y-53854583D01*
X124187544Y-53855433D01*
X123879569Y-53775863D01*
X123717991Y-53504530D01*
X123717075Y-53186251D01*
X123742045Y-53040639D01*
X124208060Y-50798490D01*
X124279867Y-50547896D01*
X124353140Y-50294372D01*
X124389307Y-49993290D01*
X124394173Y-49919215D01*
X124423299Y-49621636D01*
X124435206Y-49554316D01*
X124592651Y-49306196D01*
X124691661Y-49227520D01*
X124954988Y-49090537D01*
X125069749Y-49072181D01*
X125345728Y-49188307D01*
X125475680Y-49341825D01*
X125355513Y-49772670D01*
X125553779Y-49534613D01*
X125787564Y-49319131D01*
X126058009Y-49154954D01*
X126366421Y-49074917D01*
X126435555Y-49072181D01*
X126726044Y-49114748D01*
X127011697Y-49242449D01*
X127141905Y-49330102D01*
X127369349Y-49531716D01*
X127543654Y-49771062D01*
X127606455Y-49908957D01*
X127682378Y-50232640D01*
X127717233Y-50530082D01*
X127726256Y-50852711D01*
X127709448Y-51200529D01*
X127677402Y-51496917D01*
X127628825Y-51809426D01*
X127581542Y-52054386D01*
X127257676Y-53609236D01*
G37*
G36*
X130700702Y-49113449D02*
G01*
X130978635Y-49219419D01*
X131254003Y-49390603D01*
X131492847Y-49593884D01*
X131699083Y-49823591D01*
X131857330Y-50091266D01*
X131936606Y-50398969D01*
X131919295Y-50678322D01*
X131829666Y-50971683D01*
X131687724Y-51237554D01*
X131493470Y-51475937D01*
X131246902Y-51686831D01*
X131082519Y-51795000D01*
X130808994Y-51940038D01*
X130523127Y-52049452D01*
X130224918Y-52123243D01*
X129914367Y-52161410D01*
X129731368Y-52167226D01*
X129435162Y-52083970D01*
X129300523Y-52019215D01*
X129263000Y-52356379D01*
X129281342Y-52661571D01*
X129423595Y-52932852D01*
X129668353Y-53011330D01*
X129983339Y-52980680D01*
X130277804Y-52899622D01*
X130549431Y-52783354D01*
X130610642Y-52751944D01*
X130881551Y-52615158D01*
X131153212Y-52504970D01*
X131224669Y-52492558D01*
X131515545Y-52543047D01*
X131610084Y-52756340D01*
X131494666Y-53046333D01*
X131306240Y-53271991D01*
X131037031Y-53467423D01*
X130735206Y-53613633D01*
X130437077Y-53719420D01*
X130139131Y-53794983D01*
X129841369Y-53840320D01*
X129543789Y-53855433D01*
X129179326Y-53825918D01*
X128876548Y-53737372D01*
X128584824Y-53543678D01*
X128389484Y-53257750D01*
X128302610Y-52962598D01*
X128277423Y-52608415D01*
X128299014Y-52304039D01*
X128355304Y-51966459D01*
X128430111Y-51668622D01*
X128532532Y-51358729D01*
X128662569Y-51036781D01*
X128744338Y-50861504D01*
X129663957Y-50861504D01*
X129704028Y-51160755D01*
X129728437Y-51194163D01*
X130002974Y-51321990D01*
X130040579Y-51323123D01*
X130339459Y-51291778D01*
X130637387Y-51159358D01*
X130838173Y-50923307D01*
X130927181Y-50668064D01*
X130940679Y-50374709D01*
X130883217Y-50158085D01*
X130677624Y-49939898D01*
X130538835Y-49916284D01*
X130240062Y-49984870D01*
X129997231Y-50172643D01*
X129949721Y-50228427D01*
X129791881Y-50481596D01*
X129685091Y-50771791D01*
X129663957Y-50861504D01*
X128744338Y-50861504D01*
X128792027Y-50759281D01*
X128940662Y-50473410D01*
X129073378Y-50238685D01*
X129243577Y-49965286D01*
X129453814Y-49674799D01*
X129661261Y-49441270D01*
X129906513Y-49236221D01*
X130187561Y-49100660D01*
X130384962Y-49072181D01*
X130700702Y-49113449D01*
G37*
G36*
X135601989Y-52637638D02*
G01*
X135502842Y-52923574D01*
X135328132Y-53186040D01*
X135106287Y-53402192D01*
X135018737Y-53470018D01*
X134737919Y-53638637D01*
X134428890Y-53759079D01*
X134135350Y-53824946D01*
X133820211Y-53853927D01*
X133726204Y-53855433D01*
X133433044Y-53834676D01*
X133133152Y-53754454D01*
X133046232Y-53720611D01*
X132720511Y-53578394D01*
X132453180Y-53444836D01*
X132177010Y-53272400D01*
X131974250Y-53035716D01*
X131970586Y-52960039D01*
X132119719Y-52681419D01*
X132392925Y-52538983D01*
X132713573Y-52502816D01*
X132907013Y-52513074D01*
X133016339Y-52804059D01*
X133276391Y-52968076D01*
X133302687Y-52979090D01*
X133602293Y-53075535D01*
X133905768Y-53110065D01*
X134047139Y-53105119D01*
X134330391Y-53003719D01*
X134388590Y-52891162D01*
X134392987Y-52798838D01*
X134397383Y-52702118D01*
X134124098Y-52572929D01*
X134038346Y-52543849D01*
X133747150Y-52448760D01*
X133579658Y-52389976D01*
X133342414Y-52212198D01*
X133099891Y-51977352D01*
X132917403Y-51728482D01*
X132777664Y-51411325D01*
X132724375Y-51073973D01*
X132746006Y-50777418D01*
X132757537Y-50716424D01*
X132839053Y-50426080D01*
X132960502Y-50147094D01*
X133121886Y-49879465D01*
X133323203Y-49623193D01*
X133543203Y-49408492D01*
X133802704Y-49227691D01*
X134104933Y-49106619D01*
X134382729Y-49072181D01*
X134677769Y-49110797D01*
X134956206Y-49212921D01*
X135215120Y-49359405D01*
X135273726Y-49398978D01*
X135505425Y-49586150D01*
X135696992Y-49826250D01*
X135791033Y-50102397D01*
X135799963Y-50397893D01*
X135782240Y-50540569D01*
X135680684Y-50823241D01*
X135666469Y-50846850D01*
X135509629Y-51105081D01*
X135480356Y-51153130D01*
X135199988Y-51269436D01*
X135062701Y-51285021D01*
X134781440Y-51186329D01*
X134741766Y-51164854D01*
X134545394Y-50956759D01*
X134719784Y-50706166D01*
X134835555Y-50495140D01*
X134851841Y-50189884D01*
X134677011Y-49952463D01*
X134473587Y-49916284D01*
X134184535Y-50019269D01*
X133985263Y-50236996D01*
X133956281Y-50281183D01*
X133818400Y-50556729D01*
X133726244Y-50850307D01*
X133717411Y-50890813D01*
X133738362Y-51183928D01*
X133906379Y-51432702D01*
X134149721Y-51622076D01*
X134423975Y-51753955D01*
X134699387Y-51887456D01*
X134975960Y-52022580D01*
X135130112Y-52098350D01*
X135403511Y-52264988D01*
X135593929Y-52501167D01*
X135601989Y-52637638D01*
G37*
G36*
X139400454Y-52637638D02*
G01*
X139301306Y-52923574D01*
X139126596Y-53186040D01*
X138904751Y-53402192D01*
X138817202Y-53470018D01*
X138536383Y-53638637D01*
X138227355Y-53759079D01*
X137933814Y-53824946D01*
X137618675Y-53853927D01*
X137524669Y-53855433D01*
X137231508Y-53834676D01*
X136931616Y-53754454D01*
X136844696Y-53720611D01*
X136518976Y-53578394D01*
X136251644Y-53444836D01*
X135975474Y-53272400D01*
X135772715Y-53035716D01*
X135769051Y-52960039D01*
X135918184Y-52681419D01*
X136191390Y-52538983D01*
X136512038Y-52502816D01*
X136705478Y-52513074D01*
X136814803Y-52804059D01*
X137074856Y-52968076D01*
X137101151Y-52979090D01*
X137400757Y-53075535D01*
X137704233Y-53110065D01*
X137845604Y-53105119D01*
X138128856Y-53003719D01*
X138187055Y-52891162D01*
X138191452Y-52798838D01*
X138195848Y-52702118D01*
X137922563Y-52572929D01*
X137836811Y-52543849D01*
X137545614Y-52448760D01*
X137378123Y-52389976D01*
X137140879Y-52212198D01*
X136898356Y-51977352D01*
X136715868Y-51728482D01*
X136576129Y-51411325D01*
X136522840Y-51073973D01*
X136544471Y-50777418D01*
X136556001Y-50716424D01*
X136637517Y-50426080D01*
X136758967Y-50147094D01*
X136920351Y-49879465D01*
X137121668Y-49623193D01*
X137341668Y-49408492D01*
X137601169Y-49227691D01*
X137903398Y-49106619D01*
X138181193Y-49072181D01*
X138476234Y-49110797D01*
X138754671Y-49212921D01*
X139013584Y-49359405D01*
X139072191Y-49398978D01*
X139303889Y-49586150D01*
X139495456Y-49826250D01*
X139589498Y-50102397D01*
X139598428Y-50397893D01*
X139580705Y-50540569D01*
X139479149Y-50823241D01*
X139464934Y-50846850D01*
X139308094Y-51105081D01*
X139278821Y-51153130D01*
X138998453Y-51269436D01*
X138861165Y-51285021D01*
X138579905Y-51186329D01*
X138540230Y-51164854D01*
X138343859Y-50956759D01*
X138518248Y-50706166D01*
X138634020Y-50495140D01*
X138650306Y-50189884D01*
X138475475Y-49952463D01*
X138272052Y-49916284D01*
X137983000Y-50019269D01*
X137783728Y-50236996D01*
X137754745Y-50281183D01*
X137616865Y-50556729D01*
X137524709Y-50850307D01*
X137515876Y-50890813D01*
X137536827Y-51183928D01*
X137704844Y-51432702D01*
X137948186Y-51622076D01*
X138222439Y-51753955D01*
X138497852Y-51887456D01*
X138774424Y-52022580D01*
X138928576Y-52098350D01*
X139201976Y-52264988D01*
X139392394Y-52501167D01*
X139400454Y-52637638D01*
G37*
G36*
X139900174Y-53166668D02*
G01*
X140031344Y-52896389D01*
X140202059Y-52732893D01*
X140458880Y-52590011D01*
X140728158Y-52542383D01*
X141019967Y-52629555D01*
X141185380Y-52817889D01*
X141279984Y-53105392D01*
X141274979Y-53404049D01*
X141257188Y-53505189D01*
X141187828Y-53791587D01*
X141090675Y-54081388D01*
X141022715Y-54233521D01*
X140864741Y-54496595D01*
X140670236Y-54733415D01*
X140622645Y-54783067D01*
X140403466Y-54993614D01*
X140172194Y-55177556D01*
X140061375Y-55253479D01*
X139802766Y-55394429D01*
X139558723Y-55449850D01*
X139346232Y-55317959D01*
X139435625Y-55058573D01*
X139702451Y-54901980D01*
X139879658Y-54772809D01*
X140096969Y-54552613D01*
X140231368Y-54339034D01*
X140327859Y-54059818D01*
X140333950Y-54016633D01*
X140224470Y-53741173D01*
X140206455Y-53726473D01*
X139986825Y-53531109D01*
X139954396Y-53494931D01*
X139893181Y-53205411D01*
X139900174Y-53166668D01*
G37*
G36*
X149683566Y-47130450D02*
G01*
X149526762Y-47390935D01*
X149225370Y-47477425D01*
X149199965Y-47477764D01*
X148939114Y-47477764D01*
X148676797Y-47477764D01*
X148521458Y-47584742D01*
X148468135Y-47880785D01*
X148442324Y-48041965D01*
X148393019Y-48341347D01*
X148361724Y-48509446D01*
X148291386Y-48838349D01*
X148219408Y-49156811D01*
X148145791Y-49464832D01*
X148070533Y-49762411D01*
X147993635Y-50049549D01*
X147834919Y-50592501D01*
X147669643Y-51093688D01*
X147497807Y-51553108D01*
X147319410Y-51970764D01*
X147134453Y-52346653D01*
X146942937Y-52680778D01*
X146744859Y-52973136D01*
X146540222Y-53223729D01*
X146329024Y-53432557D01*
X145999928Y-53667488D01*
X145656071Y-53808447D01*
X145297453Y-53855433D01*
X144970733Y-53814550D01*
X144674027Y-53691903D01*
X144407334Y-53487490D01*
X144202628Y-53247201D01*
X144048883Y-53001072D01*
X143905108Y-52699336D01*
X143804610Y-52395334D01*
X143747389Y-52089065D01*
X143733444Y-51780529D01*
X143762776Y-51469726D01*
X143782170Y-51365621D01*
X143874128Y-51072164D01*
X144011692Y-50788340D01*
X144035694Y-50745733D01*
X144211755Y-50492117D01*
X144464255Y-50331169D01*
X144491452Y-50329543D01*
X144785369Y-50422601D01*
X144935485Y-50659271D01*
X144989707Y-50952363D01*
X144965023Y-51252094D01*
X144956001Y-51298210D01*
X144888041Y-51589768D01*
X144873936Y-51645524D01*
X144803834Y-51935753D01*
X144794801Y-51979648D01*
X144798831Y-52283730D01*
X144912353Y-52558217D01*
X144936950Y-52598071D01*
X145132898Y-52816458D01*
X145411561Y-52917228D01*
X145429344Y-52917540D01*
X145745870Y-52847023D01*
X146040571Y-52635469D01*
X146260619Y-52364680D01*
X146416488Y-52102353D01*
X146564501Y-51789253D01*
X146704657Y-51425380D01*
X146836956Y-51010735D01*
X146920790Y-50706097D01*
X147001133Y-50378894D01*
X147077983Y-50029125D01*
X147140540Y-49704159D01*
X147200320Y-49366669D01*
X147258559Y-49024033D01*
X147310663Y-48709738D01*
X147367667Y-48359723D01*
X147429571Y-47973987D01*
X147445813Y-47871972D01*
X147157456Y-47984285D01*
X146873438Y-48112398D01*
X146735066Y-48176787D01*
X146448243Y-48309708D01*
X146172032Y-48416784D01*
X146106385Y-48428845D01*
X145837374Y-48300522D01*
X145804501Y-48248594D01*
X145740754Y-47960082D01*
X145754676Y-47855852D01*
X145926692Y-47588692D01*
X146178960Y-47424137D01*
X146450501Y-47307691D01*
X146587055Y-47260876D01*
X146893007Y-47171734D01*
X147197567Y-47082359D01*
X147500736Y-46992753D01*
X147668562Y-46942872D01*
X147833358Y-46697293D01*
X148107165Y-46549710D01*
X148215178Y-46539871D01*
X148490526Y-46680714D01*
X148563957Y-46737708D01*
X148827739Y-46680555D01*
X149098849Y-46633661D01*
X149392770Y-46693617D01*
X149532624Y-46772879D01*
X149691168Y-47026220D01*
X149683566Y-47130450D01*
G37*
G36*
X153168423Y-49916284D02*
G01*
X153097463Y-50205552D01*
X153007160Y-50517448D01*
X152914515Y-50813333D01*
X152888521Y-50893744D01*
X152791892Y-51199933D01*
X152704424Y-51496881D01*
X152628058Y-51791497D01*
X152608618Y-51879997D01*
X152548311Y-52191429D01*
X152497335Y-52481201D01*
X152451814Y-52753409D01*
X152401724Y-53055600D01*
X152347744Y-53361345D01*
X152297941Y-53615098D01*
X152081077Y-53827034D01*
X151846581Y-53855433D01*
X151559912Y-53781382D01*
X151409519Y-53515401D01*
X151404013Y-53468552D01*
X151130699Y-53623112D01*
X150848237Y-53727011D01*
X150584822Y-53761644D01*
X150293927Y-53725580D01*
X150003252Y-53626845D01*
X149938555Y-53597513D01*
X149682221Y-53439713D01*
X149495399Y-53213405D01*
X149488660Y-53198908D01*
X149405713Y-52905425D01*
X149386479Y-52572537D01*
X149405713Y-52278392D01*
X149453798Y-51946123D01*
X149488660Y-51765691D01*
X149551739Y-51472524D01*
X149616105Y-51183394D01*
X149685197Y-50877962D01*
X149753908Y-50577206D01*
X149831355Y-50263369D01*
X149906987Y-49943166D01*
X149975650Y-49631986D01*
X150022087Y-49398978D01*
X150286511Y-49248115D01*
X150570386Y-49166198D01*
X150583357Y-49165970D01*
X150869670Y-49235831D01*
X150991086Y-49519642D01*
X150973168Y-49662760D01*
X150891664Y-49957163D01*
X150820761Y-50169808D01*
X150729935Y-50449820D01*
X150669819Y-50676857D01*
X150360607Y-52165761D01*
X150343422Y-52474570D01*
X150384054Y-52694791D01*
X150535575Y-52950742D01*
X150707920Y-53011330D01*
X150998884Y-52942930D01*
X151242058Y-52762037D01*
X151443540Y-52502570D01*
X151486078Y-52432474D01*
X151617311Y-52166746D01*
X151727077Y-51867815D01*
X151807513Y-51570390D01*
X151830461Y-51465273D01*
X152092777Y-50203514D01*
X152118950Y-49894858D01*
X152095708Y-49604142D01*
X152350240Y-49438849D01*
X152637927Y-49362342D01*
X152926980Y-49429871D01*
X153051186Y-49519145D01*
X153179294Y-49787703D01*
X153168423Y-49916284D01*
G37*
G36*
X156640091Y-52637638D02*
G01*
X156540943Y-52923574D01*
X156366233Y-53186040D01*
X156144388Y-53402192D01*
X156056839Y-53470018D01*
X155776021Y-53638637D01*
X155466992Y-53759079D01*
X155173452Y-53824946D01*
X154858312Y-53853927D01*
X154764306Y-53855433D01*
X154471146Y-53834676D01*
X154171253Y-53754454D01*
X154084334Y-53720611D01*
X153758613Y-53578394D01*
X153491281Y-53444836D01*
X153215111Y-53272400D01*
X153012352Y-53035716D01*
X153008688Y-52960039D01*
X153157821Y-52681419D01*
X153431027Y-52538983D01*
X153751675Y-52502816D01*
X153945115Y-52513074D01*
X154054441Y-52804059D01*
X154314493Y-52968076D01*
X154340789Y-52979090D01*
X154640394Y-53075535D01*
X154943870Y-53110065D01*
X155085241Y-53105119D01*
X155368493Y-53003719D01*
X155426692Y-52891162D01*
X155431089Y-52798838D01*
X155435485Y-52702118D01*
X155162200Y-52572929D01*
X155076448Y-52543849D01*
X154785251Y-52448760D01*
X154617760Y-52389976D01*
X154380516Y-52212198D01*
X154137993Y-51977352D01*
X153955505Y-51728482D01*
X153815766Y-51411325D01*
X153762477Y-51073973D01*
X153784108Y-50777418D01*
X153795639Y-50716424D01*
X153877155Y-50426080D01*
X153998604Y-50147094D01*
X154159988Y-49879465D01*
X154361305Y-49623193D01*
X154581305Y-49408492D01*
X154840806Y-49227691D01*
X155143035Y-49106619D01*
X155420830Y-49072181D01*
X155715871Y-49110797D01*
X155994308Y-49212921D01*
X156253222Y-49359405D01*
X156311828Y-49398978D01*
X156543527Y-49586150D01*
X156735094Y-49826250D01*
X156829135Y-50102397D01*
X156838065Y-50397893D01*
X156820342Y-50540569D01*
X156718786Y-50823241D01*
X156704571Y-50846850D01*
X156547731Y-51105081D01*
X156518458Y-51153130D01*
X156238090Y-51269436D01*
X156100803Y-51285021D01*
X155819542Y-51186329D01*
X155779867Y-51164854D01*
X155583496Y-50956759D01*
X155757886Y-50706166D01*
X155873657Y-50495140D01*
X155889943Y-50189884D01*
X155715113Y-49952463D01*
X155511689Y-49916284D01*
X155222637Y-50019269D01*
X155023365Y-50236996D01*
X154994382Y-50281183D01*
X154856502Y-50556729D01*
X154764346Y-50850307D01*
X154755513Y-50890813D01*
X154776464Y-51183928D01*
X154944481Y-51432702D01*
X155187823Y-51622076D01*
X155462076Y-51753955D01*
X155737489Y-51887456D01*
X156014061Y-52022580D01*
X156168214Y-52098350D01*
X156441613Y-52264988D01*
X156632031Y-52501167D01*
X156640091Y-52637638D01*
G37*
G36*
X160381403Y-49922146D02*
G01*
X160174596Y-50134363D01*
X159876050Y-50237609D01*
X159554249Y-50299959D01*
X159447906Y-50314889D01*
X159368846Y-50624718D01*
X159298174Y-50941206D01*
X159232467Y-51250835D01*
X159211968Y-51349501D01*
X159069819Y-52032404D01*
X159029169Y-52328181D01*
X159009735Y-52643500D01*
X158992526Y-52936836D01*
X158955122Y-53230397D01*
X158952582Y-53242872D01*
X158783030Y-53497278D01*
X158726902Y-53538894D01*
X158455975Y-53659794D01*
X158372261Y-53667855D01*
X158119241Y-53493259D01*
X158032275Y-53220890D01*
X158003103Y-52924765D01*
X158026631Y-52616203D01*
X158038137Y-52555573D01*
X158495359Y-50351525D01*
X158188442Y-50301405D01*
X157972191Y-50257736D01*
X157750282Y-50066043D01*
X157753838Y-50018866D01*
X157791940Y-49925077D01*
X158007150Y-49722604D01*
X158281361Y-49571498D01*
X158467516Y-49541127D01*
X158529065Y-49541127D01*
X158590614Y-49551386D01*
X158812379Y-49355610D01*
X158899826Y-49050199D01*
X159055164Y-48301351D01*
X159034648Y-48107910D01*
X159220806Y-47881051D01*
X159242743Y-47867575D01*
X159522264Y-47761779D01*
X159568074Y-47759132D01*
X159846539Y-47863605D01*
X159937369Y-47961365D01*
X160052864Y-48236863D01*
X160044348Y-48390744D01*
X159956058Y-48683293D01*
X159864096Y-48881672D01*
X159746837Y-49160446D01*
X159694103Y-49384323D01*
X159685311Y-49425356D01*
X159986094Y-49477178D01*
X160271515Y-49606436D01*
X160385958Y-49896551D01*
X160381403Y-49922146D01*
G37*
G36*
X162553210Y-48153339D02*
G01*
X162429120Y-48429620D01*
X162317271Y-48544617D01*
X162043987Y-48682141D01*
X161906943Y-48697024D01*
X161615863Y-48628312D01*
X161448255Y-48502118D01*
X161311076Y-48237930D01*
X161317830Y-48021448D01*
X161443813Y-47745168D01*
X161558165Y-47630171D01*
X161828404Y-47495773D01*
X161986078Y-47477764D01*
X162278111Y-47544926D01*
X162437439Y-47668273D01*
X162565781Y-47947054D01*
X162553210Y-48153339D01*
G37*
G36*
X162157537Y-49611469D02*
G01*
X162069737Y-49895236D01*
X161962631Y-50153688D01*
X161849871Y-50429578D01*
X161769191Y-50694442D01*
X161314899Y-52880904D01*
X161287490Y-53180956D01*
X161293072Y-53489939D01*
X161294382Y-53516912D01*
X161071249Y-53714801D01*
X160906036Y-53761644D01*
X160598951Y-53708784D01*
X160379159Y-53500609D01*
X160327810Y-53174316D01*
X160334508Y-53093395D01*
X160373297Y-52792358D01*
X160420624Y-52443175D01*
X160466662Y-52124116D01*
X160520209Y-51781010D01*
X160571901Y-51481284D01*
X160621738Y-51224938D01*
X160690223Y-50904884D01*
X160759210Y-50601431D01*
X160828698Y-50314580D01*
X160912744Y-49992271D01*
X160997511Y-49693867D01*
X161068702Y-49463458D01*
X161083357Y-49356480D01*
X161326441Y-49170621D01*
X161410154Y-49165970D01*
X161706944Y-49203168D01*
X161901082Y-49271483D01*
X162137835Y-49447899D01*
X162157537Y-49611469D01*
G37*
G36*
X165708339Y-52477903D02*
G01*
X165570127Y-52759909D01*
X165350251Y-53002511D01*
X165103253Y-53212667D01*
X165067934Y-53239941D01*
X164818715Y-53424680D01*
X164560896Y-53587187D01*
X164278213Y-53720634D01*
X164184264Y-53751386D01*
X163896974Y-53818752D01*
X163588327Y-53853807D01*
X163510154Y-53855433D01*
X163177624Y-53830819D01*
X162889132Y-53756978D01*
X162613351Y-53612310D01*
X162395090Y-53403345D01*
X162349512Y-53341058D01*
X162206904Y-53065277D01*
X162129327Y-52752310D01*
X162114791Y-52447960D01*
X162150043Y-52115140D01*
X162169260Y-52014819D01*
X162246987Y-51711023D01*
X162357068Y-51394244D01*
X162473517Y-51120343D01*
X162612435Y-50837427D01*
X162773821Y-50545495D01*
X162957676Y-50244547D01*
X163143263Y-49969774D01*
X163326330Y-49731637D01*
X163551623Y-49485486D01*
X163816779Y-49265667D01*
X164076268Y-49128281D01*
X164371842Y-49072181D01*
X164663102Y-49112161D01*
X164953262Y-49219050D01*
X165207153Y-49356480D01*
X165445252Y-49534417D01*
X165649478Y-49771306D01*
X165722994Y-49988092D01*
X165723726Y-50281183D01*
X165680493Y-50587899D01*
X165676099Y-50609446D01*
X165589786Y-50900843D01*
X165470260Y-51175616D01*
X165394731Y-51321658D01*
X165227721Y-51589819D01*
X165002080Y-51798389D01*
X164877425Y-51830171D01*
X164595044Y-51749533D01*
X164569679Y-51731986D01*
X164439253Y-51465273D01*
X164578472Y-51238127D01*
X164682847Y-50960314D01*
X164744068Y-50695908D01*
X164798290Y-50395122D01*
X164811479Y-50222565D01*
X164705440Y-49946195D01*
X164585799Y-49916284D01*
X164276364Y-49999289D01*
X164035617Y-50185219D01*
X163829922Y-50435062D01*
X163657296Y-50713957D01*
X163628856Y-50766249D01*
X163491211Y-51042359D01*
X163373202Y-51319311D01*
X163274827Y-51597104D01*
X163186442Y-51915611D01*
X163159909Y-52035335D01*
X163112804Y-52343525D01*
X163115689Y-52644402D01*
X163220355Y-52928563D01*
X163475830Y-53088404D01*
X163636183Y-53105119D01*
X163927807Y-53042651D01*
X164205157Y-52902723D01*
X164332275Y-52820820D01*
X164573383Y-52637424D01*
X164799389Y-52418003D01*
X164906734Y-52281532D01*
X165111177Y-52059138D01*
X165375680Y-51956201D01*
X165621688Y-52117201D01*
X165635066Y-52139383D01*
X165715051Y-52428294D01*
X165708339Y-52477903D01*
G37*
G36*
X168732244Y-49113449D02*
G01*
X169010177Y-49219419D01*
X169285546Y-49390603D01*
X169524389Y-49593884D01*
X169730625Y-49823591D01*
X169888872Y-50091266D01*
X169968148Y-50398969D01*
X169950837Y-50678322D01*
X169861208Y-50971683D01*
X169719267Y-51237554D01*
X169525012Y-51475937D01*
X169278444Y-51686831D01*
X169114061Y-51795000D01*
X168840536Y-51940038D01*
X168554669Y-52049452D01*
X168256460Y-52123243D01*
X167945909Y-52161410D01*
X167762910Y-52167226D01*
X167466704Y-52083970D01*
X167332066Y-52019215D01*
X167294542Y-52356379D01*
X167312884Y-52661571D01*
X167455137Y-52932852D01*
X167699895Y-53011330D01*
X168014881Y-52980680D01*
X168309347Y-52899622D01*
X168580973Y-52783354D01*
X168642184Y-52751944D01*
X168913093Y-52615158D01*
X169184754Y-52504970D01*
X169256211Y-52492558D01*
X169547087Y-52543047D01*
X169641626Y-52756340D01*
X169526208Y-53046333D01*
X169337783Y-53271991D01*
X169068574Y-53467423D01*
X168766748Y-53613633D01*
X168468619Y-53719420D01*
X168170673Y-53794983D01*
X167872911Y-53840320D01*
X167575331Y-53855433D01*
X167210868Y-53825918D01*
X166908091Y-53737372D01*
X166616366Y-53543678D01*
X166421026Y-53257750D01*
X166334152Y-52962598D01*
X166308965Y-52608415D01*
X166330556Y-52304039D01*
X166386846Y-51966459D01*
X166461653Y-51668622D01*
X166564074Y-51358729D01*
X166694111Y-51036781D01*
X166775880Y-50861504D01*
X167695499Y-50861504D01*
X167735570Y-51160755D01*
X167759979Y-51194163D01*
X168034516Y-51321990D01*
X168072121Y-51323123D01*
X168371002Y-51291778D01*
X168668929Y-51159358D01*
X168869715Y-50923307D01*
X168958723Y-50668064D01*
X168972221Y-50374709D01*
X168914759Y-50158085D01*
X168709166Y-49939898D01*
X168570377Y-49916284D01*
X168271604Y-49984870D01*
X168028773Y-50172643D01*
X167981263Y-50228427D01*
X167823423Y-50481596D01*
X167716634Y-50771791D01*
X167695499Y-50861504D01*
X166775880Y-50861504D01*
X166823569Y-50759281D01*
X166972204Y-50473410D01*
X167104920Y-50238685D01*
X167275119Y-49965286D01*
X167485356Y-49674799D01*
X167692803Y-49441270D01*
X167938055Y-49236221D01*
X168219104Y-49100660D01*
X168416504Y-49072181D01*
X168732244Y-49113449D01*
G37*
G36*
X170164794Y-53166668D02*
G01*
X170295964Y-52896389D01*
X170466678Y-52732893D01*
X170723500Y-52590011D01*
X170992777Y-52542383D01*
X171284587Y-52629555D01*
X171450000Y-52817889D01*
X171544604Y-53105392D01*
X171539599Y-53404049D01*
X171521807Y-53505189D01*
X171452447Y-53791587D01*
X171355295Y-54081388D01*
X171287334Y-54233521D01*
X171129361Y-54496595D01*
X170934856Y-54733415D01*
X170887264Y-54783067D01*
X170668086Y-54993614D01*
X170436814Y-55177556D01*
X170325994Y-55253479D01*
X170067386Y-55394429D01*
X169823343Y-55449850D01*
X169610851Y-55317959D01*
X169700244Y-55058573D01*
X169967070Y-54901980D01*
X170144278Y-54772809D01*
X170361589Y-54552613D01*
X170495987Y-54339034D01*
X170592479Y-54059818D01*
X170598569Y-54016633D01*
X170489089Y-53741173D01*
X170471075Y-53726473D01*
X170251445Y-53531109D01*
X170219016Y-53494931D01*
X170157800Y-53205411D01*
X170164794Y-53166668D01*
G37*
G36*
X177149163Y-46566249D02*
G01*
X177392428Y-46633661D01*
X177685589Y-46641423D01*
X178031624Y-46672957D01*
X178354976Y-46728749D01*
X178655645Y-46808798D01*
X178933631Y-46913105D01*
X179237273Y-47070292D01*
X179331228Y-47130450D01*
X179588449Y-47331872D01*
X179789498Y-47559698D01*
X179956612Y-47867942D01*
X180034085Y-48153856D01*
X180055387Y-48466175D01*
X180020518Y-48804897D01*
X180006804Y-48875810D01*
X179922071Y-49193722D01*
X179804159Y-49490203D01*
X179653068Y-49765251D01*
X179468798Y-50018866D01*
X179251349Y-50251050D01*
X179171493Y-50323681D01*
X178915680Y-50525273D01*
X178632788Y-50711434D01*
X178346440Y-50878255D01*
X178076883Y-51022390D01*
X177779205Y-51171175D01*
X177716294Y-51201490D01*
X177952290Y-51380041D01*
X178187668Y-51558489D01*
X178422427Y-51736834D01*
X178656568Y-51915076D01*
X178890091Y-52093215D01*
X178967795Y-52152572D01*
X179198381Y-52398855D01*
X179368071Y-52654102D01*
X179489075Y-52963220D01*
X179527193Y-53284540D01*
X179493894Y-53569669D01*
X179482170Y-53622425D01*
X179247960Y-53810834D01*
X179054257Y-53855433D01*
X178797520Y-53700024D01*
X178791940Y-53689836D01*
X178680771Y-53394169D01*
X178478292Y-53129640D01*
X178270810Y-52911667D01*
X178010949Y-52669509D01*
X177765347Y-52458369D01*
X177698709Y-52403165D01*
X177438453Y-52193994D01*
X177199171Y-52012712D01*
X176929564Y-51825330D01*
X176649296Y-51657993D01*
X176349014Y-51532490D01*
X176203943Y-51510702D01*
X176019295Y-51510702D01*
X175821458Y-51522425D01*
X175733531Y-51950339D01*
X175688193Y-52244260D01*
X175663189Y-52535056D01*
X175642445Y-52836150D01*
X175661724Y-53074344D01*
X175775611Y-53351329D01*
X175778960Y-53404072D01*
X175635241Y-53669364D01*
X175566469Y-53727938D01*
X175291910Y-53849332D01*
X175211828Y-53855433D01*
X174915623Y-53800455D01*
X174687012Y-53602985D01*
X174666678Y-53568203D01*
X174623173Y-53252844D01*
X174647627Y-52913877D01*
X174696972Y-52545609D01*
X174755407Y-52194838D01*
X174810293Y-51899002D01*
X174874659Y-51575087D01*
X174898221Y-51460876D01*
X174606171Y-51395766D01*
X174476169Y-51323123D01*
X174289027Y-51090541D01*
X174284194Y-50961155D01*
X174436006Y-50697030D01*
X174700418Y-50525096D01*
X174898325Y-50455573D01*
X176022226Y-50455573D01*
X176300653Y-50557582D01*
X176588631Y-50645990D01*
X176718318Y-50666598D01*
X177016812Y-50614434D01*
X177092010Y-50593326D01*
X177398484Y-50489842D01*
X177685743Y-50365321D01*
X177953789Y-50219763D01*
X178202620Y-50053167D01*
X178336183Y-49948524D01*
X178579244Y-49723115D01*
X178777566Y-49481576D01*
X178931148Y-49223909D01*
X179039991Y-48950113D01*
X179082100Y-48786417D01*
X179105823Y-48469145D01*
X179022811Y-48161262D01*
X178823648Y-47905311D01*
X178626343Y-47763528D01*
X178339905Y-47625390D01*
X178052790Y-47540554D01*
X177735084Y-47491438D01*
X177431996Y-47477764D01*
X177127634Y-47497442D01*
X176985031Y-47510004D01*
X176909784Y-47800891D01*
X176803217Y-48110881D01*
X176696245Y-48388454D01*
X176566088Y-48704666D01*
X176517551Y-48818657D01*
X176400864Y-49130891D01*
X176294856Y-49457140D01*
X176201089Y-49776186D01*
X176120904Y-50069843D01*
X176038858Y-50388758D01*
X176022226Y-50455573D01*
X174898325Y-50455573D01*
X175002211Y-50419079D01*
X175090195Y-50396954D01*
X175178192Y-50115243D01*
X175260022Y-49827905D01*
X175340278Y-49528432D01*
X175349581Y-49492767D01*
X175422854Y-49192807D01*
X175502080Y-48887150D01*
X175584535Y-48604902D01*
X175589916Y-48588580D01*
X175703054Y-48285574D01*
X175806571Y-47995298D01*
X175912015Y-47691925D01*
X175954815Y-47567157D01*
X175874215Y-47567157D01*
X175584421Y-47478130D01*
X175541556Y-47190534D01*
X175659159Y-46919425D01*
X175874215Y-46771413D01*
X176165911Y-46687586D01*
X176247906Y-46664435D01*
X176487062Y-46489473D01*
X176623064Y-46412376D01*
X176918204Y-46354405D01*
X177009944Y-46352293D01*
X177149163Y-46566249D01*
G37*
G36*
X182747209Y-48153339D02*
G01*
X182623119Y-48429620D01*
X182511270Y-48544617D01*
X182237985Y-48682141D01*
X182100942Y-48697024D01*
X181809861Y-48628312D01*
X181642254Y-48502118D01*
X181505075Y-48237930D01*
X181511828Y-48021448D01*
X181637812Y-47745168D01*
X181752163Y-47630171D01*
X182022403Y-47495773D01*
X182180077Y-47477764D01*
X182472109Y-47544926D01*
X182631438Y-47668273D01*
X182759780Y-47947054D01*
X182747209Y-48153339D01*
G37*
G36*
X182351535Y-49611469D02*
G01*
X182263735Y-49895236D01*
X182156629Y-50153688D01*
X182043869Y-50429578D01*
X181963189Y-50694442D01*
X181508897Y-52880904D01*
X181481489Y-53180956D01*
X181487070Y-53489939D01*
X181488381Y-53516912D01*
X181265248Y-53714801D01*
X181100035Y-53761644D01*
X180792950Y-53708784D01*
X180573157Y-53500609D01*
X180521809Y-53174316D01*
X180528507Y-53093395D01*
X180567295Y-52792358D01*
X180614622Y-52443175D01*
X180660661Y-52124116D01*
X180714208Y-51781010D01*
X180765899Y-51481284D01*
X180815736Y-51224938D01*
X180884222Y-50904884D01*
X180953209Y-50601431D01*
X181022696Y-50314580D01*
X181106743Y-49992271D01*
X181191510Y-49693867D01*
X181262701Y-49463458D01*
X181277355Y-49356480D01*
X181520439Y-49170621D01*
X181604152Y-49165970D01*
X181900943Y-49203168D01*
X182095080Y-49271483D01*
X182331833Y-49447899D01*
X182351535Y-49611469D01*
G37*
G36*
X184825456Y-49129059D02*
G01*
X185096520Y-49299693D01*
X185257537Y-49476647D01*
X185400602Y-49739401D01*
X185543667Y-49999730D01*
X185673726Y-50234289D01*
X185893545Y-50420402D01*
X186136811Y-50577206D01*
X186039037Y-50879622D01*
X185927983Y-51188026D01*
X185814410Y-51490185D01*
X185701762Y-51792878D01*
X185604332Y-52087057D01*
X185525953Y-52381511D01*
X185521319Y-52403165D01*
X185463366Y-52707106D01*
X185411216Y-53011016D01*
X185358653Y-53336661D01*
X185311667Y-53628562D01*
X185258859Y-53938569D01*
X185204179Y-54230103D01*
X185195987Y-54270157D01*
X185125279Y-54571034D01*
X185037850Y-54859816D01*
X184919657Y-55141303D01*
X184873587Y-55224170D01*
X184691764Y-55477352D01*
X184456607Y-55694862D01*
X184196546Y-55861644D01*
X183916449Y-55990701D01*
X183612970Y-56077457D01*
X183314341Y-56106375D01*
X183015439Y-56082476D01*
X182719263Y-56020098D01*
X182434392Y-55932147D01*
X182246022Y-55861644D01*
X181960025Y-55733677D01*
X181707100Y-55560492D01*
X181569744Y-55293147D01*
X181576308Y-55228566D01*
X181691713Y-54955304D01*
X181943039Y-54795902D01*
X182089218Y-54780136D01*
X182333950Y-54885649D01*
X182465841Y-55117192D01*
X182747398Y-55202972D01*
X182780914Y-55209515D01*
X183073754Y-55256038D01*
X183170726Y-55262272D01*
X183493430Y-55221571D01*
X183768014Y-55099469D01*
X183994479Y-54895965D01*
X184172824Y-54611059D01*
X184284686Y-54311456D01*
X184335764Y-54104561D01*
X184390440Y-53810790D01*
X184425157Y-53531567D01*
X184163481Y-53673258D01*
X183853112Y-53784271D01*
X183563020Y-53839936D01*
X183298221Y-53855433D01*
X182999508Y-53809992D01*
X182753070Y-53711818D01*
X182493798Y-53544752D01*
X182341277Y-53373298D01*
X182221620Y-53076809D01*
X182193014Y-52770857D01*
X182212280Y-52542023D01*
X183180446Y-52542023D01*
X183184834Y-52848116D01*
X183312260Y-53120199D01*
X183548814Y-53198908D01*
X183853182Y-53121485D01*
X184090495Y-52948057D01*
X184293635Y-52715014D01*
X184464407Y-52454872D01*
X184492568Y-52406096D01*
X184636143Y-52140445D01*
X184773438Y-51837874D01*
X184882156Y-51536402D01*
X184962299Y-51236029D01*
X184970307Y-51198559D01*
X184879449Y-50945035D01*
X184903800Y-50627294D01*
X184856448Y-50305901D01*
X184668972Y-50068509D01*
X184416364Y-50010074D01*
X184150933Y-50142789D01*
X183961157Y-50378728D01*
X183812092Y-50633099D01*
X183657258Y-50953828D01*
X183529230Y-51260582D01*
X183420838Y-51548683D01*
X183321004Y-51855101D01*
X183239345Y-52170700D01*
X183232275Y-52203863D01*
X183180446Y-52542023D01*
X182212280Y-52542023D01*
X182219942Y-52451021D01*
X182251884Y-52274205D01*
X182334883Y-51941094D01*
X182427583Y-51654135D01*
X182541678Y-51358661D01*
X182677169Y-51054671D01*
X182834054Y-50742167D01*
X183012335Y-50421147D01*
X183050558Y-50355921D01*
X183239556Y-50055045D01*
X183426998Y-49794285D01*
X183659109Y-49524750D01*
X183888788Y-49317897D01*
X184161192Y-49152415D01*
X184474568Y-49073435D01*
X184518946Y-49072181D01*
X184825456Y-49129059D01*
G37*
G36*
X189442882Y-53845175D02*
G01*
X189186427Y-53993552D01*
X188888939Y-54043012D01*
X188614836Y-53916948D01*
X188503524Y-53776298D01*
X188574364Y-53452203D01*
X188638506Y-53156960D01*
X188704874Y-52848973D01*
X188769560Y-52545074D01*
X188803943Y-52381183D01*
X188882661Y-51974201D01*
X188941312Y-51607250D01*
X188979896Y-51280330D01*
X189000127Y-50906707D01*
X188984682Y-50604251D01*
X188894625Y-50284002D01*
X188649688Y-50106087D01*
X188609037Y-50103863D01*
X188322719Y-50192640D01*
X188100187Y-50410055D01*
X187930880Y-50690881D01*
X187805995Y-50980767D01*
X187690499Y-51328630D01*
X187610037Y-51627575D01*
X187534857Y-51959132D01*
X187483566Y-52259550D01*
X187423373Y-52546602D01*
X187420551Y-52559969D01*
X187383291Y-52866544D01*
X187373657Y-53031846D01*
X187352327Y-53336226D01*
X187326762Y-53503723D01*
X187139315Y-53731871D01*
X187117202Y-53745524D01*
X186836223Y-53853716D01*
X186802128Y-53855433D01*
X186517914Y-53762658D01*
X186410851Y-53640011D01*
X186316169Y-53351842D01*
X186330251Y-53160806D01*
X187656490Y-47076229D01*
X187663817Y-46992697D01*
X187668214Y-46919425D01*
X187815496Y-46646991D01*
X188108967Y-46541354D01*
X188159142Y-46539871D01*
X188451432Y-46633746D01*
X188572401Y-46721588D01*
X188749204Y-46961984D01*
X188752652Y-47089418D01*
X188669853Y-47372617D01*
X188560631Y-47656664D01*
X188515248Y-47764993D01*
X188401243Y-48045646D01*
X188305232Y-48328708D01*
X188277844Y-48439104D01*
X188220561Y-48731454D01*
X188164976Y-49033361D01*
X188113296Y-49323109D01*
X188106385Y-49362342D01*
X188390419Y-49271881D01*
X188506455Y-49259760D01*
X188811728Y-49287580D01*
X189098803Y-49361962D01*
X189338835Y-49457596D01*
X189614827Y-49630652D01*
X189821268Y-49854712D01*
X189958156Y-50129777D01*
X190004152Y-50304630D01*
X190032459Y-50611117D01*
X190017068Y-50942751D01*
X189978329Y-51237234D01*
X189926483Y-51515098D01*
X189442882Y-53845175D01*
G37*
G36*
X192908688Y-49922146D02*
G01*
X192701881Y-50134363D01*
X192403336Y-50237609D01*
X192081535Y-50299959D01*
X191975192Y-50314889D01*
X191896132Y-50624718D01*
X191825459Y-50941206D01*
X191759753Y-51250835D01*
X191739253Y-51349501D01*
X191597104Y-52032404D01*
X191556455Y-52328181D01*
X191537020Y-52643500D01*
X191519811Y-52936836D01*
X191482408Y-53230397D01*
X191479867Y-53242872D01*
X191310315Y-53497278D01*
X191254187Y-53538894D01*
X190983261Y-53659794D01*
X190899546Y-53667855D01*
X190646526Y-53493259D01*
X190559560Y-53220890D01*
X190530389Y-52924765D01*
X190553916Y-52616203D01*
X190565422Y-52555573D01*
X191022645Y-50351525D01*
X190715727Y-50301405D01*
X190499477Y-50257736D01*
X190277567Y-50066043D01*
X190281124Y-50018866D01*
X190319225Y-49925077D01*
X190534436Y-49722604D01*
X190808647Y-49571498D01*
X190994801Y-49541127D01*
X191056350Y-49541127D01*
X191117900Y-49551386D01*
X191339664Y-49355610D01*
X191427111Y-49050199D01*
X191582449Y-48301351D01*
X191561933Y-48107910D01*
X191748092Y-47881051D01*
X191770028Y-47867575D01*
X192049550Y-47761779D01*
X192095359Y-47759132D01*
X192373825Y-47863605D01*
X192464655Y-47961365D01*
X192580149Y-48236863D01*
X192571633Y-48390744D01*
X192483343Y-48683293D01*
X192391382Y-48881672D01*
X192274122Y-49160446D01*
X192221389Y-49384323D01*
X192212596Y-49425356D01*
X192513380Y-49477178D01*
X192798800Y-49606436D01*
X192913243Y-49896551D01*
X192908688Y-49922146D01*
G37*
G36*
X196421389Y-53609236D02*
G01*
X196197612Y-53801337D01*
X195990544Y-53855433D01*
X195699857Y-53782160D01*
X195455652Y-53667855D01*
X195482031Y-53540360D01*
X195545412Y-53251665D01*
X195612662Y-52962054D01*
X195638835Y-52851595D01*
X195711993Y-52544192D01*
X195777359Y-52256732D01*
X195792708Y-52184812D01*
X195871254Y-51779401D01*
X195929940Y-51413867D01*
X195968764Y-51088209D01*
X195989636Y-50716029D01*
X195975199Y-50414740D01*
X195887340Y-50095728D01*
X195646616Y-49918500D01*
X195606595Y-49916284D01*
X195332279Y-50033635D01*
X195125925Y-50216703D01*
X194905671Y-50452642D01*
X194705796Y-50700304D01*
X194526301Y-50959690D01*
X194367184Y-51230799D01*
X194228447Y-51513633D01*
X194110088Y-51808189D01*
X194012109Y-52114470D01*
X193934508Y-52432474D01*
X193898902Y-52728886D01*
X193889079Y-52973228D01*
X193875448Y-53269811D01*
X193843650Y-53512516D01*
X193668499Y-53752705D01*
X193659002Y-53758713D01*
X193380107Y-53854583D01*
X193351256Y-53855433D01*
X193043281Y-53775863D01*
X192881703Y-53504530D01*
X192880787Y-53186251D01*
X192905757Y-53040639D01*
X193371773Y-50798490D01*
X193443580Y-50547896D01*
X193516853Y-50294372D01*
X193553020Y-49993290D01*
X193557886Y-49919215D01*
X193587012Y-49621636D01*
X193598918Y-49554316D01*
X193756363Y-49306196D01*
X193855373Y-49227520D01*
X194118701Y-49090537D01*
X194233461Y-49072181D01*
X194509441Y-49188307D01*
X194639393Y-49341825D01*
X194519225Y-49772670D01*
X194717491Y-49534613D01*
X194951276Y-49319131D01*
X195221722Y-49154954D01*
X195530133Y-49074917D01*
X195599267Y-49072181D01*
X195889757Y-49114748D01*
X196175409Y-49242449D01*
X196305618Y-49330102D01*
X196533061Y-49531716D01*
X196707366Y-49771062D01*
X196770167Y-49908957D01*
X196846091Y-50232640D01*
X196880945Y-50530082D01*
X196889969Y-50852711D01*
X196873160Y-51200529D01*
X196841115Y-51496917D01*
X196792537Y-51809426D01*
X196745255Y-52054386D01*
X196421389Y-53609236D01*
G37*
G36*
X199864414Y-49113449D02*
G01*
X200142347Y-49219419D01*
X200417716Y-49390603D01*
X200656560Y-49593884D01*
X200862796Y-49823591D01*
X201021042Y-50091266D01*
X201100318Y-50398969D01*
X201083008Y-50678322D01*
X200993379Y-50971683D01*
X200851437Y-51237554D01*
X200657182Y-51475937D01*
X200410615Y-51686831D01*
X200246232Y-51795000D01*
X199972706Y-51940038D01*
X199686839Y-52049452D01*
X199388630Y-52123243D01*
X199078079Y-52161410D01*
X198895080Y-52167226D01*
X198598875Y-52083970D01*
X198464236Y-52019215D01*
X198426712Y-52356379D01*
X198445055Y-52661571D01*
X198587307Y-52932852D01*
X198832066Y-53011330D01*
X199147052Y-52980680D01*
X199441517Y-52899622D01*
X199713143Y-52783354D01*
X199774355Y-52751944D01*
X200045264Y-52615158D01*
X200316924Y-52504970D01*
X200388381Y-52492558D01*
X200679257Y-52543047D01*
X200773796Y-52756340D01*
X200658379Y-53046333D01*
X200469953Y-53271991D01*
X200200744Y-53467423D01*
X199898918Y-53613633D01*
X199600789Y-53719420D01*
X199302844Y-53794983D01*
X199005081Y-53840320D01*
X198707502Y-53855433D01*
X198343038Y-53825918D01*
X198040261Y-53737372D01*
X197748536Y-53543678D01*
X197553197Y-53257750D01*
X197466323Y-52962598D01*
X197441135Y-52608415D01*
X197462726Y-52304039D01*
X197519016Y-51966459D01*
X197593823Y-51668622D01*
X197696245Y-51358729D01*
X197826281Y-51036781D01*
X197908050Y-50861504D01*
X198827669Y-50861504D01*
X198867740Y-51160755D01*
X198892149Y-51194163D01*
X199166686Y-51321990D01*
X199204292Y-51323123D01*
X199503172Y-51291778D01*
X199801099Y-51159358D01*
X200001885Y-50923307D01*
X200090893Y-50668064D01*
X200104391Y-50374709D01*
X200046930Y-50158085D01*
X199841336Y-49939898D01*
X199702547Y-49916284D01*
X199403774Y-49984870D01*
X199160943Y-50172643D01*
X199113433Y-50228427D01*
X198955593Y-50481596D01*
X198848804Y-50771791D01*
X198827669Y-50861504D01*
X197908050Y-50861504D01*
X197955739Y-50759281D01*
X198104375Y-50473410D01*
X198237090Y-50238685D01*
X198407289Y-49965286D01*
X198617526Y-49674799D01*
X198824973Y-49441270D01*
X199070225Y-49236221D01*
X199351274Y-49100660D01*
X199548674Y-49072181D01*
X199864414Y-49113449D01*
G37*
G36*
X204765701Y-52637638D02*
G01*
X204666554Y-52923574D01*
X204491844Y-53186040D01*
X204269999Y-53402192D01*
X204182449Y-53470018D01*
X203901631Y-53638637D01*
X203592603Y-53759079D01*
X203299062Y-53824946D01*
X202983923Y-53853927D01*
X202889916Y-53855433D01*
X202596756Y-53834676D01*
X202296864Y-53754454D01*
X202209944Y-53720611D01*
X201884223Y-53578394D01*
X201616892Y-53444836D01*
X201340722Y-53272400D01*
X201137962Y-53035716D01*
X201134299Y-52960039D01*
X201283432Y-52681419D01*
X201556638Y-52538983D01*
X201877285Y-52502816D01*
X202070726Y-52513074D01*
X202180051Y-52804059D01*
X202440104Y-52968076D01*
X202466399Y-52979090D01*
X202766005Y-53075535D01*
X203069481Y-53110065D01*
X203210851Y-53105119D01*
X203494104Y-53003719D01*
X203552303Y-52891162D01*
X203556699Y-52798838D01*
X203561096Y-52702118D01*
X203287811Y-52572929D01*
X203202059Y-52543849D01*
X202910862Y-52448760D01*
X202743371Y-52389976D01*
X202506127Y-52212198D01*
X202263604Y-51977352D01*
X202081116Y-51728482D01*
X201941376Y-51411325D01*
X201888087Y-51073973D01*
X201909719Y-50777418D01*
X201921249Y-50716424D01*
X202002765Y-50426080D01*
X202124215Y-50147094D01*
X202285598Y-49879465D01*
X202486916Y-49623193D01*
X202706916Y-49408492D01*
X202966416Y-49227691D01*
X203268645Y-49106619D01*
X203546441Y-49072181D01*
X203841482Y-49110797D01*
X204119918Y-49212921D01*
X204378832Y-49359405D01*
X204437439Y-49398978D01*
X204669137Y-49586150D01*
X204860704Y-49826250D01*
X204954745Y-50102397D01*
X204963675Y-50397893D01*
X204945953Y-50540569D01*
X204844397Y-50823241D01*
X204830181Y-50846850D01*
X204673342Y-51105081D01*
X204644068Y-51153130D01*
X204363701Y-51269436D01*
X204226413Y-51285021D01*
X203945153Y-51186329D01*
X203905478Y-51164854D01*
X203709107Y-50956759D01*
X203883496Y-50706166D01*
X203999267Y-50495140D01*
X204015553Y-50189884D01*
X203840723Y-49952463D01*
X203637299Y-49916284D01*
X203348248Y-50019269D01*
X203148976Y-50236996D01*
X203119993Y-50281183D01*
X202982113Y-50556729D01*
X202889956Y-50850307D01*
X202881124Y-50890813D01*
X202902075Y-51183928D01*
X203070092Y-51432702D01*
X203313433Y-51622076D01*
X203587687Y-51753955D01*
X203863100Y-51887456D01*
X204139672Y-52022580D01*
X204293824Y-52098350D01*
X204567223Y-52264988D01*
X204757641Y-52501167D01*
X204765701Y-52637638D01*
G37*
G36*
X208564166Y-52637638D02*
G01*
X208465019Y-52923574D01*
X208290309Y-53186040D01*
X208068464Y-53402192D01*
X207980914Y-53470018D01*
X207700096Y-53638637D01*
X207391068Y-53759079D01*
X207097527Y-53824946D01*
X206782388Y-53853927D01*
X206688381Y-53855433D01*
X206395221Y-53834676D01*
X206095329Y-53754454D01*
X206008409Y-53720611D01*
X205682688Y-53578394D01*
X205415357Y-53444836D01*
X205139187Y-53272400D01*
X204936427Y-53035716D01*
X204932763Y-52960039D01*
X205081897Y-52681419D01*
X205355103Y-52538983D01*
X205675750Y-52502816D01*
X205869191Y-52513074D01*
X205978516Y-52804059D01*
X206238569Y-52968076D01*
X206264864Y-52979090D01*
X206564470Y-53075535D01*
X206867945Y-53110065D01*
X207009316Y-53105119D01*
X207292569Y-53003719D01*
X207350768Y-52891162D01*
X207355164Y-52798838D01*
X207359560Y-52702118D01*
X207086276Y-52572929D01*
X207000523Y-52543849D01*
X206709327Y-52448760D01*
X206541835Y-52389976D01*
X206304592Y-52212198D01*
X206062068Y-51977352D01*
X205879580Y-51728482D01*
X205739841Y-51411325D01*
X205686552Y-51073973D01*
X205708183Y-50777418D01*
X205719714Y-50716424D01*
X205801230Y-50426080D01*
X205922680Y-50147094D01*
X206084063Y-49879465D01*
X206285380Y-49623193D01*
X206505381Y-49408492D01*
X206764881Y-49227691D01*
X207067110Y-49106619D01*
X207344906Y-49072181D01*
X207639946Y-49110797D01*
X207918383Y-49212921D01*
X208177297Y-49359405D01*
X208235904Y-49398978D01*
X208467602Y-49586150D01*
X208659169Y-49826250D01*
X208753210Y-50102397D01*
X208762140Y-50397893D01*
X208744417Y-50540569D01*
X208642861Y-50823241D01*
X208628646Y-50846850D01*
X208471807Y-51105081D01*
X208442533Y-51153130D01*
X208162166Y-51269436D01*
X208024878Y-51285021D01*
X207743617Y-51186329D01*
X207703943Y-51164854D01*
X207507572Y-50956759D01*
X207681961Y-50706166D01*
X207797732Y-50495140D01*
X207814018Y-50189884D01*
X207639188Y-49952463D01*
X207435764Y-49916284D01*
X207146713Y-50019269D01*
X206947441Y-50236996D01*
X206918458Y-50281183D01*
X206780577Y-50556729D01*
X206688421Y-50850307D01*
X206679588Y-50890813D01*
X206700540Y-51183928D01*
X206868556Y-51432702D01*
X207111898Y-51622076D01*
X207386152Y-51753955D01*
X207661565Y-51887456D01*
X207938137Y-52022580D01*
X208092289Y-52098350D01*
X208365688Y-52264988D01*
X208556106Y-52501167D01*
X208564166Y-52637638D01*
G37*
D12*
X25166189Y-41840905D02*
G75*
G02*
X22625681Y-41840905I-1270254J0D01*
G01*
X22625681Y-41840905D02*
G75*
G02*
X25166189Y-41840905I1270254J0D01*
G01*
X110434939Y-37719030D02*
G75*
G02*
X107894431Y-37719030I-1270254J0D01*
G01*
X107894431Y-37719030D02*
G75*
G02*
X110434939Y-37719030I1270254J0D01*
G01*
X210447439Y-37719030D02*
G75*
G02*
X207906931Y-37719030I-1270254J0D01*
G01*
X207906931Y-37719030D02*
G75*
G02*
X210447439Y-37719030I1270254J0D01*
G01*
X295716189Y-41840905D02*
G75*
G02*
X293175681Y-41840905I-1270254J0D01*
G01*
X293175681Y-41840905D02*
G75*
G02*
X295716189Y-41840905I1270254J0D01*
G01*
X108053689Y-112087780D02*
G75*
G02*
X105513181Y-112087780I-1270254J0D01*
G01*
X105513181Y-112087780D02*
G75*
G02*
X108053689Y-112087780I1270254J0D01*
G01*
X25966189Y-111287780D02*
G75*
G02*
X23425681Y-111287780I-1270254J0D01*
G01*
X23425681Y-111287780D02*
G75*
G02*
X25966189Y-111287780I1270254J0D01*
G01*
X294916189Y-111287780D02*
G75*
G02*
X292375681Y-111287780I-1270254J0D01*
G01*
X292375681Y-111287780D02*
G75*
G02*
X294916189Y-111287780I1270254J0D01*
G01*
X65191189Y-74628405D02*
G75*
G02*
X62650681Y-74628405I-1270254J0D01*
G01*
X62650681Y-74628405D02*
G75*
G02*
X65191189Y-74628405I1270254J0D01*
G01*
X255691189Y-74628405D02*
G75*
G02*
X253150681Y-74628405I-1270254J0D01*
G01*
X253150681Y-74628405D02*
G75*
G02*
X255691189Y-74628405I1270254J0D01*
G01*
D13*
G36*
X177198617Y-67571893D02*
G01*
X177317621Y-67626714D01*
X177318604Y-67627880D01*
X177361457Y-67705012D01*
X177441435Y-67872446D01*
X177550406Y-68112246D01*
X177680238Y-68406474D01*
X177822798Y-68737191D01*
X177842230Y-68782843D01*
X178298730Y-69856923D01*
X179383130Y-70487722D01*
X179748931Y-70702172D01*
X180024219Y-70868322D01*
X180221088Y-70994751D01*
X180351637Y-71090036D01*
X180427963Y-71162757D01*
X180462160Y-71221491D01*
X180467529Y-71256715D01*
X180453742Y-71343249D01*
X180391732Y-71387290D01*
X180250527Y-71406789D01*
X180203557Y-71409691D01*
X180106661Y-71410170D01*
X180008106Y-71395338D01*
X179891689Y-71357840D01*
X179741204Y-71290318D01*
X179540446Y-71185414D01*
X179273210Y-71035772D01*
X178923292Y-70834035D01*
X178879223Y-70808443D01*
X177818861Y-70192416D01*
X175946198Y-69926340D01*
X175483779Y-69859399D01*
X175052812Y-69794654D01*
X174668622Y-69734589D01*
X174346533Y-69681689D01*
X174101873Y-69638438D01*
X173949966Y-69607323D01*
X173912218Y-69596568D01*
X173789525Y-69513141D01*
X173750901Y-69424730D01*
X173758542Y-69353275D01*
X173789067Y-69299395D01*
X173853880Y-69263119D01*
X173964383Y-69244478D01*
X174131981Y-69243503D01*
X174368076Y-69260222D01*
X174684073Y-69294668D01*
X175091374Y-69346869D01*
X175601382Y-69416856D01*
X175694496Y-69429877D01*
X176127677Y-69489795D01*
X176521810Y-69542852D01*
X176862332Y-69587204D01*
X177134679Y-69621007D01*
X177324287Y-69642418D01*
X177416594Y-69649593D01*
X177423102Y-69648730D01*
X177408191Y-69590775D01*
X177353996Y-69443219D01*
X177267632Y-69224216D01*
X177156214Y-68951922D01*
X177061195Y-68725314D01*
X176934307Y-68416324D01*
X176827347Y-68137965D01*
X176747726Y-67911004D01*
X176702857Y-67756211D01*
X176696060Y-67702150D01*
X176729157Y-67624604D01*
X176820156Y-67583281D01*
X176982367Y-67564487D01*
X177198617Y-67571893D01*
G37*
G36*
X166746641Y-76060586D02*
G01*
X167173442Y-76099195D01*
X167337996Y-76120198D01*
X167949487Y-76233419D01*
X168531817Y-76400607D01*
X169074179Y-76614457D01*
X169565767Y-76867666D01*
X169995775Y-77152930D01*
X170353395Y-77462944D01*
X170627821Y-77790404D01*
X170808248Y-78128007D01*
X170883868Y-78468447D01*
X170885493Y-78517941D01*
X170839398Y-78853045D01*
X170693543Y-79127966D01*
X170509970Y-79303484D01*
X170366814Y-79400765D01*
X170155201Y-79532771D01*
X169896236Y-79687548D01*
X169611023Y-79853142D01*
X169320667Y-80017599D01*
X169046273Y-80168965D01*
X168808946Y-80295284D01*
X168629790Y-80384604D01*
X168530116Y-80424923D01*
X168371949Y-80420526D01*
X168176084Y-80360897D01*
X168148823Y-80348729D01*
X168036961Y-80290893D01*
X167841894Y-80183858D01*
X167576226Y-80034933D01*
X167252561Y-79851425D01*
X166883503Y-79640642D01*
X166481656Y-79409892D01*
X166059623Y-79166482D01*
X165630010Y-78917721D01*
X165205419Y-78670916D01*
X164798455Y-78433374D01*
X164421721Y-78212405D01*
X164087822Y-78015314D01*
X163809361Y-77849411D01*
X163598943Y-77722002D01*
X163469171Y-77640396D01*
X163433296Y-77614670D01*
X163403606Y-77554855D01*
X164321296Y-77554855D01*
X166323050Y-78711863D01*
X166764429Y-78966450D01*
X167174065Y-79201712D01*
X167540860Y-79411351D01*
X167853716Y-79589068D01*
X168101532Y-79728566D01*
X168273211Y-79823546D01*
X168357653Y-79867710D01*
X168364173Y-79870112D01*
X168428576Y-79843181D01*
X168570896Y-79769555D01*
X168767710Y-79661653D01*
X168921448Y-79574622D01*
X169305508Y-79351159D01*
X169597850Y-79170159D01*
X169810723Y-79019726D01*
X169956378Y-78887964D01*
X170047062Y-78762977D01*
X170095027Y-78632869D01*
X170112522Y-78485743D01*
X170113731Y-78416746D01*
X170057352Y-78143547D01*
X169898553Y-77870351D01*
X169652016Y-77604279D01*
X169332427Y-77352453D01*
X168954469Y-77121994D01*
X168532826Y-76920024D01*
X168082182Y-76753665D01*
X167617222Y-76630037D01*
X167152628Y-76556263D01*
X166703085Y-76539463D01*
X166324102Y-76578832D01*
X166129749Y-76620321D01*
X165946485Y-76674976D01*
X165752651Y-76752571D01*
X165526590Y-76862876D01*
X165246640Y-77015665D01*
X164891145Y-77220710D01*
X164856538Y-77240986D01*
X164321296Y-77554855D01*
X163403606Y-77554855D01*
X163380300Y-77507903D01*
X163385142Y-77447529D01*
X163444494Y-77392755D01*
X163590115Y-77291489D01*
X163805665Y-77154119D01*
X164074802Y-76991030D01*
X164381185Y-76812612D01*
X164408578Y-76796983D01*
X164892392Y-76531131D01*
X165306376Y-76329960D01*
X165674663Y-76187895D01*
X166021382Y-76099361D01*
X166370664Y-76058783D01*
X166746641Y-76060586D01*
G37*
G36*
X145295956Y-85736730D02*
G01*
X145487591Y-85780190D01*
X145765638Y-85847721D01*
X146117751Y-85936029D01*
X146531588Y-86041818D01*
X146994803Y-86161796D01*
X147495053Y-86292668D01*
X148019993Y-86431139D01*
X148557279Y-86573916D01*
X149094568Y-86717703D01*
X149619515Y-86859208D01*
X150119776Y-86995135D01*
X150583006Y-87122190D01*
X150996862Y-87237079D01*
X151349000Y-87336508D01*
X151627075Y-87417183D01*
X151818743Y-87475809D01*
X151911659Y-87509092D01*
X151917358Y-87512459D01*
X151972407Y-87616805D01*
X151976018Y-87697398D01*
X151933980Y-87781016D01*
X151830462Y-87825904D01*
X151655284Y-87831598D01*
X151398267Y-87797634D01*
X151049231Y-87723549D01*
X150715644Y-87639992D01*
X149879989Y-87421434D01*
X148879043Y-87995721D01*
X148569777Y-88174571D01*
X148296481Y-88335305D01*
X148075152Y-88468293D01*
X147921787Y-88563907D01*
X147852384Y-88612518D01*
X147850359Y-88614888D01*
X147872925Y-88676565D01*
X147955684Y-88808016D01*
X148084570Y-88988186D01*
X148202266Y-89141633D01*
X148375632Y-89367532D01*
X148481988Y-89524024D01*
X148531574Y-89630003D01*
X148534627Y-89704362D01*
X148523003Y-89733569D01*
X148417287Y-89819568D01*
X148250231Y-89847958D01*
X148061936Y-89820070D01*
X147892503Y-89737231D01*
X147861622Y-89711654D01*
X147793472Y-89637129D01*
X147664487Y-89484943D01*
X147484345Y-89267205D01*
X147262721Y-88996023D01*
X147009295Y-88683507D01*
X146733743Y-88341763D01*
X146445743Y-87982903D01*
X146154972Y-87619033D01*
X145871109Y-87262263D01*
X145603830Y-86924702D01*
X145362814Y-86618458D01*
X145232192Y-86451058D01*
X146121951Y-86451058D01*
X146133032Y-86502416D01*
X146213876Y-86632535D01*
X146357185Y-86831710D01*
X146555659Y-87090241D01*
X146801998Y-87398425D01*
X147088904Y-87746559D01*
X147164342Y-87836591D01*
X147424947Y-88146631D01*
X147609287Y-88038368D01*
X147734613Y-87965885D01*
X147933170Y-87852310D01*
X148175990Y-87714170D01*
X148394897Y-87590153D01*
X148629667Y-87454381D01*
X148821463Y-87337684D01*
X148950197Y-87252690D01*
X148995818Y-87212394D01*
X148941853Y-87187219D01*
X148792519Y-87138734D01*
X148566321Y-87071841D01*
X148281768Y-86991444D01*
X147957368Y-86902445D01*
X147611628Y-86809747D01*
X147263055Y-86718254D01*
X146930157Y-86632869D01*
X146631443Y-86558494D01*
X146385419Y-86500032D01*
X146210593Y-86462386D01*
X146125472Y-86450460D01*
X146121951Y-86451058D01*
X145232192Y-86451058D01*
X145157737Y-86355640D01*
X144998277Y-86148356D01*
X144894111Y-86008715D01*
X144855323Y-85950115D01*
X144869887Y-85850471D01*
X144971252Y-85768214D01*
X145128930Y-85723462D01*
X145203076Y-85720635D01*
X145295956Y-85736730D01*
G37*
G36*
X137244367Y-86963077D02*
G01*
X137358862Y-87052847D01*
X137381386Y-87143859D01*
X137371884Y-87218569D01*
X137330421Y-87275142D01*
X137237561Y-87322438D01*
X137073868Y-87369319D01*
X136819905Y-87424643D01*
X136722011Y-87444452D01*
X136274384Y-87558577D01*
X135859032Y-87710712D01*
X135495214Y-87890736D01*
X135202188Y-88088527D01*
X134999214Y-88293966D01*
X134946876Y-88377318D01*
X134897218Y-88576033D01*
X134958866Y-88754528D01*
X135126716Y-88907153D01*
X135395661Y-89028260D01*
X135580538Y-89078431D01*
X135863711Y-89107260D01*
X136174996Y-89067511D01*
X136532887Y-88954908D01*
X136955880Y-88765171D01*
X136973956Y-88756147D01*
X137436393Y-88540104D01*
X137842332Y-88389165D01*
X138226334Y-88294458D01*
X138622960Y-88247113D01*
X138994550Y-88237474D01*
X139332411Y-88245471D01*
X139589591Y-88267956D01*
X139802328Y-88309701D01*
X139987092Y-88368172D01*
X140446343Y-88569911D01*
X140798791Y-88799847D01*
X141041462Y-89055624D01*
X141161218Y-89298146D01*
X141171209Y-89513951D01*
X141094408Y-89767603D01*
X140941615Y-90031831D01*
X140804714Y-90198421D01*
X140533996Y-90430854D01*
X140173480Y-90655366D01*
X139750520Y-90857786D01*
X139292473Y-91023940D01*
X139111871Y-91075420D01*
X138776558Y-91149434D01*
X138430321Y-91201749D01*
X138099835Y-91230635D01*
X137811773Y-91234360D01*
X137592812Y-91211193D01*
X137498707Y-91180117D01*
X137383294Y-91078889D01*
X137333583Y-90973460D01*
X137332486Y-90904401D01*
X137365087Y-90855270D01*
X137450210Y-90819674D01*
X137606678Y-90791221D01*
X137853316Y-90763520D01*
X137990594Y-90750359D01*
X138408683Y-90690441D01*
X138799944Y-90585258D01*
X139209338Y-90421150D01*
X139441267Y-90309524D01*
X139843714Y-90081396D01*
X140129616Y-89860463D01*
X140298899Y-89647001D01*
X140351487Y-89441287D01*
X140287308Y-89243598D01*
X140106287Y-89054211D01*
X139824522Y-88881477D01*
X139516235Y-88752480D01*
X139212579Y-88686074D01*
X138894529Y-88684206D01*
X138543060Y-88748821D01*
X138139146Y-88881869D01*
X137663763Y-89085294D01*
X137616028Y-89107492D01*
X137167092Y-89302970D01*
X136778234Y-89435948D01*
X136415496Y-89514074D01*
X136044918Y-89544998D01*
X135696764Y-89539806D01*
X135369378Y-89512498D01*
X135112653Y-89461020D01*
X134880850Y-89375880D01*
X134858984Y-89365936D01*
X134513649Y-89178714D01*
X134277420Y-88980511D01*
X134142088Y-88759407D01*
X134099442Y-88503483D01*
X134120878Y-88294360D01*
X134219299Y-88063983D01*
X134418406Y-87833242D01*
X134701905Y-87610723D01*
X135053502Y-87405016D01*
X135456905Y-87224710D01*
X135895819Y-87078392D01*
X136353952Y-86974652D01*
X136710973Y-86929074D01*
X137029652Y-86922219D01*
X137244367Y-86963077D01*
G37*
G36*
X156796485Y-81359098D02*
G01*
X156885665Y-81385350D01*
X157001915Y-81432347D01*
X157154641Y-81504951D01*
X157353246Y-81608029D01*
X157607134Y-81746443D01*
X157925711Y-81925059D01*
X158318381Y-82148740D01*
X158794547Y-82422350D01*
X159299329Y-82713617D01*
X159784191Y-82994964D01*
X160238257Y-83260888D01*
X160651297Y-83505224D01*
X161013082Y-83721807D01*
X161313384Y-83904472D01*
X161541974Y-84047053D01*
X161688624Y-84143384D01*
X161742683Y-84186363D01*
X161755087Y-84303666D01*
X161675429Y-84398907D01*
X161528869Y-84445305D01*
X161498338Y-84446408D01*
X161411939Y-84438276D01*
X161220800Y-84415087D01*
X160936321Y-84378377D01*
X160569903Y-84329681D01*
X160132947Y-84270536D01*
X159636854Y-84202478D01*
X159093025Y-84127043D01*
X158512861Y-84045766D01*
X158265054Y-84010816D01*
X157678612Y-83928276D01*
X157128159Y-83851445D01*
X156624448Y-83781778D01*
X156178229Y-83720733D01*
X155800252Y-83669765D01*
X155501270Y-83630330D01*
X155292032Y-83603885D01*
X155183291Y-83591885D01*
X155169989Y-83591603D01*
X155215087Y-83623478D01*
X155350426Y-83706763D01*
X155564409Y-83834618D01*
X155845440Y-84000200D01*
X156181924Y-84196668D01*
X156562262Y-84417179D01*
X156870618Y-84594971D01*
X157285957Y-84834423D01*
X157674712Y-85059546D01*
X158023633Y-85262591D01*
X158319470Y-85435808D01*
X158548972Y-85571449D01*
X158698889Y-85661764D01*
X158748476Y-85693240D01*
X158868590Y-85813845D01*
X158906538Y-85936840D01*
X158856628Y-86032278D01*
X158817004Y-86053761D01*
X158746147Y-86074634D01*
X158667087Y-86080735D01*
X158570649Y-86067662D01*
X158447661Y-86031011D01*
X158288949Y-85966377D01*
X158085341Y-85869357D01*
X157827663Y-85735547D01*
X157506741Y-85560543D01*
X157113404Y-85339940D01*
X156638477Y-85069336D01*
X156072787Y-84744326D01*
X155989207Y-84696180D01*
X155406503Y-84358560D01*
X154892591Y-84056931D01*
X154452849Y-83794588D01*
X154092655Y-83574827D01*
X153817388Y-83400943D01*
X153632426Y-83276232D01*
X153543148Y-83203988D01*
X153535819Y-83193014D01*
X153543191Y-83075181D01*
X153656857Y-83004742D01*
X153871802Y-82981259D01*
X153970305Y-82988956D01*
X154173083Y-83011388D01*
X154468222Y-83047028D01*
X154843810Y-83094346D01*
X155287932Y-83151815D01*
X155788675Y-83217906D01*
X156334125Y-83291093D01*
X156912370Y-83369847D01*
X157064184Y-83390711D01*
X157641052Y-83469784D01*
X158181769Y-83543212D01*
X158675396Y-83609559D01*
X159110989Y-83667386D01*
X159477608Y-83715256D01*
X159764310Y-83751731D01*
X159960155Y-83775373D01*
X160054201Y-83784745D01*
X160060997Y-83784507D01*
X160015896Y-83752515D01*
X159880243Y-83668795D01*
X159665261Y-83539978D01*
X159382173Y-83372697D01*
X159042202Y-83173585D01*
X158656571Y-82949274D01*
X158247137Y-82712530D01*
X157762655Y-82432457D01*
X157370758Y-82203826D01*
X157061887Y-82020368D01*
X156826481Y-81875812D01*
X156654980Y-81763890D01*
X156537824Y-81678332D01*
X156465453Y-81612869D01*
X156428308Y-81561230D01*
X156416828Y-81517148D01*
X156416721Y-81512152D01*
X156430902Y-81418746D01*
X156494851Y-81372126D01*
X156640675Y-81350960D01*
X156661719Y-81349369D01*
X156724971Y-81348726D01*
X156796485Y-81359098D01*
G37*
G36*
X183059836Y-90886075D02*
G01*
X183215061Y-90969099D01*
X183441461Y-91093784D01*
X183723786Y-91251690D01*
X184046791Y-91434378D01*
X184240517Y-91544795D01*
X184637639Y-91774009D01*
X184941191Y-91954909D01*
X185161209Y-92094230D01*
X185307728Y-92198703D01*
X185390783Y-92275062D01*
X185420410Y-92330039D01*
X185420866Y-92336712D01*
X185398245Y-92389101D01*
X185323689Y-92461864D01*
X185187161Y-92561733D01*
X184978624Y-92695440D01*
X184688039Y-92869717D01*
X184305370Y-93091295D01*
X184240106Y-93128628D01*
X183899346Y-93321591D01*
X183588992Y-93494074D01*
X183324659Y-93637662D01*
X183121961Y-93743943D01*
X182996513Y-93804499D01*
X182965978Y-93815283D01*
X182890741Y-93790161D01*
X182729980Y-93713141D01*
X182498978Y-93592346D01*
X182213014Y-93435900D01*
X181887371Y-93251927D01*
X181670070Y-93126334D01*
X181295247Y-92904224D01*
X181279587Y-92894586D01*
X181826987Y-92894586D01*
X181827496Y-92895174D01*
X181895072Y-92940577D01*
X182035574Y-93025496D01*
X182223047Y-93135133D01*
X182431534Y-93254694D01*
X182635079Y-93369383D01*
X182807724Y-93464405D01*
X182923515Y-93524965D01*
X182956866Y-93538928D01*
X183015067Y-93511881D01*
X183153612Y-93438224D01*
X183351009Y-93329597D01*
X183558136Y-93213302D01*
X183787182Y-93081968D01*
X183973017Y-92972279D01*
X184095189Y-92896516D01*
X184133811Y-92867527D01*
X184086442Y-92832666D01*
X183960789Y-92755582D01*
X183781533Y-92650287D01*
X183573356Y-92530793D01*
X183360939Y-92411110D01*
X183168965Y-92305251D01*
X183022115Y-92227226D01*
X182945070Y-92191048D01*
X182940436Y-92190060D01*
X182863380Y-92218578D01*
X182721198Y-92294126D01*
X182537577Y-92401695D01*
X182336206Y-92526278D01*
X182140772Y-92652867D01*
X181974966Y-92766453D01*
X181862475Y-92852029D01*
X181826987Y-92894586D01*
X181279587Y-92894586D01*
X180977719Y-92708802D01*
X180727958Y-92546932D01*
X180556434Y-92425479D01*
X180473620Y-92351309D01*
X180467529Y-92337900D01*
X180473944Y-92331181D01*
X180849587Y-92331181D01*
X181039851Y-92445504D01*
X181200977Y-92543752D01*
X181338089Y-92629629D01*
X181347437Y-92635646D01*
X181451263Y-92690258D01*
X181499181Y-92700070D01*
X181560203Y-92667963D01*
X181702406Y-92588342D01*
X181905550Y-92472667D01*
X182149397Y-92332396D01*
X182188442Y-92309822D01*
X182828087Y-91939759D01*
X183077922Y-91939759D01*
X183737853Y-92325778D01*
X183985890Y-92468760D01*
X184196111Y-92585969D01*
X184348715Y-92666659D01*
X184423902Y-92700080D01*
X184427715Y-92700236D01*
X184491167Y-92667701D01*
X184625319Y-92595060D01*
X184765307Y-92517875D01*
X184925042Y-92426102D01*
X185030633Y-92359434D01*
X185058008Y-92334861D01*
X185004857Y-92303347D01*
X184865661Y-92222795D01*
X184656268Y-92102322D01*
X184392526Y-91951045D01*
X184090284Y-91778080D01*
X184060486Y-91761046D01*
X183077922Y-91199447D01*
X183077922Y-91569603D01*
X183077922Y-91939759D01*
X182828087Y-91939759D01*
X182843280Y-91930969D01*
X182843280Y-91569603D01*
X182843280Y-91560027D01*
X182841590Y-91359677D01*
X182829974Y-91255190D01*
X182798611Y-91225105D01*
X182737684Y-91247964D01*
X182707949Y-91264284D01*
X182612970Y-91318050D01*
X182436511Y-91418840D01*
X182198742Y-91555099D01*
X181919835Y-91715272D01*
X181711102Y-91835332D01*
X180849587Y-92331181D01*
X180473944Y-92331181D01*
X180516140Y-92286985D01*
X180650675Y-92189628D01*
X180854191Y-92055797D01*
X181109745Y-91895462D01*
X181400392Y-91718591D01*
X181709189Y-91535154D01*
X182019193Y-91355119D01*
X182313459Y-91188457D01*
X182575044Y-91045135D01*
X182787005Y-90935123D01*
X182932397Y-90868391D01*
X182991034Y-90853155D01*
X183059836Y-90886075D01*
G37*
G36*
X177159634Y-86469296D02*
G01*
X177318590Y-86544150D01*
X177522476Y-86652332D01*
X177625228Y-86710437D01*
X178091779Y-86979543D01*
X178091779Y-87578156D01*
X178091779Y-88176769D01*
X177725151Y-88390141D01*
X177609393Y-88457396D01*
X177402094Y-88577711D01*
X177113213Y-88745311D01*
X176752710Y-88954418D01*
X176330545Y-89199257D01*
X175856676Y-89474052D01*
X175341065Y-89773026D01*
X174793669Y-90090404D01*
X174224450Y-90420408D01*
X174181729Y-90445175D01*
X171004935Y-92286837D01*
X172011290Y-92863866D01*
X172327617Y-93046659D01*
X172613842Y-93214719D01*
X172852418Y-93357531D01*
X173025798Y-93464578D01*
X173116434Y-93525344D01*
X173120301Y-93528496D01*
X173169488Y-93590375D01*
X173200441Y-93690472D01*
X173216933Y-93852954D01*
X173222734Y-94101987D01*
X173222957Y-94186241D01*
X173222957Y-94756387D01*
X172719869Y-95057057D01*
X172506775Y-95183601D01*
X172335342Y-95283870D01*
X172227672Y-95345026D01*
X172202246Y-95357728D01*
X172150152Y-95329184D01*
X172007297Y-95247631D01*
X171784255Y-95119186D01*
X171491597Y-94949967D01*
X171139896Y-94746092D01*
X170739724Y-94513678D01*
X170301654Y-94258843D01*
X170063683Y-94120253D01*
X167939656Y-92882778D01*
X167956248Y-92265625D01*
X167957849Y-92206063D01*
X168186135Y-92206063D01*
X168190019Y-92374788D01*
X168207483Y-92735498D01*
X170143280Y-93867201D01*
X170575497Y-94119754D01*
X170974871Y-94352865D01*
X171330328Y-94560091D01*
X171630796Y-94734987D01*
X171865202Y-94871109D01*
X172022473Y-94962014D01*
X172091537Y-95001256D01*
X172093742Y-95002335D01*
X172101249Y-94950703D01*
X172106537Y-94812387D01*
X172108407Y-94629517D01*
X172108407Y-94580476D01*
X172343109Y-94580476D01*
X172347223Y-94770451D01*
X172358011Y-94902951D01*
X172371498Y-94947104D01*
X172432778Y-94918772D01*
X172562427Y-94845351D01*
X172694131Y-94766091D01*
X172988315Y-94585078D01*
X172988315Y-94238147D01*
X172982887Y-94053998D01*
X172968798Y-93928195D01*
X172952965Y-93891215D01*
X172886340Y-93917757D01*
X172751602Y-93986220D01*
X172630392Y-94052531D01*
X172343168Y-94213848D01*
X172343109Y-94580476D01*
X172108407Y-94580476D01*
X172108407Y-94253269D01*
X171155174Y-93699927D01*
X170833612Y-93513559D01*
X170528128Y-93337050D01*
X170260711Y-93183065D01*
X170053349Y-93064268D01*
X169937968Y-92998867D01*
X169787975Y-92913561D01*
X169564923Y-92784991D01*
X169296863Y-92629400D01*
X169011847Y-92463028D01*
X168959927Y-92432614D01*
X168700741Y-92282142D01*
X168478207Y-92155674D01*
X168311532Y-92063919D01*
X168219924Y-92017584D01*
X168209207Y-92014079D01*
X168192677Y-92067333D01*
X168186135Y-92206063D01*
X167957849Y-92206063D01*
X167969988Y-91754568D01*
X168314683Y-91754568D01*
X170255541Y-92876514D01*
X172196398Y-93998460D01*
X172460370Y-93849048D01*
X172618645Y-93757019D01*
X172732727Y-93686205D01*
X172764449Y-93663439D01*
X172725791Y-93626366D01*
X172597130Y-93538761D01*
X172390480Y-93408028D01*
X172117859Y-93241567D01*
X171791281Y-93046783D01*
X171422762Y-92831076D01*
X171268606Y-92741920D01*
X170883254Y-92517258D01*
X170532153Y-92307679D01*
X170227961Y-92121129D01*
X169983339Y-91965553D01*
X169810947Y-91848899D01*
X169723443Y-91779111D01*
X169715144Y-91766907D01*
X169747893Y-91727812D01*
X169754406Y-91722981D01*
X170153577Y-91722981D01*
X170176778Y-91767346D01*
X170272711Y-91846649D01*
X170410369Y-91941033D01*
X170558748Y-92030639D01*
X170686841Y-92095610D01*
X170763641Y-92116088D01*
X170766240Y-92115362D01*
X170821788Y-92084430D01*
X170970530Y-91999347D01*
X171204210Y-91864887D01*
X171514573Y-91685824D01*
X171893361Y-91466929D01*
X172332318Y-91212977D01*
X172823188Y-90928741D01*
X173357715Y-90618993D01*
X173927643Y-90288508D01*
X174329866Y-90055142D01*
X177857137Y-88008215D01*
X177857137Y-87637864D01*
X177857137Y-87267512D01*
X176786583Y-87887013D01*
X176522209Y-88039842D01*
X176170842Y-88242716D01*
X175747176Y-88487165D01*
X175265903Y-88764717D01*
X174741717Y-89066901D01*
X174189310Y-89385244D01*
X173623375Y-89711276D01*
X173058605Y-90036525D01*
X172958984Y-90093883D01*
X172438193Y-90393979D01*
X171947769Y-90677057D01*
X171497180Y-90937621D01*
X171095892Y-91170174D01*
X170753370Y-91369219D01*
X170479082Y-91529258D01*
X170282493Y-91644795D01*
X170173070Y-91710333D01*
X170153577Y-91722981D01*
X169754406Y-91722981D01*
X169855712Y-91647839D01*
X170041674Y-91525138D01*
X170308849Y-91357859D01*
X170660311Y-91144150D01*
X171099129Y-90882161D01*
X171628376Y-90570041D01*
X172251123Y-90205939D01*
X172970443Y-89788004D01*
X173690631Y-89371412D01*
X174316788Y-89009030D01*
X174911666Y-88663190D01*
X175467692Y-88338392D01*
X175977293Y-88039131D01*
X176432896Y-87769905D01*
X176826929Y-87535210D01*
X177151816Y-87339545D01*
X177399986Y-87187407D01*
X177563866Y-87083292D01*
X177635881Y-87031698D01*
X177638397Y-87027095D01*
X177564258Y-86978178D01*
X177424920Y-86895814D01*
X177329192Y-86841686D01*
X177065220Y-86694789D01*
X172689952Y-89224678D01*
X168314683Y-91754568D01*
X167969988Y-91754568D01*
X167972841Y-91648472D01*
X172480500Y-89044901D01*
X173149511Y-88659032D01*
X173790411Y-88290433D01*
X174395810Y-87943294D01*
X174958317Y-87621805D01*
X175470542Y-87330154D01*
X175925094Y-87072532D01*
X176314582Y-86853128D01*
X176631615Y-86676132D01*
X176868803Y-86545733D01*
X177018755Y-86466120D01*
X177073418Y-86441331D01*
X177159634Y-86469296D01*
G37*
G36*
X183073126Y-89893541D02*
G01*
X183239529Y-89979873D01*
X183484275Y-90112500D01*
X183795853Y-90285031D01*
X184162753Y-90491073D01*
X184573468Y-90724236D01*
X185016486Y-90978126D01*
X185181677Y-91073378D01*
X187242818Y-92263792D01*
X187242818Y-92860844D01*
X187242818Y-93457896D01*
X185092125Y-94709239D01*
X184539662Y-95029506D01*
X184080155Y-95293089D01*
X183706138Y-95503964D01*
X183410144Y-95666104D01*
X183184705Y-95783485D01*
X183022355Y-95860080D01*
X182915627Y-95899863D01*
X182857054Y-95906810D01*
X182848361Y-95903471D01*
X182775717Y-95860454D01*
X182614994Y-95766246D01*
X182379530Y-95628631D01*
X182082664Y-95455397D01*
X181737734Y-95254330D01*
X181358078Y-95033219D01*
X181216697Y-94950925D01*
X179678104Y-94055493D01*
X177300645Y-95439867D01*
X176816740Y-95720393D01*
X176361553Y-95981873D01*
X175945538Y-96218472D01*
X175579145Y-96424356D01*
X175272828Y-96593694D01*
X175037038Y-96720650D01*
X174882227Y-96799393D01*
X174820124Y-96824241D01*
X174726107Y-96794963D01*
X174562165Y-96716678D01*
X174357133Y-96603705D01*
X174261465Y-96546780D01*
X173805866Y-96269320D01*
X173810183Y-96110630D01*
X174044204Y-96110630D01*
X174352172Y-96290160D01*
X174516534Y-96384880D01*
X174633855Y-96450427D01*
X174674804Y-96470983D01*
X174682380Y-96418252D01*
X174687021Y-96296575D01*
X174932965Y-96296575D01*
X174942413Y-96428504D01*
X174959921Y-96472277D01*
X175017628Y-96443669D01*
X175166274Y-96361790D01*
X175395503Y-96232559D01*
X175694960Y-96061897D01*
X176054288Y-95855722D01*
X176463131Y-95619953D01*
X176911133Y-95360511D01*
X177279810Y-95146268D01*
X179558292Y-93820258D01*
X179558292Y-93814108D01*
X179792934Y-93814108D01*
X181303442Y-94699704D01*
X181683556Y-94922398D01*
X182029567Y-95124799D01*
X182328920Y-95299589D01*
X182569058Y-95439447D01*
X182737427Y-95537055D01*
X182821472Y-95585092D01*
X182828615Y-95588834D01*
X182836116Y-95537254D01*
X182841403Y-95398953D01*
X182841832Y-95356981D01*
X183086595Y-95356981D01*
X183095542Y-95489396D01*
X183112543Y-95533709D01*
X183170558Y-95505140D01*
X183318521Y-95423728D01*
X183545144Y-95295921D01*
X183839137Y-95128164D01*
X184189211Y-94926904D01*
X184584078Y-94698587D01*
X185012447Y-94449659D01*
X185080469Y-94410022D01*
X187008176Y-93286335D01*
X187008176Y-92917960D01*
X187008176Y-92549585D01*
X185878961Y-93201956D01*
X185482358Y-93431020D01*
X185057012Y-93676581D01*
X184635367Y-93919913D01*
X184249871Y-94142293D01*
X183932967Y-94324995D01*
X183928499Y-94327570D01*
X183107252Y-94800814D01*
X183089788Y-95167261D01*
X183086595Y-95356981D01*
X182841832Y-95356981D01*
X182843280Y-95215491D01*
X182843280Y-94838613D01*
X182007368Y-94355582D01*
X181653008Y-94150720D01*
X181265163Y-93926345D01*
X180885277Y-93706442D01*
X180554792Y-93514993D01*
X180482195Y-93472908D01*
X179792934Y-93073266D01*
X179792934Y-93443687D01*
X179792934Y-93814108D01*
X179558292Y-93814108D01*
X179558292Y-93474443D01*
X179557158Y-93443687D01*
X179551521Y-93290828D01*
X179533948Y-93165781D01*
X179514296Y-93129541D01*
X179455925Y-93158204D01*
X179306541Y-93239852D01*
X179076589Y-93368555D01*
X178776515Y-93538386D01*
X178416763Y-93743416D01*
X178007778Y-93977718D01*
X177560004Y-94235361D01*
X177211871Y-94436374D01*
X174953442Y-95742295D01*
X174935977Y-96107286D01*
X174932965Y-96296575D01*
X174687021Y-96296575D01*
X174687677Y-96279372D01*
X174689469Y-96103345D01*
X174689469Y-95734412D01*
X174366837Y-95549102D01*
X174044204Y-95363791D01*
X174044204Y-95737211D01*
X174044204Y-96110630D01*
X173810183Y-96110630D01*
X173820341Y-95737211D01*
X173822379Y-95662287D01*
X173837022Y-95124010D01*
X174260302Y-95124010D01*
X174280999Y-95171938D01*
X174382860Y-95254497D01*
X174518582Y-95339006D01*
X174824737Y-95511972D01*
X177202572Y-94138234D01*
X177686071Y-93859192D01*
X178139595Y-93598005D01*
X178552812Y-93360583D01*
X178915389Y-93152837D01*
X179216996Y-92980677D01*
X179447299Y-92850014D01*
X179595967Y-92766760D01*
X179651841Y-92737085D01*
X179718502Y-92758684D01*
X179873419Y-92832882D01*
X180103737Y-92952777D01*
X180396600Y-93111463D01*
X180739153Y-93302037D01*
X181118541Y-93517596D01*
X181301604Y-93623077D01*
X181694304Y-93848918D01*
X182056403Y-94054446D01*
X182374941Y-94232519D01*
X182636956Y-94375990D01*
X182829486Y-94477718D01*
X182939570Y-94530557D01*
X182958782Y-94536481D01*
X183025920Y-94508062D01*
X183182746Y-94427130D01*
X183417542Y-94300170D01*
X183718590Y-94133666D01*
X184074171Y-93934106D01*
X184472568Y-93707974D01*
X184902061Y-93461754D01*
X184935465Y-93442506D01*
X185429255Y-93157118D01*
X185829438Y-92923770D01*
X186144607Y-92736888D01*
X186383355Y-92590896D01*
X186554275Y-92480220D01*
X186665960Y-92399285D01*
X186727002Y-92342515D01*
X186745995Y-92304336D01*
X186731530Y-92279172D01*
X186730091Y-92278162D01*
X186575450Y-92178942D01*
X186347144Y-92040778D01*
X186059047Y-91871394D01*
X185725034Y-91678517D01*
X185358978Y-91469872D01*
X184974752Y-91253184D01*
X184586231Y-91036179D01*
X184207287Y-90826582D01*
X183851795Y-90632120D01*
X183533628Y-90460517D01*
X183266661Y-90319499D01*
X183064766Y-90216792D01*
X182941817Y-90160122D01*
X182911082Y-90151549D01*
X182848879Y-90183429D01*
X182694257Y-90268797D01*
X182456353Y-90402401D01*
X182144305Y-90578987D01*
X181767251Y-90793303D01*
X181334328Y-91040098D01*
X180854675Y-91314119D01*
X180337429Y-91610113D01*
X179791727Y-91922829D01*
X179226707Y-92247013D01*
X178651508Y-92577414D01*
X178075266Y-92908779D01*
X177507120Y-93235855D01*
X176956207Y-93553391D01*
X176431665Y-93856135D01*
X175942631Y-94138832D01*
X175498244Y-94396233D01*
X175107641Y-94623083D01*
X174779960Y-94814131D01*
X174524338Y-94964124D01*
X174349913Y-95067810D01*
X174265824Y-95119937D01*
X174260302Y-95124010D01*
X173837022Y-95124010D01*
X173838892Y-95055253D01*
X178355751Y-92446039D01*
X179263798Y-91922527D01*
X180071720Y-91458922D01*
X180780080Y-91054912D01*
X181389437Y-90710184D01*
X181900355Y-90424424D01*
X182313394Y-90197321D01*
X182629116Y-90028560D01*
X182848082Y-89917829D01*
X182970855Y-89864816D01*
X182996573Y-89859895D01*
X183073126Y-89893541D01*
G37*
G36*
X178190026Y-64784511D02*
G01*
X178351523Y-64871118D01*
X178599578Y-65008088D01*
X178926720Y-65191184D01*
X179325478Y-65416167D01*
X179788382Y-65678800D01*
X180307961Y-65974844D01*
X180876743Y-66300063D01*
X181487257Y-66650218D01*
X182132034Y-67021072D01*
X182742073Y-67372858D01*
X187242818Y-69971436D01*
X187242818Y-72652655D01*
X187242818Y-75333874D01*
X182664962Y-77987693D01*
X178087106Y-80641513D01*
X177622891Y-80373754D01*
X177415475Y-80256012D01*
X177248287Y-80164658D01*
X177145810Y-80112900D01*
X177126614Y-80105996D01*
X177118311Y-80162193D01*
X177110732Y-80320935D01*
X177104173Y-80567446D01*
X177098929Y-80886949D01*
X177095296Y-81264670D01*
X177093568Y-81685831D01*
X177093484Y-81763155D01*
X177092417Y-83420314D01*
X172690158Y-85972047D01*
X172026851Y-86356351D01*
X171390038Y-86724966D01*
X170787386Y-87073472D01*
X170226565Y-87397451D01*
X169715242Y-87692482D01*
X169261085Y-87954148D01*
X168871764Y-88178029D01*
X168554946Y-88359706D01*
X168318300Y-88494761D01*
X168169494Y-88578774D01*
X168119411Y-88605991D01*
X168029272Y-88642909D01*
X167945743Y-88647528D01*
X167839596Y-88611694D01*
X167681600Y-88527257D01*
X167541003Y-88444675D01*
X167346942Y-88331688D01*
X167314887Y-88313922D01*
X168118223Y-88313922D01*
X168899200Y-87861575D01*
X169083343Y-87754880D01*
X169358380Y-87595464D01*
X169713718Y-87389471D01*
X170138764Y-87143042D01*
X170622924Y-86862320D01*
X171155607Y-86553445D01*
X171726219Y-86222561D01*
X172324167Y-85875810D01*
X172938858Y-85519333D01*
X173270043Y-85327262D01*
X176859908Y-83245295D01*
X176859908Y-80794231D01*
X176859908Y-78343168D01*
X176698592Y-78430452D01*
X176623817Y-78472773D01*
X176455366Y-78569316D01*
X176201103Y-78715542D01*
X175868898Y-78906912D01*
X175466616Y-79138887D01*
X175002125Y-79406928D01*
X174483292Y-79706496D01*
X173917984Y-80033051D01*
X173314069Y-80382055D01*
X172679413Y-80748968D01*
X172343049Y-80943486D01*
X168148823Y-83369234D01*
X168133523Y-85841578D01*
X168118223Y-88313922D01*
X167314887Y-88313922D01*
X167193345Y-88246558D01*
X167106371Y-88203644D01*
X167097343Y-88201146D01*
X167081954Y-88255264D01*
X167070244Y-88399479D01*
X167064094Y-88606578D01*
X167063603Y-88689606D01*
X167063603Y-89178067D01*
X162569780Y-91783948D01*
X161901441Y-92171007D01*
X161260715Y-92541105D01*
X160655048Y-92889998D01*
X160091885Y-93213441D01*
X159578671Y-93507190D01*
X159122851Y-93766999D01*
X158731872Y-93988625D01*
X158413178Y-94167823D01*
X158174215Y-94300348D01*
X158022427Y-94381956D01*
X157966345Y-94408389D01*
X157882403Y-94385764D01*
X157716377Y-94311570D01*
X157486526Y-94195030D01*
X157211109Y-94045366D01*
X156935415Y-93887660D01*
X156581779Y-93683900D01*
X156315526Y-93538564D01*
X156125537Y-93446343D01*
X156000697Y-93401928D01*
X155929888Y-93400008D01*
X155922106Y-93403715D01*
X155857866Y-93441265D01*
X155700034Y-93533040D01*
X155456530Y-93674446D01*
X155135275Y-93860889D01*
X154744188Y-94087775D01*
X154291188Y-94350510D01*
X153784197Y-94644500D01*
X153231133Y-94965152D01*
X152639917Y-95307871D01*
X152018469Y-95668065D01*
X151857654Y-95761265D01*
X147885192Y-98063472D01*
X146144028Y-97052786D01*
X145732048Y-96814731D01*
X145351024Y-96596642D01*
X145013105Y-96405312D01*
X144730442Y-96247537D01*
X144515185Y-96130110D01*
X144379485Y-96059826D01*
X144336597Y-96042100D01*
X144275507Y-96070797D01*
X144121816Y-96153564D01*
X143884297Y-96285418D01*
X143571722Y-96461374D01*
X143192865Y-96676449D01*
X142756498Y-96925659D01*
X142271395Y-97204018D01*
X141746328Y-97506545D01*
X141190071Y-97828253D01*
X141066838Y-97899683D01*
X140504631Y-98224923D01*
X139971352Y-98531953D01*
X139475817Y-98815792D01*
X139026845Y-99071461D01*
X138633252Y-99293978D01*
X138303854Y-99478364D01*
X138047469Y-99619639D01*
X137872913Y-99712822D01*
X137789004Y-99752934D01*
X137783683Y-99754147D01*
X137722225Y-99724834D01*
X137566768Y-99640636D01*
X137324670Y-99505759D01*
X137003287Y-99324405D01*
X136609975Y-99100779D01*
X136152090Y-98839085D01*
X135636990Y-98543526D01*
X135072031Y-98218308D01*
X134464569Y-97867633D01*
X133821962Y-97495706D01*
X133187160Y-97127408D01*
X128670301Y-94503788D01*
X128670301Y-91878631D01*
X128877845Y-91878631D01*
X128880078Y-94331169D01*
X133262718Y-96867631D01*
X133920437Y-97248198D01*
X134548572Y-97611474D01*
X135139776Y-97953219D01*
X135686702Y-98269195D01*
X136182003Y-98555163D01*
X136618334Y-98806885D01*
X136988346Y-99020122D01*
X137284694Y-99190634D01*
X137500031Y-99314184D01*
X137627010Y-99386532D01*
X137660024Y-99404698D01*
X137663152Y-99348192D01*
X137666052Y-99186499D01*
X137668652Y-98931749D01*
X137670879Y-98596077D01*
X137672660Y-98191614D01*
X137673923Y-97730494D01*
X137674596Y-97224849D01*
X137674688Y-96952795D01*
X137909331Y-96952795D01*
X137909331Y-99408106D01*
X138107627Y-99304048D01*
X138188157Y-99259046D01*
X138362220Y-99159751D01*
X138621874Y-99010747D01*
X138959175Y-98816619D01*
X139366180Y-98581952D01*
X139834944Y-98311330D01*
X140357525Y-98009337D01*
X140925980Y-97680559D01*
X141532364Y-97329580D01*
X142168734Y-96960984D01*
X142505918Y-96765580D01*
X144027819Y-95883452D01*
X144679815Y-95883452D01*
X144687415Y-95902485D01*
X144759213Y-95943812D01*
X144918633Y-96036267D01*
X145151955Y-96171872D01*
X145445461Y-96342647D01*
X145785428Y-96540611D01*
X146158139Y-96757785D01*
X146225669Y-96797149D01*
X146599731Y-97014386D01*
X146941075Y-97211059D01*
X147236535Y-97379707D01*
X147472944Y-97512867D01*
X147637135Y-97603078D01*
X147715940Y-97642879D01*
X147720301Y-97644134D01*
X147729690Y-97587795D01*
X147738376Y-97426283D01*
X147746141Y-97171740D01*
X147752771Y-96836314D01*
X147758048Y-96432150D01*
X147761757Y-95971392D01*
X147763680Y-95466186D01*
X147763885Y-95218705D01*
X147998938Y-95218705D01*
X147999347Y-95822927D01*
X148000814Y-96319765D01*
X148003698Y-96719152D01*
X148008360Y-97031022D01*
X148015160Y-97265310D01*
X148024458Y-97431949D01*
X148036613Y-97540874D01*
X148051987Y-97602018D01*
X148070938Y-97625316D01*
X148086134Y-97624579D01*
X148149058Y-97590677D01*
X148305864Y-97502204D01*
X148548988Y-97363520D01*
X148870865Y-97178983D01*
X149263931Y-96952950D01*
X149720619Y-96689780D01*
X150233365Y-96393831D01*
X150794604Y-96069462D01*
X151396771Y-95721029D01*
X152032301Y-95352892D01*
X152485673Y-95090040D01*
X155751012Y-93196202D01*
X156328730Y-93196202D01*
X156375898Y-93233698D01*
X156502771Y-93316632D01*
X156687406Y-93431860D01*
X156907858Y-93566242D01*
X157142183Y-93706634D01*
X157368437Y-93839896D01*
X157564675Y-93952886D01*
X157708953Y-94032461D01*
X157779327Y-94065480D01*
X157780578Y-94065680D01*
X157783705Y-94009372D01*
X157786604Y-93847865D01*
X157789203Y-93593280D01*
X157791429Y-93257739D01*
X157793211Y-92853362D01*
X157794475Y-92392271D01*
X157795149Y-91886588D01*
X157795240Y-91618120D01*
X158032110Y-91618120D01*
X158032485Y-92141315D01*
X158034473Y-92626285D01*
X158037902Y-93060875D01*
X158042602Y-93432931D01*
X158048401Y-93730299D01*
X158055128Y-93940823D01*
X158062611Y-94052351D01*
X158066643Y-94067197D01*
X158121769Y-94038446D01*
X158270941Y-93955030D01*
X158506755Y-93821208D01*
X158821804Y-93641235D01*
X159208684Y-93419369D01*
X159659989Y-93159867D01*
X160168314Y-92866985D01*
X160726254Y-92544981D01*
X161326402Y-92198112D01*
X161961353Y-91830634D01*
X162466181Y-91538133D01*
X166828961Y-89009070D01*
X166828961Y-86554740D01*
X166828961Y-84100411D01*
X165670416Y-84770448D01*
X165406900Y-84922705D01*
X165054805Y-85125915D01*
X164627245Y-85372521D01*
X164137330Y-85654967D01*
X163598174Y-85965696D01*
X163022887Y-86297151D01*
X162424581Y-86641775D01*
X161816370Y-86992011D01*
X161273103Y-87304765D01*
X158034335Y-89169044D01*
X158032110Y-91618120D01*
X157795240Y-91618120D01*
X157795243Y-91608805D01*
X157795243Y-89150413D01*
X157428615Y-88944467D01*
X157061987Y-88738521D01*
X157046566Y-90754038D01*
X157031144Y-92769555D01*
X156679937Y-92962632D01*
X156504112Y-93064769D01*
X156378132Y-93148399D01*
X156328753Y-93195729D01*
X156328730Y-93196202D01*
X155751012Y-93196202D01*
X156798014Y-92588960D01*
X156798014Y-90136319D01*
X156798014Y-87683678D01*
X152530463Y-90146482D01*
X151877935Y-90523160D01*
X151252717Y-90884274D01*
X150662543Y-91225346D01*
X150115145Y-91541897D01*
X149618258Y-91829450D01*
X149179613Y-92083526D01*
X148806946Y-92299645D01*
X148507988Y-92473330D01*
X148290473Y-92600102D01*
X148162136Y-92675483D01*
X148130924Y-92694328D01*
X147998938Y-92779370D01*
X147998938Y-95218705D01*
X147763885Y-95218705D01*
X147763904Y-95196411D01*
X147763516Y-92779370D01*
X147763511Y-92747335D01*
X147354585Y-92524633D01*
X146945658Y-92301932D01*
X146929688Y-93403353D01*
X146913719Y-94504774D01*
X145756758Y-95179113D01*
X145360474Y-95412746D01*
X145061170Y-95595578D01*
X144852314Y-95732027D01*
X144727373Y-95826512D01*
X144679815Y-95883452D01*
X144027819Y-95883452D01*
X146705913Y-94331169D01*
X146707160Y-91880691D01*
X146708407Y-89430214D01*
X146512659Y-89534271D01*
X146432494Y-89579206D01*
X146258717Y-89678309D01*
X145999269Y-89827008D01*
X145662092Y-90020729D01*
X145255130Y-90254897D01*
X144786324Y-90524938D01*
X144263617Y-90826279D01*
X143694952Y-91154346D01*
X143088269Y-91504565D01*
X142451513Y-91872362D01*
X142113121Y-92067906D01*
X137909331Y-94497484D01*
X137909331Y-96952795D01*
X137674688Y-96952795D01*
X137674689Y-96949033D01*
X137674689Y-94497484D01*
X137674689Y-94492762D01*
X133319146Y-91982162D01*
X132662325Y-91603590D01*
X132034560Y-91241824D01*
X131443300Y-90901153D01*
X130895994Y-90585864D01*
X130400090Y-90300249D01*
X129963036Y-90048595D01*
X129592281Y-89835191D01*
X129295273Y-89664327D01*
X129079462Y-89540291D01*
X128952294Y-89467372D01*
X128919608Y-89448827D01*
X128910277Y-89500500D01*
X128901725Y-89657496D01*
X128894158Y-89907820D01*
X128887784Y-90239475D01*
X128882807Y-90640466D01*
X128879435Y-91098797D01*
X128877873Y-91602471D01*
X128877845Y-91878631D01*
X128670301Y-91878631D01*
X128670301Y-91807086D01*
X128670301Y-89211346D01*
X129124355Y-89211346D01*
X129178365Y-89252747D01*
X129325331Y-89346415D01*
X129556193Y-89487163D01*
X129861894Y-89669801D01*
X130233375Y-89889141D01*
X130661577Y-90139994D01*
X131137442Y-90417172D01*
X131651912Y-90715486D01*
X132195927Y-91029748D01*
X132760429Y-91354768D01*
X133336359Y-91685359D01*
X133914660Y-92016332D01*
X134486271Y-92342499D01*
X135042136Y-92658669D01*
X135573195Y-92959656D01*
X136070389Y-93240271D01*
X136524661Y-93495324D01*
X136926951Y-93719628D01*
X137268201Y-93907994D01*
X137539353Y-94055233D01*
X137731347Y-94156156D01*
X137835125Y-94205576D01*
X137850670Y-94209615D01*
X137913825Y-94175972D01*
X138070971Y-94088003D01*
X138314504Y-93950059D01*
X138636824Y-93766494D01*
X139030328Y-93541659D01*
X139487413Y-93279906D01*
X140000477Y-92985587D01*
X140561919Y-92663054D01*
X141164135Y-92316660D01*
X141799524Y-91950755D01*
X142230350Y-91702419D01*
X143037891Y-91236118D01*
X143747627Y-90824841D01*
X144363933Y-90465958D01*
X144891181Y-90156838D01*
X145333744Y-89894850D01*
X145695994Y-89677365D01*
X145982306Y-89501751D01*
X146197052Y-89365377D01*
X146344604Y-89265614D01*
X146429337Y-89199830D01*
X146455622Y-89165395D01*
X146453907Y-89161678D01*
X146393770Y-89122949D01*
X146239494Y-89030141D01*
X145998645Y-88887663D01*
X145678789Y-88699921D01*
X145287491Y-88471322D01*
X144832315Y-88206275D01*
X144320827Y-87909186D01*
X143760593Y-87584463D01*
X143159178Y-87236513D01*
X142524146Y-86869745D01*
X142090653Y-86619720D01*
X141080060Y-86037162D01*
X141663940Y-86037162D01*
X141713202Y-86072441D01*
X141854810Y-86160439D01*
X142079300Y-86295579D01*
X142377206Y-86472284D01*
X142739062Y-86684977D01*
X143155405Y-86928079D01*
X143616767Y-87196013D01*
X144113685Y-87483202D01*
X144301952Y-87591666D01*
X146940301Y-89110384D01*
X146942566Y-90547566D01*
X146944831Y-91984749D01*
X147369229Y-92232992D01*
X147574568Y-92347704D01*
X147747705Y-92434621D01*
X147859223Y-92479290D01*
X147876633Y-92482299D01*
X147938902Y-92453745D01*
X148095120Y-92370601D01*
X148337744Y-92237139D01*
X148659235Y-92057628D01*
X149052052Y-91836339D01*
X149508656Y-91577543D01*
X150021506Y-91285510D01*
X150583061Y-90964511D01*
X151185781Y-90618815D01*
X151822127Y-90252694D01*
X152293225Y-89980949D01*
X152946196Y-89603124D01*
X153568248Y-89241690D01*
X154152105Y-88900963D01*
X154690494Y-88585257D01*
X155176139Y-88298888D01*
X155601764Y-88046171D01*
X155960096Y-87831421D01*
X156243860Y-87658954D01*
X156445779Y-87533083D01*
X156558580Y-87458125D01*
X156580427Y-87437994D01*
X156517849Y-87398213D01*
X156362899Y-87305703D01*
X156124713Y-87165714D01*
X155812430Y-86983498D01*
X155435186Y-86764307D01*
X155002119Y-86513391D01*
X154522364Y-86236002D01*
X154005059Y-85937391D01*
X153459342Y-85622810D01*
X152894348Y-85297509D01*
X152319216Y-84966741D01*
X151743082Y-84635757D01*
X151175083Y-84309807D01*
X150624356Y-83994144D01*
X150100038Y-83694019D01*
X149611266Y-83414682D01*
X149586807Y-83400731D01*
X150130709Y-83400731D01*
X150191905Y-83436050D01*
X150346156Y-83525129D01*
X150584930Y-83663041D01*
X150899695Y-83844858D01*
X151281920Y-84065650D01*
X151723073Y-84320489D01*
X152214623Y-84604448D01*
X152748037Y-84912597D01*
X153314784Y-85240009D01*
X153601017Y-85405369D01*
X157003326Y-87370930D01*
X157020049Y-87892490D01*
X157036771Y-88414050D01*
X157460003Y-88658004D01*
X157660509Y-88770478D01*
X157823098Y-88855945D01*
X157920569Y-88900305D01*
X157933542Y-88903515D01*
X157990806Y-88875077D01*
X158142138Y-88792124D01*
X158380071Y-88658914D01*
X158697136Y-88479707D01*
X159085864Y-88258762D01*
X159538789Y-88000338D01*
X160048440Y-87708694D01*
X160607351Y-87388090D01*
X161208053Y-87042785D01*
X161843077Y-86677038D01*
X162320564Y-86401580D01*
X163112044Y-85944179D01*
X163806750Y-85541555D01*
X164409923Y-85190544D01*
X164926805Y-84887979D01*
X165362636Y-84630696D01*
X165722657Y-84415529D01*
X166012108Y-84239313D01*
X166236230Y-84098881D01*
X166400263Y-83991070D01*
X166509450Y-83912712D01*
X166569030Y-83860644D01*
X166584243Y-83831699D01*
X166581804Y-83827775D01*
X166516798Y-83784910D01*
X166359966Y-83689730D01*
X166120401Y-83547466D01*
X165807196Y-83363350D01*
X165429444Y-83142613D01*
X164996239Y-82890487D01*
X164516675Y-82612204D01*
X163999843Y-82312994D01*
X163454839Y-81998090D01*
X162890754Y-81672722D01*
X162316683Y-81342124D01*
X161741718Y-81011526D01*
X161174954Y-80686159D01*
X160625482Y-80371256D01*
X160102397Y-80072048D01*
X159614792Y-79793766D01*
X159171760Y-79541643D01*
X158782394Y-79320909D01*
X158455788Y-79136796D01*
X158201035Y-78994536D01*
X158027229Y-78899360D01*
X157943462Y-78856500D01*
X157937583Y-78854572D01*
X157871121Y-78883055D01*
X157714796Y-78964868D01*
X157477982Y-79094552D01*
X157170051Y-79266648D01*
X156800375Y-79475699D01*
X156378329Y-79716246D01*
X155913285Y-79982832D01*
X155414615Y-80269998D01*
X154891694Y-80572286D01*
X154353893Y-80884238D01*
X153810586Y-81200396D01*
X153271145Y-81515301D01*
X152744945Y-81823496D01*
X152241356Y-82119523D01*
X151769753Y-82397923D01*
X151339509Y-82653239D01*
X150959995Y-82880011D01*
X150640586Y-83072783D01*
X150390654Y-83226095D01*
X150219572Y-83334490D01*
X150136714Y-83392510D01*
X150130709Y-83400731D01*
X149586807Y-83400731D01*
X149167177Y-83161386D01*
X148776909Y-82939382D01*
X148449598Y-82753920D01*
X148194380Y-82610253D01*
X148020394Y-82513632D01*
X147936776Y-82469307D01*
X147931347Y-82467078D01*
X147867692Y-82491549D01*
X147713803Y-82568730D01*
X147480384Y-82692523D01*
X147178139Y-82856830D01*
X146817772Y-83055554D01*
X146409986Y-83282599D01*
X145965486Y-83531866D01*
X145494975Y-83797259D01*
X145009157Y-84072681D01*
X144518737Y-84352034D01*
X144034416Y-84629221D01*
X143566901Y-84898145D01*
X143126894Y-85152709D01*
X142725099Y-85386816D01*
X142372220Y-85594368D01*
X142078962Y-85769268D01*
X141856026Y-85905419D01*
X141714119Y-85996724D01*
X141663943Y-86037085D01*
X141663940Y-86037162D01*
X141080060Y-86037162D01*
X137795531Y-84143790D01*
X133451535Y-86652342D01*
X132796994Y-87031010D01*
X132172767Y-87393478D01*
X131586183Y-87735413D01*
X131044574Y-88052477D01*
X130555271Y-88340337D01*
X130125606Y-88594655D01*
X129762909Y-88811096D01*
X129474512Y-88985326D01*
X129267745Y-89113008D01*
X129149941Y-89189807D01*
X129124355Y-89211346D01*
X128670301Y-89211346D01*
X128670301Y-89110384D01*
X133157830Y-86515727D01*
X133825666Y-86129842D01*
X134465543Y-85760602D01*
X135070031Y-85412266D01*
X135631699Y-85089095D01*
X136143117Y-84795348D01*
X136596854Y-84535284D01*
X136985481Y-84313162D01*
X137301566Y-84133241D01*
X137537679Y-83999782D01*
X137686390Y-83917042D01*
X137739352Y-83889466D01*
X137814578Y-83910120D01*
X137981664Y-83986809D01*
X138232013Y-84114962D01*
X138557033Y-84290008D01*
X138948127Y-84507375D01*
X139396701Y-84762493D01*
X139586350Y-84871801D01*
X141339354Y-85885741D01*
X144565563Y-84022427D01*
X145130591Y-83696949D01*
X145667127Y-83389541D01*
X146166315Y-83105168D01*
X146619301Y-82848797D01*
X147017232Y-82625392D01*
X147351251Y-82439919D01*
X147612506Y-82297345D01*
X147792140Y-82202634D01*
X147881300Y-82160753D01*
X147888193Y-82159113D01*
X147968327Y-82187545D01*
X148130906Y-82266415D01*
X148357600Y-82386093D01*
X148630080Y-82536943D01*
X148884043Y-82682507D01*
X149215322Y-82873304D01*
X149461757Y-83009460D01*
X149638441Y-83097793D01*
X149760463Y-83145121D01*
X149842917Y-83158263D01*
X149900893Y-83144035D01*
X149903099Y-83142896D01*
X149971895Y-83104147D01*
X150134256Y-83011346D01*
X150382155Y-82869117D01*
X150707562Y-82682083D01*
X151102448Y-82454864D01*
X151558783Y-82192084D01*
X152068539Y-81898365D01*
X152623686Y-81578329D01*
X153216194Y-81236598D01*
X153838036Y-80877796D01*
X153970549Y-80801316D01*
X157918372Y-78522741D01*
X158164775Y-78648374D01*
X158375657Y-78762202D01*
X158588507Y-78886353D01*
X158631155Y-78912793D01*
X158851132Y-79051578D01*
X158851132Y-78909609D01*
X159091992Y-78909609D01*
X159095919Y-79066740D01*
X159105536Y-79134315D01*
X159159278Y-79173558D01*
X159307007Y-79266578D01*
X159540938Y-79408785D01*
X159853284Y-79595589D01*
X160236261Y-79822400D01*
X160682084Y-80084628D01*
X161182966Y-80377682D01*
X161731123Y-80696974D01*
X162318770Y-81037913D01*
X162938121Y-81395908D01*
X163095923Y-81486914D01*
X167060509Y-83772277D01*
X167063624Y-85825395D01*
X167066738Y-87878513D01*
X167431799Y-88092506D01*
X167616800Y-88198381D01*
X167762078Y-88276773D01*
X167838433Y-88311979D01*
X167840855Y-88312483D01*
X167850245Y-88257155D01*
X167858950Y-88096613D01*
X167866752Y-87842963D01*
X167873433Y-87508313D01*
X167878776Y-87104768D01*
X167882563Y-86644435D01*
X167884577Y-86139421D01*
X167884851Y-85865988D01*
X167884851Y-83413508D01*
X163499978Y-80881390D01*
X159115105Y-78349271D01*
X159097420Y-78708175D01*
X159091992Y-78909609D01*
X158851132Y-78909609D01*
X158851132Y-78532071D01*
X158851132Y-78110602D01*
X159263498Y-78110602D01*
X159313299Y-78144787D01*
X159456021Y-78231930D01*
X159682677Y-78366860D01*
X159984281Y-78544406D01*
X160351846Y-78759398D01*
X160776387Y-79006663D01*
X161248916Y-79281030D01*
X161760446Y-79577330D01*
X162301991Y-79890389D01*
X162864565Y-80215038D01*
X163439181Y-80546105D01*
X164016852Y-80878418D01*
X164588593Y-81206808D01*
X165145415Y-81526102D01*
X165678333Y-81831129D01*
X166178360Y-82116719D01*
X166636509Y-82377700D01*
X167043795Y-82608900D01*
X167391230Y-82805150D01*
X167669827Y-82961278D01*
X167870601Y-83072112D01*
X167984565Y-83132481D01*
X168007714Y-83142288D01*
X168063205Y-83111304D01*
X168212819Y-83025928D01*
X168449093Y-82890457D01*
X168764562Y-82709189D01*
X169151764Y-82486419D01*
X169603235Y-82226447D01*
X170111511Y-81933568D01*
X170669130Y-81612080D01*
X171268628Y-81266280D01*
X171902541Y-80900466D01*
X172364230Y-80633940D01*
X173017078Y-80256629D01*
X173639964Y-79895902D01*
X174225500Y-79556081D01*
X174766299Y-79241487D01*
X175254974Y-78956441D01*
X175684137Y-78705264D01*
X176046403Y-78492278D01*
X176334382Y-78321803D01*
X176540689Y-78198160D01*
X176657936Y-78125671D01*
X176683066Y-78107637D01*
X176633586Y-78073986D01*
X176489786Y-77986110D01*
X176259026Y-77848315D01*
X175948663Y-77664907D01*
X175566056Y-77440191D01*
X175118565Y-77178473D01*
X174613547Y-76884059D01*
X174058360Y-76561255D01*
X173460365Y-76214365D01*
X172826918Y-75847697D01*
X172336695Y-75564441D01*
X171530699Y-75099660D01*
X170820726Y-74691556D01*
X170201681Y-74337315D01*
X169668468Y-74034120D01*
X169215992Y-73779157D01*
X168839159Y-73569608D01*
X168532873Y-73402660D01*
X168292039Y-73275496D01*
X168111563Y-73185300D01*
X167986349Y-73129258D01*
X167911302Y-73104552D01*
X167885444Y-73104601D01*
X167800602Y-73150352D01*
X167626528Y-73248242D01*
X167372222Y-73393047D01*
X167046682Y-73579542D01*
X166658910Y-73802502D01*
X166217903Y-74056701D01*
X165732662Y-74336913D01*
X165212186Y-74637915D01*
X164665474Y-74954481D01*
X164101527Y-75281384D01*
X163529343Y-75613401D01*
X162957923Y-75945306D01*
X162396265Y-76271874D01*
X161853369Y-76587879D01*
X161338235Y-76888097D01*
X160859862Y-77167301D01*
X160427249Y-77420268D01*
X160049397Y-77641771D01*
X159735304Y-77826586D01*
X159493971Y-77969487D01*
X159334396Y-78065249D01*
X159265579Y-78108647D01*
X159263498Y-78110602D01*
X158851132Y-78110602D01*
X158851132Y-78012564D01*
X163388954Y-75392998D01*
X164059549Y-75006222D01*
X164701423Y-74636672D01*
X165307274Y-74288516D01*
X165869797Y-73965921D01*
X166381688Y-73673052D01*
X166835645Y-73414079D01*
X167224364Y-73193166D01*
X167540540Y-73014480D01*
X167776870Y-72882189D01*
X167926052Y-72800460D01*
X167980584Y-72773432D01*
X168052607Y-72801396D01*
X168198466Y-72876013D01*
X168391519Y-72983368D01*
X168472901Y-73030549D01*
X168911409Y-73287666D01*
X168940740Y-71618658D01*
X168942713Y-71506394D01*
X169177508Y-71506394D01*
X169177678Y-71872583D01*
X169179974Y-73448028D01*
X173135761Y-75726129D01*
X177091548Y-78004231D01*
X177107714Y-78889316D01*
X177123881Y-79774401D01*
X177534504Y-80016076D01*
X177945128Y-80257751D01*
X177960446Y-77823536D01*
X177960697Y-77774241D01*
X178211325Y-77774241D01*
X178211703Y-78297436D01*
X178213702Y-78782405D01*
X178217148Y-79216995D01*
X178221870Y-79589051D01*
X178227696Y-79886419D01*
X178234453Y-80096944D01*
X178241970Y-80208471D01*
X178246020Y-80223317D01*
X178301167Y-80194561D01*
X178450355Y-80111130D01*
X178686179Y-79977284D01*
X179001233Y-79797279D01*
X179388112Y-79575373D01*
X179839411Y-79315824D01*
X180347724Y-79022890D01*
X180905647Y-78700828D01*
X181505774Y-78353895D01*
X182140700Y-77986351D01*
X182645558Y-77693766D01*
X187008176Y-75164214D01*
X187008176Y-72710373D01*
X187008176Y-70256531D01*
X185849631Y-70926568D01*
X185586114Y-71078825D01*
X185234020Y-71282035D01*
X184806460Y-71528642D01*
X184316545Y-71811087D01*
X183777389Y-72121816D01*
X183202102Y-72453271D01*
X182603796Y-72797895D01*
X181995584Y-73148131D01*
X181452318Y-73460885D01*
X178213549Y-75325164D01*
X178211325Y-77774241D01*
X177960697Y-77774241D01*
X177963648Y-77194914D01*
X177964482Y-76674668D01*
X177962740Y-76253871D01*
X177958212Y-75923600D01*
X177950689Y-75674927D01*
X177939962Y-75498928D01*
X177925822Y-75386677D01*
X177908059Y-75329249D01*
X177901785Y-75321184D01*
X177841531Y-75282799D01*
X177688684Y-75191265D01*
X177452389Y-75051862D01*
X177141788Y-74869872D01*
X176766023Y-74650578D01*
X176334239Y-74399260D01*
X175855578Y-74121200D01*
X175339182Y-73821681D01*
X174794196Y-73505983D01*
X174229761Y-73179389D01*
X173655021Y-72847179D01*
X173079119Y-72514636D01*
X172511197Y-72187041D01*
X171960399Y-71869676D01*
X171435868Y-71567822D01*
X170946746Y-71286762D01*
X170502177Y-71031776D01*
X170111304Y-70808147D01*
X169783269Y-70621156D01*
X169527216Y-70476084D01*
X169352287Y-70378214D01*
X169267625Y-70332827D01*
X169262842Y-70330701D01*
X169236489Y-70332789D01*
X169215980Y-70369828D01*
X169200641Y-70454022D01*
X169189799Y-70597573D01*
X169182778Y-70812683D01*
X169178906Y-71111556D01*
X169177508Y-71506394D01*
X168942713Y-71506394D01*
X168968029Y-70065803D01*
X169381224Y-70065803D01*
X169438593Y-70102256D01*
X169588063Y-70191517D01*
X169820645Y-70328400D01*
X170127350Y-70507722D01*
X170499189Y-70724297D01*
X170927173Y-70972942D01*
X171402313Y-71248471D01*
X171915618Y-71545700D01*
X172458101Y-71859445D01*
X173020771Y-72184520D01*
X173594640Y-72515742D01*
X174170718Y-72847925D01*
X174740016Y-73175885D01*
X175293545Y-73494438D01*
X175822316Y-73798399D01*
X176317339Y-74082583D01*
X176769625Y-74341806D01*
X177170186Y-74570884D01*
X177510031Y-74764631D01*
X177780172Y-74917863D01*
X177971619Y-75025395D01*
X178075383Y-75082044D01*
X178091779Y-75089656D01*
X178145854Y-75059452D01*
X178294131Y-74974874D01*
X178529199Y-74840188D01*
X178843642Y-74659657D01*
X179230049Y-74437547D01*
X179681005Y-74178120D01*
X180189097Y-73885643D01*
X180746912Y-73564378D01*
X181347037Y-73218591D01*
X181982058Y-72852546D01*
X182476133Y-72567647D01*
X183251984Y-72119868D01*
X183931770Y-71726706D01*
X184521318Y-71384625D01*
X185026457Y-71090088D01*
X185453015Y-70839557D01*
X185806819Y-70629496D01*
X186093698Y-70456368D01*
X186319480Y-70316634D01*
X186489993Y-70206760D01*
X186611064Y-70123207D01*
X186688522Y-70062438D01*
X186728194Y-70020917D01*
X186735909Y-69995107D01*
X186729020Y-69986577D01*
X186638613Y-69930388D01*
X186458851Y-69823369D01*
X186198816Y-69670732D01*
X185867590Y-69477683D01*
X185474258Y-69249432D01*
X185027900Y-68991186D01*
X184537600Y-68708156D01*
X184012442Y-68405548D01*
X183461506Y-68088572D01*
X182893877Y-67762436D01*
X182318637Y-67432350D01*
X181744868Y-67103520D01*
X181181654Y-66781157D01*
X180638077Y-66470467D01*
X180123220Y-66176661D01*
X179646166Y-65904947D01*
X179215996Y-65660532D01*
X178841795Y-65448627D01*
X178532645Y-65274438D01*
X178297628Y-65143175D01*
X178145828Y-65060047D01*
X178086326Y-65030261D01*
X178086112Y-65030245D01*
X178024074Y-65058716D01*
X177870745Y-65140684D01*
X177635063Y-65270976D01*
X177325966Y-65444425D01*
X176952389Y-65655859D01*
X176523272Y-65900108D01*
X176047552Y-66172002D01*
X175534165Y-66466372D01*
X174992051Y-66778046D01*
X174430145Y-67101855D01*
X173857386Y-67432629D01*
X173282712Y-67765198D01*
X172715059Y-68094391D01*
X172163365Y-68415039D01*
X171636567Y-68721970D01*
X171143604Y-69010016D01*
X170693413Y-69274006D01*
X170294931Y-69508770D01*
X169957095Y-69709137D01*
X169688844Y-69869938D01*
X169499114Y-69986003D01*
X169396844Y-70052161D01*
X169381224Y-70065803D01*
X168968029Y-70065803D01*
X168970070Y-69949651D01*
X173486929Y-67340189D01*
X174342242Y-66847084D01*
X175116678Y-66402720D01*
X175807941Y-66008378D01*
X176413737Y-65665340D01*
X176931769Y-65374886D01*
X177359743Y-65138298D01*
X177695363Y-64956857D01*
X177936333Y-64831846D01*
X178080359Y-64764544D01*
X178122558Y-64752504D01*
X178190026Y-64784511D01*
G37*
D12*
X160441189Y-74628405D02*
G75*
G02*
X157900681Y-74628405I-1270254J0D01*
G01*
X157900681Y-74628405D02*
G75*
G02*
X160441189Y-74628405I1270254J0D01*
G01*
X210447439Y-112087780D02*
G75*
G02*
X207906931Y-112087780I-1270254J0D01*
G01*
X207906931Y-112087780D02*
G75*
G02*
X210447439Y-112087780I1270254J0D01*
G01*
%LPC*%
D14*
X23895935Y-41840905D03*
X109164685Y-37719030D03*
X209177185Y-37719030D03*
X294445935Y-41840905D03*
X106783435Y-112087780D03*
X24695935Y-111287780D03*
X293645935Y-111287780D03*
X63920935Y-74628405D03*
X254420935Y-74628405D03*
X159170935Y-74628405D03*
X209177185Y-112087780D03*
%LPD*%
M02*
