G04 #@! TF.GenerationSoftware,KiCad,Pcbnew,8.0.5*
G04 #@! TF.CreationDate,2024-09-18T07:56:29+09:00*
G04 #@! TF.ProjectId,SandyLP_Plate_Bottom,53616e64-794c-4505-9f50-6c6174655f42,v.0*
G04 #@! TF.SameCoordinates,Original*
G04 #@! TF.FileFunction,Legend,Bot*
G04 #@! TF.FilePolarity,Positive*
%FSLAX46Y46*%
G04 Gerber Fmt 4.6, Leading zero omitted, Abs format (unit mm)*
G04 Created by KiCad (PCBNEW 8.0.5) date 2024-09-18 07:56:29*
%MOMM*%
%LPD*%
G01*
G04 APERTURE LIST*
%ADD10C,0.300000*%
%ADD11C,0.000000*%
%ADD12C,2.200000*%
G04 APERTURE END LIST*
D10*
X33681609Y-108315213D02*
X33824467Y-108243784D01*
X33824467Y-108243784D02*
X34038752Y-108243784D01*
X34038752Y-108243784D02*
X34253038Y-108315213D01*
X34253038Y-108315213D02*
X34395895Y-108458070D01*
X34395895Y-108458070D02*
X34467324Y-108600927D01*
X34467324Y-108600927D02*
X34538752Y-108886641D01*
X34538752Y-108886641D02*
X34538752Y-109100927D01*
X34538752Y-109100927D02*
X34467324Y-109386641D01*
X34467324Y-109386641D02*
X34395895Y-109529498D01*
X34395895Y-109529498D02*
X34253038Y-109672356D01*
X34253038Y-109672356D02*
X34038752Y-109743784D01*
X34038752Y-109743784D02*
X33895895Y-109743784D01*
X33895895Y-109743784D02*
X33681609Y-109672356D01*
X33681609Y-109672356D02*
X33610181Y-109600927D01*
X33610181Y-109600927D02*
X33610181Y-109100927D01*
X33610181Y-109100927D02*
X33895895Y-109100927D01*
X32753038Y-108243784D02*
X32753038Y-108600927D01*
X33110181Y-108458070D02*
X32753038Y-108600927D01*
X32753038Y-108600927D02*
X32395895Y-108458070D01*
X32967324Y-108886641D02*
X32753038Y-108600927D01*
X32753038Y-108600927D02*
X32538752Y-108886641D01*
X31610181Y-108243784D02*
X31610181Y-108600927D01*
X31967324Y-108458070D02*
X31610181Y-108600927D01*
X31610181Y-108600927D02*
X31253038Y-108458070D01*
X31824467Y-108886641D02*
X31610181Y-108600927D01*
X31610181Y-108600927D02*
X31395895Y-108886641D01*
X30467324Y-108243784D02*
X30467324Y-108600927D01*
X30824467Y-108458070D02*
X30467324Y-108600927D01*
X30467324Y-108600927D02*
X30110181Y-108458070D01*
X30681610Y-108886641D02*
X30467324Y-108600927D01*
X30467324Y-108600927D02*
X30253038Y-108886641D01*
D11*
G36*
X27788182Y-108049456D02*
G01*
X27788182Y-108218789D01*
X27618849Y-108218789D01*
X27449516Y-108218789D01*
X27449516Y-108049456D01*
X27449516Y-107880122D01*
X27618849Y-107880122D01*
X27788182Y-107880122D01*
X27788182Y-108049456D01*
G37*
G36*
X29142849Y-105340122D02*
G01*
X29142849Y-105848122D01*
X28634849Y-105848122D01*
X28126849Y-105848122D01*
X28126849Y-105340122D01*
X28126849Y-104832122D01*
X28634849Y-104832122D01*
X29142849Y-104832122D01*
X29142849Y-105340122D01*
G37*
G36*
X29142849Y-108049456D02*
G01*
X29142849Y-108218789D01*
X28973516Y-108218789D01*
X28804182Y-108218789D01*
X28804182Y-108049456D01*
X28804182Y-107880122D01*
X28973516Y-107880122D01*
X29142849Y-107880122D01*
X29142849Y-108049456D01*
G37*
G36*
X29820182Y-111774789D02*
G01*
X29820182Y-111944122D01*
X29650849Y-111944122D01*
X29481516Y-111944122D01*
X29481516Y-111774789D01*
X29481516Y-111605456D01*
X29650849Y-111605456D01*
X29820182Y-111605456D01*
X29820182Y-111774789D01*
G37*
G36*
X30497516Y-110420122D02*
G01*
X30497516Y-110589456D01*
X30328182Y-110589456D01*
X30158849Y-110589456D01*
X30158849Y-110420122D01*
X30158849Y-110250789D01*
X30328182Y-110250789D01*
X30497516Y-110250789D01*
X30497516Y-110420122D01*
G37*
G36*
X31852182Y-111436122D02*
G01*
X31852182Y-111605456D01*
X31682849Y-111605456D01*
X31513516Y-111605456D01*
X31513516Y-111436122D01*
X31513516Y-111266789D01*
X31682849Y-111266789D01*
X31852182Y-111266789D01*
X31852182Y-111436122D01*
G37*
G36*
X32529516Y-106356122D02*
G01*
X32529516Y-106525456D01*
X32360182Y-106525456D01*
X32190849Y-106525456D01*
X32190849Y-106356122D01*
X32190849Y-106186789D01*
X32360182Y-106186789D01*
X32529516Y-106186789D01*
X32529516Y-106356122D01*
G37*
G36*
X32868182Y-112790789D02*
G01*
X32868182Y-112960122D01*
X32698849Y-112960122D01*
X32529516Y-112960122D01*
X32529516Y-112790789D01*
X32529516Y-112621456D01*
X32698849Y-112621456D01*
X32868182Y-112621456D01*
X32868182Y-112790789D01*
G37*
G36*
X33206849Y-109742789D02*
G01*
X33206849Y-109912122D01*
X33037516Y-109912122D01*
X32868182Y-109912122D01*
X32868182Y-109742789D01*
X32868182Y-109573456D01*
X33037516Y-109573456D01*
X33206849Y-109573456D01*
X33206849Y-109742789D01*
G37*
G36*
X34561516Y-109065456D02*
G01*
X34561516Y-109234789D01*
X34222849Y-109234789D01*
X33884182Y-109234789D01*
X33884182Y-109065456D01*
X33884182Y-108896122D01*
X34222849Y-108896122D01*
X34561516Y-108896122D01*
X34561516Y-109065456D01*
G37*
G36*
X34561516Y-106356122D02*
G01*
X34561516Y-106525456D01*
X34392182Y-106525456D01*
X34222849Y-106525456D01*
X34222849Y-106356122D01*
X34222849Y-106186789D01*
X34392182Y-106186789D01*
X34561516Y-106186789D01*
X34561516Y-106356122D01*
G37*
G36*
X35238849Y-107033456D02*
G01*
X35238849Y-107202789D01*
X35069516Y-107202789D01*
X34900182Y-107202789D01*
X34900182Y-107033456D01*
X34900182Y-106864122D01*
X35069516Y-106864122D01*
X35238849Y-106864122D01*
X35238849Y-107033456D01*
G37*
G36*
X36593516Y-105340122D02*
G01*
X36593516Y-105848122D01*
X36085516Y-105848122D01*
X35577516Y-105848122D01*
X35577516Y-105340122D01*
X35577516Y-104832122D01*
X36085516Y-104832122D01*
X36593516Y-104832122D01*
X36593516Y-105340122D01*
G37*
G36*
X36593516Y-112790789D02*
G01*
X36593516Y-113298789D01*
X36085516Y-113298789D01*
X35577516Y-113298789D01*
X35577516Y-112790789D01*
X35577516Y-112282789D01*
X36085516Y-112282789D01*
X36593516Y-112282789D01*
X36593516Y-112790789D01*
G37*
G36*
X36593516Y-109742789D02*
G01*
X36593516Y-109912122D01*
X36254849Y-109912122D01*
X35916182Y-109912122D01*
X35916182Y-109742789D01*
X35916182Y-109573456D01*
X36254849Y-109573456D01*
X36593516Y-109573456D01*
X36593516Y-109742789D01*
G37*
G36*
X37270849Y-110420122D02*
G01*
X37270849Y-110589456D01*
X37101516Y-110589456D01*
X36932182Y-110589456D01*
X36932182Y-110420122D01*
X36932182Y-110250789D01*
X37101516Y-110250789D01*
X37270849Y-110250789D01*
X37270849Y-110420122D01*
G37*
G36*
X36593516Y-110758789D02*
G01*
X36593516Y-110928122D01*
X36762849Y-110928122D01*
X36932182Y-110928122D01*
X36932182Y-111097456D01*
X36932182Y-111266789D01*
X36593516Y-111266789D01*
X36254849Y-111266789D01*
X36254849Y-110928122D01*
X36254849Y-110589456D01*
X36424182Y-110589456D01*
X36593516Y-110589456D01*
X36593516Y-110758789D01*
G37*
G36*
X28126849Y-107541456D02*
G01*
X28465516Y-107541456D01*
X28465516Y-107710789D01*
X28465516Y-107880122D01*
X28126849Y-107880122D01*
X27788182Y-107880122D01*
X27788182Y-107710789D01*
X27788182Y-107541456D01*
X28126849Y-107541456D01*
G37*
G36*
X27788182Y-107202789D02*
G01*
X27788182Y-107541456D01*
X27618849Y-107541456D01*
X27449516Y-107541456D01*
X27449516Y-107202789D01*
X27449516Y-106864122D01*
X27618849Y-106864122D01*
X27788182Y-106864122D01*
X27788182Y-107202789D01*
G37*
G36*
X35069516Y-108896122D02*
G01*
X35238849Y-108896122D01*
X35238849Y-109065456D01*
X35238849Y-109234789D01*
X35069516Y-109234789D01*
X34900182Y-109234789D01*
X34900182Y-109065456D01*
X34900182Y-108896122D01*
X35069516Y-108896122D01*
G37*
G36*
X34900182Y-108726789D02*
G01*
X34900182Y-108896122D01*
X34730849Y-108896122D01*
X34561516Y-108896122D01*
X34561516Y-108726789D01*
X34561516Y-108557456D01*
X34730849Y-108557456D01*
X34900182Y-108557456D01*
X34900182Y-108726789D01*
G37*
G36*
X29820182Y-106525456D02*
G01*
X28634849Y-106525456D01*
X27449516Y-106525456D01*
X27449516Y-105340122D01*
X27449516Y-104493456D01*
X27788182Y-104493456D01*
X27788182Y-105340122D01*
X27788182Y-106186789D01*
X28634849Y-106186789D01*
X29481516Y-106186789D01*
X29481516Y-105340122D01*
X29481516Y-104493456D01*
X28634849Y-104493456D01*
X27788182Y-104493456D01*
X27449516Y-104493456D01*
X27449516Y-104154789D01*
X28634849Y-104154789D01*
X29820182Y-104154789D01*
X29820182Y-105340122D01*
X29820182Y-106525456D01*
G37*
G36*
X37270849Y-106525456D02*
G01*
X36085516Y-106525456D01*
X34900182Y-106525456D01*
X34900182Y-105340122D01*
X34900182Y-104493456D01*
X35238849Y-104493456D01*
X35238849Y-105340122D01*
X35238849Y-106186789D01*
X36085516Y-106186789D01*
X36932182Y-106186789D01*
X36932182Y-105340122D01*
X36932182Y-104493456D01*
X36085516Y-104493456D01*
X35238849Y-104493456D01*
X34900182Y-104493456D01*
X34900182Y-104154789D01*
X36085516Y-104154789D01*
X37270849Y-104154789D01*
X37270849Y-105340122D01*
X37270849Y-106525456D01*
G37*
G36*
X37270849Y-113976122D02*
G01*
X36085516Y-113976122D01*
X34900182Y-113976122D01*
X34900182Y-112790789D01*
X34900182Y-111944122D01*
X35238849Y-111944122D01*
X35238849Y-112790789D01*
X35238849Y-113637456D01*
X36085516Y-113637456D01*
X36932182Y-113637456D01*
X36932182Y-112790789D01*
X36932182Y-111944122D01*
X36085516Y-111944122D01*
X35238849Y-111944122D01*
X34900182Y-111944122D01*
X34900182Y-111605456D01*
X36085516Y-111605456D01*
X37270849Y-111605456D01*
X37270849Y-112790789D01*
X37270849Y-113976122D01*
G37*
G36*
X32698849Y-105848122D02*
G01*
X32868182Y-105848122D01*
X32868182Y-106017456D01*
X32868182Y-106186789D01*
X32698849Y-106186789D01*
X32529516Y-106186789D01*
X32529516Y-106017456D01*
X32529516Y-105848122D01*
X32698849Y-105848122D01*
G37*
G36*
X32529516Y-105509456D02*
G01*
X32529516Y-105848122D01*
X32360182Y-105848122D01*
X32190849Y-105848122D01*
X32190849Y-105678789D01*
X32190849Y-105509456D01*
X32021516Y-105509456D01*
X31852182Y-105509456D01*
X31852182Y-105340122D01*
X31852182Y-105170789D01*
X32190849Y-105170789D01*
X32529516Y-105170789D01*
X32529516Y-105509456D01*
G37*
G36*
X27788182Y-112960122D02*
G01*
X27788182Y-113298789D01*
X27957516Y-113298789D01*
X28126849Y-113298789D01*
X28126849Y-113129456D01*
X28126849Y-112960122D01*
X28296182Y-112960122D01*
X28465516Y-112960122D01*
X28465516Y-113129456D01*
X28465516Y-113298789D01*
X28296182Y-113298789D01*
X28126849Y-113298789D01*
X28126849Y-113637456D01*
X28126849Y-113976122D01*
X27957516Y-113976122D01*
X27788182Y-113976122D01*
X27788182Y-113637456D01*
X27788182Y-113298789D01*
X27618849Y-113298789D01*
X27449516Y-113298789D01*
X27449516Y-112960122D01*
X27449516Y-112621456D01*
X27618849Y-112621456D01*
X27788182Y-112621456D01*
X27788182Y-112960122D01*
G37*
G36*
X28634849Y-113298789D02*
G01*
X28804182Y-113298789D01*
X28804182Y-113468122D01*
X28804182Y-113637456D01*
X28634849Y-113637456D01*
X28465516Y-113637456D01*
X28465516Y-113468122D01*
X28465516Y-113298789D01*
X28634849Y-113298789D01*
G37*
G36*
X37270849Y-107372122D02*
G01*
X37270849Y-107880122D01*
X37101516Y-107880122D01*
X36932182Y-107880122D01*
X36932182Y-108218789D01*
X36932182Y-108557456D01*
X36762849Y-108557456D01*
X36593516Y-108557456D01*
X36593516Y-108726789D01*
X36593516Y-108896122D01*
X36762849Y-108896122D01*
X36932182Y-108896122D01*
X36932182Y-108726789D01*
X36932182Y-108557456D01*
X37101516Y-108557456D01*
X37270849Y-108557456D01*
X37270849Y-108726789D01*
X37270849Y-109234789D01*
X37270849Y-109912122D01*
X37101516Y-109912122D01*
X36932182Y-109912122D01*
X36932182Y-109742789D01*
X36932182Y-109573456D01*
X36762849Y-109573456D01*
X36593516Y-109573456D01*
X36593516Y-109234789D01*
X36593516Y-108896122D01*
X36424182Y-108896122D01*
X36254849Y-108896122D01*
X36254849Y-108388122D01*
X36254849Y-107880122D01*
X36424182Y-107880122D01*
X36593516Y-107880122D01*
X36593516Y-107710789D01*
X36593516Y-107541456D01*
X36424182Y-107541456D01*
X36254849Y-107541456D01*
X36254849Y-107372122D01*
X36254849Y-107202789D01*
X36085516Y-107202789D01*
X35916182Y-107202789D01*
X35916182Y-107033456D01*
X35916182Y-106864122D01*
X36593516Y-106864122D01*
X37270849Y-106864122D01*
X37270849Y-107372122D01*
G37*
G36*
X35577516Y-111266789D02*
G01*
X35238849Y-111266789D01*
X34900182Y-111266789D01*
X34900182Y-111097456D01*
X34900182Y-110928122D01*
X34730849Y-110928122D01*
X34561516Y-110928122D01*
X34561516Y-111097456D01*
X34561516Y-111266789D01*
X34561516Y-111605456D01*
X34053516Y-111605456D01*
X33545516Y-111605456D01*
X33545516Y-111266789D01*
X33545516Y-110928122D01*
X33884182Y-110928122D01*
X33884182Y-111097456D01*
X33884182Y-111266789D01*
X34053516Y-111266789D01*
X34222849Y-111266789D01*
X34222849Y-111097456D01*
X34222849Y-110928122D01*
X34053516Y-110928122D01*
X33884182Y-110928122D01*
X33545516Y-110928122D01*
X33376182Y-110928122D01*
X33206849Y-110928122D01*
X33206849Y-110758789D01*
X33206849Y-110589456D01*
X33545516Y-110589456D01*
X33884182Y-110589456D01*
X34900182Y-110589456D01*
X34900182Y-110758789D01*
X34900182Y-110928122D01*
X35069516Y-110928122D01*
X35238849Y-110928122D01*
X35238849Y-110758789D01*
X35238849Y-110589456D01*
X35069516Y-110589456D01*
X34900182Y-110589456D01*
X33884182Y-110589456D01*
X33884182Y-110420122D01*
X33884182Y-110250789D01*
X34053516Y-110250789D01*
X34222849Y-110250789D01*
X34222849Y-110081456D01*
X34222849Y-109912122D01*
X34053516Y-109912122D01*
X33884182Y-109912122D01*
X33884182Y-109742789D01*
X33884182Y-109573456D01*
X34053516Y-109573456D01*
X34222849Y-109573456D01*
X34222849Y-109742789D01*
X34222849Y-109912122D01*
X34392182Y-109912122D01*
X34561516Y-109912122D01*
X34561516Y-109742789D01*
X34561516Y-109573456D01*
X34900182Y-109573456D01*
X35238849Y-109573456D01*
X35238849Y-109742789D01*
X35238849Y-109912122D01*
X35069516Y-109912122D01*
X34900182Y-109912122D01*
X34900182Y-110081456D01*
X34900182Y-110250789D01*
X35238849Y-110250789D01*
X35577516Y-110250789D01*
X35577516Y-110081456D01*
X35577516Y-109912122D01*
X35746849Y-109912122D01*
X35916182Y-109912122D01*
X35916182Y-110081456D01*
X35916182Y-110250789D01*
X35746849Y-110250789D01*
X35577516Y-110250789D01*
X35577516Y-110758789D01*
X35577516Y-111266789D01*
G37*
G36*
X34392182Y-104832122D02*
G01*
X34561516Y-104832122D01*
X34561516Y-105340122D01*
X34561516Y-105848122D01*
X34392182Y-105848122D01*
X34222849Y-105848122D01*
X34222849Y-105678789D01*
X34222849Y-105509456D01*
X33884182Y-105509456D01*
X33545516Y-105509456D01*
X33545516Y-105678789D01*
X33545516Y-105848122D01*
X33714849Y-105848122D01*
X33884182Y-105848122D01*
X33884182Y-106694789D01*
X33884182Y-107372122D01*
X33884182Y-107541456D01*
X34053516Y-107541456D01*
X34222849Y-107541456D01*
X34222849Y-107202789D01*
X34222849Y-106864122D01*
X34392182Y-106864122D01*
X34561516Y-106864122D01*
X34561516Y-107202789D01*
X34561516Y-107541456D01*
X34900182Y-107541456D01*
X35238849Y-107541456D01*
X35238849Y-107710789D01*
X35238849Y-107880122D01*
X35408182Y-107880122D01*
X35577516Y-107880122D01*
X35577516Y-107541456D01*
X35577516Y-107202789D01*
X35746849Y-107202789D01*
X35916182Y-107202789D01*
X35916182Y-107541456D01*
X35916182Y-107880122D01*
X35746849Y-107880122D01*
X35577516Y-107880122D01*
X35577516Y-108049456D01*
X35577516Y-108218789D01*
X35577516Y-108557456D01*
X35238849Y-108557456D01*
X34900182Y-108557456D01*
X34900182Y-108388122D01*
X34900182Y-108218789D01*
X34561516Y-108218789D01*
X34222849Y-108218789D01*
X34222849Y-108388122D01*
X34222849Y-108557456D01*
X33884182Y-108557456D01*
X33545516Y-108557456D01*
X33545516Y-109065456D01*
X33545516Y-109573456D01*
X33376182Y-109573456D01*
X33206849Y-109573456D01*
X33206849Y-109234789D01*
X33206849Y-108896122D01*
X33037516Y-108896122D01*
X32868182Y-108896122D01*
X32868182Y-108557456D01*
X32868182Y-108218789D01*
X33037516Y-108218789D01*
X33206849Y-108218789D01*
X33206849Y-108388122D01*
X33206849Y-108557456D01*
X33376182Y-108557456D01*
X33545516Y-108557456D01*
X33545516Y-108218789D01*
X33545516Y-107880122D01*
X34900182Y-107880122D01*
X34900182Y-108049456D01*
X34900182Y-108218789D01*
X35069516Y-108218789D01*
X35238849Y-108218789D01*
X35238849Y-108049456D01*
X35238849Y-107880122D01*
X35069516Y-107880122D01*
X34900182Y-107880122D01*
X33545516Y-107880122D01*
X33037516Y-107880122D01*
X32529516Y-107880122D01*
X32529516Y-107710789D01*
X32529516Y-107541456D01*
X32190849Y-107541456D01*
X31852182Y-107541456D01*
X31852182Y-107372122D01*
X31852182Y-107202789D01*
X31682849Y-107202789D01*
X31513516Y-107202789D01*
X31513516Y-107372122D01*
X31513516Y-107541456D01*
X31344182Y-107541456D01*
X31174849Y-107541456D01*
X31174849Y-107710789D01*
X31174849Y-107880122D01*
X31005516Y-107880122D01*
X30836182Y-107880122D01*
X30836182Y-107710789D01*
X30836182Y-107541456D01*
X30666849Y-107541456D01*
X30497516Y-107541456D01*
X30497516Y-107710789D01*
X30497516Y-107880122D01*
X30328182Y-107880122D01*
X30158849Y-107880122D01*
X30158849Y-108049456D01*
X30158849Y-108218789D01*
X29820182Y-108218789D01*
X29481516Y-108218789D01*
X29481516Y-108049456D01*
X29481516Y-107880122D01*
X29312182Y-107880122D01*
X29142849Y-107880122D01*
X29142849Y-107710789D01*
X29142849Y-107541456D01*
X29481516Y-107541456D01*
X29481516Y-107710789D01*
X29481516Y-107880122D01*
X29650849Y-107880122D01*
X29820182Y-107880122D01*
X29820182Y-107710789D01*
X29820182Y-107541456D01*
X29650849Y-107541456D01*
X29481516Y-107541456D01*
X29142849Y-107541456D01*
X28973516Y-107541456D01*
X28804182Y-107541456D01*
X28804182Y-107372122D01*
X28804182Y-107202789D01*
X28465516Y-107202789D01*
X28126849Y-107202789D01*
X28126849Y-107033456D01*
X28126849Y-106864122D01*
X28634849Y-106864122D01*
X29142849Y-106864122D01*
X29142849Y-107033456D01*
X29142849Y-107202789D01*
X29481516Y-107202789D01*
X29820182Y-107202789D01*
X29820182Y-107372122D01*
X29820182Y-107541456D01*
X29989516Y-107541456D01*
X30158849Y-107541456D01*
X30158849Y-107372122D01*
X30158849Y-107202789D01*
X29989516Y-107202789D01*
X29820182Y-107202789D01*
X29820182Y-107033456D01*
X29820182Y-106864122D01*
X29989516Y-106864122D01*
X30158849Y-106864122D01*
X30158849Y-106525456D01*
X30158849Y-106186789D01*
X30328182Y-106186789D01*
X30497516Y-106186789D01*
X30497516Y-106525456D01*
X30497516Y-106864122D01*
X30666849Y-106864122D01*
X30836182Y-106864122D01*
X30836182Y-106525456D01*
X30836182Y-106186789D01*
X30666849Y-106186789D01*
X30497516Y-106186789D01*
X30497516Y-105848122D01*
X30497516Y-105509456D01*
X30666849Y-105509456D01*
X30836182Y-105509456D01*
X30836182Y-105678789D01*
X30836182Y-105848122D01*
X31005516Y-105848122D01*
X31174849Y-105848122D01*
X31174849Y-106186789D01*
X31174849Y-106525456D01*
X31344182Y-106525456D01*
X31513516Y-106525456D01*
X31513516Y-106186789D01*
X31513516Y-105848122D01*
X31344182Y-105848122D01*
X31174849Y-105848122D01*
X31174849Y-105509456D01*
X31174849Y-105170789D01*
X31005516Y-105170789D01*
X30836182Y-105170789D01*
X30836182Y-105001456D01*
X30836182Y-104832122D01*
X31005516Y-104832122D01*
X31174849Y-104832122D01*
X31174849Y-105001456D01*
X31174849Y-105170789D01*
X31344182Y-105170789D01*
X31513516Y-105170789D01*
X31513516Y-105340122D01*
X31513516Y-105509456D01*
X31682849Y-105509456D01*
X31852182Y-105509456D01*
X31852182Y-105678789D01*
X31852182Y-105848122D01*
X32021516Y-105848122D01*
X32190849Y-105848122D01*
X32190849Y-106017456D01*
X32190849Y-106186789D01*
X32021516Y-106186789D01*
X31852182Y-106186789D01*
X31852182Y-106356122D01*
X31852182Y-106525456D01*
X32021516Y-106525456D01*
X32190849Y-106525456D01*
X32190849Y-106864122D01*
X32190849Y-107202789D01*
X32360182Y-107202789D01*
X32529516Y-107202789D01*
X33206849Y-107202789D01*
X33206849Y-107372122D01*
X33206849Y-107541456D01*
X33376182Y-107541456D01*
X33545516Y-107541456D01*
X33545516Y-107372122D01*
X33545516Y-107202789D01*
X33376182Y-107202789D01*
X33206849Y-107202789D01*
X32529516Y-107202789D01*
X32529516Y-107033456D01*
X32529516Y-106864122D01*
X32698849Y-106864122D01*
X32868182Y-106864122D01*
X32868182Y-106525456D01*
X32868182Y-106186789D01*
X33037516Y-106186789D01*
X33206849Y-106186789D01*
X33206849Y-106525456D01*
X33206849Y-106864122D01*
X33376182Y-106864122D01*
X33545516Y-106864122D01*
X33545516Y-106525456D01*
X33545516Y-106186789D01*
X33376182Y-106186789D01*
X33206849Y-106186789D01*
X33206849Y-106017456D01*
X33206849Y-105848122D01*
X33037516Y-105848122D01*
X32868182Y-105848122D01*
X32868182Y-105509456D01*
X32868182Y-105170789D01*
X33037516Y-105170789D01*
X33206849Y-105170789D01*
X33206849Y-105340122D01*
X33206849Y-105509456D01*
X33376182Y-105509456D01*
X33545516Y-105509456D01*
X33545516Y-105170789D01*
X33545516Y-104832122D01*
X33037516Y-104832122D01*
X32529516Y-104832122D01*
X32529516Y-104662789D01*
X32529516Y-104493456D01*
X32190849Y-104493456D01*
X31852182Y-104493456D01*
X31852182Y-104832122D01*
X31852182Y-105170789D01*
X31682849Y-105170789D01*
X31513516Y-105170789D01*
X31513516Y-104832122D01*
X31513516Y-104493456D01*
X30836182Y-104493456D01*
X30158849Y-104493456D01*
X30158849Y-104324122D01*
X30158849Y-104154789D01*
X30836182Y-104154789D01*
X31513516Y-104154789D01*
X31513516Y-104324122D01*
X31513516Y-104493456D01*
X31682849Y-104493456D01*
X31852182Y-104493456D01*
X31852182Y-104324122D01*
X31852182Y-104154789D01*
X32529516Y-104154789D01*
X33206849Y-104154789D01*
X33206849Y-104324122D01*
X33206849Y-104493456D01*
X33376182Y-104493456D01*
X33545516Y-104493456D01*
X33545516Y-104324122D01*
X33545516Y-104154789D01*
X33714849Y-104154789D01*
X33884182Y-104154789D01*
X33884182Y-104324122D01*
X33884182Y-104493456D01*
X34053516Y-104493456D01*
X34222849Y-104493456D01*
X34222849Y-104324122D01*
X34222849Y-104154789D01*
X34392182Y-104154789D01*
X34561516Y-104154789D01*
X34561516Y-104324122D01*
X34561516Y-104493456D01*
X34392182Y-104493456D01*
X34222849Y-104493456D01*
X34222849Y-104662789D01*
X34222849Y-104832122D01*
X34392182Y-104832122D01*
G37*
G36*
X35746849Y-108557456D02*
G01*
X35916182Y-108557456D01*
X35916182Y-108896122D01*
X35916182Y-109234789D01*
X35746849Y-109234789D01*
X35577516Y-109234789D01*
X35577516Y-108896122D01*
X35577516Y-108557456D01*
X35746849Y-108557456D01*
G37*
G36*
X30497516Y-105340122D02*
G01*
X30497516Y-105509456D01*
X30328182Y-105509456D01*
X30158849Y-105509456D01*
X30158849Y-105340122D01*
X30158849Y-105170789D01*
X30328182Y-105170789D01*
X30497516Y-105170789D01*
X30497516Y-105340122D01*
G37*
G36*
X29820182Y-110928122D02*
G01*
X30158849Y-110928122D01*
X30497516Y-110928122D01*
X30497516Y-111266789D01*
X30497516Y-111605456D01*
X30666849Y-111605456D01*
X30836182Y-111605456D01*
X30836182Y-111774789D01*
X30836182Y-111944122D01*
X30666849Y-111944122D01*
X30497516Y-111944122D01*
X30497516Y-112282789D01*
X30497516Y-112621456D01*
X30328182Y-112621456D01*
X30158849Y-112621456D01*
X30158849Y-112790789D01*
X30158849Y-112960122D01*
X29989516Y-112960122D01*
X29820182Y-112960122D01*
X29820182Y-112790789D01*
X29820182Y-112621456D01*
X29650849Y-112621456D01*
X29481516Y-112621456D01*
X29481516Y-113129456D01*
X29481516Y-113637456D01*
X29650849Y-113637456D01*
X29820182Y-113637456D01*
X29820182Y-113468122D01*
X29820182Y-113298789D01*
X29989516Y-113298789D01*
X30158849Y-113298789D01*
X30158849Y-113129456D01*
X30158849Y-112960122D01*
X30328182Y-112960122D01*
X30497516Y-112960122D01*
X30497516Y-113298789D01*
X30497516Y-113637456D01*
X30836182Y-113637456D01*
X31174849Y-113637456D01*
X31174849Y-113806789D01*
X31174849Y-113976122D01*
X30328182Y-113976122D01*
X29481516Y-113976122D01*
X29481516Y-113806789D01*
X29481516Y-113637456D01*
X29312182Y-113637456D01*
X29142849Y-113637456D01*
X29142849Y-113298789D01*
X29142849Y-112960122D01*
X28804182Y-112960122D01*
X28465516Y-112960122D01*
X28465516Y-112790789D01*
X28465516Y-112621456D01*
X28126849Y-112621456D01*
X27788182Y-112621456D01*
X27788182Y-112452122D01*
X27788182Y-112282789D01*
X28126849Y-112282789D01*
X28465516Y-112282789D01*
X28465516Y-112452122D01*
X28465516Y-112621456D01*
X28634849Y-112621456D01*
X28804182Y-112621456D01*
X28804182Y-112452122D01*
X28804182Y-112282789D01*
X28634849Y-112282789D01*
X28465516Y-112282789D01*
X28465516Y-111944122D01*
X28465516Y-111605456D01*
X28296182Y-111605456D01*
X28126849Y-111605456D01*
X28126849Y-111774789D01*
X28126849Y-111944122D01*
X27957516Y-111944122D01*
X27788182Y-111944122D01*
X27788182Y-111774789D01*
X27788182Y-111605456D01*
X27618849Y-111605456D01*
X27449516Y-111605456D01*
X27449516Y-111436122D01*
X27449516Y-111266789D01*
X27788182Y-111266789D01*
X28126849Y-111266789D01*
X29142849Y-111266789D01*
X29142849Y-111774789D01*
X29142849Y-112282789D01*
X29650849Y-112282789D01*
X30158849Y-112282789D01*
X30158849Y-111774789D01*
X30158849Y-111266789D01*
X29650849Y-111266789D01*
X29142849Y-111266789D01*
X28126849Y-111266789D01*
X28126849Y-110758789D01*
X28126849Y-110250789D01*
X28465516Y-110250789D01*
X28465516Y-110589456D01*
X28465516Y-110928122D01*
X28634849Y-110928122D01*
X28804182Y-110928122D01*
X28804182Y-110589456D01*
X28804182Y-110250789D01*
X28634849Y-110250789D01*
X28465516Y-110250789D01*
X28126849Y-110250789D01*
X27957516Y-110250789D01*
X27788182Y-110250789D01*
X27788182Y-109742789D01*
X27788182Y-109234789D01*
X27618849Y-109234789D01*
X27449516Y-109234789D01*
X27449516Y-108896122D01*
X27449516Y-108557456D01*
X27788182Y-108557456D01*
X28126849Y-108557456D01*
X28126849Y-108388122D01*
X28126849Y-108218789D01*
X28465516Y-108218789D01*
X28804182Y-108218789D01*
X28804182Y-108388122D01*
X28804182Y-108557456D01*
X28634849Y-108557456D01*
X28465516Y-108557456D01*
X28465516Y-108896122D01*
X28465516Y-109234789D01*
X28296182Y-109234789D01*
X28126849Y-109234789D01*
X28126849Y-109573456D01*
X28126849Y-109912122D01*
X28296182Y-109912122D01*
X28465516Y-109912122D01*
X28465516Y-109742789D01*
X28465516Y-109573456D01*
X28634849Y-109573456D01*
X28804182Y-109573456D01*
X28804182Y-109404122D01*
X28804182Y-109234789D01*
X29142849Y-109234789D01*
X29481516Y-109234789D01*
X29481516Y-108896122D01*
X29481516Y-108557456D01*
X29650849Y-108557456D01*
X29820182Y-108557456D01*
X29820182Y-108896122D01*
X29820182Y-109234789D01*
X29989516Y-109234789D01*
X30158849Y-109234789D01*
X30158849Y-109065456D01*
X30158849Y-108896122D01*
X30328182Y-108896122D01*
X30497516Y-108896122D01*
X30497516Y-108557456D01*
X30497516Y-108218789D01*
X30666849Y-108218789D01*
X30836182Y-108218789D01*
X30836182Y-108557456D01*
X30836182Y-108896122D01*
X31174849Y-108896122D01*
X31513516Y-108896122D01*
X31513516Y-108726789D01*
X31513516Y-108557456D01*
X31344182Y-108557456D01*
X31174849Y-108557456D01*
X31174849Y-108388122D01*
X31174849Y-108218789D01*
X31344182Y-108218789D01*
X31513516Y-108218789D01*
X31513516Y-108049456D01*
X31513516Y-107880122D01*
X31682849Y-107880122D01*
X31852182Y-107880122D01*
X31852182Y-108049456D01*
X31852182Y-108218789D01*
X32190849Y-108218789D01*
X32529516Y-108218789D01*
X32529516Y-108557456D01*
X32529516Y-108896122D01*
X32360182Y-108896122D01*
X32190849Y-108896122D01*
X32190849Y-108726789D01*
X32190849Y-108557456D01*
X32021516Y-108557456D01*
X31852182Y-108557456D01*
X31852182Y-108896122D01*
X31852182Y-109234789D01*
X32190849Y-109234789D01*
X32529516Y-109234789D01*
X32529516Y-109065456D01*
X32529516Y-108896122D01*
X32698849Y-108896122D01*
X32868182Y-108896122D01*
X32868182Y-109065456D01*
X32868182Y-109234789D01*
X32698849Y-109234789D01*
X32529516Y-109234789D01*
X32529516Y-109742789D01*
X32529516Y-110250789D01*
X32698849Y-110250789D01*
X32868182Y-110250789D01*
X32868182Y-110758789D01*
X32868182Y-111266789D01*
X32360182Y-111266789D01*
X31852182Y-111266789D01*
X31852182Y-111097456D01*
X31852182Y-110928122D01*
X32021516Y-110928122D01*
X32190849Y-110928122D01*
X32190849Y-110758789D01*
X32190849Y-110589456D01*
X31852182Y-110589456D01*
X31513516Y-110589456D01*
X31513516Y-110758789D01*
X31513516Y-110928122D01*
X31344182Y-110928122D01*
X31174849Y-110928122D01*
X31174849Y-111097456D01*
X31174849Y-111266789D01*
X31005516Y-111266789D01*
X30836182Y-111266789D01*
X30836182Y-110928122D01*
X30836182Y-110589456D01*
X31005516Y-110589456D01*
X31174849Y-110589456D01*
X31174849Y-110250789D01*
X31174849Y-109912122D01*
X31344182Y-109912122D01*
X31513516Y-109912122D01*
X31513516Y-110081456D01*
X31513516Y-110250789D01*
X31852182Y-110250789D01*
X32190849Y-110250789D01*
X32190849Y-110081456D01*
X32190849Y-109912122D01*
X32021516Y-109912122D01*
X31852182Y-109912122D01*
X31852182Y-109742789D01*
X31852182Y-109573456D01*
X31682849Y-109573456D01*
X31513516Y-109573456D01*
X31513516Y-109404122D01*
X31513516Y-109234789D01*
X31344182Y-109234789D01*
X31174849Y-109234789D01*
X31174849Y-109404122D01*
X31174849Y-109573456D01*
X31005516Y-109573456D01*
X30836182Y-109573456D01*
X30836182Y-109742789D01*
X30836182Y-109912122D01*
X30497516Y-109912122D01*
X30158849Y-109912122D01*
X30158849Y-109742789D01*
X30158849Y-109573456D01*
X29650849Y-109573456D01*
X29142849Y-109573456D01*
X29142849Y-109742789D01*
X29142849Y-109912122D01*
X28973516Y-109912122D01*
X28804182Y-109912122D01*
X28804182Y-110081456D01*
X28804182Y-110250789D01*
X28973516Y-110250789D01*
X29142849Y-110250789D01*
X29142849Y-110081456D01*
X29142849Y-109912122D01*
X29312182Y-109912122D01*
X29481516Y-109912122D01*
X29481516Y-110081456D01*
X29481516Y-110250789D01*
X29650849Y-110250789D01*
X29820182Y-110250789D01*
X29820182Y-110589456D01*
X29820182Y-110928122D01*
G37*
G36*
X32021516Y-113637456D02*
G01*
X32190849Y-113637456D01*
X32190849Y-113806789D01*
X32190849Y-113976122D01*
X32021516Y-113976122D01*
X31852182Y-113976122D01*
X31852182Y-113806789D01*
X31852182Y-113637456D01*
X32021516Y-113637456D01*
G37*
G36*
X34222849Y-112621456D02*
G01*
X34561516Y-112621456D01*
X34561516Y-113298789D01*
X34561516Y-113976122D01*
X33884182Y-113976122D01*
X33206849Y-113976122D01*
X33206849Y-113806789D01*
X33206849Y-113637456D01*
X32868182Y-113637456D01*
X32529516Y-113637456D01*
X32529516Y-113468122D01*
X32529516Y-113298789D01*
X32360182Y-113298789D01*
X32190849Y-113298789D01*
X32190849Y-113129456D01*
X32190849Y-112960122D01*
X32360182Y-112960122D01*
X32529516Y-112960122D01*
X32529516Y-113129456D01*
X32529516Y-113298789D01*
X32698849Y-113298789D01*
X32868182Y-113298789D01*
X32868182Y-113129456D01*
X32868182Y-112960122D01*
X33037516Y-112960122D01*
X33206849Y-112960122D01*
X33206849Y-113298789D01*
X33206849Y-113637456D01*
X33714849Y-113637456D01*
X34222849Y-113637456D01*
X34222849Y-113468122D01*
X34222849Y-113298789D01*
X34053516Y-113298789D01*
X33884182Y-113298789D01*
X33884182Y-112960122D01*
X33884182Y-112621456D01*
X34222849Y-112621456D01*
G37*
G36*
X31344182Y-112282789D02*
G01*
X31513516Y-112282789D01*
X31513516Y-112452122D01*
X31513516Y-112621456D01*
X31682849Y-112621456D01*
X31852182Y-112621456D01*
X31852182Y-112452122D01*
X31852182Y-112282789D01*
X32021516Y-112282789D01*
X32190849Y-112282789D01*
X32190849Y-112621456D01*
X32190849Y-112960122D01*
X32021516Y-112960122D01*
X31852182Y-112960122D01*
X31852182Y-113298789D01*
X31852182Y-113637456D01*
X31682849Y-113637456D01*
X31513516Y-113637456D01*
X31513516Y-113298789D01*
X31513516Y-112960122D01*
X31344182Y-112960122D01*
X31174849Y-112960122D01*
X31174849Y-112621456D01*
X31174849Y-112282789D01*
X31344182Y-112282789D01*
G37*
G36*
X30666849Y-112621456D02*
G01*
X30836182Y-112621456D01*
X30836182Y-112790789D01*
X30836182Y-112960122D01*
X30666849Y-112960122D01*
X30497516Y-112960122D01*
X30497516Y-112790789D01*
X30497516Y-112621456D01*
X30666849Y-112621456D01*
G37*
G36*
X32529516Y-111774789D02*
G01*
X32529516Y-111944122D01*
X33206849Y-111944122D01*
X33884182Y-111944122D01*
X33884182Y-112282789D01*
X33884182Y-112621456D01*
X33714849Y-112621456D01*
X33545516Y-112621456D01*
X33545516Y-112790789D01*
X33545516Y-112960122D01*
X33376182Y-112960122D01*
X33206849Y-112960122D01*
X33206849Y-112621456D01*
X33206849Y-112282789D01*
X32698849Y-112282789D01*
X32190849Y-112282789D01*
X32190849Y-111944122D01*
X32190849Y-111605456D01*
X32360182Y-111605456D01*
X32529516Y-111605456D01*
X32529516Y-111774789D01*
G37*
G36*
X31005516Y-111944122D02*
G01*
X31174849Y-111944122D01*
X31174849Y-112113456D01*
X31174849Y-112282789D01*
X31005516Y-112282789D01*
X30836182Y-112282789D01*
X30836182Y-112113456D01*
X30836182Y-111944122D01*
X31005516Y-111944122D01*
G37*
G36*
X115407806Y-35521408D02*
G01*
X115899376Y-35738883D01*
X115998913Y-35807081D01*
X116158124Y-35932928D01*
X116267234Y-36068446D01*
X116322172Y-36236904D01*
X116318864Y-36461567D01*
X116253238Y-36765705D01*
X116121219Y-37172583D01*
X115918736Y-37705470D01*
X115641715Y-38387633D01*
X115286083Y-39242339D01*
X115246969Y-39336093D01*
X114955892Y-40041351D01*
X114698374Y-40678339D01*
X114484311Y-41221581D01*
X114323598Y-41645596D01*
X114226131Y-41924907D01*
X114201806Y-42034036D01*
X114257151Y-42035637D01*
X114501100Y-42014398D01*
X114919150Y-41967437D01*
X115489658Y-41897499D01*
X116190980Y-41807328D01*
X117001470Y-41699669D01*
X117899485Y-41577267D01*
X118863380Y-41442868D01*
X119447098Y-41361216D01*
X120407494Y-41229601D01*
X121305637Y-41109829D01*
X122116842Y-41005003D01*
X122816426Y-40918227D01*
X123379704Y-40852605D01*
X123781993Y-40811240D01*
X123998607Y-40797235D01*
X124028672Y-40797657D01*
X124496504Y-40856958D01*
X124945997Y-40997493D01*
X125312419Y-41193062D01*
X125531037Y-41417465D01*
X125607327Y-41606561D01*
X125621749Y-42023814D01*
X125437236Y-42414013D01*
X125394472Y-42466439D01*
X125277891Y-42587082D01*
X125134181Y-42695714D01*
X124946654Y-42795986D01*
X124698626Y-42891550D01*
X124373410Y-42986058D01*
X123954319Y-43083161D01*
X123424667Y-43186512D01*
X122767767Y-43299763D01*
X121966934Y-43426564D01*
X121005482Y-43570568D01*
X119866722Y-43735427D01*
X118533971Y-43924792D01*
X118037348Y-43995165D01*
X116974569Y-44147068D01*
X115975100Y-44291661D01*
X115059972Y-44425796D01*
X114250215Y-44546328D01*
X113566858Y-44650112D01*
X113030931Y-44734003D01*
X112663463Y-44794854D01*
X112485485Y-44829520D01*
X112422371Y-44852147D01*
X112160478Y-44973196D01*
X111752126Y-45180525D01*
X111223244Y-45460306D01*
X110599765Y-45798710D01*
X109907620Y-46181909D01*
X109172738Y-46596076D01*
X108761090Y-46830025D01*
X107908528Y-47313643D01*
X107213096Y-47706224D01*
X106655625Y-48018104D01*
X106216948Y-48259619D01*
X105877896Y-48441102D01*
X105619303Y-48572890D01*
X105421999Y-48665318D01*
X105266818Y-48728722D01*
X105134591Y-48773436D01*
X104938100Y-48811214D01*
X104581413Y-48846538D01*
X104174055Y-48863683D01*
X103838583Y-48852795D01*
X103260282Y-48745508D01*
X102819712Y-48542605D01*
X102528794Y-48266229D01*
X102399450Y-47938524D01*
X102443602Y-47581636D01*
X102673173Y-47217707D01*
X103100086Y-46868884D01*
X103137533Y-46845537D01*
X103395854Y-46688917D01*
X103802896Y-46446017D01*
X104330583Y-46133433D01*
X104950841Y-45767765D01*
X105635594Y-45365609D01*
X106356766Y-44943565D01*
X106575705Y-44815379D01*
X107269023Y-44405577D01*
X107903868Y-44024645D01*
X108455107Y-43688043D01*
X108897605Y-43411230D01*
X109206232Y-43209665D01*
X109355852Y-43098808D01*
X109376282Y-43074297D01*
X109496920Y-42869696D01*
X109682392Y-42502701D01*
X109920251Y-42000052D01*
X110198048Y-41388495D01*
X110503335Y-40694770D01*
X110823662Y-39945621D01*
X110854272Y-39872996D01*
X111253348Y-38926444D01*
X111580227Y-38154696D01*
X111844996Y-37538225D01*
X112057741Y-37057505D01*
X112228550Y-36693009D01*
X112367508Y-36425211D01*
X112484701Y-36234583D01*
X112590217Y-36101600D01*
X112694141Y-36006735D01*
X112806559Y-35930461D01*
X112937559Y-35853251D01*
X113496096Y-35604665D01*
X114147336Y-35456570D01*
X114804183Y-35428061D01*
X115407806Y-35521408D01*
G37*
G36*
X243254879Y-97214038D02*
G01*
X243900431Y-97299027D01*
X245249191Y-97568976D01*
X246560031Y-97951137D01*
X247798843Y-98431364D01*
X248931517Y-98995511D01*
X249923945Y-99629434D01*
X250742017Y-100318987D01*
X250966162Y-100553911D01*
X251486726Y-101254482D01*
X251798733Y-101957971D01*
X251904686Y-102654171D01*
X251807084Y-103332877D01*
X251508428Y-103983882D01*
X251011220Y-104596980D01*
X250317960Y-105161966D01*
X249431149Y-105668632D01*
X248312043Y-106126312D01*
X246927770Y-106482439D01*
X245486011Y-106634055D01*
X243987326Y-106581067D01*
X243541078Y-106529650D01*
X242684835Y-106388555D01*
X241863736Y-106185997D01*
X241026217Y-105905818D01*
X240120719Y-105531855D01*
X239095678Y-105047949D01*
X238502406Y-104757706D01*
X237871578Y-104460677D01*
X237358086Y-104238804D01*
X236922457Y-104077836D01*
X236525218Y-103963526D01*
X236126894Y-103881624D01*
X235688014Y-103817882D01*
X234854166Y-103791576D01*
X234009856Y-103944059D01*
X233144214Y-104288864D01*
X233018070Y-104353754D01*
X232445865Y-104726764D01*
X232084749Y-105124228D01*
X231934699Y-105545931D01*
X231995695Y-105991657D01*
X232267717Y-106461191D01*
X232750746Y-106954316D01*
X233444759Y-107470819D01*
X233898560Y-107761824D01*
X234918331Y-108338938D01*
X235911423Y-108776889D01*
X236935376Y-109095105D01*
X238047730Y-109313017D01*
X239306022Y-109450055D01*
X239546059Y-109469744D01*
X240292212Y-109557104D01*
X240849521Y-109676267D01*
X241235892Y-109836934D01*
X241469230Y-110048807D01*
X241567443Y-110321587D01*
X241548435Y-110664974D01*
X241539219Y-110708791D01*
X241335691Y-111125806D01*
X240945015Y-111468115D01*
X240381143Y-111726662D01*
X239658023Y-111892389D01*
X239550897Y-111907076D01*
X238469195Y-111970083D01*
X237272411Y-111906167D01*
X236002165Y-111725870D01*
X234700079Y-111439733D01*
X233407773Y-111058299D01*
X232166869Y-110592109D01*
X231018988Y-110051705D01*
X230005750Y-109447629D01*
X229963230Y-109418352D01*
X229487215Y-109042626D01*
X228994307Y-108580466D01*
X228532657Y-108083379D01*
X228150415Y-107602876D01*
X227895734Y-107190465D01*
X227722175Y-106758629D01*
X227588244Y-106017849D01*
X227661298Y-105293216D01*
X227937817Y-104596138D01*
X228414278Y-103938022D01*
X229087163Y-103330274D01*
X229955032Y-102749262D01*
X231197233Y-102133162D01*
X232545790Y-101694129D01*
X234007351Y-101430126D01*
X235588565Y-101339115D01*
X235876741Y-101340160D01*
X236955608Y-101386764D01*
X237956219Y-101510469D01*
X238926442Y-101723588D01*
X239914147Y-102038434D01*
X240967204Y-102467319D01*
X242133484Y-103022556D01*
X242793635Y-103346911D01*
X243504286Y-103670009D01*
X244097150Y-103900925D01*
X244607141Y-104051368D01*
X245069174Y-104133047D01*
X245518165Y-104157671D01*
X245711785Y-104149422D01*
X246222780Y-104063583D01*
X246716064Y-103903943D01*
X247126690Y-103694710D01*
X247389713Y-103460091D01*
X247424558Y-103406742D01*
X247544406Y-103020533D01*
X247460294Y-102602404D01*
X247176431Y-102159257D01*
X246697029Y-101697994D01*
X246026298Y-101225516D01*
X245593045Y-100970220D01*
X244845834Y-100599657D01*
X244037930Y-100290996D01*
X243118754Y-100025987D01*
X242037725Y-99786378D01*
X241398820Y-99654945D01*
X240785198Y-99510847D01*
X240333665Y-99376483D01*
X240017396Y-99242152D01*
X239809565Y-99098148D01*
X239683348Y-98934771D01*
X239583652Y-98557737D01*
X239665262Y-98156966D01*
X239917372Y-97787935D01*
X240321582Y-97492228D01*
X240508050Y-97411228D01*
X241050962Y-97269225D01*
X241724566Y-97185723D01*
X242476619Y-97165676D01*
X243254879Y-97214038D01*
G37*
G36*
X158573538Y-67943840D02*
G01*
X158277997Y-68310969D01*
X158244466Y-68336107D01*
X158041569Y-68466472D01*
X157678531Y-68688656D01*
X157172328Y-68992790D01*
X156539935Y-69369008D01*
X155798330Y-69807440D01*
X154964487Y-70298219D01*
X154055384Y-70831477D01*
X153087997Y-71397346D01*
X152079300Y-71985958D01*
X151046272Y-72587444D01*
X150005887Y-73191938D01*
X148975122Y-73789570D01*
X147970953Y-74370473D01*
X147010356Y-74924780D01*
X146110307Y-75442620D01*
X145287783Y-75914128D01*
X144559759Y-76329435D01*
X143943211Y-76678672D01*
X143455117Y-76951972D01*
X143112451Y-77139468D01*
X142932190Y-77231289D01*
X142894514Y-77247113D01*
X142548284Y-77364884D01*
X142176331Y-77458767D01*
X141848159Y-77519128D01*
X141538900Y-77549605D01*
X141249288Y-77529085D01*
X140875177Y-77457462D01*
X140749784Y-77416048D01*
X140423336Y-77270537D01*
X139961758Y-77040413D01*
X139393175Y-76741672D01*
X138745712Y-76390311D01*
X138047497Y-76002327D01*
X137326654Y-75593718D01*
X136611309Y-75180481D01*
X135929588Y-74778612D01*
X135309616Y-74404110D01*
X134779520Y-74072970D01*
X134367426Y-73801191D01*
X134101458Y-73604769D01*
X133649160Y-73155780D01*
X133220362Y-72495551D01*
X132979712Y-71770794D01*
X132924591Y-70995758D01*
X132999356Y-70521227D01*
X137144691Y-70521227D01*
X137171096Y-71093300D01*
X137378449Y-71626147D01*
X137777595Y-72107304D01*
X137941408Y-72226982D01*
X138258857Y-72432296D01*
X138693956Y-72700516D01*
X139212582Y-73010618D01*
X139780616Y-73341573D01*
X140344167Y-73665069D01*
X140857404Y-73958491D01*
X141286255Y-74202455D01*
X141597477Y-74378046D01*
X141757822Y-74466353D01*
X141770576Y-74473432D01*
X141807692Y-74497505D01*
X141843859Y-74516081D01*
X141891422Y-74522460D01*
X141962726Y-74509942D01*
X142070117Y-74471827D01*
X142225942Y-74401414D01*
X142442544Y-74292003D01*
X142732271Y-74136895D01*
X143107468Y-73929388D01*
X143580480Y-73662783D01*
X144163653Y-73330379D01*
X144869333Y-72925477D01*
X145709866Y-72441376D01*
X146697596Y-71871375D01*
X147844871Y-71208775D01*
X149164034Y-70446876D01*
X150003596Y-69961011D01*
X150820074Y-69486361D01*
X151560205Y-69053910D01*
X152206000Y-68674276D01*
X152739467Y-68358075D01*
X153142615Y-68115926D01*
X153397453Y-67958444D01*
X153485992Y-67896248D01*
X153476446Y-67880803D01*
X153332952Y-67773341D01*
X153041478Y-67590977D01*
X152633305Y-67350811D01*
X152139712Y-67069940D01*
X151591980Y-66765465D01*
X151021389Y-66454485D01*
X150459220Y-66154099D01*
X149936753Y-65881406D01*
X149485268Y-65653505D01*
X149136045Y-65487496D01*
X148920365Y-65400477D01*
X148803400Y-65366936D01*
X147913758Y-65202085D01*
X146889898Y-65146577D01*
X145772724Y-65198781D01*
X144603140Y-65357065D01*
X143422051Y-65619797D01*
X143260193Y-65664208D01*
X142146114Y-66028369D01*
X141115374Y-66465493D01*
X140178817Y-66963115D01*
X139347290Y-67508768D01*
X138631639Y-68089988D01*
X138042707Y-68694309D01*
X137591342Y-69309266D01*
X137288388Y-69922394D01*
X137144691Y-70521227D01*
X132999356Y-70521227D01*
X133052380Y-70184689D01*
X133360461Y-69351835D01*
X133846214Y-68511445D01*
X134507020Y-67677766D01*
X135340262Y-66865044D01*
X135984683Y-66341894D01*
X137199455Y-65513007D01*
X138526643Y-64778728D01*
X139941872Y-64143605D01*
X141420762Y-63612189D01*
X142938936Y-63189029D01*
X144472018Y-62878676D01*
X145995628Y-62685678D01*
X147485391Y-62614585D01*
X148916928Y-62669949D01*
X150265862Y-62856317D01*
X151507816Y-63178240D01*
X152618412Y-63640268D01*
X152769886Y-63719202D01*
X153276707Y-63993056D01*
X153867414Y-64323443D01*
X154515120Y-64694239D01*
X155192939Y-65089323D01*
X155873985Y-65492570D01*
X156531371Y-65887859D01*
X157138211Y-66259067D01*
X157667617Y-66590070D01*
X158092703Y-66864747D01*
X158386583Y-67066973D01*
X158522370Y-67180628D01*
X158556002Y-67229038D01*
X158667403Y-67577661D01*
X158585738Y-67896248D01*
X158573538Y-67943840D01*
G37*
G36*
X179725555Y-79425768D02*
G01*
X180210917Y-79538091D01*
X180588050Y-79702661D01*
X180806310Y-79911247D01*
X180911366Y-80275589D01*
X180851975Y-80694701D01*
X180617227Y-81057880D01*
X180614404Y-81060567D01*
X180457650Y-81174288D01*
X180136393Y-81381187D01*
X179669929Y-81669676D01*
X179077551Y-82028166D01*
X178378555Y-82445068D01*
X177592234Y-82908793D01*
X176737884Y-83407752D01*
X175834800Y-83930357D01*
X175738498Y-83985852D01*
X174853286Y-84497898D01*
X174028656Y-84978276D01*
X173282313Y-85416437D01*
X172631964Y-85801837D01*
X172095316Y-86123928D01*
X171690074Y-86372164D01*
X171433944Y-86535999D01*
X171344632Y-86604885D01*
X171375730Y-86662702D01*
X171535544Y-86753396D01*
X171540162Y-86754295D01*
X171695609Y-86746507D01*
X172043026Y-86711250D01*
X172565747Y-86650668D01*
X173247105Y-86566909D01*
X174070433Y-86462117D01*
X175019065Y-86338440D01*
X176076334Y-86198023D01*
X177225573Y-86043013D01*
X178450116Y-85875556D01*
X179733296Y-85697797D01*
X179801700Y-85688264D01*
X181094984Y-85509153D01*
X182337780Y-85339099D01*
X183512314Y-85180407D01*
X184600813Y-85035388D01*
X185585503Y-84906347D01*
X186448611Y-84795594D01*
X187172363Y-84705435D01*
X187738986Y-84638178D01*
X188130706Y-84596132D01*
X188329751Y-84581604D01*
X188550961Y-84589013D01*
X189126454Y-84691721D01*
X189566949Y-84896099D01*
X189860335Y-85177650D01*
X189994501Y-85511876D01*
X189957335Y-85874282D01*
X189736725Y-86240369D01*
X189320560Y-86585641D01*
X189129358Y-86703711D01*
X188719657Y-86949755D01*
X188171313Y-87273836D01*
X187501303Y-87666244D01*
X186726607Y-88117264D01*
X185864202Y-88617185D01*
X184931068Y-89156293D01*
X183944181Y-89724876D01*
X182920521Y-90313222D01*
X181877066Y-90911617D01*
X180830794Y-91510350D01*
X179798685Y-92099707D01*
X178797715Y-92669976D01*
X177844863Y-93211444D01*
X176957108Y-93714398D01*
X176151428Y-94169127D01*
X175444802Y-94565917D01*
X174854207Y-94895055D01*
X174396623Y-95146830D01*
X174089027Y-95311528D01*
X173948398Y-95379437D01*
X173916615Y-95389176D01*
X173393467Y-95488679D01*
X172800895Y-95515567D01*
X172228981Y-95470831D01*
X171767805Y-95355460D01*
X171506442Y-95219541D01*
X171203798Y-94919721D01*
X171078889Y-94562470D01*
X171140831Y-94185549D01*
X171398739Y-93826719D01*
X171405253Y-93820989D01*
X171563640Y-93711753D01*
X171885503Y-93509279D01*
X172351956Y-93224834D01*
X172944111Y-92869684D01*
X173643081Y-92455097D01*
X174429980Y-91992338D01*
X175285919Y-91492675D01*
X176192014Y-90967374D01*
X176329411Y-90887949D01*
X177219329Y-90371454D01*
X178049290Y-89886287D01*
X178801515Y-89443077D01*
X179458228Y-89052448D01*
X180001650Y-88725027D01*
X180414005Y-88471441D01*
X180677515Y-88302315D01*
X180774403Y-88228276D01*
X180772583Y-88165276D01*
X180653586Y-88054042D01*
X180638412Y-88052478D01*
X180454801Y-88065360D01*
X180081606Y-88105566D01*
X179535124Y-88170967D01*
X178831652Y-88259434D01*
X177987488Y-88368836D01*
X177018930Y-88497043D01*
X175942276Y-88641926D01*
X174773823Y-88801355D01*
X173529868Y-88973200D01*
X172226709Y-89155330D01*
X171914746Y-89199133D01*
X170613030Y-89380916D01*
X169367721Y-89553267D01*
X168195931Y-89713907D01*
X167114775Y-89860556D01*
X166141366Y-89990935D01*
X165292820Y-90102764D01*
X164586249Y-90193764D01*
X164038769Y-90261657D01*
X163667493Y-90304161D01*
X163489534Y-90318999D01*
X163139656Y-90282083D01*
X162560674Y-90050964D01*
X162317872Y-89885846D01*
X162066562Y-89586531D01*
X162016809Y-89248352D01*
X162161725Y-88850587D01*
X162184464Y-88814720D01*
X162258629Y-88729580D01*
X162379365Y-88623011D01*
X162558170Y-88488007D01*
X162806541Y-88317566D01*
X163135974Y-88104683D01*
X163557967Y-87842355D01*
X164084016Y-87523578D01*
X164725618Y-87141346D01*
X165494270Y-86688658D01*
X166401469Y-86158508D01*
X167458713Y-85543892D01*
X168677497Y-84837807D01*
X170069319Y-84033250D01*
X170762349Y-83633390D01*
X171919847Y-82967574D01*
X173022386Y-82335872D01*
X174055648Y-81746357D01*
X175005320Y-81207099D01*
X175857086Y-80726170D01*
X176596632Y-80311642D01*
X177209642Y-79971588D01*
X177681801Y-79714077D01*
X177998794Y-79547183D01*
X178146306Y-79478976D01*
X178632728Y-79390783D01*
X179182611Y-79373922D01*
X179725555Y-79425768D01*
G37*
G36*
X83208362Y-99917491D02*
G01*
X83150975Y-100172642D01*
X83112058Y-100209794D01*
X82908475Y-100353149D01*
X82550612Y-100583407D01*
X82058125Y-100888594D01*
X81450670Y-101256735D01*
X80806699Y-101640791D01*
X80747903Y-101675856D01*
X79969482Y-102133981D01*
X79135061Y-102619138D01*
X78663975Y-102890952D01*
X77859824Y-103352701D01*
X77122094Y-103773501D01*
X76470337Y-104142363D01*
X75924104Y-104448302D01*
X75502948Y-104680330D01*
X75226419Y-104827461D01*
X75114070Y-104878707D01*
X75034185Y-104848519D01*
X74785327Y-104722246D01*
X74395251Y-104510176D01*
X73887231Y-104225958D01*
X73284541Y-103883245D01*
X72610457Y-103495688D01*
X71888253Y-103076936D01*
X71141204Y-102640642D01*
X70392584Y-102200455D01*
X69665668Y-101770028D01*
X69410109Y-101617496D01*
X71707894Y-101617496D01*
X71792967Y-101719182D01*
X71997995Y-101869484D01*
X72345371Y-102085794D01*
X72857487Y-102385507D01*
X72935765Y-102430658D01*
X73454192Y-102729667D01*
X73944821Y-103012612D01*
X74355547Y-103249444D01*
X74634264Y-103410115D01*
X75125893Y-103693438D01*
X76872292Y-102682399D01*
X76901614Y-102665421D01*
X77445582Y-102349875D01*
X77921284Y-102072839D01*
X78299770Y-101851259D01*
X78552090Y-101702082D01*
X78649294Y-101642252D01*
X78649375Y-101640791D01*
X78555228Y-101571034D01*
X78307518Y-101412928D01*
X77933674Y-101183340D01*
X77461125Y-100899137D01*
X76917300Y-100577185D01*
X75154703Y-99541225D01*
X73538998Y-100472103D01*
X73102297Y-100724413D01*
X72605767Y-101013134D01*
X72191905Y-101255843D01*
X71894619Y-101432634D01*
X71747816Y-101523601D01*
X71720383Y-101547034D01*
X71707894Y-101617496D01*
X69410109Y-101617496D01*
X68983731Y-101363010D01*
X68370048Y-100993053D01*
X67847892Y-100673808D01*
X67440540Y-100418925D01*
X67171266Y-100242056D01*
X67063344Y-100156851D01*
X67021761Y-100042226D01*
X67038953Y-99887651D01*
X68753997Y-99887651D01*
X68759039Y-99922029D01*
X68893501Y-100048688D01*
X69158963Y-100235632D01*
X69519547Y-100456214D01*
X69715081Y-100566682D01*
X70080782Y-100760214D01*
X70362117Y-100891758D01*
X70510183Y-100937552D01*
X70539672Y-100928420D01*
X70731125Y-100835960D01*
X71065607Y-100656852D01*
X71514460Y-100406959D01*
X72049029Y-100102141D01*
X72640657Y-99758262D01*
X74633335Y-98589551D01*
X74633335Y-97590180D01*
X74631174Y-97338428D01*
X74625610Y-97176748D01*
X75711122Y-97176748D01*
X75718406Y-97590180D01*
X75718817Y-97613484D01*
X75749235Y-98636158D01*
X77715344Y-99791582D01*
X77930071Y-99917394D01*
X78497213Y-100245915D01*
X78994837Y-100528788D01*
X79394656Y-100750256D01*
X79668383Y-100894562D01*
X79787729Y-100945948D01*
X79817112Y-100941569D01*
X80005594Y-100864487D01*
X80287488Y-100713764D01*
X80616221Y-100518809D01*
X80945219Y-100309033D01*
X81227908Y-100113845D01*
X81417716Y-99962654D01*
X81468067Y-99884871D01*
X81446101Y-99869131D01*
X81272744Y-99761819D01*
X80954899Y-99572667D01*
X80519910Y-99317409D01*
X79995125Y-99011781D01*
X79407889Y-98671519D01*
X78785549Y-98312357D01*
X78155452Y-97950032D01*
X77544942Y-97600277D01*
X76981367Y-97278830D01*
X76492073Y-97001424D01*
X76104407Y-96783795D01*
X75845713Y-96641678D01*
X75743339Y-96590809D01*
X75729774Y-96628085D01*
X75715140Y-96833012D01*
X75711122Y-97176748D01*
X74625610Y-97176748D01*
X74617946Y-96954012D01*
X74595354Y-96689342D01*
X74566501Y-96590809D01*
X74544119Y-96599693D01*
X74371531Y-96689375D01*
X74053295Y-96863085D01*
X73616735Y-97105325D01*
X73089172Y-97400600D01*
X72497926Y-97733412D01*
X71870321Y-98088265D01*
X71233676Y-98449662D01*
X70615314Y-98802106D01*
X70042556Y-99130101D01*
X69542724Y-99418150D01*
X69143139Y-99650755D01*
X68871123Y-99812421D01*
X68753997Y-99887651D01*
X67038953Y-99887651D01*
X67053421Y-99757565D01*
X67080512Y-99724478D01*
X67266766Y-99579391D01*
X67605558Y-99351531D01*
X68073148Y-99054637D01*
X68645793Y-98702446D01*
X69299753Y-98308697D01*
X70011288Y-97887127D01*
X70756656Y-97451475D01*
X71512116Y-97015479D01*
X72253927Y-96592877D01*
X72958349Y-96197406D01*
X73601640Y-95842804D01*
X74160060Y-95542811D01*
X74609867Y-95311163D01*
X74927320Y-95161599D01*
X75088679Y-95107857D01*
X75157712Y-95123475D01*
X75408692Y-95229074D01*
X75802168Y-95422750D01*
X76314636Y-95690937D01*
X76922590Y-96020071D01*
X77602527Y-96396585D01*
X78330942Y-96806915D01*
X79084329Y-97237496D01*
X79839186Y-97674762D01*
X80572006Y-98105148D01*
X81259285Y-98515089D01*
X81877519Y-98891020D01*
X82403204Y-99219374D01*
X82812833Y-99486588D01*
X83082904Y-99679095D01*
X83189910Y-99783331D01*
X83203876Y-99884871D01*
X83208362Y-99917491D01*
G37*
G36*
X123055762Y-98214634D02*
G01*
X123068043Y-98659072D01*
X123072575Y-99210428D01*
X123068395Y-99832232D01*
X123054375Y-100853050D01*
X123042122Y-101745202D01*
X117356348Y-105068022D01*
X116369376Y-105644585D01*
X115349602Y-106239828D01*
X114373648Y-106809019D01*
X113461461Y-107340546D01*
X112632990Y-107822797D01*
X111908184Y-108244161D01*
X111306993Y-108593025D01*
X110849364Y-108857778D01*
X110555247Y-109026809D01*
X110552075Y-109028617D01*
X110111850Y-109274921D01*
X109735924Y-109476556D01*
X109464093Y-109612761D01*
X109336153Y-109662776D01*
X109264330Y-109641445D01*
X109027147Y-109525215D01*
X108673761Y-109328295D01*
X108241627Y-109073970D01*
X107768201Y-108785523D01*
X107290938Y-108486239D01*
X106847294Y-108199402D01*
X106474723Y-107948297D01*
X106210680Y-107756208D01*
X106092622Y-107646418D01*
X106082244Y-107618056D01*
X106049637Y-107397712D01*
X106023004Y-107023100D01*
X106002876Y-106539461D01*
X105989783Y-105992039D01*
X105986078Y-105612538D01*
X107046646Y-105612538D01*
X107047561Y-106077806D01*
X107047561Y-107085451D01*
X107950909Y-107625337D01*
X108854256Y-108165223D01*
X108854256Y-107111992D01*
X108854256Y-107032441D01*
X109919929Y-107032441D01*
X109922217Y-107317565D01*
X109937203Y-107703954D01*
X109963163Y-107968664D01*
X109996724Y-108066280D01*
X110033218Y-108048041D01*
X110230391Y-107938340D01*
X110581590Y-107738883D01*
X111068130Y-107460498D01*
X111671322Y-107114011D01*
X112372479Y-106710247D01*
X113152913Y-106260035D01*
X113993937Y-105774200D01*
X114876862Y-105263569D01*
X115783003Y-104738968D01*
X116693670Y-104211224D01*
X117590177Y-103691164D01*
X118453835Y-103189614D01*
X119265958Y-102717401D01*
X120007858Y-102285351D01*
X120660847Y-101904290D01*
X121206237Y-101585046D01*
X121625342Y-101338445D01*
X121899473Y-101175313D01*
X122009943Y-101106477D01*
X122016837Y-101065022D01*
X122022390Y-100853050D01*
X122020092Y-100503900D01*
X122009943Y-100065022D01*
X121979360Y-99048239D01*
X119657016Y-100396721D01*
X119212751Y-100654461D01*
X118545270Y-101040891D01*
X117922768Y-101400366D01*
X117379927Y-101712897D01*
X116951430Y-101958494D01*
X116671958Y-102117169D01*
X116561271Y-102179673D01*
X116221969Y-102372863D01*
X115741216Y-102647814D01*
X115147128Y-102988400D01*
X114467825Y-103378492D01*
X113731424Y-103801966D01*
X112966043Y-104242692D01*
X109922841Y-105996248D01*
X109922665Y-106058762D01*
X109919929Y-107032441D01*
X108854256Y-107032441D01*
X108854256Y-106058762D01*
X108117075Y-105628225D01*
X107979333Y-105547446D01*
X107560638Y-105304023D01*
X107290178Y-105175303D01*
X107135798Y-105174804D01*
X107065340Y-105316043D01*
X107046646Y-105612538D01*
X105986078Y-105612538D01*
X105984257Y-105426077D01*
X105986829Y-104886817D01*
X105998029Y-104419502D01*
X106018389Y-104069376D01*
X106048439Y-103881681D01*
X106146517Y-103796312D01*
X106409292Y-103617258D01*
X106815279Y-103358684D01*
X107343375Y-103033577D01*
X107972475Y-102654924D01*
X108681477Y-102235711D01*
X109449276Y-101788924D01*
X110204672Y-101350638D01*
X110907995Y-100938416D01*
X111529488Y-100569939D01*
X112048617Y-100257566D01*
X112444848Y-100013654D01*
X112697644Y-99850559D01*
X112786473Y-99780640D01*
X112739406Y-99745811D01*
X112523687Y-99610533D01*
X112143342Y-99380187D01*
X111609621Y-99061382D01*
X110933774Y-98660728D01*
X110127048Y-98184835D01*
X109200694Y-97640311D01*
X108165961Y-97033767D01*
X107034097Y-96371813D01*
X105816352Y-95661057D01*
X104523976Y-94908109D01*
X103168216Y-94119580D01*
X101760323Y-93302078D01*
X100764020Y-92723651D01*
X99387189Y-91922993D01*
X98068601Y-91154700D01*
X96819690Y-90425502D01*
X95651888Y-89742129D01*
X94576628Y-89111313D01*
X93605343Y-88539784D01*
X92749465Y-88034273D01*
X92020427Y-87601510D01*
X91429661Y-87248226D01*
X90988601Y-86981152D01*
X90708679Y-86807018D01*
X90601327Y-86732555D01*
X90576322Y-86686300D01*
X90527405Y-86470079D01*
X90493898Y-86092535D01*
X90474643Y-85536702D01*
X90468482Y-84785617D01*
X90471045Y-84118990D01*
X90472769Y-84032679D01*
X91531243Y-84032679D01*
X91533253Y-85077643D01*
X91535263Y-86122608D01*
X102707856Y-92605453D01*
X103843135Y-93263934D01*
X105223059Y-94063595D01*
X106543652Y-94828090D01*
X107793601Y-95550904D01*
X108961594Y-96225525D01*
X110036320Y-96845440D01*
X111006466Y-97404135D01*
X111860720Y-97895096D01*
X112587770Y-98311811D01*
X113176304Y-98647766D01*
X113615010Y-98896447D01*
X113892575Y-99051343D01*
X113997687Y-99105938D01*
X114015041Y-99104730D01*
X114179865Y-99039536D01*
X114456024Y-98898902D01*
X114793599Y-98711876D01*
X115142671Y-98507500D01*
X115453321Y-98314820D01*
X115675631Y-98162882D01*
X115759682Y-98080730D01*
X115759535Y-98080384D01*
X115662140Y-98017456D01*
X115392003Y-97855023D01*
X114960113Y-97599481D01*
X114377456Y-97257225D01*
X113655022Y-96834652D01*
X112803798Y-96338157D01*
X111834773Y-95774136D01*
X110758935Y-95148985D01*
X109587272Y-94469101D01*
X108330772Y-93740878D01*
X107000423Y-92970713D01*
X105607213Y-92165002D01*
X104162131Y-91330140D01*
X102739969Y-90508916D01*
X101327543Y-89693284D01*
X99971136Y-88909973D01*
X98682389Y-88165705D01*
X97472944Y-87467205D01*
X96354442Y-86821197D01*
X95338523Y-86234404D01*
X94436829Y-85713550D01*
X93661001Y-85265360D01*
X93022681Y-84896557D01*
X92533508Y-84613865D01*
X92205126Y-84424008D01*
X92049174Y-84333710D01*
X91531243Y-84032679D01*
X90472769Y-84032679D01*
X90480838Y-83628787D01*
X90500970Y-83284813D01*
X90532445Y-83068316D01*
X92258088Y-83068316D01*
X92269251Y-83082148D01*
X92422143Y-83187767D01*
X92744817Y-83390772D01*
X93227044Y-83685132D01*
X93858591Y-84064818D01*
X94629229Y-84523800D01*
X95528727Y-85056049D01*
X96546853Y-85655535D01*
X97673376Y-86316228D01*
X98898067Y-87032099D01*
X100210693Y-87797117D01*
X101601025Y-88605254D01*
X103058830Y-89450479D01*
X104573879Y-90326763D01*
X105263855Y-90725470D01*
X106744092Y-91581600D01*
X108171156Y-92408001D01*
X109534132Y-93198304D01*
X110822105Y-93946143D01*
X112024160Y-94645149D01*
X113129382Y-95288954D01*
X114126856Y-95871190D01*
X115005668Y-96385490D01*
X115754902Y-96825486D01*
X116363644Y-97184809D01*
X116820979Y-97457091D01*
X117115991Y-97635966D01*
X117237766Y-97715064D01*
X117353304Y-97818995D01*
X117437263Y-97918594D01*
X117474419Y-98020905D01*
X117462843Y-98080730D01*
X117452279Y-98135322D01*
X117358351Y-98271237D01*
X117180143Y-98438042D01*
X116905163Y-98645129D01*
X116520918Y-98901892D01*
X116014916Y-99217722D01*
X115374666Y-99602013D01*
X114587675Y-100064156D01*
X113641451Y-100613544D01*
X112523501Y-101259570D01*
X112128058Y-101488018D01*
X111225709Y-102010262D01*
X110388475Y-102496130D01*
X109633369Y-102935671D01*
X108977404Y-103318931D01*
X108437592Y-103635957D01*
X108030949Y-103876795D01*
X107774486Y-104031493D01*
X107685218Y-104090096D01*
X107692546Y-104099575D01*
X107822071Y-104191398D01*
X108079910Y-104353296D01*
X108422399Y-104557577D01*
X108509344Y-104608088D01*
X108864258Y-104808706D01*
X109145720Y-104959292D01*
X109299177Y-105030427D01*
X109356364Y-105009513D01*
X109581142Y-104896037D01*
X109957245Y-104693810D01*
X110465986Y-104413570D01*
X111088675Y-104066054D01*
X111806623Y-103662000D01*
X112601141Y-103212144D01*
X113453540Y-102727225D01*
X114345130Y-102217979D01*
X115257223Y-101695144D01*
X116171130Y-101169457D01*
X117068160Y-100651655D01*
X117929626Y-100152476D01*
X118736838Y-99682657D01*
X119471106Y-99252935D01*
X120113743Y-98874047D01*
X120646058Y-98556732D01*
X121049362Y-98311725D01*
X121304967Y-98149765D01*
X121394183Y-98081589D01*
X121373374Y-98067093D01*
X121199760Y-97961653D01*
X120860316Y-97760477D01*
X120367380Y-97470714D01*
X119733288Y-97099514D01*
X118970379Y-96654024D01*
X118090990Y-96141394D01*
X117107458Y-95568773D01*
X116032123Y-94943310D01*
X114877320Y-94272152D01*
X113655389Y-93562450D01*
X112378665Y-92821352D01*
X111059488Y-92056006D01*
X109710195Y-91273562D01*
X108343123Y-90481169D01*
X106970610Y-89685975D01*
X105604994Y-88895129D01*
X104258612Y-88115780D01*
X102943802Y-87355076D01*
X101672902Y-86620168D01*
X100458250Y-85918203D01*
X99312182Y-85256330D01*
X98247037Y-84641698D01*
X97275152Y-84081457D01*
X96408866Y-83582754D01*
X95660514Y-83152738D01*
X95042437Y-82798560D01*
X94566970Y-82527366D01*
X94246451Y-82346307D01*
X94093219Y-82262530D01*
X94020872Y-82228803D01*
X93871604Y-82192299D01*
X93700328Y-82223641D01*
X93454313Y-82337786D01*
X93080826Y-82549690D01*
X92996464Y-82599237D01*
X92651567Y-82807194D01*
X92388304Y-82974356D01*
X92258088Y-83068316D01*
X90532445Y-83068316D01*
X90534546Y-83053863D01*
X90584676Y-82902730D01*
X90654465Y-82798207D01*
X90659274Y-82792880D01*
X90832357Y-82652991D01*
X91143171Y-82444219D01*
X91552027Y-82189350D01*
X92019239Y-81911173D01*
X92505120Y-81632474D01*
X92969984Y-81376042D01*
X93374143Y-81164663D01*
X93677911Y-81021125D01*
X93841601Y-80968215D01*
X93882959Y-80985384D01*
X94093014Y-81095442D01*
X94467936Y-81301378D01*
X94995685Y-81596248D01*
X95664219Y-81973106D01*
X96461496Y-82425006D01*
X97375476Y-82945002D01*
X98394118Y-83526150D01*
X99505380Y-84161504D01*
X100697221Y-84844118D01*
X101957600Y-85567047D01*
X103274476Y-86323345D01*
X104635807Y-87106067D01*
X106029552Y-87908266D01*
X107443670Y-88722999D01*
X108866120Y-89543319D01*
X110284861Y-90362280D01*
X111687851Y-91172937D01*
X113063049Y-91968345D01*
X114398414Y-92741558D01*
X115681905Y-93485630D01*
X116901481Y-94193616D01*
X118045100Y-94858571D01*
X119100721Y-95473549D01*
X120056303Y-96031604D01*
X120899805Y-96525791D01*
X121619185Y-96949165D01*
X122202403Y-97294779D01*
X122637417Y-97555689D01*
X122912186Y-97724948D01*
X123014668Y-97795612D01*
X123036694Y-97913588D01*
X123047335Y-98081589D01*
X123055762Y-98214634D01*
G37*
G36*
X104351908Y-109015459D02*
G01*
X104371109Y-109446050D01*
X104384008Y-109984633D01*
X104389030Y-110593732D01*
X104389033Y-110602549D01*
X104389085Y-110776084D01*
X104386180Y-111405265D01*
X104376049Y-111861281D01*
X104355762Y-112175800D01*
X104322390Y-112380494D01*
X104273004Y-112507034D01*
X104204674Y-112587090D01*
X104154369Y-112625410D01*
X103929559Y-112777850D01*
X103637125Y-112966693D01*
X103577008Y-113005514D01*
X103133821Y-113284629D01*
X102637101Y-113591424D01*
X102174816Y-113868051D01*
X101613610Y-114178536D01*
X101218311Y-114359335D01*
X100989821Y-114409999D01*
X100948474Y-114395572D01*
X100733816Y-114289909D01*
X100356841Y-114088680D01*
X99831746Y-113799918D01*
X99172728Y-113431657D01*
X98393984Y-112991931D01*
X97509711Y-112488774D01*
X96534106Y-111930220D01*
X95481366Y-111324302D01*
X94365687Y-110679056D01*
X93201267Y-110002513D01*
X92610251Y-109658417D01*
X91475204Y-108997979D01*
X90399781Y-108372752D01*
X89397760Y-107790719D01*
X88482919Y-107259862D01*
X87669035Y-106788164D01*
X86969887Y-106383607D01*
X86399253Y-106054174D01*
X85970910Y-105807846D01*
X85698636Y-105652607D01*
X85596209Y-105596437D01*
X85550987Y-105614176D01*
X85340058Y-105724141D01*
X84973256Y-105926095D01*
X84467433Y-106210438D01*
X83839444Y-106567569D01*
X83106142Y-106987888D01*
X82284380Y-107461794D01*
X81391013Y-107979687D01*
X80442894Y-108531966D01*
X79571819Y-109039731D01*
X78554444Y-109629802D01*
X77696834Y-110122878D01*
X76986077Y-110525984D01*
X76409257Y-110846148D01*
X75953463Y-111090395D01*
X75605780Y-111265753D01*
X75353294Y-111379247D01*
X75183093Y-111437904D01*
X75082261Y-111448751D01*
X75056697Y-111440872D01*
X74862019Y-111348411D01*
X74508261Y-111161406D01*
X74013492Y-110890346D01*
X73395779Y-110545719D01*
X72673189Y-110138012D01*
X71863790Y-109677713D01*
X70985647Y-109175310D01*
X70056830Y-108641290D01*
X69095404Y-108086143D01*
X68119437Y-107520355D01*
X67146996Y-106954414D01*
X66196149Y-106398809D01*
X65284962Y-105864027D01*
X64431504Y-105360555D01*
X63653840Y-104898883D01*
X62970039Y-104489497D01*
X62398167Y-104142885D01*
X61956291Y-103869536D01*
X61662480Y-103679937D01*
X61534800Y-103584575D01*
X61465595Y-103480086D01*
X61415267Y-103328416D01*
X61381533Y-103097262D01*
X61361285Y-102753367D01*
X61351416Y-102263474D01*
X61348816Y-101594327D01*
X61349886Y-101253123D01*
X61356584Y-100864797D01*
X62411578Y-100864797D01*
X62411578Y-101899039D01*
X62411578Y-102933280D01*
X68454430Y-106457442D01*
X68893197Y-106713224D01*
X69909175Y-107304676D01*
X70864565Y-107859726D01*
X71744002Y-108369514D01*
X72532124Y-108825181D01*
X73213568Y-109217867D01*
X73772972Y-109538712D01*
X74194972Y-109778857D01*
X74464205Y-109929441D01*
X74565309Y-109981604D01*
X74583915Y-109941542D01*
X74608828Y-109732655D01*
X74625443Y-109385425D01*
X74630876Y-108945412D01*
X75697748Y-108945412D01*
X75700390Y-109230751D01*
X75715849Y-109616525D01*
X75742130Y-109880348D01*
X75775804Y-109976938D01*
X75781019Y-109975292D01*
X75914560Y-109905222D01*
X76210516Y-109739390D01*
X76651063Y-109488080D01*
X77218377Y-109161578D01*
X77894633Y-108770169D01*
X78662008Y-108324137D01*
X79502677Y-107833768D01*
X80398816Y-107309346D01*
X84942122Y-104646420D01*
X84942122Y-103647485D01*
X84940035Y-103396127D01*
X84931197Y-103130692D01*
X86019284Y-103130692D01*
X86027604Y-103568195D01*
X86029955Y-103647485D01*
X86058021Y-104594116D01*
X92965971Y-108620931D01*
X93001227Y-108641482D01*
X94117118Y-109291781D01*
X95184306Y-109913367D01*
X96187805Y-110497530D01*
X97112625Y-111035562D01*
X97943778Y-111518751D01*
X98666276Y-111938388D01*
X99265131Y-112285763D01*
X99725353Y-112552167D01*
X100031956Y-112728889D01*
X100169950Y-112807219D01*
X100465979Y-112966693D01*
X100435640Y-111888123D01*
X100406347Y-110846702D01*
X101521201Y-110846702D01*
X101521201Y-111902019D01*
X101522317Y-112204079D01*
X101527718Y-112592381D01*
X101536581Y-112858399D01*
X101547770Y-112957000D01*
X101579889Y-112941521D01*
X101757284Y-112841110D01*
X102052672Y-112667988D01*
X102424549Y-112446329D01*
X103274758Y-111935995D01*
X103305298Y-110895481D01*
X103310413Y-110602549D01*
X103304262Y-110225428D01*
X103283277Y-109974056D01*
X103249850Y-109891717D01*
X103216774Y-109907976D01*
X103027106Y-110009347D01*
X102719801Y-110177900D01*
X102342531Y-110387584D01*
X101521201Y-110846702D01*
X100406347Y-110846702D01*
X100405302Y-110809553D01*
X93249656Y-106675913D01*
X92974273Y-106516852D01*
X91855063Y-105870827D01*
X90793021Y-105258480D01*
X89802240Y-104687895D01*
X88896807Y-104167158D01*
X88090814Y-103704352D01*
X87398351Y-103307563D01*
X86833508Y-102984876D01*
X86410375Y-102744376D01*
X86143042Y-102594146D01*
X86045599Y-102542273D01*
X86033698Y-102580231D01*
X86021583Y-102786124D01*
X86019284Y-103130692D01*
X84931197Y-103130692D01*
X84927236Y-103011741D01*
X84905371Y-102747081D01*
X84877444Y-102648550D01*
X84872774Y-102650001D01*
X84741979Y-102718220D01*
X84448021Y-102881127D01*
X84008727Y-103128577D01*
X83441920Y-103450426D01*
X82765428Y-103836526D01*
X81997073Y-104276733D01*
X81154683Y-104760901D01*
X80256083Y-105278884D01*
X75699399Y-107909219D01*
X75697748Y-108945412D01*
X74630876Y-108945412D01*
X74628417Y-107909219D01*
X68519998Y-104387008D01*
X62411578Y-100864797D01*
X61356584Y-100864797D01*
X61361371Y-100587298D01*
X61386384Y-100109419D01*
X61400936Y-99996906D01*
X63122126Y-99996906D01*
X63126308Y-100000188D01*
X63256183Y-100080972D01*
X63548548Y-100255104D01*
X63984349Y-100511565D01*
X64544534Y-100839335D01*
X65210051Y-101227394D01*
X65961849Y-101664723D01*
X66780875Y-102140302D01*
X67648076Y-102643110D01*
X68544401Y-103162130D01*
X69450798Y-103686340D01*
X70348215Y-104204722D01*
X71217599Y-104706255D01*
X72039898Y-105179921D01*
X72796061Y-105614698D01*
X73467035Y-105999569D01*
X74033767Y-106323512D01*
X74477207Y-106575509D01*
X74778301Y-106744539D01*
X74917998Y-106819584D01*
X74976791Y-106831750D01*
X75082093Y-106816845D01*
X75240855Y-106763379D01*
X75467502Y-106663676D01*
X75776457Y-106510059D01*
X76182144Y-106294852D01*
X76698987Y-106010376D01*
X77341410Y-105648957D01*
X78123836Y-105202917D01*
X79060689Y-104664579D01*
X80166394Y-104026267D01*
X80686927Y-103725805D01*
X81611621Y-103194511D01*
X82476457Y-102700712D01*
X83263744Y-102254329D01*
X83955793Y-101865283D01*
X84534913Y-101543496D01*
X84983416Y-101298890D01*
X85283610Y-101141387D01*
X85417807Y-101080907D01*
X85526232Y-101108897D01*
X85771629Y-101218854D01*
X86157394Y-101414152D01*
X86688808Y-101697720D01*
X87371149Y-102072490D01*
X88209699Y-102541390D01*
X89209736Y-103107351D01*
X90376540Y-103773302D01*
X91715393Y-104542174D01*
X93231572Y-105416895D01*
X93848378Y-105773190D01*
X94991025Y-106432039D01*
X96075463Y-107055790D01*
X97087730Y-107636495D01*
X98013865Y-108166204D01*
X98839904Y-108636970D01*
X99551887Y-109040841D01*
X100135851Y-109369870D01*
X100577835Y-109616108D01*
X100863877Y-109771604D01*
X100980015Y-109828411D01*
X101109538Y-109798626D01*
X101369315Y-109689312D01*
X101701156Y-109527324D01*
X102052014Y-109340932D01*
X102368842Y-109158407D01*
X102598593Y-109008019D01*
X102688221Y-108918040D01*
X102613781Y-108869297D01*
X102367101Y-108720813D01*
X101959697Y-108479832D01*
X101403860Y-108153461D01*
X100711881Y-107748806D01*
X99896052Y-107272974D01*
X98968663Y-106733073D01*
X97942006Y-106136207D01*
X96828373Y-105489485D01*
X95640054Y-104800013D01*
X94389341Y-104074898D01*
X93088526Y-103321246D01*
X91749899Y-102546164D01*
X90385752Y-101756759D01*
X89008376Y-100960138D01*
X87630063Y-100163407D01*
X86263104Y-99373673D01*
X84919790Y-98598043D01*
X83612412Y-97843624D01*
X82353262Y-97117521D01*
X81154632Y-96426843D01*
X80028811Y-95778695D01*
X78988093Y-95180184D01*
X78044767Y-94638418D01*
X77211126Y-94160502D01*
X76499460Y-93753544D01*
X75922061Y-93424650D01*
X75491221Y-93180926D01*
X75219230Y-93029481D01*
X75118380Y-92977420D01*
X75050112Y-93005020D01*
X74813798Y-93127852D01*
X74429356Y-93339149D01*
X73915250Y-93628105D01*
X73289945Y-93983916D01*
X72571905Y-94395779D01*
X71779594Y-94852889D01*
X70931476Y-95344442D01*
X70046016Y-95859633D01*
X69141678Y-96387659D01*
X68236926Y-96917715D01*
X67350224Y-97438998D01*
X66500036Y-97940703D01*
X65704827Y-98412026D01*
X64983061Y-98842162D01*
X64353203Y-99220309D01*
X63833716Y-99535660D01*
X63443064Y-99777413D01*
X63199713Y-99934763D01*
X63122126Y-99996906D01*
X61400936Y-99996906D01*
X61426092Y-99802409D01*
X61481662Y-99649195D01*
X61510879Y-99623895D01*
X61703040Y-99495035D01*
X62054453Y-99276476D01*
X62547089Y-98978596D01*
X63162919Y-98611772D01*
X63883912Y-98186383D01*
X64692040Y-97712806D01*
X65569273Y-97201419D01*
X66497581Y-96662599D01*
X67458935Y-96106724D01*
X68435305Y-95544172D01*
X69408663Y-94985320D01*
X70360978Y-94440546D01*
X71274222Y-93920227D01*
X72130364Y-93434742D01*
X72911376Y-92994468D01*
X73599227Y-92609782D01*
X74175888Y-92291062D01*
X74623331Y-92048687D01*
X74923524Y-91893033D01*
X75058440Y-91834478D01*
X75061506Y-91834227D01*
X75156207Y-91862098D01*
X75352025Y-91950796D01*
X75654842Y-92103645D01*
X76070538Y-92323969D01*
X76604993Y-92615089D01*
X77264090Y-92980331D01*
X78053708Y-93423017D01*
X78979728Y-93946471D01*
X80048032Y-94554015D01*
X81264499Y-95248975D01*
X82635011Y-96034672D01*
X84165448Y-96914431D01*
X85861692Y-97891574D01*
X87729622Y-98969426D01*
X89775121Y-100151309D01*
X90667859Y-100667573D01*
X92259061Y-101588520D01*
X93794980Y-102478447D01*
X95265708Y-103331569D01*
X96661333Y-104142102D01*
X97971947Y-104904262D01*
X99187637Y-105612266D01*
X100298496Y-106260329D01*
X101294612Y-106842667D01*
X102166076Y-107353496D01*
X102902977Y-107787034D01*
X103495406Y-108137494D01*
X103933452Y-108399095D01*
X104207206Y-108566051D01*
X104306757Y-108632580D01*
X104327974Y-108730333D01*
X104343730Y-108918040D01*
X104351908Y-109015459D01*
G37*
G36*
X140908931Y-44248470D02*
G01*
X140926842Y-44963864D01*
X140939557Y-45883487D01*
X140947140Y-47010093D01*
X140949274Y-48144744D01*
X140949653Y-48346437D01*
X140950328Y-49129502D01*
X140952997Y-50061902D01*
X140957489Y-50909079D01*
X140963582Y-51649811D01*
X140971054Y-52262877D01*
X140979684Y-52727055D01*
X140989250Y-53021124D01*
X140999531Y-53123863D01*
X141047816Y-53103422D01*
X141247717Y-52996364D01*
X141562041Y-52818266D01*
X141948978Y-52592528D01*
X142337467Y-52365755D01*
X142777629Y-52123365D01*
X143101184Y-51973695D01*
X143344977Y-51903505D01*
X143545849Y-51899552D01*
X143740644Y-51948596D01*
X143781470Y-51968132D01*
X143995808Y-52084074D01*
X144378890Y-52297767D01*
X144920588Y-52603412D01*
X145610775Y-52995206D01*
X146439323Y-53467350D01*
X147396106Y-54014040D01*
X148470996Y-54629478D01*
X149653864Y-55307860D01*
X150934584Y-56043387D01*
X152303029Y-56830257D01*
X153749070Y-57662669D01*
X155262581Y-58534822D01*
X156833433Y-59440915D01*
X158451500Y-60375146D01*
X159895823Y-61209756D01*
X161781048Y-62300216D01*
X163493051Y-63291916D01*
X165038459Y-64188776D01*
X166423899Y-64994714D01*
X167656001Y-65713652D01*
X168741390Y-66349508D01*
X169686694Y-66906203D01*
X170498542Y-67387656D01*
X171183561Y-67797786D01*
X171748377Y-68140513D01*
X172199619Y-68419758D01*
X172543915Y-68639439D01*
X172787891Y-68803477D01*
X172938176Y-68915791D01*
X173001396Y-68980301D01*
X173072308Y-69195981D01*
X173099374Y-69409171D01*
X173131598Y-69662986D01*
X173151327Y-70337472D01*
X173151327Y-71407661D01*
X173709277Y-71080475D01*
X174046201Y-70884948D01*
X174577052Y-70591353D01*
X174976225Y-70397842D01*
X175273450Y-70292648D01*
X175498458Y-70264006D01*
X175680977Y-70300150D01*
X175732338Y-70325695D01*
X175960068Y-70450331D01*
X176354631Y-70671635D01*
X176905189Y-70983394D01*
X177600903Y-71379394D01*
X178329730Y-71795625D01*
X178430935Y-71853423D01*
X179384447Y-72399268D01*
X180450599Y-73010716D01*
X181618553Y-73681554D01*
X182877471Y-74405568D01*
X184216514Y-75176547D01*
X185624844Y-75988277D01*
X187091621Y-76834545D01*
X188606008Y-77709138D01*
X189522950Y-78238805D01*
X191004298Y-79093872D01*
X192429070Y-79915518D01*
X193786651Y-80697653D01*
X195066424Y-81434192D01*
X196257776Y-82119045D01*
X197350089Y-82746126D01*
X198332749Y-83309347D01*
X199195141Y-83802621D01*
X199926648Y-84219859D01*
X200516655Y-84554974D01*
X200954546Y-84801879D01*
X201229707Y-84954487D01*
X201331521Y-85006709D01*
X201360574Y-84996167D01*
X201547844Y-84901090D01*
X201885379Y-84717724D01*
X202350108Y-84458971D01*
X202918958Y-84137735D01*
X203568861Y-83766919D01*
X204276745Y-83359428D01*
X204834114Y-83039291D01*
X205662755Y-82572935D01*
X206344281Y-82202762D01*
X206870511Y-81933052D01*
X207233267Y-81768087D01*
X207424368Y-81712148D01*
X207492501Y-81731902D01*
X207743656Y-81847797D01*
X208169732Y-82067863D01*
X208771598Y-82392587D01*
X209550122Y-82822457D01*
X210506174Y-83357961D01*
X211640621Y-83999585D01*
X212954333Y-84747818D01*
X214448178Y-85603147D01*
X216123024Y-86566059D01*
X217979740Y-87637043D01*
X218339383Y-87844749D01*
X219685457Y-88621539D01*
X220976885Y-89365850D01*
X222201912Y-90070953D01*
X223348783Y-90730122D01*
X224405741Y-91336629D01*
X225361031Y-91883747D01*
X226202897Y-92364749D01*
X226919583Y-92772906D01*
X227499335Y-93101493D01*
X227930395Y-93343782D01*
X228201010Y-93493045D01*
X228299422Y-93542556D01*
X228385662Y-93495461D01*
X228641224Y-93350527D01*
X229049512Y-93117052D01*
X229594261Y-92804393D01*
X230259203Y-92421908D01*
X231028073Y-91978953D01*
X231884606Y-91484885D01*
X232812535Y-90949062D01*
X233795595Y-90380840D01*
X235020343Y-89674899D01*
X236171934Y-89016738D01*
X237148807Y-88465215D01*
X237954547Y-88018368D01*
X238592738Y-87674236D01*
X239066967Y-87430857D01*
X239380819Y-87286268D01*
X239537879Y-87238508D01*
X239586544Y-87251543D01*
X239783231Y-87340089D01*
X240123640Y-87513904D01*
X240611067Y-87774853D01*
X241248809Y-88124800D01*
X242040161Y-88565611D01*
X242988421Y-89099150D01*
X244096884Y-89727282D01*
X245368848Y-90451871D01*
X246807607Y-91274781D01*
X248416460Y-92197878D01*
X250198702Y-93223027D01*
X252157630Y-94352091D01*
X254296539Y-95586936D01*
X255163431Y-96087928D01*
X256758844Y-97010772D01*
X258300548Y-97903606D01*
X259778508Y-98760575D01*
X261182691Y-99575820D01*
X262503062Y-100343486D01*
X263729588Y-101057717D01*
X264852235Y-101712655D01*
X265860968Y-102302444D01*
X266745753Y-102821228D01*
X267496557Y-103263150D01*
X268103345Y-103622353D01*
X268556084Y-103892982D01*
X268844739Y-104069179D01*
X268959277Y-104145088D01*
X268970076Y-104155934D01*
X269007160Y-104200232D01*
X269039469Y-104261155D01*
X269067383Y-104352699D01*
X269091283Y-104488858D01*
X269111547Y-104683627D01*
X269115983Y-104753356D01*
X269128557Y-104951000D01*
X269142691Y-105304973D01*
X269154330Y-105759539D01*
X269163853Y-106328694D01*
X269171641Y-107026433D01*
X269178073Y-107866749D01*
X269183530Y-108863638D01*
X269188391Y-110031095D01*
X269190663Y-110692283D01*
X269193036Y-111383114D01*
X269197844Y-112933690D01*
X269201232Y-114171131D01*
X269203980Y-115641769D01*
X269204579Y-116920770D01*
X269202880Y-118020073D01*
X269198739Y-118951620D01*
X269192006Y-119727351D01*
X269182536Y-120359206D01*
X269170182Y-120859125D01*
X269154796Y-121239049D01*
X269136232Y-121510919D01*
X269114342Y-121686675D01*
X269088981Y-121778257D01*
X269061515Y-121809064D01*
X268922383Y-121915398D01*
X268664224Y-122088515D01*
X268282005Y-122331402D01*
X267770692Y-122647044D01*
X267125252Y-123038428D01*
X266340650Y-123508539D01*
X265411854Y-124060362D01*
X264333829Y-124696885D01*
X263101542Y-125421093D01*
X261709959Y-126235971D01*
X260154046Y-127144507D01*
X258428770Y-128149685D01*
X256529098Y-129254491D01*
X254449994Y-130461912D01*
X253511090Y-131006652D01*
X251916574Y-131930905D01*
X250376045Y-132822790D01*
X248899483Y-133676573D01*
X247496868Y-134486524D01*
X246178179Y-135246910D01*
X244953396Y-135952000D01*
X243832499Y-136596061D01*
X242825469Y-137173363D01*
X241942283Y-137678173D01*
X241192924Y-138104760D01*
X240587369Y-138447392D01*
X240135600Y-138700336D01*
X239847595Y-138857862D01*
X239733335Y-138914238D01*
X239599502Y-138924947D01*
X239308231Y-138900778D01*
X239300247Y-138897955D01*
X239150267Y-138820954D01*
X238830732Y-138645193D01*
X238353677Y-138377566D01*
X237731141Y-138024967D01*
X236975159Y-137594290D01*
X236097770Y-137092431D01*
X235111009Y-136526282D01*
X234026914Y-135902739D01*
X232857522Y-135228697D01*
X231614869Y-134511048D01*
X230310994Y-133756688D01*
X228957932Y-132972510D01*
X228695630Y-132820380D01*
X227354034Y-132042866D01*
X226065740Y-131297212D01*
X224842608Y-130590230D01*
X223696498Y-129928735D01*
X222639269Y-129319542D01*
X221682783Y-128769466D01*
X220838898Y-128285320D01*
X220119475Y-127873920D01*
X219536374Y-127542080D01*
X219101455Y-127296614D01*
X218826577Y-127144338D01*
X218723602Y-127092064D01*
X218630762Y-127136563D01*
X218368564Y-127279136D01*
X217954184Y-127510763D01*
X217403978Y-127822121D01*
X216734300Y-128203882D01*
X215961504Y-128646723D01*
X215101945Y-129141317D01*
X214171977Y-129678340D01*
X213187955Y-130248466D01*
X212347576Y-130735241D01*
X211198392Y-131397033D01*
X210217849Y-131956245D01*
X209397873Y-132417297D01*
X208730395Y-132784609D01*
X208207341Y-133062603D01*
X207820640Y-133255697D01*
X207562221Y-133368312D01*
X207424012Y-133404868D01*
X207353359Y-133386036D01*
X207164594Y-133303077D01*
X206861252Y-133151028D01*
X206437619Y-132926654D01*
X205887982Y-132626724D01*
X205206628Y-132248003D01*
X204387844Y-131787259D01*
X203425916Y-131241258D01*
X202315132Y-130606768D01*
X201049778Y-129880555D01*
X199624142Y-129059386D01*
X198032509Y-128140028D01*
X196269168Y-127119247D01*
X194328405Y-125993811D01*
X181557678Y-118582755D01*
X178709524Y-120251892D01*
X178020653Y-120654129D01*
X177326041Y-121054530D01*
X176774896Y-121363999D01*
X176346222Y-121593250D01*
X176019020Y-121753001D01*
X175772292Y-121853968D01*
X175585039Y-121906868D01*
X175436264Y-121922418D01*
X175386720Y-121917662D01*
X175289451Y-121892198D01*
X175152057Y-121840487D01*
X174966099Y-121757770D01*
X174723142Y-121639285D01*
X174414746Y-121480274D01*
X174032475Y-121275978D01*
X173567892Y-121021635D01*
X173012559Y-120712487D01*
X172358039Y-120343774D01*
X171595894Y-119910735D01*
X170717687Y-119408612D01*
X169714981Y-118832645D01*
X168579338Y-118178073D01*
X167302321Y-117440137D01*
X165875492Y-116614078D01*
X164290415Y-115695136D01*
X162538651Y-114678550D01*
X160611763Y-113559562D01*
X159772860Y-113072114D01*
X158180554Y-112146056D01*
X156641723Y-111250009D01*
X155166399Y-110389863D01*
X153764615Y-109571507D01*
X152446405Y-108800829D01*
X151221802Y-108083720D01*
X150100838Y-107426067D01*
X149093548Y-106833762D01*
X148209964Y-106312693D01*
X147460118Y-105868748D01*
X146854045Y-105507818D01*
X146401778Y-105235792D01*
X146113349Y-105058559D01*
X145998792Y-104982008D01*
X145926037Y-104896158D01*
X145851310Y-104740305D01*
X145802359Y-104504313D01*
X145771135Y-104144048D01*
X145749592Y-103615372D01*
X145713966Y-102462043D01*
X144709819Y-103046864D01*
X144498189Y-103168842D01*
X144080826Y-103395144D01*
X143780930Y-103527178D01*
X143556080Y-103581593D01*
X143363855Y-103575033D01*
X143333861Y-103564105D01*
X143135024Y-103464485D01*
X142769617Y-103267296D01*
X142249737Y-102979547D01*
X141587485Y-102608246D01*
X140794961Y-102160402D01*
X139884265Y-101643022D01*
X138867496Y-101063116D01*
X137756753Y-100427692D01*
X136564138Y-99743758D01*
X135301749Y-99018323D01*
X133981687Y-98258395D01*
X132616050Y-97470982D01*
X131216940Y-96663093D01*
X129796456Y-95841737D01*
X128366696Y-95013921D01*
X126939762Y-94186655D01*
X125527754Y-93366946D01*
X124142770Y-92561804D01*
X122796910Y-91778236D01*
X121502275Y-91023251D01*
X120270964Y-90303857D01*
X119115078Y-89627063D01*
X118046714Y-88999878D01*
X117077975Y-88429309D01*
X116220958Y-87922365D01*
X115487765Y-87486055D01*
X114890495Y-87127386D01*
X114441247Y-86853368D01*
X114152121Y-86671009D01*
X114035218Y-86587317D01*
X114002438Y-86541554D01*
X113964044Y-86456417D01*
X113932611Y-86328260D01*
X113907453Y-86138248D01*
X113887880Y-85867541D01*
X113873206Y-85497305D01*
X113862742Y-85008702D01*
X113855801Y-84382895D01*
X113851695Y-83601048D01*
X113849735Y-82644323D01*
X113849235Y-81493884D01*
X113849235Y-76623017D01*
X112748490Y-77254612D01*
X112606474Y-77335385D01*
X112051740Y-77629074D01*
X111620585Y-77807108D01*
X111274374Y-77878518D01*
X110974471Y-77852335D01*
X110682242Y-77737591D01*
X110545996Y-77664414D01*
X110202091Y-77472729D01*
X109703274Y-77189940D01*
X109061643Y-76823108D01*
X108289298Y-76379299D01*
X107398336Y-75865574D01*
X107206084Y-75754446D01*
X115677515Y-75754446D01*
X115678165Y-76964403D01*
X115681753Y-78267698D01*
X115709068Y-85469072D01*
X128037101Y-92623615D01*
X128529063Y-92909124D01*
X130030631Y-93780557D01*
X131491334Y-94628276D01*
X132899258Y-95445366D01*
X134242487Y-96224913D01*
X135509108Y-96960002D01*
X136687207Y-97643718D01*
X137764869Y-98269148D01*
X138730179Y-98829376D01*
X139571224Y-99317487D01*
X140276090Y-99726569D01*
X140832861Y-100049705D01*
X141229624Y-100279981D01*
X141454465Y-100410483D01*
X142543796Y-101042808D01*
X142539441Y-93795261D01*
X142537823Y-91102609D01*
X144369122Y-91102609D01*
X144371485Y-92374783D01*
X144376310Y-93846738D01*
X144403628Y-101030397D01*
X145067854Y-100647505D01*
X145732080Y-100264614D01*
X145732080Y-93958835D01*
X145732405Y-93030774D01*
X145733578Y-92260324D01*
X147662459Y-92260324D01*
X147662650Y-93230141D01*
X147664098Y-94299067D01*
X147666830Y-95449812D01*
X147670877Y-96665083D01*
X147687495Y-101042808D01*
X147698189Y-103859859D01*
X159654256Y-110798445D01*
X159760207Y-110859932D01*
X161256207Y-111728091D01*
X162719817Y-112577400D01*
X164138414Y-113400539D01*
X165499381Y-114190187D01*
X166790096Y-114939023D01*
X167997939Y-115639728D01*
X169110291Y-116284979D01*
X170114531Y-116867457D01*
X170998039Y-117379841D01*
X171748196Y-117814810D01*
X172352381Y-118165044D01*
X172797974Y-118423222D01*
X173072355Y-118582023D01*
X174534388Y-119427015D01*
X174509892Y-112926049D01*
X176342588Y-112926049D01*
X176342888Y-114109264D01*
X176343898Y-115217449D01*
X176345562Y-116233414D01*
X176347825Y-117139969D01*
X176350632Y-117919923D01*
X176353926Y-118556086D01*
X176357653Y-119031269D01*
X176361756Y-119328279D01*
X176366053Y-119427015D01*
X176366180Y-119429928D01*
X176472548Y-119371136D01*
X176724033Y-119224752D01*
X177083848Y-119012649D01*
X177515581Y-118756562D01*
X177982817Y-118478224D01*
X178449143Y-118199369D01*
X178878144Y-117941732D01*
X179233408Y-117727046D01*
X179478520Y-117577046D01*
X179577067Y-117513465D01*
X179570666Y-117492816D01*
X179439340Y-117384428D01*
X179177445Y-117212091D01*
X178823825Y-117002172D01*
X178620893Y-116883806D01*
X178242807Y-116632989D01*
X178005737Y-116412670D01*
X177869528Y-116188614D01*
X177866256Y-116180513D01*
X177833511Y-116061097D01*
X177805844Y-115873498D01*
X177782869Y-115601674D01*
X177764204Y-115229587D01*
X177749464Y-114741194D01*
X177738266Y-114120457D01*
X177730224Y-113351335D01*
X177724955Y-112417788D01*
X177722076Y-111303775D01*
X177721201Y-109993256D01*
X177721201Y-108109696D01*
X179634172Y-108109696D01*
X179634172Y-115271261D01*
X183498747Y-117513465D01*
X193026643Y-123041495D01*
X193057904Y-123059633D01*
X194611374Y-123960737D01*
X196114220Y-124832084D01*
X197556199Y-125667751D01*
X198927065Y-126461818D01*
X200216572Y-127208362D01*
X201414476Y-127901463D01*
X202510532Y-128535199D01*
X203494494Y-129103648D01*
X204356117Y-129600889D01*
X205085157Y-130021001D01*
X205671368Y-130358063D01*
X206104505Y-130606152D01*
X206374323Y-130759348D01*
X206470577Y-130811730D01*
X206475538Y-130778275D01*
X206483980Y-130562349D01*
X206491892Y-130160927D01*
X206499149Y-129591289D01*
X206505628Y-128870721D01*
X206511207Y-128016504D01*
X206515760Y-127045922D01*
X206519166Y-125976257D01*
X206521300Y-124824792D01*
X206522038Y-123608811D01*
X206522038Y-123606773D01*
X208328733Y-123606773D01*
X208329106Y-124304001D01*
X208331499Y-125485353D01*
X208335944Y-126592234D01*
X208342248Y-127607384D01*
X208350222Y-128513543D01*
X208359674Y-129293451D01*
X208370413Y-129929848D01*
X208382248Y-130405473D01*
X208394987Y-130703067D01*
X208408440Y-130805370D01*
X208420158Y-130801593D01*
X208573746Y-130723101D01*
X208880859Y-130553104D01*
X209318989Y-130304789D01*
X209865629Y-129991343D01*
X210498275Y-129625949D01*
X211194420Y-129221796D01*
X211931556Y-128792068D01*
X212687179Y-128349951D01*
X213438781Y-127908632D01*
X214163856Y-127481297D01*
X214839899Y-127081130D01*
X215444402Y-126721319D01*
X215954860Y-126415049D01*
X216348767Y-126175507D01*
X216603615Y-126015877D01*
X216696899Y-125949346D01*
X216642661Y-125899836D01*
X216425276Y-125753348D01*
X216061236Y-125524317D01*
X215571391Y-125225436D01*
X214976592Y-124869402D01*
X214297689Y-124468908D01*
X213555532Y-124036651D01*
X212974963Y-123700045D01*
X212258935Y-123283392D01*
X211612637Y-122905631D01*
X211058949Y-122580221D01*
X210620750Y-122320618D01*
X210320922Y-122140280D01*
X210182345Y-122052665D01*
X210128746Y-122005136D01*
X210080397Y-121927570D01*
X210042145Y-121801357D01*
X210012173Y-121603085D01*
X209988663Y-121309340D01*
X209969796Y-120896711D01*
X209953755Y-120341783D01*
X209938720Y-119621146D01*
X209922875Y-118711385D01*
X209869737Y-115520853D01*
X209099235Y-115961335D01*
X208328733Y-116401817D01*
X208328733Y-116405892D01*
X208328733Y-123606773D01*
X206522038Y-123606773D01*
X206522038Y-116405892D01*
X193147741Y-108677011D01*
X193145022Y-108675440D01*
X191590738Y-107777507D01*
X190086729Y-106909151D01*
X188643281Y-106076284D01*
X187270677Y-105284821D01*
X185979204Y-104540672D01*
X184779146Y-103849752D01*
X183680787Y-103217972D01*
X182694414Y-102651246D01*
X181830310Y-102155486D01*
X181098760Y-101736606D01*
X180510051Y-101400517D01*
X180074465Y-101153134D01*
X179802289Y-101000367D01*
X179703808Y-100948131D01*
X179697399Y-100978433D01*
X179685927Y-101188985D01*
X179675173Y-101585433D01*
X179665306Y-102150444D01*
X179656495Y-102866685D01*
X179648908Y-103716824D01*
X179642714Y-104683527D01*
X179638081Y-105749462D01*
X179635177Y-106897296D01*
X179634172Y-108109696D01*
X177721201Y-108109696D01*
X177721201Y-104152892D01*
X177033567Y-104543190D01*
X176345932Y-104933487D01*
X176342772Y-112186834D01*
X176342588Y-112926049D01*
X174509892Y-112926049D01*
X174507083Y-112180513D01*
X174479779Y-104934010D01*
X161101078Y-97202159D01*
X161090415Y-97195996D01*
X159536605Y-96298170D01*
X158033492Y-95429939D01*
X156591329Y-94597212D01*
X155220372Y-93805896D01*
X153930874Y-93061901D01*
X152733089Y-92371135D01*
X151637271Y-91739508D01*
X150653674Y-91172927D01*
X149792553Y-90677301D01*
X149064161Y-90258540D01*
X148478753Y-89922551D01*
X148046583Y-89675243D01*
X147777904Y-89522526D01*
X147682971Y-89470307D01*
X147679330Y-89503135D01*
X147673676Y-89718013D01*
X147669133Y-90118463D01*
X147665730Y-90687193D01*
X147663495Y-91406911D01*
X147662459Y-92260324D01*
X145733578Y-92260324D01*
X145734268Y-91807133D01*
X145738090Y-90770454D01*
X145744216Y-89905390D01*
X145752993Y-89196595D01*
X145764767Y-88628722D01*
X145779883Y-88186426D01*
X145798687Y-87854359D01*
X145805677Y-87781761D01*
X148709490Y-87781761D01*
X148794326Y-87838189D01*
X149053299Y-87995128D01*
X149476247Y-88246423D01*
X150052918Y-88586107D01*
X150773060Y-89008209D01*
X151626420Y-89506760D01*
X152602746Y-90075791D01*
X153691787Y-90709333D01*
X154883289Y-91401417D01*
X156167001Y-92146073D01*
X157532670Y-92937331D01*
X158970045Y-93769224D01*
X160468872Y-94635781D01*
X162018900Y-95531034D01*
X163518572Y-96396735D01*
X165020712Y-97263793D01*
X166462420Y-98095899D01*
X167833392Y-98887109D01*
X169123324Y-99631481D01*
X170321913Y-100323068D01*
X171418856Y-100955929D01*
X172403849Y-101524118D01*
X173266589Y-102021693D01*
X173996772Y-102442708D01*
X174584095Y-102781219D01*
X175018254Y-103031284D01*
X175288946Y-103186958D01*
X175385868Y-103242297D01*
X175387952Y-103242806D01*
X175507899Y-103196548D01*
X175771603Y-103064036D01*
X176141862Y-102864697D01*
X176581474Y-102617958D01*
X177721201Y-101966617D01*
X177721367Y-100580596D01*
X177723840Y-100152158D01*
X177738862Y-99652172D01*
X177771456Y-99294543D01*
X177786421Y-99224075D01*
X180725993Y-99224075D01*
X180780993Y-99264354D01*
X181007466Y-99405528D01*
X181399539Y-99641901D01*
X181946851Y-99967419D01*
X182639040Y-100376024D01*
X183465744Y-100861663D01*
X184416601Y-101418279D01*
X185481248Y-102039818D01*
X186649325Y-102720224D01*
X187910469Y-103453441D01*
X189254317Y-104233415D01*
X190670509Y-105054089D01*
X192148683Y-105909409D01*
X193678475Y-106793319D01*
X194836454Y-107461937D01*
X196340063Y-108330180D01*
X197789102Y-109166974D01*
X199172776Y-109966086D01*
X200480295Y-110721279D01*
X201700866Y-111426320D01*
X202823696Y-112074972D01*
X203837993Y-112661000D01*
X204732965Y-113178169D01*
X205497819Y-113620245D01*
X206121763Y-113980991D01*
X206594004Y-114254174D01*
X206903751Y-114433557D01*
X207040211Y-114512905D01*
X207425385Y-114740022D01*
X208647561Y-114026864D01*
X209869737Y-113313705D01*
X209922875Y-108783419D01*
X209929162Y-108202939D01*
X209936827Y-107288816D01*
X209941026Y-106459337D01*
X209941115Y-106377154D01*
X211729570Y-106377154D01*
X211729570Y-113579129D01*
X211729570Y-120781103D01*
X220633063Y-125949346D01*
X225084051Y-128533027D01*
X226630284Y-129430464D01*
X228133406Y-130302661D01*
X229576302Y-131139696D01*
X230948675Y-131935605D01*
X232240226Y-132684422D01*
X233440657Y-133380182D01*
X234539669Y-134016920D01*
X235526965Y-134588670D01*
X236392245Y-135089467D01*
X237125213Y-135513346D01*
X237715569Y-135854342D01*
X238153015Y-136106489D01*
X238427253Y-136263822D01*
X238527984Y-136320377D01*
X238536845Y-136288473D01*
X238551482Y-136075313D01*
X238565196Y-135676734D01*
X238577775Y-135109887D01*
X238589004Y-134391919D01*
X238598670Y-133539981D01*
X238606560Y-132571222D01*
X238612460Y-131502791D01*
X238616156Y-130351838D01*
X238617436Y-129135511D01*
X238617436Y-121936642D01*
X240424130Y-121936642D01*
X240424130Y-129137366D01*
X240424500Y-129830882D01*
X240426888Y-131012084D01*
X240431330Y-132118871D01*
X240437633Y-133133975D01*
X240445607Y-134040130D01*
X240455060Y-134820069D01*
X240465800Y-135456524D01*
X240477638Y-135932229D01*
X240490381Y-136229915D01*
X240503837Y-136332318D01*
X240601593Y-136280203D01*
X240872981Y-136127122D01*
X241307631Y-135879023D01*
X241895252Y-135541851D01*
X242625556Y-135121552D01*
X243488252Y-134624072D01*
X244473051Y-134055356D01*
X245569663Y-133421350D01*
X246767799Y-132728001D01*
X248057170Y-131981253D01*
X249427485Y-131187053D01*
X250868455Y-130351346D01*
X252369790Y-129480078D01*
X253921201Y-128579195D01*
X267258858Y-120831844D01*
X267286170Y-113653167D01*
X267288442Y-112979344D01*
X267290973Y-111798785D01*
X267291510Y-110692283D01*
X267290147Y-109677147D01*
X267286979Y-108770689D01*
X267282098Y-107990222D01*
X267275598Y-107353057D01*
X267267574Y-106876506D01*
X267258118Y-106577880D01*
X267247324Y-106474491D01*
X267247290Y-106474492D01*
X267148468Y-106527158D01*
X266875987Y-106680323D01*
X266440125Y-106928077D01*
X265851163Y-107264508D01*
X265119380Y-107683705D01*
X264255058Y-108179756D01*
X263268476Y-108746751D01*
X262169914Y-109378777D01*
X260969652Y-110069923D01*
X259677970Y-110814279D01*
X258305149Y-111605933D01*
X256861468Y-112438973D01*
X255357208Y-113307488D01*
X253802648Y-114205566D01*
X240461200Y-121915220D01*
X240424130Y-121936642D01*
X238617436Y-121936642D01*
X238617436Y-121915220D01*
X227059904Y-115237358D01*
X225896334Y-114565048D01*
X224430660Y-113718167D01*
X223000352Y-112891703D01*
X221618928Y-112093466D01*
X220299903Y-111331267D01*
X219056792Y-110612917D01*
X217903112Y-109946226D01*
X216852379Y-109339006D01*
X215918109Y-108799066D01*
X215113817Y-108334217D01*
X214453019Y-107952270D01*
X213949232Y-107661036D01*
X213615971Y-107468325D01*
X211729570Y-106377154D01*
X209941115Y-106377154D01*
X209941812Y-105735819D01*
X209939238Y-105139574D01*
X209934367Y-104768812D01*
X212797315Y-104768812D01*
X212797837Y-104769616D01*
X212901572Y-104836339D01*
X213177755Y-105002281D01*
X213615420Y-105261065D01*
X214203601Y-105606314D01*
X214931333Y-106031650D01*
X215787650Y-106530697D01*
X216761586Y-107097076D01*
X217842175Y-107724411D01*
X219018452Y-108406323D01*
X220279451Y-109136436D01*
X221614206Y-109908371D01*
X223011752Y-110715753D01*
X224461123Y-111552202D01*
X225741755Y-112290916D01*
X227205202Y-113135147D01*
X228629693Y-113956969D01*
X230002031Y-114748766D01*
X231309018Y-115502922D01*
X232537458Y-116211820D01*
X233674153Y-116867843D01*
X234705906Y-117463375D01*
X235619520Y-117990799D01*
X236401798Y-118442499D01*
X237039543Y-118810858D01*
X237519556Y-119088260D01*
X237828642Y-119267087D01*
X239537338Y-120256980D01*
X247924876Y-115408563D01*
X248369724Y-115151420D01*
X249766037Y-114344291D01*
X251208351Y-113510581D01*
X252671107Y-112665064D01*
X254128749Y-111822513D01*
X255555719Y-110997699D01*
X256926458Y-110205397D01*
X258215409Y-109460378D01*
X259397015Y-108777416D01*
X260445717Y-108171282D01*
X261335958Y-107656751D01*
X266359501Y-104753356D01*
X252949972Y-97004031D01*
X239540443Y-89254706D01*
X230155007Y-94677838D01*
X226166387Y-96982559D01*
X226158563Y-96987080D01*
X224605316Y-97885002D01*
X223103322Y-98754105D01*
X221662800Y-99588438D01*
X220293971Y-100382047D01*
X219007055Y-101128981D01*
X217812274Y-101823287D01*
X216719847Y-102459012D01*
X215739995Y-103030203D01*
X214882939Y-103530909D01*
X214158900Y-103955176D01*
X213578097Y-104297053D01*
X213150752Y-104550586D01*
X212887084Y-104709823D01*
X212797315Y-104768812D01*
X209934367Y-104768812D01*
X209933357Y-104691917D01*
X209924220Y-104414160D01*
X209911880Y-104327619D01*
X209879220Y-104367451D01*
X209730861Y-104551856D01*
X209488047Y-104855280D01*
X209175106Y-105247303D01*
X208816365Y-105697503D01*
X208676558Y-105871944D01*
X208207731Y-106430388D01*
X207811927Y-106841798D01*
X207454805Y-107130571D01*
X207102026Y-107321104D01*
X206719252Y-107437792D01*
X206272143Y-107505031D01*
X206134519Y-107517338D01*
X205452687Y-107515351D01*
X204884102Y-107405646D01*
X204450750Y-107198011D01*
X204174617Y-106902233D01*
X204077687Y-106528100D01*
X204093219Y-106397149D01*
X204161478Y-106210103D01*
X204299574Y-105964258D01*
X204524134Y-105633549D01*
X204851785Y-105191912D01*
X205299153Y-104613280D01*
X205302936Y-104608442D01*
X205684164Y-104112972D01*
X206010832Y-103673498D01*
X206263410Y-103317538D01*
X206422369Y-103072604D01*
X206468181Y-102966214D01*
X206467165Y-102964768D01*
X206352953Y-102881692D01*
X206082734Y-102712315D01*
X205684774Y-102472811D01*
X205187342Y-102179354D01*
X204618702Y-101848119D01*
X204007123Y-101495279D01*
X203380871Y-101137009D01*
X202768213Y-100789482D01*
X202197415Y-100468873D01*
X201696745Y-100191356D01*
X201294469Y-99973104D01*
X201018854Y-99830292D01*
X200898167Y-99779094D01*
X200797169Y-99797810D01*
X200512057Y-99864338D01*
X200075000Y-99972079D01*
X199515001Y-100113764D01*
X198861058Y-100282123D01*
X198142173Y-100469889D01*
X197581024Y-100615520D01*
X196658921Y-100842370D01*
X195901250Y-101007398D01*
X195283475Y-101113603D01*
X194781060Y-101163982D01*
X194369469Y-101161534D01*
X194024166Y-101109256D01*
X193720615Y-101010146D01*
X193364469Y-100801010D01*
X193119158Y-100490625D01*
X193057570Y-100137337D01*
X193176398Y-99769604D01*
X193472333Y-99415881D01*
X193942070Y-99104627D01*
X193953480Y-99099708D01*
X194132353Y-99042167D01*
X194176128Y-99029375D01*
X203835956Y-99029375D01*
X203934424Y-99130524D01*
X204192496Y-99316653D01*
X204588506Y-99573583D01*
X205100787Y-99887132D01*
X205707671Y-100243121D01*
X205918307Y-100364221D01*
X206481388Y-100686187D01*
X206970910Y-100963551D01*
X207359280Y-101180834D01*
X207618902Y-101322555D01*
X207722184Y-101373236D01*
X207772655Y-101356947D01*
X207893168Y-101265693D01*
X208079825Y-101081223D01*
X208345818Y-100788876D01*
X208704339Y-100373993D01*
X209168580Y-99821916D01*
X209751733Y-99117984D01*
X209999279Y-98816341D01*
X210418196Y-98298985D01*
X210777280Y-97846685D01*
X211057423Y-97483959D01*
X211239520Y-97235326D01*
X211304465Y-97125306D01*
X211251924Y-97057376D01*
X211065344Y-97017239D01*
X210913383Y-97042816D01*
X210586833Y-97118582D01*
X210117612Y-97236540D01*
X209534736Y-97388650D01*
X208867220Y-97566876D01*
X208144077Y-97763176D01*
X207394322Y-97969514D01*
X206646971Y-98177849D01*
X205931038Y-98380142D01*
X205275538Y-98568356D01*
X204709484Y-98734450D01*
X204261893Y-98870386D01*
X203961778Y-98968126D01*
X203838155Y-99019629D01*
X203835956Y-99029375D01*
X194176128Y-99029375D01*
X194496791Y-98935670D01*
X195029971Y-98784730D01*
X195715074Y-98593861D01*
X196535278Y-98367575D01*
X197473763Y-98110388D01*
X198513707Y-97826811D01*
X199638289Y-97521360D01*
X200830690Y-97198548D01*
X202074086Y-96862888D01*
X203351659Y-96518894D01*
X204646586Y-96171080D01*
X205942046Y-95823959D01*
X207221220Y-95482045D01*
X208467285Y-95149851D01*
X209663421Y-94831892D01*
X210792807Y-94532680D01*
X211838621Y-94256731D01*
X212784044Y-94008556D01*
X213612254Y-93792670D01*
X214306429Y-93613586D01*
X214849750Y-93475819D01*
X215225395Y-93383881D01*
X215416543Y-93342287D01*
X215512371Y-93329956D01*
X215998935Y-93333381D01*
X216511547Y-93420771D01*
X216971365Y-93574007D01*
X217299546Y-93774975D01*
X217490824Y-94017111D01*
X217574758Y-94394370D01*
X217574532Y-94406743D01*
X217557959Y-94505173D01*
X217507983Y-94633218D01*
X217414557Y-94804424D01*
X217267634Y-95032342D01*
X217057168Y-95330519D01*
X216773112Y-95712505D01*
X216405421Y-96191847D01*
X215944048Y-96782095D01*
X215672678Y-97125306D01*
X215378947Y-97496798D01*
X214700072Y-98349503D01*
X213897376Y-99353760D01*
X213440866Y-99924999D01*
X212787725Y-100745257D01*
X212187252Y-101502901D01*
X211650955Y-102183214D01*
X211190341Y-102771481D01*
X210816916Y-103252986D01*
X210542188Y-103613012D01*
X210377662Y-103836845D01*
X210334847Y-103909769D01*
X210389141Y-103882634D01*
X210613210Y-103759210D01*
X210992524Y-103545318D01*
X211510915Y-103250315D01*
X212152220Y-102883556D01*
X212900273Y-102454399D01*
X213738908Y-101972199D01*
X214651961Y-101446312D01*
X215623266Y-100886094D01*
X216636657Y-100300903D01*
X217675970Y-99700093D01*
X218725039Y-99093022D01*
X219767698Y-98489045D01*
X220787783Y-97897519D01*
X221769129Y-97327800D01*
X222695569Y-96789244D01*
X223550938Y-96291207D01*
X224319073Y-95843045D01*
X224983806Y-95454116D01*
X225528972Y-95133774D01*
X225938407Y-94891376D01*
X226195946Y-94736279D01*
X226285422Y-94677838D01*
X226280041Y-94673386D01*
X226148081Y-94591647D01*
X225850538Y-94414323D01*
X225402279Y-94150041D01*
X224818171Y-93807429D01*
X224113079Y-93395111D01*
X223301871Y-92921715D01*
X222399411Y-92395867D01*
X221420567Y-91826194D01*
X220380206Y-91221321D01*
X219293192Y-90589876D01*
X218174393Y-89940484D01*
X217038674Y-89281773D01*
X215900903Y-88622369D01*
X214775946Y-87970898D01*
X213678668Y-87335986D01*
X212623937Y-86726260D01*
X211626618Y-86150347D01*
X210701577Y-85616873D01*
X209863682Y-85134464D01*
X209127799Y-84711747D01*
X208508793Y-84357349D01*
X208021531Y-84079895D01*
X207417806Y-83737600D01*
X203164229Y-86195489D01*
X194083939Y-91442449D01*
X192562097Y-92322241D01*
X191060196Y-93191331D01*
X189619226Y-94025985D01*
X188249452Y-94820224D01*
X186961141Y-95568066D01*
X185764558Y-96263533D01*
X184669968Y-96900642D01*
X183687638Y-97473414D01*
X182827833Y-97975870D01*
X182100819Y-98402027D01*
X181516863Y-98745907D01*
X181086229Y-99001528D01*
X180819184Y-99162911D01*
X180725993Y-99224075D01*
X177786421Y-99224075D01*
X177826120Y-99037130D01*
X177907350Y-98837789D01*
X177950678Y-98775919D01*
X178033747Y-98693164D01*
X178164789Y-98586629D01*
X178353549Y-98450463D01*
X178609772Y-98278811D01*
X178943201Y-98065821D01*
X179363582Y-97805641D01*
X179880658Y-97492416D01*
X180504175Y-97120294D01*
X181243876Y-96683423D01*
X182109506Y-96175949D01*
X183110809Y-95592020D01*
X184257530Y-94925782D01*
X185559414Y-94171382D01*
X187026204Y-93322968D01*
X188667645Y-92374687D01*
X189285109Y-92018074D01*
X190644184Y-91232763D01*
X191946781Y-90479564D01*
X193181297Y-89765212D01*
X194336128Y-89096443D01*
X195399670Y-88479992D01*
X196360319Y-87922594D01*
X197206472Y-87430984D01*
X197926523Y-87011898D01*
X198508871Y-86672070D01*
X198941910Y-86418236D01*
X199214036Y-86257130D01*
X199313646Y-86195489D01*
X199248521Y-86149631D01*
X199012901Y-86004225D01*
X198617991Y-85766881D01*
X198076935Y-85445243D01*
X197402880Y-85046951D01*
X196608969Y-84579647D01*
X195708347Y-84050975D01*
X194714159Y-83468576D01*
X193639549Y-82840092D01*
X192497662Y-82173165D01*
X191301644Y-81475437D01*
X190064638Y-80754550D01*
X188799789Y-80018147D01*
X187520242Y-79273869D01*
X186239142Y-78529359D01*
X184969633Y-77792258D01*
X183724861Y-77070209D01*
X182517969Y-76370854D01*
X181362103Y-75701834D01*
X180270407Y-75070792D01*
X179256025Y-74485371D01*
X178332104Y-73953211D01*
X177511786Y-73481955D01*
X176808218Y-73079245D01*
X176234543Y-72752723D01*
X175803907Y-72510032D01*
X175529454Y-72358813D01*
X175424329Y-72306709D01*
X175401197Y-72317649D01*
X175222687Y-72415926D01*
X174878885Y-72610324D01*
X174382270Y-72893614D01*
X173745317Y-73258568D01*
X172980507Y-73697960D01*
X172100315Y-74204560D01*
X171117220Y-74771142D01*
X170043699Y-75390476D01*
X168892231Y-76055336D01*
X167675292Y-76758492D01*
X166405361Y-77492718D01*
X165094916Y-78250785D01*
X163756433Y-79025465D01*
X162402391Y-79809531D01*
X161045268Y-80595754D01*
X159697540Y-81376907D01*
X158371687Y-82145761D01*
X157080185Y-82895088D01*
X155835512Y-83617662D01*
X154650146Y-84306253D01*
X153536565Y-84953634D01*
X152507246Y-85552577D01*
X151574668Y-86095853D01*
X150751307Y-86576236D01*
X150049642Y-86986497D01*
X149482150Y-87319408D01*
X149061309Y-87567741D01*
X148799596Y-87724268D01*
X148709490Y-87781761D01*
X145805677Y-87781761D01*
X145821525Y-87617176D01*
X145848744Y-87459530D01*
X145880689Y-87366075D01*
X145917565Y-87323266D01*
X146042688Y-87223081D01*
X146259782Y-87072543D01*
X146575973Y-86867423D01*
X146998387Y-86603491D01*
X147534153Y-86276519D01*
X148190396Y-85882277D01*
X148974244Y-85416537D01*
X149892823Y-84875070D01*
X150953260Y-84253647D01*
X152162682Y-83548039D01*
X153528216Y-82754017D01*
X155056988Y-81867352D01*
X156756125Y-80883815D01*
X158632754Y-79799177D01*
X171236211Y-72519261D01*
X171237284Y-71795625D01*
X171237282Y-71775153D01*
X171226190Y-71426475D01*
X171198044Y-71189854D01*
X171158649Y-71115501D01*
X171010987Y-71198261D01*
X170683846Y-71384573D01*
X170202008Y-71660565D01*
X169578022Y-72018981D01*
X168824435Y-72452563D01*
X167953796Y-72954057D01*
X166978652Y-73516204D01*
X165911551Y-74131749D01*
X164765041Y-74793436D01*
X163551669Y-75494008D01*
X162283984Y-76226210D01*
X160974533Y-76982783D01*
X159635865Y-77756473D01*
X158280526Y-78540023D01*
X156921065Y-79326176D01*
X155570030Y-80107676D01*
X154239969Y-80877267D01*
X152943429Y-81627692D01*
X151692958Y-82351696D01*
X150501105Y-83042021D01*
X149380416Y-83691411D01*
X148343440Y-84292611D01*
X147402725Y-84838363D01*
X146570818Y-85321412D01*
X145860268Y-85734500D01*
X145283621Y-86070372D01*
X144853427Y-86321772D01*
X144582232Y-86481442D01*
X144482586Y-86542127D01*
X144461111Y-86586320D01*
X144437098Y-86719551D01*
X144417032Y-86950495D01*
X144400728Y-87291910D01*
X144387998Y-87756556D01*
X144378658Y-88357190D01*
X144372523Y-89106571D01*
X144369406Y-90017457D01*
X144369122Y-91102609D01*
X142537823Y-91102609D01*
X142535087Y-86547713D01*
X129189049Y-78842692D01*
X127664274Y-77962521D01*
X126159748Y-77094286D01*
X124715345Y-76260992D01*
X123341394Y-75468588D01*
X122048222Y-74723021D01*
X120846155Y-74030239D01*
X119745522Y-73396191D01*
X118756649Y-72826823D01*
X117889865Y-72328084D01*
X117155496Y-71905922D01*
X116563870Y-71566284D01*
X116125315Y-71315119D01*
X115850157Y-71158374D01*
X115748725Y-71101997D01*
X115743940Y-71108186D01*
X115727789Y-71261452D01*
X115713634Y-71608887D01*
X115701610Y-72136087D01*
X115691852Y-72828648D01*
X115684494Y-73672164D01*
X115679670Y-74652232D01*
X115678308Y-75348721D01*
X115677515Y-75754446D01*
X107206084Y-75754446D01*
X106400856Y-75288997D01*
X105308956Y-74656632D01*
X104134736Y-73975542D01*
X102890295Y-73252790D01*
X101587729Y-72495440D01*
X100239139Y-71710555D01*
X98856623Y-70905198D01*
X97452279Y-70086433D01*
X96038206Y-69261322D01*
X94626503Y-68436930D01*
X93229267Y-67620320D01*
X91858599Y-66818554D01*
X90526596Y-66038697D01*
X89245357Y-65287812D01*
X88026981Y-64572961D01*
X86883566Y-63901209D01*
X85827211Y-63279619D01*
X84870014Y-62715253D01*
X84024074Y-62215176D01*
X83301490Y-61786451D01*
X82714360Y-61436141D01*
X82274783Y-61171309D01*
X81994858Y-60999018D01*
X81886683Y-60926333D01*
X81647561Y-60657617D01*
X81647561Y-52013811D01*
X81647620Y-51148834D01*
X83455453Y-51148834D01*
X83455468Y-52562174D01*
X83456680Y-59766123D01*
X96279990Y-67205453D01*
X97279307Y-67785175D01*
X98784515Y-68658283D01*
X100239102Y-69501920D01*
X101631965Y-70309654D01*
X102952004Y-71075049D01*
X104188116Y-71791672D01*
X105329200Y-72453088D01*
X106364154Y-73052864D01*
X107281876Y-73584564D01*
X108071265Y-74041756D01*
X108721218Y-74418005D01*
X109220635Y-74706877D01*
X109558413Y-74901938D01*
X109723450Y-74996753D01*
X110343601Y-75348721D01*
X110316292Y-68106308D01*
X110307436Y-65757606D01*
X112276425Y-65757606D01*
X112277450Y-66911800D01*
X112280913Y-68128529D01*
X112308231Y-75309771D01*
X113077539Y-74871001D01*
X113846848Y-74432232D01*
X113848041Y-71700151D01*
X113849079Y-69325518D01*
X116848282Y-69325518D01*
X116853767Y-69351296D01*
X116928249Y-69421466D01*
X117085683Y-69536937D01*
X117333322Y-69702014D01*
X117678419Y-69921000D01*
X118128226Y-70198200D01*
X118689996Y-70537917D01*
X119370981Y-70944455D01*
X120178435Y-71422119D01*
X121119610Y-71975211D01*
X122201758Y-72608037D01*
X123432132Y-73324899D01*
X124817986Y-74130102D01*
X126366570Y-75027949D01*
X128085139Y-76022745D01*
X129980944Y-77118794D01*
X131433762Y-77958078D01*
X132937669Y-78826364D01*
X134382534Y-79660042D01*
X135757947Y-80453126D01*
X137053494Y-81199632D01*
X138258765Y-81893572D01*
X139363347Y-82528961D01*
X140356829Y-83099814D01*
X141228800Y-83600143D01*
X141968846Y-84023965D01*
X142566558Y-84365292D01*
X143011522Y-84618139D01*
X143293328Y-84776520D01*
X143401562Y-84834449D01*
X143408475Y-84834221D01*
X143552522Y-84772233D01*
X143863249Y-84612539D01*
X144326250Y-84363215D01*
X144927117Y-84032339D01*
X145651446Y-83627988D01*
X146484829Y-83158239D01*
X147412861Y-82631170D01*
X148421135Y-82054857D01*
X149495244Y-81437378D01*
X150620783Y-80786811D01*
X150778884Y-80695187D01*
X152143946Y-79904257D01*
X153620887Y-79048764D01*
X155172738Y-78150106D01*
X156762531Y-77229684D01*
X158353296Y-76308896D01*
X159908065Y-75409141D01*
X161389869Y-74551818D01*
X162761739Y-73758327D01*
X163986706Y-73050066D01*
X170285266Y-69409171D01*
X156972481Y-61718191D01*
X155485747Y-60860079D01*
X153978830Y-59991979D01*
X152530416Y-59159252D01*
X151150953Y-58367836D01*
X149850890Y-57623668D01*
X148640672Y-56932686D01*
X147530750Y-56300826D01*
X146531569Y-55734026D01*
X145653578Y-55238223D01*
X144907225Y-54819354D01*
X144302957Y-54483357D01*
X143851222Y-54236169D01*
X143562468Y-54083727D01*
X143447143Y-54031969D01*
X143445402Y-54032233D01*
X143323624Y-54091543D01*
X143031379Y-54249634D01*
X142581296Y-54499244D01*
X141986002Y-54833112D01*
X141258125Y-55243978D01*
X140410296Y-55724580D01*
X139455141Y-56267657D01*
X138405289Y-56865950D01*
X137273368Y-57512195D01*
X136072007Y-58199134D01*
X134813835Y-58919504D01*
X133511479Y-59666045D01*
X132177569Y-60431496D01*
X130824731Y-61208596D01*
X129465596Y-61990083D01*
X128112790Y-62768698D01*
X126778944Y-63537179D01*
X125476684Y-64288265D01*
X124218639Y-65014695D01*
X123017438Y-65709208D01*
X121885710Y-66364544D01*
X120836082Y-66973441D01*
X119881182Y-67528638D01*
X119033640Y-68022875D01*
X118306084Y-68448890D01*
X117711141Y-68799423D01*
X117261441Y-69067213D01*
X116969612Y-69244998D01*
X116848282Y-69325518D01*
X113849079Y-69325518D01*
X113849235Y-68968071D01*
X114194632Y-68696562D01*
X114220139Y-68678781D01*
X114413849Y-68558217D01*
X114776791Y-68340229D01*
X115297857Y-68031297D01*
X115965941Y-67637900D01*
X116769935Y-67166518D01*
X117698731Y-66623629D01*
X118741224Y-66015714D01*
X119886305Y-65349251D01*
X121122867Y-64630720D01*
X122439804Y-63866601D01*
X123826007Y-63063372D01*
X125270371Y-62227513D01*
X126761787Y-61365504D01*
X138983544Y-54305957D01*
X139011289Y-49877147D01*
X139015441Y-49140749D01*
X139018868Y-48144744D01*
X139018146Y-47335200D01*
X139012888Y-46696178D01*
X139002707Y-46211737D01*
X138987216Y-45865937D01*
X138966029Y-45642837D01*
X138938756Y-45526496D01*
X138905013Y-45500974D01*
X138896548Y-45505049D01*
X138748914Y-45586680D01*
X138433192Y-45765785D01*
X137961960Y-46035092D01*
X137347797Y-46387325D01*
X136603283Y-46815210D01*
X135740995Y-47311474D01*
X134773512Y-47868841D01*
X133713413Y-48480038D01*
X132573278Y-49137789D01*
X131365684Y-49834822D01*
X130103210Y-50563861D01*
X128798436Y-51317632D01*
X127463939Y-52088861D01*
X126112300Y-52870274D01*
X124756095Y-53654596D01*
X123407905Y-54434553D01*
X122080308Y-55202871D01*
X120785882Y-55952275D01*
X119537206Y-56675492D01*
X118346860Y-57365246D01*
X117227422Y-58014264D01*
X116191470Y-58615271D01*
X115251584Y-59160993D01*
X114420342Y-59644155D01*
X113710323Y-60057484D01*
X113134106Y-60393705D01*
X112704268Y-60645544D01*
X112433391Y-60805726D01*
X112334051Y-60866977D01*
X112326745Y-60904908D01*
X112314297Y-61129465D01*
X112303388Y-61539529D01*
X112294146Y-62117534D01*
X112286700Y-62845912D01*
X112281179Y-63707095D01*
X112277712Y-64683515D01*
X112276425Y-65757606D01*
X110307436Y-65757606D01*
X110288984Y-60863895D01*
X97057603Y-53213901D01*
X95643637Y-52396414D01*
X94139492Y-51526850D01*
X92693779Y-50691129D01*
X91316962Y-49895295D01*
X90019505Y-49145397D01*
X88811874Y-48447481D01*
X87704531Y-47807592D01*
X86707943Y-47231778D01*
X85832572Y-46726085D01*
X85088883Y-46296560D01*
X84487342Y-45949249D01*
X84038411Y-45690199D01*
X83752555Y-45525456D01*
X83640239Y-45461066D01*
X83621180Y-45452410D01*
X83587312Y-45454140D01*
X83558357Y-45493190D01*
X83533935Y-45584161D01*
X83513667Y-45741657D01*
X83497173Y-45980279D01*
X83484072Y-46314632D01*
X83473984Y-46759318D01*
X83466531Y-47328939D01*
X83461331Y-48038099D01*
X83458004Y-48901399D01*
X83456172Y-49933444D01*
X83455453Y-51148834D01*
X81647620Y-51148834D01*
X81647622Y-51123925D01*
X81648158Y-49673919D01*
X81649489Y-48414922D01*
X81651907Y-47333064D01*
X81655704Y-46414479D01*
X81661170Y-45645298D01*
X81668597Y-45011654D01*
X81678276Y-44499680D01*
X81690497Y-44095508D01*
X81703688Y-43823727D01*
X84687894Y-43823727D01*
X84696267Y-43852346D01*
X84783234Y-43905477D01*
X85046476Y-44060790D01*
X85474201Y-44310999D01*
X86055906Y-44650013D01*
X86781086Y-45071741D01*
X87639238Y-45570094D01*
X88619859Y-46138980D01*
X89712445Y-46772309D01*
X90906494Y-47463991D01*
X92191500Y-48207935D01*
X93556962Y-48998052D01*
X94992375Y-49828249D01*
X96487237Y-50692438D01*
X98031043Y-51584527D01*
X99386907Y-52367376D01*
X100886299Y-53231981D01*
X102327059Y-54061610D01*
X103698746Y-54850300D01*
X104990920Y-55592089D01*
X106193138Y-56281013D01*
X107294960Y-56911108D01*
X108285944Y-57476413D01*
X109155649Y-57970963D01*
X109893633Y-58388795D01*
X110489455Y-58723947D01*
X110932674Y-58970455D01*
X111212848Y-59122357D01*
X111319537Y-59173688D01*
X111331507Y-59168688D01*
X111486559Y-59085273D01*
X111809197Y-58904716D01*
X112286871Y-58634259D01*
X112907032Y-58281145D01*
X113657128Y-57852615D01*
X114524612Y-57355910D01*
X115496933Y-56798272D01*
X116561541Y-56186943D01*
X117705887Y-55529166D01*
X118917421Y-54832181D01*
X120183592Y-54103230D01*
X121491852Y-53349555D01*
X122829650Y-52578398D01*
X124184437Y-51797000D01*
X125543663Y-51012604D01*
X126894778Y-50232450D01*
X128225233Y-49463782D01*
X129522477Y-48713840D01*
X130773962Y-47989866D01*
X131967136Y-47299102D01*
X133089451Y-46648790D01*
X134128356Y-46046171D01*
X135071302Y-45498487D01*
X135905740Y-45012981D01*
X136619118Y-44596893D01*
X137198889Y-44257465D01*
X137632501Y-44001940D01*
X137907405Y-43837558D01*
X138011051Y-43771562D01*
X138011126Y-43771443D01*
X137923769Y-43711370D01*
X137662610Y-43551175D01*
X137237820Y-43296799D01*
X136659570Y-42954181D01*
X135938029Y-42529263D01*
X135083369Y-42027984D01*
X134105758Y-41456284D01*
X133015368Y-40820105D01*
X131822369Y-40125386D01*
X130536930Y-39378068D01*
X129169223Y-38584091D01*
X127729417Y-37749396D01*
X126227682Y-36879923D01*
X124674190Y-35981612D01*
X111286240Y-28244799D01*
X97898871Y-35981021D01*
X97831164Y-36020148D01*
X95985840Y-37086847D01*
X94316177Y-38052764D01*
X92813848Y-38922864D01*
X91470527Y-39702110D01*
X90277884Y-40395469D01*
X89227593Y-41007904D01*
X88311326Y-41544381D01*
X87520755Y-42009865D01*
X86847553Y-42409321D01*
X86283392Y-42747713D01*
X85819944Y-43030006D01*
X85448882Y-43261166D01*
X85161879Y-43446156D01*
X84950606Y-43589943D01*
X84806736Y-43697490D01*
X84721941Y-43773763D01*
X84687894Y-43823727D01*
X81703688Y-43823727D01*
X81705554Y-43785270D01*
X81723736Y-43555098D01*
X81745335Y-43391125D01*
X81770641Y-43279483D01*
X81799948Y-43206305D01*
X81833544Y-43157722D01*
X81872019Y-43129083D01*
X82079576Y-42997720D01*
X82455895Y-42769347D01*
X82990970Y-42449813D01*
X83674794Y-42044964D01*
X84497362Y-41560649D01*
X85448666Y-41002716D01*
X86518700Y-40377012D01*
X87697458Y-39689385D01*
X88974934Y-38945683D01*
X90341120Y-38151754D01*
X91786012Y-37313445D01*
X93299602Y-36436604D01*
X94871884Y-35527079D01*
X96492852Y-34590719D01*
X97849447Y-33807966D01*
X99873645Y-32641479D01*
X101720071Y-31579415D01*
X103392144Y-30619842D01*
X104893283Y-29760827D01*
X106226905Y-29000438D01*
X107396431Y-28336742D01*
X108405279Y-27767809D01*
X109256867Y-27291704D01*
X109954615Y-26906497D01*
X110501942Y-26610255D01*
X110902265Y-26401046D01*
X111159004Y-26276937D01*
X111275579Y-26235997D01*
X111292483Y-26235600D01*
X111327821Y-26232858D01*
X111361643Y-26231271D01*
X111402016Y-26235412D01*
X111457011Y-26249850D01*
X111534697Y-26279156D01*
X111643142Y-26327901D01*
X111790416Y-26400655D01*
X111984588Y-26501990D01*
X112233727Y-26636476D01*
X112545901Y-26808683D01*
X112929181Y-27023183D01*
X113391635Y-27284545D01*
X113941332Y-27597342D01*
X114586341Y-27966143D01*
X115334732Y-28395519D01*
X116194573Y-28890040D01*
X117173934Y-29454279D01*
X118280883Y-30092804D01*
X119523490Y-30810187D01*
X120909824Y-31610999D01*
X122447954Y-32499811D01*
X124145949Y-33481192D01*
X126011878Y-34559714D01*
X128053811Y-35739947D01*
X129279998Y-36448983D01*
X131103374Y-37504772D01*
X132750896Y-38460710D01*
X134228040Y-39320043D01*
X135540282Y-40086015D01*
X136693100Y-40761873D01*
X137691969Y-41350863D01*
X138542366Y-41856231D01*
X139249767Y-42281221D01*
X139819649Y-42629080D01*
X140257489Y-42903054D01*
X140568763Y-43106388D01*
X140758947Y-43242329D01*
X140833518Y-43314121D01*
X140857265Y-43419346D01*
X140885759Y-43734549D01*
X140887423Y-43771443D01*
X140908931Y-44248470D01*
G37*
%LPC*%
D12*
X23895935Y-41840905D03*
X109164685Y-37719030D03*
X209177185Y-37719030D03*
X294445935Y-41840905D03*
X106783435Y-112087780D03*
X24695935Y-111287780D03*
X293645935Y-111287780D03*
X63920935Y-74628405D03*
X254420935Y-74628405D03*
X159170935Y-74628405D03*
X209177185Y-112087780D03*
%LPD*%
M02*
