G04 #@! TF.GenerationSoftware,KiCad,Pcbnew,8.0.5*
G04 #@! TF.CreationDate,2024-09-18T07:56:29+09:00*
G04 #@! TF.ProjectId,SandyLP_Plate_Bottom,53616e64-794c-4505-9f50-6c6174655f42,v.0*
G04 #@! TF.SameCoordinates,Original*
G04 #@! TF.FileFunction,AssemblyDrawing,Top*
%FSLAX46Y46*%
G04 Gerber Fmt 4.6, Leading zero omitted, Abs format (unit mm)*
G04 Created by KiCad (PCBNEW 8.0.5) date 2024-09-18 07:56:29*
%MOMM*%
%LPD*%
G01*
G04 APERTURE LIST*
%ADD10C,0.150000*%
G04 APERTURE END LIST*
D10*
X20967363Y-42295724D02*
X20967363Y-41295724D01*
X20967363Y-41771914D02*
X21538791Y-41771914D01*
X21538791Y-42295724D02*
X21538791Y-41295724D01*
X21776887Y-42390962D02*
X22538791Y-42390962D01*
X22776887Y-42295724D02*
X22776887Y-41295724D01*
X22776887Y-41676676D02*
X22872125Y-41629057D01*
X22872125Y-41629057D02*
X23062601Y-41629057D01*
X23062601Y-41629057D02*
X23157839Y-41676676D01*
X23157839Y-41676676D02*
X23205458Y-41724295D01*
X23205458Y-41724295D02*
X23253077Y-41819533D01*
X23253077Y-41819533D02*
X23253077Y-42105247D01*
X23253077Y-42105247D02*
X23205458Y-42200485D01*
X23205458Y-42200485D02*
X23157839Y-42248105D01*
X23157839Y-42248105D02*
X23062601Y-42295724D01*
X23062601Y-42295724D02*
X22872125Y-42295724D01*
X22872125Y-42295724D02*
X22776887Y-42248105D01*
X23538792Y-41629057D02*
X23919744Y-41629057D01*
X23681649Y-41295724D02*
X23681649Y-42152866D01*
X23681649Y-42152866D02*
X23729268Y-42248105D01*
X23729268Y-42248105D02*
X23824506Y-42295724D01*
X23824506Y-42295724D02*
X23919744Y-42295724D01*
X24253078Y-42295724D02*
X24253078Y-41629057D01*
X24253078Y-41724295D02*
X24300697Y-41676676D01*
X24300697Y-41676676D02*
X24395935Y-41629057D01*
X24395935Y-41629057D02*
X24538792Y-41629057D01*
X24538792Y-41629057D02*
X24634030Y-41676676D01*
X24634030Y-41676676D02*
X24681649Y-41771914D01*
X24681649Y-41771914D02*
X24681649Y-42295724D01*
X24681649Y-41771914D02*
X24729268Y-41676676D01*
X24729268Y-41676676D02*
X24824506Y-41629057D01*
X24824506Y-41629057D02*
X24967363Y-41629057D01*
X24967363Y-41629057D02*
X25062602Y-41676676D01*
X25062602Y-41676676D02*
X25110221Y-41771914D01*
X25110221Y-41771914D02*
X25110221Y-42295724D01*
X25348316Y-42390962D02*
X26110220Y-42390962D01*
X26872125Y-42295724D02*
X26300697Y-42295724D01*
X26586411Y-42295724D02*
X26586411Y-41295724D01*
X26586411Y-41295724D02*
X26491173Y-41438581D01*
X26491173Y-41438581D02*
X26395935Y-41533819D01*
X26395935Y-41533819D02*
X26300697Y-41581438D01*
X106236113Y-38173849D02*
X106236113Y-37173849D01*
X106236113Y-37650039D02*
X106807541Y-37650039D01*
X106807541Y-38173849D02*
X106807541Y-37173849D01*
X107045637Y-38269087D02*
X107807541Y-38269087D01*
X108045637Y-38173849D02*
X108045637Y-37173849D01*
X108045637Y-37554801D02*
X108140875Y-37507182D01*
X108140875Y-37507182D02*
X108331351Y-37507182D01*
X108331351Y-37507182D02*
X108426589Y-37554801D01*
X108426589Y-37554801D02*
X108474208Y-37602420D01*
X108474208Y-37602420D02*
X108521827Y-37697658D01*
X108521827Y-37697658D02*
X108521827Y-37983372D01*
X108521827Y-37983372D02*
X108474208Y-38078610D01*
X108474208Y-38078610D02*
X108426589Y-38126230D01*
X108426589Y-38126230D02*
X108331351Y-38173849D01*
X108331351Y-38173849D02*
X108140875Y-38173849D01*
X108140875Y-38173849D02*
X108045637Y-38126230D01*
X108807542Y-37507182D02*
X109188494Y-37507182D01*
X108950399Y-37173849D02*
X108950399Y-38030991D01*
X108950399Y-38030991D02*
X108998018Y-38126230D01*
X108998018Y-38126230D02*
X109093256Y-38173849D01*
X109093256Y-38173849D02*
X109188494Y-38173849D01*
X109521828Y-38173849D02*
X109521828Y-37507182D01*
X109521828Y-37602420D02*
X109569447Y-37554801D01*
X109569447Y-37554801D02*
X109664685Y-37507182D01*
X109664685Y-37507182D02*
X109807542Y-37507182D01*
X109807542Y-37507182D02*
X109902780Y-37554801D01*
X109902780Y-37554801D02*
X109950399Y-37650039D01*
X109950399Y-37650039D02*
X109950399Y-38173849D01*
X109950399Y-37650039D02*
X109998018Y-37554801D01*
X109998018Y-37554801D02*
X110093256Y-37507182D01*
X110093256Y-37507182D02*
X110236113Y-37507182D01*
X110236113Y-37507182D02*
X110331352Y-37554801D01*
X110331352Y-37554801D02*
X110378971Y-37650039D01*
X110378971Y-37650039D02*
X110378971Y-38173849D01*
X110617066Y-38269087D02*
X111378970Y-38269087D01*
X111569447Y-37269087D02*
X111617066Y-37221468D01*
X111617066Y-37221468D02*
X111712304Y-37173849D01*
X111712304Y-37173849D02*
X111950399Y-37173849D01*
X111950399Y-37173849D02*
X112045637Y-37221468D01*
X112045637Y-37221468D02*
X112093256Y-37269087D01*
X112093256Y-37269087D02*
X112140875Y-37364325D01*
X112140875Y-37364325D02*
X112140875Y-37459563D01*
X112140875Y-37459563D02*
X112093256Y-37602420D01*
X112093256Y-37602420D02*
X111521828Y-38173849D01*
X111521828Y-38173849D02*
X112140875Y-38173849D01*
X206248613Y-38173849D02*
X206248613Y-37173849D01*
X206248613Y-37650039D02*
X206820041Y-37650039D01*
X206820041Y-38173849D02*
X206820041Y-37173849D01*
X207058137Y-38269087D02*
X207820041Y-38269087D01*
X208058137Y-38173849D02*
X208058137Y-37173849D01*
X208058137Y-37554801D02*
X208153375Y-37507182D01*
X208153375Y-37507182D02*
X208343851Y-37507182D01*
X208343851Y-37507182D02*
X208439089Y-37554801D01*
X208439089Y-37554801D02*
X208486708Y-37602420D01*
X208486708Y-37602420D02*
X208534327Y-37697658D01*
X208534327Y-37697658D02*
X208534327Y-37983372D01*
X208534327Y-37983372D02*
X208486708Y-38078610D01*
X208486708Y-38078610D02*
X208439089Y-38126230D01*
X208439089Y-38126230D02*
X208343851Y-38173849D01*
X208343851Y-38173849D02*
X208153375Y-38173849D01*
X208153375Y-38173849D02*
X208058137Y-38126230D01*
X208820042Y-37507182D02*
X209200994Y-37507182D01*
X208962899Y-37173849D02*
X208962899Y-38030991D01*
X208962899Y-38030991D02*
X209010518Y-38126230D01*
X209010518Y-38126230D02*
X209105756Y-38173849D01*
X209105756Y-38173849D02*
X209200994Y-38173849D01*
X209534328Y-38173849D02*
X209534328Y-37507182D01*
X209534328Y-37602420D02*
X209581947Y-37554801D01*
X209581947Y-37554801D02*
X209677185Y-37507182D01*
X209677185Y-37507182D02*
X209820042Y-37507182D01*
X209820042Y-37507182D02*
X209915280Y-37554801D01*
X209915280Y-37554801D02*
X209962899Y-37650039D01*
X209962899Y-37650039D02*
X209962899Y-38173849D01*
X209962899Y-37650039D02*
X210010518Y-37554801D01*
X210010518Y-37554801D02*
X210105756Y-37507182D01*
X210105756Y-37507182D02*
X210248613Y-37507182D01*
X210248613Y-37507182D02*
X210343852Y-37554801D01*
X210343852Y-37554801D02*
X210391471Y-37650039D01*
X210391471Y-37650039D02*
X210391471Y-38173849D01*
X210629566Y-38269087D02*
X211391470Y-38269087D01*
X211534328Y-37173849D02*
X212153375Y-37173849D01*
X212153375Y-37173849D02*
X211820042Y-37554801D01*
X211820042Y-37554801D02*
X211962899Y-37554801D01*
X211962899Y-37554801D02*
X212058137Y-37602420D01*
X212058137Y-37602420D02*
X212105756Y-37650039D01*
X212105756Y-37650039D02*
X212153375Y-37745277D01*
X212153375Y-37745277D02*
X212153375Y-37983372D01*
X212153375Y-37983372D02*
X212105756Y-38078610D01*
X212105756Y-38078610D02*
X212058137Y-38126230D01*
X212058137Y-38126230D02*
X211962899Y-38173849D01*
X211962899Y-38173849D02*
X211677185Y-38173849D01*
X211677185Y-38173849D02*
X211581947Y-38126230D01*
X211581947Y-38126230D02*
X211534328Y-38078610D01*
X291517363Y-42295724D02*
X291517363Y-41295724D01*
X291517363Y-41771914D02*
X292088791Y-41771914D01*
X292088791Y-42295724D02*
X292088791Y-41295724D01*
X292326887Y-42390962D02*
X293088791Y-42390962D01*
X293326887Y-42295724D02*
X293326887Y-41295724D01*
X293326887Y-41676676D02*
X293422125Y-41629057D01*
X293422125Y-41629057D02*
X293612601Y-41629057D01*
X293612601Y-41629057D02*
X293707839Y-41676676D01*
X293707839Y-41676676D02*
X293755458Y-41724295D01*
X293755458Y-41724295D02*
X293803077Y-41819533D01*
X293803077Y-41819533D02*
X293803077Y-42105247D01*
X293803077Y-42105247D02*
X293755458Y-42200485D01*
X293755458Y-42200485D02*
X293707839Y-42248105D01*
X293707839Y-42248105D02*
X293612601Y-42295724D01*
X293612601Y-42295724D02*
X293422125Y-42295724D01*
X293422125Y-42295724D02*
X293326887Y-42248105D01*
X294088792Y-41629057D02*
X294469744Y-41629057D01*
X294231649Y-41295724D02*
X294231649Y-42152866D01*
X294231649Y-42152866D02*
X294279268Y-42248105D01*
X294279268Y-42248105D02*
X294374506Y-42295724D01*
X294374506Y-42295724D02*
X294469744Y-42295724D01*
X294803078Y-42295724D02*
X294803078Y-41629057D01*
X294803078Y-41724295D02*
X294850697Y-41676676D01*
X294850697Y-41676676D02*
X294945935Y-41629057D01*
X294945935Y-41629057D02*
X295088792Y-41629057D01*
X295088792Y-41629057D02*
X295184030Y-41676676D01*
X295184030Y-41676676D02*
X295231649Y-41771914D01*
X295231649Y-41771914D02*
X295231649Y-42295724D01*
X295231649Y-41771914D02*
X295279268Y-41676676D01*
X295279268Y-41676676D02*
X295374506Y-41629057D01*
X295374506Y-41629057D02*
X295517363Y-41629057D01*
X295517363Y-41629057D02*
X295612602Y-41676676D01*
X295612602Y-41676676D02*
X295660221Y-41771914D01*
X295660221Y-41771914D02*
X295660221Y-42295724D01*
X295898316Y-42390962D02*
X296660220Y-42390962D01*
X297326887Y-41629057D02*
X297326887Y-42295724D01*
X297088792Y-41248105D02*
X296850697Y-41962390D01*
X296850697Y-41962390D02*
X297469744Y-41962390D01*
X103854863Y-112542599D02*
X103854863Y-111542599D01*
X103854863Y-112018789D02*
X104426291Y-112018789D01*
X104426291Y-112542599D02*
X104426291Y-111542599D01*
X104664387Y-112637837D02*
X105426291Y-112637837D01*
X105664387Y-112542599D02*
X105664387Y-111542599D01*
X105664387Y-111923551D02*
X105759625Y-111875932D01*
X105759625Y-111875932D02*
X105950101Y-111875932D01*
X105950101Y-111875932D02*
X106045339Y-111923551D01*
X106045339Y-111923551D02*
X106092958Y-111971170D01*
X106092958Y-111971170D02*
X106140577Y-112066408D01*
X106140577Y-112066408D02*
X106140577Y-112352122D01*
X106140577Y-112352122D02*
X106092958Y-112447360D01*
X106092958Y-112447360D02*
X106045339Y-112494980D01*
X106045339Y-112494980D02*
X105950101Y-112542599D01*
X105950101Y-112542599D02*
X105759625Y-112542599D01*
X105759625Y-112542599D02*
X105664387Y-112494980D01*
X106426292Y-111875932D02*
X106807244Y-111875932D01*
X106569149Y-111542599D02*
X106569149Y-112399741D01*
X106569149Y-112399741D02*
X106616768Y-112494980D01*
X106616768Y-112494980D02*
X106712006Y-112542599D01*
X106712006Y-112542599D02*
X106807244Y-112542599D01*
X107140578Y-112542599D02*
X107140578Y-111875932D01*
X107140578Y-111971170D02*
X107188197Y-111923551D01*
X107188197Y-111923551D02*
X107283435Y-111875932D01*
X107283435Y-111875932D02*
X107426292Y-111875932D01*
X107426292Y-111875932D02*
X107521530Y-111923551D01*
X107521530Y-111923551D02*
X107569149Y-112018789D01*
X107569149Y-112018789D02*
X107569149Y-112542599D01*
X107569149Y-112018789D02*
X107616768Y-111923551D01*
X107616768Y-111923551D02*
X107712006Y-111875932D01*
X107712006Y-111875932D02*
X107854863Y-111875932D01*
X107854863Y-111875932D02*
X107950102Y-111923551D01*
X107950102Y-111923551D02*
X107997721Y-112018789D01*
X107997721Y-112018789D02*
X107997721Y-112542599D01*
X108235816Y-112637837D02*
X108997720Y-112637837D01*
X109283435Y-112542599D02*
X109473911Y-112542599D01*
X109473911Y-112542599D02*
X109569149Y-112494980D01*
X109569149Y-112494980D02*
X109616768Y-112447360D01*
X109616768Y-112447360D02*
X109712006Y-112304503D01*
X109712006Y-112304503D02*
X109759625Y-112114027D01*
X109759625Y-112114027D02*
X109759625Y-111733075D01*
X109759625Y-111733075D02*
X109712006Y-111637837D01*
X109712006Y-111637837D02*
X109664387Y-111590218D01*
X109664387Y-111590218D02*
X109569149Y-111542599D01*
X109569149Y-111542599D02*
X109378673Y-111542599D01*
X109378673Y-111542599D02*
X109283435Y-111590218D01*
X109283435Y-111590218D02*
X109235816Y-111637837D01*
X109235816Y-111637837D02*
X109188197Y-111733075D01*
X109188197Y-111733075D02*
X109188197Y-111971170D01*
X109188197Y-111971170D02*
X109235816Y-112066408D01*
X109235816Y-112066408D02*
X109283435Y-112114027D01*
X109283435Y-112114027D02*
X109378673Y-112161646D01*
X109378673Y-112161646D02*
X109569149Y-112161646D01*
X109569149Y-112161646D02*
X109664387Y-112114027D01*
X109664387Y-112114027D02*
X109712006Y-112066408D01*
X109712006Y-112066408D02*
X109759625Y-111971170D01*
X21767363Y-111742599D02*
X21767363Y-110742599D01*
X21767363Y-111218789D02*
X22338791Y-111218789D01*
X22338791Y-111742599D02*
X22338791Y-110742599D01*
X22576887Y-111837837D02*
X23338791Y-111837837D01*
X23576887Y-111742599D02*
X23576887Y-110742599D01*
X23576887Y-111123551D02*
X23672125Y-111075932D01*
X23672125Y-111075932D02*
X23862601Y-111075932D01*
X23862601Y-111075932D02*
X23957839Y-111123551D01*
X23957839Y-111123551D02*
X24005458Y-111171170D01*
X24005458Y-111171170D02*
X24053077Y-111266408D01*
X24053077Y-111266408D02*
X24053077Y-111552122D01*
X24053077Y-111552122D02*
X24005458Y-111647360D01*
X24005458Y-111647360D02*
X23957839Y-111694980D01*
X23957839Y-111694980D02*
X23862601Y-111742599D01*
X23862601Y-111742599D02*
X23672125Y-111742599D01*
X23672125Y-111742599D02*
X23576887Y-111694980D01*
X24338792Y-111075932D02*
X24719744Y-111075932D01*
X24481649Y-110742599D02*
X24481649Y-111599741D01*
X24481649Y-111599741D02*
X24529268Y-111694980D01*
X24529268Y-111694980D02*
X24624506Y-111742599D01*
X24624506Y-111742599D02*
X24719744Y-111742599D01*
X25053078Y-111742599D02*
X25053078Y-111075932D01*
X25053078Y-111171170D02*
X25100697Y-111123551D01*
X25100697Y-111123551D02*
X25195935Y-111075932D01*
X25195935Y-111075932D02*
X25338792Y-111075932D01*
X25338792Y-111075932D02*
X25434030Y-111123551D01*
X25434030Y-111123551D02*
X25481649Y-111218789D01*
X25481649Y-111218789D02*
X25481649Y-111742599D01*
X25481649Y-111218789D02*
X25529268Y-111123551D01*
X25529268Y-111123551D02*
X25624506Y-111075932D01*
X25624506Y-111075932D02*
X25767363Y-111075932D01*
X25767363Y-111075932D02*
X25862602Y-111123551D01*
X25862602Y-111123551D02*
X25910221Y-111218789D01*
X25910221Y-111218789D02*
X25910221Y-111742599D01*
X26148316Y-111837837D02*
X26910220Y-111837837D01*
X27291173Y-111171170D02*
X27195935Y-111123551D01*
X27195935Y-111123551D02*
X27148316Y-111075932D01*
X27148316Y-111075932D02*
X27100697Y-110980694D01*
X27100697Y-110980694D02*
X27100697Y-110933075D01*
X27100697Y-110933075D02*
X27148316Y-110837837D01*
X27148316Y-110837837D02*
X27195935Y-110790218D01*
X27195935Y-110790218D02*
X27291173Y-110742599D01*
X27291173Y-110742599D02*
X27481649Y-110742599D01*
X27481649Y-110742599D02*
X27576887Y-110790218D01*
X27576887Y-110790218D02*
X27624506Y-110837837D01*
X27624506Y-110837837D02*
X27672125Y-110933075D01*
X27672125Y-110933075D02*
X27672125Y-110980694D01*
X27672125Y-110980694D02*
X27624506Y-111075932D01*
X27624506Y-111075932D02*
X27576887Y-111123551D01*
X27576887Y-111123551D02*
X27481649Y-111171170D01*
X27481649Y-111171170D02*
X27291173Y-111171170D01*
X27291173Y-111171170D02*
X27195935Y-111218789D01*
X27195935Y-111218789D02*
X27148316Y-111266408D01*
X27148316Y-111266408D02*
X27100697Y-111361646D01*
X27100697Y-111361646D02*
X27100697Y-111552122D01*
X27100697Y-111552122D02*
X27148316Y-111647360D01*
X27148316Y-111647360D02*
X27195935Y-111694980D01*
X27195935Y-111694980D02*
X27291173Y-111742599D01*
X27291173Y-111742599D02*
X27481649Y-111742599D01*
X27481649Y-111742599D02*
X27576887Y-111694980D01*
X27576887Y-111694980D02*
X27624506Y-111647360D01*
X27624506Y-111647360D02*
X27672125Y-111552122D01*
X27672125Y-111552122D02*
X27672125Y-111361646D01*
X27672125Y-111361646D02*
X27624506Y-111266408D01*
X27624506Y-111266408D02*
X27576887Y-111218789D01*
X27576887Y-111218789D02*
X27481649Y-111171170D01*
X290241173Y-111742599D02*
X290241173Y-110742599D01*
X290241173Y-111218789D02*
X290812601Y-111218789D01*
X290812601Y-111742599D02*
X290812601Y-110742599D01*
X291050697Y-111837837D02*
X291812601Y-111837837D01*
X292050697Y-111742599D02*
X292050697Y-110742599D01*
X292050697Y-111123551D02*
X292145935Y-111075932D01*
X292145935Y-111075932D02*
X292336411Y-111075932D01*
X292336411Y-111075932D02*
X292431649Y-111123551D01*
X292431649Y-111123551D02*
X292479268Y-111171170D01*
X292479268Y-111171170D02*
X292526887Y-111266408D01*
X292526887Y-111266408D02*
X292526887Y-111552122D01*
X292526887Y-111552122D02*
X292479268Y-111647360D01*
X292479268Y-111647360D02*
X292431649Y-111694980D01*
X292431649Y-111694980D02*
X292336411Y-111742599D01*
X292336411Y-111742599D02*
X292145935Y-111742599D01*
X292145935Y-111742599D02*
X292050697Y-111694980D01*
X292812602Y-111075932D02*
X293193554Y-111075932D01*
X292955459Y-110742599D02*
X292955459Y-111599741D01*
X292955459Y-111599741D02*
X293003078Y-111694980D01*
X293003078Y-111694980D02*
X293098316Y-111742599D01*
X293098316Y-111742599D02*
X293193554Y-111742599D01*
X293526888Y-111742599D02*
X293526888Y-111075932D01*
X293526888Y-111171170D02*
X293574507Y-111123551D01*
X293574507Y-111123551D02*
X293669745Y-111075932D01*
X293669745Y-111075932D02*
X293812602Y-111075932D01*
X293812602Y-111075932D02*
X293907840Y-111123551D01*
X293907840Y-111123551D02*
X293955459Y-111218789D01*
X293955459Y-111218789D02*
X293955459Y-111742599D01*
X293955459Y-111218789D02*
X294003078Y-111123551D01*
X294003078Y-111123551D02*
X294098316Y-111075932D01*
X294098316Y-111075932D02*
X294241173Y-111075932D01*
X294241173Y-111075932D02*
X294336412Y-111123551D01*
X294336412Y-111123551D02*
X294384031Y-111218789D01*
X294384031Y-111218789D02*
X294384031Y-111742599D01*
X294622126Y-111837837D02*
X295384030Y-111837837D01*
X296145935Y-111742599D02*
X295574507Y-111742599D01*
X295860221Y-111742599D02*
X295860221Y-110742599D01*
X295860221Y-110742599D02*
X295764983Y-110885456D01*
X295764983Y-110885456D02*
X295669745Y-110980694D01*
X295669745Y-110980694D02*
X295574507Y-111028313D01*
X297098316Y-111742599D02*
X296526888Y-111742599D01*
X296812602Y-111742599D02*
X296812602Y-110742599D01*
X296812602Y-110742599D02*
X296717364Y-110885456D01*
X296717364Y-110885456D02*
X296622126Y-110980694D01*
X296622126Y-110980694D02*
X296526888Y-111028313D01*
X60992363Y-75083224D02*
X60992363Y-74083224D01*
X60992363Y-74559414D02*
X61563791Y-74559414D01*
X61563791Y-75083224D02*
X61563791Y-74083224D01*
X61801887Y-75178462D02*
X62563791Y-75178462D01*
X62801887Y-75083224D02*
X62801887Y-74083224D01*
X62801887Y-74464176D02*
X62897125Y-74416557D01*
X62897125Y-74416557D02*
X63087601Y-74416557D01*
X63087601Y-74416557D02*
X63182839Y-74464176D01*
X63182839Y-74464176D02*
X63230458Y-74511795D01*
X63230458Y-74511795D02*
X63278077Y-74607033D01*
X63278077Y-74607033D02*
X63278077Y-74892747D01*
X63278077Y-74892747D02*
X63230458Y-74987985D01*
X63230458Y-74987985D02*
X63182839Y-75035605D01*
X63182839Y-75035605D02*
X63087601Y-75083224D01*
X63087601Y-75083224D02*
X62897125Y-75083224D01*
X62897125Y-75083224D02*
X62801887Y-75035605D01*
X63563792Y-74416557D02*
X63944744Y-74416557D01*
X63706649Y-74083224D02*
X63706649Y-74940366D01*
X63706649Y-74940366D02*
X63754268Y-75035605D01*
X63754268Y-75035605D02*
X63849506Y-75083224D01*
X63849506Y-75083224D02*
X63944744Y-75083224D01*
X64278078Y-75083224D02*
X64278078Y-74416557D01*
X64278078Y-74511795D02*
X64325697Y-74464176D01*
X64325697Y-74464176D02*
X64420935Y-74416557D01*
X64420935Y-74416557D02*
X64563792Y-74416557D01*
X64563792Y-74416557D02*
X64659030Y-74464176D01*
X64659030Y-74464176D02*
X64706649Y-74559414D01*
X64706649Y-74559414D02*
X64706649Y-75083224D01*
X64706649Y-74559414D02*
X64754268Y-74464176D01*
X64754268Y-74464176D02*
X64849506Y-74416557D01*
X64849506Y-74416557D02*
X64992363Y-74416557D01*
X64992363Y-74416557D02*
X65087602Y-74464176D01*
X65087602Y-74464176D02*
X65135221Y-74559414D01*
X65135221Y-74559414D02*
X65135221Y-75083224D01*
X65373316Y-75178462D02*
X66135220Y-75178462D01*
X66849506Y-74083224D02*
X66373316Y-74083224D01*
X66373316Y-74083224D02*
X66325697Y-74559414D01*
X66325697Y-74559414D02*
X66373316Y-74511795D01*
X66373316Y-74511795D02*
X66468554Y-74464176D01*
X66468554Y-74464176D02*
X66706649Y-74464176D01*
X66706649Y-74464176D02*
X66801887Y-74511795D01*
X66801887Y-74511795D02*
X66849506Y-74559414D01*
X66849506Y-74559414D02*
X66897125Y-74654652D01*
X66897125Y-74654652D02*
X66897125Y-74892747D01*
X66897125Y-74892747D02*
X66849506Y-74987985D01*
X66849506Y-74987985D02*
X66801887Y-75035605D01*
X66801887Y-75035605D02*
X66706649Y-75083224D01*
X66706649Y-75083224D02*
X66468554Y-75083224D01*
X66468554Y-75083224D02*
X66373316Y-75035605D01*
X66373316Y-75035605D02*
X66325697Y-74987985D01*
X251492363Y-75083224D02*
X251492363Y-74083224D01*
X251492363Y-74559414D02*
X252063791Y-74559414D01*
X252063791Y-75083224D02*
X252063791Y-74083224D01*
X252301887Y-75178462D02*
X253063791Y-75178462D01*
X253301887Y-75083224D02*
X253301887Y-74083224D01*
X253301887Y-74464176D02*
X253397125Y-74416557D01*
X253397125Y-74416557D02*
X253587601Y-74416557D01*
X253587601Y-74416557D02*
X253682839Y-74464176D01*
X253682839Y-74464176D02*
X253730458Y-74511795D01*
X253730458Y-74511795D02*
X253778077Y-74607033D01*
X253778077Y-74607033D02*
X253778077Y-74892747D01*
X253778077Y-74892747D02*
X253730458Y-74987985D01*
X253730458Y-74987985D02*
X253682839Y-75035605D01*
X253682839Y-75035605D02*
X253587601Y-75083224D01*
X253587601Y-75083224D02*
X253397125Y-75083224D01*
X253397125Y-75083224D02*
X253301887Y-75035605D01*
X254063792Y-74416557D02*
X254444744Y-74416557D01*
X254206649Y-74083224D02*
X254206649Y-74940366D01*
X254206649Y-74940366D02*
X254254268Y-75035605D01*
X254254268Y-75035605D02*
X254349506Y-75083224D01*
X254349506Y-75083224D02*
X254444744Y-75083224D01*
X254778078Y-75083224D02*
X254778078Y-74416557D01*
X254778078Y-74511795D02*
X254825697Y-74464176D01*
X254825697Y-74464176D02*
X254920935Y-74416557D01*
X254920935Y-74416557D02*
X255063792Y-74416557D01*
X255063792Y-74416557D02*
X255159030Y-74464176D01*
X255159030Y-74464176D02*
X255206649Y-74559414D01*
X255206649Y-74559414D02*
X255206649Y-75083224D01*
X255206649Y-74559414D02*
X255254268Y-74464176D01*
X255254268Y-74464176D02*
X255349506Y-74416557D01*
X255349506Y-74416557D02*
X255492363Y-74416557D01*
X255492363Y-74416557D02*
X255587602Y-74464176D01*
X255587602Y-74464176D02*
X255635221Y-74559414D01*
X255635221Y-74559414D02*
X255635221Y-75083224D01*
X255873316Y-75178462D02*
X256635220Y-75178462D01*
X256778078Y-74083224D02*
X257444744Y-74083224D01*
X257444744Y-74083224D02*
X257016173Y-75083224D01*
X156242363Y-75083224D02*
X156242363Y-74083224D01*
X156242363Y-74559414D02*
X156813791Y-74559414D01*
X156813791Y-75083224D02*
X156813791Y-74083224D01*
X157051887Y-75178462D02*
X157813791Y-75178462D01*
X158051887Y-75083224D02*
X158051887Y-74083224D01*
X158051887Y-74464176D02*
X158147125Y-74416557D01*
X158147125Y-74416557D02*
X158337601Y-74416557D01*
X158337601Y-74416557D02*
X158432839Y-74464176D01*
X158432839Y-74464176D02*
X158480458Y-74511795D01*
X158480458Y-74511795D02*
X158528077Y-74607033D01*
X158528077Y-74607033D02*
X158528077Y-74892747D01*
X158528077Y-74892747D02*
X158480458Y-74987985D01*
X158480458Y-74987985D02*
X158432839Y-75035605D01*
X158432839Y-75035605D02*
X158337601Y-75083224D01*
X158337601Y-75083224D02*
X158147125Y-75083224D01*
X158147125Y-75083224D02*
X158051887Y-75035605D01*
X158813792Y-74416557D02*
X159194744Y-74416557D01*
X158956649Y-74083224D02*
X158956649Y-74940366D01*
X158956649Y-74940366D02*
X159004268Y-75035605D01*
X159004268Y-75035605D02*
X159099506Y-75083224D01*
X159099506Y-75083224D02*
X159194744Y-75083224D01*
X159528078Y-75083224D02*
X159528078Y-74416557D01*
X159528078Y-74511795D02*
X159575697Y-74464176D01*
X159575697Y-74464176D02*
X159670935Y-74416557D01*
X159670935Y-74416557D02*
X159813792Y-74416557D01*
X159813792Y-74416557D02*
X159909030Y-74464176D01*
X159909030Y-74464176D02*
X159956649Y-74559414D01*
X159956649Y-74559414D02*
X159956649Y-75083224D01*
X159956649Y-74559414D02*
X160004268Y-74464176D01*
X160004268Y-74464176D02*
X160099506Y-74416557D01*
X160099506Y-74416557D02*
X160242363Y-74416557D01*
X160242363Y-74416557D02*
X160337602Y-74464176D01*
X160337602Y-74464176D02*
X160385221Y-74559414D01*
X160385221Y-74559414D02*
X160385221Y-75083224D01*
X160623316Y-75178462D02*
X161385220Y-75178462D01*
X162051887Y-74083224D02*
X161861411Y-74083224D01*
X161861411Y-74083224D02*
X161766173Y-74130843D01*
X161766173Y-74130843D02*
X161718554Y-74178462D01*
X161718554Y-74178462D02*
X161623316Y-74321319D01*
X161623316Y-74321319D02*
X161575697Y-74511795D01*
X161575697Y-74511795D02*
X161575697Y-74892747D01*
X161575697Y-74892747D02*
X161623316Y-74987985D01*
X161623316Y-74987985D02*
X161670935Y-75035605D01*
X161670935Y-75035605D02*
X161766173Y-75083224D01*
X161766173Y-75083224D02*
X161956649Y-75083224D01*
X161956649Y-75083224D02*
X162051887Y-75035605D01*
X162051887Y-75035605D02*
X162099506Y-74987985D01*
X162099506Y-74987985D02*
X162147125Y-74892747D01*
X162147125Y-74892747D02*
X162147125Y-74654652D01*
X162147125Y-74654652D02*
X162099506Y-74559414D01*
X162099506Y-74559414D02*
X162051887Y-74511795D01*
X162051887Y-74511795D02*
X161956649Y-74464176D01*
X161956649Y-74464176D02*
X161766173Y-74464176D01*
X161766173Y-74464176D02*
X161670935Y-74511795D01*
X161670935Y-74511795D02*
X161623316Y-74559414D01*
X161623316Y-74559414D02*
X161575697Y-74654652D01*
X205772423Y-112542599D02*
X205772423Y-111542599D01*
X205772423Y-112018789D02*
X206343851Y-112018789D01*
X206343851Y-112542599D02*
X206343851Y-111542599D01*
X206581947Y-112637837D02*
X207343851Y-112637837D01*
X207581947Y-112542599D02*
X207581947Y-111542599D01*
X207581947Y-111923551D02*
X207677185Y-111875932D01*
X207677185Y-111875932D02*
X207867661Y-111875932D01*
X207867661Y-111875932D02*
X207962899Y-111923551D01*
X207962899Y-111923551D02*
X208010518Y-111971170D01*
X208010518Y-111971170D02*
X208058137Y-112066408D01*
X208058137Y-112066408D02*
X208058137Y-112352122D01*
X208058137Y-112352122D02*
X208010518Y-112447360D01*
X208010518Y-112447360D02*
X207962899Y-112494980D01*
X207962899Y-112494980D02*
X207867661Y-112542599D01*
X207867661Y-112542599D02*
X207677185Y-112542599D01*
X207677185Y-112542599D02*
X207581947Y-112494980D01*
X208343852Y-111875932D02*
X208724804Y-111875932D01*
X208486709Y-111542599D02*
X208486709Y-112399741D01*
X208486709Y-112399741D02*
X208534328Y-112494980D01*
X208534328Y-112494980D02*
X208629566Y-112542599D01*
X208629566Y-112542599D02*
X208724804Y-112542599D01*
X209058138Y-112542599D02*
X209058138Y-111875932D01*
X209058138Y-111971170D02*
X209105757Y-111923551D01*
X209105757Y-111923551D02*
X209200995Y-111875932D01*
X209200995Y-111875932D02*
X209343852Y-111875932D01*
X209343852Y-111875932D02*
X209439090Y-111923551D01*
X209439090Y-111923551D02*
X209486709Y-112018789D01*
X209486709Y-112018789D02*
X209486709Y-112542599D01*
X209486709Y-112018789D02*
X209534328Y-111923551D01*
X209534328Y-111923551D02*
X209629566Y-111875932D01*
X209629566Y-111875932D02*
X209772423Y-111875932D01*
X209772423Y-111875932D02*
X209867662Y-111923551D01*
X209867662Y-111923551D02*
X209915281Y-112018789D01*
X209915281Y-112018789D02*
X209915281Y-112542599D01*
X210153376Y-112637837D02*
X210915280Y-112637837D01*
X211677185Y-112542599D02*
X211105757Y-112542599D01*
X211391471Y-112542599D02*
X211391471Y-111542599D01*
X211391471Y-111542599D02*
X211296233Y-111685456D01*
X211296233Y-111685456D02*
X211200995Y-111780694D01*
X211200995Y-111780694D02*
X211105757Y-111828313D01*
X212296233Y-111542599D02*
X212391471Y-111542599D01*
X212391471Y-111542599D02*
X212486709Y-111590218D01*
X212486709Y-111590218D02*
X212534328Y-111637837D01*
X212534328Y-111637837D02*
X212581947Y-111733075D01*
X212581947Y-111733075D02*
X212629566Y-111923551D01*
X212629566Y-111923551D02*
X212629566Y-112161646D01*
X212629566Y-112161646D02*
X212581947Y-112352122D01*
X212581947Y-112352122D02*
X212534328Y-112447360D01*
X212534328Y-112447360D02*
X212486709Y-112494980D01*
X212486709Y-112494980D02*
X212391471Y-112542599D01*
X212391471Y-112542599D02*
X212296233Y-112542599D01*
X212296233Y-112542599D02*
X212200995Y-112494980D01*
X212200995Y-112494980D02*
X212153376Y-112447360D01*
X212153376Y-112447360D02*
X212105757Y-112352122D01*
X212105757Y-112352122D02*
X212058138Y-112161646D01*
X212058138Y-112161646D02*
X212058138Y-111923551D01*
X212058138Y-111923551D02*
X212105757Y-111733075D01*
X212105757Y-111733075D02*
X212153376Y-111637837D01*
X212153376Y-111637837D02*
X212200995Y-111590218D01*
X212200995Y-111590218D02*
X212296233Y-111542599D01*
M02*
