G04 #@! TF.GenerationSoftware,KiCad,Pcbnew,8.0.5*
G04 #@! TF.CreationDate,2024-09-18T07:56:29+09:00*
G04 #@! TF.ProjectId,SandyLP_Plate_Bottom,53616e64-794c-4505-9f50-6c6174655f42,v.0*
G04 #@! TF.SameCoordinates,Original*
G04 #@! TF.FileFunction,Profile,NP*
%FSLAX46Y46*%
G04 Gerber Fmt 4.6, Leading zero omitted, Abs format (unit mm)*
G04 Created by KiCad (PCBNEW 8.0.5) date 2024-09-18 07:56:29*
%MOMM*%
%LPD*%
G01*
G04 APERTURE LIST*
G04 #@! TA.AperFunction,Profile*
%ADD10C,0.300000*%
G04 #@! TD*
G04 APERTURE END LIST*
D10*
X21408435Y-109997115D02*
X21408435Y-39209615D01*
X28070199Y-34447115D02*
X26170935Y-34447115D01*
X28670199Y-42647115D02*
X28670199Y-35047115D01*
X29270199Y-43247115D02*
X40445935Y-43247115D01*
X40297407Y-78029141D02*
X40297407Y-70729141D01*
X40897407Y-78629141D02*
X57873143Y-78629141D01*
X41045935Y-42647115D02*
X41045935Y-35047115D01*
X57873143Y-70129141D02*
X40897407Y-70129141D01*
X58473143Y-78029141D02*
X58473143Y-70729141D01*
X292120935Y-34447115D02*
X41645935Y-34447115D01*
X292120935Y-114759615D02*
X26170935Y-114759615D01*
X296883435Y-109997115D02*
X296883435Y-39209615D01*
X21408435Y-39209615D02*
G75*
G02*
X26170935Y-34447115I4762500J0D01*
G01*
X26170935Y-114759615D02*
G75*
G02*
X21408435Y-109997115I0J4762500D01*
G01*
X28070199Y-34447115D02*
G75*
G02*
X28670199Y-35047115I0J-600000D01*
G01*
X29270199Y-43247115D02*
G75*
G02*
X28670199Y-42647115I0J600000D01*
G01*
X40297407Y-70729141D02*
G75*
G02*
X40897407Y-70129141I600000J0D01*
G01*
X40897407Y-78629141D02*
G75*
G02*
X40297407Y-78029141I0J600000D01*
G01*
X41045935Y-35047115D02*
G75*
G02*
X41645935Y-34447115I600000J0D01*
G01*
X41045935Y-42647115D02*
G75*
G02*
X40445935Y-43247115I-600000J0D01*
G01*
X57873143Y-70129141D02*
G75*
G02*
X58473143Y-70729141I0J-600000D01*
G01*
X58473143Y-78029141D02*
G75*
G02*
X57873143Y-78629141I-600000J0D01*
G01*
X292120935Y-34447115D02*
G75*
G02*
X296883425Y-39209615I0J-4762490D01*
G01*
X296883435Y-109997115D02*
G75*
G02*
X292120935Y-114759605I-4762500J10D01*
G01*
M02*
