G04 #@! TF.GenerationSoftware,KiCad,Pcbnew,8.0.5*
G04 #@! TF.CreationDate,2024-09-18T07:56:29+09:00*
G04 #@! TF.ProjectId,SandyLP_Plate_Bottom,53616e64-794c-4505-9f50-6c6174655f42,v.0*
G04 #@! TF.SameCoordinates,Original*
G04 #@! TF.FileFunction,Copper,L1,Top*
G04 #@! TF.FilePolarity,Positive*
%FSLAX46Y46*%
G04 Gerber Fmt 4.6, Leading zero omitted, Abs format (unit mm)*
G04 Created by KiCad (PCBNEW 8.0.5) date 2024-09-18 07:56:29*
%MOMM*%
%LPD*%
G01*
G04 APERTURE LIST*
G04 APERTURE END LIST*
G04 #@! TA.AperFunction,NonConductor*
G36*
X28076632Y-34598462D02*
G01*
X28089722Y-34600185D01*
X28173615Y-34611230D01*
X28198572Y-34617916D01*
X28282906Y-34652849D01*
X28305280Y-34665766D01*
X28377701Y-34721338D01*
X28395971Y-34739609D01*
X28451534Y-34812022D01*
X28464456Y-34834404D01*
X28499385Y-34918734D01*
X28506073Y-34943699D01*
X28518852Y-35040787D01*
X28519699Y-35053706D01*
X28519699Y-42606098D01*
X28519684Y-42606144D01*
X28519686Y-42721031D01*
X28519687Y-42721036D01*
X28519687Y-42721037D01*
X28548532Y-42866031D01*
X28548533Y-42866034D01*
X28548535Y-42866041D01*
X28589511Y-42964959D01*
X28605109Y-43002613D01*
X28687244Y-43125533D01*
X28687245Y-43125534D01*
X28791781Y-43230068D01*
X28914697Y-43312197D01*
X28914699Y-43312198D01*
X28914702Y-43312200D01*
X29051285Y-43368773D01*
X29196281Y-43397615D01*
X29240263Y-43397615D01*
X40400057Y-43397615D01*
X40400083Y-43397617D01*
X40404900Y-43397617D01*
X40404961Y-43397636D01*
X40445944Y-43397634D01*
X40445944Y-43397635D01*
X40519861Y-43397632D01*
X40664854Y-43368783D01*
X40801433Y-43312204D01*
X40924351Y-43230069D01*
X41028884Y-43125532D01*
X41111016Y-43002611D01*
X41167591Y-42866030D01*
X41196434Y-42721036D01*
X41196435Y-42647119D01*
X41196435Y-42612768D01*
X41196435Y-37719030D01*
X106764685Y-37719030D01*
X106864685Y-38519031D01*
X107162235Y-38995110D01*
X107364685Y-39319030D01*
X108164685Y-39919030D01*
X108898017Y-40065696D01*
X109164683Y-40119030D01*
X109164685Y-40119030D01*
X109164687Y-40119030D01*
X109664685Y-40019030D01*
X110164685Y-39919030D01*
X110964685Y-39319030D01*
X111464685Y-38519030D01*
X111564685Y-37719030D01*
X206777185Y-37719030D01*
X206877185Y-38519031D01*
X207310865Y-39212918D01*
X207377185Y-39319030D01*
X208177185Y-39919030D01*
X208510518Y-39985696D01*
X209177183Y-40119030D01*
X209177185Y-40119030D01*
X209177187Y-40119030D01*
X209677185Y-40019030D01*
X210177185Y-39919030D01*
X210977185Y-39319030D01*
X211477185Y-38519030D01*
X211577185Y-37719030D01*
X211477185Y-36919030D01*
X211467557Y-36903626D01*
X210977185Y-36119030D01*
X210749746Y-35948451D01*
X210177185Y-35519030D01*
X210177184Y-35519029D01*
X210177183Y-35519029D01*
X209177187Y-35319030D01*
X209177183Y-35319030D01*
X208177186Y-35519029D01*
X207377184Y-36119030D01*
X206877185Y-36919028D01*
X206777185Y-37719030D01*
X111564685Y-37719030D01*
X111464685Y-36919030D01*
X111455057Y-36903626D01*
X111452778Y-36899980D01*
X110964685Y-36119030D01*
X110164685Y-35519030D01*
X110164684Y-35519029D01*
X110164683Y-35519029D01*
X109164687Y-35319030D01*
X109164683Y-35319030D01*
X108164686Y-35519029D01*
X107364684Y-36119030D01*
X106864685Y-36919028D01*
X106764685Y-37719030D01*
X41196435Y-37719030D01*
X41196435Y-35053596D01*
X41197282Y-35040676D01*
X41198722Y-35029734D01*
X41210048Y-34943691D01*
X41216733Y-34918741D01*
X41251666Y-34834403D01*
X41264583Y-34812030D01*
X41320157Y-34739607D01*
X41338421Y-34721344D01*
X41410842Y-34665776D01*
X41433213Y-34652860D01*
X41517549Y-34617931D01*
X41542509Y-34611244D01*
X41639653Y-34598460D01*
X41652564Y-34597615D01*
X41680277Y-34597617D01*
X41680278Y-34597616D01*
X41691786Y-34597617D01*
X41691813Y-34597615D01*
X292118768Y-34597615D01*
X292123086Y-34597708D01*
X292518588Y-34614979D01*
X292527171Y-34615731D01*
X292917513Y-34667123D01*
X292926015Y-34668622D01*
X293310392Y-34753840D01*
X293318693Y-34756064D01*
X293694204Y-34874464D01*
X293702313Y-34877416D01*
X294066044Y-35028081D01*
X294073859Y-35031725D01*
X294423091Y-35213526D01*
X294430551Y-35217834D01*
X294762591Y-35429368D01*
X294762602Y-35429375D01*
X294769673Y-35434326D01*
X294964627Y-35583922D01*
X295082019Y-35674001D01*
X295088635Y-35679553D01*
X295378895Y-35945530D01*
X295385002Y-35951637D01*
X295650982Y-36241907D01*
X295656533Y-36248523D01*
X295896198Y-36560862D01*
X295901152Y-36567937D01*
X296112684Y-36899980D01*
X296117002Y-36907459D01*
X296298791Y-37256676D01*
X296302441Y-37264504D01*
X296453100Y-37628231D01*
X296456054Y-37636347D01*
X296574440Y-38011827D01*
X296576675Y-38020169D01*
X296661884Y-38404530D01*
X296663384Y-38413035D01*
X296714771Y-38803366D01*
X296715524Y-38811970D01*
X296732841Y-39208600D01*
X296732935Y-39212918D01*
X296732935Y-40674911D01*
X296714028Y-40733102D01*
X296664528Y-40769066D01*
X296603342Y-40769066D01*
X296553842Y-40733102D01*
X296549983Y-40727381D01*
X296245935Y-40240905D01*
X295816768Y-39919030D01*
X295445935Y-39640905D01*
X295445934Y-39640904D01*
X295445933Y-39640904D01*
X294445937Y-39440905D01*
X294445933Y-39440905D01*
X293445936Y-39640904D01*
X292645934Y-40240905D01*
X292145935Y-41040903D01*
X292045935Y-41840905D01*
X292145935Y-42640906D01*
X292645934Y-43440904D01*
X292645935Y-43440905D01*
X293445935Y-44040905D01*
X293779268Y-44107571D01*
X294445933Y-44240905D01*
X294445935Y-44240905D01*
X294445937Y-44240905D01*
X294945935Y-44140905D01*
X295445935Y-44040905D01*
X296245935Y-43440905D01*
X296549983Y-42954427D01*
X296596858Y-42915103D01*
X296657894Y-42910841D01*
X296709779Y-42943269D01*
X296732694Y-43000001D01*
X296732935Y-43006898D01*
X296732935Y-109994948D01*
X296732841Y-109999267D01*
X296715572Y-110394762D01*
X296714819Y-110403365D01*
X296663430Y-110793695D01*
X296661930Y-110802201D01*
X296576718Y-111186566D01*
X296574483Y-111194908D01*
X296456093Y-111570389D01*
X296453139Y-111578505D01*
X296302476Y-111942239D01*
X296298826Y-111950066D01*
X296117038Y-112299276D01*
X296112720Y-112306756D01*
X295901178Y-112638811D01*
X295896224Y-112645885D01*
X295656561Y-112958221D01*
X295651010Y-112964837D01*
X295385028Y-113255107D01*
X295378921Y-113261214D01*
X295088658Y-113527192D01*
X295082042Y-113532744D01*
X294769688Y-113772423D01*
X294762613Y-113777376D01*
X294430581Y-113988906D01*
X294423102Y-113993225D01*
X294073885Y-114175018D01*
X294066057Y-114178668D01*
X293702324Y-114329332D01*
X293694209Y-114332286D01*
X293318727Y-114450678D01*
X293310384Y-114452913D01*
X292926022Y-114538126D01*
X292917517Y-114539626D01*
X292527183Y-114591017D01*
X292518579Y-114591770D01*
X292123545Y-114609021D01*
X292119226Y-114609115D01*
X209570313Y-114609115D01*
X209512122Y-114590208D01*
X209476158Y-114540708D01*
X209476158Y-114479522D01*
X209512122Y-114430022D01*
X209550897Y-114413038D01*
X209864040Y-114350409D01*
X210177185Y-114287780D01*
X210977185Y-113687780D01*
X211477185Y-112887780D01*
X211577185Y-112087780D01*
X211477185Y-111287780D01*
X291245935Y-111287780D01*
X291345935Y-112087781D01*
X291845934Y-112887779D01*
X291845935Y-112887780D01*
X292645935Y-113487780D01*
X292842995Y-113527192D01*
X293645933Y-113687780D01*
X293645935Y-113687780D01*
X293645937Y-113687780D01*
X294145935Y-113587780D01*
X294645935Y-113487780D01*
X295445935Y-112887780D01*
X295945935Y-112087780D01*
X296045935Y-111287780D01*
X295945935Y-110487780D01*
X295445935Y-109687780D01*
X294645935Y-109087780D01*
X294645934Y-109087779D01*
X294645933Y-109087779D01*
X293645937Y-108887780D01*
X293645933Y-108887780D01*
X292645936Y-109087779D01*
X291845934Y-109687780D01*
X291345935Y-110487778D01*
X291245935Y-111287780D01*
X211477185Y-111287780D01*
X211419139Y-111194907D01*
X210977185Y-110487780D01*
X210325834Y-109999267D01*
X210177185Y-109887780D01*
X210177184Y-109887779D01*
X210177183Y-109887779D01*
X209177187Y-109687780D01*
X209177183Y-109687780D01*
X208177186Y-109887779D01*
X207377184Y-110487780D01*
X206877185Y-111287778D01*
X206777185Y-112087780D01*
X206877185Y-112887781D01*
X207377184Y-113687779D01*
X207377185Y-113687780D01*
X208177185Y-114287780D01*
X208384890Y-114329321D01*
X208803473Y-114413038D01*
X208856825Y-114442990D01*
X208882383Y-114498582D01*
X208870383Y-114558579D01*
X208825410Y-114600064D01*
X208784057Y-114609115D01*
X107176563Y-114609115D01*
X107118372Y-114590208D01*
X107082408Y-114540708D01*
X107082408Y-114479522D01*
X107118372Y-114430022D01*
X107157147Y-114413038D01*
X107470290Y-114350409D01*
X107783435Y-114287780D01*
X108583435Y-113687780D01*
X109083435Y-112887780D01*
X109183435Y-112087780D01*
X109083435Y-111287780D01*
X109025389Y-111194907D01*
X108583435Y-110487780D01*
X107932084Y-109999267D01*
X107783435Y-109887780D01*
X107783434Y-109887779D01*
X107783433Y-109887779D01*
X106783437Y-109687780D01*
X106783433Y-109687780D01*
X105783436Y-109887779D01*
X104983434Y-110487780D01*
X104483435Y-111287778D01*
X104383435Y-112087780D01*
X104483435Y-112887781D01*
X104983434Y-113687779D01*
X104983435Y-113687780D01*
X105783435Y-114287780D01*
X105991140Y-114329321D01*
X106409723Y-114413038D01*
X106463075Y-114442990D01*
X106488633Y-114498582D01*
X106476633Y-114558579D01*
X106431660Y-114600064D01*
X106390307Y-114609115D01*
X26173100Y-114609115D01*
X26168782Y-114609021D01*
X25773288Y-114591753D01*
X25764684Y-114591000D01*
X25374354Y-114539612D01*
X25365848Y-114538112D01*
X24981484Y-114452900D01*
X24973142Y-114450665D01*
X24597661Y-114332275D01*
X24589545Y-114329321D01*
X24225812Y-114178658D01*
X24217985Y-114175008D01*
X23868775Y-113993221D01*
X23861295Y-113988903D01*
X23529241Y-113777361D01*
X23522174Y-113772412D01*
X23209826Y-113532739D01*
X23203216Y-113527192D01*
X22912947Y-113261210D01*
X22906839Y-113255102D01*
X22640857Y-112964833D01*
X22635309Y-112958221D01*
X22395633Y-112645871D01*
X22390688Y-112638808D01*
X22179146Y-112306754D01*
X22174828Y-112299274D01*
X22064732Y-112087781D01*
X21993037Y-111950057D01*
X21989391Y-111942237D01*
X21963210Y-111879031D01*
X21838728Y-111578504D01*
X21835774Y-111570388D01*
X21805979Y-111475890D01*
X21746667Y-111287780D01*
X22295935Y-111287780D01*
X22395935Y-112087781D01*
X22895934Y-112887779D01*
X22895935Y-112887780D01*
X23695935Y-113487780D01*
X23892995Y-113527192D01*
X24695933Y-113687780D01*
X24695935Y-113687780D01*
X24695937Y-113687780D01*
X25195935Y-113587780D01*
X25695935Y-113487780D01*
X26495935Y-112887780D01*
X26995935Y-112087780D01*
X27095935Y-111287780D01*
X26995935Y-110487780D01*
X26495935Y-109687780D01*
X25695935Y-109087780D01*
X25695934Y-109087779D01*
X25695933Y-109087779D01*
X24695937Y-108887780D01*
X24695933Y-108887780D01*
X23695936Y-109087779D01*
X22895934Y-109687780D01*
X22395935Y-110487778D01*
X22295935Y-111287780D01*
X21746667Y-111287780D01*
X21717379Y-111194891D01*
X21715153Y-111186581D01*
X21629933Y-110802183D01*
X21628440Y-110793714D01*
X21577047Y-110403352D01*
X21576297Y-110394773D01*
X21559029Y-109999267D01*
X21558935Y-109994949D01*
X21558935Y-77988244D01*
X40146857Y-77988244D01*
X40146862Y-78103069D01*
X40146863Y-78103077D01*
X40175713Y-78248063D01*
X40175714Y-78248067D01*
X40232295Y-78384645D01*
X40314437Y-78507569D01*
X40418977Y-78612100D01*
X40541877Y-78694213D01*
X40541905Y-78694232D01*
X40678491Y-78750803D01*
X40823490Y-78779643D01*
X40897409Y-78779641D01*
X57827267Y-78779641D01*
X57827293Y-78779643D01*
X57832129Y-78779643D01*
X57832146Y-78779648D01*
X57832146Y-78779645D01*
X57873154Y-78779642D01*
X57873154Y-78779643D01*
X57947069Y-78779639D01*
X58092058Y-78750791D01*
X58228634Y-78694213D01*
X58351550Y-78612080D01*
X58456082Y-78507548D01*
X58538214Y-78384632D01*
X58594791Y-78248056D01*
X58623639Y-78103067D01*
X58623640Y-78073739D01*
X58623643Y-78073724D01*
X58623643Y-78029130D01*
X58623645Y-77985375D01*
X58623643Y-77985343D01*
X58623643Y-74628405D01*
X61520935Y-74628405D01*
X61620935Y-75428406D01*
X62120934Y-76228404D01*
X62120935Y-76228405D01*
X62920935Y-76828405D01*
X63254268Y-76895071D01*
X63920933Y-77028405D01*
X63920935Y-77028405D01*
X63920937Y-77028405D01*
X64420935Y-76928405D01*
X64920935Y-76828405D01*
X65720935Y-76228405D01*
X66220935Y-75428405D01*
X66320935Y-74628405D01*
X156770935Y-74628405D01*
X156870935Y-75428406D01*
X157370934Y-76228404D01*
X157370935Y-76228405D01*
X158170935Y-76828405D01*
X158904267Y-76975071D01*
X159170933Y-77028405D01*
X159170935Y-77028405D01*
X159170937Y-77028405D01*
X159670935Y-76928405D01*
X160170935Y-76828405D01*
X160970935Y-76228405D01*
X161470935Y-75428405D01*
X161570935Y-74628405D01*
X252020935Y-74628405D01*
X252120935Y-75428406D01*
X252620934Y-76228404D01*
X252620935Y-76228405D01*
X253420935Y-76828405D01*
X254154267Y-76975071D01*
X254420933Y-77028405D01*
X254420935Y-77028405D01*
X254420937Y-77028405D01*
X254920935Y-76928405D01*
X255420935Y-76828405D01*
X256220935Y-76228405D01*
X256720935Y-75428405D01*
X256820935Y-74628405D01*
X256720935Y-73828405D01*
X256220935Y-73028405D01*
X255420935Y-72428405D01*
X255420934Y-72428404D01*
X255420933Y-72428404D01*
X254420937Y-72228405D01*
X254420933Y-72228405D01*
X253420936Y-72428404D01*
X252620934Y-73028405D01*
X252120935Y-73828403D01*
X252020935Y-74628405D01*
X161570935Y-74628405D01*
X161470935Y-73828405D01*
X160970935Y-73028405D01*
X160170935Y-72428405D01*
X160170934Y-72428404D01*
X160170933Y-72428404D01*
X159170937Y-72228405D01*
X159170933Y-72228405D01*
X158170936Y-72428404D01*
X157370934Y-73028405D01*
X156870935Y-73828403D01*
X156770935Y-74628405D01*
X66320935Y-74628405D01*
X66220935Y-73828405D01*
X65720935Y-73028405D01*
X64920935Y-72428405D01*
X64920934Y-72428404D01*
X64920933Y-72428404D01*
X63920937Y-72228405D01*
X63920933Y-72228405D01*
X62920936Y-72428404D01*
X62120934Y-73028405D01*
X61620935Y-73828403D01*
X61520935Y-74628405D01*
X58623643Y-74628405D01*
X58623643Y-70689866D01*
X58623561Y-70689044D01*
X58623564Y-70655238D01*
X58594734Y-70510249D01*
X58538173Y-70373671D01*
X58538169Y-70373666D01*
X58538167Y-70373661D01*
X58456058Y-70250757D01*
X58456057Y-70250755D01*
X58351532Y-70146215D01*
X58351457Y-70146165D01*
X58228623Y-70064077D01*
X58228622Y-70064076D01*
X58092057Y-70007497D01*
X58092049Y-70007495D01*
X57947073Y-69978646D01*
X57947064Y-69978645D01*
X57914609Y-69978643D01*
X57914587Y-69978641D01*
X57903079Y-69978641D01*
X57873154Y-69978641D01*
X57827293Y-69978638D01*
X57827267Y-69978641D01*
X40938450Y-69978641D01*
X40938345Y-69978607D01*
X40897409Y-69978607D01*
X40823488Y-69978607D01*
X40823485Y-69978607D01*
X40678489Y-70007448D01*
X40678487Y-70007449D01*
X40541897Y-70064028D01*
X40541892Y-70064031D01*
X40418978Y-70146162D01*
X40314441Y-70250704D01*
X40314436Y-70250710D01*
X40232308Y-70373634D01*
X40232305Y-70373640D01*
X40175739Y-70510222D01*
X40175736Y-70510229D01*
X40146903Y-70655228D01*
X40146903Y-70655234D01*
X40146907Y-70729131D01*
X40146907Y-77985343D01*
X40146904Y-77985375D01*
X40146904Y-77988100D01*
X40146857Y-77988244D01*
X21558935Y-77988244D01*
X21558935Y-42926898D01*
X21577842Y-42868707D01*
X21627342Y-42832743D01*
X21688528Y-42832743D01*
X21738028Y-42868707D01*
X21741887Y-42874428D01*
X22068888Y-43397631D01*
X22095935Y-43440905D01*
X22895935Y-44040905D01*
X23229268Y-44107571D01*
X23895933Y-44240905D01*
X23895935Y-44240905D01*
X23895937Y-44240905D01*
X24395935Y-44140905D01*
X24895935Y-44040905D01*
X25695935Y-43440905D01*
X26195935Y-42640905D01*
X26295935Y-41840905D01*
X26195935Y-41040905D01*
X26077224Y-40850968D01*
X25695935Y-40240905D01*
X25266768Y-39919030D01*
X24895935Y-39640905D01*
X24895934Y-39640904D01*
X24895933Y-39640904D01*
X23895937Y-39440905D01*
X23895933Y-39440905D01*
X22895936Y-39640904D01*
X22095934Y-40240905D01*
X21741887Y-40807381D01*
X21695012Y-40846706D01*
X21633976Y-40850968D01*
X21582091Y-40818540D01*
X21559176Y-40761808D01*
X21558935Y-40754911D01*
X21558935Y-39211780D01*
X21559029Y-39207462D01*
X21568300Y-38995110D01*
X21576297Y-38811954D01*
X21577049Y-38803366D01*
X21628440Y-38413011D01*
X21629933Y-38404550D01*
X21715154Y-38020142D01*
X21717383Y-38011827D01*
X21835776Y-37636334D01*
X21838728Y-37628225D01*
X21989398Y-37264475D01*
X21993036Y-37256676D01*
X22174833Y-36907445D01*
X22179143Y-36899980D01*
X22390695Y-36567909D01*
X22395631Y-36560862D01*
X22635321Y-36248492D01*
X22640850Y-36241903D01*
X22906846Y-35951619D01*
X22912939Y-35945526D01*
X23203223Y-35679530D01*
X23209812Y-35674001D01*
X23522188Y-35434305D01*
X23529229Y-35429375D01*
X23861304Y-35217820D01*
X23868765Y-35213513D01*
X24218001Y-35031713D01*
X24225795Y-35028078D01*
X24589552Y-34877405D01*
X24597654Y-34874456D01*
X24973163Y-34756058D01*
X24981462Y-34753834D01*
X25365870Y-34668613D01*
X25374331Y-34667120D01*
X25764699Y-34615727D01*
X25773274Y-34614977D01*
X26168782Y-34597708D01*
X26173100Y-34597615D01*
X26205286Y-34597615D01*
X28035849Y-34597615D01*
X28063711Y-34597615D01*
X28076632Y-34598462D01*
G37*
G04 #@! TD.AperFunction*
M02*
