M48
; DRILL file {KiCad 8.0.5} date 2024-09-18T06:55:59+0900
; FORMAT={-:-/ absolute / metric / decimal}
; #@! TF.CreationDate,2024-09-18T06:55:59+09:00
; #@! TF.GenerationSoftware,Kicad,Pcbnew,8.0.5
; #@! TF.FileFunction,NonPlated,1,2,NPTH
FMAT,2
METRIC
; #@! TA.AperFunction,NonPlated,NPTH,ComponentDrill
T1C1.000
%
G90
G05
T1
X122.905Y-33.503G85X122.905Y-20.503
G05
X122.905Y-20.503G85X135.905Y-20.503
G05
X122.905Y-33.503G85X135.905Y-33.503
G05
X135.905Y-33.503G85X135.905Y-20.503
G05
X141.955Y-33.503G85X141.955Y-20.503
G05
X141.955Y-52.553G85X141.955Y-39.553
G05
X141.955Y-20.503G85X154.955Y-20.503
G05
X141.955Y-33.503G85X154.955Y-33.503
G05
X141.955Y-39.553G85X154.955Y-39.553
G05
X141.955Y-52.553G85X154.955Y-52.553
G05
X154.955Y-33.503G85X154.955Y-20.503
G05
X154.955Y-52.553G85X154.955Y-39.553
G05
X160.933Y-33.503G85X160.933Y-20.503
G05
X161.005Y-52.553G85X161.005Y-39.553
G05
X160.933Y-20.503G85X173.933Y-20.503
G05
X160.933Y-33.503G85X173.933Y-33.503
G05
X161.005Y-39.553G85X174.005Y-39.553
G05
X161.005Y-52.553G85X174.005Y-52.553
G05
X173.933Y-33.503G85X173.933Y-20.503
G05
X174.005Y-52.553G85X174.005Y-39.553
G05
X180.055Y-33.503G85X180.055Y-20.503
G05
X180.055Y-20.503G85X193.055Y-20.503
G05
X180.055Y-33.503G85X193.055Y-33.503
G05
X193.055Y-33.503G85X193.055Y-20.503
G05
M30
