G04 #@! TF.GenerationSoftware,KiCad,Pcbnew,8.0.5*
G04 #@! TF.CreationDate,2024-09-18T06:56:01+09:00*
G04 #@! TF.ProjectId,SandyLP_Plate_Top,53616e64-794c-4505-9f50-6c6174655f54,v.0*
G04 #@! TF.SameCoordinates,Original*
G04 #@! TF.FileFunction,Copper,L2,Bot*
G04 #@! TF.FilePolarity,Positive*
%FSLAX46Y46*%
G04 Gerber Fmt 4.6, Leading zero omitted, Abs format (unit mm)*
G04 Created by KiCad (PCBNEW 8.0.5) date 2024-09-18 06:56:01*
%MOMM*%
%LPD*%
G01*
G04 APERTURE LIST*
G04 Aperture macros list*
%AMRoundRect*
0 Rectangle with rounded corners*
0 $1 Rounding radius*
0 $2 $3 $4 $5 $6 $7 $8 $9 X,Y pos of 4 corners*
0 Add a 4 corners polygon primitive as box body*
4,1,4,$2,$3,$4,$5,$6,$7,$8,$9,$2,$3,0*
0 Add four circle primitives for the rounded corners*
1,1,$1+$1,$2,$3*
1,1,$1+$1,$4,$5*
1,1,$1+$1,$6,$7*
1,1,$1+$1,$8,$9*
0 Add four rect primitives between the rounded corners*
20,1,$1+$1,$2,$3,$4,$5,0*
20,1,$1+$1,$4,$5,$6,$7,0*
20,1,$1+$1,$6,$7,$8,$9,0*
20,1,$1+$1,$8,$9,$2,$3,0*%
G04 Aperture macros list end*
G04 #@! TA.AperFunction,WasherPad*
%ADD10RoundRect,0.900000X0.000010X-6.500000X0.000010X6.500000X-0.000010X6.500000X-0.000010X-6.500000X0*%
G04 #@! TD*
G04 #@! TA.AperFunction,WasherPad*
%ADD11RoundRect,0.900000X-6.500000X-0.000010X6.500000X-0.000010X6.500000X0.000010X-6.500000X0.000010X0*%
G04 #@! TD*
G04 APERTURE END LIST*
D10*
X161005310Y-46053405D03*
D11*
X167505310Y-39553405D03*
X167505310Y-52553405D03*
D10*
X174005310Y-46053405D03*
X160933435Y-27003405D03*
D11*
X167433435Y-20503405D03*
X167433435Y-33503405D03*
D10*
X173933435Y-27003405D03*
X122905310Y-27003405D03*
D11*
X129405310Y-20503405D03*
X129405310Y-33503405D03*
D10*
X135905310Y-27003405D03*
X141955310Y-46053405D03*
D11*
X148455310Y-39553405D03*
X148455310Y-52553405D03*
D10*
X154955310Y-46053405D03*
X141955310Y-27003405D03*
D11*
X148455310Y-20503405D03*
X148455310Y-33503405D03*
D10*
X154955310Y-27003405D03*
X180055310Y-27003405D03*
D11*
X186555310Y-20503405D03*
X186555310Y-33503405D03*
D10*
X193055310Y-27003405D03*
G04 #@! TA.AperFunction,NonConductor*
G36*
X193446929Y-15472845D02*
G01*
X193685771Y-15488500D01*
X193702097Y-15490649D01*
X193932820Y-15536544D01*
X193948723Y-15540805D01*
X194171464Y-15616416D01*
X194186686Y-15622721D01*
X194397656Y-15726760D01*
X194411922Y-15734996D01*
X194559024Y-15833286D01*
X194607508Y-15865682D01*
X194620583Y-15875715D01*
X194791573Y-16025668D01*
X194797427Y-16030801D01*
X194809082Y-16042455D01*
X194964179Y-16219308D01*
X194974210Y-16232381D01*
X195039551Y-16330170D01*
X195104891Y-16427957D01*
X195113132Y-16442230D01*
X195217170Y-16653195D01*
X195223477Y-16668421D01*
X195299089Y-16891157D01*
X195303355Y-16907078D01*
X195349247Y-17137782D01*
X195351398Y-17154122D01*
X195367040Y-17392728D01*
X195367310Y-17400970D01*
X195367310Y-33678448D01*
X195367040Y-33686694D01*
X195351377Y-33925527D01*
X195349225Y-33941867D01*
X195303329Y-34172559D01*
X195299063Y-34188478D01*
X195223449Y-34411210D01*
X195217141Y-34426437D01*
X195113104Y-34637387D01*
X195104864Y-34651659D01*
X194974177Y-34847236D01*
X194964143Y-34860311D01*
X194809057Y-35037147D01*
X194797403Y-35048801D01*
X194620558Y-35203885D01*
X194607483Y-35213918D01*
X194411900Y-35344599D01*
X194397630Y-35352837D01*
X194253961Y-35423686D01*
X194186675Y-35456867D01*
X194171449Y-35463173D01*
X193948717Y-35538779D01*
X193932797Y-35543045D01*
X193702098Y-35588934D01*
X193685758Y-35591085D01*
X193445876Y-35606809D01*
X193437642Y-35607079D01*
X193399456Y-35607080D01*
X193399279Y-35607107D01*
X178457618Y-35617043D01*
X178457501Y-35617008D01*
X178457501Y-35617010D01*
X178269269Y-35617010D01*
X177999528Y-35652521D01*
X177736718Y-35722941D01*
X177485349Y-35827063D01*
X177453711Y-35845330D01*
X177249725Y-35963104D01*
X177249722Y-35963106D01*
X177249719Y-35963108D01*
X177033877Y-36128734D01*
X177033869Y-36128741D01*
X176841496Y-36321121D01*
X176841488Y-36321130D01*
X176675863Y-36536985D01*
X176539831Y-36772613D01*
X176539827Y-36772622D01*
X176435721Y-37023977D01*
X176365309Y-37286789D01*
X176329805Y-37556543D01*
X176329808Y-37665590D01*
X176329765Y-37666042D01*
X176329810Y-37692578D01*
X176329810Y-37692782D01*
X176329811Y-37736438D01*
X176329881Y-37736879D01*
X176354713Y-52819933D01*
X176354443Y-52828379D01*
X176338800Y-53067110D01*
X176336649Y-53083450D01*
X176290766Y-53314145D01*
X176286500Y-53330067D01*
X176210890Y-53552812D01*
X176204583Y-53568039D01*
X176100551Y-53778997D01*
X176092310Y-53793270D01*
X175961632Y-53988845D01*
X175951598Y-54001922D01*
X175796505Y-54178770D01*
X175784850Y-54190425D01*
X175607996Y-54345518D01*
X175594920Y-54355551D01*
X175399347Y-54486224D01*
X175385073Y-54494465D01*
X175174106Y-54598498D01*
X175158878Y-54604805D01*
X174936146Y-54680406D01*
X174920225Y-54684672D01*
X174689522Y-54730553D01*
X174673182Y-54732703D01*
X174433875Y-54748380D01*
X174425638Y-54748650D01*
X174391042Y-54748650D01*
X174391016Y-54748652D01*
X141559434Y-54750757D01*
X141551186Y-54750487D01*
X141312356Y-54734835D01*
X141296014Y-54732684D01*
X141065312Y-54686794D01*
X141049393Y-54682528D01*
X140826664Y-54606922D01*
X140811436Y-54600615D01*
X140600469Y-54496577D01*
X140586196Y-54488336D01*
X140390620Y-54357655D01*
X140377550Y-54347627D01*
X140200702Y-54192532D01*
X140189052Y-54180881D01*
X140033957Y-54004027D01*
X140023923Y-53990950D01*
X139893247Y-53795374D01*
X139885006Y-53781101D01*
X139883968Y-53778997D01*
X139780973Y-53570136D01*
X139774667Y-53554911D01*
X139773955Y-53552812D01*
X139699057Y-53332160D01*
X139694797Y-53316259D01*
X139648912Y-53085555D01*
X139646761Y-53069214D01*
X139631080Y-52829885D01*
X139630810Y-52821647D01*
X139630810Y-39488895D01*
X140699210Y-39488895D01*
X140699210Y-52488895D01*
X140699210Y-52617915D01*
X140709660Y-52750697D01*
X140728700Y-52826260D01*
X140764905Y-52969941D01*
X140764908Y-52969950D01*
X140858410Y-53175804D01*
X140858415Y-53175812D01*
X140954253Y-53314145D01*
X140987174Y-53361663D01*
X140987178Y-53361667D01*
X140987183Y-53361673D01*
X141147041Y-53521531D01*
X141147046Y-53521535D01*
X141147052Y-53521541D01*
X141147058Y-53521545D01*
X141332902Y-53650299D01*
X141332910Y-53650304D01*
X141469845Y-53712502D01*
X141538770Y-53743809D01*
X141758018Y-53799055D01*
X141890800Y-53809505D01*
X141890802Y-53809505D01*
X155019818Y-53809505D01*
X155019820Y-53809505D01*
X155152602Y-53799055D01*
X155371850Y-53743809D01*
X155577711Y-53650303D01*
X155763568Y-53521541D01*
X155923446Y-53361663D01*
X156052208Y-53175806D01*
X156145714Y-52969945D01*
X156200960Y-52750697D01*
X156211410Y-52617915D01*
X156211410Y-39488895D01*
X159749210Y-39488895D01*
X159749210Y-52488895D01*
X159749210Y-52617915D01*
X159759660Y-52750697D01*
X159778700Y-52826260D01*
X159814905Y-52969941D01*
X159814908Y-52969950D01*
X159908410Y-53175804D01*
X159908415Y-53175812D01*
X160004253Y-53314145D01*
X160037174Y-53361663D01*
X160037178Y-53361667D01*
X160037183Y-53361673D01*
X160197041Y-53521531D01*
X160197046Y-53521535D01*
X160197052Y-53521541D01*
X160197058Y-53521545D01*
X160382902Y-53650299D01*
X160382910Y-53650304D01*
X160519845Y-53712502D01*
X160588770Y-53743809D01*
X160808018Y-53799055D01*
X160940800Y-53809505D01*
X160940802Y-53809505D01*
X174069818Y-53809505D01*
X174069820Y-53809505D01*
X174202602Y-53799055D01*
X174421850Y-53743809D01*
X174627711Y-53650303D01*
X174813568Y-53521541D01*
X174973446Y-53361663D01*
X175102208Y-53175806D01*
X175195714Y-52969945D01*
X175250960Y-52750697D01*
X175261410Y-52617915D01*
X175261410Y-39488895D01*
X175250960Y-39356113D01*
X175195714Y-39136865D01*
X175164407Y-39067940D01*
X175102209Y-38931005D01*
X175102204Y-38930997D01*
X174973450Y-38745153D01*
X174973446Y-38745147D01*
X174973440Y-38745141D01*
X174973436Y-38745136D01*
X174813578Y-38585278D01*
X174813572Y-38585273D01*
X174813568Y-38585269D01*
X174813561Y-38585264D01*
X174627717Y-38456510D01*
X174627709Y-38456505D01*
X174421855Y-38363003D01*
X174421852Y-38363002D01*
X174421850Y-38363001D01*
X174202602Y-38307755D01*
X174069820Y-38297305D01*
X161069820Y-38297305D01*
X160940800Y-38297305D01*
X160808018Y-38307755D01*
X160808014Y-38307755D01*
X160808014Y-38307756D01*
X160588773Y-38363000D01*
X160588764Y-38363003D01*
X160382910Y-38456505D01*
X160382902Y-38456510D01*
X160197058Y-38585264D01*
X160197041Y-38585278D01*
X160037183Y-38745136D01*
X160037169Y-38745153D01*
X159908415Y-38930997D01*
X159908410Y-38931005D01*
X159814908Y-39136859D01*
X159814906Y-39136865D01*
X159759660Y-39356113D01*
X159749210Y-39488895D01*
X156211410Y-39488895D01*
X156200960Y-39356113D01*
X156145714Y-39136865D01*
X156114407Y-39067940D01*
X156052209Y-38931005D01*
X156052204Y-38930997D01*
X155923450Y-38745153D01*
X155923446Y-38745147D01*
X155923440Y-38745141D01*
X155923436Y-38745136D01*
X155763578Y-38585278D01*
X155763572Y-38585273D01*
X155763568Y-38585269D01*
X155763561Y-38585264D01*
X155577717Y-38456510D01*
X155577709Y-38456505D01*
X155371855Y-38363003D01*
X155371852Y-38363002D01*
X155371850Y-38363001D01*
X155152602Y-38307755D01*
X155019820Y-38297305D01*
X142019820Y-38297305D01*
X141890800Y-38297305D01*
X141758018Y-38307755D01*
X141758014Y-38307755D01*
X141758014Y-38307756D01*
X141538773Y-38363000D01*
X141538764Y-38363003D01*
X141332910Y-38456505D01*
X141332902Y-38456510D01*
X141147058Y-38585264D01*
X141147041Y-38585278D01*
X140987183Y-38745136D01*
X140987169Y-38745153D01*
X140858415Y-38930997D01*
X140858410Y-38931005D01*
X140764908Y-39136859D01*
X140764906Y-39136865D01*
X140709660Y-39356113D01*
X140699210Y-39488895D01*
X139630810Y-39488895D01*
X139630810Y-37805579D01*
X139630835Y-37805490D01*
X139630834Y-37753364D01*
X139630835Y-37753364D01*
X139630832Y-37617328D01*
X139595316Y-37347585D01*
X139524895Y-37084785D01*
X139420774Y-36833424D01*
X139385664Y-36772614D01*
X139284736Y-36597805D01*
X139119115Y-36381966D01*
X139119113Y-36381964D01*
X139119108Y-36381957D01*
X138926723Y-36189575D01*
X138926721Y-36189573D01*
X138926715Y-36189568D01*
X138710873Y-36023948D01*
X138475264Y-35887920D01*
X138475256Y-35887916D01*
X138475252Y-35887914D01*
X138223891Y-35783797D01*
X138223888Y-35783796D01*
X138223886Y-35783795D01*
X137996779Y-35722942D01*
X137961090Y-35713379D01*
X137961088Y-35713378D01*
X137961082Y-35713377D01*
X137691348Y-35677866D01*
X137691337Y-35677865D01*
X137570328Y-35677865D01*
X122509430Y-35677865D01*
X122501190Y-35677595D01*
X122262356Y-35661942D01*
X122246014Y-35659791D01*
X122015311Y-35613901D01*
X121999392Y-35609635D01*
X121776659Y-35534028D01*
X121761432Y-35527721D01*
X121625162Y-35460520D01*
X121550466Y-35423684D01*
X121536200Y-35415447D01*
X121340618Y-35284763D01*
X121327542Y-35274729D01*
X121150702Y-35119643D01*
X121139047Y-35107989D01*
X121087141Y-35048801D01*
X120983950Y-34931132D01*
X120973920Y-34918059D01*
X120931184Y-34854099D01*
X120843237Y-34722473D01*
X120835005Y-34708214D01*
X120730966Y-34497240D01*
X120724664Y-34482025D01*
X120721105Y-34471541D01*
X120649056Y-34259278D01*
X120644791Y-34243359D01*
X120630709Y-34172559D01*
X120598903Y-34012648D01*
X120596755Y-33996333D01*
X120587810Y-33859826D01*
X120581080Y-33757095D01*
X120580810Y-33748857D01*
X120580810Y-20438895D01*
X121649210Y-20438895D01*
X121649210Y-33438895D01*
X121649210Y-33567915D01*
X121659660Y-33700697D01*
X121689373Y-33818614D01*
X121714905Y-33919941D01*
X121714908Y-33919950D01*
X121808410Y-34125804D01*
X121808415Y-34125812D01*
X121937169Y-34311656D01*
X121937174Y-34311663D01*
X121937178Y-34311667D01*
X121937183Y-34311673D01*
X122097041Y-34471531D01*
X122097046Y-34471535D01*
X122097052Y-34471541D01*
X122097058Y-34471545D01*
X122282902Y-34600299D01*
X122282910Y-34600304D01*
X122364552Y-34637387D01*
X122488770Y-34693809D01*
X122708018Y-34749055D01*
X122840800Y-34759505D01*
X122840802Y-34759505D01*
X135969818Y-34759505D01*
X135969820Y-34759505D01*
X136102602Y-34749055D01*
X136321850Y-34693809D01*
X136527711Y-34600303D01*
X136713568Y-34471541D01*
X136873446Y-34311663D01*
X137002208Y-34125806D01*
X137095714Y-33919945D01*
X137150960Y-33700697D01*
X137161410Y-33567915D01*
X137161410Y-20438895D01*
X140699210Y-20438895D01*
X140699210Y-33438895D01*
X140699210Y-33567915D01*
X140709660Y-33700697D01*
X140739373Y-33818614D01*
X140764905Y-33919941D01*
X140764908Y-33919950D01*
X140858410Y-34125804D01*
X140858415Y-34125812D01*
X140987169Y-34311656D01*
X140987174Y-34311663D01*
X140987178Y-34311667D01*
X140987183Y-34311673D01*
X141147041Y-34471531D01*
X141147046Y-34471535D01*
X141147052Y-34471541D01*
X141147058Y-34471545D01*
X141332902Y-34600299D01*
X141332910Y-34600304D01*
X141414552Y-34637387D01*
X141538770Y-34693809D01*
X141758018Y-34749055D01*
X141890800Y-34759505D01*
X141890802Y-34759505D01*
X155019818Y-34759505D01*
X155019820Y-34759505D01*
X155152602Y-34749055D01*
X155371850Y-34693809D01*
X155577711Y-34600303D01*
X155763568Y-34471541D01*
X155923446Y-34311663D01*
X156052208Y-34125806D01*
X156145714Y-33919945D01*
X156200960Y-33700697D01*
X156211410Y-33567915D01*
X156211410Y-20438895D01*
X159677335Y-20438895D01*
X159677335Y-33438895D01*
X159677335Y-33567915D01*
X159687785Y-33700697D01*
X159717498Y-33818614D01*
X159743030Y-33919941D01*
X159743033Y-33919950D01*
X159836535Y-34125804D01*
X159836540Y-34125812D01*
X159965294Y-34311656D01*
X159965299Y-34311663D01*
X159965303Y-34311667D01*
X159965308Y-34311673D01*
X160125166Y-34471531D01*
X160125171Y-34471535D01*
X160125177Y-34471541D01*
X160125183Y-34471545D01*
X160311027Y-34600299D01*
X160311035Y-34600304D01*
X160392677Y-34637387D01*
X160516895Y-34693809D01*
X160736143Y-34749055D01*
X160868925Y-34759505D01*
X160868927Y-34759505D01*
X173997943Y-34759505D01*
X173997945Y-34759505D01*
X174130727Y-34749055D01*
X174349975Y-34693809D01*
X174555836Y-34600303D01*
X174741693Y-34471541D01*
X174901571Y-34311663D01*
X175030333Y-34125806D01*
X175123839Y-33919945D01*
X175179085Y-33700697D01*
X175189535Y-33567915D01*
X175189535Y-20438895D01*
X178799210Y-20438895D01*
X178799210Y-33438895D01*
X178799210Y-33567915D01*
X178809660Y-33700697D01*
X178839373Y-33818614D01*
X178864905Y-33919941D01*
X178864908Y-33919950D01*
X178958410Y-34125804D01*
X178958415Y-34125812D01*
X179087169Y-34311656D01*
X179087174Y-34311663D01*
X179087178Y-34311667D01*
X179087183Y-34311673D01*
X179247041Y-34471531D01*
X179247046Y-34471535D01*
X179247052Y-34471541D01*
X179247058Y-34471545D01*
X179432902Y-34600299D01*
X179432910Y-34600304D01*
X179514552Y-34637387D01*
X179638770Y-34693809D01*
X179858018Y-34749055D01*
X179990800Y-34759505D01*
X179990802Y-34759505D01*
X193119818Y-34759505D01*
X193119820Y-34759505D01*
X193252602Y-34749055D01*
X193471850Y-34693809D01*
X193677711Y-34600303D01*
X193863568Y-34471541D01*
X194023446Y-34311663D01*
X194152208Y-34125806D01*
X194245714Y-33919945D01*
X194300960Y-33700697D01*
X194311410Y-33567915D01*
X194311410Y-20438895D01*
X194300960Y-20306113D01*
X194245714Y-20086865D01*
X194214407Y-20017940D01*
X194152209Y-19881005D01*
X194152204Y-19880997D01*
X194023450Y-19695153D01*
X194023446Y-19695147D01*
X194023440Y-19695141D01*
X194023436Y-19695136D01*
X193863578Y-19535278D01*
X193863572Y-19535273D01*
X193863568Y-19535269D01*
X193863561Y-19535264D01*
X193677717Y-19406510D01*
X193677709Y-19406505D01*
X193471855Y-19313003D01*
X193471852Y-19313002D01*
X193471850Y-19313001D01*
X193252602Y-19257755D01*
X193119820Y-19247305D01*
X180119820Y-19247305D01*
X179990800Y-19247305D01*
X179858018Y-19257755D01*
X179858014Y-19257755D01*
X179858014Y-19257756D01*
X179638773Y-19313000D01*
X179638764Y-19313003D01*
X179432910Y-19406505D01*
X179432902Y-19406510D01*
X179247058Y-19535264D01*
X179247041Y-19535278D01*
X179087183Y-19695136D01*
X179087169Y-19695153D01*
X178958415Y-19880997D01*
X178958410Y-19881005D01*
X178864908Y-20086859D01*
X178864906Y-20086865D01*
X178809660Y-20306113D01*
X178799210Y-20438895D01*
X175189535Y-20438895D01*
X175179085Y-20306113D01*
X175123839Y-20086865D01*
X175092532Y-20017940D01*
X175030334Y-19881005D01*
X175030329Y-19880997D01*
X174901575Y-19695153D01*
X174901571Y-19695147D01*
X174901565Y-19695141D01*
X174901561Y-19695136D01*
X174741703Y-19535278D01*
X174741697Y-19535273D01*
X174741693Y-19535269D01*
X174741686Y-19535264D01*
X174555842Y-19406510D01*
X174555834Y-19406505D01*
X174349980Y-19313003D01*
X174349977Y-19313002D01*
X174349975Y-19313001D01*
X174130727Y-19257755D01*
X173997945Y-19247305D01*
X160997945Y-19247305D01*
X160868925Y-19247305D01*
X160736143Y-19257755D01*
X160736139Y-19257755D01*
X160736139Y-19257756D01*
X160516898Y-19313000D01*
X160516889Y-19313003D01*
X160311035Y-19406505D01*
X160311027Y-19406510D01*
X160125183Y-19535264D01*
X160125166Y-19535278D01*
X159965308Y-19695136D01*
X159965294Y-19695153D01*
X159836540Y-19880997D01*
X159836535Y-19881005D01*
X159743033Y-20086859D01*
X159743031Y-20086865D01*
X159687785Y-20306113D01*
X159677335Y-20438895D01*
X156211410Y-20438895D01*
X156200960Y-20306113D01*
X156145714Y-20086865D01*
X156114407Y-20017940D01*
X156052209Y-19881005D01*
X156052204Y-19880997D01*
X155923450Y-19695153D01*
X155923446Y-19695147D01*
X155923440Y-19695141D01*
X155923436Y-19695136D01*
X155763578Y-19535278D01*
X155763572Y-19535273D01*
X155763568Y-19535269D01*
X155763561Y-19535264D01*
X155577717Y-19406510D01*
X155577709Y-19406505D01*
X155371855Y-19313003D01*
X155371852Y-19313002D01*
X155371850Y-19313001D01*
X155152602Y-19257755D01*
X155019820Y-19247305D01*
X142019820Y-19247305D01*
X141890800Y-19247305D01*
X141758018Y-19257755D01*
X141758014Y-19257755D01*
X141758014Y-19257756D01*
X141538773Y-19313000D01*
X141538764Y-19313003D01*
X141332910Y-19406505D01*
X141332902Y-19406510D01*
X141147058Y-19535264D01*
X141147041Y-19535278D01*
X140987183Y-19695136D01*
X140987169Y-19695153D01*
X140858415Y-19880997D01*
X140858410Y-19881005D01*
X140764908Y-20086859D01*
X140764906Y-20086865D01*
X140709660Y-20306113D01*
X140699210Y-20438895D01*
X137161410Y-20438895D01*
X137150960Y-20306113D01*
X137095714Y-20086865D01*
X137064407Y-20017940D01*
X137002209Y-19881005D01*
X137002204Y-19880997D01*
X136873450Y-19695153D01*
X136873446Y-19695147D01*
X136873440Y-19695141D01*
X136873436Y-19695136D01*
X136713578Y-19535278D01*
X136713572Y-19535273D01*
X136713568Y-19535269D01*
X136713561Y-19535264D01*
X136527717Y-19406510D01*
X136527709Y-19406505D01*
X136321855Y-19313003D01*
X136321852Y-19313002D01*
X136321850Y-19313001D01*
X136102602Y-19257755D01*
X135969820Y-19247305D01*
X122969820Y-19247305D01*
X122840800Y-19247305D01*
X122708018Y-19257755D01*
X122708014Y-19257755D01*
X122708014Y-19257756D01*
X122488773Y-19313000D01*
X122488764Y-19313003D01*
X122282910Y-19406505D01*
X122282902Y-19406510D01*
X122097058Y-19535264D01*
X122097041Y-19535278D01*
X121937183Y-19695136D01*
X121937169Y-19695153D01*
X121808415Y-19880997D01*
X121808410Y-19881005D01*
X121714908Y-20086859D01*
X121714906Y-20086865D01*
X121659660Y-20306113D01*
X121649210Y-20438895D01*
X120580810Y-20438895D01*
X120580810Y-17401197D01*
X120581080Y-17392955D01*
X120581794Y-17382057D01*
X120596737Y-17154116D01*
X120598885Y-17137794D01*
X120644782Y-16907069D01*
X120649041Y-16891176D01*
X120724659Y-16668420D01*
X120730958Y-16653214D01*
X120835007Y-16442230D01*
X120843233Y-16427980D01*
X120973930Y-16232384D01*
X120983948Y-16219328D01*
X121139051Y-16042471D01*
X121150700Y-16030824D01*
X121327549Y-15875734D01*
X121340614Y-15865707D01*
X121536212Y-15735015D01*
X121550465Y-15726787D01*
X121761443Y-15622746D01*
X121776655Y-15616445D01*
X121999411Y-15540831D01*
X122015300Y-15536574D01*
X122246028Y-15490681D01*
X122262341Y-15488533D01*
X122451021Y-15476168D01*
X122501728Y-15472845D01*
X122509968Y-15472575D01*
X122529841Y-15472575D01*
X193438688Y-15472575D01*
X193446929Y-15472845D01*
G37*
G04 #@! TD.AperFunction*
G04 #@! TA.AperFunction,NonConductor*
G36*
X191741331Y-21779507D02*
G01*
X191787824Y-21833163D01*
X191799210Y-21885505D01*
X191799210Y-32121305D01*
X191779208Y-32189426D01*
X191725552Y-32235919D01*
X191673210Y-32247305D01*
X181437410Y-32247305D01*
X181369289Y-32227303D01*
X181322796Y-32173647D01*
X181311410Y-32121305D01*
X181311410Y-21885505D01*
X181331412Y-21817384D01*
X181385068Y-21770891D01*
X181437410Y-21759505D01*
X191673210Y-21759505D01*
X191741331Y-21779507D01*
G37*
G04 #@! TD.AperFunction*
G04 #@! TA.AperFunction,NonConductor*
G36*
X172619456Y-21779507D02*
G01*
X172665949Y-21833163D01*
X172677335Y-21885505D01*
X172677335Y-32121305D01*
X172657333Y-32189426D01*
X172603677Y-32235919D01*
X172551335Y-32247305D01*
X162315535Y-32247305D01*
X162247414Y-32227303D01*
X162200921Y-32173647D01*
X162189535Y-32121305D01*
X162189535Y-21885505D01*
X162209537Y-21817384D01*
X162263193Y-21770891D01*
X162315535Y-21759505D01*
X172551335Y-21759505D01*
X172619456Y-21779507D01*
G37*
G04 #@! TD.AperFunction*
G04 #@! TA.AperFunction,NonConductor*
G36*
X153641331Y-21779507D02*
G01*
X153687824Y-21833163D01*
X153699210Y-21885505D01*
X153699210Y-32121305D01*
X153679208Y-32189426D01*
X153625552Y-32235919D01*
X153573210Y-32247305D01*
X143337410Y-32247305D01*
X143269289Y-32227303D01*
X143222796Y-32173647D01*
X143211410Y-32121305D01*
X143211410Y-21885505D01*
X143231412Y-21817384D01*
X143285068Y-21770891D01*
X143337410Y-21759505D01*
X153573210Y-21759505D01*
X153641331Y-21779507D01*
G37*
G04 #@! TD.AperFunction*
G04 #@! TA.AperFunction,NonConductor*
G36*
X134591331Y-21779507D02*
G01*
X134637824Y-21833163D01*
X134649210Y-21885505D01*
X134649210Y-32121305D01*
X134629208Y-32189426D01*
X134575552Y-32235919D01*
X134523210Y-32247305D01*
X124287410Y-32247305D01*
X124219289Y-32227303D01*
X124172796Y-32173647D01*
X124161410Y-32121305D01*
X124161410Y-21885505D01*
X124181412Y-21817384D01*
X124235068Y-21770891D01*
X124287410Y-21759505D01*
X134523210Y-21759505D01*
X134591331Y-21779507D01*
G37*
G04 #@! TD.AperFunction*
G04 #@! TA.AperFunction,NonConductor*
G36*
X172691331Y-40829507D02*
G01*
X172737824Y-40883163D01*
X172749210Y-40935505D01*
X172749210Y-51171305D01*
X172729208Y-51239426D01*
X172675552Y-51285919D01*
X172623210Y-51297305D01*
X162387410Y-51297305D01*
X162319289Y-51277303D01*
X162272796Y-51223647D01*
X162261410Y-51171305D01*
X162261410Y-40935505D01*
X162281412Y-40867384D01*
X162335068Y-40820891D01*
X162387410Y-40809505D01*
X172623210Y-40809505D01*
X172691331Y-40829507D01*
G37*
G04 #@! TD.AperFunction*
G04 #@! TA.AperFunction,NonConductor*
G36*
X153641331Y-40829507D02*
G01*
X153687824Y-40883163D01*
X153699210Y-40935505D01*
X153699210Y-51171305D01*
X153679208Y-51239426D01*
X153625552Y-51285919D01*
X153573210Y-51297305D01*
X143337410Y-51297305D01*
X143269289Y-51277303D01*
X143222796Y-51223647D01*
X143211410Y-51171305D01*
X143211410Y-40935505D01*
X143231412Y-40867384D01*
X143285068Y-40820891D01*
X143337410Y-40809505D01*
X153573210Y-40809505D01*
X153641331Y-40829507D01*
G37*
G04 #@! TD.AperFunction*
M02*
