%TF.GenerationSoftware,KiCad,Pcbnew,8.0.5*%
%TF.CreationDate,2024-09-18T06:55:58+09:00*%
%TF.ProjectId,SandyLP_Plate_Top,53616e64-794c-4505-9f50-6c6174655f54,v.0*%
%TF.SameCoordinates,Original*%
%TF.FileFunction,Drillmap*%
%TF.FilePolarity,Positive*%
%FSLAX45Y45*%
G04 Gerber Fmt 4.5, Leading zero omitted, Abs format (unit mm)*
G04 Created by KiCad (PCBNEW 8.0.5) date 2024-09-18 06:55:58*
%MOMM*%
%LPD*%
G01*
G04 APERTURE LIST*
%ADD10C,0.300000*%
%ADD11C,0.200000*%
G04 APERTURE END LIST*
D10*
X12050531Y-3375336D02*
X12050531Y-1739707D01*
X12250531Y-3575336D02*
X13755531Y-3575336D01*
X13955531Y-5282626D02*
X13955531Y-3775336D01*
X14155531Y-5482626D02*
X17443022Y-5482415D01*
X17643022Y-5282415D02*
X17640531Y-3769258D01*
X17840531Y-3569258D02*
X19344281Y-3568258D01*
X19344281Y-1539707D02*
X12250531Y-1539707D01*
X19544281Y-3368258D02*
X19544281Y-1739707D01*
X12050531Y-1739707D02*
G75*
G02*
X12250531Y-1539707I200000J0D01*
G01*
X12250531Y-3575336D02*
G75*
G02*
X12050531Y-3375336I0J200000D01*
G01*
X13755531Y-3575336D02*
G75*
G02*
X13955531Y-3775336I0J-200000D01*
G01*
X14155531Y-5482626D02*
G75*
G02*
X13955531Y-5282626I0J200000D01*
G01*
X17640531Y-3769258D02*
G75*
G02*
X17840531Y-3569257I199995J5D01*
G01*
X17643022Y-5282415D02*
G75*
G02*
X17443022Y-5482415I-199991J-8D01*
G01*
X19344281Y-1539707D02*
G75*
G02*
X19544284Y-1739707I0J-200003D01*
G01*
X19544281Y-3368258D02*
G75*
G02*
X19344281Y-3568260I-200010J7D01*
G01*
D11*
X12296308Y-5809110D02*
X12296308Y-5609110D01*
X12296308Y-5609110D02*
X12343927Y-5609110D01*
X12343927Y-5609110D02*
X12372498Y-5618633D01*
X12372498Y-5618633D02*
X12391546Y-5637681D01*
X12391546Y-5637681D02*
X12401070Y-5656729D01*
X12401070Y-5656729D02*
X12410593Y-5694824D01*
X12410593Y-5694824D02*
X12410593Y-5723395D01*
X12410593Y-5723395D02*
X12401070Y-5761490D01*
X12401070Y-5761490D02*
X12391546Y-5780538D01*
X12391546Y-5780538D02*
X12372498Y-5799586D01*
X12372498Y-5799586D02*
X12343927Y-5809110D01*
X12343927Y-5809110D02*
X12296308Y-5809110D01*
X12496308Y-5809110D02*
X12496308Y-5675776D01*
X12496308Y-5713871D02*
X12505832Y-5694824D01*
X12505832Y-5694824D02*
X12515355Y-5685300D01*
X12515355Y-5685300D02*
X12534403Y-5675776D01*
X12534403Y-5675776D02*
X12553451Y-5675776D01*
X12620117Y-5809110D02*
X12620117Y-5675776D01*
X12620117Y-5609110D02*
X12610593Y-5618633D01*
X12610593Y-5618633D02*
X12620117Y-5628157D01*
X12620117Y-5628157D02*
X12629641Y-5618633D01*
X12629641Y-5618633D02*
X12620117Y-5609110D01*
X12620117Y-5609110D02*
X12620117Y-5628157D01*
X12743927Y-5809110D02*
X12724879Y-5799586D01*
X12724879Y-5799586D02*
X12715355Y-5780538D01*
X12715355Y-5780538D02*
X12715355Y-5609110D01*
X12848689Y-5809110D02*
X12829641Y-5799586D01*
X12829641Y-5799586D02*
X12820117Y-5780538D01*
X12820117Y-5780538D02*
X12820117Y-5609110D01*
X13077260Y-5809110D02*
X13077260Y-5609110D01*
X13077260Y-5609110D02*
X13143927Y-5751967D01*
X13143927Y-5751967D02*
X13210593Y-5609110D01*
X13210593Y-5609110D02*
X13210593Y-5809110D01*
X13391546Y-5809110D02*
X13391546Y-5704348D01*
X13391546Y-5704348D02*
X13382022Y-5685300D01*
X13382022Y-5685300D02*
X13362974Y-5675776D01*
X13362974Y-5675776D02*
X13324879Y-5675776D01*
X13324879Y-5675776D02*
X13305832Y-5685300D01*
X13391546Y-5799586D02*
X13372498Y-5809110D01*
X13372498Y-5809110D02*
X13324879Y-5809110D01*
X13324879Y-5809110D02*
X13305832Y-5799586D01*
X13305832Y-5799586D02*
X13296308Y-5780538D01*
X13296308Y-5780538D02*
X13296308Y-5761490D01*
X13296308Y-5761490D02*
X13305832Y-5742443D01*
X13305832Y-5742443D02*
X13324879Y-5732919D01*
X13324879Y-5732919D02*
X13372498Y-5732919D01*
X13372498Y-5732919D02*
X13391546Y-5723395D01*
X13486784Y-5675776D02*
X13486784Y-5875776D01*
X13486784Y-5685300D02*
X13505832Y-5675776D01*
X13505832Y-5675776D02*
X13543927Y-5675776D01*
X13543927Y-5675776D02*
X13562974Y-5685300D01*
X13562974Y-5685300D02*
X13572498Y-5694824D01*
X13572498Y-5694824D02*
X13582022Y-5713871D01*
X13582022Y-5713871D02*
X13582022Y-5771014D01*
X13582022Y-5771014D02*
X13572498Y-5790062D01*
X13572498Y-5790062D02*
X13562974Y-5799586D01*
X13562974Y-5799586D02*
X13543927Y-5809110D01*
X13543927Y-5809110D02*
X13505832Y-5809110D01*
X13505832Y-5809110D02*
X13486784Y-5799586D01*
X13667736Y-5790062D02*
X13677260Y-5799586D01*
X13677260Y-5799586D02*
X13667736Y-5809110D01*
X13667736Y-5809110D02*
X13658213Y-5799586D01*
X13658213Y-5799586D02*
X13667736Y-5790062D01*
X13667736Y-5790062D02*
X13667736Y-5809110D01*
X13667736Y-5685300D02*
X13677260Y-5694824D01*
X13677260Y-5694824D02*
X13667736Y-5704348D01*
X13667736Y-5704348D02*
X13658213Y-5694824D01*
X13658213Y-5694824D02*
X13667736Y-5685300D01*
X13667736Y-5685300D02*
X13667736Y-5704348D01*
M02*
