G04 #@! TF.GenerationSoftware,KiCad,Pcbnew,8.0.5*
G04 #@! TF.CreationDate,2024-09-18T06:56:01+09:00*
G04 #@! TF.ProjectId,SandyLP_Plate_Top,53616e64-794c-4505-9f50-6c6174655f54,v.0*
G04 #@! TF.SameCoordinates,Original*
G04 #@! TF.FileFunction,Legend,Bot*
G04 #@! TF.FilePolarity,Positive*
%FSLAX46Y46*%
G04 Gerber Fmt 4.6, Leading zero omitted, Abs format (unit mm)*
G04 Created by KiCad (PCBNEW 8.0.5) date 2024-09-18 06:56:01*
%MOMM*%
%LPD*%
G01*
G04 APERTURE LIST*
G04 Aperture macros list*
%AMRoundRect*
0 Rectangle with rounded corners*
0 $1 Rounding radius*
0 $2 $3 $4 $5 $6 $7 $8 $9 X,Y pos of 4 corners*
0 Add a 4 corners polygon primitive as box body*
4,1,4,$2,$3,$4,$5,$6,$7,$8,$9,$2,$3,0*
0 Add four circle primitives for the rounded corners*
1,1,$1+$1,$2,$3*
1,1,$1+$1,$4,$5*
1,1,$1+$1,$6,$7*
1,1,$1+$1,$8,$9*
0 Add four rect primitives between the rounded corners*
20,1,$1+$1,$2,$3,$4,$5,0*
20,1,$1+$1,$4,$5,$6,$7,0*
20,1,$1+$1,$6,$7,$8,$9,0*
20,1,$1+$1,$8,$9,$2,$3,0*%
G04 Aperture macros list end*
%ADD10C,0.150000*%
%ADD11RoundRect,0.900000X0.000010X-6.500000X0.000010X6.500000X-0.000010X6.500000X-0.000010X-6.500000X0*%
%ADD12RoundRect,0.900000X-6.500000X-0.000010X6.500000X-0.000010X6.500000X0.000010X-6.500000X0.000010X0*%
G04 APERTURE END LIST*
D10*
X170733880Y-19044497D02*
X170733880Y-17844497D01*
X170733880Y-17844497D02*
X170448166Y-17844497D01*
X170448166Y-17844497D02*
X170276737Y-17901640D01*
X170276737Y-17901640D02*
X170162452Y-18015926D01*
X170162452Y-18015926D02*
X170105309Y-18130212D01*
X170105309Y-18130212D02*
X170048166Y-18358783D01*
X170048166Y-18358783D02*
X170048166Y-18530212D01*
X170048166Y-18530212D02*
X170105309Y-18758783D01*
X170105309Y-18758783D02*
X170162452Y-18873069D01*
X170162452Y-18873069D02*
X170276737Y-18987355D01*
X170276737Y-18987355D02*
X170448166Y-19044497D01*
X170448166Y-19044497D02*
X170733880Y-19044497D01*
X169533880Y-19044497D02*
X169533880Y-17844497D01*
X169533880Y-17844497D02*
X168848166Y-19044497D01*
X168848166Y-19044497D02*
X168848166Y-17844497D01*
X168048166Y-17844497D02*
X167933880Y-17844497D01*
X167933880Y-17844497D02*
X167819594Y-17901640D01*
X167819594Y-17901640D02*
X167762452Y-17958783D01*
X167762452Y-17958783D02*
X167705309Y-18073069D01*
X167705309Y-18073069D02*
X167648166Y-18301640D01*
X167648166Y-18301640D02*
X167648166Y-18587355D01*
X167648166Y-18587355D02*
X167705309Y-18815926D01*
X167705309Y-18815926D02*
X167762452Y-18930212D01*
X167762452Y-18930212D02*
X167819594Y-18987355D01*
X167819594Y-18987355D02*
X167933880Y-19044497D01*
X167933880Y-19044497D02*
X168048166Y-19044497D01*
X168048166Y-19044497D02*
X168162452Y-18987355D01*
X168162452Y-18987355D02*
X168219594Y-18930212D01*
X168219594Y-18930212D02*
X168276737Y-18815926D01*
X168276737Y-18815926D02*
X168333880Y-18587355D01*
X168333880Y-18587355D02*
X168333880Y-18301640D01*
X168333880Y-18301640D02*
X168276737Y-18073069D01*
X168276737Y-18073069D02*
X168219594Y-17958783D01*
X168219594Y-17958783D02*
X168162452Y-17901640D01*
X168162452Y-17901640D02*
X168048166Y-17844497D01*
X166905309Y-17844497D02*
X166791023Y-17844497D01*
X166791023Y-17844497D02*
X166676737Y-17901640D01*
X166676737Y-17901640D02*
X166619595Y-17958783D01*
X166619595Y-17958783D02*
X166562452Y-18073069D01*
X166562452Y-18073069D02*
X166505309Y-18301640D01*
X166505309Y-18301640D02*
X166505309Y-18587355D01*
X166505309Y-18587355D02*
X166562452Y-18815926D01*
X166562452Y-18815926D02*
X166619595Y-18930212D01*
X166619595Y-18930212D02*
X166676737Y-18987355D01*
X166676737Y-18987355D02*
X166791023Y-19044497D01*
X166791023Y-19044497D02*
X166905309Y-19044497D01*
X166905309Y-19044497D02*
X167019595Y-18987355D01*
X167019595Y-18987355D02*
X167076737Y-18930212D01*
X167076737Y-18930212D02*
X167133880Y-18815926D01*
X167133880Y-18815926D02*
X167191023Y-18587355D01*
X167191023Y-18587355D02*
X167191023Y-18301640D01*
X167191023Y-18301640D02*
X167133880Y-18073069D01*
X167133880Y-18073069D02*
X167076737Y-17958783D01*
X167076737Y-17958783D02*
X167019595Y-17901640D01*
X167019595Y-17901640D02*
X166905309Y-17844497D01*
X165362452Y-19044497D02*
X166048166Y-19044497D01*
X165705309Y-19044497D02*
X165705309Y-17844497D01*
X165705309Y-17844497D02*
X165819595Y-18015926D01*
X165819595Y-18015926D02*
X165933880Y-18130212D01*
X165933880Y-18130212D02*
X166048166Y-18187355D01*
X164619595Y-17844497D02*
X164505309Y-17844497D01*
X164505309Y-17844497D02*
X164391023Y-17901640D01*
X164391023Y-17901640D02*
X164333881Y-17958783D01*
X164333881Y-17958783D02*
X164276738Y-18073069D01*
X164276738Y-18073069D02*
X164219595Y-18301640D01*
X164219595Y-18301640D02*
X164219595Y-18587355D01*
X164219595Y-18587355D02*
X164276738Y-18815926D01*
X164276738Y-18815926D02*
X164333881Y-18930212D01*
X164333881Y-18930212D02*
X164391023Y-18987355D01*
X164391023Y-18987355D02*
X164505309Y-19044497D01*
X164505309Y-19044497D02*
X164619595Y-19044497D01*
X164619595Y-19044497D02*
X164733881Y-18987355D01*
X164733881Y-18987355D02*
X164791023Y-18930212D01*
X164791023Y-18930212D02*
X164848166Y-18815926D01*
X164848166Y-18815926D02*
X164905309Y-18587355D01*
X164905309Y-18587355D02*
X164905309Y-18301640D01*
X164905309Y-18301640D02*
X164848166Y-18073069D01*
X164848166Y-18073069D02*
X164791023Y-17958783D01*
X164791023Y-17958783D02*
X164733881Y-17901640D01*
X164733881Y-17901640D02*
X164619595Y-17844497D01*
X134748166Y-19044497D02*
X134748166Y-17844497D01*
X134748166Y-18301640D02*
X134633881Y-18244497D01*
X134633881Y-18244497D02*
X134405309Y-18244497D01*
X134405309Y-18244497D02*
X134291023Y-18301640D01*
X134291023Y-18301640D02*
X134233881Y-18358783D01*
X134233881Y-18358783D02*
X134176738Y-18473069D01*
X134176738Y-18473069D02*
X134176738Y-18815926D01*
X134176738Y-18815926D02*
X134233881Y-18930212D01*
X134233881Y-18930212D02*
X134291023Y-18987355D01*
X134291023Y-18987355D02*
X134405309Y-19044497D01*
X134405309Y-19044497D02*
X134633881Y-19044497D01*
X134633881Y-19044497D02*
X134748166Y-18987355D01*
X133776738Y-18244497D02*
X133491024Y-19044497D01*
X133205309Y-18244497D02*
X133491024Y-19044497D01*
X133491024Y-19044497D02*
X133605309Y-19330212D01*
X133605309Y-19330212D02*
X133662452Y-19387355D01*
X133662452Y-19387355D02*
X133776738Y-19444497D01*
X131091023Y-18473069D02*
X131148166Y-18415926D01*
X131148166Y-18415926D02*
X131262452Y-18358783D01*
X131262452Y-18358783D02*
X131376737Y-18358783D01*
X131376737Y-18358783D02*
X131491023Y-18415926D01*
X131491023Y-18415926D02*
X131548166Y-18473069D01*
X131548166Y-18473069D02*
X131605309Y-18587355D01*
X131605309Y-18587355D02*
X131605309Y-18701640D01*
X131605309Y-18701640D02*
X131548166Y-18815926D01*
X131548166Y-18815926D02*
X131491023Y-18873069D01*
X131491023Y-18873069D02*
X131376737Y-18930212D01*
X131376737Y-18930212D02*
X131262452Y-18930212D01*
X131262452Y-18930212D02*
X131148166Y-18873069D01*
X131148166Y-18873069D02*
X131091023Y-18815926D01*
X131091023Y-18358783D02*
X131091023Y-18815926D01*
X131091023Y-18815926D02*
X131033880Y-18873069D01*
X131033880Y-18873069D02*
X130976737Y-18873069D01*
X130976737Y-18873069D02*
X130862452Y-18815926D01*
X130862452Y-18815926D02*
X130805309Y-18701640D01*
X130805309Y-18701640D02*
X130805309Y-18415926D01*
X130805309Y-18415926D02*
X130919595Y-18244497D01*
X130919595Y-18244497D02*
X131091023Y-18130212D01*
X131091023Y-18130212D02*
X131319595Y-18073069D01*
X131319595Y-18073069D02*
X131548166Y-18130212D01*
X131548166Y-18130212D02*
X131719595Y-18244497D01*
X131719595Y-18244497D02*
X131833880Y-18415926D01*
X131833880Y-18415926D02*
X131891023Y-18644497D01*
X131891023Y-18644497D02*
X131833880Y-18873069D01*
X131833880Y-18873069D02*
X131719595Y-19044497D01*
X131719595Y-19044497D02*
X131548166Y-19158783D01*
X131548166Y-19158783D02*
X131319595Y-19215926D01*
X131319595Y-19215926D02*
X131091023Y-19158783D01*
X131091023Y-19158783D02*
X130919595Y-19044497D01*
X130291023Y-18244497D02*
X130291023Y-19273069D01*
X130291023Y-19273069D02*
X130348166Y-19387355D01*
X130348166Y-19387355D02*
X130462452Y-19444497D01*
X130462452Y-19444497D02*
X130519595Y-19444497D01*
X130291023Y-17844497D02*
X130348166Y-17901640D01*
X130348166Y-17901640D02*
X130291023Y-17958783D01*
X130291023Y-17958783D02*
X130233880Y-17901640D01*
X130233880Y-17901640D02*
X130291023Y-17844497D01*
X130291023Y-17844497D02*
X130291023Y-17958783D01*
X129719594Y-18244497D02*
X129719594Y-19444497D01*
X129719594Y-18301640D02*
X129605309Y-18244497D01*
X129605309Y-18244497D02*
X129376737Y-18244497D01*
X129376737Y-18244497D02*
X129262451Y-18301640D01*
X129262451Y-18301640D02*
X129205309Y-18358783D01*
X129205309Y-18358783D02*
X129148166Y-18473069D01*
X129148166Y-18473069D02*
X129148166Y-18815926D01*
X129148166Y-18815926D02*
X129205309Y-18930212D01*
X129205309Y-18930212D02*
X129262451Y-18987355D01*
X129262451Y-18987355D02*
X129376737Y-19044497D01*
X129376737Y-19044497D02*
X129605309Y-19044497D01*
X129605309Y-19044497D02*
X129719594Y-18987355D01*
X128691023Y-18987355D02*
X128576737Y-19044497D01*
X128576737Y-19044497D02*
X128348166Y-19044497D01*
X128348166Y-19044497D02*
X128233880Y-18987355D01*
X128233880Y-18987355D02*
X128176737Y-18873069D01*
X128176737Y-18873069D02*
X128176737Y-18815926D01*
X128176737Y-18815926D02*
X128233880Y-18701640D01*
X128233880Y-18701640D02*
X128348166Y-18644497D01*
X128348166Y-18644497D02*
X128519595Y-18644497D01*
X128519595Y-18644497D02*
X128633880Y-18587355D01*
X128633880Y-18587355D02*
X128691023Y-18473069D01*
X128691023Y-18473069D02*
X128691023Y-18415926D01*
X128691023Y-18415926D02*
X128633880Y-18301640D01*
X128633880Y-18301640D02*
X128519595Y-18244497D01*
X128519595Y-18244497D02*
X128348166Y-18244497D01*
X128348166Y-18244497D02*
X128233880Y-18301640D01*
X127662451Y-19044497D02*
X127662451Y-17844497D01*
X127548166Y-18587355D02*
X127205308Y-19044497D01*
X127205308Y-18244497D02*
X127662451Y-18701640D01*
X126233879Y-18987355D02*
X126348165Y-19044497D01*
X126348165Y-19044497D02*
X126576737Y-19044497D01*
X126576737Y-19044497D02*
X126691022Y-18987355D01*
X126691022Y-18987355D02*
X126748165Y-18873069D01*
X126748165Y-18873069D02*
X126748165Y-18415926D01*
X126748165Y-18415926D02*
X126691022Y-18301640D01*
X126691022Y-18301640D02*
X126576737Y-18244497D01*
X126576737Y-18244497D02*
X126348165Y-18244497D01*
X126348165Y-18244497D02*
X126233879Y-18301640D01*
X126233879Y-18301640D02*
X126176737Y-18415926D01*
X126176737Y-18415926D02*
X126176737Y-18530212D01*
X126176737Y-18530212D02*
X126748165Y-18644497D01*
X125662451Y-18244497D02*
X125662451Y-19044497D01*
X125662451Y-18358783D02*
X125605308Y-18301640D01*
X125605308Y-18301640D02*
X125491023Y-18244497D01*
X125491023Y-18244497D02*
X125319594Y-18244497D01*
X125319594Y-18244497D02*
X125205308Y-18301640D01*
X125205308Y-18301640D02*
X125148166Y-18415926D01*
X125148166Y-18415926D02*
X125148166Y-19044497D01*
X124576737Y-18244497D02*
X124576737Y-19044497D01*
X124576737Y-18358783D02*
X124519594Y-18301640D01*
X124519594Y-18301640D02*
X124405309Y-18244497D01*
X124405309Y-18244497D02*
X124233880Y-18244497D01*
X124233880Y-18244497D02*
X124119594Y-18301640D01*
X124119594Y-18301640D02*
X124062452Y-18415926D01*
X124062452Y-18415926D02*
X124062452Y-19044497D01*
X154198165Y-19044497D02*
X154198165Y-17844497D01*
X154198165Y-17844497D02*
X153741022Y-17844497D01*
X153741022Y-17844497D02*
X153626737Y-17901640D01*
X153626737Y-17901640D02*
X153569594Y-17958783D01*
X153569594Y-17958783D02*
X153512451Y-18073069D01*
X153512451Y-18073069D02*
X153512451Y-18244497D01*
X153512451Y-18244497D02*
X153569594Y-18358783D01*
X153569594Y-18358783D02*
X153626737Y-18415926D01*
X153626737Y-18415926D02*
X153741022Y-18473069D01*
X153741022Y-18473069D02*
X154198165Y-18473069D01*
X152826737Y-19044497D02*
X152941022Y-18987355D01*
X152941022Y-18987355D02*
X152998165Y-18873069D01*
X152998165Y-18873069D02*
X152998165Y-17844497D01*
X151855309Y-19044497D02*
X151855309Y-18415926D01*
X151855309Y-18415926D02*
X151912451Y-18301640D01*
X151912451Y-18301640D02*
X152026737Y-18244497D01*
X152026737Y-18244497D02*
X152255309Y-18244497D01*
X152255309Y-18244497D02*
X152369594Y-18301640D01*
X151855309Y-18987355D02*
X151969594Y-19044497D01*
X151969594Y-19044497D02*
X152255309Y-19044497D01*
X152255309Y-19044497D02*
X152369594Y-18987355D01*
X152369594Y-18987355D02*
X152426737Y-18873069D01*
X152426737Y-18873069D02*
X152426737Y-18758783D01*
X152426737Y-18758783D02*
X152369594Y-18644497D01*
X152369594Y-18644497D02*
X152255309Y-18587355D01*
X152255309Y-18587355D02*
X151969594Y-18587355D01*
X151969594Y-18587355D02*
X151855309Y-18530212D01*
X151455309Y-18244497D02*
X150998166Y-18244497D01*
X151283880Y-17844497D02*
X151283880Y-18873069D01*
X151283880Y-18873069D02*
X151226737Y-18987355D01*
X151226737Y-18987355D02*
X151112452Y-19044497D01*
X151112452Y-19044497D02*
X150998166Y-19044497D01*
X150141023Y-18987355D02*
X150255309Y-19044497D01*
X150255309Y-19044497D02*
X150483881Y-19044497D01*
X150483881Y-19044497D02*
X150598166Y-18987355D01*
X150598166Y-18987355D02*
X150655309Y-18873069D01*
X150655309Y-18873069D02*
X150655309Y-18415926D01*
X150655309Y-18415926D02*
X150598166Y-18301640D01*
X150598166Y-18301640D02*
X150483881Y-18244497D01*
X150483881Y-18244497D02*
X150255309Y-18244497D01*
X150255309Y-18244497D02*
X150141023Y-18301640D01*
X150141023Y-18301640D02*
X150083881Y-18415926D01*
X150083881Y-18415926D02*
X150083881Y-18530212D01*
X150083881Y-18530212D02*
X150655309Y-18644497D01*
X148826738Y-18244497D02*
X148369595Y-18244497D01*
X148655309Y-19044497D02*
X148655309Y-18015926D01*
X148655309Y-18015926D02*
X148598166Y-17901640D01*
X148598166Y-17901640D02*
X148483881Y-17844497D01*
X148483881Y-17844497D02*
X148369595Y-17844497D01*
X147798167Y-19044497D02*
X147912452Y-18987355D01*
X147912452Y-18987355D02*
X147969595Y-18930212D01*
X147969595Y-18930212D02*
X148026738Y-18815926D01*
X148026738Y-18815926D02*
X148026738Y-18473069D01*
X148026738Y-18473069D02*
X147969595Y-18358783D01*
X147969595Y-18358783D02*
X147912452Y-18301640D01*
X147912452Y-18301640D02*
X147798167Y-18244497D01*
X147798167Y-18244497D02*
X147626738Y-18244497D01*
X147626738Y-18244497D02*
X147512452Y-18301640D01*
X147512452Y-18301640D02*
X147455310Y-18358783D01*
X147455310Y-18358783D02*
X147398167Y-18473069D01*
X147398167Y-18473069D02*
X147398167Y-18815926D01*
X147398167Y-18815926D02*
X147455310Y-18930212D01*
X147455310Y-18930212D02*
X147512452Y-18987355D01*
X147512452Y-18987355D02*
X147626738Y-19044497D01*
X147626738Y-19044497D02*
X147798167Y-19044497D01*
X146883881Y-19044497D02*
X146883881Y-18244497D01*
X146883881Y-18473069D02*
X146826738Y-18358783D01*
X146826738Y-18358783D02*
X146769596Y-18301640D01*
X146769596Y-18301640D02*
X146655310Y-18244497D01*
X146655310Y-18244497D02*
X146541024Y-18244497D01*
X145398167Y-17844497D02*
X144712453Y-17844497D01*
X145055310Y-19044497D02*
X145055310Y-17844497D01*
X144141024Y-19044497D02*
X144255309Y-18987355D01*
X144255309Y-18987355D02*
X144312452Y-18930212D01*
X144312452Y-18930212D02*
X144369595Y-18815926D01*
X144369595Y-18815926D02*
X144369595Y-18473069D01*
X144369595Y-18473069D02*
X144312452Y-18358783D01*
X144312452Y-18358783D02*
X144255309Y-18301640D01*
X144255309Y-18301640D02*
X144141024Y-18244497D01*
X144141024Y-18244497D02*
X143969595Y-18244497D01*
X143969595Y-18244497D02*
X143855309Y-18301640D01*
X143855309Y-18301640D02*
X143798167Y-18358783D01*
X143798167Y-18358783D02*
X143741024Y-18473069D01*
X143741024Y-18473069D02*
X143741024Y-18815926D01*
X143741024Y-18815926D02*
X143798167Y-18930212D01*
X143798167Y-18930212D02*
X143855309Y-18987355D01*
X143855309Y-18987355D02*
X143969595Y-19044497D01*
X143969595Y-19044497D02*
X144141024Y-19044497D01*
X143226738Y-18244497D02*
X143226738Y-19444497D01*
X143226738Y-18301640D02*
X143112453Y-18244497D01*
X143112453Y-18244497D02*
X142883881Y-18244497D01*
X142883881Y-18244497D02*
X142769595Y-18301640D01*
X142769595Y-18301640D02*
X142712453Y-18358783D01*
X142712453Y-18358783D02*
X142655310Y-18473069D01*
X142655310Y-18473069D02*
X142655310Y-18815926D01*
X142655310Y-18815926D02*
X142712453Y-18930212D01*
X142712453Y-18930212D02*
X142769595Y-18987355D01*
X142769595Y-18987355D02*
X142883881Y-19044497D01*
X142883881Y-19044497D02*
X143112453Y-19044497D01*
X143112453Y-19044497D02*
X143226738Y-18987355D01*
X192698166Y-18244497D02*
X191841023Y-18244497D01*
X192355309Y-17730212D02*
X192698166Y-19273069D01*
X191955309Y-18758783D02*
X192812452Y-18758783D01*
X192298166Y-19273069D02*
X191955309Y-17730212D01*
X191498166Y-18987355D02*
X191326738Y-19044497D01*
X191326738Y-19044497D02*
X191041023Y-19044497D01*
X191041023Y-19044497D02*
X190926738Y-18987355D01*
X190926738Y-18987355D02*
X190869595Y-18930212D01*
X190869595Y-18930212D02*
X190812452Y-18815926D01*
X190812452Y-18815926D02*
X190812452Y-18701640D01*
X190812452Y-18701640D02*
X190869595Y-18587355D01*
X190869595Y-18587355D02*
X190926738Y-18530212D01*
X190926738Y-18530212D02*
X191041023Y-18473069D01*
X191041023Y-18473069D02*
X191269595Y-18415926D01*
X191269595Y-18415926D02*
X191383880Y-18358783D01*
X191383880Y-18358783D02*
X191441023Y-18301640D01*
X191441023Y-18301640D02*
X191498166Y-18187355D01*
X191498166Y-18187355D02*
X191498166Y-18073069D01*
X191498166Y-18073069D02*
X191441023Y-17958783D01*
X191441023Y-17958783D02*
X191383880Y-17901640D01*
X191383880Y-17901640D02*
X191269595Y-17844497D01*
X191269595Y-17844497D02*
X190983880Y-17844497D01*
X190983880Y-17844497D02*
X190812452Y-17901640D01*
X189783881Y-19044497D02*
X189783881Y-18415926D01*
X189783881Y-18415926D02*
X189841023Y-18301640D01*
X189841023Y-18301640D02*
X189955309Y-18244497D01*
X189955309Y-18244497D02*
X190183881Y-18244497D01*
X190183881Y-18244497D02*
X190298166Y-18301640D01*
X189783881Y-18987355D02*
X189898166Y-19044497D01*
X189898166Y-19044497D02*
X190183881Y-19044497D01*
X190183881Y-19044497D02*
X190298166Y-18987355D01*
X190298166Y-18987355D02*
X190355309Y-18873069D01*
X190355309Y-18873069D02*
X190355309Y-18758783D01*
X190355309Y-18758783D02*
X190298166Y-18644497D01*
X190298166Y-18644497D02*
X190183881Y-18587355D01*
X190183881Y-18587355D02*
X189898166Y-18587355D01*
X189898166Y-18587355D02*
X189783881Y-18530212D01*
X189212452Y-18244497D02*
X189212452Y-19044497D01*
X189212452Y-18358783D02*
X189155309Y-18301640D01*
X189155309Y-18301640D02*
X189041024Y-18244497D01*
X189041024Y-18244497D02*
X188869595Y-18244497D01*
X188869595Y-18244497D02*
X188755309Y-18301640D01*
X188755309Y-18301640D02*
X188698167Y-18415926D01*
X188698167Y-18415926D02*
X188698167Y-19044497D01*
X187612453Y-19044497D02*
X187612453Y-17844497D01*
X187612453Y-18987355D02*
X187726738Y-19044497D01*
X187726738Y-19044497D02*
X187955310Y-19044497D01*
X187955310Y-19044497D02*
X188069595Y-18987355D01*
X188069595Y-18987355D02*
X188126738Y-18930212D01*
X188126738Y-18930212D02*
X188183881Y-18815926D01*
X188183881Y-18815926D02*
X188183881Y-18473069D01*
X188183881Y-18473069D02*
X188126738Y-18358783D01*
X188126738Y-18358783D02*
X188069595Y-18301640D01*
X188069595Y-18301640D02*
X187955310Y-18244497D01*
X187955310Y-18244497D02*
X187726738Y-18244497D01*
X187726738Y-18244497D02*
X187612453Y-18301640D01*
X187155310Y-18244497D02*
X186869596Y-19044497D01*
X186583881Y-18244497D02*
X186869596Y-19044497D01*
X186869596Y-19044497D02*
X186983881Y-19330212D01*
X186983881Y-19330212D02*
X187041024Y-19387355D01*
X187041024Y-19387355D02*
X187155310Y-19444497D01*
X185555310Y-19044497D02*
X186126738Y-19044497D01*
X186126738Y-19044497D02*
X186126738Y-17844497D01*
X185155309Y-19044497D02*
X185155309Y-17844497D01*
X185155309Y-17844497D02*
X184698166Y-17844497D01*
X184698166Y-17844497D02*
X184583881Y-17901640D01*
X184583881Y-17901640D02*
X184526738Y-17958783D01*
X184526738Y-17958783D02*
X184469595Y-18073069D01*
X184469595Y-18073069D02*
X184469595Y-18244497D01*
X184469595Y-18244497D02*
X184526738Y-18358783D01*
X184526738Y-18358783D02*
X184583881Y-18415926D01*
X184583881Y-18415926D02*
X184698166Y-18473069D01*
X184698166Y-18473069D02*
X185155309Y-18473069D01*
X184241024Y-19158783D02*
X183326738Y-19158783D01*
X183041023Y-19044497D02*
X183041023Y-17844497D01*
X182926738Y-18587355D02*
X182583880Y-19044497D01*
X182583880Y-18244497D02*
X183041023Y-18701640D01*
X182069594Y-19044497D02*
X182069594Y-17844497D01*
X182069594Y-18301640D02*
X181955309Y-18244497D01*
X181955309Y-18244497D02*
X181726737Y-18244497D01*
X181726737Y-18244497D02*
X181612451Y-18301640D01*
X181612451Y-18301640D02*
X181555309Y-18358783D01*
X181555309Y-18358783D02*
X181498166Y-18473069D01*
X181498166Y-18473069D02*
X181498166Y-18815926D01*
X181498166Y-18815926D02*
X181555309Y-18930212D01*
X181555309Y-18930212D02*
X181612451Y-18987355D01*
X181612451Y-18987355D02*
X181726737Y-19044497D01*
X181726737Y-19044497D02*
X181955309Y-19044497D01*
X181955309Y-19044497D02*
X182069594Y-18987355D01*
X180469595Y-19044497D02*
X180469595Y-17844497D01*
X180469595Y-18987355D02*
X180583880Y-19044497D01*
X180583880Y-19044497D02*
X180812452Y-19044497D01*
X180812452Y-19044497D02*
X180926737Y-18987355D01*
X180926737Y-18987355D02*
X180983880Y-18930212D01*
X180983880Y-18930212D02*
X181041023Y-18815926D01*
X181041023Y-18815926D02*
X181041023Y-18473069D01*
X181041023Y-18473069D02*
X180983880Y-18358783D01*
X180983880Y-18358783D02*
X180926737Y-18301640D01*
X180926737Y-18301640D02*
X180812452Y-18244497D01*
X180812452Y-18244497D02*
X180583880Y-18244497D01*
X180583880Y-18244497D02*
X180469595Y-18301640D01*
%LPC*%
D11*
X161005310Y-46053405D03*
D12*
X167505310Y-39553405D03*
X167505310Y-52553405D03*
D11*
X174005310Y-46053405D03*
X160933435Y-27003405D03*
D12*
X167433435Y-20503405D03*
X167433435Y-33503405D03*
D11*
X173933435Y-27003405D03*
X122905310Y-27003405D03*
D12*
X129405310Y-20503405D03*
X129405310Y-33503405D03*
D11*
X135905310Y-27003405D03*
X141955310Y-46053405D03*
D12*
X148455310Y-39553405D03*
X148455310Y-52553405D03*
D11*
X154955310Y-46053405D03*
X141955310Y-27003405D03*
D12*
X148455310Y-20503405D03*
X148455310Y-33503405D03*
D11*
X154955310Y-27003405D03*
X180055310Y-27003405D03*
D12*
X186555310Y-20503405D03*
X186555310Y-33503405D03*
D11*
X193055310Y-27003405D03*
%LPD*%
M02*
