G04 #@! TF.GenerationSoftware,KiCad,Pcbnew,8.0.5*
G04 #@! TF.CreationDate,2024-09-18T06:09:18+09:00*
G04 #@! TF.ProjectId,SandyLP_Base,53616e64-794c-4505-9f42-6173652e6b69,v.0*
G04 #@! TF.SameCoordinates,Original*
G04 #@! TF.FileFunction,Soldermask,Bot*
G04 #@! TF.FilePolarity,Negative*
%FSLAX46Y46*%
G04 Gerber Fmt 4.6, Leading zero omitted, Abs format (unit mm)*
G04 Created by KiCad (PCBNEW 8.0.5) date 2024-09-18 06:09:18*
%MOMM*%
%LPD*%
G01*
G04 APERTURE LIST*
G04 Aperture macros list*
%AMRoundRect*
0 Rectangle with rounded corners*
0 $1 Rounding radius*
0 $2 $3 $4 $5 $6 $7 $8 $9 X,Y pos of 4 corners*
0 Add a 4 corners polygon primitive as box body*
4,1,4,$2,$3,$4,$5,$6,$7,$8,$9,$2,$3,0*
0 Add four circle primitives for the rounded corners*
1,1,$1+$1,$2,$3*
1,1,$1+$1,$4,$5*
1,1,$1+$1,$6,$7*
1,1,$1+$1,$8,$9*
0 Add four rect primitives between the rounded corners*
20,1,$1+$1,$2,$3,$4,$5,0*
20,1,$1+$1,$4,$5,$6,$7,0*
20,1,$1+$1,$6,$7,$8,$9,0*
20,1,$1+$1,$8,$9,$2,$3,0*%
%AMFreePoly0*
4,1,19,0.500000,-0.750000,0.000000,-0.750000,0.000000,-0.744911,-0.071157,-0.744911,-0.207708,-0.704816,-0.327430,-0.627875,-0.420627,-0.520320,-0.479746,-0.390866,-0.500000,-0.250000,-0.500000,0.250000,-0.479746,0.390866,-0.420627,0.520320,-0.327430,0.627875,-0.207708,0.704816,-0.071157,0.744911,0.000000,0.744911,0.000000,0.750000,0.500000,0.750000,0.500000,-0.750000,0.500000,-0.750000,
$1*%
%AMFreePoly1*
4,1,19,0.000000,0.744911,0.071157,0.744911,0.207708,0.704816,0.327430,0.627875,0.420627,0.520320,0.479746,0.390866,0.500000,0.250000,0.500000,-0.250000,0.479746,-0.390866,0.420627,-0.520320,0.327430,-0.627875,0.207708,-0.704816,0.071157,-0.744911,0.000000,-0.744911,0.000000,-0.750000,-0.500000,-0.750000,-0.500000,0.750000,0.000000,0.750000,0.000000,0.744911,0.000000,0.744911,
$1*%
G04 Aperture macros list end*
%ADD10C,3.000000*%
%ADD11C,5.000000*%
%ADD12C,1.600000*%
%ADD13R,2.600000X2.600000*%
%ADD14C,2.200000*%
%ADD15O,3.300000X2.000000*%
%ADD16O,1.900000X1.600000*%
%ADD17O,1.300000X1.600000*%
%ADD18C,2.000000*%
%ADD19C,0.650000*%
%ADD20R,0.600000X1.450000*%
%ADD21R,0.300000X1.450000*%
%ADD22O,1.000000X1.600000*%
%ADD23O,1.000000X2.100000*%
%ADD24R,1.200000X0.900000*%
%ADD25C,3.600000*%
%ADD26R,1.315624X0.820000*%
%ADD27RoundRect,0.140000X0.170000X-0.140000X0.170000X0.140000X-0.170000X0.140000X-0.170000X-0.140000X0*%
%ADD28RoundRect,0.147500X-0.172500X0.147500X-0.172500X-0.147500X0.172500X-0.147500X0.172500X0.147500X0*%
%ADD29RoundRect,0.135000X0.185000X-0.135000X0.185000X0.135000X-0.185000X0.135000X-0.185000X-0.135000X0*%
%ADD30R,0.850000X0.850000*%
%ADD31O,0.850000X0.850000*%
%ADD32RoundRect,0.135000X-0.185000X0.135000X-0.185000X-0.135000X0.185000X-0.135000X0.185000X0.135000X0*%
%ADD33RoundRect,0.140000X-0.140000X-0.170000X0.140000X-0.170000X0.140000X0.170000X-0.140000X0.170000X0*%
%ADD34RoundRect,0.140000X0.140000X0.170000X-0.140000X0.170000X-0.140000X-0.170000X0.140000X-0.170000X0*%
%ADD35RoundRect,0.375000X0.375000X-0.625000X0.375000X0.625000X-0.375000X0.625000X-0.375000X-0.625000X0*%
%ADD36RoundRect,0.500000X1.400000X-0.500000X1.400000X0.500000X-1.400000X0.500000X-1.400000X-0.500000X0*%
%ADD37RoundRect,0.250000X-0.650000X0.325000X-0.650000X-0.325000X0.650000X-0.325000X0.650000X0.325000X0*%
%ADD38RoundRect,0.218750X-0.256250X0.218750X-0.256250X-0.218750X0.256250X-0.218750X0.256250X0.218750X0*%
%ADD39R,1.700000X1.000000*%
%ADD40RoundRect,0.250000X0.325000X0.650000X-0.325000X0.650000X-0.325000X-0.650000X0.325000X-0.650000X0*%
%ADD41C,1.700000*%
%ADD42O,1.700000X1.700000*%
%ADD43RoundRect,0.140000X-0.170000X0.140000X-0.170000X-0.140000X0.170000X-0.140000X0.170000X0.140000X0*%
%ADD44RoundRect,0.225000X0.375000X-0.225000X0.375000X0.225000X-0.375000X0.225000X-0.375000X-0.225000X0*%
%ADD45R,1.300000X3.400000*%
%ADD46RoundRect,0.125000X0.250000X0.125000X-0.250000X0.125000X-0.250000X-0.125000X0.250000X-0.125000X0*%
%ADD47R,3.400000X4.300000*%
%ADD48FreePoly0,90.000000*%
%ADD49FreePoly1,90.000000*%
%ADD50RoundRect,0.135000X-0.135000X-0.185000X0.135000X-0.185000X0.135000X0.185000X-0.135000X0.185000X0*%
%ADD51RoundRect,0.175000X-0.325000X0.175000X-0.325000X-0.175000X0.325000X-0.175000X0.325000X0.175000X0*%
%ADD52RoundRect,0.150000X-0.150000X0.200000X-0.150000X-0.200000X0.150000X-0.200000X0.150000X0.200000X0*%
%ADD53R,0.400000X1.900000*%
%ADD54RoundRect,0.150000X0.587500X0.150000X-0.587500X0.150000X-0.587500X-0.150000X0.587500X-0.150000X0*%
%ADD55RoundRect,0.050000X0.387500X0.050000X-0.387500X0.050000X-0.387500X-0.050000X0.387500X-0.050000X0*%
%ADD56RoundRect,0.050000X0.050000X0.387500X-0.050000X0.387500X-0.050000X-0.387500X0.050000X-0.387500X0*%
%ADD57RoundRect,0.144000X1.456000X1.456000X-1.456000X1.456000X-1.456000X-1.456000X1.456000X-1.456000X0*%
G04 APERTURE END LIST*
D10*
X230371695Y-87903685D03*
D11*
X235371695Y-84153685D03*
D10*
X235371695Y-90103685D03*
D12*
X240371695Y-79003685D03*
D13*
X238646695Y-90103685D03*
X227096695Y-87903685D03*
D10*
X249421775Y-87903685D03*
D11*
X254421775Y-84153685D03*
D10*
X254421775Y-90103685D03*
D12*
X259421775Y-79003685D03*
D13*
X257696775Y-90103685D03*
X246146775Y-87903685D03*
D10*
X49395935Y-68853565D03*
D11*
X54395935Y-65103565D03*
D10*
X54395935Y-71053565D03*
D12*
X59395935Y-59953565D03*
D13*
X57670935Y-71053565D03*
X46120935Y-68853565D03*
D10*
X77970935Y-87903645D03*
D11*
X82970935Y-84153645D03*
D10*
X82970935Y-90103645D03*
D12*
X87970935Y-79003645D03*
D13*
X86245935Y-90103645D03*
X74695935Y-87903645D03*
D10*
X87495935Y-68853565D03*
D11*
X92495935Y-65103565D03*
D10*
X92495935Y-71053565D03*
D12*
X97495935Y-59953565D03*
D13*
X95770935Y-71053565D03*
X84220935Y-68853565D03*
D10*
X87495935Y-49803485D03*
D11*
X92495935Y-46053485D03*
D10*
X92495935Y-52003485D03*
D12*
X97495935Y-40903485D03*
D13*
X95770935Y-52003485D03*
X84220935Y-49803485D03*
D10*
X106545935Y-68853565D03*
D11*
X111545935Y-65103565D03*
D10*
X111545935Y-71053565D03*
D12*
X116545935Y-59953565D03*
D13*
X114820935Y-71053565D03*
X103270935Y-68853565D03*
D10*
X220846655Y-49803525D03*
D11*
X225846655Y-46053525D03*
D10*
X225846655Y-52003525D03*
D12*
X230846655Y-40903525D03*
D13*
X229121655Y-52003525D03*
X217571655Y-49803525D03*
D10*
X220846655Y-68853605D03*
D11*
X225846655Y-65103605D03*
D10*
X225846655Y-71053605D03*
D12*
X230846655Y-59953605D03*
D13*
X229121655Y-71053605D03*
X217571655Y-68853605D03*
D10*
X239896735Y-68853605D03*
D11*
X244896735Y-65103605D03*
D10*
X244896735Y-71053605D03*
D12*
X249896735Y-59953605D03*
D13*
X248171735Y-71053605D03*
X236621735Y-68853605D03*
D10*
X211321615Y-87903645D03*
D11*
X216321615Y-84153645D03*
D10*
X216321615Y-90103645D03*
D12*
X221321615Y-79003645D03*
D13*
X219596615Y-90103645D03*
X208046615Y-87903645D03*
D10*
X192271535Y-87903645D03*
D11*
X197271535Y-84153645D03*
D10*
X197271535Y-90103645D03*
D12*
X202271535Y-79003645D03*
D13*
X200546535Y-90103645D03*
X188996535Y-87903645D03*
D10*
X239896735Y-49803525D03*
D11*
X244896735Y-46053525D03*
D10*
X244896735Y-52003525D03*
D12*
X249896735Y-40903525D03*
D13*
X248171735Y-52003525D03*
X236621735Y-49803525D03*
D10*
X97020935Y-87903645D03*
D11*
X102020935Y-84153645D03*
D10*
X102020935Y-90103645D03*
D12*
X107020935Y-79003645D03*
D13*
X105295935Y-90103645D03*
X93745935Y-87903645D03*
D10*
X68445935Y-49803485D03*
D11*
X73445935Y-46053485D03*
D10*
X73445935Y-52003485D03*
D12*
X78445935Y-40903485D03*
D13*
X76720935Y-52003485D03*
X65170935Y-49803485D03*
D10*
X58920935Y-87903645D03*
D11*
X63920935Y-84153645D03*
D10*
X63920935Y-90103645D03*
D12*
X68920935Y-79003645D03*
D13*
X67195935Y-90103645D03*
X55645935Y-87903645D03*
D10*
X39870935Y-87903645D03*
D11*
X44870935Y-84153645D03*
D10*
X44870935Y-90103645D03*
D12*
X49870935Y-79003645D03*
D13*
X48145935Y-90103645D03*
X36595935Y-87903645D03*
D10*
X92258435Y-106953765D03*
D11*
X97258435Y-103203765D03*
D10*
X97258435Y-109153765D03*
D12*
X102258435Y-98053765D03*
D13*
X100533435Y-109153765D03*
X88983435Y-106953765D03*
D10*
X216083435Y-106953765D03*
D11*
X221083435Y-103203765D03*
D10*
X221083435Y-109153765D03*
D12*
X226083435Y-98053765D03*
D13*
X224358435Y-109153765D03*
X212808435Y-106953765D03*
D10*
X277995935Y-68853605D03*
D11*
X282995935Y-65103605D03*
D10*
X282995935Y-71053605D03*
D12*
X287995935Y-59953605D03*
D13*
X286270935Y-71053605D03*
X274720935Y-68853605D03*
D10*
X258945975Y-68853765D03*
D11*
X263945975Y-65103765D03*
D10*
X263945975Y-71053765D03*
D12*
X268945975Y-59953765D03*
D13*
X267220975Y-71053765D03*
X255670975Y-68853765D03*
D10*
X30345935Y-68853765D03*
D11*
X35345935Y-65103765D03*
D10*
X35345935Y-71053765D03*
D12*
X40345935Y-59953765D03*
D13*
X38620935Y-71053765D03*
X27070935Y-68853765D03*
D10*
X268472015Y-87903685D03*
D11*
X273472015Y-84153685D03*
D10*
X273472015Y-90103685D03*
D12*
X278472015Y-79003685D03*
D13*
X276747015Y-90103685D03*
X265197015Y-87903685D03*
D10*
X68445935Y-68853565D03*
D11*
X73445935Y-65103565D03*
D10*
X73445935Y-71053565D03*
D12*
X78445935Y-59953565D03*
D13*
X76720935Y-71053565D03*
X65170935Y-68853565D03*
D14*
X23895935Y-41840905D03*
X109164685Y-37719030D03*
X209177185Y-37719030D03*
D10*
X73208434Y-106953765D03*
D11*
X78208434Y-103203765D03*
D10*
X78208434Y-109153765D03*
D12*
X83208434Y-98053765D03*
D13*
X81483434Y-109153765D03*
X69933434Y-106953765D03*
D14*
X294445935Y-41840905D03*
D10*
X201796575Y-68853565D03*
D11*
X206796575Y-65103565D03*
D10*
X206796575Y-71053565D03*
D12*
X211796575Y-59953565D03*
D13*
X210071575Y-71053565D03*
X198521575Y-68853565D03*
D10*
X113689685Y-106953405D03*
D11*
X118689685Y-103203405D03*
D10*
X118689685Y-109153405D03*
D12*
X123689685Y-98053405D03*
D13*
X121964685Y-109153405D03*
X110414685Y-106953405D03*
D14*
X106783435Y-112087780D03*
X24695935Y-111287780D03*
D10*
X235133435Y-106953405D03*
D11*
X240133435Y-103203405D03*
D10*
X240133435Y-109153405D03*
D12*
X245133435Y-98053405D03*
D13*
X243408435Y-109153405D03*
X231858435Y-106953405D03*
D15*
X159170935Y-108803765D03*
D10*
X162920935Y-108203765D03*
D16*
X154670935Y-103203765D03*
D11*
X159170935Y-103203765D03*
D12*
X154020935Y-98203765D03*
D15*
X159170935Y-97603765D03*
D17*
X151670935Y-100703765D03*
X151670935Y-105703765D03*
X151670935Y-103203765D03*
X166170935Y-100703765D03*
D13*
X165120935Y-99928765D03*
X162920935Y-111478765D03*
D17*
X166170935Y-105703765D03*
D10*
X135121375Y-106953765D03*
D11*
X140121375Y-103203765D03*
D10*
X140121375Y-109153765D03*
D12*
X145121375Y-98053765D03*
D13*
X143396375Y-109153765D03*
X131846375Y-106953765D03*
D10*
X116070935Y-87903405D03*
D11*
X121070935Y-84153405D03*
D10*
X121070935Y-90103405D03*
D12*
X126070935Y-79003405D03*
D13*
X124345935Y-90103405D03*
X112795935Y-87903405D03*
D10*
X194652185Y-106953405D03*
D11*
X199652185Y-103203405D03*
D10*
X199652185Y-109153405D03*
D12*
X204652185Y-98053405D03*
D13*
X202927185Y-109153405D03*
X191377185Y-106953405D03*
D10*
X173220975Y-106953765D03*
D11*
X178220975Y-103203765D03*
D10*
X178220975Y-109153765D03*
D12*
X183220975Y-98053765D03*
D13*
X181495975Y-109153765D03*
X169945975Y-106953765D03*
D14*
X293645935Y-111287780D03*
X63920935Y-74628405D03*
X254420935Y-74628405D03*
X159170935Y-74628405D03*
X209177185Y-112087780D03*
D18*
X130595934Y-103203405D03*
X187745934Y-103203405D03*
X249658434Y-103203405D03*
X68683434Y-103203405D03*
X291330310Y-69865905D03*
X291330310Y-96059655D03*
X230608434Y-103203405D03*
X291330310Y-49625280D03*
X291330310Y-74628405D03*
X291330310Y-56769030D03*
X291330310Y-61531530D03*
D19*
X31955935Y-40647115D03*
X37735935Y-40647115D03*
D20*
X31595935Y-42092115D03*
X32395935Y-42092115D03*
D21*
X33595935Y-42092115D03*
X34595935Y-42092115D03*
X35095935Y-42092115D03*
X36095935Y-42092115D03*
D20*
X37295935Y-42092115D03*
X38095935Y-42092115D03*
X38095935Y-42092115D03*
X37295935Y-42092115D03*
D21*
X36595935Y-42092115D03*
X35595935Y-42092115D03*
X34095935Y-42092115D03*
X33095935Y-42092115D03*
D20*
X32395935Y-42092115D03*
X31595935Y-42092115D03*
D22*
X30525935Y-36997115D03*
D23*
X30525935Y-41177115D03*
D22*
X39165935Y-36997115D03*
D23*
X39165935Y-41177115D03*
D18*
X168696059Y-110347219D03*
X291330310Y-44862780D03*
X87733434Y-103203405D03*
D24*
X68670935Y-61278405D03*
X68670935Y-64578405D03*
D25*
X257345935Y-37078405D03*
D24*
X87733435Y-62262780D03*
X87733435Y-65562780D03*
D25*
X124642810Y-55578405D03*
D24*
X92495935Y-100362780D03*
X92495935Y-103662780D03*
X135358435Y-100362780D03*
X135358435Y-103662780D03*
D26*
X26634998Y-89356530D03*
X26634998Y-90856530D03*
X32150622Y-90856530D03*
X32150622Y-89356530D03*
D27*
X48858435Y-45264655D03*
X48858435Y-44304655D03*
D25*
X149645935Y-84153405D03*
D28*
X44970935Y-71339655D03*
X44970935Y-72309655D03*
D26*
X286191248Y-89356530D03*
X286191248Y-90856530D03*
X291706872Y-90856530D03*
X291706872Y-89356530D03*
D29*
X52958435Y-45294655D03*
X52958435Y-44274655D03*
D30*
X40658435Y-56684655D03*
D31*
X40658435Y-55684655D03*
X40658435Y-54684655D03*
X40658435Y-53684655D03*
X40658435Y-52684655D03*
X40658435Y-51684655D03*
X40658435Y-50684655D03*
X40658435Y-49684655D03*
X40658435Y-48684655D03*
X40658435Y-47684655D03*
D24*
X78208435Y-80278405D03*
X78208435Y-83578405D03*
D32*
X65270935Y-40364655D03*
X65270935Y-41384655D03*
D33*
X59190935Y-53184655D03*
X60150935Y-53184655D03*
D25*
X292845935Y-37078405D03*
D34*
X286738435Y-87984655D03*
X285778435Y-87984655D03*
D33*
X58578435Y-48184655D03*
X59538435Y-48184655D03*
D24*
X192508435Y-81312780D03*
X192508435Y-84612780D03*
D35*
X35958435Y-56378405D03*
X33658435Y-56378405D03*
D36*
X33658435Y-50078405D03*
D35*
X31358435Y-56378405D03*
D27*
X54058435Y-45264655D03*
X54058435Y-44304655D03*
D37*
X28658435Y-56278405D03*
X28658435Y-59228405D03*
D24*
X113927185Y-99478405D03*
X113927185Y-102778405D03*
D25*
X25495935Y-37078405D03*
D24*
X249658435Y-80278405D03*
X249658435Y-83578405D03*
D34*
X286738435Y-81984655D03*
X285778435Y-81984655D03*
D29*
X259595934Y-97788405D03*
X259595934Y-96768405D03*
D25*
X294445935Y-52678405D03*
X44870935Y-46053405D03*
D38*
X28495935Y-39303405D03*
X28495935Y-40878405D03*
D39*
X47658435Y-74584655D03*
X41358435Y-74584655D03*
X47658435Y-78384655D03*
X41358435Y-78384655D03*
D40*
X33858435Y-58928405D03*
X30908435Y-58928405D03*
D27*
X47858435Y-45264655D03*
X47858435Y-44304655D03*
D24*
X221070935Y-61278405D03*
X221070935Y-64578405D03*
X230608435Y-81312780D03*
X230608435Y-84612780D03*
D41*
X44870935Y-65128405D03*
D42*
X44870935Y-62588405D03*
X44870935Y-60048405D03*
D24*
X194889685Y-100362780D03*
X194889685Y-103662780D03*
D25*
X159170935Y-46053405D03*
D43*
X52158435Y-59204655D03*
X52158435Y-60164655D03*
D24*
X211558435Y-80278405D03*
X211558435Y-83578405D03*
D44*
X27345935Y-45747115D03*
X27345935Y-42447115D03*
D25*
X179411560Y-74628405D03*
D45*
X50045935Y-103203405D03*
X58745935Y-103203405D03*
D24*
X256802184Y-96790905D03*
X256802184Y-100090905D03*
D46*
X63795935Y-41879655D03*
X63795935Y-43149655D03*
X63795935Y-44419655D03*
X63795935Y-45689655D03*
X58395935Y-45689655D03*
X58395935Y-44419655D03*
X58395935Y-43149655D03*
X58395935Y-41879655D03*
D47*
X61095935Y-43784655D03*
D18*
X291330310Y-100822155D03*
D43*
X50958435Y-59204655D03*
X50958435Y-60164655D03*
D25*
X197270935Y-40100280D03*
D29*
X51858435Y-45294655D03*
X51858435Y-44274655D03*
D48*
X41758435Y-72134655D03*
D49*
X41758435Y-70834655D03*
D27*
X55158435Y-45264655D03*
X55158435Y-44304655D03*
D24*
X202033435Y-62262780D03*
X202033435Y-65562780D03*
D26*
X286191248Y-83403405D03*
X286191248Y-84903405D03*
X291706872Y-84903405D03*
X291706872Y-83403405D03*
D24*
X240133435Y-62262780D03*
X240133435Y-65562780D03*
D50*
X53648435Y-57684655D03*
X54668435Y-57684655D03*
D34*
X27218435Y-75984655D03*
X26258435Y-75984655D03*
D26*
X286191248Y-77450280D03*
X286191248Y-78950280D03*
X291706872Y-78950280D03*
X291706872Y-77450280D03*
D24*
X173458435Y-99478405D03*
X173458435Y-102778405D03*
D39*
X58408435Y-74584655D03*
X52108435Y-74584655D03*
X58408435Y-78384655D03*
X52108435Y-78384655D03*
D24*
X268708435Y-81312780D03*
X268708435Y-84612780D03*
D45*
X259595935Y-103203405D03*
X268295935Y-103203405D03*
D25*
X159170935Y-65103405D03*
D29*
X32858435Y-75534655D03*
X32858435Y-74514655D03*
D25*
X137739685Y-74628405D03*
D26*
X26634998Y-83403405D03*
X26634998Y-84903405D03*
X32150622Y-84903405D03*
X32150622Y-83403405D03*
X26634998Y-77450280D03*
X26634998Y-78950280D03*
X32150622Y-78950280D03*
X32150622Y-77450280D03*
D25*
X168695935Y-84153405D03*
D27*
X49858435Y-45264655D03*
X49858435Y-44304655D03*
D24*
X30570935Y-61278405D03*
X30570935Y-64578405D03*
X221070935Y-42278405D03*
X221070935Y-45578405D03*
D34*
X286738435Y-75984655D03*
X285778435Y-75984655D03*
D25*
X121070935Y-40100280D03*
D51*
X34708435Y-44384655D03*
D52*
X36408435Y-44384655D03*
X36408435Y-46384655D03*
X34508435Y-46384655D03*
D29*
X40945935Y-41784655D03*
X40945935Y-40764655D03*
D24*
X278233435Y-62478405D03*
X278233435Y-65778405D03*
D53*
X55758435Y-59484655D03*
X54558435Y-59484655D03*
X53358435Y-59484655D03*
D24*
X87733435Y-43212780D03*
X87733435Y-46512780D03*
X47252184Y-95600280D03*
X47252184Y-98900280D03*
D34*
X46850935Y-53228405D03*
X45890935Y-53228405D03*
D27*
X55858435Y-41344655D03*
X55858435Y-40384655D03*
D32*
X66470935Y-40368405D03*
X66470935Y-41388405D03*
D24*
X59158435Y-81312780D03*
X59158435Y-84612780D03*
X97258435Y-81312780D03*
X97258435Y-84612780D03*
D29*
X38048435Y-75524655D03*
X38048435Y-74504655D03*
D24*
X116308435Y-80278405D03*
X116308435Y-83578405D03*
X235370935Y-100362780D03*
X235370935Y-103662780D03*
X106783435Y-61278405D03*
X106783435Y-64578405D03*
D25*
X60995935Y-37078405D03*
D54*
X36395935Y-74634655D03*
X36395935Y-76534655D03*
X34520935Y-75584655D03*
D24*
X149645935Y-99478405D03*
X149645935Y-102778405D03*
D34*
X27218435Y-81984655D03*
X26258435Y-81984655D03*
D32*
X33058435Y-44209655D03*
X33058435Y-45229655D03*
D55*
X57195935Y-49184655D03*
X57195935Y-49584655D03*
X57195935Y-49984655D03*
X57195935Y-50384655D03*
X57195935Y-50784655D03*
X57195935Y-51184655D03*
X57195935Y-51584655D03*
X57195935Y-51984655D03*
X57195935Y-52384655D03*
X57195935Y-52784655D03*
X57195935Y-53184655D03*
X57195935Y-53584655D03*
X57195935Y-53984655D03*
X57195935Y-54384655D03*
D56*
X56358435Y-55222155D03*
X55958435Y-55222155D03*
X55558435Y-55222155D03*
X55158435Y-55222155D03*
X54758435Y-55222155D03*
X54358435Y-55222155D03*
X53958435Y-55222155D03*
X53558435Y-55222155D03*
X53158435Y-55222155D03*
X52758435Y-55222155D03*
X52358435Y-55222155D03*
X51958435Y-55222155D03*
X51558435Y-55222155D03*
X51158435Y-55222155D03*
D55*
X50320935Y-54384655D03*
X50320935Y-53984655D03*
X50320935Y-53584655D03*
X50320935Y-53184655D03*
X50320935Y-52784655D03*
X50320935Y-52384655D03*
X50320935Y-51984655D03*
X50320935Y-51584655D03*
X50320935Y-51184655D03*
X50320935Y-50784655D03*
X50320935Y-50384655D03*
X50320935Y-49984655D03*
X50320935Y-49584655D03*
X50320935Y-49184655D03*
D56*
X51158435Y-48347155D03*
X51558435Y-48347155D03*
X51958435Y-48347155D03*
X52358435Y-48347155D03*
X52758435Y-48347155D03*
X53158435Y-48347155D03*
X53558435Y-48347155D03*
X53958435Y-48347155D03*
X54358435Y-48347155D03*
X54758435Y-48347155D03*
X55158435Y-48347155D03*
X55558435Y-48347155D03*
X55958435Y-48347155D03*
X56358435Y-48347155D03*
D57*
X53758435Y-51784655D03*
D24*
X73445935Y-99478405D03*
X73445935Y-102778405D03*
D27*
X57058435Y-41364655D03*
X57058435Y-40404655D03*
D29*
X43758435Y-72334655D03*
X43758435Y-71314655D03*
D24*
X259183435Y-61278405D03*
X259183435Y-64578405D03*
D34*
X27218435Y-87984655D03*
X26258435Y-87984655D03*
D24*
X40070935Y-80278405D03*
X40070935Y-83578405D03*
X68670935Y-42278405D03*
X68670935Y-45578405D03*
X240133435Y-43212780D03*
X240133435Y-46512780D03*
D29*
X50045934Y-96598405D03*
X50045934Y-95578405D03*
D27*
X50858435Y-45264655D03*
X50858435Y-44304655D03*
D25*
X23895935Y-52678405D03*
X273470935Y-46053405D03*
D24*
X216320935Y-99478405D03*
X216320935Y-102778405D03*
D25*
X193699060Y-55578405D03*
D24*
X49633435Y-62262780D03*
X49633435Y-65562780D03*
M02*
