M48
; DRILL file {KiCad 8.0.5} date 2024-09-18T06:09:13+0900
; FORMAT={-:-/ absolute / metric / decimal}
; #@! TF.CreationDate,2024-09-18T06:09:13+09:00
; #@! TF.GenerationSoftware,Kicad,Pcbnew,8.0.5
; #@! TF.FileFunction,NonPlated,1,2,NPTH
FMAT,2
METRIC
; #@! TA.AperFunction,NonPlated,NPTH,ComponentDrill
T1C0.650
; #@! TA.AperFunction,NonPlated,NPTH,ComponentDrill
T2C1.600
; #@! TA.AperFunction,NonPlated,NPTH,ComponentDrill
T3C2.200
; #@! TA.AperFunction,NonPlated,NPTH,ComponentDrill
T4C3.000
; #@! TA.AperFunction,NonPlated,NPTH,ComponentDrill
T5C5.000
%
G90
G05
T1
X31.956Y-40.647
X37.736Y-40.647
T2
X40.346Y-59.954
X49.871Y-79.004
X59.396Y-59.954
X68.921Y-79.004
X78.446Y-40.903
X78.446Y-59.954
X83.208Y-98.054
X87.971Y-79.004
X97.496Y-40.903
X97.496Y-59.954
X102.258Y-98.054
X107.021Y-79.004
X116.546Y-59.954
X123.69Y-98.053
X126.071Y-79.003
X145.121Y-98.054
X154.021Y-98.204
X183.221Y-98.054
X202.272Y-79.004
X204.652Y-98.053
X211.797Y-59.954
X221.322Y-79.004
X226.083Y-98.054
X230.847Y-40.904
X230.847Y-59.954
X240.372Y-79.004
X245.133Y-98.053
X249.897Y-40.904
X249.897Y-59.954
X259.422Y-79.004
X268.946Y-59.954
X278.472Y-79.004
X287.996Y-59.954
T3
X23.896Y-41.841
X24.696Y-111.288
X63.921Y-74.628
X106.783Y-112.088
X109.165Y-37.719
X159.171Y-74.628
X209.177Y-37.719
X209.177Y-112.088
X254.421Y-74.628
X293.646Y-111.288
X294.446Y-41.841
T4
X30.346Y-68.854
X35.346Y-71.054
X39.871Y-87.904
X44.871Y-90.104
X49.396Y-68.854
X54.396Y-71.054
X58.921Y-87.904
X63.921Y-90.104
X68.446Y-49.803
X68.446Y-68.854
X73.208Y-106.954
X73.446Y-52.003
X73.446Y-71.054
X77.971Y-87.904
X78.208Y-109.154
X82.971Y-90.104
X87.496Y-49.803
X87.496Y-68.854
X92.258Y-106.954
X92.496Y-52.003
X92.496Y-71.054
X97.021Y-87.904
X97.258Y-109.154
X102.021Y-90.104
X106.546Y-68.854
X111.546Y-71.054
X113.69Y-106.953
X116.071Y-87.903
X118.69Y-109.153
X121.071Y-90.103
X135.121Y-106.954
X140.121Y-109.154
X162.921Y-108.204
X173.221Y-106.954
X178.221Y-109.154
X192.272Y-87.904
X194.652Y-106.953
X197.272Y-90.104
X199.652Y-109.153
X201.797Y-68.854
X206.797Y-71.054
X211.322Y-87.904
X216.083Y-106.954
X216.322Y-90.104
X220.847Y-49.804
X220.847Y-68.854
X221.083Y-109.154
X225.847Y-52.004
X225.847Y-71.054
X230.372Y-87.904
X235.133Y-106.953
X235.372Y-90.104
X239.897Y-49.804
X239.897Y-68.854
X240.133Y-109.153
X244.897Y-52.004
X244.897Y-71.054
X249.422Y-87.904
X254.422Y-90.104
X258.946Y-68.854
X263.946Y-71.054
X268.472Y-87.904
X273.472Y-90.104
X277.996Y-68.854
X282.996Y-71.054
T5
X35.346Y-65.104
X44.871Y-84.154
X54.396Y-65.104
X63.921Y-84.154
X73.446Y-46.053
X73.446Y-65.104
X78.208Y-103.204
X82.971Y-84.154
X92.496Y-46.053
X92.496Y-65.104
X97.258Y-103.204
X102.021Y-84.154
X111.546Y-65.104
X118.69Y-103.203
X121.071Y-84.153
X140.121Y-103.204
X159.171Y-103.204
X178.221Y-103.204
X197.272Y-84.154
X199.652Y-103.203
X206.797Y-65.104
X216.322Y-84.154
X221.083Y-103.204
X225.847Y-46.054
X225.847Y-65.104
X235.372Y-84.154
X240.133Y-103.203
X244.897Y-46.054
X244.897Y-65.104
X254.422Y-84.154
X263.946Y-65.104
X273.472Y-84.154
X282.996Y-65.104
T2
X154.521Y-103.204G85X154.821Y-103.204
G05
M30
