%TF.GenerationSoftware,KiCad,Pcbnew,8.0.5*%
%TF.CreationDate,2024-09-18T06:09:14+09:00*%
%TF.ProjectId,SandyLP_Base,53616e64-794c-4505-9f42-6173652e6b69,v.0*%
%TF.SameCoordinates,Original*%
%TF.FileFunction,Drillmap*%
%TF.FilePolarity,Positive*%
%FSLAX45Y45*%
G04 Gerber Fmt 4.5, Leading zero omitted, Abs format (unit mm)*
G04 Created by KiCad (PCBNEW 8.0.5) date 2024-09-18 06:09:14*
%MOMM*%
%LPD*%
G01*
G04 APERTURE LIST*
%ADD10C,0.120000*%
%ADD11C,0.300000*%
%ADD12C,0.200000*%
%ADD13C,0.100000*%
%ADD14C,0.150000*%
%ADD15C,0.220000*%
G04 APERTURE END LIST*
D10*
X16352093Y-10240377D02*
X16387094Y-10240377D01*
X16352093Y-10400377D02*
X16387094Y-10400377D01*
X16352093Y-10400377D02*
G75*
G02*
X16352093Y-10240377I0J80000D01*
G01*
X16387094Y-10240377D02*
G75*
G02*
X16387094Y-10400377I130000J-80000D01*
G01*
D11*
X2140844Y-10999712D02*
X2140844Y-3920961D01*
X29212093Y-3444711D02*
X2617094Y-3444711D01*
X29212093Y-11475961D02*
X2617094Y-11475961D01*
X29688343Y-10999712D02*
X29688343Y-3920961D01*
X2140844Y-3920961D02*
G75*
G02*
X2617094Y-3444711I476250J0D01*
G01*
X2617094Y-11475961D02*
G75*
G02*
X2140844Y-10999712I0J476250D01*
G01*
X29212093Y-3444711D02*
G75*
G02*
X29688342Y-3920961I0J-476249D01*
G01*
X29688343Y-10999712D02*
G75*
G02*
X29212093Y-11475960I-476250J1D01*
G01*
D10*
X2744281Y-8860653D02*
X2744281Y-9160653D01*
X2744281Y-9160653D02*
X3134281Y-9160653D01*
X3134281Y-8860653D02*
X2744281Y-8860653D01*
X3134281Y-9160653D02*
X3134281Y-8860653D01*
X28699906Y-8860653D02*
X28699906Y-9160653D01*
X28699906Y-9160653D02*
X29089906Y-9160653D01*
X29089906Y-8860653D02*
X28699906Y-8860653D01*
X29089906Y-9160653D02*
X29089906Y-8860653D01*
X28699906Y-8265340D02*
X28699906Y-8565341D01*
X28699906Y-8565341D02*
X29089906Y-8565341D01*
X29089906Y-8265340D02*
X28699906Y-8265340D01*
X29089906Y-8565341D02*
X29089906Y-8265340D01*
X28699906Y-7670028D02*
X28699906Y-7970028D01*
X28699906Y-7970028D02*
X29089906Y-7970028D01*
X29089906Y-7670028D02*
X28699906Y-7670028D01*
X29089906Y-7970028D02*
X29089906Y-7670028D01*
X2744281Y-8265340D02*
X2744281Y-8565341D01*
X2744281Y-8565341D02*
X3134281Y-8565341D01*
X3134281Y-8265340D02*
X2744281Y-8265340D01*
X3134281Y-8565341D02*
X3134281Y-8265340D01*
X2744281Y-7670028D02*
X2744281Y-7970028D01*
X2744281Y-7970028D02*
X3134281Y-7970028D01*
X3134281Y-7670028D02*
X2744281Y-7670028D01*
X3134281Y-7970028D02*
X3134281Y-7670028D01*
D12*
D13*
X5230844Y-5033466D02*
X5265844Y-5068466D01*
X5265844Y-5033466D02*
X5230844Y-5068466D01*
X5230844Y-5160966D02*
X5265844Y-5195966D01*
X5265844Y-5160966D02*
X5230844Y-5195966D01*
X5230844Y-5288466D02*
X5265844Y-5323466D01*
X5265844Y-5288466D02*
X5230844Y-5323466D01*
X5358344Y-5033466D02*
X5393344Y-5068466D01*
X5393344Y-5033466D02*
X5358344Y-5068466D01*
X5358344Y-5160966D02*
X5393344Y-5195966D01*
X5393344Y-5160966D02*
X5358344Y-5195966D01*
X5358344Y-5288466D02*
X5393344Y-5323466D01*
X5393344Y-5288466D02*
X5358344Y-5323466D01*
X5485844Y-5033466D02*
X5520844Y-5068466D01*
X5520844Y-5033466D02*
X5485844Y-5068466D01*
X5485844Y-5160966D02*
X5520844Y-5195966D01*
X5520844Y-5160966D02*
X5485844Y-5195966D01*
X5485844Y-5288466D02*
X5520844Y-5323466D01*
X5520844Y-5288466D02*
X5485844Y-5323466D01*
X2244906Y-7462844D02*
G75*
G02*
X2204906Y-7462844I-20000J0D01*
G01*
X2204906Y-7462844D02*
G75*
G02*
X2244906Y-7462844I20000J0D01*
G01*
X2244906Y-9367846D02*
G75*
G02*
X2204906Y-9367846I-20000J0D01*
G01*
X2204906Y-9367846D02*
G75*
G02*
X2244906Y-9367846I20000J0D01*
G01*
X2244906Y-10915660D02*
G75*
G02*
X2204906Y-10915660I-20000J0D01*
G01*
X2204906Y-10915660D02*
G75*
G02*
X2244906Y-10915660I20000J0D01*
G01*
X2407094Y-4492841D02*
G75*
G02*
X2367094Y-4492841I-20000J0D01*
G01*
X2367094Y-4492841D02*
G75*
G02*
X2407094Y-4492841I20000J0D01*
G01*
X2407094Y-4972841D02*
G75*
G02*
X2367094Y-4972841I-20000J0D01*
G01*
X2367094Y-4972841D02*
G75*
G02*
X2407094Y-4972841I20000J0D01*
G01*
X2407094Y-5572841D02*
G75*
G02*
X2367094Y-5572841I-20000J0D01*
G01*
X2367094Y-5572841D02*
G75*
G02*
X2407094Y-5572841I20000J0D01*
G01*
X2597094Y-7422840D02*
G75*
G02*
X2557094Y-7422840I-20000J0D01*
G01*
X2557094Y-7422840D02*
G75*
G02*
X2597094Y-7422840I20000J0D01*
G01*
X2661625Y-11391910D02*
G75*
G02*
X2621625Y-11391910I-20000J0D01*
G01*
X2621625Y-11391910D02*
G75*
G02*
X2661625Y-11391910I20000J0D01*
G01*
X2667094Y-8042840D02*
G75*
G02*
X2627094Y-8042840I-20000J0D01*
G01*
X2627094Y-8042840D02*
G75*
G02*
X2667094Y-8042840I20000J0D01*
G01*
X2667094Y-8632841D02*
G75*
G02*
X2627094Y-8632841I-20000J0D01*
G01*
X2627094Y-8632841D02*
G75*
G02*
X2667094Y-8632841I20000J0D01*
G01*
X2674594Y-7285540D02*
G75*
G02*
X2634594Y-7285540I-20000J0D01*
G01*
X2634594Y-7285540D02*
G75*
G02*
X2674594Y-7285540I20000J0D01*
G01*
X2754594Y-5496591D02*
G75*
G02*
X2714594Y-5496591I-20000J0D01*
G01*
X2714594Y-5496591D02*
G75*
G02*
X2754594Y-5496591I20000J0D01*
G01*
X2755844Y-7451465D02*
G75*
G02*
X2715844Y-7451465I-20000J0D01*
G01*
X2715844Y-7451465D02*
G75*
G02*
X2755844Y-7451465I20000J0D01*
G01*
X2840219Y-3533778D02*
G75*
G02*
X2800219Y-3533778I-20000J0D01*
G01*
X2800219Y-3533778D02*
G75*
G02*
X2840219Y-3533778I20000J0D01*
G01*
X2845843Y-4758466D02*
G75*
G02*
X2805843Y-4758466I-20000J0D01*
G01*
X2805843Y-4758466D02*
G75*
G02*
X2845843Y-4758466I20000J0D01*
G01*
X2857093Y-4872841D02*
G75*
G02*
X2817093Y-4872841I-20000J0D01*
G01*
X2817093Y-4872841D02*
G75*
G02*
X2857093Y-4872841I20000J0D01*
G01*
X2865843Y-7158465D02*
G75*
G02*
X2825843Y-7158465I-20000J0D01*
G01*
X2825843Y-7158465D02*
G75*
G02*
X2865843Y-7158465I20000J0D01*
G01*
X2877093Y-5482841D02*
G75*
G02*
X2837093Y-5482841I-20000J0D01*
G01*
X2837093Y-5482841D02*
G75*
G02*
X2877093Y-5482841I20000J0D01*
G01*
X3018813Y-8058157D02*
G75*
G02*
X2978813Y-8058157I-20000J0D01*
G01*
X2978813Y-8058157D02*
G75*
G02*
X3018813Y-8058157I20000J0D01*
G01*
X3018813Y-8653470D02*
G75*
G02*
X2978813Y-8653470I-20000J0D01*
G01*
X2978813Y-8653470D02*
G75*
G02*
X3018813Y-8653470I20000J0D01*
G01*
X3185843Y-7578465D02*
G75*
G02*
X3145843Y-7578465I-20000J0D01*
G01*
X3145843Y-7578465D02*
G75*
G02*
X3185843Y-7578465I20000J0D01*
G01*
X3387093Y-5242841D02*
G75*
G02*
X3347093Y-5242841I-20000J0D01*
G01*
X3347093Y-5242841D02*
G75*
G02*
X3387093Y-5242841I20000J0D01*
G01*
X3492093Y-4542841D02*
G75*
G02*
X3452093Y-4542841I-20000J0D01*
G01*
X3452093Y-4542841D02*
G75*
G02*
X3492093Y-4542841I20000J0D01*
G01*
X3733189Y-9189252D02*
G75*
G02*
X3693189Y-9189252I-20000J0D01*
G01*
X3693189Y-9189252D02*
G75*
G02*
X3733189Y-9189252I20000J0D01*
G01*
X3780843Y-4393466D02*
G75*
G02*
X3740843Y-4393466I-20000J0D01*
G01*
X3740843Y-4393466D02*
G75*
G02*
X3780843Y-4393466I20000J0D01*
G01*
X3787093Y-4637841D02*
G75*
G02*
X3747093Y-4637841I-20000J0D01*
G01*
X3747093Y-4637841D02*
G75*
G02*
X3787093Y-4637841I20000J0D01*
G01*
X3877093Y-4872841D02*
G75*
G02*
X3837093Y-4872841I-20000J0D01*
G01*
X3837093Y-4872841D02*
G75*
G02*
X3877093Y-4872841I20000J0D01*
G01*
X3877093Y-5502841D02*
G75*
G02*
X3837093Y-5502841I-20000J0D01*
G01*
X3837093Y-5502841D02*
G75*
G02*
X3877093Y-5502841I20000J0D01*
G01*
X3880387Y-7450340D02*
G75*
G02*
X3840387Y-7450340I-20000J0D01*
G01*
X3840387Y-7450340D02*
G75*
G02*
X3880387Y-7450340I20000J0D01*
G01*
X3988367Y-7475663D02*
G75*
G02*
X3948367Y-7475663I-20000J0D01*
G01*
X3948367Y-7475663D02*
G75*
G02*
X3988367Y-7475663I20000J0D01*
G01*
X4017093Y-4382841D02*
G75*
G02*
X3977093Y-4382841I-20000J0D01*
G01*
X3977093Y-4382841D02*
G75*
G02*
X4017093Y-4382841I20000J0D01*
G01*
X4075185Y-7232821D02*
G75*
G02*
X4035185Y-7232821I-20000J0D01*
G01*
X4035185Y-7232821D02*
G75*
G02*
X4075185Y-7232821I20000J0D01*
G01*
X4162093Y-4597841D02*
G75*
G02*
X4122093Y-4597841I-20000J0D01*
G01*
X4122093Y-4597841D02*
G75*
G02*
X4162093Y-4597841I20000J0D01*
G01*
X4217094Y-4202841D02*
G75*
G02*
X4177093Y-4202841I-20000J0D01*
G01*
X4177093Y-4202841D02*
G75*
G02*
X4217094Y-4202841I20000J0D01*
G01*
X4225844Y-6918465D02*
G75*
G02*
X4185843Y-6918465I-20000J0D01*
G01*
X4185843Y-6918465D02*
G75*
G02*
X4225844Y-6918465I20000J0D01*
G01*
X4285844Y-5438466D02*
G75*
G02*
X4245844Y-5438466I-20000J0D01*
G01*
X4245844Y-5438466D02*
G75*
G02*
X4285844Y-5438466I20000J0D01*
G01*
X4328502Y-7581907D02*
G75*
G02*
X4288502Y-7581907I-20000J0D01*
G01*
X4288502Y-7581907D02*
G75*
G02*
X4328502Y-7581907I20000J0D01*
G01*
X4335844Y-5828465D02*
G75*
G02*
X4295844Y-5828465I-20000J0D01*
G01*
X4295844Y-5828465D02*
G75*
G02*
X4335844Y-5828465I20000J0D01*
G01*
X4507094Y-4197841D02*
G75*
G02*
X4467094Y-4197841I-20000J0D01*
G01*
X4467094Y-4197841D02*
G75*
G02*
X4507094Y-4197841I20000J0D01*
G01*
X4583657Y-5716279D02*
G75*
G02*
X4543657Y-5716279I-20000J0D01*
G01*
X4543657Y-5716279D02*
G75*
G02*
X4583657Y-5716279I20000J0D01*
G01*
X4624594Y-7463886D02*
G75*
G02*
X4584594Y-7463886I-20000J0D01*
G01*
X4584594Y-7463886D02*
G75*
G02*
X4624594Y-7463886I20000J0D01*
G01*
X4625844Y-5878465D02*
G75*
G02*
X4585844Y-5878465I-20000J0D01*
G01*
X4585844Y-5878465D02*
G75*
G02*
X4625844Y-5878465I20000J0D01*
G01*
X4626158Y-7581907D02*
G75*
G02*
X4586158Y-7581907I-20000J0D01*
G01*
X4586158Y-7581907D02*
G75*
G02*
X4626158Y-7581907I20000J0D01*
G01*
X4647403Y-6045031D02*
G75*
G02*
X4607403Y-6045031I-20000J0D01*
G01*
X4607403Y-6045031D02*
G75*
G02*
X4647403Y-6045031I20000J0D01*
G01*
X4685844Y-7178465D02*
G75*
G02*
X4645844Y-7178465I-20000J0D01*
G01*
X4645844Y-7178465D02*
G75*
G02*
X4685844Y-7178465I20000J0D01*
G01*
X4704281Y-5460028D02*
G75*
G02*
X4664281Y-5460028I-20000J0D01*
G01*
X4664281Y-5460028D02*
G75*
G02*
X4704281Y-5460028I20000J0D01*
G01*
X4805844Y-4672216D02*
G75*
G02*
X4765844Y-4672216I-20000J0D01*
G01*
X4765844Y-4672216D02*
G75*
G02*
X4805844Y-4672216I20000J0D01*
G01*
X4825844Y-5684824D02*
G75*
G02*
X4785844Y-5684824I-20000J0D01*
G01*
X4785844Y-5684824D02*
G75*
G02*
X4825844Y-5684824I20000J0D01*
G01*
X4827094Y-8027840D02*
G75*
G02*
X4787094Y-8027840I-20000J0D01*
G01*
X4787094Y-8027840D02*
G75*
G02*
X4827094Y-8027840I20000J0D01*
G01*
X4847094Y-4197841D02*
G75*
G02*
X4807094Y-4197841I-20000J0D01*
G01*
X4807094Y-4197841D02*
G75*
G02*
X4847094Y-4197841I20000J0D01*
G01*
X4895844Y-4888466D02*
G75*
G02*
X4855844Y-4888466I-20000J0D01*
G01*
X4855844Y-4888466D02*
G75*
G02*
X4895844Y-4888466I20000J0D01*
G01*
X4903187Y-5889459D02*
G75*
G02*
X4863187Y-5889459I-20000J0D01*
G01*
X4863187Y-5889459D02*
G75*
G02*
X4903187Y-5889459I20000J0D01*
G01*
X4917094Y-9557841D02*
G75*
G02*
X4877094Y-9557841I-20000J0D01*
G01*
X4877094Y-9557841D02*
G75*
G02*
X4917094Y-9557841I20000J0D01*
G01*
X4967094Y-8142840D02*
G75*
G02*
X4927094Y-8142840I-20000J0D01*
G01*
X4927094Y-8142840D02*
G75*
G02*
X4967094Y-8142840I20000J0D01*
G01*
X4972094Y-5592840D02*
G75*
G02*
X4932094Y-5592840I-20000J0D01*
G01*
X4932094Y-5592840D02*
G75*
G02*
X4972094Y-5592840I20000J0D01*
G01*
X4983649Y-5699396D02*
G75*
G02*
X4943649Y-5699396I-20000J0D01*
G01*
X4943649Y-5699396D02*
G75*
G02*
X4983649Y-5699396I20000J0D01*
G01*
X5097094Y-4162840D02*
G75*
G02*
X5057094Y-4162840I-20000J0D01*
G01*
X5057094Y-4162840D02*
G75*
G02*
X5097094Y-4162840I20000J0D01*
G01*
X5161940Y-9725034D02*
G75*
G02*
X5121940Y-9725034I-20000J0D01*
G01*
X5121940Y-9725034D02*
G75*
G02*
X5161940Y-9725034I20000J0D01*
G01*
X5198729Y-5831351D02*
G75*
G02*
X5158729Y-5831351I-20000J0D01*
G01*
X5158729Y-5831351D02*
G75*
G02*
X5198729Y-5831351I20000J0D01*
G01*
X5245844Y-4948466D02*
G75*
G02*
X5205844Y-4948466I-20000J0D01*
G01*
X5205844Y-4948466D02*
G75*
G02*
X5245844Y-4948466I20000J0D01*
G01*
X5247094Y-4311841D02*
G75*
G02*
X5207094Y-4311841I-20000J0D01*
G01*
X5207094Y-4311841D02*
G75*
G02*
X5247094Y-4311841I20000J0D01*
G01*
X5335844Y-5388466D02*
G75*
G02*
X5295844Y-5388466I-20000J0D01*
G01*
X5295844Y-5388466D02*
G75*
G02*
X5335844Y-5388466I20000J0D01*
G01*
X5357094Y-4162840D02*
G75*
G02*
X5317094Y-4162840I-20000J0D01*
G01*
X5317094Y-4162840D02*
G75*
G02*
X5357094Y-4162840I20000J0D01*
G01*
X5390956Y-4610018D02*
G75*
G02*
X5350956Y-4610018I-20000J0D01*
G01*
X5350956Y-4610018D02*
G75*
G02*
X5390956Y-4610018I20000J0D01*
G01*
X5447094Y-4312841D02*
G75*
G02*
X5407094Y-4312841I-20000J0D01*
G01*
X5407094Y-4312841D02*
G75*
G02*
X5447094Y-4312841I20000J0D01*
G01*
X5459596Y-11391910D02*
G75*
G02*
X5419596Y-11391910I-20000J0D01*
G01*
X5419596Y-11391910D02*
G75*
G02*
X5459596Y-11391910I20000J0D01*
G01*
X5630776Y-4432398D02*
G75*
G02*
X5590776Y-4432398I-20000J0D01*
G01*
X5590776Y-4432398D02*
G75*
G02*
X5630776Y-4432398I20000J0D01*
G01*
X5642340Y-7465761D02*
G75*
G02*
X5602340Y-7465761I-20000J0D01*
G01*
X5602340Y-7465761D02*
G75*
G02*
X5642340Y-7465761I20000J0D01*
G01*
X5678243Y-5866473D02*
G75*
G02*
X5638243Y-5866473I-20000J0D01*
G01*
X5638243Y-5866473D02*
G75*
G02*
X5678243Y-5866473I20000J0D01*
G01*
X5690817Y-7311234D02*
G75*
G02*
X5650817Y-7311234I-20000J0D01*
G01*
X5650817Y-7311234D02*
G75*
G02*
X5690817Y-7311234I20000J0D01*
G01*
X5725843Y-4218466D02*
G75*
G02*
X5685843Y-4218466I-20000J0D01*
G01*
X5685843Y-4218466D02*
G75*
G02*
X5725843Y-4218466I20000J0D01*
G01*
X5727093Y-5712840D02*
G75*
G02*
X5687093Y-5712840I-20000J0D01*
G01*
X5687093Y-5712840D02*
G75*
G02*
X5727093Y-5712840I20000J0D01*
G01*
X5727093Y-9197865D02*
G75*
G02*
X5687093Y-9197865I-20000J0D01*
G01*
X5687093Y-9197865D02*
G75*
G02*
X5727093Y-9197865I20000J0D01*
G01*
X5747093Y-6912840D02*
G75*
G02*
X5707093Y-6912840I-20000J0D01*
G01*
X5707093Y-6912840D02*
G75*
G02*
X5747093Y-6912840I20000J0D01*
G01*
X5816784Y-3533778D02*
G75*
G02*
X5776784Y-3533778I-20000J0D01*
G01*
X5776784Y-3533778D02*
G75*
G02*
X5816784Y-3533778I20000J0D01*
G01*
X6054909Y-6331750D02*
G75*
G02*
X6014909Y-6331750I-20000J0D01*
G01*
X6014909Y-6331750D02*
G75*
G02*
X6054909Y-6331750I20000J0D01*
G01*
X6069593Y-4822841D02*
G75*
G02*
X6029593Y-4822841I-20000J0D01*
G01*
X6029593Y-4822841D02*
G75*
G02*
X6069593Y-4822841I20000J0D01*
G01*
X6114441Y-7462844D02*
G75*
G02*
X6074441Y-7462844I-20000J0D01*
G01*
X6074441Y-7462844D02*
G75*
G02*
X6114441Y-7462844I20000J0D01*
G01*
X6160348Y-5870841D02*
G75*
G02*
X6120348Y-5870841I-20000J0D01*
G01*
X6120348Y-5870841D02*
G75*
G02*
X6160348Y-5870841I20000J0D01*
G01*
X6161812Y-5720841D02*
G75*
G02*
X6121812Y-5720841I-20000J0D01*
G01*
X6121812Y-5720841D02*
G75*
G02*
X6161812Y-5720841I20000J0D01*
G01*
X6162093Y-6052840D02*
G75*
G02*
X6122093Y-6052840I-20000J0D01*
G01*
X6122093Y-6052840D02*
G75*
G02*
X6162093Y-6052840I20000J0D01*
G01*
X6164593Y-5572841D02*
G75*
G02*
X6124593Y-5572841I-20000J0D01*
G01*
X6124593Y-5572841D02*
G75*
G02*
X6164593Y-5572841I20000J0D01*
G01*
X6177093Y-5452841D02*
G75*
G02*
X6137093Y-5452841I-20000J0D01*
G01*
X6137093Y-5452841D02*
G75*
G02*
X6177093Y-5452841I20000J0D01*
G01*
X6277093Y-5992840D02*
G75*
G02*
X6237093Y-5992840I-20000J0D01*
G01*
X6237093Y-5992840D02*
G75*
G02*
X6277093Y-5992840I20000J0D01*
G01*
X6278714Y-5821220D02*
G75*
G02*
X6238714Y-5821220I-20000J0D01*
G01*
X6238714Y-5821220D02*
G75*
G02*
X6278714Y-5821220I20000J0D01*
G01*
X6279010Y-5647840D02*
G75*
G02*
X6239010Y-5647840I-20000J0D01*
G01*
X6239010Y-5647840D02*
G75*
G02*
X6279010Y-5647840I20000J0D01*
G01*
X6334593Y-5057841D02*
G75*
G02*
X6294593Y-5057841I-20000J0D01*
G01*
X6294593Y-5057841D02*
G75*
G02*
X6334593Y-5057841I20000J0D01*
G01*
X6359593Y-4557841D02*
G75*
G02*
X6319593Y-4557841I-20000J0D01*
G01*
X6319593Y-4557841D02*
G75*
G02*
X6359593Y-4557841I20000J0D01*
G01*
X6412097Y-3533778D02*
G75*
G02*
X6372097Y-3533778I-20000J0D01*
G01*
X6372097Y-3533778D02*
G75*
G02*
X6412097Y-3533778I20000J0D01*
G01*
X6531160Y-5617374D02*
G75*
G02*
X6491160Y-5617374I-20000J0D01*
G01*
X6491160Y-5617374D02*
G75*
G02*
X6531160Y-5617374I20000J0D01*
G01*
X6565843Y-6038465D02*
G75*
G02*
X6525843Y-6038465I-20000J0D01*
G01*
X6525843Y-6038465D02*
G75*
G02*
X6565843Y-6038465I20000J0D01*
G01*
X6590691Y-6331750D02*
G75*
G02*
X6550691Y-6331750I-20000J0D01*
G01*
X6550691Y-6331750D02*
G75*
G02*
X6590691Y-6331750I20000J0D01*
G01*
X6667094Y-3937840D02*
G75*
G02*
X6627094Y-3937840I-20000J0D01*
G01*
X6627094Y-3937840D02*
G75*
G02*
X6667094Y-3937840I20000J0D01*
G01*
X6687093Y-6222856D02*
G75*
G02*
X6647093Y-6222856I-20000J0D01*
G01*
X6647093Y-6222856D02*
G75*
G02*
X6687093Y-6222856I20000J0D01*
G01*
X6709754Y-7462844D02*
G75*
G02*
X6669754Y-7462844I-20000J0D01*
G01*
X6669754Y-7462844D02*
G75*
G02*
X6709754Y-7462844I20000J0D01*
G01*
X6761814Y-6132840D02*
G75*
G02*
X6721814Y-6132840I-20000J0D01*
G01*
X6721814Y-6132840D02*
G75*
G02*
X6761814Y-6132840I20000J0D01*
G01*
X6888347Y-7105656D02*
G75*
G02*
X6848347Y-7105656I-20000J0D01*
G01*
X6848347Y-7105656D02*
G75*
G02*
X6888347Y-7105656I20000J0D01*
G01*
X6947879Y-8236751D02*
G75*
G02*
X6907879Y-8236751I-20000J0D01*
G01*
X6907879Y-8236751D02*
G75*
G02*
X6947879Y-8236751I20000J0D01*
G01*
X7066941Y-9725034D02*
G75*
G02*
X7026941Y-9725034I-20000J0D01*
G01*
X7026941Y-9725034D02*
G75*
G02*
X7066941Y-9725034I20000J0D01*
G01*
X7159593Y-9432841D02*
G75*
G02*
X7119593Y-9432841I-20000J0D01*
G01*
X7119593Y-9432841D02*
G75*
G02*
X7159593Y-9432841I20000J0D01*
G01*
X7232093Y-9507840D02*
G75*
G02*
X7192093Y-9507840I-20000J0D01*
G01*
X7192093Y-9507840D02*
G75*
G02*
X7232093Y-9507840I20000J0D01*
G01*
X7342093Y-9747841D02*
G75*
G02*
X7302093Y-9747841I-20000J0D01*
G01*
X7302093Y-9747841D02*
G75*
G02*
X7342093Y-9747841I20000J0D01*
G01*
X7345460Y-9479800D02*
G75*
G02*
X7305460Y-9479800I-20000J0D01*
G01*
X7305460Y-9479800D02*
G75*
G02*
X7345460Y-9479800I20000J0D01*
G01*
X7364598Y-8236751D02*
G75*
G02*
X7324598Y-8236751I-20000J0D01*
G01*
X7324598Y-8236751D02*
G75*
G02*
X7364598Y-8236751I20000J0D01*
G01*
X7364598Y-9189252D02*
G75*
G02*
X7324598Y-9189252I-20000J0D01*
G01*
X7324598Y-9189252D02*
G75*
G02*
X7364598Y-9189252I20000J0D01*
G01*
X7483660Y-9725034D02*
G75*
G02*
X7443660Y-9725034I-20000J0D01*
G01*
X7443660Y-9725034D02*
G75*
G02*
X7483660Y-9725034I20000J0D01*
G01*
X7487093Y-10032877D02*
G75*
G02*
X7447093Y-10032877I-20000J0D01*
G01*
X7447093Y-10032877D02*
G75*
G02*
X7487093Y-10032877I20000J0D01*
G01*
X7687093Y-4982841D02*
G75*
G02*
X7647093Y-4982841I-20000J0D01*
G01*
X7647093Y-4982841D02*
G75*
G02*
X7687093Y-4982841I20000J0D01*
G01*
X7840848Y-11391910D02*
G75*
G02*
X7800848Y-11391910I-20000J0D01*
G01*
X7800848Y-11391910D02*
G75*
G02*
X7840848Y-11391910I20000J0D01*
G01*
X8317099Y-5676905D02*
G75*
G02*
X8277099Y-5676905I-20000J0D01*
G01*
X8277099Y-5676905D02*
G75*
G02*
X8317099Y-5676905I20000J0D01*
G01*
X8614755Y-3533778D02*
G75*
G02*
X8574755Y-3533778I-20000J0D01*
G01*
X8574755Y-3533778D02*
G75*
G02*
X8614755Y-3533778I20000J0D01*
G01*
X8794594Y-11102877D02*
G75*
G02*
X8754594Y-11102877I-20000J0D01*
G01*
X8754594Y-11102877D02*
G75*
G02*
X8794594Y-11102877I20000J0D01*
G01*
X8832094Y-9197865D02*
G75*
G02*
X8792094Y-9197865I-20000J0D01*
G01*
X8792094Y-9197865D02*
G75*
G02*
X8832094Y-9197865I20000J0D01*
G01*
X8912412Y-9725034D02*
G75*
G02*
X8872412Y-9725034I-20000J0D01*
G01*
X8872412Y-9725034D02*
G75*
G02*
X8912412Y-9725034I20000J0D01*
G01*
X9329131Y-8236751D02*
G75*
G02*
X9289131Y-8236751I-20000J0D01*
G01*
X9289131Y-8236751D02*
G75*
G02*
X9329131Y-8236751I20000J0D01*
G01*
X9428352Y-7274098D02*
G75*
G02*
X9388352Y-7274098I-20000J0D01*
G01*
X9388352Y-7274098D02*
G75*
G02*
X9428352Y-7274098I20000J0D01*
G01*
X9435848Y-5361595D02*
G75*
G02*
X9395848Y-5361595I-20000J0D01*
G01*
X9395848Y-5361595D02*
G75*
G02*
X9435848Y-5361595I20000J0D01*
G01*
X9686319Y-6331750D02*
G75*
G02*
X9646319Y-6331750I-20000J0D01*
G01*
X9646319Y-6331750D02*
G75*
G02*
X9686319Y-6331750I20000J0D01*
G01*
X9864913Y-5379249D02*
G75*
G02*
X9824913Y-5379249I-20000J0D01*
G01*
X9824913Y-5379249D02*
G75*
G02*
X9864913Y-5379249I20000J0D01*
G01*
X10043506Y-10141753D02*
G75*
G02*
X10003506Y-10141753I-20000J0D01*
G01*
X10003506Y-10141753D02*
G75*
G02*
X10043506Y-10141753I20000J0D01*
G01*
X10400694Y-11391910D02*
G75*
G02*
X10360694Y-11391910I-20000J0D01*
G01*
X10360694Y-11391910D02*
G75*
G02*
X10400694Y-11391910I20000J0D01*
G01*
X10557094Y-4432841D02*
G75*
G02*
X10517094Y-4432841I-20000J0D01*
G01*
X10517094Y-4432841D02*
G75*
G02*
X10557094Y-4432841I20000J0D01*
G01*
X10698351Y-3533778D02*
G75*
G02*
X10658351Y-3533778I-20000J0D01*
G01*
X10658351Y-3533778D02*
G75*
G02*
X10698351Y-3533778I20000J0D01*
G01*
X10936476Y-9725034D02*
G75*
G02*
X10896476Y-9725034I-20000J0D01*
G01*
X10896476Y-9725034D02*
G75*
G02*
X10936476Y-9725034I20000J0D01*
G01*
X10996007Y-11391910D02*
G75*
G02*
X10956007Y-11391910I-20000J0D01*
G01*
X10956007Y-11391910D02*
G75*
G02*
X10996007Y-11391910I20000J0D01*
G01*
X11174601Y-3533778D02*
G75*
G02*
X11134601Y-3533778I-20000J0D01*
G01*
X11134601Y-3533778D02*
G75*
G02*
X11174601Y-3533778I20000J0D01*
G01*
X11667093Y-7272840D02*
G75*
G02*
X11627093Y-7272840I-20000J0D01*
G01*
X11627093Y-7272840D02*
G75*
G02*
X11667093Y-7272840I20000J0D01*
G01*
X12127102Y-5676905D02*
G75*
G02*
X12087102Y-5676905I-20000J0D01*
G01*
X12087102Y-5676905D02*
G75*
G02*
X12127102Y-5676905I20000J0D01*
G01*
X12484290Y-6331750D02*
G75*
G02*
X12444290Y-6331750I-20000J0D01*
G01*
X12444290Y-6331750D02*
G75*
G02*
X12484290Y-6331750I20000J0D01*
G01*
X12484290Y-8236751D02*
G75*
G02*
X12444290Y-8236751I-20000J0D01*
G01*
X12444290Y-8236751D02*
G75*
G02*
X12484290Y-8236751I20000J0D01*
G01*
X12647093Y-8812841D02*
G75*
G02*
X12607093Y-8812841I-20000J0D01*
G01*
X12607093Y-8812841D02*
G75*
G02*
X12647093Y-8812841I20000J0D01*
G01*
X12901009Y-9189252D02*
G75*
G02*
X12861009Y-9189252I-20000J0D01*
G01*
X12861009Y-9189252D02*
G75*
G02*
X12901009Y-9189252I20000J0D01*
G01*
X13087093Y-11102841D02*
G75*
G02*
X13047093Y-11102841I-20000J0D01*
G01*
X13047093Y-11102841D02*
G75*
G02*
X13087093Y-11102841I20000J0D01*
G01*
X13198665Y-9725034D02*
G75*
G02*
X13158665Y-9725034I-20000J0D01*
G01*
X13158665Y-9725034D02*
G75*
G02*
X13198665Y-9725034I20000J0D01*
G01*
X13317728Y-11391910D02*
G75*
G02*
X13277728Y-11391910I-20000J0D01*
G01*
X13277728Y-11391910D02*
G75*
G02*
X13317728Y-11391910I20000J0D01*
G01*
X13436790Y-3533778D02*
G75*
G02*
X13396790Y-3533778I-20000J0D01*
G01*
X13396790Y-3533778D02*
G75*
G02*
X13436790Y-3533778I20000J0D01*
G01*
X14329760Y-10141753D02*
G75*
G02*
X14289760Y-10141753I-20000J0D01*
G01*
X14289760Y-10141753D02*
G75*
G02*
X14329760Y-10141753I20000J0D01*
G01*
X14686948Y-8236751D02*
G75*
G02*
X14646948Y-8236751I-20000J0D01*
G01*
X14646948Y-8236751D02*
G75*
G02*
X14686948Y-8236751I20000J0D01*
G01*
X14865843Y-9552841D02*
G75*
G02*
X14825843Y-9552841I-20000J0D01*
G01*
X14825843Y-9552841D02*
G75*
G02*
X14865843Y-9552841I20000J0D01*
G01*
X14945843Y-9479800D02*
G75*
G02*
X14905843Y-9479800I-20000J0D01*
G01*
X14905843Y-9479800D02*
G75*
G02*
X14945843Y-9479800I20000J0D01*
G01*
X15520386Y-5974562D02*
G75*
G02*
X15480386Y-5974562I-20000J0D01*
G01*
X15480386Y-5974562D02*
G75*
G02*
X15520386Y-5974562I20000J0D01*
G01*
X15579917Y-4605342D02*
G75*
G02*
X15539917Y-4605342I-20000J0D01*
G01*
X15539917Y-4605342D02*
G75*
G02*
X15579917Y-4605342I20000J0D01*
G01*
X15579917Y-7462844D02*
G75*
G02*
X15539917Y-7462844I-20000J0D01*
G01*
X15539917Y-7462844D02*
G75*
G02*
X15579917Y-7462844I20000J0D01*
G01*
X15579917Y-8534408D02*
G75*
G02*
X15539917Y-8534408I-20000J0D01*
G01*
X15539917Y-8534408D02*
G75*
G02*
X15579917Y-8534408I20000J0D01*
G01*
X15698980Y-9784565D02*
G75*
G02*
X15658980Y-9784565I-20000J0D01*
G01*
X15658980Y-9784565D02*
G75*
G02*
X15698980Y-9784565I20000J0D01*
G01*
X15937105Y-3533778D02*
G75*
G02*
X15897105Y-3533778I-20000J0D01*
G01*
X15897105Y-3533778D02*
G75*
G02*
X15937105Y-3533778I20000J0D01*
G01*
X15937105Y-11391910D02*
G75*
G02*
X15897105Y-11391910I-20000J0D01*
G01*
X15897105Y-11391910D02*
G75*
G02*
X15937105Y-11391910I20000J0D01*
G01*
X16115699Y-9189252D02*
G75*
G02*
X16075699Y-9189252I-20000J0D01*
G01*
X16075699Y-9189252D02*
G75*
G02*
X16115699Y-9189252I20000J0D01*
G01*
X16175230Y-9784565D02*
G75*
G02*
X16135230Y-9784565I-20000J0D01*
G01*
X16135230Y-9784565D02*
G75*
G02*
X16175230Y-9784565I20000J0D01*
G01*
X16234762Y-7462844D02*
G75*
G02*
X16194762Y-7462844I-20000J0D01*
G01*
X16194762Y-7462844D02*
G75*
G02*
X16234762Y-7462844I20000J0D01*
G01*
X16532418Y-7343782D02*
G75*
G02*
X16492418Y-7343782I-20000J0D01*
G01*
X16492418Y-7343782D02*
G75*
G02*
X16532418Y-7343782I20000J0D01*
G01*
X16889606Y-9486909D02*
G75*
G02*
X16849606Y-9486909I-20000J0D01*
G01*
X16849606Y-9486909D02*
G75*
G02*
X16889606Y-9486909I20000J0D01*
G01*
X17901638Y-8593939D02*
G75*
G02*
X17861638Y-8593939I-20000J0D01*
G01*
X17861638Y-8593939D02*
G75*
G02*
X17901638Y-8593939I20000J0D01*
G01*
X18139763Y-10141753D02*
G75*
G02*
X18099763Y-10141753I-20000J0D01*
G01*
X18099763Y-10141753D02*
G75*
G02*
X18139763Y-10141753I20000J0D01*
G01*
X18437420Y-3533778D02*
G75*
G02*
X18397420Y-3533778I-20000J0D01*
G01*
X18397420Y-3533778D02*
G75*
G02*
X18437420Y-3533778I20000J0D01*
G01*
X18556482Y-11391910D02*
G75*
G02*
X18516482Y-11391910I-20000J0D01*
G01*
X18516482Y-11391910D02*
G75*
G02*
X18556482Y-11391910I20000J0D01*
G01*
X18675545Y-9189252D02*
G75*
G02*
X18635545Y-9189252I-20000J0D01*
G01*
X18635545Y-9189252D02*
G75*
G02*
X18675545Y-9189252I20000J0D01*
G01*
X18735076Y-7343782D02*
G75*
G02*
X18695076Y-7343782I-20000J0D01*
G01*
X18695076Y-7343782D02*
G75*
G02*
X18735076Y-7343782I20000J0D01*
G01*
X18797094Y-9142841D02*
G75*
G02*
X18757094Y-9142841I-20000J0D01*
G01*
X18757094Y-9142841D02*
G75*
G02*
X18797094Y-9142841I20000J0D01*
G01*
X18797094Y-11102841D02*
G75*
G02*
X18757094Y-11102841I-20000J0D01*
G01*
X18757094Y-11102841D02*
G75*
G02*
X18797094Y-11102841I20000J0D01*
G01*
X19747108Y-5676905D02*
G75*
G02*
X19707108Y-5676905I-20000J0D01*
G01*
X19707108Y-5676905D02*
G75*
G02*
X19747108Y-5676905I20000J0D01*
G01*
X19909636Y-9175383D02*
G75*
G02*
X19869636Y-9175383I-20000J0D01*
G01*
X19869636Y-9175383D02*
G75*
G02*
X19909636Y-9175383I20000J0D01*
G01*
X19925702Y-6569875D02*
G75*
G02*
X19885702Y-6569875I-20000J0D01*
G01*
X19885702Y-6569875D02*
G75*
G02*
X19925702Y-6569875I20000J0D01*
G01*
X20104296Y-8236751D02*
G75*
G02*
X20064296Y-8236751I-20000J0D01*
G01*
X20064296Y-8236751D02*
G75*
G02*
X20104296Y-8236751I20000J0D01*
G01*
X20640078Y-11391910D02*
G75*
G02*
X20600078Y-11391910I-20000J0D01*
G01*
X20600078Y-11391910D02*
G75*
G02*
X20640078Y-11391910I20000J0D01*
G01*
X20699609Y-3533778D02*
G75*
G02*
X20659609Y-3533778I-20000J0D01*
G01*
X20659609Y-3533778D02*
G75*
G02*
X20699609Y-3533778I20000J0D01*
G01*
X20699609Y-4486279D02*
G75*
G02*
X20659609Y-4486279I-20000J0D01*
G01*
X20659609Y-4486279D02*
G75*
G02*
X20699609Y-4486279I20000J0D01*
G01*
X20827094Y-7312840D02*
G75*
G02*
X20787094Y-7312840I-20000J0D01*
G01*
X20787094Y-7312840D02*
G75*
G02*
X20827094Y-7312840I20000J0D01*
G01*
X21056797Y-4426748D02*
G75*
G02*
X21016797Y-4426748I-20000J0D01*
G01*
X21016797Y-4426748D02*
G75*
G02*
X21056797Y-4426748I20000J0D01*
G01*
X21175860Y-3533778D02*
G75*
G02*
X21135860Y-3533778I-20000J0D01*
G01*
X21135860Y-3533778D02*
G75*
G02*
X21175860Y-3533778I20000J0D01*
G01*
X21175860Y-9486909D02*
G75*
G02*
X21135860Y-9486909I-20000J0D01*
G01*
X21135860Y-9486909D02*
G75*
G02*
X21175860Y-9486909I20000J0D01*
G01*
X21235391Y-11391910D02*
G75*
G02*
X21195391Y-11391910I-20000J0D01*
G01*
X21195391Y-11391910D02*
G75*
G02*
X21235391Y-11391910I20000J0D01*
G01*
X21354453Y-9189252D02*
G75*
G02*
X21314453Y-9189252I-20000J0D01*
G01*
X21314453Y-9189252D02*
G75*
G02*
X21354453Y-9189252I20000J0D01*
G01*
X22426017Y-10141753D02*
G75*
G02*
X22386017Y-10141753I-20000J0D01*
G01*
X22386017Y-10141753D02*
G75*
G02*
X22426017Y-10141753I20000J0D01*
G01*
X22867093Y-9197869D02*
G75*
G02*
X22827093Y-9197869I-20000J0D01*
G01*
X22827093Y-9197869D02*
G75*
G02*
X22867093Y-9197869I20000J0D01*
G01*
X23082093Y-11102841D02*
G75*
G02*
X23042093Y-11102841I-20000J0D01*
G01*
X23042093Y-11102841D02*
G75*
G02*
X23082093Y-11102841I20000J0D01*
G01*
X23119645Y-7292840D02*
G75*
G02*
X23079645Y-7292840I-20000J0D01*
G01*
X23079645Y-7292840D02*
G75*
G02*
X23119645Y-7292840I20000J0D01*
G01*
X23119665Y-5387853D02*
G75*
G02*
X23079665Y-5387853I-20000J0D01*
G01*
X23079665Y-5387853D02*
G75*
G02*
X23119665Y-5387853I20000J0D01*
G01*
X23259455Y-3533778D02*
G75*
G02*
X23219455Y-3533778I-20000J0D01*
G01*
X23219455Y-3533778D02*
G75*
G02*
X23259455Y-3533778I20000J0D01*
G01*
X23318986Y-6331750D02*
G75*
G02*
X23278986Y-6331750I-20000J0D01*
G01*
X23278986Y-6331750D02*
G75*
G02*
X23318986Y-6331750I20000J0D01*
G01*
X23557111Y-5676905D02*
G75*
G02*
X23517111Y-5676905I-20000J0D01*
G01*
X23517111Y-5676905D02*
G75*
G02*
X23557111Y-5676905I20000J0D01*
G01*
X23914299Y-8236751D02*
G75*
G02*
X23874299Y-8236751I-20000J0D01*
G01*
X23874299Y-8236751D02*
G75*
G02*
X23914299Y-8236751I20000J0D01*
G01*
X24033362Y-11391910D02*
G75*
G02*
X23993362Y-11391910I-20000J0D01*
G01*
X23993362Y-11391910D02*
G75*
G02*
X24033362Y-11391910I20000J0D01*
G01*
X24866800Y-4426748D02*
G75*
G02*
X24826800Y-4426748I-20000J0D01*
G01*
X24826800Y-4426748D02*
G75*
G02*
X24866800Y-4426748I20000J0D01*
G01*
X25164457Y-7462844D02*
G75*
G02*
X25124457Y-7462844I-20000J0D01*
G01*
X25124457Y-7462844D02*
G75*
G02*
X25164457Y-7462844I20000J0D01*
G01*
X25164457Y-9189252D02*
G75*
G02*
X25124457Y-9189252I-20000J0D01*
G01*
X25124457Y-9189252D02*
G75*
G02*
X25164457Y-9189252I20000J0D01*
G01*
X25462113Y-3533778D02*
G75*
G02*
X25422113Y-3533778I-20000J0D01*
G01*
X25422113Y-3533778D02*
G75*
G02*
X25462113Y-3533778I20000J0D01*
G01*
X25521644Y-9486909D02*
G75*
G02*
X25481644Y-9486909I-20000J0D01*
G01*
X25481644Y-9486909D02*
G75*
G02*
X25521644Y-9486909I20000J0D01*
G01*
X25759770Y-7462844D02*
G75*
G02*
X25719770Y-7462844I-20000J0D01*
G01*
X25719770Y-7462844D02*
G75*
G02*
X25759770Y-7462844I20000J0D01*
G01*
X25857093Y-9477841D02*
G75*
G02*
X25817093Y-9477841I-20000J0D01*
G01*
X25817093Y-9477841D02*
G75*
G02*
X25857093Y-9477841I20000J0D01*
G01*
X25857094Y-9682841D02*
G75*
G02*
X25817094Y-9682841I-20000J0D01*
G01*
X25817094Y-9682841D02*
G75*
G02*
X25857094Y-9682841I20000J0D01*
G01*
X25997093Y-9122841D02*
G75*
G02*
X25957093Y-9122841I-20000J0D01*
G01*
X25957093Y-9122841D02*
G75*
G02*
X25997093Y-9122841I20000J0D01*
G01*
X26057426Y-3533778D02*
G75*
G02*
X26017426Y-3533778I-20000J0D01*
G01*
X26017426Y-3533778D02*
G75*
G02*
X26057426Y-3533778I20000J0D01*
G01*
X26116957Y-9546440D02*
G75*
G02*
X26076957Y-9546440I-20000J0D01*
G01*
X26076957Y-9546440D02*
G75*
G02*
X26116957Y-9546440I20000J0D01*
G01*
X26414614Y-11391910D02*
G75*
G02*
X26374614Y-11391910I-20000J0D01*
G01*
X26374614Y-11391910D02*
G75*
G02*
X26414614Y-11391910I20000J0D01*
G01*
X26831333Y-7403313D02*
G75*
G02*
X26791333Y-7403313I-20000J0D01*
G01*
X26791333Y-7403313D02*
G75*
G02*
X26831333Y-7403313I20000J0D01*
G01*
X26929581Y-7292860D02*
G75*
G02*
X26889581Y-7292860I-20000J0D01*
G01*
X26889581Y-7292860D02*
G75*
G02*
X26929581Y-7292860I20000J0D01*
G01*
X27069458Y-6331750D02*
G75*
G02*
X27029458Y-6331750I-20000J0D01*
G01*
X27029458Y-6331750D02*
G75*
G02*
X27069458Y-6331750I20000J0D01*
G01*
X27367115Y-5676905D02*
G75*
G02*
X27327115Y-5676905I-20000J0D01*
G01*
X27327115Y-5676905D02*
G75*
G02*
X27367115Y-5676905I20000J0D01*
G01*
X27638343Y-5534091D02*
G75*
G02*
X27598343Y-5534091I-20000J0D01*
G01*
X27598343Y-5534091D02*
G75*
G02*
X27638343Y-5534091I20000J0D01*
G01*
X28319615Y-7820032D02*
G75*
G02*
X28279615Y-7820032I-20000J0D01*
G01*
X28279615Y-7820032D02*
G75*
G02*
X28319615Y-7820032I20000J0D01*
G01*
X28438678Y-4426748D02*
G75*
G02*
X28398678Y-4426748I-20000J0D01*
G01*
X28398678Y-4426748D02*
G75*
G02*
X28438678Y-4426748I20000J0D01*
G01*
X28617093Y-8032840D02*
G75*
G02*
X28577093Y-8032840I-20000J0D01*
G01*
X28577093Y-8032840D02*
G75*
G02*
X28617093Y-8032840I20000J0D01*
G01*
X28617093Y-8622841D02*
G75*
G02*
X28577093Y-8622841I-20000J0D01*
G01*
X28577093Y-8622841D02*
G75*
G02*
X28617093Y-8622841I20000J0D01*
G01*
X28736335Y-9546440D02*
G75*
G02*
X28696335Y-9546440I-20000J0D01*
G01*
X28696335Y-9546440D02*
G75*
G02*
X28736335Y-9546440I20000J0D01*
G01*
X28967093Y-7612840D02*
G75*
G02*
X28927093Y-7612840I-20000J0D01*
G01*
X28927093Y-7612840D02*
G75*
G02*
X28967093Y-7612840I20000J0D01*
G01*
X28974460Y-8058157D02*
G75*
G02*
X28934460Y-8058157I-20000J0D01*
G01*
X28934460Y-8058157D02*
G75*
G02*
X28974460Y-8058157I20000J0D01*
G01*
X28974460Y-8653470D02*
G75*
G02*
X28934460Y-8653470I-20000J0D01*
G01*
X28934460Y-8653470D02*
G75*
G02*
X28974460Y-8653470I20000J0D01*
G01*
X29033991Y-3533778D02*
G75*
G02*
X28993991Y-3533778I-20000J0D01*
G01*
X28993991Y-3533778D02*
G75*
G02*
X29033991Y-3533778I20000J0D01*
G01*
X29153054Y-11391910D02*
G75*
G02*
X29113054Y-11391910I-20000J0D01*
G01*
X29113054Y-11391910D02*
G75*
G02*
X29153054Y-11391910I20000J0D01*
G01*
X29510241Y-4486279D02*
G75*
G02*
X29470241Y-4486279I-20000J0D01*
G01*
X29470241Y-4486279D02*
G75*
G02*
X29510241Y-4486279I20000J0D01*
G01*
X29510241Y-4962530D02*
G75*
G02*
X29470241Y-4962530I-20000J0D01*
G01*
X29470241Y-4962530D02*
G75*
G02*
X29510241Y-4962530I20000J0D01*
G01*
X29629304Y-3831435D02*
G75*
G02*
X29589304Y-3831435I-20000J0D01*
G01*
X29589304Y-3831435D02*
G75*
G02*
X29629304Y-3831435I20000J0D01*
G01*
X29629304Y-5557843D02*
G75*
G02*
X29589304Y-5557843I-20000J0D01*
G01*
X29589304Y-5557843D02*
G75*
G02*
X29629304Y-5557843I20000J0D01*
G01*
X29629304Y-7462844D02*
G75*
G02*
X29589304Y-7462844I-20000J0D01*
G01*
X29589304Y-7462844D02*
G75*
G02*
X29629304Y-7462844I20000J0D01*
G01*
X29629304Y-9367846D02*
G75*
G02*
X29589304Y-9367846I-20000J0D01*
G01*
X29589304Y-9367846D02*
G75*
G02*
X29629304Y-9367846I20000J0D01*
G01*
X29629304Y-10915660D02*
G75*
G02*
X29589304Y-10915660I-20000J0D01*
G01*
X29589304Y-10915660D02*
G75*
G02*
X29629304Y-10915660I20000J0D01*
G01*
X4065843Y-4743466D02*
X4065843Y-4793466D01*
X4040843Y-4768466D02*
X4090843Y-4768466D01*
X4065843Y-4843466D02*
X4065843Y-4893466D01*
X4040843Y-4868466D02*
X4090843Y-4868466D01*
X4065843Y-4943466D02*
X4065843Y-4993466D01*
X4040843Y-4968466D02*
X4090843Y-4968466D01*
X4065843Y-5043466D02*
X4065843Y-5093466D01*
X4040843Y-5068466D02*
X4090843Y-5068466D01*
X4065843Y-5143466D02*
X4065843Y-5193466D01*
X4040843Y-5168466D02*
X4090843Y-5168466D01*
X4065843Y-5243466D02*
X4065843Y-5293466D01*
X4040843Y-5268466D02*
X4090843Y-5268466D01*
X4065843Y-5343466D02*
X4065843Y-5393466D01*
X4040843Y-5368466D02*
X4090843Y-5368466D01*
X4065843Y-5443466D02*
X4065843Y-5493466D01*
X4040843Y-5468466D02*
X4090843Y-5468466D01*
X4065843Y-5543466D02*
X4065843Y-5593465D01*
X4040843Y-5568466D02*
X4090843Y-5568466D01*
X4065843Y-5643465D02*
X4065843Y-5693465D01*
X4040843Y-5668465D02*
X4090843Y-5668465D01*
X3073807Y-3720925D02*
X3073807Y-3678498D01*
X3031380Y-3678498D01*
X3031380Y-3720925D01*
X3073807Y-3720925D01*
X3022593Y-3669711D02*
X3022593Y-3729711D01*
X3082593Y-3729711D02*
G75*
G02*
X3022593Y-3729711I-30000J0D01*
G01*
X3082593Y-3729711D02*
X3082593Y-3669711D01*
X3082593Y-3669711D02*
G75*
G03*
X3022593Y-3669711I-30000J0D01*
G01*
X3073807Y-4138925D02*
X3073807Y-4096498D01*
X3031380Y-4096498D01*
X3031380Y-4138925D01*
X3073807Y-4138925D01*
X3022593Y-4062711D02*
X3022593Y-4172711D01*
X3082593Y-4172711D02*
G75*
G02*
X3022593Y-4172711I-30000J0D01*
G01*
X3082593Y-4172711D02*
X3082593Y-4062711D01*
X3082593Y-4062711D02*
G75*
G03*
X3022593Y-4062711I-30000J0D01*
G01*
X3937807Y-3720925D02*
X3937807Y-3678498D01*
X3895380Y-3678498D01*
X3895380Y-3720925D01*
X3937807Y-3720925D01*
X3886593Y-3669711D02*
X3886593Y-3729711D01*
X3946593Y-3729711D02*
G75*
G02*
X3886593Y-3729711I-30000J0D01*
G01*
X3946593Y-3729711D02*
X3946593Y-3669711D01*
X3946593Y-3669711D02*
G75*
G03*
X3886593Y-3669711I-30000J0D01*
G01*
X3937807Y-4138925D02*
X3937807Y-4096498D01*
X3895380Y-4096498D01*
X3895380Y-4138925D01*
X3937807Y-4138925D01*
X3886593Y-4062711D02*
X3886593Y-4172711D01*
X3946593Y-4172711D02*
G75*
G02*
X3886593Y-4172711I-30000J0D01*
G01*
X3946593Y-4172711D02*
X3946593Y-4062711D01*
X3946593Y-4062711D02*
G75*
G03*
X3886593Y-4062711I-30000J0D01*
G01*
X15167093Y-10105377D02*
X15202093Y-10070377D01*
X15167093Y-10035377D01*
X15132093Y-10070377D01*
X15167093Y-10105377D01*
X15202093Y-10085377D02*
X15202093Y-10055377D01*
X15132093Y-10055377D02*
G75*
G02*
X15202093Y-10055377I35000J0D01*
G01*
X15132093Y-10055377D02*
X15132093Y-10085377D01*
X15132093Y-10085377D02*
G75*
G03*
X15202093Y-10085377I35000J0D01*
G01*
X15167093Y-10355377D02*
X15202093Y-10320377D01*
X15167093Y-10285377D01*
X15132093Y-10320377D01*
X15167093Y-10355377D01*
X15202093Y-10335377D02*
X15202093Y-10305377D01*
X15132093Y-10305377D02*
G75*
G02*
X15202093Y-10305377I35000J0D01*
G01*
X15132093Y-10305377D02*
X15132093Y-10335377D01*
X15132093Y-10335377D02*
G75*
G03*
X15202093Y-10335377I35000J0D01*
G01*
X15167093Y-10605377D02*
X15202093Y-10570377D01*
X15167093Y-10535377D01*
X15132093Y-10570377D01*
X15167093Y-10605377D01*
X15202093Y-10585377D02*
X15202093Y-10555377D01*
X15132093Y-10555377D02*
G75*
G02*
X15202093Y-10555377I35000J0D01*
G01*
X15132093Y-10555377D02*
X15132093Y-10585377D01*
X15132093Y-10585377D02*
G75*
G03*
X15202093Y-10585377I35000J0D01*
G01*
X16617093Y-10105377D02*
X16652093Y-10070377D01*
X16617093Y-10035377D01*
X16582093Y-10070377D01*
X16617093Y-10105377D01*
X16652093Y-10085377D02*
X16652093Y-10055377D01*
X16582093Y-10055377D02*
G75*
G02*
X16652093Y-10055377I35000J0D01*
G01*
X16582093Y-10055377D02*
X16582093Y-10085377D01*
X16582093Y-10085377D02*
G75*
G03*
X16652093Y-10085377I35000J0D01*
G01*
X16617093Y-10605377D02*
X16652093Y-10570377D01*
X16617093Y-10535377D01*
X16582093Y-10570377D01*
X16617093Y-10605377D01*
X16652093Y-10585377D02*
X16652093Y-10555377D01*
X16582093Y-10555377D02*
G75*
G02*
X16652093Y-10555377I35000J0D01*
G01*
X16582093Y-10555377D02*
X16582093Y-10585377D01*
X16582093Y-10585377D02*
G75*
G03*
X16652093Y-10585377I35000J0D01*
G01*
X4437094Y-5954840D02*
X4537094Y-6054840D01*
X4537094Y-5954840D02*
X4437094Y-6054840D01*
X4537094Y-6004840D02*
G75*
G02*
X4437094Y-6004840I-50000J0D01*
G01*
X4437094Y-6004840D02*
G75*
G02*
X4537094Y-6004840I50000J0D01*
G01*
X4437094Y-6208840D02*
X4537094Y-6308840D01*
X4537094Y-6208840D02*
X4437094Y-6308840D01*
X4537094Y-6258840D02*
G75*
G02*
X4437094Y-6258840I-50000J0D01*
G01*
X4437094Y-6258840D02*
G75*
G02*
X4537094Y-6258840I50000J0D01*
G01*
X4437094Y-6462840D02*
X4537094Y-6562840D01*
X4537094Y-6462840D02*
X4437094Y-6562840D01*
X4537094Y-6512840D02*
G75*
G02*
X4437094Y-6512840I-50000J0D01*
G01*
X4437094Y-6512840D02*
G75*
G02*
X4537094Y-6512840I50000J0D01*
G01*
X6818343Y-10270341D02*
X6918343Y-10370341D01*
X6918343Y-10270341D02*
X6818343Y-10370341D01*
X6918343Y-10320341D02*
G75*
G02*
X6818343Y-10320341I-50000J0D01*
G01*
X6818343Y-10320341D02*
G75*
G02*
X6918343Y-10320341I50000J0D01*
G01*
X8723343Y-10270341D02*
X8823343Y-10370341D01*
X8823343Y-10270341D02*
X8723343Y-10370341D01*
X8823343Y-10320341D02*
G75*
G02*
X8723343Y-10320341I-50000J0D01*
G01*
X8723343Y-10320341D02*
G75*
G02*
X8823343Y-10320341I50000J0D01*
G01*
X13009593Y-10270341D02*
X13109593Y-10370341D01*
X13109593Y-10270341D02*
X13009593Y-10370341D01*
X13109593Y-10320341D02*
G75*
G02*
X13009593Y-10320341I-50000J0D01*
G01*
X13009593Y-10320341D02*
G75*
G02*
X13109593Y-10320341I50000J0D01*
G01*
X16819606Y-10984722D02*
X16919606Y-11084722D01*
X16919606Y-10984722D02*
X16819606Y-11084722D01*
X16919606Y-11034722D02*
G75*
G02*
X16819606Y-11034722I-50000J0D01*
G01*
X16819606Y-11034722D02*
G75*
G02*
X16919606Y-11034722I50000J0D01*
G01*
X18724593Y-10270341D02*
X18824593Y-10370341D01*
X18824593Y-10270341D02*
X18724593Y-10370341D01*
X18824593Y-10320341D02*
G75*
G02*
X18724593Y-10320341I-50000J0D01*
G01*
X18724593Y-10320341D02*
G75*
G02*
X18824593Y-10320341I50000J0D01*
G01*
X23010843Y-10270341D02*
X23110843Y-10370341D01*
X23110843Y-10270341D02*
X23010843Y-10370341D01*
X23110843Y-10320341D02*
G75*
G02*
X23010843Y-10320341I-50000J0D01*
G01*
X23010843Y-10320341D02*
G75*
G02*
X23110843Y-10320341I50000J0D01*
G01*
X24915843Y-10270341D02*
X25015843Y-10370341D01*
X25015843Y-10270341D02*
X24915843Y-10370341D01*
X25015843Y-10320341D02*
G75*
G02*
X24915843Y-10320341I-50000J0D01*
G01*
X24915843Y-10320341D02*
G75*
G02*
X25015843Y-10320341I50000J0D01*
G01*
X29083031Y-4436278D02*
X29183031Y-4536278D01*
X29183031Y-4436278D02*
X29083031Y-4536278D01*
X29183031Y-4486278D02*
G75*
G02*
X29083031Y-4486278I-50000J0D01*
G01*
X29083031Y-4486278D02*
G75*
G02*
X29183031Y-4486278I50000J0D01*
G01*
X29083031Y-4912528D02*
X29183031Y-5012528D01*
X29183031Y-4912528D02*
X29083031Y-5012528D01*
X29183031Y-4962528D02*
G75*
G02*
X29083031Y-4962528I-50000J0D01*
G01*
X29083031Y-4962528D02*
G75*
G02*
X29183031Y-4962528I50000J0D01*
G01*
X29083031Y-5626903D02*
X29183031Y-5726903D01*
X29183031Y-5626903D02*
X29083031Y-5726903D01*
X29183031Y-5676903D02*
G75*
G02*
X29083031Y-5676903I-50000J0D01*
G01*
X29083031Y-5676903D02*
G75*
G02*
X29183031Y-5676903I50000J0D01*
G01*
X29083031Y-6103153D02*
X29183031Y-6203153D01*
X29183031Y-6103153D02*
X29083031Y-6203153D01*
X29183031Y-6153153D02*
G75*
G02*
X29083031Y-6153153I-50000J0D01*
G01*
X29083031Y-6153153D02*
G75*
G02*
X29183031Y-6153153I50000J0D01*
G01*
X29083031Y-6936590D02*
X29183031Y-7036590D01*
X29183031Y-6936590D02*
X29083031Y-7036590D01*
X29183031Y-6986590D02*
G75*
G02*
X29083031Y-6986590I-50000J0D01*
G01*
X29083031Y-6986590D02*
G75*
G02*
X29183031Y-6986590I50000J0D01*
G01*
X29083031Y-7412840D02*
X29183031Y-7512840D01*
X29183031Y-7412840D02*
X29083031Y-7512840D01*
X29183031Y-7462840D02*
G75*
G02*
X29083031Y-7462840I-50000J0D01*
G01*
X29083031Y-7462840D02*
G75*
G02*
X29183031Y-7462840I50000J0D01*
G01*
X29083031Y-9555966D02*
X29183031Y-9655966D01*
X29183031Y-9555966D02*
X29083031Y-9655966D01*
X29183031Y-9605966D02*
G75*
G02*
X29083031Y-9605966I-50000J0D01*
G01*
X29083031Y-9605966D02*
G75*
G02*
X29183031Y-9605966I50000J0D01*
G01*
X29083031Y-10032216D02*
X29183031Y-10132216D01*
X29183031Y-10032216D02*
X29083031Y-10132216D01*
X29183031Y-10082216D02*
G75*
G02*
X29083031Y-10082216I-50000J0D01*
G01*
X29083031Y-10082216D02*
G75*
G02*
X29183031Y-10082216I50000J0D01*
G01*
D14*
X15842093Y-9685377D02*
X15992093Y-9835377D01*
X15992093Y-9685377D02*
X15842093Y-9835377D01*
X15917093Y-9685377D02*
X15917093Y-9835377D01*
X15842093Y-9760377D02*
X15992093Y-9760377D01*
D13*
X15852093Y-9835377D02*
X15982093Y-9835377D01*
X15982093Y-9685377D02*
G75*
G02*
X15982093Y-9835377I0J-75000D01*
G01*
X15982093Y-9685377D02*
X15852093Y-9685377D01*
X15852093Y-9685377D02*
G75*
G03*
X15852093Y-9835377I0J-75000D01*
G01*
D14*
X15842093Y-10805377D02*
X15992093Y-10955377D01*
X15992093Y-10805377D02*
X15842093Y-10955377D01*
X15917093Y-10805377D02*
X15917093Y-10955377D01*
X15842093Y-10880377D02*
X15992093Y-10880377D01*
D13*
X15852093Y-10955377D02*
X15982093Y-10955377D01*
X15982093Y-10805377D02*
G75*
G02*
X15982093Y-10955377I0J-75000D01*
G01*
X15982093Y-10805377D02*
X15852093Y-10805377D01*
X15852093Y-10805377D02*
G75*
G03*
X15852093Y-10955377I0J-75000D01*
G01*
D15*
X2279594Y-5157841D02*
X2499594Y-5377841D01*
X2499594Y-5157841D02*
X2279594Y-5377841D01*
X2467376Y-5345623D02*
X2467376Y-5190058D01*
X2311811Y-5190058D01*
X2311811Y-5345623D01*
X2467376Y-5345623D01*
X2439594Y-3597840D02*
X2659594Y-3817840D01*
X2659594Y-3597840D02*
X2439594Y-3817840D01*
X2627376Y-3785623D02*
X2627376Y-3630058D01*
X2471811Y-3630058D01*
X2471811Y-3785623D01*
X2627376Y-3785623D01*
X4377094Y-4495341D02*
X4597094Y-4715341D01*
X4597094Y-4495341D02*
X4377094Y-4715341D01*
X4564876Y-4683123D02*
X4564876Y-4527558D01*
X4409311Y-4527558D01*
X4409311Y-4683123D01*
X4564876Y-4683123D01*
X5989593Y-3597840D02*
X6209593Y-3817840D01*
X6209593Y-3597840D02*
X5989593Y-3817840D01*
X6177376Y-3785623D02*
X6177376Y-3630058D01*
X6021811Y-3630058D01*
X6021811Y-3785623D01*
X6177376Y-3785623D01*
X11997093Y-3900028D02*
X12217093Y-4120028D01*
X12217093Y-3900028D02*
X11997093Y-4120028D01*
X12184876Y-4087810D02*
X12184876Y-3932245D01*
X12029311Y-3932245D01*
X12029311Y-4087810D01*
X12184876Y-4087810D01*
X12354281Y-5447841D02*
X12574281Y-5667840D01*
X12574281Y-5447841D02*
X12354281Y-5667840D01*
X12542063Y-5635623D02*
X12542063Y-5480058D01*
X12386498Y-5480058D01*
X12386498Y-5635623D01*
X12542063Y-5635623D01*
X13663968Y-7352840D02*
X13883968Y-7572840D01*
X13883968Y-7352840D02*
X13663968Y-7572840D01*
X13851751Y-7540623D02*
X13851751Y-7385058D01*
X13696186Y-7385058D01*
X13696186Y-7540623D01*
X13851751Y-7540623D01*
X14854593Y-8305340D02*
X15074593Y-8525341D01*
X15074593Y-8305340D02*
X14854593Y-8525341D01*
X15042376Y-8493123D02*
X15042376Y-8337558D01*
X14886811Y-8337558D01*
X14886811Y-8493123D01*
X15042376Y-8493123D01*
X15807093Y-4495341D02*
X16027093Y-4715341D01*
X16027093Y-4495341D02*
X15807093Y-4715341D01*
X15994876Y-4683123D02*
X15994876Y-4527558D01*
X15839311Y-4527558D01*
X15839311Y-4683123D01*
X15994876Y-4683123D01*
X15807093Y-6400340D02*
X16027093Y-6620340D01*
X16027093Y-6400340D02*
X15807093Y-6620340D01*
X15994876Y-6588123D02*
X15994876Y-6432558D01*
X15839311Y-6432558D01*
X15839311Y-6588123D01*
X15994876Y-6588123D01*
X16759593Y-8305340D02*
X16979594Y-8525341D01*
X16979594Y-8305340D02*
X16759593Y-8525341D01*
X16947376Y-8493123D02*
X16947376Y-8337558D01*
X16791811Y-8337558D01*
X16791811Y-8493123D01*
X16947376Y-8493123D01*
X17831156Y-7352840D02*
X18051156Y-7572840D01*
X18051156Y-7352840D02*
X17831156Y-7572840D01*
X18018939Y-7540623D02*
X18018939Y-7385058D01*
X17863374Y-7385058D01*
X17863374Y-7540623D01*
X18018939Y-7540623D01*
X19259906Y-5447841D02*
X19479906Y-5667840D01*
X19479906Y-5447841D02*
X19259906Y-5667840D01*
X19447689Y-5635623D02*
X19447689Y-5480058D01*
X19292124Y-5480058D01*
X19292124Y-5635623D01*
X19447689Y-5635623D01*
X19617094Y-3900028D02*
X19837094Y-4120028D01*
X19837094Y-3900028D02*
X19617094Y-4120028D01*
X19804876Y-4087810D02*
X19804876Y-3932245D01*
X19649311Y-3932245D01*
X19649311Y-4087810D01*
X19804876Y-4087810D01*
X25624593Y-3597840D02*
X25844593Y-3817840D01*
X25844593Y-3597840D02*
X25624593Y-3817840D01*
X25812376Y-3785623D02*
X25812376Y-3630058D01*
X25656811Y-3630058D01*
X25656811Y-3785623D01*
X25812376Y-3785623D01*
X27237093Y-4495341D02*
X27457093Y-4715341D01*
X27457093Y-4495341D02*
X27237093Y-4715341D01*
X27424876Y-4683123D02*
X27424876Y-4527558D01*
X27269311Y-4527558D01*
X27269311Y-4683123D01*
X27424876Y-4683123D01*
X29174593Y-3597840D02*
X29394593Y-3817840D01*
X29394593Y-3597840D02*
X29174593Y-3817840D01*
X29362376Y-3785623D02*
X29362376Y-3630058D01*
X29206811Y-3630058D01*
X29206811Y-3785623D01*
X29362376Y-3785623D01*
X29334593Y-5157841D02*
X29554593Y-5377841D01*
X29554593Y-5157841D02*
X29334593Y-5377841D01*
X29522376Y-5345623D02*
X29522376Y-5190058D01*
X29366811Y-5190058D01*
X29366811Y-5345623D01*
X29522376Y-5345623D01*
D12*
X2386620Y-11802445D02*
X2386620Y-11602445D01*
X2386620Y-11602445D02*
X2434239Y-11602445D01*
X2434239Y-11602445D02*
X2462811Y-11611969D01*
X2462811Y-11611969D02*
X2481858Y-11631017D01*
X2481858Y-11631017D02*
X2491382Y-11650064D01*
X2491382Y-11650064D02*
X2500906Y-11688159D01*
X2500906Y-11688159D02*
X2500906Y-11716731D01*
X2500906Y-11716731D02*
X2491382Y-11754826D01*
X2491382Y-11754826D02*
X2481858Y-11773874D01*
X2481858Y-11773874D02*
X2462811Y-11792921D01*
X2462811Y-11792921D02*
X2434239Y-11802445D01*
X2434239Y-11802445D02*
X2386620Y-11802445D01*
X2586620Y-11802445D02*
X2586620Y-11669112D01*
X2586620Y-11707207D02*
X2596144Y-11688159D01*
X2596144Y-11688159D02*
X2605668Y-11678636D01*
X2605668Y-11678636D02*
X2624716Y-11669112D01*
X2624716Y-11669112D02*
X2643763Y-11669112D01*
X2710430Y-11802445D02*
X2710430Y-11669112D01*
X2710430Y-11602445D02*
X2700906Y-11611969D01*
X2700906Y-11611969D02*
X2710430Y-11621493D01*
X2710430Y-11621493D02*
X2719954Y-11611969D01*
X2719954Y-11611969D02*
X2710430Y-11602445D01*
X2710430Y-11602445D02*
X2710430Y-11621493D01*
X2834239Y-11802445D02*
X2815192Y-11792921D01*
X2815192Y-11792921D02*
X2805668Y-11773874D01*
X2805668Y-11773874D02*
X2805668Y-11602445D01*
X2939001Y-11802445D02*
X2919954Y-11792921D01*
X2919954Y-11792921D02*
X2910430Y-11773874D01*
X2910430Y-11773874D02*
X2910430Y-11602445D01*
X3167573Y-11802445D02*
X3167573Y-11602445D01*
X3167573Y-11602445D02*
X3234239Y-11745302D01*
X3234239Y-11745302D02*
X3300906Y-11602445D01*
X3300906Y-11602445D02*
X3300906Y-11802445D01*
X3481858Y-11802445D02*
X3481858Y-11697683D01*
X3481858Y-11697683D02*
X3472335Y-11678636D01*
X3472335Y-11678636D02*
X3453287Y-11669112D01*
X3453287Y-11669112D02*
X3415192Y-11669112D01*
X3415192Y-11669112D02*
X3396144Y-11678636D01*
X3481858Y-11792921D02*
X3462811Y-11802445D01*
X3462811Y-11802445D02*
X3415192Y-11802445D01*
X3415192Y-11802445D02*
X3396144Y-11792921D01*
X3396144Y-11792921D02*
X3386620Y-11773874D01*
X3386620Y-11773874D02*
X3386620Y-11754826D01*
X3386620Y-11754826D02*
X3396144Y-11735779D01*
X3396144Y-11735779D02*
X3415192Y-11726255D01*
X3415192Y-11726255D02*
X3462811Y-11726255D01*
X3462811Y-11726255D02*
X3481858Y-11716731D01*
X3577096Y-11669112D02*
X3577096Y-11869112D01*
X3577096Y-11678636D02*
X3596144Y-11669112D01*
X3596144Y-11669112D02*
X3634239Y-11669112D01*
X3634239Y-11669112D02*
X3653287Y-11678636D01*
X3653287Y-11678636D02*
X3662811Y-11688159D01*
X3662811Y-11688159D02*
X3672335Y-11707207D01*
X3672335Y-11707207D02*
X3672335Y-11764350D01*
X3672335Y-11764350D02*
X3662811Y-11783398D01*
X3662811Y-11783398D02*
X3653287Y-11792921D01*
X3653287Y-11792921D02*
X3634239Y-11802445D01*
X3634239Y-11802445D02*
X3596144Y-11802445D01*
X3596144Y-11802445D02*
X3577096Y-11792921D01*
X3758049Y-11783398D02*
X3767573Y-11792921D01*
X3767573Y-11792921D02*
X3758049Y-11802445D01*
X3758049Y-11802445D02*
X3748525Y-11792921D01*
X3748525Y-11792921D02*
X3758049Y-11783398D01*
X3758049Y-11783398D02*
X3758049Y-11802445D01*
X3758049Y-11678636D02*
X3767573Y-11688159D01*
X3767573Y-11688159D02*
X3758049Y-11697683D01*
X3758049Y-11697683D02*
X3748525Y-11688159D01*
X3748525Y-11688159D02*
X3758049Y-11678636D01*
X3758049Y-11678636D02*
X3758049Y-11697683D01*
D13*
X2090843Y-12113461D02*
X2125844Y-12148461D01*
X2125844Y-12113461D02*
X2090843Y-12148461D01*
D12*
X2424716Y-12022445D02*
X2443763Y-12022445D01*
X2443763Y-12022445D02*
X2462811Y-12031969D01*
X2462811Y-12031969D02*
X2472335Y-12041493D01*
X2472335Y-12041493D02*
X2481858Y-12060540D01*
X2481858Y-12060540D02*
X2491382Y-12098636D01*
X2491382Y-12098636D02*
X2491382Y-12146255D01*
X2491382Y-12146255D02*
X2481858Y-12184350D01*
X2481858Y-12184350D02*
X2472335Y-12203398D01*
X2472335Y-12203398D02*
X2462811Y-12212921D01*
X2462811Y-12212921D02*
X2443763Y-12222445D01*
X2443763Y-12222445D02*
X2424716Y-12222445D01*
X2424716Y-12222445D02*
X2405668Y-12212921D01*
X2405668Y-12212921D02*
X2396144Y-12203398D01*
X2396144Y-12203398D02*
X2386620Y-12184350D01*
X2386620Y-12184350D02*
X2377097Y-12146255D01*
X2377097Y-12146255D02*
X2377097Y-12098636D01*
X2377097Y-12098636D02*
X2386620Y-12060540D01*
X2386620Y-12060540D02*
X2396144Y-12041493D01*
X2396144Y-12041493D02*
X2405668Y-12031969D01*
X2405668Y-12031969D02*
X2424716Y-12022445D01*
X2577097Y-12203398D02*
X2586620Y-12212921D01*
X2586620Y-12212921D02*
X2577097Y-12222445D01*
X2577097Y-12222445D02*
X2567573Y-12212921D01*
X2567573Y-12212921D02*
X2577097Y-12203398D01*
X2577097Y-12203398D02*
X2577097Y-12222445D01*
X2653287Y-12022445D02*
X2777097Y-12022445D01*
X2777097Y-12022445D02*
X2710430Y-12098636D01*
X2710430Y-12098636D02*
X2739001Y-12098636D01*
X2739001Y-12098636D02*
X2758049Y-12108159D01*
X2758049Y-12108159D02*
X2767573Y-12117683D01*
X2767573Y-12117683D02*
X2777097Y-12136731D01*
X2777097Y-12136731D02*
X2777097Y-12184350D01*
X2777097Y-12184350D02*
X2767573Y-12203398D01*
X2767573Y-12203398D02*
X2758049Y-12212921D01*
X2758049Y-12212921D02*
X2739001Y-12222445D01*
X2739001Y-12222445D02*
X2681858Y-12222445D01*
X2681858Y-12222445D02*
X2662811Y-12212921D01*
X2662811Y-12212921D02*
X2653287Y-12203398D01*
X2958049Y-12022445D02*
X2862811Y-12022445D01*
X2862811Y-12022445D02*
X2853287Y-12117683D01*
X2853287Y-12117683D02*
X2862811Y-12108159D01*
X2862811Y-12108159D02*
X2881858Y-12098636D01*
X2881858Y-12098636D02*
X2929477Y-12098636D01*
X2929477Y-12098636D02*
X2948525Y-12108159D01*
X2948525Y-12108159D02*
X2958049Y-12117683D01*
X2958049Y-12117683D02*
X2967573Y-12136731D01*
X2967573Y-12136731D02*
X2967573Y-12184350D01*
X2967573Y-12184350D02*
X2958049Y-12203398D01*
X2958049Y-12203398D02*
X2948525Y-12212921D01*
X2948525Y-12212921D02*
X2929477Y-12222445D01*
X2929477Y-12222445D02*
X2881858Y-12222445D01*
X2881858Y-12222445D02*
X2862811Y-12212921D01*
X2862811Y-12212921D02*
X2853287Y-12203398D01*
X3091382Y-12022445D02*
X3110430Y-12022445D01*
X3110430Y-12022445D02*
X3129477Y-12031969D01*
X3129477Y-12031969D02*
X3139001Y-12041493D01*
X3139001Y-12041493D02*
X3148525Y-12060540D01*
X3148525Y-12060540D02*
X3158049Y-12098636D01*
X3158049Y-12098636D02*
X3158049Y-12146255D01*
X3158049Y-12146255D02*
X3148525Y-12184350D01*
X3148525Y-12184350D02*
X3139001Y-12203398D01*
X3139001Y-12203398D02*
X3129477Y-12212921D01*
X3129477Y-12212921D02*
X3110430Y-12222445D01*
X3110430Y-12222445D02*
X3091382Y-12222445D01*
X3091382Y-12222445D02*
X3072335Y-12212921D01*
X3072335Y-12212921D02*
X3062811Y-12203398D01*
X3062811Y-12203398D02*
X3053287Y-12184350D01*
X3053287Y-12184350D02*
X3043763Y-12146255D01*
X3043763Y-12146255D02*
X3043763Y-12098636D01*
X3043763Y-12098636D02*
X3053287Y-12060540D01*
X3053287Y-12060540D02*
X3062811Y-12041493D01*
X3062811Y-12041493D02*
X3072335Y-12031969D01*
X3072335Y-12031969D02*
X3091382Y-12022445D01*
X3243763Y-12222445D02*
X3243763Y-12089112D01*
X3243763Y-12108159D02*
X3253287Y-12098636D01*
X3253287Y-12098636D02*
X3272335Y-12089112D01*
X3272335Y-12089112D02*
X3300906Y-12089112D01*
X3300906Y-12089112D02*
X3319954Y-12098636D01*
X3319954Y-12098636D02*
X3329477Y-12117683D01*
X3329477Y-12117683D02*
X3329477Y-12222445D01*
X3329477Y-12117683D02*
X3339001Y-12098636D01*
X3339001Y-12098636D02*
X3358049Y-12089112D01*
X3358049Y-12089112D02*
X3386620Y-12089112D01*
X3386620Y-12089112D02*
X3405668Y-12098636D01*
X3405668Y-12098636D02*
X3415192Y-12117683D01*
X3415192Y-12117683D02*
X3415192Y-12222445D01*
X3510430Y-12222445D02*
X3510430Y-12089112D01*
X3510430Y-12108159D02*
X3519954Y-12098636D01*
X3519954Y-12098636D02*
X3539001Y-12089112D01*
X3539001Y-12089112D02*
X3567573Y-12089112D01*
X3567573Y-12089112D02*
X3586620Y-12098636D01*
X3586620Y-12098636D02*
X3596144Y-12117683D01*
X3596144Y-12117683D02*
X3596144Y-12222445D01*
X3596144Y-12117683D02*
X3605668Y-12098636D01*
X3605668Y-12098636D02*
X3624716Y-12089112D01*
X3624716Y-12089112D02*
X3653287Y-12089112D01*
X3653287Y-12089112D02*
X3672335Y-12098636D01*
X3672335Y-12098636D02*
X3681858Y-12117683D01*
X3681858Y-12117683D02*
X3681858Y-12222445D01*
X4072335Y-12012921D02*
X3900906Y-12270064D01*
X4329478Y-12022445D02*
X4348525Y-12022445D01*
X4348525Y-12022445D02*
X4367573Y-12031969D01*
X4367573Y-12031969D02*
X4377097Y-12041493D01*
X4377097Y-12041493D02*
X4386621Y-12060540D01*
X4386621Y-12060540D02*
X4396144Y-12098636D01*
X4396144Y-12098636D02*
X4396144Y-12146255D01*
X4396144Y-12146255D02*
X4386621Y-12184350D01*
X4386621Y-12184350D02*
X4377097Y-12203398D01*
X4377097Y-12203398D02*
X4367573Y-12212921D01*
X4367573Y-12212921D02*
X4348525Y-12222445D01*
X4348525Y-12222445D02*
X4329478Y-12222445D01*
X4329478Y-12222445D02*
X4310430Y-12212921D01*
X4310430Y-12212921D02*
X4300906Y-12203398D01*
X4300906Y-12203398D02*
X4291382Y-12184350D01*
X4291382Y-12184350D02*
X4281859Y-12146255D01*
X4281859Y-12146255D02*
X4281859Y-12098636D01*
X4281859Y-12098636D02*
X4291382Y-12060540D01*
X4291382Y-12060540D02*
X4300906Y-12041493D01*
X4300906Y-12041493D02*
X4310430Y-12031969D01*
X4310430Y-12031969D02*
X4329478Y-12022445D01*
X4481859Y-12203398D02*
X4491382Y-12212921D01*
X4491382Y-12212921D02*
X4481859Y-12222445D01*
X4481859Y-12222445D02*
X4472335Y-12212921D01*
X4472335Y-12212921D02*
X4481859Y-12203398D01*
X4481859Y-12203398D02*
X4481859Y-12222445D01*
X4615192Y-12022445D02*
X4634240Y-12022445D01*
X4634240Y-12022445D02*
X4653287Y-12031969D01*
X4653287Y-12031969D02*
X4662811Y-12041493D01*
X4662811Y-12041493D02*
X4672335Y-12060540D01*
X4672335Y-12060540D02*
X4681859Y-12098636D01*
X4681859Y-12098636D02*
X4681859Y-12146255D01*
X4681859Y-12146255D02*
X4672335Y-12184350D01*
X4672335Y-12184350D02*
X4662811Y-12203398D01*
X4662811Y-12203398D02*
X4653287Y-12212921D01*
X4653287Y-12212921D02*
X4634240Y-12222445D01*
X4634240Y-12222445D02*
X4615192Y-12222445D01*
X4615192Y-12222445D02*
X4596144Y-12212921D01*
X4596144Y-12212921D02*
X4586621Y-12203398D01*
X4586621Y-12203398D02*
X4577097Y-12184350D01*
X4577097Y-12184350D02*
X4567573Y-12146255D01*
X4567573Y-12146255D02*
X4567573Y-12098636D01*
X4567573Y-12098636D02*
X4577097Y-12060540D01*
X4577097Y-12060540D02*
X4586621Y-12041493D01*
X4586621Y-12041493D02*
X4596144Y-12031969D01*
X4596144Y-12031969D02*
X4615192Y-12022445D01*
X4872335Y-12222445D02*
X4758049Y-12222445D01*
X4815192Y-12222445D02*
X4815192Y-12022445D01*
X4815192Y-12022445D02*
X4796144Y-12051017D01*
X4796144Y-12051017D02*
X4777097Y-12070064D01*
X4777097Y-12070064D02*
X4758049Y-12079588D01*
X4939002Y-12022445D02*
X5062811Y-12022445D01*
X5062811Y-12022445D02*
X4996144Y-12098636D01*
X4996144Y-12098636D02*
X5024716Y-12098636D01*
X5024716Y-12098636D02*
X5043763Y-12108159D01*
X5043763Y-12108159D02*
X5053287Y-12117683D01*
X5053287Y-12117683D02*
X5062811Y-12136731D01*
X5062811Y-12136731D02*
X5062811Y-12184350D01*
X5062811Y-12184350D02*
X5053287Y-12203398D01*
X5053287Y-12203398D02*
X5043763Y-12212921D01*
X5043763Y-12212921D02*
X5024716Y-12222445D01*
X5024716Y-12222445D02*
X4967573Y-12222445D01*
X4967573Y-12222445D02*
X4948525Y-12212921D01*
X4948525Y-12212921D02*
X4939002Y-12203398D01*
X5177097Y-12108159D02*
X5158049Y-12098636D01*
X5158049Y-12098636D02*
X5148525Y-12089112D01*
X5148525Y-12089112D02*
X5139002Y-12070064D01*
X5139002Y-12070064D02*
X5139002Y-12060540D01*
X5139002Y-12060540D02*
X5148525Y-12041493D01*
X5148525Y-12041493D02*
X5158049Y-12031969D01*
X5158049Y-12031969D02*
X5177097Y-12022445D01*
X5177097Y-12022445D02*
X5215192Y-12022445D01*
X5215192Y-12022445D02*
X5234240Y-12031969D01*
X5234240Y-12031969D02*
X5243763Y-12041493D01*
X5243763Y-12041493D02*
X5253287Y-12060540D01*
X5253287Y-12060540D02*
X5253287Y-12070064D01*
X5253287Y-12070064D02*
X5243763Y-12089112D01*
X5243763Y-12089112D02*
X5234240Y-12098636D01*
X5234240Y-12098636D02*
X5215192Y-12108159D01*
X5215192Y-12108159D02*
X5177097Y-12108159D01*
X5177097Y-12108159D02*
X5158049Y-12117683D01*
X5158049Y-12117683D02*
X5148525Y-12127207D01*
X5148525Y-12127207D02*
X5139002Y-12146255D01*
X5139002Y-12146255D02*
X5139002Y-12184350D01*
X5139002Y-12184350D02*
X5148525Y-12203398D01*
X5148525Y-12203398D02*
X5158049Y-12212921D01*
X5158049Y-12212921D02*
X5177097Y-12222445D01*
X5177097Y-12222445D02*
X5215192Y-12222445D01*
X5215192Y-12222445D02*
X5234240Y-12212921D01*
X5234240Y-12212921D02*
X5243763Y-12203398D01*
X5243763Y-12203398D02*
X5253287Y-12184350D01*
X5253287Y-12184350D02*
X5253287Y-12146255D01*
X5253287Y-12146255D02*
X5243763Y-12127207D01*
X5243763Y-12127207D02*
X5234240Y-12117683D01*
X5234240Y-12117683D02*
X5215192Y-12108159D01*
X5329478Y-12022445D02*
X5329478Y-12060540D01*
X5405668Y-12022445D02*
X5405668Y-12060540D01*
X5700906Y-12298636D02*
X5691382Y-12289112D01*
X5691382Y-12289112D02*
X5672335Y-12260540D01*
X5672335Y-12260540D02*
X5662811Y-12241493D01*
X5662811Y-12241493D02*
X5653287Y-12212921D01*
X5653287Y-12212921D02*
X5643763Y-12165302D01*
X5643763Y-12165302D02*
X5643763Y-12127207D01*
X5643763Y-12127207D02*
X5653287Y-12079588D01*
X5653287Y-12079588D02*
X5662811Y-12051017D01*
X5662811Y-12051017D02*
X5672335Y-12031969D01*
X5672335Y-12031969D02*
X5691382Y-12003398D01*
X5691382Y-12003398D02*
X5700906Y-11993874D01*
X5786621Y-12222445D02*
X5824716Y-12222445D01*
X5824716Y-12222445D02*
X5843763Y-12212921D01*
X5843763Y-12212921D02*
X5853287Y-12203398D01*
X5853287Y-12203398D02*
X5872335Y-12174826D01*
X5872335Y-12174826D02*
X5881859Y-12136731D01*
X5881859Y-12136731D02*
X5881859Y-12060540D01*
X5881859Y-12060540D02*
X5872335Y-12041493D01*
X5872335Y-12041493D02*
X5862811Y-12031969D01*
X5862811Y-12031969D02*
X5843763Y-12022445D01*
X5843763Y-12022445D02*
X5805668Y-12022445D01*
X5805668Y-12022445D02*
X5786621Y-12031969D01*
X5786621Y-12031969D02*
X5777097Y-12041493D01*
X5777097Y-12041493D02*
X5767573Y-12060540D01*
X5767573Y-12060540D02*
X5767573Y-12108159D01*
X5767573Y-12108159D02*
X5777097Y-12127207D01*
X5777097Y-12127207D02*
X5786621Y-12136731D01*
X5786621Y-12136731D02*
X5805668Y-12146255D01*
X5805668Y-12146255D02*
X5843763Y-12146255D01*
X5843763Y-12146255D02*
X5862811Y-12136731D01*
X5862811Y-12136731D02*
X5872335Y-12127207D01*
X5872335Y-12127207D02*
X5881859Y-12108159D01*
X6119954Y-12222445D02*
X6119954Y-12022445D01*
X6205668Y-12222445D02*
X6205668Y-12117683D01*
X6205668Y-12117683D02*
X6196144Y-12098636D01*
X6196144Y-12098636D02*
X6177097Y-12089112D01*
X6177097Y-12089112D02*
X6148525Y-12089112D01*
X6148525Y-12089112D02*
X6129478Y-12098636D01*
X6129478Y-12098636D02*
X6119954Y-12108159D01*
X6329478Y-12222445D02*
X6310430Y-12212921D01*
X6310430Y-12212921D02*
X6300906Y-12203398D01*
X6300906Y-12203398D02*
X6291383Y-12184350D01*
X6291383Y-12184350D02*
X6291383Y-12127207D01*
X6291383Y-12127207D02*
X6300906Y-12108159D01*
X6300906Y-12108159D02*
X6310430Y-12098636D01*
X6310430Y-12098636D02*
X6329478Y-12089112D01*
X6329478Y-12089112D02*
X6358049Y-12089112D01*
X6358049Y-12089112D02*
X6377097Y-12098636D01*
X6377097Y-12098636D02*
X6386621Y-12108159D01*
X6386621Y-12108159D02*
X6396144Y-12127207D01*
X6396144Y-12127207D02*
X6396144Y-12184350D01*
X6396144Y-12184350D02*
X6386621Y-12203398D01*
X6386621Y-12203398D02*
X6377097Y-12212921D01*
X6377097Y-12212921D02*
X6358049Y-12222445D01*
X6358049Y-12222445D02*
X6329478Y-12222445D01*
X6510430Y-12222445D02*
X6491383Y-12212921D01*
X6491383Y-12212921D02*
X6481859Y-12193874D01*
X6481859Y-12193874D02*
X6481859Y-12022445D01*
X6662811Y-12212921D02*
X6643764Y-12222445D01*
X6643764Y-12222445D02*
X6605668Y-12222445D01*
X6605668Y-12222445D02*
X6586621Y-12212921D01*
X6586621Y-12212921D02*
X6577097Y-12193874D01*
X6577097Y-12193874D02*
X6577097Y-12117683D01*
X6577097Y-12117683D02*
X6586621Y-12098636D01*
X6586621Y-12098636D02*
X6605668Y-12089112D01*
X6605668Y-12089112D02*
X6643764Y-12089112D01*
X6643764Y-12089112D02*
X6662811Y-12098636D01*
X6662811Y-12098636D02*
X6672335Y-12117683D01*
X6672335Y-12117683D02*
X6672335Y-12136731D01*
X6672335Y-12136731D02*
X6577097Y-12155779D01*
X6748525Y-12212921D02*
X6767573Y-12222445D01*
X6767573Y-12222445D02*
X6805668Y-12222445D01*
X6805668Y-12222445D02*
X6824716Y-12212921D01*
X6824716Y-12212921D02*
X6834240Y-12193874D01*
X6834240Y-12193874D02*
X6834240Y-12184350D01*
X6834240Y-12184350D02*
X6824716Y-12165302D01*
X6824716Y-12165302D02*
X6805668Y-12155779D01*
X6805668Y-12155779D02*
X6777097Y-12155779D01*
X6777097Y-12155779D02*
X6758049Y-12146255D01*
X6758049Y-12146255D02*
X6748525Y-12127207D01*
X6748525Y-12127207D02*
X6748525Y-12117683D01*
X6748525Y-12117683D02*
X6758049Y-12098636D01*
X6758049Y-12098636D02*
X6777097Y-12089112D01*
X6777097Y-12089112D02*
X6805668Y-12089112D01*
X6805668Y-12089112D02*
X6824716Y-12098636D01*
X6900906Y-12298636D02*
X6910430Y-12289112D01*
X6910430Y-12289112D02*
X6929478Y-12260540D01*
X6929478Y-12260540D02*
X6939002Y-12241493D01*
X6939002Y-12241493D02*
X6948525Y-12212921D01*
X6948525Y-12212921D02*
X6958049Y-12165302D01*
X6958049Y-12165302D02*
X6958049Y-12127207D01*
X6958049Y-12127207D02*
X6948525Y-12079588D01*
X6948525Y-12079588D02*
X6939002Y-12051017D01*
X6939002Y-12051017D02*
X6929478Y-12031969D01*
X6929478Y-12031969D02*
X6910430Y-12003398D01*
X6910430Y-12003398D02*
X6900906Y-11993874D01*
D13*
X2125844Y-12394961D02*
G75*
G02*
X2085843Y-12394961I-20000J0D01*
G01*
X2085843Y-12394961D02*
G75*
G02*
X2125844Y-12394961I20000J0D01*
G01*
D12*
X2424716Y-12286445D02*
X2443763Y-12286445D01*
X2443763Y-12286445D02*
X2462811Y-12295969D01*
X2462811Y-12295969D02*
X2472335Y-12305493D01*
X2472335Y-12305493D02*
X2481858Y-12324540D01*
X2481858Y-12324540D02*
X2491382Y-12362636D01*
X2491382Y-12362636D02*
X2491382Y-12410255D01*
X2491382Y-12410255D02*
X2481858Y-12448350D01*
X2481858Y-12448350D02*
X2472335Y-12467398D01*
X2472335Y-12467398D02*
X2462811Y-12476921D01*
X2462811Y-12476921D02*
X2443763Y-12486445D01*
X2443763Y-12486445D02*
X2424716Y-12486445D01*
X2424716Y-12486445D02*
X2405668Y-12476921D01*
X2405668Y-12476921D02*
X2396144Y-12467398D01*
X2396144Y-12467398D02*
X2386620Y-12448350D01*
X2386620Y-12448350D02*
X2377097Y-12410255D01*
X2377097Y-12410255D02*
X2377097Y-12362636D01*
X2377097Y-12362636D02*
X2386620Y-12324540D01*
X2386620Y-12324540D02*
X2396144Y-12305493D01*
X2396144Y-12305493D02*
X2405668Y-12295969D01*
X2405668Y-12295969D02*
X2424716Y-12286445D01*
X2577097Y-12467398D02*
X2586620Y-12476921D01*
X2586620Y-12476921D02*
X2577097Y-12486445D01*
X2577097Y-12486445D02*
X2567573Y-12476921D01*
X2567573Y-12476921D02*
X2577097Y-12467398D01*
X2577097Y-12467398D02*
X2577097Y-12486445D01*
X2758049Y-12353112D02*
X2758049Y-12486445D01*
X2710430Y-12276921D02*
X2662811Y-12419779D01*
X2662811Y-12419779D02*
X2786620Y-12419779D01*
X2900906Y-12286445D02*
X2919954Y-12286445D01*
X2919954Y-12286445D02*
X2939001Y-12295969D01*
X2939001Y-12295969D02*
X2948525Y-12305493D01*
X2948525Y-12305493D02*
X2958049Y-12324540D01*
X2958049Y-12324540D02*
X2967573Y-12362636D01*
X2967573Y-12362636D02*
X2967573Y-12410255D01*
X2967573Y-12410255D02*
X2958049Y-12448350D01*
X2958049Y-12448350D02*
X2948525Y-12467398D01*
X2948525Y-12467398D02*
X2939001Y-12476921D01*
X2939001Y-12476921D02*
X2919954Y-12486445D01*
X2919954Y-12486445D02*
X2900906Y-12486445D01*
X2900906Y-12486445D02*
X2881858Y-12476921D01*
X2881858Y-12476921D02*
X2872335Y-12467398D01*
X2872335Y-12467398D02*
X2862811Y-12448350D01*
X2862811Y-12448350D02*
X2853287Y-12410255D01*
X2853287Y-12410255D02*
X2853287Y-12362636D01*
X2853287Y-12362636D02*
X2862811Y-12324540D01*
X2862811Y-12324540D02*
X2872335Y-12305493D01*
X2872335Y-12305493D02*
X2881858Y-12295969D01*
X2881858Y-12295969D02*
X2900906Y-12286445D01*
X3091382Y-12286445D02*
X3110430Y-12286445D01*
X3110430Y-12286445D02*
X3129477Y-12295969D01*
X3129477Y-12295969D02*
X3139001Y-12305493D01*
X3139001Y-12305493D02*
X3148525Y-12324540D01*
X3148525Y-12324540D02*
X3158049Y-12362636D01*
X3158049Y-12362636D02*
X3158049Y-12410255D01*
X3158049Y-12410255D02*
X3148525Y-12448350D01*
X3148525Y-12448350D02*
X3139001Y-12467398D01*
X3139001Y-12467398D02*
X3129477Y-12476921D01*
X3129477Y-12476921D02*
X3110430Y-12486445D01*
X3110430Y-12486445D02*
X3091382Y-12486445D01*
X3091382Y-12486445D02*
X3072335Y-12476921D01*
X3072335Y-12476921D02*
X3062811Y-12467398D01*
X3062811Y-12467398D02*
X3053287Y-12448350D01*
X3053287Y-12448350D02*
X3043763Y-12410255D01*
X3043763Y-12410255D02*
X3043763Y-12362636D01*
X3043763Y-12362636D02*
X3053287Y-12324540D01*
X3053287Y-12324540D02*
X3062811Y-12305493D01*
X3062811Y-12305493D02*
X3072335Y-12295969D01*
X3072335Y-12295969D02*
X3091382Y-12286445D01*
X3243763Y-12486445D02*
X3243763Y-12353112D01*
X3243763Y-12372159D02*
X3253287Y-12362636D01*
X3253287Y-12362636D02*
X3272335Y-12353112D01*
X3272335Y-12353112D02*
X3300906Y-12353112D01*
X3300906Y-12353112D02*
X3319954Y-12362636D01*
X3319954Y-12362636D02*
X3329477Y-12381683D01*
X3329477Y-12381683D02*
X3329477Y-12486445D01*
X3329477Y-12381683D02*
X3339001Y-12362636D01*
X3339001Y-12362636D02*
X3358049Y-12353112D01*
X3358049Y-12353112D02*
X3386620Y-12353112D01*
X3386620Y-12353112D02*
X3405668Y-12362636D01*
X3405668Y-12362636D02*
X3415192Y-12381683D01*
X3415192Y-12381683D02*
X3415192Y-12486445D01*
X3510430Y-12486445D02*
X3510430Y-12353112D01*
X3510430Y-12372159D02*
X3519954Y-12362636D01*
X3519954Y-12362636D02*
X3539001Y-12353112D01*
X3539001Y-12353112D02*
X3567573Y-12353112D01*
X3567573Y-12353112D02*
X3586620Y-12362636D01*
X3586620Y-12362636D02*
X3596144Y-12381683D01*
X3596144Y-12381683D02*
X3596144Y-12486445D01*
X3596144Y-12381683D02*
X3605668Y-12362636D01*
X3605668Y-12362636D02*
X3624716Y-12353112D01*
X3624716Y-12353112D02*
X3653287Y-12353112D01*
X3653287Y-12353112D02*
X3672335Y-12362636D01*
X3672335Y-12362636D02*
X3681858Y-12381683D01*
X3681858Y-12381683D02*
X3681858Y-12486445D01*
X4072335Y-12276921D02*
X3900906Y-12534064D01*
X4329478Y-12286445D02*
X4348525Y-12286445D01*
X4348525Y-12286445D02*
X4367573Y-12295969D01*
X4367573Y-12295969D02*
X4377097Y-12305493D01*
X4377097Y-12305493D02*
X4386621Y-12324540D01*
X4386621Y-12324540D02*
X4396144Y-12362636D01*
X4396144Y-12362636D02*
X4396144Y-12410255D01*
X4396144Y-12410255D02*
X4386621Y-12448350D01*
X4386621Y-12448350D02*
X4377097Y-12467398D01*
X4377097Y-12467398D02*
X4367573Y-12476921D01*
X4367573Y-12476921D02*
X4348525Y-12486445D01*
X4348525Y-12486445D02*
X4329478Y-12486445D01*
X4329478Y-12486445D02*
X4310430Y-12476921D01*
X4310430Y-12476921D02*
X4300906Y-12467398D01*
X4300906Y-12467398D02*
X4291382Y-12448350D01*
X4291382Y-12448350D02*
X4281859Y-12410255D01*
X4281859Y-12410255D02*
X4281859Y-12362636D01*
X4281859Y-12362636D02*
X4291382Y-12324540D01*
X4291382Y-12324540D02*
X4300906Y-12305493D01*
X4300906Y-12305493D02*
X4310430Y-12295969D01*
X4310430Y-12295969D02*
X4329478Y-12286445D01*
X4481859Y-12467398D02*
X4491382Y-12476921D01*
X4491382Y-12476921D02*
X4481859Y-12486445D01*
X4481859Y-12486445D02*
X4472335Y-12476921D01*
X4472335Y-12476921D02*
X4481859Y-12467398D01*
X4481859Y-12467398D02*
X4481859Y-12486445D01*
X4615192Y-12286445D02*
X4634240Y-12286445D01*
X4634240Y-12286445D02*
X4653287Y-12295969D01*
X4653287Y-12295969D02*
X4662811Y-12305493D01*
X4662811Y-12305493D02*
X4672335Y-12324540D01*
X4672335Y-12324540D02*
X4681859Y-12362636D01*
X4681859Y-12362636D02*
X4681859Y-12410255D01*
X4681859Y-12410255D02*
X4672335Y-12448350D01*
X4672335Y-12448350D02*
X4662811Y-12467398D01*
X4662811Y-12467398D02*
X4653287Y-12476921D01*
X4653287Y-12476921D02*
X4634240Y-12486445D01*
X4634240Y-12486445D02*
X4615192Y-12486445D01*
X4615192Y-12486445D02*
X4596144Y-12476921D01*
X4596144Y-12476921D02*
X4586621Y-12467398D01*
X4586621Y-12467398D02*
X4577097Y-12448350D01*
X4577097Y-12448350D02*
X4567573Y-12410255D01*
X4567573Y-12410255D02*
X4567573Y-12362636D01*
X4567573Y-12362636D02*
X4577097Y-12324540D01*
X4577097Y-12324540D02*
X4586621Y-12305493D01*
X4586621Y-12305493D02*
X4596144Y-12295969D01*
X4596144Y-12295969D02*
X4615192Y-12286445D01*
X4872335Y-12486445D02*
X4758049Y-12486445D01*
X4815192Y-12486445D02*
X4815192Y-12286445D01*
X4815192Y-12286445D02*
X4796144Y-12315017D01*
X4796144Y-12315017D02*
X4777097Y-12334064D01*
X4777097Y-12334064D02*
X4758049Y-12343588D01*
X5053287Y-12286445D02*
X4958049Y-12286445D01*
X4958049Y-12286445D02*
X4948525Y-12381683D01*
X4948525Y-12381683D02*
X4958049Y-12372159D01*
X4958049Y-12372159D02*
X4977097Y-12362636D01*
X4977097Y-12362636D02*
X5024716Y-12362636D01*
X5024716Y-12362636D02*
X5043763Y-12372159D01*
X5043763Y-12372159D02*
X5053287Y-12381683D01*
X5053287Y-12381683D02*
X5062811Y-12400731D01*
X5062811Y-12400731D02*
X5062811Y-12448350D01*
X5062811Y-12448350D02*
X5053287Y-12467398D01*
X5053287Y-12467398D02*
X5043763Y-12476921D01*
X5043763Y-12476921D02*
X5024716Y-12486445D01*
X5024716Y-12486445D02*
X4977097Y-12486445D01*
X4977097Y-12486445D02*
X4958049Y-12476921D01*
X4958049Y-12476921D02*
X4948525Y-12467398D01*
X5129478Y-12286445D02*
X5262811Y-12286445D01*
X5262811Y-12286445D02*
X5177097Y-12486445D01*
X5329478Y-12286445D02*
X5329478Y-12324540D01*
X5405668Y-12286445D02*
X5405668Y-12324540D01*
X5700906Y-12562636D02*
X5691382Y-12553112D01*
X5691382Y-12553112D02*
X5672335Y-12524540D01*
X5672335Y-12524540D02*
X5662811Y-12505493D01*
X5662811Y-12505493D02*
X5653287Y-12476921D01*
X5653287Y-12476921D02*
X5643763Y-12429302D01*
X5643763Y-12429302D02*
X5643763Y-12391207D01*
X5643763Y-12391207D02*
X5653287Y-12343588D01*
X5653287Y-12343588D02*
X5662811Y-12315017D01*
X5662811Y-12315017D02*
X5672335Y-12295969D01*
X5672335Y-12295969D02*
X5691382Y-12267398D01*
X5691382Y-12267398D02*
X5700906Y-12257874D01*
X5767573Y-12305493D02*
X5777097Y-12295969D01*
X5777097Y-12295969D02*
X5796144Y-12286445D01*
X5796144Y-12286445D02*
X5843763Y-12286445D01*
X5843763Y-12286445D02*
X5862811Y-12295969D01*
X5862811Y-12295969D02*
X5872335Y-12305493D01*
X5872335Y-12305493D02*
X5881859Y-12324540D01*
X5881859Y-12324540D02*
X5881859Y-12343588D01*
X5881859Y-12343588D02*
X5872335Y-12372159D01*
X5872335Y-12372159D02*
X5758049Y-12486445D01*
X5758049Y-12486445D02*
X5881859Y-12486445D01*
X6072335Y-12486445D02*
X5958049Y-12486445D01*
X6015192Y-12486445D02*
X6015192Y-12286445D01*
X6015192Y-12286445D02*
X5996144Y-12315017D01*
X5996144Y-12315017D02*
X5977097Y-12334064D01*
X5977097Y-12334064D02*
X5958049Y-12343588D01*
X6139002Y-12286445D02*
X6272335Y-12286445D01*
X6272335Y-12286445D02*
X6186621Y-12486445D01*
X6500906Y-12486445D02*
X6500906Y-12286445D01*
X6586621Y-12486445D02*
X6586621Y-12381683D01*
X6586621Y-12381683D02*
X6577097Y-12362636D01*
X6577097Y-12362636D02*
X6558049Y-12353112D01*
X6558049Y-12353112D02*
X6529478Y-12353112D01*
X6529478Y-12353112D02*
X6510430Y-12362636D01*
X6510430Y-12362636D02*
X6500906Y-12372159D01*
X6710430Y-12486445D02*
X6691383Y-12476921D01*
X6691383Y-12476921D02*
X6681859Y-12467398D01*
X6681859Y-12467398D02*
X6672335Y-12448350D01*
X6672335Y-12448350D02*
X6672335Y-12391207D01*
X6672335Y-12391207D02*
X6681859Y-12372159D01*
X6681859Y-12372159D02*
X6691383Y-12362636D01*
X6691383Y-12362636D02*
X6710430Y-12353112D01*
X6710430Y-12353112D02*
X6739002Y-12353112D01*
X6739002Y-12353112D02*
X6758049Y-12362636D01*
X6758049Y-12362636D02*
X6767573Y-12372159D01*
X6767573Y-12372159D02*
X6777097Y-12391207D01*
X6777097Y-12391207D02*
X6777097Y-12448350D01*
X6777097Y-12448350D02*
X6767573Y-12467398D01*
X6767573Y-12467398D02*
X6758049Y-12476921D01*
X6758049Y-12476921D02*
X6739002Y-12486445D01*
X6739002Y-12486445D02*
X6710430Y-12486445D01*
X6891383Y-12486445D02*
X6872335Y-12476921D01*
X6872335Y-12476921D02*
X6862811Y-12457874D01*
X6862811Y-12457874D02*
X6862811Y-12286445D01*
X7043764Y-12476921D02*
X7024716Y-12486445D01*
X7024716Y-12486445D02*
X6986621Y-12486445D01*
X6986621Y-12486445D02*
X6967573Y-12476921D01*
X6967573Y-12476921D02*
X6958049Y-12457874D01*
X6958049Y-12457874D02*
X6958049Y-12381683D01*
X6958049Y-12381683D02*
X6967573Y-12362636D01*
X6967573Y-12362636D02*
X6986621Y-12353112D01*
X6986621Y-12353112D02*
X7024716Y-12353112D01*
X7024716Y-12353112D02*
X7043764Y-12362636D01*
X7043764Y-12362636D02*
X7053287Y-12381683D01*
X7053287Y-12381683D02*
X7053287Y-12400731D01*
X7053287Y-12400731D02*
X6958049Y-12419779D01*
X7129478Y-12476921D02*
X7148525Y-12486445D01*
X7148525Y-12486445D02*
X7186621Y-12486445D01*
X7186621Y-12486445D02*
X7205668Y-12476921D01*
X7205668Y-12476921D02*
X7215192Y-12457874D01*
X7215192Y-12457874D02*
X7215192Y-12448350D01*
X7215192Y-12448350D02*
X7205668Y-12429302D01*
X7205668Y-12429302D02*
X7186621Y-12419779D01*
X7186621Y-12419779D02*
X7158049Y-12419779D01*
X7158049Y-12419779D02*
X7139002Y-12410255D01*
X7139002Y-12410255D02*
X7129478Y-12391207D01*
X7129478Y-12391207D02*
X7129478Y-12381683D01*
X7129478Y-12381683D02*
X7139002Y-12362636D01*
X7139002Y-12362636D02*
X7158049Y-12353112D01*
X7158049Y-12353112D02*
X7186621Y-12353112D01*
X7186621Y-12353112D02*
X7205668Y-12362636D01*
X7281859Y-12562636D02*
X7291383Y-12553112D01*
X7291383Y-12553112D02*
X7310430Y-12524540D01*
X7310430Y-12524540D02*
X7319954Y-12505493D01*
X7319954Y-12505493D02*
X7329478Y-12476921D01*
X7329478Y-12476921D02*
X7339002Y-12429302D01*
X7339002Y-12429302D02*
X7339002Y-12391207D01*
X7339002Y-12391207D02*
X7329478Y-12343588D01*
X7329478Y-12343588D02*
X7319954Y-12315017D01*
X7319954Y-12315017D02*
X7310430Y-12295969D01*
X7310430Y-12295969D02*
X7291383Y-12267398D01*
X7291383Y-12267398D02*
X7281859Y-12257874D01*
D13*
X2100844Y-12633961D02*
X2100844Y-12683961D01*
X2075843Y-12658961D02*
X2125844Y-12658961D01*
D12*
X2424716Y-12550445D02*
X2443763Y-12550445D01*
X2443763Y-12550445D02*
X2462811Y-12559969D01*
X2462811Y-12559969D02*
X2472335Y-12569493D01*
X2472335Y-12569493D02*
X2481858Y-12588540D01*
X2481858Y-12588540D02*
X2491382Y-12626636D01*
X2491382Y-12626636D02*
X2491382Y-12674255D01*
X2491382Y-12674255D02*
X2481858Y-12712350D01*
X2481858Y-12712350D02*
X2472335Y-12731398D01*
X2472335Y-12731398D02*
X2462811Y-12740921D01*
X2462811Y-12740921D02*
X2443763Y-12750445D01*
X2443763Y-12750445D02*
X2424716Y-12750445D01*
X2424716Y-12750445D02*
X2405668Y-12740921D01*
X2405668Y-12740921D02*
X2396144Y-12731398D01*
X2396144Y-12731398D02*
X2386620Y-12712350D01*
X2386620Y-12712350D02*
X2377097Y-12674255D01*
X2377097Y-12674255D02*
X2377097Y-12626636D01*
X2377097Y-12626636D02*
X2386620Y-12588540D01*
X2386620Y-12588540D02*
X2396144Y-12569493D01*
X2396144Y-12569493D02*
X2405668Y-12559969D01*
X2405668Y-12559969D02*
X2424716Y-12550445D01*
X2577097Y-12731398D02*
X2586620Y-12740921D01*
X2586620Y-12740921D02*
X2577097Y-12750445D01*
X2577097Y-12750445D02*
X2567573Y-12740921D01*
X2567573Y-12740921D02*
X2577097Y-12731398D01*
X2577097Y-12731398D02*
X2577097Y-12750445D01*
X2767573Y-12550445D02*
X2672335Y-12550445D01*
X2672335Y-12550445D02*
X2662811Y-12645683D01*
X2662811Y-12645683D02*
X2672335Y-12636159D01*
X2672335Y-12636159D02*
X2691382Y-12626636D01*
X2691382Y-12626636D02*
X2739001Y-12626636D01*
X2739001Y-12626636D02*
X2758049Y-12636159D01*
X2758049Y-12636159D02*
X2767573Y-12645683D01*
X2767573Y-12645683D02*
X2777097Y-12664731D01*
X2777097Y-12664731D02*
X2777097Y-12712350D01*
X2777097Y-12712350D02*
X2767573Y-12731398D01*
X2767573Y-12731398D02*
X2758049Y-12740921D01*
X2758049Y-12740921D02*
X2739001Y-12750445D01*
X2739001Y-12750445D02*
X2691382Y-12750445D01*
X2691382Y-12750445D02*
X2672335Y-12740921D01*
X2672335Y-12740921D02*
X2662811Y-12731398D01*
X2900906Y-12550445D02*
X2919954Y-12550445D01*
X2919954Y-12550445D02*
X2939001Y-12559969D01*
X2939001Y-12559969D02*
X2948525Y-12569493D01*
X2948525Y-12569493D02*
X2958049Y-12588540D01*
X2958049Y-12588540D02*
X2967573Y-12626636D01*
X2967573Y-12626636D02*
X2967573Y-12674255D01*
X2967573Y-12674255D02*
X2958049Y-12712350D01*
X2958049Y-12712350D02*
X2948525Y-12731398D01*
X2948525Y-12731398D02*
X2939001Y-12740921D01*
X2939001Y-12740921D02*
X2919954Y-12750445D01*
X2919954Y-12750445D02*
X2900906Y-12750445D01*
X2900906Y-12750445D02*
X2881858Y-12740921D01*
X2881858Y-12740921D02*
X2872335Y-12731398D01*
X2872335Y-12731398D02*
X2862811Y-12712350D01*
X2862811Y-12712350D02*
X2853287Y-12674255D01*
X2853287Y-12674255D02*
X2853287Y-12626636D01*
X2853287Y-12626636D02*
X2862811Y-12588540D01*
X2862811Y-12588540D02*
X2872335Y-12569493D01*
X2872335Y-12569493D02*
X2881858Y-12559969D01*
X2881858Y-12559969D02*
X2900906Y-12550445D01*
X3091382Y-12550445D02*
X3110430Y-12550445D01*
X3110430Y-12550445D02*
X3129477Y-12559969D01*
X3129477Y-12559969D02*
X3139001Y-12569493D01*
X3139001Y-12569493D02*
X3148525Y-12588540D01*
X3148525Y-12588540D02*
X3158049Y-12626636D01*
X3158049Y-12626636D02*
X3158049Y-12674255D01*
X3158049Y-12674255D02*
X3148525Y-12712350D01*
X3148525Y-12712350D02*
X3139001Y-12731398D01*
X3139001Y-12731398D02*
X3129477Y-12740921D01*
X3129477Y-12740921D02*
X3110430Y-12750445D01*
X3110430Y-12750445D02*
X3091382Y-12750445D01*
X3091382Y-12750445D02*
X3072335Y-12740921D01*
X3072335Y-12740921D02*
X3062811Y-12731398D01*
X3062811Y-12731398D02*
X3053287Y-12712350D01*
X3053287Y-12712350D02*
X3043763Y-12674255D01*
X3043763Y-12674255D02*
X3043763Y-12626636D01*
X3043763Y-12626636D02*
X3053287Y-12588540D01*
X3053287Y-12588540D02*
X3062811Y-12569493D01*
X3062811Y-12569493D02*
X3072335Y-12559969D01*
X3072335Y-12559969D02*
X3091382Y-12550445D01*
X3243763Y-12750445D02*
X3243763Y-12617112D01*
X3243763Y-12636159D02*
X3253287Y-12626636D01*
X3253287Y-12626636D02*
X3272335Y-12617112D01*
X3272335Y-12617112D02*
X3300906Y-12617112D01*
X3300906Y-12617112D02*
X3319954Y-12626636D01*
X3319954Y-12626636D02*
X3329477Y-12645683D01*
X3329477Y-12645683D02*
X3329477Y-12750445D01*
X3329477Y-12645683D02*
X3339001Y-12626636D01*
X3339001Y-12626636D02*
X3358049Y-12617112D01*
X3358049Y-12617112D02*
X3386620Y-12617112D01*
X3386620Y-12617112D02*
X3405668Y-12626636D01*
X3405668Y-12626636D02*
X3415192Y-12645683D01*
X3415192Y-12645683D02*
X3415192Y-12750445D01*
X3510430Y-12750445D02*
X3510430Y-12617112D01*
X3510430Y-12636159D02*
X3519954Y-12626636D01*
X3519954Y-12626636D02*
X3539001Y-12617112D01*
X3539001Y-12617112D02*
X3567573Y-12617112D01*
X3567573Y-12617112D02*
X3586620Y-12626636D01*
X3586620Y-12626636D02*
X3596144Y-12645683D01*
X3596144Y-12645683D02*
X3596144Y-12750445D01*
X3596144Y-12645683D02*
X3605668Y-12626636D01*
X3605668Y-12626636D02*
X3624716Y-12617112D01*
X3624716Y-12617112D02*
X3653287Y-12617112D01*
X3653287Y-12617112D02*
X3672335Y-12626636D01*
X3672335Y-12626636D02*
X3681858Y-12645683D01*
X3681858Y-12645683D02*
X3681858Y-12750445D01*
X4072335Y-12540921D02*
X3900906Y-12798064D01*
X4329478Y-12550445D02*
X4348525Y-12550445D01*
X4348525Y-12550445D02*
X4367573Y-12559969D01*
X4367573Y-12559969D02*
X4377097Y-12569493D01*
X4377097Y-12569493D02*
X4386621Y-12588540D01*
X4386621Y-12588540D02*
X4396144Y-12626636D01*
X4396144Y-12626636D02*
X4396144Y-12674255D01*
X4396144Y-12674255D02*
X4386621Y-12712350D01*
X4386621Y-12712350D02*
X4377097Y-12731398D01*
X4377097Y-12731398D02*
X4367573Y-12740921D01*
X4367573Y-12740921D02*
X4348525Y-12750445D01*
X4348525Y-12750445D02*
X4329478Y-12750445D01*
X4329478Y-12750445D02*
X4310430Y-12740921D01*
X4310430Y-12740921D02*
X4300906Y-12731398D01*
X4300906Y-12731398D02*
X4291382Y-12712350D01*
X4291382Y-12712350D02*
X4281859Y-12674255D01*
X4281859Y-12674255D02*
X4281859Y-12626636D01*
X4281859Y-12626636D02*
X4291382Y-12588540D01*
X4291382Y-12588540D02*
X4300906Y-12569493D01*
X4300906Y-12569493D02*
X4310430Y-12559969D01*
X4310430Y-12559969D02*
X4329478Y-12550445D01*
X4481859Y-12731398D02*
X4491382Y-12740921D01*
X4491382Y-12740921D02*
X4481859Y-12750445D01*
X4481859Y-12750445D02*
X4472335Y-12740921D01*
X4472335Y-12740921D02*
X4481859Y-12731398D01*
X4481859Y-12731398D02*
X4481859Y-12750445D01*
X4615192Y-12550445D02*
X4634240Y-12550445D01*
X4634240Y-12550445D02*
X4653287Y-12559969D01*
X4653287Y-12559969D02*
X4662811Y-12569493D01*
X4662811Y-12569493D02*
X4672335Y-12588540D01*
X4672335Y-12588540D02*
X4681859Y-12626636D01*
X4681859Y-12626636D02*
X4681859Y-12674255D01*
X4681859Y-12674255D02*
X4672335Y-12712350D01*
X4672335Y-12712350D02*
X4662811Y-12731398D01*
X4662811Y-12731398D02*
X4653287Y-12740921D01*
X4653287Y-12740921D02*
X4634240Y-12750445D01*
X4634240Y-12750445D02*
X4615192Y-12750445D01*
X4615192Y-12750445D02*
X4596144Y-12740921D01*
X4596144Y-12740921D02*
X4586621Y-12731398D01*
X4586621Y-12731398D02*
X4577097Y-12712350D01*
X4577097Y-12712350D02*
X4567573Y-12674255D01*
X4567573Y-12674255D02*
X4567573Y-12626636D01*
X4567573Y-12626636D02*
X4577097Y-12588540D01*
X4577097Y-12588540D02*
X4586621Y-12569493D01*
X4586621Y-12569493D02*
X4596144Y-12559969D01*
X4596144Y-12559969D02*
X4615192Y-12550445D01*
X4872335Y-12750445D02*
X4758049Y-12750445D01*
X4815192Y-12750445D02*
X4815192Y-12550445D01*
X4815192Y-12550445D02*
X4796144Y-12579017D01*
X4796144Y-12579017D02*
X4777097Y-12598064D01*
X4777097Y-12598064D02*
X4758049Y-12607588D01*
X4967573Y-12750445D02*
X5005668Y-12750445D01*
X5005668Y-12750445D02*
X5024716Y-12740921D01*
X5024716Y-12740921D02*
X5034240Y-12731398D01*
X5034240Y-12731398D02*
X5053287Y-12702826D01*
X5053287Y-12702826D02*
X5062811Y-12664731D01*
X5062811Y-12664731D02*
X5062811Y-12588540D01*
X5062811Y-12588540D02*
X5053287Y-12569493D01*
X5053287Y-12569493D02*
X5043763Y-12559969D01*
X5043763Y-12559969D02*
X5024716Y-12550445D01*
X5024716Y-12550445D02*
X4986621Y-12550445D01*
X4986621Y-12550445D02*
X4967573Y-12559969D01*
X4967573Y-12559969D02*
X4958049Y-12569493D01*
X4958049Y-12569493D02*
X4948525Y-12588540D01*
X4948525Y-12588540D02*
X4948525Y-12636159D01*
X4948525Y-12636159D02*
X4958049Y-12655207D01*
X4958049Y-12655207D02*
X4967573Y-12664731D01*
X4967573Y-12664731D02*
X4986621Y-12674255D01*
X4986621Y-12674255D02*
X5024716Y-12674255D01*
X5024716Y-12674255D02*
X5043763Y-12664731D01*
X5043763Y-12664731D02*
X5053287Y-12655207D01*
X5053287Y-12655207D02*
X5062811Y-12636159D01*
X5129478Y-12550445D02*
X5262811Y-12550445D01*
X5262811Y-12550445D02*
X5177097Y-12750445D01*
X5329478Y-12550445D02*
X5329478Y-12588540D01*
X5405668Y-12550445D02*
X5405668Y-12588540D01*
X5700906Y-12826636D02*
X5691382Y-12817112D01*
X5691382Y-12817112D02*
X5672335Y-12788540D01*
X5672335Y-12788540D02*
X5662811Y-12769493D01*
X5662811Y-12769493D02*
X5653287Y-12740921D01*
X5653287Y-12740921D02*
X5643763Y-12693302D01*
X5643763Y-12693302D02*
X5643763Y-12655207D01*
X5643763Y-12655207D02*
X5653287Y-12607588D01*
X5653287Y-12607588D02*
X5662811Y-12579017D01*
X5662811Y-12579017D02*
X5672335Y-12559969D01*
X5672335Y-12559969D02*
X5691382Y-12531398D01*
X5691382Y-12531398D02*
X5700906Y-12521874D01*
X5881859Y-12750445D02*
X5767573Y-12750445D01*
X5824716Y-12750445D02*
X5824716Y-12550445D01*
X5824716Y-12550445D02*
X5805668Y-12579017D01*
X5805668Y-12579017D02*
X5786621Y-12598064D01*
X5786621Y-12598064D02*
X5767573Y-12607588D01*
X6005668Y-12550445D02*
X6024716Y-12550445D01*
X6024716Y-12550445D02*
X6043763Y-12559969D01*
X6043763Y-12559969D02*
X6053287Y-12569493D01*
X6053287Y-12569493D02*
X6062811Y-12588540D01*
X6062811Y-12588540D02*
X6072335Y-12626636D01*
X6072335Y-12626636D02*
X6072335Y-12674255D01*
X6072335Y-12674255D02*
X6062811Y-12712350D01*
X6062811Y-12712350D02*
X6053287Y-12731398D01*
X6053287Y-12731398D02*
X6043763Y-12740921D01*
X6043763Y-12740921D02*
X6024716Y-12750445D01*
X6024716Y-12750445D02*
X6005668Y-12750445D01*
X6005668Y-12750445D02*
X5986621Y-12740921D01*
X5986621Y-12740921D02*
X5977097Y-12731398D01*
X5977097Y-12731398D02*
X5967573Y-12712350D01*
X5967573Y-12712350D02*
X5958049Y-12674255D01*
X5958049Y-12674255D02*
X5958049Y-12626636D01*
X5958049Y-12626636D02*
X5967573Y-12588540D01*
X5967573Y-12588540D02*
X5977097Y-12569493D01*
X5977097Y-12569493D02*
X5986621Y-12559969D01*
X5986621Y-12559969D02*
X6005668Y-12550445D01*
X6310430Y-12750445D02*
X6310430Y-12550445D01*
X6396144Y-12750445D02*
X6396144Y-12645683D01*
X6396144Y-12645683D02*
X6386621Y-12626636D01*
X6386621Y-12626636D02*
X6367573Y-12617112D01*
X6367573Y-12617112D02*
X6339002Y-12617112D01*
X6339002Y-12617112D02*
X6319954Y-12626636D01*
X6319954Y-12626636D02*
X6310430Y-12636159D01*
X6519954Y-12750445D02*
X6500906Y-12740921D01*
X6500906Y-12740921D02*
X6491383Y-12731398D01*
X6491383Y-12731398D02*
X6481859Y-12712350D01*
X6481859Y-12712350D02*
X6481859Y-12655207D01*
X6481859Y-12655207D02*
X6491383Y-12636159D01*
X6491383Y-12636159D02*
X6500906Y-12626636D01*
X6500906Y-12626636D02*
X6519954Y-12617112D01*
X6519954Y-12617112D02*
X6548525Y-12617112D01*
X6548525Y-12617112D02*
X6567573Y-12626636D01*
X6567573Y-12626636D02*
X6577097Y-12636159D01*
X6577097Y-12636159D02*
X6586621Y-12655207D01*
X6586621Y-12655207D02*
X6586621Y-12712350D01*
X6586621Y-12712350D02*
X6577097Y-12731398D01*
X6577097Y-12731398D02*
X6567573Y-12740921D01*
X6567573Y-12740921D02*
X6548525Y-12750445D01*
X6548525Y-12750445D02*
X6519954Y-12750445D01*
X6700906Y-12750445D02*
X6681859Y-12740921D01*
X6681859Y-12740921D02*
X6672335Y-12721874D01*
X6672335Y-12721874D02*
X6672335Y-12550445D01*
X6853287Y-12740921D02*
X6834240Y-12750445D01*
X6834240Y-12750445D02*
X6796144Y-12750445D01*
X6796144Y-12750445D02*
X6777097Y-12740921D01*
X6777097Y-12740921D02*
X6767573Y-12721874D01*
X6767573Y-12721874D02*
X6767573Y-12645683D01*
X6767573Y-12645683D02*
X6777097Y-12626636D01*
X6777097Y-12626636D02*
X6796144Y-12617112D01*
X6796144Y-12617112D02*
X6834240Y-12617112D01*
X6834240Y-12617112D02*
X6853287Y-12626636D01*
X6853287Y-12626636D02*
X6862811Y-12645683D01*
X6862811Y-12645683D02*
X6862811Y-12664731D01*
X6862811Y-12664731D02*
X6767573Y-12683779D01*
X6939002Y-12740921D02*
X6958049Y-12750445D01*
X6958049Y-12750445D02*
X6996144Y-12750445D01*
X6996144Y-12750445D02*
X7015192Y-12740921D01*
X7015192Y-12740921D02*
X7024716Y-12721874D01*
X7024716Y-12721874D02*
X7024716Y-12712350D01*
X7024716Y-12712350D02*
X7015192Y-12693302D01*
X7015192Y-12693302D02*
X6996144Y-12683779D01*
X6996144Y-12683779D02*
X6967573Y-12683779D01*
X6967573Y-12683779D02*
X6948525Y-12674255D01*
X6948525Y-12674255D02*
X6939002Y-12655207D01*
X6939002Y-12655207D02*
X6939002Y-12645683D01*
X6939002Y-12645683D02*
X6948525Y-12626636D01*
X6948525Y-12626636D02*
X6967573Y-12617112D01*
X6967573Y-12617112D02*
X6996144Y-12617112D01*
X6996144Y-12617112D02*
X7015192Y-12626636D01*
X7091383Y-12826636D02*
X7100906Y-12817112D01*
X7100906Y-12817112D02*
X7119954Y-12788540D01*
X7119954Y-12788540D02*
X7129478Y-12769493D01*
X7129478Y-12769493D02*
X7139002Y-12740921D01*
X7139002Y-12740921D02*
X7148525Y-12693302D01*
X7148525Y-12693302D02*
X7148525Y-12655207D01*
X7148525Y-12655207D02*
X7139002Y-12607588D01*
X7139002Y-12607588D02*
X7129478Y-12579017D01*
X7129478Y-12579017D02*
X7119954Y-12559969D01*
X7119954Y-12559969D02*
X7100906Y-12531398D01*
X7100906Y-12531398D02*
X7091383Y-12521874D01*
D13*
X2117057Y-12944175D02*
X2117057Y-12901748D01*
X2074630Y-12901748D01*
X2074630Y-12944175D01*
X2117057Y-12944175D01*
D12*
X2424716Y-12814445D02*
X2443763Y-12814445D01*
X2443763Y-12814445D02*
X2462811Y-12823969D01*
X2462811Y-12823969D02*
X2472335Y-12833493D01*
X2472335Y-12833493D02*
X2481858Y-12852540D01*
X2481858Y-12852540D02*
X2491382Y-12890636D01*
X2491382Y-12890636D02*
X2491382Y-12938255D01*
X2491382Y-12938255D02*
X2481858Y-12976350D01*
X2481858Y-12976350D02*
X2472335Y-12995398D01*
X2472335Y-12995398D02*
X2462811Y-13004921D01*
X2462811Y-13004921D02*
X2443763Y-13014445D01*
X2443763Y-13014445D02*
X2424716Y-13014445D01*
X2424716Y-13014445D02*
X2405668Y-13004921D01*
X2405668Y-13004921D02*
X2396144Y-12995398D01*
X2396144Y-12995398D02*
X2386620Y-12976350D01*
X2386620Y-12976350D02*
X2377097Y-12938255D01*
X2377097Y-12938255D02*
X2377097Y-12890636D01*
X2377097Y-12890636D02*
X2386620Y-12852540D01*
X2386620Y-12852540D02*
X2396144Y-12833493D01*
X2396144Y-12833493D02*
X2405668Y-12823969D01*
X2405668Y-12823969D02*
X2424716Y-12814445D01*
X2577097Y-12995398D02*
X2586620Y-13004921D01*
X2586620Y-13004921D02*
X2577097Y-13014445D01*
X2577097Y-13014445D02*
X2567573Y-13004921D01*
X2567573Y-13004921D02*
X2577097Y-12995398D01*
X2577097Y-12995398D02*
X2577097Y-13014445D01*
X2758049Y-12814445D02*
X2719954Y-12814445D01*
X2719954Y-12814445D02*
X2700906Y-12823969D01*
X2700906Y-12823969D02*
X2691382Y-12833493D01*
X2691382Y-12833493D02*
X2672335Y-12862064D01*
X2672335Y-12862064D02*
X2662811Y-12900159D01*
X2662811Y-12900159D02*
X2662811Y-12976350D01*
X2662811Y-12976350D02*
X2672335Y-12995398D01*
X2672335Y-12995398D02*
X2681858Y-13004921D01*
X2681858Y-13004921D02*
X2700906Y-13014445D01*
X2700906Y-13014445D02*
X2739001Y-13014445D01*
X2739001Y-13014445D02*
X2758049Y-13004921D01*
X2758049Y-13004921D02*
X2767573Y-12995398D01*
X2767573Y-12995398D02*
X2777097Y-12976350D01*
X2777097Y-12976350D02*
X2777097Y-12928731D01*
X2777097Y-12928731D02*
X2767573Y-12909683D01*
X2767573Y-12909683D02*
X2758049Y-12900159D01*
X2758049Y-12900159D02*
X2739001Y-12890636D01*
X2739001Y-12890636D02*
X2700906Y-12890636D01*
X2700906Y-12890636D02*
X2681858Y-12900159D01*
X2681858Y-12900159D02*
X2672335Y-12909683D01*
X2672335Y-12909683D02*
X2662811Y-12928731D01*
X2900906Y-12814445D02*
X2919954Y-12814445D01*
X2919954Y-12814445D02*
X2939001Y-12823969D01*
X2939001Y-12823969D02*
X2948525Y-12833493D01*
X2948525Y-12833493D02*
X2958049Y-12852540D01*
X2958049Y-12852540D02*
X2967573Y-12890636D01*
X2967573Y-12890636D02*
X2967573Y-12938255D01*
X2967573Y-12938255D02*
X2958049Y-12976350D01*
X2958049Y-12976350D02*
X2948525Y-12995398D01*
X2948525Y-12995398D02*
X2939001Y-13004921D01*
X2939001Y-13004921D02*
X2919954Y-13014445D01*
X2919954Y-13014445D02*
X2900906Y-13014445D01*
X2900906Y-13014445D02*
X2881858Y-13004921D01*
X2881858Y-13004921D02*
X2872335Y-12995398D01*
X2872335Y-12995398D02*
X2862811Y-12976350D01*
X2862811Y-12976350D02*
X2853287Y-12938255D01*
X2853287Y-12938255D02*
X2853287Y-12890636D01*
X2853287Y-12890636D02*
X2862811Y-12852540D01*
X2862811Y-12852540D02*
X2872335Y-12833493D01*
X2872335Y-12833493D02*
X2881858Y-12823969D01*
X2881858Y-12823969D02*
X2900906Y-12814445D01*
X3091382Y-12814445D02*
X3110430Y-12814445D01*
X3110430Y-12814445D02*
X3129477Y-12823969D01*
X3129477Y-12823969D02*
X3139001Y-12833493D01*
X3139001Y-12833493D02*
X3148525Y-12852540D01*
X3148525Y-12852540D02*
X3158049Y-12890636D01*
X3158049Y-12890636D02*
X3158049Y-12938255D01*
X3158049Y-12938255D02*
X3148525Y-12976350D01*
X3148525Y-12976350D02*
X3139001Y-12995398D01*
X3139001Y-12995398D02*
X3129477Y-13004921D01*
X3129477Y-13004921D02*
X3110430Y-13014445D01*
X3110430Y-13014445D02*
X3091382Y-13014445D01*
X3091382Y-13014445D02*
X3072335Y-13004921D01*
X3072335Y-13004921D02*
X3062811Y-12995398D01*
X3062811Y-12995398D02*
X3053287Y-12976350D01*
X3053287Y-12976350D02*
X3043763Y-12938255D01*
X3043763Y-12938255D02*
X3043763Y-12890636D01*
X3043763Y-12890636D02*
X3053287Y-12852540D01*
X3053287Y-12852540D02*
X3062811Y-12833493D01*
X3062811Y-12833493D02*
X3072335Y-12823969D01*
X3072335Y-12823969D02*
X3091382Y-12814445D01*
X3243763Y-13014445D02*
X3243763Y-12881112D01*
X3243763Y-12900159D02*
X3253287Y-12890636D01*
X3253287Y-12890636D02*
X3272335Y-12881112D01*
X3272335Y-12881112D02*
X3300906Y-12881112D01*
X3300906Y-12881112D02*
X3319954Y-12890636D01*
X3319954Y-12890636D02*
X3329477Y-12909683D01*
X3329477Y-12909683D02*
X3329477Y-13014445D01*
X3329477Y-12909683D02*
X3339001Y-12890636D01*
X3339001Y-12890636D02*
X3358049Y-12881112D01*
X3358049Y-12881112D02*
X3386620Y-12881112D01*
X3386620Y-12881112D02*
X3405668Y-12890636D01*
X3405668Y-12890636D02*
X3415192Y-12909683D01*
X3415192Y-12909683D02*
X3415192Y-13014445D01*
X3510430Y-13014445D02*
X3510430Y-12881112D01*
X3510430Y-12900159D02*
X3519954Y-12890636D01*
X3519954Y-12890636D02*
X3539001Y-12881112D01*
X3539001Y-12881112D02*
X3567573Y-12881112D01*
X3567573Y-12881112D02*
X3586620Y-12890636D01*
X3586620Y-12890636D02*
X3596144Y-12909683D01*
X3596144Y-12909683D02*
X3596144Y-13014445D01*
X3596144Y-12909683D02*
X3605668Y-12890636D01*
X3605668Y-12890636D02*
X3624716Y-12881112D01*
X3624716Y-12881112D02*
X3653287Y-12881112D01*
X3653287Y-12881112D02*
X3672335Y-12890636D01*
X3672335Y-12890636D02*
X3681858Y-12909683D01*
X3681858Y-12909683D02*
X3681858Y-13014445D01*
X4072335Y-12804921D02*
X3900906Y-13062064D01*
X4329478Y-12814445D02*
X4348525Y-12814445D01*
X4348525Y-12814445D02*
X4367573Y-12823969D01*
X4367573Y-12823969D02*
X4377097Y-12833493D01*
X4377097Y-12833493D02*
X4386621Y-12852540D01*
X4386621Y-12852540D02*
X4396144Y-12890636D01*
X4396144Y-12890636D02*
X4396144Y-12938255D01*
X4396144Y-12938255D02*
X4386621Y-12976350D01*
X4386621Y-12976350D02*
X4377097Y-12995398D01*
X4377097Y-12995398D02*
X4367573Y-13004921D01*
X4367573Y-13004921D02*
X4348525Y-13014445D01*
X4348525Y-13014445D02*
X4329478Y-13014445D01*
X4329478Y-13014445D02*
X4310430Y-13004921D01*
X4310430Y-13004921D02*
X4300906Y-12995398D01*
X4300906Y-12995398D02*
X4291382Y-12976350D01*
X4291382Y-12976350D02*
X4281859Y-12938255D01*
X4281859Y-12938255D02*
X4281859Y-12890636D01*
X4281859Y-12890636D02*
X4291382Y-12852540D01*
X4291382Y-12852540D02*
X4300906Y-12833493D01*
X4300906Y-12833493D02*
X4310430Y-12823969D01*
X4310430Y-12823969D02*
X4329478Y-12814445D01*
X4481859Y-12995398D02*
X4491382Y-13004921D01*
X4491382Y-13004921D02*
X4481859Y-13014445D01*
X4481859Y-13014445D02*
X4472335Y-13004921D01*
X4472335Y-13004921D02*
X4481859Y-12995398D01*
X4481859Y-12995398D02*
X4481859Y-13014445D01*
X4615192Y-12814445D02*
X4634240Y-12814445D01*
X4634240Y-12814445D02*
X4653287Y-12823969D01*
X4653287Y-12823969D02*
X4662811Y-12833493D01*
X4662811Y-12833493D02*
X4672335Y-12852540D01*
X4672335Y-12852540D02*
X4681859Y-12890636D01*
X4681859Y-12890636D02*
X4681859Y-12938255D01*
X4681859Y-12938255D02*
X4672335Y-12976350D01*
X4672335Y-12976350D02*
X4662811Y-12995398D01*
X4662811Y-12995398D02*
X4653287Y-13004921D01*
X4653287Y-13004921D02*
X4634240Y-13014445D01*
X4634240Y-13014445D02*
X4615192Y-13014445D01*
X4615192Y-13014445D02*
X4596144Y-13004921D01*
X4596144Y-13004921D02*
X4586621Y-12995398D01*
X4586621Y-12995398D02*
X4577097Y-12976350D01*
X4577097Y-12976350D02*
X4567573Y-12938255D01*
X4567573Y-12938255D02*
X4567573Y-12890636D01*
X4567573Y-12890636D02*
X4577097Y-12852540D01*
X4577097Y-12852540D02*
X4586621Y-12833493D01*
X4586621Y-12833493D02*
X4596144Y-12823969D01*
X4596144Y-12823969D02*
X4615192Y-12814445D01*
X4758049Y-12833493D02*
X4767573Y-12823969D01*
X4767573Y-12823969D02*
X4786621Y-12814445D01*
X4786621Y-12814445D02*
X4834240Y-12814445D01*
X4834240Y-12814445D02*
X4853287Y-12823969D01*
X4853287Y-12823969D02*
X4862811Y-12833493D01*
X4862811Y-12833493D02*
X4872335Y-12852540D01*
X4872335Y-12852540D02*
X4872335Y-12871588D01*
X4872335Y-12871588D02*
X4862811Y-12900159D01*
X4862811Y-12900159D02*
X4748525Y-13014445D01*
X4748525Y-13014445D02*
X4872335Y-13014445D01*
X4939002Y-12814445D02*
X5062811Y-12814445D01*
X5062811Y-12814445D02*
X4996144Y-12890636D01*
X4996144Y-12890636D02*
X5024716Y-12890636D01*
X5024716Y-12890636D02*
X5043763Y-12900159D01*
X5043763Y-12900159D02*
X5053287Y-12909683D01*
X5053287Y-12909683D02*
X5062811Y-12928731D01*
X5062811Y-12928731D02*
X5062811Y-12976350D01*
X5062811Y-12976350D02*
X5053287Y-12995398D01*
X5053287Y-12995398D02*
X5043763Y-13004921D01*
X5043763Y-13004921D02*
X5024716Y-13014445D01*
X5024716Y-13014445D02*
X4967573Y-13014445D01*
X4967573Y-13014445D02*
X4948525Y-13004921D01*
X4948525Y-13004921D02*
X4939002Y-12995398D01*
X5234240Y-12814445D02*
X5196144Y-12814445D01*
X5196144Y-12814445D02*
X5177097Y-12823969D01*
X5177097Y-12823969D02*
X5167573Y-12833493D01*
X5167573Y-12833493D02*
X5148525Y-12862064D01*
X5148525Y-12862064D02*
X5139002Y-12900159D01*
X5139002Y-12900159D02*
X5139002Y-12976350D01*
X5139002Y-12976350D02*
X5148525Y-12995398D01*
X5148525Y-12995398D02*
X5158049Y-13004921D01*
X5158049Y-13004921D02*
X5177097Y-13014445D01*
X5177097Y-13014445D02*
X5215192Y-13014445D01*
X5215192Y-13014445D02*
X5234240Y-13004921D01*
X5234240Y-13004921D02*
X5243763Y-12995398D01*
X5243763Y-12995398D02*
X5253287Y-12976350D01*
X5253287Y-12976350D02*
X5253287Y-12928731D01*
X5253287Y-12928731D02*
X5243763Y-12909683D01*
X5243763Y-12909683D02*
X5234240Y-12900159D01*
X5234240Y-12900159D02*
X5215192Y-12890636D01*
X5215192Y-12890636D02*
X5177097Y-12890636D01*
X5177097Y-12890636D02*
X5158049Y-12900159D01*
X5158049Y-12900159D02*
X5148525Y-12909683D01*
X5148525Y-12909683D02*
X5139002Y-12928731D01*
X5329478Y-12814445D02*
X5329478Y-12852540D01*
X5405668Y-12814445D02*
X5405668Y-12852540D01*
X5700906Y-13090636D02*
X5691382Y-13081112D01*
X5691382Y-13081112D02*
X5672335Y-13052540D01*
X5672335Y-13052540D02*
X5662811Y-13033493D01*
X5662811Y-13033493D02*
X5653287Y-13004921D01*
X5653287Y-13004921D02*
X5643763Y-12957302D01*
X5643763Y-12957302D02*
X5643763Y-12919207D01*
X5643763Y-12919207D02*
X5653287Y-12871588D01*
X5653287Y-12871588D02*
X5662811Y-12843017D01*
X5662811Y-12843017D02*
X5672335Y-12823969D01*
X5672335Y-12823969D02*
X5691382Y-12795398D01*
X5691382Y-12795398D02*
X5700906Y-12785874D01*
X5815192Y-12814445D02*
X5834240Y-12814445D01*
X5834240Y-12814445D02*
X5853287Y-12823969D01*
X5853287Y-12823969D02*
X5862811Y-12833493D01*
X5862811Y-12833493D02*
X5872335Y-12852540D01*
X5872335Y-12852540D02*
X5881859Y-12890636D01*
X5881859Y-12890636D02*
X5881859Y-12938255D01*
X5881859Y-12938255D02*
X5872335Y-12976350D01*
X5872335Y-12976350D02*
X5862811Y-12995398D01*
X5862811Y-12995398D02*
X5853287Y-13004921D01*
X5853287Y-13004921D02*
X5834240Y-13014445D01*
X5834240Y-13014445D02*
X5815192Y-13014445D01*
X5815192Y-13014445D02*
X5796144Y-13004921D01*
X5796144Y-13004921D02*
X5786621Y-12995398D01*
X5786621Y-12995398D02*
X5777097Y-12976350D01*
X5777097Y-12976350D02*
X5767573Y-12938255D01*
X5767573Y-12938255D02*
X5767573Y-12890636D01*
X5767573Y-12890636D02*
X5777097Y-12852540D01*
X5777097Y-12852540D02*
X5786621Y-12833493D01*
X5786621Y-12833493D02*
X5796144Y-12823969D01*
X5796144Y-12823969D02*
X5815192Y-12814445D01*
X6119954Y-13014445D02*
X6119954Y-12814445D01*
X6205668Y-13014445D02*
X6205668Y-12909683D01*
X6205668Y-12909683D02*
X6196144Y-12890636D01*
X6196144Y-12890636D02*
X6177097Y-12881112D01*
X6177097Y-12881112D02*
X6148525Y-12881112D01*
X6148525Y-12881112D02*
X6129478Y-12890636D01*
X6129478Y-12890636D02*
X6119954Y-12900159D01*
X6329478Y-13014445D02*
X6310430Y-13004921D01*
X6310430Y-13004921D02*
X6300906Y-12995398D01*
X6300906Y-12995398D02*
X6291383Y-12976350D01*
X6291383Y-12976350D02*
X6291383Y-12919207D01*
X6291383Y-12919207D02*
X6300906Y-12900159D01*
X6300906Y-12900159D02*
X6310430Y-12890636D01*
X6310430Y-12890636D02*
X6329478Y-12881112D01*
X6329478Y-12881112D02*
X6358049Y-12881112D01*
X6358049Y-12881112D02*
X6377097Y-12890636D01*
X6377097Y-12890636D02*
X6386621Y-12900159D01*
X6386621Y-12900159D02*
X6396144Y-12919207D01*
X6396144Y-12919207D02*
X6396144Y-12976350D01*
X6396144Y-12976350D02*
X6386621Y-12995398D01*
X6386621Y-12995398D02*
X6377097Y-13004921D01*
X6377097Y-13004921D02*
X6358049Y-13014445D01*
X6358049Y-13014445D02*
X6329478Y-13014445D01*
X6510430Y-13014445D02*
X6491383Y-13004921D01*
X6491383Y-13004921D02*
X6481859Y-12985874D01*
X6481859Y-12985874D02*
X6481859Y-12814445D01*
X6662811Y-13004921D02*
X6643764Y-13014445D01*
X6643764Y-13014445D02*
X6605668Y-13014445D01*
X6605668Y-13014445D02*
X6586621Y-13004921D01*
X6586621Y-13004921D02*
X6577097Y-12985874D01*
X6577097Y-12985874D02*
X6577097Y-12909683D01*
X6577097Y-12909683D02*
X6586621Y-12890636D01*
X6586621Y-12890636D02*
X6605668Y-12881112D01*
X6605668Y-12881112D02*
X6643764Y-12881112D01*
X6643764Y-12881112D02*
X6662811Y-12890636D01*
X6662811Y-12890636D02*
X6672335Y-12909683D01*
X6672335Y-12909683D02*
X6672335Y-12928731D01*
X6672335Y-12928731D02*
X6577097Y-12947779D01*
X6748525Y-13004921D02*
X6767573Y-13014445D01*
X6767573Y-13014445D02*
X6805668Y-13014445D01*
X6805668Y-13014445D02*
X6824716Y-13004921D01*
X6824716Y-13004921D02*
X6834240Y-12985874D01*
X6834240Y-12985874D02*
X6834240Y-12976350D01*
X6834240Y-12976350D02*
X6824716Y-12957302D01*
X6824716Y-12957302D02*
X6805668Y-12947779D01*
X6805668Y-12947779D02*
X6777097Y-12947779D01*
X6777097Y-12947779D02*
X6758049Y-12938255D01*
X6758049Y-12938255D02*
X6748525Y-12919207D01*
X6748525Y-12919207D02*
X6748525Y-12909683D01*
X6748525Y-12909683D02*
X6758049Y-12890636D01*
X6758049Y-12890636D02*
X6777097Y-12881112D01*
X6777097Y-12881112D02*
X6805668Y-12881112D01*
X6805668Y-12881112D02*
X6824716Y-12890636D01*
X7072335Y-12938255D02*
X7224716Y-12938255D01*
X7148526Y-13014445D02*
X7148526Y-12862064D01*
X7558049Y-12881112D02*
X7558049Y-13014445D01*
X7510430Y-12804921D02*
X7462811Y-12947779D01*
X7462811Y-12947779D02*
X7586621Y-12947779D01*
X7805668Y-13004921D02*
X7824716Y-13014445D01*
X7824716Y-13014445D02*
X7862811Y-13014445D01*
X7862811Y-13014445D02*
X7881859Y-13004921D01*
X7881859Y-13004921D02*
X7891383Y-12985874D01*
X7891383Y-12985874D02*
X7891383Y-12976350D01*
X7891383Y-12976350D02*
X7881859Y-12957302D01*
X7881859Y-12957302D02*
X7862811Y-12947779D01*
X7862811Y-12947779D02*
X7834240Y-12947779D01*
X7834240Y-12947779D02*
X7815192Y-12938255D01*
X7815192Y-12938255D02*
X7805668Y-12919207D01*
X7805668Y-12919207D02*
X7805668Y-12909683D01*
X7805668Y-12909683D02*
X7815192Y-12890636D01*
X7815192Y-12890636D02*
X7834240Y-12881112D01*
X7834240Y-12881112D02*
X7862811Y-12881112D01*
X7862811Y-12881112D02*
X7881859Y-12890636D01*
X8005668Y-13014445D02*
X7986621Y-13004921D01*
X7986621Y-13004921D02*
X7977097Y-12985874D01*
X7977097Y-12985874D02*
X7977097Y-12814445D01*
X8110430Y-13014445D02*
X8091383Y-13004921D01*
X8091383Y-13004921D02*
X8081859Y-12995398D01*
X8081859Y-12995398D02*
X8072335Y-12976350D01*
X8072335Y-12976350D02*
X8072335Y-12919207D01*
X8072335Y-12919207D02*
X8081859Y-12900159D01*
X8081859Y-12900159D02*
X8091383Y-12890636D01*
X8091383Y-12890636D02*
X8110430Y-12881112D01*
X8110430Y-12881112D02*
X8139002Y-12881112D01*
X8139002Y-12881112D02*
X8158049Y-12890636D01*
X8158049Y-12890636D02*
X8167573Y-12900159D01*
X8167573Y-12900159D02*
X8177097Y-12919207D01*
X8177097Y-12919207D02*
X8177097Y-12976350D01*
X8177097Y-12976350D02*
X8167573Y-12995398D01*
X8167573Y-12995398D02*
X8158049Y-13004921D01*
X8158049Y-13004921D02*
X8139002Y-13014445D01*
X8139002Y-13014445D02*
X8110430Y-13014445D01*
X8234240Y-12881112D02*
X8310430Y-12881112D01*
X8262811Y-12814445D02*
X8262811Y-12985874D01*
X8262811Y-12985874D02*
X8272335Y-13004921D01*
X8272335Y-13004921D02*
X8291383Y-13014445D01*
X8291383Y-13014445D02*
X8310430Y-13014445D01*
X8367573Y-13004921D02*
X8386621Y-13014445D01*
X8386621Y-13014445D02*
X8424716Y-13014445D01*
X8424716Y-13014445D02*
X8443764Y-13004921D01*
X8443764Y-13004921D02*
X8453288Y-12985874D01*
X8453288Y-12985874D02*
X8453288Y-12976350D01*
X8453288Y-12976350D02*
X8443764Y-12957302D01*
X8443764Y-12957302D02*
X8424716Y-12947779D01*
X8424716Y-12947779D02*
X8396145Y-12947779D01*
X8396145Y-12947779D02*
X8377097Y-12938255D01*
X8377097Y-12938255D02*
X8367573Y-12919207D01*
X8367573Y-12919207D02*
X8367573Y-12909683D01*
X8367573Y-12909683D02*
X8377097Y-12890636D01*
X8377097Y-12890636D02*
X8396145Y-12881112D01*
X8396145Y-12881112D02*
X8424716Y-12881112D01*
X8424716Y-12881112D02*
X8443764Y-12890636D01*
X8519954Y-13090636D02*
X8529478Y-13081112D01*
X8529478Y-13081112D02*
X8548526Y-13052540D01*
X8548526Y-13052540D02*
X8558050Y-13033493D01*
X8558050Y-13033493D02*
X8567573Y-13004921D01*
X8567573Y-13004921D02*
X8577097Y-12957302D01*
X8577097Y-12957302D02*
X8577097Y-12919207D01*
X8577097Y-12919207D02*
X8567573Y-12871588D01*
X8567573Y-12871588D02*
X8558050Y-12843017D01*
X8558050Y-12843017D02*
X8548526Y-12823969D01*
X8548526Y-12823969D02*
X8529478Y-12795398D01*
X8529478Y-12795398D02*
X8519954Y-12785874D01*
D13*
X2090843Y-13221961D02*
X2125844Y-13186961D01*
X2090843Y-13151961D01*
X2055843Y-13186961D01*
X2090843Y-13221961D01*
D12*
X2424716Y-13078445D02*
X2443763Y-13078445D01*
X2443763Y-13078445D02*
X2462811Y-13087969D01*
X2462811Y-13087969D02*
X2472335Y-13097493D01*
X2472335Y-13097493D02*
X2481858Y-13116540D01*
X2481858Y-13116540D02*
X2491382Y-13154636D01*
X2491382Y-13154636D02*
X2491382Y-13202255D01*
X2491382Y-13202255D02*
X2481858Y-13240350D01*
X2481858Y-13240350D02*
X2472335Y-13259398D01*
X2472335Y-13259398D02*
X2462811Y-13268921D01*
X2462811Y-13268921D02*
X2443763Y-13278445D01*
X2443763Y-13278445D02*
X2424716Y-13278445D01*
X2424716Y-13278445D02*
X2405668Y-13268921D01*
X2405668Y-13268921D02*
X2396144Y-13259398D01*
X2396144Y-13259398D02*
X2386620Y-13240350D01*
X2386620Y-13240350D02*
X2377097Y-13202255D01*
X2377097Y-13202255D02*
X2377097Y-13154636D01*
X2377097Y-13154636D02*
X2386620Y-13116540D01*
X2386620Y-13116540D02*
X2396144Y-13097493D01*
X2396144Y-13097493D02*
X2405668Y-13087969D01*
X2405668Y-13087969D02*
X2424716Y-13078445D01*
X2577097Y-13259398D02*
X2586620Y-13268921D01*
X2586620Y-13268921D02*
X2577097Y-13278445D01*
X2577097Y-13278445D02*
X2567573Y-13268921D01*
X2567573Y-13268921D02*
X2577097Y-13259398D01*
X2577097Y-13259398D02*
X2577097Y-13278445D01*
X2653287Y-13078445D02*
X2786620Y-13078445D01*
X2786620Y-13078445D02*
X2700906Y-13278445D01*
X2900906Y-13078445D02*
X2919954Y-13078445D01*
X2919954Y-13078445D02*
X2939001Y-13087969D01*
X2939001Y-13087969D02*
X2948525Y-13097493D01*
X2948525Y-13097493D02*
X2958049Y-13116540D01*
X2958049Y-13116540D02*
X2967573Y-13154636D01*
X2967573Y-13154636D02*
X2967573Y-13202255D01*
X2967573Y-13202255D02*
X2958049Y-13240350D01*
X2958049Y-13240350D02*
X2948525Y-13259398D01*
X2948525Y-13259398D02*
X2939001Y-13268921D01*
X2939001Y-13268921D02*
X2919954Y-13278445D01*
X2919954Y-13278445D02*
X2900906Y-13278445D01*
X2900906Y-13278445D02*
X2881858Y-13268921D01*
X2881858Y-13268921D02*
X2872335Y-13259398D01*
X2872335Y-13259398D02*
X2862811Y-13240350D01*
X2862811Y-13240350D02*
X2853287Y-13202255D01*
X2853287Y-13202255D02*
X2853287Y-13154636D01*
X2853287Y-13154636D02*
X2862811Y-13116540D01*
X2862811Y-13116540D02*
X2872335Y-13097493D01*
X2872335Y-13097493D02*
X2881858Y-13087969D01*
X2881858Y-13087969D02*
X2900906Y-13078445D01*
X3091382Y-13078445D02*
X3110430Y-13078445D01*
X3110430Y-13078445D02*
X3129477Y-13087969D01*
X3129477Y-13087969D02*
X3139001Y-13097493D01*
X3139001Y-13097493D02*
X3148525Y-13116540D01*
X3148525Y-13116540D02*
X3158049Y-13154636D01*
X3158049Y-13154636D02*
X3158049Y-13202255D01*
X3158049Y-13202255D02*
X3148525Y-13240350D01*
X3148525Y-13240350D02*
X3139001Y-13259398D01*
X3139001Y-13259398D02*
X3129477Y-13268921D01*
X3129477Y-13268921D02*
X3110430Y-13278445D01*
X3110430Y-13278445D02*
X3091382Y-13278445D01*
X3091382Y-13278445D02*
X3072335Y-13268921D01*
X3072335Y-13268921D02*
X3062811Y-13259398D01*
X3062811Y-13259398D02*
X3053287Y-13240350D01*
X3053287Y-13240350D02*
X3043763Y-13202255D01*
X3043763Y-13202255D02*
X3043763Y-13154636D01*
X3043763Y-13154636D02*
X3053287Y-13116540D01*
X3053287Y-13116540D02*
X3062811Y-13097493D01*
X3062811Y-13097493D02*
X3072335Y-13087969D01*
X3072335Y-13087969D02*
X3091382Y-13078445D01*
X3243763Y-13278445D02*
X3243763Y-13145112D01*
X3243763Y-13164159D02*
X3253287Y-13154636D01*
X3253287Y-13154636D02*
X3272335Y-13145112D01*
X3272335Y-13145112D02*
X3300906Y-13145112D01*
X3300906Y-13145112D02*
X3319954Y-13154636D01*
X3319954Y-13154636D02*
X3329477Y-13173683D01*
X3329477Y-13173683D02*
X3329477Y-13278445D01*
X3329477Y-13173683D02*
X3339001Y-13154636D01*
X3339001Y-13154636D02*
X3358049Y-13145112D01*
X3358049Y-13145112D02*
X3386620Y-13145112D01*
X3386620Y-13145112D02*
X3405668Y-13154636D01*
X3405668Y-13154636D02*
X3415192Y-13173683D01*
X3415192Y-13173683D02*
X3415192Y-13278445D01*
X3510430Y-13278445D02*
X3510430Y-13145112D01*
X3510430Y-13164159D02*
X3519954Y-13154636D01*
X3519954Y-13154636D02*
X3539001Y-13145112D01*
X3539001Y-13145112D02*
X3567573Y-13145112D01*
X3567573Y-13145112D02*
X3586620Y-13154636D01*
X3586620Y-13154636D02*
X3596144Y-13173683D01*
X3596144Y-13173683D02*
X3596144Y-13278445D01*
X3596144Y-13173683D02*
X3605668Y-13154636D01*
X3605668Y-13154636D02*
X3624716Y-13145112D01*
X3624716Y-13145112D02*
X3653287Y-13145112D01*
X3653287Y-13145112D02*
X3672335Y-13154636D01*
X3672335Y-13154636D02*
X3681858Y-13173683D01*
X3681858Y-13173683D02*
X3681858Y-13278445D01*
X4072335Y-13068921D02*
X3900906Y-13326064D01*
X4329478Y-13078445D02*
X4348525Y-13078445D01*
X4348525Y-13078445D02*
X4367573Y-13087969D01*
X4367573Y-13087969D02*
X4377097Y-13097493D01*
X4377097Y-13097493D02*
X4386621Y-13116540D01*
X4386621Y-13116540D02*
X4396144Y-13154636D01*
X4396144Y-13154636D02*
X4396144Y-13202255D01*
X4396144Y-13202255D02*
X4386621Y-13240350D01*
X4386621Y-13240350D02*
X4377097Y-13259398D01*
X4377097Y-13259398D02*
X4367573Y-13268921D01*
X4367573Y-13268921D02*
X4348525Y-13278445D01*
X4348525Y-13278445D02*
X4329478Y-13278445D01*
X4329478Y-13278445D02*
X4310430Y-13268921D01*
X4310430Y-13268921D02*
X4300906Y-13259398D01*
X4300906Y-13259398D02*
X4291382Y-13240350D01*
X4291382Y-13240350D02*
X4281859Y-13202255D01*
X4281859Y-13202255D02*
X4281859Y-13154636D01*
X4281859Y-13154636D02*
X4291382Y-13116540D01*
X4291382Y-13116540D02*
X4300906Y-13097493D01*
X4300906Y-13097493D02*
X4310430Y-13087969D01*
X4310430Y-13087969D02*
X4329478Y-13078445D01*
X4481859Y-13259398D02*
X4491382Y-13268921D01*
X4491382Y-13268921D02*
X4481859Y-13278445D01*
X4481859Y-13278445D02*
X4472335Y-13268921D01*
X4472335Y-13268921D02*
X4481859Y-13259398D01*
X4481859Y-13259398D02*
X4481859Y-13278445D01*
X4615192Y-13078445D02*
X4634240Y-13078445D01*
X4634240Y-13078445D02*
X4653287Y-13087969D01*
X4653287Y-13087969D02*
X4662811Y-13097493D01*
X4662811Y-13097493D02*
X4672335Y-13116540D01*
X4672335Y-13116540D02*
X4681859Y-13154636D01*
X4681859Y-13154636D02*
X4681859Y-13202255D01*
X4681859Y-13202255D02*
X4672335Y-13240350D01*
X4672335Y-13240350D02*
X4662811Y-13259398D01*
X4662811Y-13259398D02*
X4653287Y-13268921D01*
X4653287Y-13268921D02*
X4634240Y-13278445D01*
X4634240Y-13278445D02*
X4615192Y-13278445D01*
X4615192Y-13278445D02*
X4596144Y-13268921D01*
X4596144Y-13268921D02*
X4586621Y-13259398D01*
X4586621Y-13259398D02*
X4577097Y-13240350D01*
X4577097Y-13240350D02*
X4567573Y-13202255D01*
X4567573Y-13202255D02*
X4567573Y-13154636D01*
X4567573Y-13154636D02*
X4577097Y-13116540D01*
X4577097Y-13116540D02*
X4586621Y-13097493D01*
X4586621Y-13097493D02*
X4596144Y-13087969D01*
X4596144Y-13087969D02*
X4615192Y-13078445D01*
X4758049Y-13097493D02*
X4767573Y-13087969D01*
X4767573Y-13087969D02*
X4786621Y-13078445D01*
X4786621Y-13078445D02*
X4834240Y-13078445D01*
X4834240Y-13078445D02*
X4853287Y-13087969D01*
X4853287Y-13087969D02*
X4862811Y-13097493D01*
X4862811Y-13097493D02*
X4872335Y-13116540D01*
X4872335Y-13116540D02*
X4872335Y-13135588D01*
X4872335Y-13135588D02*
X4862811Y-13164159D01*
X4862811Y-13164159D02*
X4748525Y-13278445D01*
X4748525Y-13278445D02*
X4872335Y-13278445D01*
X4939002Y-13078445D02*
X5072335Y-13078445D01*
X5072335Y-13078445D02*
X4986621Y-13278445D01*
X5234240Y-13078445D02*
X5196144Y-13078445D01*
X5196144Y-13078445D02*
X5177097Y-13087969D01*
X5177097Y-13087969D02*
X5167573Y-13097493D01*
X5167573Y-13097493D02*
X5148525Y-13126064D01*
X5148525Y-13126064D02*
X5139002Y-13164159D01*
X5139002Y-13164159D02*
X5139002Y-13240350D01*
X5139002Y-13240350D02*
X5148525Y-13259398D01*
X5148525Y-13259398D02*
X5158049Y-13268921D01*
X5158049Y-13268921D02*
X5177097Y-13278445D01*
X5177097Y-13278445D02*
X5215192Y-13278445D01*
X5215192Y-13278445D02*
X5234240Y-13268921D01*
X5234240Y-13268921D02*
X5243763Y-13259398D01*
X5243763Y-13259398D02*
X5253287Y-13240350D01*
X5253287Y-13240350D02*
X5253287Y-13192731D01*
X5253287Y-13192731D02*
X5243763Y-13173683D01*
X5243763Y-13173683D02*
X5234240Y-13164159D01*
X5234240Y-13164159D02*
X5215192Y-13154636D01*
X5215192Y-13154636D02*
X5177097Y-13154636D01*
X5177097Y-13154636D02*
X5158049Y-13164159D01*
X5158049Y-13164159D02*
X5148525Y-13173683D01*
X5148525Y-13173683D02*
X5139002Y-13192731D01*
X5329478Y-13078445D02*
X5329478Y-13116540D01*
X5405668Y-13078445D02*
X5405668Y-13116540D01*
X5700906Y-13354636D02*
X5691382Y-13345112D01*
X5691382Y-13345112D02*
X5672335Y-13316540D01*
X5672335Y-13316540D02*
X5662811Y-13297493D01*
X5662811Y-13297493D02*
X5653287Y-13268921D01*
X5653287Y-13268921D02*
X5643763Y-13221302D01*
X5643763Y-13221302D02*
X5643763Y-13183207D01*
X5643763Y-13183207D02*
X5653287Y-13135588D01*
X5653287Y-13135588D02*
X5662811Y-13107017D01*
X5662811Y-13107017D02*
X5672335Y-13087969D01*
X5672335Y-13087969D02*
X5691382Y-13059398D01*
X5691382Y-13059398D02*
X5700906Y-13049874D01*
X5815192Y-13078445D02*
X5834240Y-13078445D01*
X5834240Y-13078445D02*
X5853287Y-13087969D01*
X5853287Y-13087969D02*
X5862811Y-13097493D01*
X5862811Y-13097493D02*
X5872335Y-13116540D01*
X5872335Y-13116540D02*
X5881859Y-13154636D01*
X5881859Y-13154636D02*
X5881859Y-13202255D01*
X5881859Y-13202255D02*
X5872335Y-13240350D01*
X5872335Y-13240350D02*
X5862811Y-13259398D01*
X5862811Y-13259398D02*
X5853287Y-13268921D01*
X5853287Y-13268921D02*
X5834240Y-13278445D01*
X5834240Y-13278445D02*
X5815192Y-13278445D01*
X5815192Y-13278445D02*
X5796144Y-13268921D01*
X5796144Y-13268921D02*
X5786621Y-13259398D01*
X5786621Y-13259398D02*
X5777097Y-13240350D01*
X5777097Y-13240350D02*
X5767573Y-13202255D01*
X5767573Y-13202255D02*
X5767573Y-13154636D01*
X5767573Y-13154636D02*
X5777097Y-13116540D01*
X5777097Y-13116540D02*
X5786621Y-13097493D01*
X5786621Y-13097493D02*
X5796144Y-13087969D01*
X5796144Y-13087969D02*
X5815192Y-13078445D01*
X6119954Y-13278445D02*
X6119954Y-13078445D01*
X6205668Y-13278445D02*
X6205668Y-13173683D01*
X6205668Y-13173683D02*
X6196144Y-13154636D01*
X6196144Y-13154636D02*
X6177097Y-13145112D01*
X6177097Y-13145112D02*
X6148525Y-13145112D01*
X6148525Y-13145112D02*
X6129478Y-13154636D01*
X6129478Y-13154636D02*
X6119954Y-13164159D01*
X6329478Y-13278445D02*
X6310430Y-13268921D01*
X6310430Y-13268921D02*
X6300906Y-13259398D01*
X6300906Y-13259398D02*
X6291383Y-13240350D01*
X6291383Y-13240350D02*
X6291383Y-13183207D01*
X6291383Y-13183207D02*
X6300906Y-13164159D01*
X6300906Y-13164159D02*
X6310430Y-13154636D01*
X6310430Y-13154636D02*
X6329478Y-13145112D01*
X6329478Y-13145112D02*
X6358049Y-13145112D01*
X6358049Y-13145112D02*
X6377097Y-13154636D01*
X6377097Y-13154636D02*
X6386621Y-13164159D01*
X6386621Y-13164159D02*
X6396144Y-13183207D01*
X6396144Y-13183207D02*
X6396144Y-13240350D01*
X6396144Y-13240350D02*
X6386621Y-13259398D01*
X6386621Y-13259398D02*
X6377097Y-13268921D01*
X6377097Y-13268921D02*
X6358049Y-13278445D01*
X6358049Y-13278445D02*
X6329478Y-13278445D01*
X6510430Y-13278445D02*
X6491383Y-13268921D01*
X6491383Y-13268921D02*
X6481859Y-13249874D01*
X6481859Y-13249874D02*
X6481859Y-13078445D01*
X6662811Y-13268921D02*
X6643764Y-13278445D01*
X6643764Y-13278445D02*
X6605668Y-13278445D01*
X6605668Y-13278445D02*
X6586621Y-13268921D01*
X6586621Y-13268921D02*
X6577097Y-13249874D01*
X6577097Y-13249874D02*
X6577097Y-13173683D01*
X6577097Y-13173683D02*
X6586621Y-13154636D01*
X6586621Y-13154636D02*
X6605668Y-13145112D01*
X6605668Y-13145112D02*
X6643764Y-13145112D01*
X6643764Y-13145112D02*
X6662811Y-13154636D01*
X6662811Y-13154636D02*
X6672335Y-13173683D01*
X6672335Y-13173683D02*
X6672335Y-13192731D01*
X6672335Y-13192731D02*
X6577097Y-13211779D01*
X6748525Y-13268921D02*
X6767573Y-13278445D01*
X6767573Y-13278445D02*
X6805668Y-13278445D01*
X6805668Y-13278445D02*
X6824716Y-13268921D01*
X6824716Y-13268921D02*
X6834240Y-13249874D01*
X6834240Y-13249874D02*
X6834240Y-13240350D01*
X6834240Y-13240350D02*
X6824716Y-13221302D01*
X6824716Y-13221302D02*
X6805668Y-13211779D01*
X6805668Y-13211779D02*
X6777097Y-13211779D01*
X6777097Y-13211779D02*
X6758049Y-13202255D01*
X6758049Y-13202255D02*
X6748525Y-13183207D01*
X6748525Y-13183207D02*
X6748525Y-13173683D01*
X6748525Y-13173683D02*
X6758049Y-13154636D01*
X6758049Y-13154636D02*
X6777097Y-13145112D01*
X6777097Y-13145112D02*
X6805668Y-13145112D01*
X6805668Y-13145112D02*
X6824716Y-13154636D01*
X7072335Y-13202255D02*
X7224716Y-13202255D01*
X7148526Y-13278445D02*
X7148526Y-13126064D01*
X7567573Y-13078445D02*
X7472335Y-13078445D01*
X7472335Y-13078445D02*
X7462811Y-13173683D01*
X7462811Y-13173683D02*
X7472335Y-13164159D01*
X7472335Y-13164159D02*
X7491383Y-13154636D01*
X7491383Y-13154636D02*
X7539002Y-13154636D01*
X7539002Y-13154636D02*
X7558049Y-13164159D01*
X7558049Y-13164159D02*
X7567573Y-13173683D01*
X7567573Y-13173683D02*
X7577097Y-13192731D01*
X7577097Y-13192731D02*
X7577097Y-13240350D01*
X7577097Y-13240350D02*
X7567573Y-13259398D01*
X7567573Y-13259398D02*
X7558049Y-13268921D01*
X7558049Y-13268921D02*
X7539002Y-13278445D01*
X7539002Y-13278445D02*
X7491383Y-13278445D01*
X7491383Y-13278445D02*
X7472335Y-13268921D01*
X7472335Y-13268921D02*
X7462811Y-13259398D01*
X7805668Y-13268921D02*
X7824716Y-13278445D01*
X7824716Y-13278445D02*
X7862811Y-13278445D01*
X7862811Y-13278445D02*
X7881859Y-13268921D01*
X7881859Y-13268921D02*
X7891383Y-13249874D01*
X7891383Y-13249874D02*
X7891383Y-13240350D01*
X7891383Y-13240350D02*
X7881859Y-13221302D01*
X7881859Y-13221302D02*
X7862811Y-13211779D01*
X7862811Y-13211779D02*
X7834240Y-13211779D01*
X7834240Y-13211779D02*
X7815192Y-13202255D01*
X7815192Y-13202255D02*
X7805668Y-13183207D01*
X7805668Y-13183207D02*
X7805668Y-13173683D01*
X7805668Y-13173683D02*
X7815192Y-13154636D01*
X7815192Y-13154636D02*
X7834240Y-13145112D01*
X7834240Y-13145112D02*
X7862811Y-13145112D01*
X7862811Y-13145112D02*
X7881859Y-13154636D01*
X8005668Y-13278445D02*
X7986621Y-13268921D01*
X7986621Y-13268921D02*
X7977097Y-13249874D01*
X7977097Y-13249874D02*
X7977097Y-13078445D01*
X8110430Y-13278445D02*
X8091383Y-13268921D01*
X8091383Y-13268921D02*
X8081859Y-13259398D01*
X8081859Y-13259398D02*
X8072335Y-13240350D01*
X8072335Y-13240350D02*
X8072335Y-13183207D01*
X8072335Y-13183207D02*
X8081859Y-13164159D01*
X8081859Y-13164159D02*
X8091383Y-13154636D01*
X8091383Y-13154636D02*
X8110430Y-13145112D01*
X8110430Y-13145112D02*
X8139002Y-13145112D01*
X8139002Y-13145112D02*
X8158049Y-13154636D01*
X8158049Y-13154636D02*
X8167573Y-13164159D01*
X8167573Y-13164159D02*
X8177097Y-13183207D01*
X8177097Y-13183207D02*
X8177097Y-13240350D01*
X8177097Y-13240350D02*
X8167573Y-13259398D01*
X8167573Y-13259398D02*
X8158049Y-13268921D01*
X8158049Y-13268921D02*
X8139002Y-13278445D01*
X8139002Y-13278445D02*
X8110430Y-13278445D01*
X8234240Y-13145112D02*
X8310430Y-13145112D01*
X8262811Y-13078445D02*
X8262811Y-13249874D01*
X8262811Y-13249874D02*
X8272335Y-13268921D01*
X8272335Y-13268921D02*
X8291383Y-13278445D01*
X8291383Y-13278445D02*
X8310430Y-13278445D01*
X8367573Y-13268921D02*
X8386621Y-13278445D01*
X8386621Y-13278445D02*
X8424716Y-13278445D01*
X8424716Y-13278445D02*
X8443764Y-13268921D01*
X8443764Y-13268921D02*
X8453288Y-13249874D01*
X8453288Y-13249874D02*
X8453288Y-13240350D01*
X8453288Y-13240350D02*
X8443764Y-13221302D01*
X8443764Y-13221302D02*
X8424716Y-13211779D01*
X8424716Y-13211779D02*
X8396145Y-13211779D01*
X8396145Y-13211779D02*
X8377097Y-13202255D01*
X8377097Y-13202255D02*
X8367573Y-13183207D01*
X8367573Y-13183207D02*
X8367573Y-13173683D01*
X8367573Y-13173683D02*
X8377097Y-13154636D01*
X8377097Y-13154636D02*
X8396145Y-13145112D01*
X8396145Y-13145112D02*
X8424716Y-13145112D01*
X8424716Y-13145112D02*
X8443764Y-13154636D01*
X8519954Y-13354636D02*
X8529478Y-13345112D01*
X8529478Y-13345112D02*
X8548526Y-13316540D01*
X8548526Y-13316540D02*
X8558050Y-13297493D01*
X8558050Y-13297493D02*
X8567573Y-13268921D01*
X8567573Y-13268921D02*
X8577097Y-13221302D01*
X8577097Y-13221302D02*
X8577097Y-13183207D01*
X8577097Y-13183207D02*
X8567573Y-13135588D01*
X8567573Y-13135588D02*
X8558050Y-13107017D01*
X8558050Y-13107017D02*
X8548526Y-13087969D01*
X8548526Y-13087969D02*
X8529478Y-13059398D01*
X8529478Y-13059398D02*
X8519954Y-13049874D01*
D13*
X2025843Y-13400961D02*
X2125844Y-13500961D01*
X2125844Y-13400961D02*
X2025843Y-13500961D01*
X2125844Y-13450961D02*
G75*
G02*
X2025843Y-13450961I-50000J0D01*
G01*
X2025843Y-13450961D02*
G75*
G02*
X2125844Y-13450961I50000J0D01*
G01*
D12*
X2491382Y-13542445D02*
X2377097Y-13542445D01*
X2434239Y-13542445D02*
X2434239Y-13342445D01*
X2434239Y-13342445D02*
X2415192Y-13371017D01*
X2415192Y-13371017D02*
X2396144Y-13390064D01*
X2396144Y-13390064D02*
X2377097Y-13399588D01*
X2577097Y-13523398D02*
X2586620Y-13532921D01*
X2586620Y-13532921D02*
X2577097Y-13542445D01*
X2577097Y-13542445D02*
X2567573Y-13532921D01*
X2567573Y-13532921D02*
X2577097Y-13523398D01*
X2577097Y-13523398D02*
X2577097Y-13542445D01*
X2710430Y-13342445D02*
X2729478Y-13342445D01*
X2729478Y-13342445D02*
X2748525Y-13351969D01*
X2748525Y-13351969D02*
X2758049Y-13361493D01*
X2758049Y-13361493D02*
X2767573Y-13380540D01*
X2767573Y-13380540D02*
X2777097Y-13418636D01*
X2777097Y-13418636D02*
X2777097Y-13466255D01*
X2777097Y-13466255D02*
X2767573Y-13504350D01*
X2767573Y-13504350D02*
X2758049Y-13523398D01*
X2758049Y-13523398D02*
X2748525Y-13532921D01*
X2748525Y-13532921D02*
X2729478Y-13542445D01*
X2729478Y-13542445D02*
X2710430Y-13542445D01*
X2710430Y-13542445D02*
X2691382Y-13532921D01*
X2691382Y-13532921D02*
X2681858Y-13523398D01*
X2681858Y-13523398D02*
X2672335Y-13504350D01*
X2672335Y-13504350D02*
X2662811Y-13466255D01*
X2662811Y-13466255D02*
X2662811Y-13418636D01*
X2662811Y-13418636D02*
X2672335Y-13380540D01*
X2672335Y-13380540D02*
X2681858Y-13361493D01*
X2681858Y-13361493D02*
X2691382Y-13351969D01*
X2691382Y-13351969D02*
X2710430Y-13342445D01*
X2900906Y-13342445D02*
X2919954Y-13342445D01*
X2919954Y-13342445D02*
X2939001Y-13351969D01*
X2939001Y-13351969D02*
X2948525Y-13361493D01*
X2948525Y-13361493D02*
X2958049Y-13380540D01*
X2958049Y-13380540D02*
X2967573Y-13418636D01*
X2967573Y-13418636D02*
X2967573Y-13466255D01*
X2967573Y-13466255D02*
X2958049Y-13504350D01*
X2958049Y-13504350D02*
X2948525Y-13523398D01*
X2948525Y-13523398D02*
X2939001Y-13532921D01*
X2939001Y-13532921D02*
X2919954Y-13542445D01*
X2919954Y-13542445D02*
X2900906Y-13542445D01*
X2900906Y-13542445D02*
X2881858Y-13532921D01*
X2881858Y-13532921D02*
X2872335Y-13523398D01*
X2872335Y-13523398D02*
X2862811Y-13504350D01*
X2862811Y-13504350D02*
X2853287Y-13466255D01*
X2853287Y-13466255D02*
X2853287Y-13418636D01*
X2853287Y-13418636D02*
X2862811Y-13380540D01*
X2862811Y-13380540D02*
X2872335Y-13361493D01*
X2872335Y-13361493D02*
X2881858Y-13351969D01*
X2881858Y-13351969D02*
X2900906Y-13342445D01*
X3091382Y-13342445D02*
X3110430Y-13342445D01*
X3110430Y-13342445D02*
X3129477Y-13351969D01*
X3129477Y-13351969D02*
X3139001Y-13361493D01*
X3139001Y-13361493D02*
X3148525Y-13380540D01*
X3148525Y-13380540D02*
X3158049Y-13418636D01*
X3158049Y-13418636D02*
X3158049Y-13466255D01*
X3158049Y-13466255D02*
X3148525Y-13504350D01*
X3148525Y-13504350D02*
X3139001Y-13523398D01*
X3139001Y-13523398D02*
X3129477Y-13532921D01*
X3129477Y-13532921D02*
X3110430Y-13542445D01*
X3110430Y-13542445D02*
X3091382Y-13542445D01*
X3091382Y-13542445D02*
X3072335Y-13532921D01*
X3072335Y-13532921D02*
X3062811Y-13523398D01*
X3062811Y-13523398D02*
X3053287Y-13504350D01*
X3053287Y-13504350D02*
X3043763Y-13466255D01*
X3043763Y-13466255D02*
X3043763Y-13418636D01*
X3043763Y-13418636D02*
X3053287Y-13380540D01*
X3053287Y-13380540D02*
X3062811Y-13361493D01*
X3062811Y-13361493D02*
X3072335Y-13351969D01*
X3072335Y-13351969D02*
X3091382Y-13342445D01*
X3243763Y-13542445D02*
X3243763Y-13409112D01*
X3243763Y-13428159D02*
X3253287Y-13418636D01*
X3253287Y-13418636D02*
X3272335Y-13409112D01*
X3272335Y-13409112D02*
X3300906Y-13409112D01*
X3300906Y-13409112D02*
X3319954Y-13418636D01*
X3319954Y-13418636D02*
X3329477Y-13437683D01*
X3329477Y-13437683D02*
X3329477Y-13542445D01*
X3329477Y-13437683D02*
X3339001Y-13418636D01*
X3339001Y-13418636D02*
X3358049Y-13409112D01*
X3358049Y-13409112D02*
X3386620Y-13409112D01*
X3386620Y-13409112D02*
X3405668Y-13418636D01*
X3405668Y-13418636D02*
X3415192Y-13437683D01*
X3415192Y-13437683D02*
X3415192Y-13542445D01*
X3510430Y-13542445D02*
X3510430Y-13409112D01*
X3510430Y-13428159D02*
X3519954Y-13418636D01*
X3519954Y-13418636D02*
X3539001Y-13409112D01*
X3539001Y-13409112D02*
X3567573Y-13409112D01*
X3567573Y-13409112D02*
X3586620Y-13418636D01*
X3586620Y-13418636D02*
X3596144Y-13437683D01*
X3596144Y-13437683D02*
X3596144Y-13542445D01*
X3596144Y-13437683D02*
X3605668Y-13418636D01*
X3605668Y-13418636D02*
X3624716Y-13409112D01*
X3624716Y-13409112D02*
X3653287Y-13409112D01*
X3653287Y-13409112D02*
X3672335Y-13418636D01*
X3672335Y-13418636D02*
X3681858Y-13437683D01*
X3681858Y-13437683D02*
X3681858Y-13542445D01*
X4072335Y-13332921D02*
X3900906Y-13590064D01*
X4329478Y-13342445D02*
X4348525Y-13342445D01*
X4348525Y-13342445D02*
X4367573Y-13351969D01*
X4367573Y-13351969D02*
X4377097Y-13361493D01*
X4377097Y-13361493D02*
X4386621Y-13380540D01*
X4386621Y-13380540D02*
X4396144Y-13418636D01*
X4396144Y-13418636D02*
X4396144Y-13466255D01*
X4396144Y-13466255D02*
X4386621Y-13504350D01*
X4386621Y-13504350D02*
X4377097Y-13523398D01*
X4377097Y-13523398D02*
X4367573Y-13532921D01*
X4367573Y-13532921D02*
X4348525Y-13542445D01*
X4348525Y-13542445D02*
X4329478Y-13542445D01*
X4329478Y-13542445D02*
X4310430Y-13532921D01*
X4310430Y-13532921D02*
X4300906Y-13523398D01*
X4300906Y-13523398D02*
X4291382Y-13504350D01*
X4291382Y-13504350D02*
X4281859Y-13466255D01*
X4281859Y-13466255D02*
X4281859Y-13418636D01*
X4281859Y-13418636D02*
X4291382Y-13380540D01*
X4291382Y-13380540D02*
X4300906Y-13361493D01*
X4300906Y-13361493D02*
X4310430Y-13351969D01*
X4310430Y-13351969D02*
X4329478Y-13342445D01*
X4481859Y-13523398D02*
X4491382Y-13532921D01*
X4491382Y-13532921D02*
X4481859Y-13542445D01*
X4481859Y-13542445D02*
X4472335Y-13532921D01*
X4472335Y-13532921D02*
X4481859Y-13523398D01*
X4481859Y-13523398D02*
X4481859Y-13542445D01*
X4615192Y-13342445D02*
X4634240Y-13342445D01*
X4634240Y-13342445D02*
X4653287Y-13351969D01*
X4653287Y-13351969D02*
X4662811Y-13361493D01*
X4662811Y-13361493D02*
X4672335Y-13380540D01*
X4672335Y-13380540D02*
X4681859Y-13418636D01*
X4681859Y-13418636D02*
X4681859Y-13466255D01*
X4681859Y-13466255D02*
X4672335Y-13504350D01*
X4672335Y-13504350D02*
X4662811Y-13523398D01*
X4662811Y-13523398D02*
X4653287Y-13532921D01*
X4653287Y-13532921D02*
X4634240Y-13542445D01*
X4634240Y-13542445D02*
X4615192Y-13542445D01*
X4615192Y-13542445D02*
X4596144Y-13532921D01*
X4596144Y-13532921D02*
X4586621Y-13523398D01*
X4586621Y-13523398D02*
X4577097Y-13504350D01*
X4577097Y-13504350D02*
X4567573Y-13466255D01*
X4567573Y-13466255D02*
X4567573Y-13418636D01*
X4567573Y-13418636D02*
X4577097Y-13380540D01*
X4577097Y-13380540D02*
X4586621Y-13361493D01*
X4586621Y-13361493D02*
X4596144Y-13351969D01*
X4596144Y-13351969D02*
X4615192Y-13342445D01*
X4748525Y-13342445D02*
X4872335Y-13342445D01*
X4872335Y-13342445D02*
X4805668Y-13418636D01*
X4805668Y-13418636D02*
X4834240Y-13418636D01*
X4834240Y-13418636D02*
X4853287Y-13428159D01*
X4853287Y-13428159D02*
X4862811Y-13437683D01*
X4862811Y-13437683D02*
X4872335Y-13456731D01*
X4872335Y-13456731D02*
X4872335Y-13504350D01*
X4872335Y-13504350D02*
X4862811Y-13523398D01*
X4862811Y-13523398D02*
X4853287Y-13532921D01*
X4853287Y-13532921D02*
X4834240Y-13542445D01*
X4834240Y-13542445D02*
X4777097Y-13542445D01*
X4777097Y-13542445D02*
X4758049Y-13532921D01*
X4758049Y-13532921D02*
X4748525Y-13523398D01*
X4967573Y-13542445D02*
X5005668Y-13542445D01*
X5005668Y-13542445D02*
X5024716Y-13532921D01*
X5024716Y-13532921D02*
X5034240Y-13523398D01*
X5034240Y-13523398D02*
X5053287Y-13494826D01*
X5053287Y-13494826D02*
X5062811Y-13456731D01*
X5062811Y-13456731D02*
X5062811Y-13380540D01*
X5062811Y-13380540D02*
X5053287Y-13361493D01*
X5053287Y-13361493D02*
X5043763Y-13351969D01*
X5043763Y-13351969D02*
X5024716Y-13342445D01*
X5024716Y-13342445D02*
X4986621Y-13342445D01*
X4986621Y-13342445D02*
X4967573Y-13351969D01*
X4967573Y-13351969D02*
X4958049Y-13361493D01*
X4958049Y-13361493D02*
X4948525Y-13380540D01*
X4948525Y-13380540D02*
X4948525Y-13428159D01*
X4948525Y-13428159D02*
X4958049Y-13447207D01*
X4958049Y-13447207D02*
X4967573Y-13456731D01*
X4967573Y-13456731D02*
X4986621Y-13466255D01*
X4986621Y-13466255D02*
X5024716Y-13466255D01*
X5024716Y-13466255D02*
X5043763Y-13456731D01*
X5043763Y-13456731D02*
X5053287Y-13447207D01*
X5053287Y-13447207D02*
X5062811Y-13428159D01*
X5234240Y-13409112D02*
X5234240Y-13542445D01*
X5186621Y-13332921D02*
X5139002Y-13475779D01*
X5139002Y-13475779D02*
X5262811Y-13475779D01*
X5329478Y-13342445D02*
X5329478Y-13380540D01*
X5405668Y-13342445D02*
X5405668Y-13380540D01*
X5700906Y-13618636D02*
X5691382Y-13609112D01*
X5691382Y-13609112D02*
X5672335Y-13580540D01*
X5672335Y-13580540D02*
X5662811Y-13561493D01*
X5662811Y-13561493D02*
X5653287Y-13532921D01*
X5653287Y-13532921D02*
X5643763Y-13485302D01*
X5643763Y-13485302D02*
X5643763Y-13447207D01*
X5643763Y-13447207D02*
X5653287Y-13399588D01*
X5653287Y-13399588D02*
X5662811Y-13371017D01*
X5662811Y-13371017D02*
X5672335Y-13351969D01*
X5672335Y-13351969D02*
X5691382Y-13323398D01*
X5691382Y-13323398D02*
X5700906Y-13313874D01*
X5881859Y-13542445D02*
X5767573Y-13542445D01*
X5824716Y-13542445D02*
X5824716Y-13342445D01*
X5824716Y-13342445D02*
X5805668Y-13371017D01*
X5805668Y-13371017D02*
X5786621Y-13390064D01*
X5786621Y-13390064D02*
X5767573Y-13399588D01*
X5996144Y-13428159D02*
X5977097Y-13418636D01*
X5977097Y-13418636D02*
X5967573Y-13409112D01*
X5967573Y-13409112D02*
X5958049Y-13390064D01*
X5958049Y-13390064D02*
X5958049Y-13380540D01*
X5958049Y-13380540D02*
X5967573Y-13361493D01*
X5967573Y-13361493D02*
X5977097Y-13351969D01*
X5977097Y-13351969D02*
X5996144Y-13342445D01*
X5996144Y-13342445D02*
X6034240Y-13342445D01*
X6034240Y-13342445D02*
X6053287Y-13351969D01*
X6053287Y-13351969D02*
X6062811Y-13361493D01*
X6062811Y-13361493D02*
X6072335Y-13380540D01*
X6072335Y-13380540D02*
X6072335Y-13390064D01*
X6072335Y-13390064D02*
X6062811Y-13409112D01*
X6062811Y-13409112D02*
X6053287Y-13418636D01*
X6053287Y-13418636D02*
X6034240Y-13428159D01*
X6034240Y-13428159D02*
X5996144Y-13428159D01*
X5996144Y-13428159D02*
X5977097Y-13437683D01*
X5977097Y-13437683D02*
X5967573Y-13447207D01*
X5967573Y-13447207D02*
X5958049Y-13466255D01*
X5958049Y-13466255D02*
X5958049Y-13504350D01*
X5958049Y-13504350D02*
X5967573Y-13523398D01*
X5967573Y-13523398D02*
X5977097Y-13532921D01*
X5977097Y-13532921D02*
X5996144Y-13542445D01*
X5996144Y-13542445D02*
X6034240Y-13542445D01*
X6034240Y-13542445D02*
X6053287Y-13532921D01*
X6053287Y-13532921D02*
X6062811Y-13523398D01*
X6062811Y-13523398D02*
X6072335Y-13504350D01*
X6072335Y-13504350D02*
X6072335Y-13466255D01*
X6072335Y-13466255D02*
X6062811Y-13447207D01*
X6062811Y-13447207D02*
X6053287Y-13437683D01*
X6053287Y-13437683D02*
X6034240Y-13428159D01*
X6310430Y-13542445D02*
X6310430Y-13342445D01*
X6396144Y-13542445D02*
X6396144Y-13437683D01*
X6396144Y-13437683D02*
X6386621Y-13418636D01*
X6386621Y-13418636D02*
X6367573Y-13409112D01*
X6367573Y-13409112D02*
X6339002Y-13409112D01*
X6339002Y-13409112D02*
X6319954Y-13418636D01*
X6319954Y-13418636D02*
X6310430Y-13428159D01*
X6519954Y-13542445D02*
X6500906Y-13532921D01*
X6500906Y-13532921D02*
X6491383Y-13523398D01*
X6491383Y-13523398D02*
X6481859Y-13504350D01*
X6481859Y-13504350D02*
X6481859Y-13447207D01*
X6481859Y-13447207D02*
X6491383Y-13428159D01*
X6491383Y-13428159D02*
X6500906Y-13418636D01*
X6500906Y-13418636D02*
X6519954Y-13409112D01*
X6519954Y-13409112D02*
X6548525Y-13409112D01*
X6548525Y-13409112D02*
X6567573Y-13418636D01*
X6567573Y-13418636D02*
X6577097Y-13428159D01*
X6577097Y-13428159D02*
X6586621Y-13447207D01*
X6586621Y-13447207D02*
X6586621Y-13504350D01*
X6586621Y-13504350D02*
X6577097Y-13523398D01*
X6577097Y-13523398D02*
X6567573Y-13532921D01*
X6567573Y-13532921D02*
X6548525Y-13542445D01*
X6548525Y-13542445D02*
X6519954Y-13542445D01*
X6700906Y-13542445D02*
X6681859Y-13532921D01*
X6681859Y-13532921D02*
X6672335Y-13513874D01*
X6672335Y-13513874D02*
X6672335Y-13342445D01*
X6853287Y-13532921D02*
X6834240Y-13542445D01*
X6834240Y-13542445D02*
X6796144Y-13542445D01*
X6796144Y-13542445D02*
X6777097Y-13532921D01*
X6777097Y-13532921D02*
X6767573Y-13513874D01*
X6767573Y-13513874D02*
X6767573Y-13437683D01*
X6767573Y-13437683D02*
X6777097Y-13418636D01*
X6777097Y-13418636D02*
X6796144Y-13409112D01*
X6796144Y-13409112D02*
X6834240Y-13409112D01*
X6834240Y-13409112D02*
X6853287Y-13418636D01*
X6853287Y-13418636D02*
X6862811Y-13437683D01*
X6862811Y-13437683D02*
X6862811Y-13456731D01*
X6862811Y-13456731D02*
X6767573Y-13475779D01*
X6939002Y-13532921D02*
X6958049Y-13542445D01*
X6958049Y-13542445D02*
X6996144Y-13542445D01*
X6996144Y-13542445D02*
X7015192Y-13532921D01*
X7015192Y-13532921D02*
X7024716Y-13513874D01*
X7024716Y-13513874D02*
X7024716Y-13504350D01*
X7024716Y-13504350D02*
X7015192Y-13485302D01*
X7015192Y-13485302D02*
X6996144Y-13475779D01*
X6996144Y-13475779D02*
X6967573Y-13475779D01*
X6967573Y-13475779D02*
X6948525Y-13466255D01*
X6948525Y-13466255D02*
X6939002Y-13447207D01*
X6939002Y-13447207D02*
X6939002Y-13437683D01*
X6939002Y-13437683D02*
X6948525Y-13418636D01*
X6948525Y-13418636D02*
X6967573Y-13409112D01*
X6967573Y-13409112D02*
X6996144Y-13409112D01*
X6996144Y-13409112D02*
X7015192Y-13418636D01*
X7091383Y-13618636D02*
X7100906Y-13609112D01*
X7100906Y-13609112D02*
X7119954Y-13580540D01*
X7119954Y-13580540D02*
X7129478Y-13561493D01*
X7129478Y-13561493D02*
X7139002Y-13532921D01*
X7139002Y-13532921D02*
X7148525Y-13485302D01*
X7148525Y-13485302D02*
X7148525Y-13447207D01*
X7148525Y-13447207D02*
X7139002Y-13399588D01*
X7139002Y-13399588D02*
X7129478Y-13371017D01*
X7129478Y-13371017D02*
X7119954Y-13351969D01*
X7119954Y-13351969D02*
X7100906Y-13323398D01*
X7100906Y-13323398D02*
X7091383Y-13313874D01*
D14*
X1975843Y-13639961D02*
X2125844Y-13789961D01*
X2125844Y-13639961D02*
X1975843Y-13789961D01*
X2050843Y-13639961D02*
X2050843Y-13789961D01*
X1975843Y-13714961D02*
X2125844Y-13714961D01*
D12*
X2491382Y-13806445D02*
X2377097Y-13806445D01*
X2434239Y-13806445D02*
X2434239Y-13606445D01*
X2434239Y-13606445D02*
X2415192Y-13635017D01*
X2415192Y-13635017D02*
X2396144Y-13654064D01*
X2396144Y-13654064D02*
X2377097Y-13663588D01*
X2577097Y-13787398D02*
X2586620Y-13796921D01*
X2586620Y-13796921D02*
X2577097Y-13806445D01*
X2577097Y-13806445D02*
X2567573Y-13796921D01*
X2567573Y-13796921D02*
X2577097Y-13787398D01*
X2577097Y-13787398D02*
X2577097Y-13806445D01*
X2767573Y-13606445D02*
X2672335Y-13606445D01*
X2672335Y-13606445D02*
X2662811Y-13701683D01*
X2662811Y-13701683D02*
X2672335Y-13692159D01*
X2672335Y-13692159D02*
X2691382Y-13682636D01*
X2691382Y-13682636D02*
X2739001Y-13682636D01*
X2739001Y-13682636D02*
X2758049Y-13692159D01*
X2758049Y-13692159D02*
X2767573Y-13701683D01*
X2767573Y-13701683D02*
X2777097Y-13720731D01*
X2777097Y-13720731D02*
X2777097Y-13768350D01*
X2777097Y-13768350D02*
X2767573Y-13787398D01*
X2767573Y-13787398D02*
X2758049Y-13796921D01*
X2758049Y-13796921D02*
X2739001Y-13806445D01*
X2739001Y-13806445D02*
X2691382Y-13806445D01*
X2691382Y-13806445D02*
X2672335Y-13796921D01*
X2672335Y-13796921D02*
X2662811Y-13787398D01*
X2900906Y-13606445D02*
X2919954Y-13606445D01*
X2919954Y-13606445D02*
X2939001Y-13615969D01*
X2939001Y-13615969D02*
X2948525Y-13625493D01*
X2948525Y-13625493D02*
X2958049Y-13644540D01*
X2958049Y-13644540D02*
X2967573Y-13682636D01*
X2967573Y-13682636D02*
X2967573Y-13730255D01*
X2967573Y-13730255D02*
X2958049Y-13768350D01*
X2958049Y-13768350D02*
X2948525Y-13787398D01*
X2948525Y-13787398D02*
X2939001Y-13796921D01*
X2939001Y-13796921D02*
X2919954Y-13806445D01*
X2919954Y-13806445D02*
X2900906Y-13806445D01*
X2900906Y-13806445D02*
X2881858Y-13796921D01*
X2881858Y-13796921D02*
X2872335Y-13787398D01*
X2872335Y-13787398D02*
X2862811Y-13768350D01*
X2862811Y-13768350D02*
X2853287Y-13730255D01*
X2853287Y-13730255D02*
X2853287Y-13682636D01*
X2853287Y-13682636D02*
X2862811Y-13644540D01*
X2862811Y-13644540D02*
X2872335Y-13625493D01*
X2872335Y-13625493D02*
X2881858Y-13615969D01*
X2881858Y-13615969D02*
X2900906Y-13606445D01*
X3091382Y-13606445D02*
X3110430Y-13606445D01*
X3110430Y-13606445D02*
X3129477Y-13615969D01*
X3129477Y-13615969D02*
X3139001Y-13625493D01*
X3139001Y-13625493D02*
X3148525Y-13644540D01*
X3148525Y-13644540D02*
X3158049Y-13682636D01*
X3158049Y-13682636D02*
X3158049Y-13730255D01*
X3158049Y-13730255D02*
X3148525Y-13768350D01*
X3148525Y-13768350D02*
X3139001Y-13787398D01*
X3139001Y-13787398D02*
X3129477Y-13796921D01*
X3129477Y-13796921D02*
X3110430Y-13806445D01*
X3110430Y-13806445D02*
X3091382Y-13806445D01*
X3091382Y-13806445D02*
X3072335Y-13796921D01*
X3072335Y-13796921D02*
X3062811Y-13787398D01*
X3062811Y-13787398D02*
X3053287Y-13768350D01*
X3053287Y-13768350D02*
X3043763Y-13730255D01*
X3043763Y-13730255D02*
X3043763Y-13682636D01*
X3043763Y-13682636D02*
X3053287Y-13644540D01*
X3053287Y-13644540D02*
X3062811Y-13625493D01*
X3062811Y-13625493D02*
X3072335Y-13615969D01*
X3072335Y-13615969D02*
X3091382Y-13606445D01*
X3243763Y-13806445D02*
X3243763Y-13673112D01*
X3243763Y-13692159D02*
X3253287Y-13682636D01*
X3253287Y-13682636D02*
X3272335Y-13673112D01*
X3272335Y-13673112D02*
X3300906Y-13673112D01*
X3300906Y-13673112D02*
X3319954Y-13682636D01*
X3319954Y-13682636D02*
X3329477Y-13701683D01*
X3329477Y-13701683D02*
X3329477Y-13806445D01*
X3329477Y-13701683D02*
X3339001Y-13682636D01*
X3339001Y-13682636D02*
X3358049Y-13673112D01*
X3358049Y-13673112D02*
X3386620Y-13673112D01*
X3386620Y-13673112D02*
X3405668Y-13682636D01*
X3405668Y-13682636D02*
X3415192Y-13701683D01*
X3415192Y-13701683D02*
X3415192Y-13806445D01*
X3510430Y-13806445D02*
X3510430Y-13673112D01*
X3510430Y-13692159D02*
X3519954Y-13682636D01*
X3519954Y-13682636D02*
X3539001Y-13673112D01*
X3539001Y-13673112D02*
X3567573Y-13673112D01*
X3567573Y-13673112D02*
X3586620Y-13682636D01*
X3586620Y-13682636D02*
X3596144Y-13701683D01*
X3596144Y-13701683D02*
X3596144Y-13806445D01*
X3596144Y-13701683D02*
X3605668Y-13682636D01*
X3605668Y-13682636D02*
X3624716Y-13673112D01*
X3624716Y-13673112D02*
X3653287Y-13673112D01*
X3653287Y-13673112D02*
X3672335Y-13682636D01*
X3672335Y-13682636D02*
X3681858Y-13701683D01*
X3681858Y-13701683D02*
X3681858Y-13806445D01*
X4072335Y-13596921D02*
X3900906Y-13854064D01*
X4329478Y-13606445D02*
X4348525Y-13606445D01*
X4348525Y-13606445D02*
X4367573Y-13615969D01*
X4367573Y-13615969D02*
X4377097Y-13625493D01*
X4377097Y-13625493D02*
X4386621Y-13644540D01*
X4386621Y-13644540D02*
X4396144Y-13682636D01*
X4396144Y-13682636D02*
X4396144Y-13730255D01*
X4396144Y-13730255D02*
X4386621Y-13768350D01*
X4386621Y-13768350D02*
X4377097Y-13787398D01*
X4377097Y-13787398D02*
X4367573Y-13796921D01*
X4367573Y-13796921D02*
X4348525Y-13806445D01*
X4348525Y-13806445D02*
X4329478Y-13806445D01*
X4329478Y-13806445D02*
X4310430Y-13796921D01*
X4310430Y-13796921D02*
X4300906Y-13787398D01*
X4300906Y-13787398D02*
X4291382Y-13768350D01*
X4291382Y-13768350D02*
X4281859Y-13730255D01*
X4281859Y-13730255D02*
X4281859Y-13682636D01*
X4281859Y-13682636D02*
X4291382Y-13644540D01*
X4291382Y-13644540D02*
X4300906Y-13625493D01*
X4300906Y-13625493D02*
X4310430Y-13615969D01*
X4310430Y-13615969D02*
X4329478Y-13606445D01*
X4481859Y-13787398D02*
X4491382Y-13796921D01*
X4491382Y-13796921D02*
X4481859Y-13806445D01*
X4481859Y-13806445D02*
X4472335Y-13796921D01*
X4472335Y-13796921D02*
X4481859Y-13787398D01*
X4481859Y-13787398D02*
X4481859Y-13806445D01*
X4615192Y-13606445D02*
X4634240Y-13606445D01*
X4634240Y-13606445D02*
X4653287Y-13615969D01*
X4653287Y-13615969D02*
X4662811Y-13625493D01*
X4662811Y-13625493D02*
X4672335Y-13644540D01*
X4672335Y-13644540D02*
X4681859Y-13682636D01*
X4681859Y-13682636D02*
X4681859Y-13730255D01*
X4681859Y-13730255D02*
X4672335Y-13768350D01*
X4672335Y-13768350D02*
X4662811Y-13787398D01*
X4662811Y-13787398D02*
X4653287Y-13796921D01*
X4653287Y-13796921D02*
X4634240Y-13806445D01*
X4634240Y-13806445D02*
X4615192Y-13806445D01*
X4615192Y-13806445D02*
X4596144Y-13796921D01*
X4596144Y-13796921D02*
X4586621Y-13787398D01*
X4586621Y-13787398D02*
X4577097Y-13768350D01*
X4577097Y-13768350D02*
X4567573Y-13730255D01*
X4567573Y-13730255D02*
X4567573Y-13682636D01*
X4567573Y-13682636D02*
X4577097Y-13644540D01*
X4577097Y-13644540D02*
X4586621Y-13625493D01*
X4586621Y-13625493D02*
X4596144Y-13615969D01*
X4596144Y-13615969D02*
X4615192Y-13606445D01*
X4862811Y-13606445D02*
X4767573Y-13606445D01*
X4767573Y-13606445D02*
X4758049Y-13701683D01*
X4758049Y-13701683D02*
X4767573Y-13692159D01*
X4767573Y-13692159D02*
X4786621Y-13682636D01*
X4786621Y-13682636D02*
X4834240Y-13682636D01*
X4834240Y-13682636D02*
X4853287Y-13692159D01*
X4853287Y-13692159D02*
X4862811Y-13701683D01*
X4862811Y-13701683D02*
X4872335Y-13720731D01*
X4872335Y-13720731D02*
X4872335Y-13768350D01*
X4872335Y-13768350D02*
X4862811Y-13787398D01*
X4862811Y-13787398D02*
X4853287Y-13796921D01*
X4853287Y-13796921D02*
X4834240Y-13806445D01*
X4834240Y-13806445D02*
X4786621Y-13806445D01*
X4786621Y-13806445D02*
X4767573Y-13796921D01*
X4767573Y-13796921D02*
X4758049Y-13787398D01*
X4967573Y-13806445D02*
X5005668Y-13806445D01*
X5005668Y-13806445D02*
X5024716Y-13796921D01*
X5024716Y-13796921D02*
X5034240Y-13787398D01*
X5034240Y-13787398D02*
X5053287Y-13758826D01*
X5053287Y-13758826D02*
X5062811Y-13720731D01*
X5062811Y-13720731D02*
X5062811Y-13644540D01*
X5062811Y-13644540D02*
X5053287Y-13625493D01*
X5053287Y-13625493D02*
X5043763Y-13615969D01*
X5043763Y-13615969D02*
X5024716Y-13606445D01*
X5024716Y-13606445D02*
X4986621Y-13606445D01*
X4986621Y-13606445D02*
X4967573Y-13615969D01*
X4967573Y-13615969D02*
X4958049Y-13625493D01*
X4958049Y-13625493D02*
X4948525Y-13644540D01*
X4948525Y-13644540D02*
X4948525Y-13692159D01*
X4948525Y-13692159D02*
X4958049Y-13711207D01*
X4958049Y-13711207D02*
X4967573Y-13720731D01*
X4967573Y-13720731D02*
X4986621Y-13730255D01*
X4986621Y-13730255D02*
X5024716Y-13730255D01*
X5024716Y-13730255D02*
X5043763Y-13720731D01*
X5043763Y-13720731D02*
X5053287Y-13711207D01*
X5053287Y-13711207D02*
X5062811Y-13692159D01*
X5253287Y-13806445D02*
X5139002Y-13806445D01*
X5196144Y-13806445D02*
X5196144Y-13606445D01*
X5196144Y-13606445D02*
X5177097Y-13635017D01*
X5177097Y-13635017D02*
X5158049Y-13654064D01*
X5158049Y-13654064D02*
X5139002Y-13663588D01*
X5329478Y-13606445D02*
X5329478Y-13644540D01*
X5405668Y-13606445D02*
X5405668Y-13644540D01*
X5700906Y-13882636D02*
X5691382Y-13873112D01*
X5691382Y-13873112D02*
X5672335Y-13844540D01*
X5672335Y-13844540D02*
X5662811Y-13825493D01*
X5662811Y-13825493D02*
X5653287Y-13796921D01*
X5653287Y-13796921D02*
X5643763Y-13749302D01*
X5643763Y-13749302D02*
X5643763Y-13711207D01*
X5643763Y-13711207D02*
X5653287Y-13663588D01*
X5653287Y-13663588D02*
X5662811Y-13635017D01*
X5662811Y-13635017D02*
X5672335Y-13615969D01*
X5672335Y-13615969D02*
X5691382Y-13587398D01*
X5691382Y-13587398D02*
X5700906Y-13577874D01*
X5815192Y-13606445D02*
X5834240Y-13606445D01*
X5834240Y-13606445D02*
X5853287Y-13615969D01*
X5853287Y-13615969D02*
X5862811Y-13625493D01*
X5862811Y-13625493D02*
X5872335Y-13644540D01*
X5872335Y-13644540D02*
X5881859Y-13682636D01*
X5881859Y-13682636D02*
X5881859Y-13730255D01*
X5881859Y-13730255D02*
X5872335Y-13768350D01*
X5872335Y-13768350D02*
X5862811Y-13787398D01*
X5862811Y-13787398D02*
X5853287Y-13796921D01*
X5853287Y-13796921D02*
X5834240Y-13806445D01*
X5834240Y-13806445D02*
X5815192Y-13806445D01*
X5815192Y-13806445D02*
X5796144Y-13796921D01*
X5796144Y-13796921D02*
X5786621Y-13787398D01*
X5786621Y-13787398D02*
X5777097Y-13768350D01*
X5777097Y-13768350D02*
X5767573Y-13730255D01*
X5767573Y-13730255D02*
X5767573Y-13682636D01*
X5767573Y-13682636D02*
X5777097Y-13644540D01*
X5777097Y-13644540D02*
X5786621Y-13625493D01*
X5786621Y-13625493D02*
X5796144Y-13615969D01*
X5796144Y-13615969D02*
X5815192Y-13606445D01*
X6119954Y-13806445D02*
X6119954Y-13606445D01*
X6205668Y-13806445D02*
X6205668Y-13701683D01*
X6205668Y-13701683D02*
X6196144Y-13682636D01*
X6196144Y-13682636D02*
X6177097Y-13673112D01*
X6177097Y-13673112D02*
X6148525Y-13673112D01*
X6148525Y-13673112D02*
X6129478Y-13682636D01*
X6129478Y-13682636D02*
X6119954Y-13692159D01*
X6329478Y-13806445D02*
X6310430Y-13796921D01*
X6310430Y-13796921D02*
X6300906Y-13787398D01*
X6300906Y-13787398D02*
X6291383Y-13768350D01*
X6291383Y-13768350D02*
X6291383Y-13711207D01*
X6291383Y-13711207D02*
X6300906Y-13692159D01*
X6300906Y-13692159D02*
X6310430Y-13682636D01*
X6310430Y-13682636D02*
X6329478Y-13673112D01*
X6329478Y-13673112D02*
X6358049Y-13673112D01*
X6358049Y-13673112D02*
X6377097Y-13682636D01*
X6377097Y-13682636D02*
X6386621Y-13692159D01*
X6386621Y-13692159D02*
X6396144Y-13711207D01*
X6396144Y-13711207D02*
X6396144Y-13768350D01*
X6396144Y-13768350D02*
X6386621Y-13787398D01*
X6386621Y-13787398D02*
X6377097Y-13796921D01*
X6377097Y-13796921D02*
X6358049Y-13806445D01*
X6358049Y-13806445D02*
X6329478Y-13806445D01*
X6510430Y-13806445D02*
X6491383Y-13796921D01*
X6491383Y-13796921D02*
X6481859Y-13777874D01*
X6481859Y-13777874D02*
X6481859Y-13606445D01*
X6662811Y-13796921D02*
X6643764Y-13806445D01*
X6643764Y-13806445D02*
X6605668Y-13806445D01*
X6605668Y-13806445D02*
X6586621Y-13796921D01*
X6586621Y-13796921D02*
X6577097Y-13777874D01*
X6577097Y-13777874D02*
X6577097Y-13701683D01*
X6577097Y-13701683D02*
X6586621Y-13682636D01*
X6586621Y-13682636D02*
X6605668Y-13673112D01*
X6605668Y-13673112D02*
X6643764Y-13673112D01*
X6643764Y-13673112D02*
X6662811Y-13682636D01*
X6662811Y-13682636D02*
X6672335Y-13701683D01*
X6672335Y-13701683D02*
X6672335Y-13720731D01*
X6672335Y-13720731D02*
X6577097Y-13739779D01*
X6748525Y-13796921D02*
X6767573Y-13806445D01*
X6767573Y-13806445D02*
X6805668Y-13806445D01*
X6805668Y-13806445D02*
X6824716Y-13796921D01*
X6824716Y-13796921D02*
X6834240Y-13777874D01*
X6834240Y-13777874D02*
X6834240Y-13768350D01*
X6834240Y-13768350D02*
X6824716Y-13749302D01*
X6824716Y-13749302D02*
X6805668Y-13739779D01*
X6805668Y-13739779D02*
X6777097Y-13739779D01*
X6777097Y-13739779D02*
X6758049Y-13730255D01*
X6758049Y-13730255D02*
X6748525Y-13711207D01*
X6748525Y-13711207D02*
X6748525Y-13701683D01*
X6748525Y-13701683D02*
X6758049Y-13682636D01*
X6758049Y-13682636D02*
X6777097Y-13673112D01*
X6777097Y-13673112D02*
X6805668Y-13673112D01*
X6805668Y-13673112D02*
X6824716Y-13682636D01*
X7072335Y-13730255D02*
X7224716Y-13730255D01*
X7148526Y-13806445D02*
X7148526Y-13654064D01*
X7462811Y-13625493D02*
X7472335Y-13615969D01*
X7472335Y-13615969D02*
X7491383Y-13606445D01*
X7491383Y-13606445D02*
X7539002Y-13606445D01*
X7539002Y-13606445D02*
X7558049Y-13615969D01*
X7558049Y-13615969D02*
X7567573Y-13625493D01*
X7567573Y-13625493D02*
X7577097Y-13644540D01*
X7577097Y-13644540D02*
X7577097Y-13663588D01*
X7577097Y-13663588D02*
X7567573Y-13692159D01*
X7567573Y-13692159D02*
X7453287Y-13806445D01*
X7453287Y-13806445D02*
X7577097Y-13806445D01*
X7805668Y-13796921D02*
X7824716Y-13806445D01*
X7824716Y-13806445D02*
X7862811Y-13806445D01*
X7862811Y-13806445D02*
X7881859Y-13796921D01*
X7881859Y-13796921D02*
X7891383Y-13777874D01*
X7891383Y-13777874D02*
X7891383Y-13768350D01*
X7891383Y-13768350D02*
X7881859Y-13749302D01*
X7881859Y-13749302D02*
X7862811Y-13739779D01*
X7862811Y-13739779D02*
X7834240Y-13739779D01*
X7834240Y-13739779D02*
X7815192Y-13730255D01*
X7815192Y-13730255D02*
X7805668Y-13711207D01*
X7805668Y-13711207D02*
X7805668Y-13701683D01*
X7805668Y-13701683D02*
X7815192Y-13682636D01*
X7815192Y-13682636D02*
X7834240Y-13673112D01*
X7834240Y-13673112D02*
X7862811Y-13673112D01*
X7862811Y-13673112D02*
X7881859Y-13682636D01*
X8005668Y-13806445D02*
X7986621Y-13796921D01*
X7986621Y-13796921D02*
X7977097Y-13777874D01*
X7977097Y-13777874D02*
X7977097Y-13606445D01*
X8110430Y-13806445D02*
X8091383Y-13796921D01*
X8091383Y-13796921D02*
X8081859Y-13787398D01*
X8081859Y-13787398D02*
X8072335Y-13768350D01*
X8072335Y-13768350D02*
X8072335Y-13711207D01*
X8072335Y-13711207D02*
X8081859Y-13692159D01*
X8081859Y-13692159D02*
X8091383Y-13682636D01*
X8091383Y-13682636D02*
X8110430Y-13673112D01*
X8110430Y-13673112D02*
X8139002Y-13673112D01*
X8139002Y-13673112D02*
X8158049Y-13682636D01*
X8158049Y-13682636D02*
X8167573Y-13692159D01*
X8167573Y-13692159D02*
X8177097Y-13711207D01*
X8177097Y-13711207D02*
X8177097Y-13768350D01*
X8177097Y-13768350D02*
X8167573Y-13787398D01*
X8167573Y-13787398D02*
X8158049Y-13796921D01*
X8158049Y-13796921D02*
X8139002Y-13806445D01*
X8139002Y-13806445D02*
X8110430Y-13806445D01*
X8234240Y-13673112D02*
X8310430Y-13673112D01*
X8262811Y-13606445D02*
X8262811Y-13777874D01*
X8262811Y-13777874D02*
X8272335Y-13796921D01*
X8272335Y-13796921D02*
X8291383Y-13806445D01*
X8291383Y-13806445D02*
X8310430Y-13806445D01*
X8367573Y-13796921D02*
X8386621Y-13806445D01*
X8386621Y-13806445D02*
X8424716Y-13806445D01*
X8424716Y-13806445D02*
X8443764Y-13796921D01*
X8443764Y-13796921D02*
X8453288Y-13777874D01*
X8453288Y-13777874D02*
X8453288Y-13768350D01*
X8453288Y-13768350D02*
X8443764Y-13749302D01*
X8443764Y-13749302D02*
X8424716Y-13739779D01*
X8424716Y-13739779D02*
X8396145Y-13739779D01*
X8396145Y-13739779D02*
X8377097Y-13730255D01*
X8377097Y-13730255D02*
X8367573Y-13711207D01*
X8367573Y-13711207D02*
X8367573Y-13701683D01*
X8367573Y-13701683D02*
X8377097Y-13682636D01*
X8377097Y-13682636D02*
X8396145Y-13673112D01*
X8396145Y-13673112D02*
X8424716Y-13673112D01*
X8424716Y-13673112D02*
X8443764Y-13682636D01*
X8519954Y-13882636D02*
X8529478Y-13873112D01*
X8529478Y-13873112D02*
X8548526Y-13844540D01*
X8548526Y-13844540D02*
X8558050Y-13825493D01*
X8558050Y-13825493D02*
X8567573Y-13796921D01*
X8567573Y-13796921D02*
X8577097Y-13749302D01*
X8577097Y-13749302D02*
X8577097Y-13711207D01*
X8577097Y-13711207D02*
X8567573Y-13663588D01*
X8567573Y-13663588D02*
X8558050Y-13635017D01*
X8558050Y-13635017D02*
X8548526Y-13615969D01*
X8548526Y-13615969D02*
X8529478Y-13587398D01*
X8529478Y-13587398D02*
X8519954Y-13577874D01*
X1925843Y-13884961D02*
X2125844Y-14084961D01*
X2125844Y-13884961D02*
X1925843Y-14084961D01*
X2096555Y-14055673D02*
X2096555Y-13914250D01*
X1955132Y-13914250D01*
X1955132Y-14055673D01*
X2096555Y-14055673D01*
X2377097Y-13895493D02*
X2386620Y-13885969D01*
X2386620Y-13885969D02*
X2405668Y-13876445D01*
X2405668Y-13876445D02*
X2453287Y-13876445D01*
X2453287Y-13876445D02*
X2472335Y-13885969D01*
X2472335Y-13885969D02*
X2481858Y-13895493D01*
X2481858Y-13895493D02*
X2491382Y-13914540D01*
X2491382Y-13914540D02*
X2491382Y-13933588D01*
X2491382Y-13933588D02*
X2481858Y-13962159D01*
X2481858Y-13962159D02*
X2367573Y-14076445D01*
X2367573Y-14076445D02*
X2491382Y-14076445D01*
X2577097Y-14057398D02*
X2586620Y-14066921D01*
X2586620Y-14066921D02*
X2577097Y-14076445D01*
X2577097Y-14076445D02*
X2567573Y-14066921D01*
X2567573Y-14066921D02*
X2577097Y-14057398D01*
X2577097Y-14057398D02*
X2577097Y-14076445D01*
X2662811Y-13895493D02*
X2672335Y-13885969D01*
X2672335Y-13885969D02*
X2691382Y-13876445D01*
X2691382Y-13876445D02*
X2739001Y-13876445D01*
X2739001Y-13876445D02*
X2758049Y-13885969D01*
X2758049Y-13885969D02*
X2767573Y-13895493D01*
X2767573Y-13895493D02*
X2777097Y-13914540D01*
X2777097Y-13914540D02*
X2777097Y-13933588D01*
X2777097Y-13933588D02*
X2767573Y-13962159D01*
X2767573Y-13962159D02*
X2653287Y-14076445D01*
X2653287Y-14076445D02*
X2777097Y-14076445D01*
X2900906Y-13876445D02*
X2919954Y-13876445D01*
X2919954Y-13876445D02*
X2939001Y-13885969D01*
X2939001Y-13885969D02*
X2948525Y-13895493D01*
X2948525Y-13895493D02*
X2958049Y-13914540D01*
X2958049Y-13914540D02*
X2967573Y-13952636D01*
X2967573Y-13952636D02*
X2967573Y-14000255D01*
X2967573Y-14000255D02*
X2958049Y-14038350D01*
X2958049Y-14038350D02*
X2948525Y-14057398D01*
X2948525Y-14057398D02*
X2939001Y-14066921D01*
X2939001Y-14066921D02*
X2919954Y-14076445D01*
X2919954Y-14076445D02*
X2900906Y-14076445D01*
X2900906Y-14076445D02*
X2881858Y-14066921D01*
X2881858Y-14066921D02*
X2872335Y-14057398D01*
X2872335Y-14057398D02*
X2862811Y-14038350D01*
X2862811Y-14038350D02*
X2853287Y-14000255D01*
X2853287Y-14000255D02*
X2853287Y-13952636D01*
X2853287Y-13952636D02*
X2862811Y-13914540D01*
X2862811Y-13914540D02*
X2872335Y-13895493D01*
X2872335Y-13895493D02*
X2881858Y-13885969D01*
X2881858Y-13885969D02*
X2900906Y-13876445D01*
X3091382Y-13876445D02*
X3110430Y-13876445D01*
X3110430Y-13876445D02*
X3129477Y-13885969D01*
X3129477Y-13885969D02*
X3139001Y-13895493D01*
X3139001Y-13895493D02*
X3148525Y-13914540D01*
X3148525Y-13914540D02*
X3158049Y-13952636D01*
X3158049Y-13952636D02*
X3158049Y-14000255D01*
X3158049Y-14000255D02*
X3148525Y-14038350D01*
X3148525Y-14038350D02*
X3139001Y-14057398D01*
X3139001Y-14057398D02*
X3129477Y-14066921D01*
X3129477Y-14066921D02*
X3110430Y-14076445D01*
X3110430Y-14076445D02*
X3091382Y-14076445D01*
X3091382Y-14076445D02*
X3072335Y-14066921D01*
X3072335Y-14066921D02*
X3062811Y-14057398D01*
X3062811Y-14057398D02*
X3053287Y-14038350D01*
X3053287Y-14038350D02*
X3043763Y-14000255D01*
X3043763Y-14000255D02*
X3043763Y-13952636D01*
X3043763Y-13952636D02*
X3053287Y-13914540D01*
X3053287Y-13914540D02*
X3062811Y-13895493D01*
X3062811Y-13895493D02*
X3072335Y-13885969D01*
X3072335Y-13885969D02*
X3091382Y-13876445D01*
X3243763Y-14076445D02*
X3243763Y-13943112D01*
X3243763Y-13962159D02*
X3253287Y-13952636D01*
X3253287Y-13952636D02*
X3272335Y-13943112D01*
X3272335Y-13943112D02*
X3300906Y-13943112D01*
X3300906Y-13943112D02*
X3319954Y-13952636D01*
X3319954Y-13952636D02*
X3329477Y-13971683D01*
X3329477Y-13971683D02*
X3329477Y-14076445D01*
X3329477Y-13971683D02*
X3339001Y-13952636D01*
X3339001Y-13952636D02*
X3358049Y-13943112D01*
X3358049Y-13943112D02*
X3386620Y-13943112D01*
X3386620Y-13943112D02*
X3405668Y-13952636D01*
X3405668Y-13952636D02*
X3415192Y-13971683D01*
X3415192Y-13971683D02*
X3415192Y-14076445D01*
X3510430Y-14076445D02*
X3510430Y-13943112D01*
X3510430Y-13962159D02*
X3519954Y-13952636D01*
X3519954Y-13952636D02*
X3539001Y-13943112D01*
X3539001Y-13943112D02*
X3567573Y-13943112D01*
X3567573Y-13943112D02*
X3586620Y-13952636D01*
X3586620Y-13952636D02*
X3596144Y-13971683D01*
X3596144Y-13971683D02*
X3596144Y-14076445D01*
X3596144Y-13971683D02*
X3605668Y-13952636D01*
X3605668Y-13952636D02*
X3624716Y-13943112D01*
X3624716Y-13943112D02*
X3653287Y-13943112D01*
X3653287Y-13943112D02*
X3672335Y-13952636D01*
X3672335Y-13952636D02*
X3681858Y-13971683D01*
X3681858Y-13971683D02*
X3681858Y-14076445D01*
X4072335Y-13866921D02*
X3900906Y-14124064D01*
X4329478Y-13876445D02*
X4348525Y-13876445D01*
X4348525Y-13876445D02*
X4367573Y-13885969D01*
X4367573Y-13885969D02*
X4377097Y-13895493D01*
X4377097Y-13895493D02*
X4386621Y-13914540D01*
X4386621Y-13914540D02*
X4396144Y-13952636D01*
X4396144Y-13952636D02*
X4396144Y-14000255D01*
X4396144Y-14000255D02*
X4386621Y-14038350D01*
X4386621Y-14038350D02*
X4377097Y-14057398D01*
X4377097Y-14057398D02*
X4367573Y-14066921D01*
X4367573Y-14066921D02*
X4348525Y-14076445D01*
X4348525Y-14076445D02*
X4329478Y-14076445D01*
X4329478Y-14076445D02*
X4310430Y-14066921D01*
X4310430Y-14066921D02*
X4300906Y-14057398D01*
X4300906Y-14057398D02*
X4291382Y-14038350D01*
X4291382Y-14038350D02*
X4281859Y-14000255D01*
X4281859Y-14000255D02*
X4281859Y-13952636D01*
X4281859Y-13952636D02*
X4291382Y-13914540D01*
X4291382Y-13914540D02*
X4300906Y-13895493D01*
X4300906Y-13895493D02*
X4310430Y-13885969D01*
X4310430Y-13885969D02*
X4329478Y-13876445D01*
X4481859Y-14057398D02*
X4491382Y-14066921D01*
X4491382Y-14066921D02*
X4481859Y-14076445D01*
X4481859Y-14076445D02*
X4472335Y-14066921D01*
X4472335Y-14066921D02*
X4481859Y-14057398D01*
X4481859Y-14057398D02*
X4481859Y-14076445D01*
X4615192Y-13876445D02*
X4634240Y-13876445D01*
X4634240Y-13876445D02*
X4653287Y-13885969D01*
X4653287Y-13885969D02*
X4662811Y-13895493D01*
X4662811Y-13895493D02*
X4672335Y-13914540D01*
X4672335Y-13914540D02*
X4681859Y-13952636D01*
X4681859Y-13952636D02*
X4681859Y-14000255D01*
X4681859Y-14000255D02*
X4672335Y-14038350D01*
X4672335Y-14038350D02*
X4662811Y-14057398D01*
X4662811Y-14057398D02*
X4653287Y-14066921D01*
X4653287Y-14066921D02*
X4634240Y-14076445D01*
X4634240Y-14076445D02*
X4615192Y-14076445D01*
X4615192Y-14076445D02*
X4596144Y-14066921D01*
X4596144Y-14066921D02*
X4586621Y-14057398D01*
X4586621Y-14057398D02*
X4577097Y-14038350D01*
X4577097Y-14038350D02*
X4567573Y-14000255D01*
X4567573Y-14000255D02*
X4567573Y-13952636D01*
X4567573Y-13952636D02*
X4577097Y-13914540D01*
X4577097Y-13914540D02*
X4586621Y-13895493D01*
X4586621Y-13895493D02*
X4596144Y-13885969D01*
X4596144Y-13885969D02*
X4615192Y-13876445D01*
X4796144Y-13962159D02*
X4777097Y-13952636D01*
X4777097Y-13952636D02*
X4767573Y-13943112D01*
X4767573Y-13943112D02*
X4758049Y-13924064D01*
X4758049Y-13924064D02*
X4758049Y-13914540D01*
X4758049Y-13914540D02*
X4767573Y-13895493D01*
X4767573Y-13895493D02*
X4777097Y-13885969D01*
X4777097Y-13885969D02*
X4796144Y-13876445D01*
X4796144Y-13876445D02*
X4834240Y-13876445D01*
X4834240Y-13876445D02*
X4853287Y-13885969D01*
X4853287Y-13885969D02*
X4862811Y-13895493D01*
X4862811Y-13895493D02*
X4872335Y-13914540D01*
X4872335Y-13914540D02*
X4872335Y-13924064D01*
X4872335Y-13924064D02*
X4862811Y-13943112D01*
X4862811Y-13943112D02*
X4853287Y-13952636D01*
X4853287Y-13952636D02*
X4834240Y-13962159D01*
X4834240Y-13962159D02*
X4796144Y-13962159D01*
X4796144Y-13962159D02*
X4777097Y-13971683D01*
X4777097Y-13971683D02*
X4767573Y-13981207D01*
X4767573Y-13981207D02*
X4758049Y-14000255D01*
X4758049Y-14000255D02*
X4758049Y-14038350D01*
X4758049Y-14038350D02*
X4767573Y-14057398D01*
X4767573Y-14057398D02*
X4777097Y-14066921D01*
X4777097Y-14066921D02*
X4796144Y-14076445D01*
X4796144Y-14076445D02*
X4834240Y-14076445D01*
X4834240Y-14076445D02*
X4853287Y-14066921D01*
X4853287Y-14066921D02*
X4862811Y-14057398D01*
X4862811Y-14057398D02*
X4872335Y-14038350D01*
X4872335Y-14038350D02*
X4872335Y-14000255D01*
X4872335Y-14000255D02*
X4862811Y-13981207D01*
X4862811Y-13981207D02*
X4853287Y-13971683D01*
X4853287Y-13971683D02*
X4834240Y-13962159D01*
X5043763Y-13876445D02*
X5005668Y-13876445D01*
X5005668Y-13876445D02*
X4986621Y-13885969D01*
X4986621Y-13885969D02*
X4977097Y-13895493D01*
X4977097Y-13895493D02*
X4958049Y-13924064D01*
X4958049Y-13924064D02*
X4948525Y-13962159D01*
X4948525Y-13962159D02*
X4948525Y-14038350D01*
X4948525Y-14038350D02*
X4958049Y-14057398D01*
X4958049Y-14057398D02*
X4967573Y-14066921D01*
X4967573Y-14066921D02*
X4986621Y-14076445D01*
X4986621Y-14076445D02*
X5024716Y-14076445D01*
X5024716Y-14076445D02*
X5043763Y-14066921D01*
X5043763Y-14066921D02*
X5053287Y-14057398D01*
X5053287Y-14057398D02*
X5062811Y-14038350D01*
X5062811Y-14038350D02*
X5062811Y-13990731D01*
X5062811Y-13990731D02*
X5053287Y-13971683D01*
X5053287Y-13971683D02*
X5043763Y-13962159D01*
X5043763Y-13962159D02*
X5024716Y-13952636D01*
X5024716Y-13952636D02*
X4986621Y-13952636D01*
X4986621Y-13952636D02*
X4967573Y-13962159D01*
X4967573Y-13962159D02*
X4958049Y-13971683D01*
X4958049Y-13971683D02*
X4948525Y-13990731D01*
X5234240Y-13876445D02*
X5196144Y-13876445D01*
X5196144Y-13876445D02*
X5177097Y-13885969D01*
X5177097Y-13885969D02*
X5167573Y-13895493D01*
X5167573Y-13895493D02*
X5148525Y-13924064D01*
X5148525Y-13924064D02*
X5139002Y-13962159D01*
X5139002Y-13962159D02*
X5139002Y-14038350D01*
X5139002Y-14038350D02*
X5148525Y-14057398D01*
X5148525Y-14057398D02*
X5158049Y-14066921D01*
X5158049Y-14066921D02*
X5177097Y-14076445D01*
X5177097Y-14076445D02*
X5215192Y-14076445D01*
X5215192Y-14076445D02*
X5234240Y-14066921D01*
X5234240Y-14066921D02*
X5243763Y-14057398D01*
X5243763Y-14057398D02*
X5253287Y-14038350D01*
X5253287Y-14038350D02*
X5253287Y-13990731D01*
X5253287Y-13990731D02*
X5243763Y-13971683D01*
X5243763Y-13971683D02*
X5234240Y-13962159D01*
X5234240Y-13962159D02*
X5215192Y-13952636D01*
X5215192Y-13952636D02*
X5177097Y-13952636D01*
X5177097Y-13952636D02*
X5158049Y-13962159D01*
X5158049Y-13962159D02*
X5148525Y-13971683D01*
X5148525Y-13971683D02*
X5139002Y-13990731D01*
X5329478Y-13876445D02*
X5329478Y-13914540D01*
X5405668Y-13876445D02*
X5405668Y-13914540D01*
X5700906Y-14152636D02*
X5691382Y-14143112D01*
X5691382Y-14143112D02*
X5672335Y-14114540D01*
X5672335Y-14114540D02*
X5662811Y-14095493D01*
X5662811Y-14095493D02*
X5653287Y-14066921D01*
X5653287Y-14066921D02*
X5643763Y-14019302D01*
X5643763Y-14019302D02*
X5643763Y-13981207D01*
X5643763Y-13981207D02*
X5653287Y-13933588D01*
X5653287Y-13933588D02*
X5662811Y-13905017D01*
X5662811Y-13905017D02*
X5672335Y-13885969D01*
X5672335Y-13885969D02*
X5691382Y-13857398D01*
X5691382Y-13857398D02*
X5700906Y-13847874D01*
X5881859Y-14076445D02*
X5767573Y-14076445D01*
X5824716Y-14076445D02*
X5824716Y-13876445D01*
X5824716Y-13876445D02*
X5805668Y-13905017D01*
X5805668Y-13905017D02*
X5786621Y-13924064D01*
X5786621Y-13924064D02*
X5767573Y-13933588D01*
X5996144Y-13962159D02*
X5977097Y-13952636D01*
X5977097Y-13952636D02*
X5967573Y-13943112D01*
X5967573Y-13943112D02*
X5958049Y-13924064D01*
X5958049Y-13924064D02*
X5958049Y-13914540D01*
X5958049Y-13914540D02*
X5967573Y-13895493D01*
X5967573Y-13895493D02*
X5977097Y-13885969D01*
X5977097Y-13885969D02*
X5996144Y-13876445D01*
X5996144Y-13876445D02*
X6034240Y-13876445D01*
X6034240Y-13876445D02*
X6053287Y-13885969D01*
X6053287Y-13885969D02*
X6062811Y-13895493D01*
X6062811Y-13895493D02*
X6072335Y-13914540D01*
X6072335Y-13914540D02*
X6072335Y-13924064D01*
X6072335Y-13924064D02*
X6062811Y-13943112D01*
X6062811Y-13943112D02*
X6053287Y-13952636D01*
X6053287Y-13952636D02*
X6034240Y-13962159D01*
X6034240Y-13962159D02*
X5996144Y-13962159D01*
X5996144Y-13962159D02*
X5977097Y-13971683D01*
X5977097Y-13971683D02*
X5967573Y-13981207D01*
X5967573Y-13981207D02*
X5958049Y-14000255D01*
X5958049Y-14000255D02*
X5958049Y-14038350D01*
X5958049Y-14038350D02*
X5967573Y-14057398D01*
X5967573Y-14057398D02*
X5977097Y-14066921D01*
X5977097Y-14066921D02*
X5996144Y-14076445D01*
X5996144Y-14076445D02*
X6034240Y-14076445D01*
X6034240Y-14076445D02*
X6053287Y-14066921D01*
X6053287Y-14066921D02*
X6062811Y-14057398D01*
X6062811Y-14057398D02*
X6072335Y-14038350D01*
X6072335Y-14038350D02*
X6072335Y-14000255D01*
X6072335Y-14000255D02*
X6062811Y-13981207D01*
X6062811Y-13981207D02*
X6053287Y-13971683D01*
X6053287Y-13971683D02*
X6034240Y-13962159D01*
X6310430Y-14076445D02*
X6310430Y-13876445D01*
X6396144Y-14076445D02*
X6396144Y-13971683D01*
X6396144Y-13971683D02*
X6386621Y-13952636D01*
X6386621Y-13952636D02*
X6367573Y-13943112D01*
X6367573Y-13943112D02*
X6339002Y-13943112D01*
X6339002Y-13943112D02*
X6319954Y-13952636D01*
X6319954Y-13952636D02*
X6310430Y-13962159D01*
X6519954Y-14076445D02*
X6500906Y-14066921D01*
X6500906Y-14066921D02*
X6491383Y-14057398D01*
X6491383Y-14057398D02*
X6481859Y-14038350D01*
X6481859Y-14038350D02*
X6481859Y-13981207D01*
X6481859Y-13981207D02*
X6491383Y-13962159D01*
X6491383Y-13962159D02*
X6500906Y-13952636D01*
X6500906Y-13952636D02*
X6519954Y-13943112D01*
X6519954Y-13943112D02*
X6548525Y-13943112D01*
X6548525Y-13943112D02*
X6567573Y-13952636D01*
X6567573Y-13952636D02*
X6577097Y-13962159D01*
X6577097Y-13962159D02*
X6586621Y-13981207D01*
X6586621Y-13981207D02*
X6586621Y-14038350D01*
X6586621Y-14038350D02*
X6577097Y-14057398D01*
X6577097Y-14057398D02*
X6567573Y-14066921D01*
X6567573Y-14066921D02*
X6548525Y-14076445D01*
X6548525Y-14076445D02*
X6519954Y-14076445D01*
X6700906Y-14076445D02*
X6681859Y-14066921D01*
X6681859Y-14066921D02*
X6672335Y-14047874D01*
X6672335Y-14047874D02*
X6672335Y-13876445D01*
X6853287Y-14066921D02*
X6834240Y-14076445D01*
X6834240Y-14076445D02*
X6796144Y-14076445D01*
X6796144Y-14076445D02*
X6777097Y-14066921D01*
X6777097Y-14066921D02*
X6767573Y-14047874D01*
X6767573Y-14047874D02*
X6767573Y-13971683D01*
X6767573Y-13971683D02*
X6777097Y-13952636D01*
X6777097Y-13952636D02*
X6796144Y-13943112D01*
X6796144Y-13943112D02*
X6834240Y-13943112D01*
X6834240Y-13943112D02*
X6853287Y-13952636D01*
X6853287Y-13952636D02*
X6862811Y-13971683D01*
X6862811Y-13971683D02*
X6862811Y-13990731D01*
X6862811Y-13990731D02*
X6767573Y-14009779D01*
X6939002Y-14066921D02*
X6958049Y-14076445D01*
X6958049Y-14076445D02*
X6996144Y-14076445D01*
X6996144Y-14076445D02*
X7015192Y-14066921D01*
X7015192Y-14066921D02*
X7024716Y-14047874D01*
X7024716Y-14047874D02*
X7024716Y-14038350D01*
X7024716Y-14038350D02*
X7015192Y-14019302D01*
X7015192Y-14019302D02*
X6996144Y-14009779D01*
X6996144Y-14009779D02*
X6967573Y-14009779D01*
X6967573Y-14009779D02*
X6948525Y-14000255D01*
X6948525Y-14000255D02*
X6939002Y-13981207D01*
X6939002Y-13981207D02*
X6939002Y-13971683D01*
X6939002Y-13971683D02*
X6948525Y-13952636D01*
X6948525Y-13952636D02*
X6967573Y-13943112D01*
X6967573Y-13943112D02*
X6996144Y-13943112D01*
X6996144Y-13943112D02*
X7015192Y-13952636D01*
X7091383Y-14152636D02*
X7100906Y-14143112D01*
X7100906Y-14143112D02*
X7119954Y-14114540D01*
X7119954Y-14114540D02*
X7129478Y-14095493D01*
X7129478Y-14095493D02*
X7139002Y-14066921D01*
X7139002Y-14066921D02*
X7148525Y-14019302D01*
X7148525Y-14019302D02*
X7148525Y-13981207D01*
X7148525Y-13981207D02*
X7139002Y-13933588D01*
X7139002Y-13933588D02*
X7129478Y-13905017D01*
X7129478Y-13905017D02*
X7119954Y-13885969D01*
X7119954Y-13885969D02*
X7100906Y-13857398D01*
X7100906Y-13857398D02*
X7091383Y-13847874D01*
M02*
