G04 #@! TF.GenerationSoftware,KiCad,Pcbnew,8.0.5*
G04 #@! TF.CreationDate,2024-09-18T06:09:18+09:00*
G04 #@! TF.ProjectId,SandyLP_Base,53616e64-794c-4505-9f42-6173652e6b69,v.0*
G04 #@! TF.SameCoordinates,Original*
G04 #@! TF.FileFunction,Profile,NP*
%FSLAX46Y46*%
G04 Gerber Fmt 4.6, Leading zero omitted, Abs format (unit mm)*
G04 Created by KiCad (PCBNEW 8.0.5) date 2024-09-18 06:09:18*
%MOMM*%
%LPD*%
G01*
G04 APERTURE LIST*
G04 #@! TA.AperFunction,Profile*
%ADD10C,0.120000*%
G04 #@! TD*
G04 #@! TA.AperFunction,Profile*
%ADD11C,0.300000*%
G04 #@! TD*
G04 APERTURE END LIST*
D10*
X163520935Y-102403765D02*
X163870936Y-102403765D01*
X163520935Y-104003765D02*
X163870936Y-104003765D01*
X163520935Y-104003765D02*
G75*
G02*
X163520935Y-102403765I0J800000D01*
G01*
X163870936Y-102403765D02*
G75*
G02*
X163870936Y-104003765I1299999J-800000D01*
G01*
D11*
X21408435Y-109997115D02*
X21408435Y-39209615D01*
X292120935Y-34447115D02*
X26170935Y-34447115D01*
X292120935Y-114759615D02*
X26170935Y-114759615D01*
X296883435Y-109997115D02*
X296883435Y-39209615D01*
X21408435Y-39209615D02*
G75*
G02*
X26170935Y-34447115I4762500J0D01*
G01*
X26170935Y-114759615D02*
G75*
G02*
X21408435Y-109997115I0J4762500D01*
G01*
X292120935Y-34447115D02*
G75*
G02*
X296883425Y-39209615I0J-4762490D01*
G01*
X296883435Y-109997115D02*
G75*
G02*
X292120935Y-114759605I-4762500J10D01*
G01*
D10*
X27442810Y-88606530D02*
X27442810Y-91606530D01*
X27442810Y-91606530D02*
X31342810Y-91606530D01*
X31342810Y-88606530D02*
X27442810Y-88606530D01*
X31342810Y-91606530D02*
X31342810Y-88606530D01*
X286999060Y-88606530D02*
X286999060Y-91606530D01*
X286999060Y-91606530D02*
X290899060Y-91606530D01*
X290899060Y-88606530D02*
X286999060Y-88606530D01*
X290899060Y-91606530D02*
X290899060Y-88606530D01*
X286999060Y-82653405D02*
X286999060Y-85653405D01*
X286999060Y-85653405D02*
X290899060Y-85653405D01*
X290899060Y-82653405D02*
X286999060Y-82653405D01*
X290899060Y-85653405D02*
X290899060Y-82653405D01*
X286999060Y-76700280D02*
X286999060Y-79700280D01*
X286999060Y-79700280D02*
X290899060Y-79700280D01*
X290899060Y-76700280D02*
X286999060Y-76700280D01*
X290899060Y-79700280D02*
X290899060Y-76700280D01*
X27442810Y-82653405D02*
X27442810Y-85653405D01*
X27442810Y-85653405D02*
X31342810Y-85653405D01*
X31342810Y-82653405D02*
X27442810Y-82653405D01*
X31342810Y-85653405D02*
X31342810Y-82653405D01*
X27442810Y-76700280D02*
X27442810Y-79700280D01*
X27442810Y-79700280D02*
X31342810Y-79700280D01*
X31342810Y-76700280D02*
X27442810Y-76700280D01*
X31342810Y-79700280D02*
X31342810Y-76700280D01*
M02*
