G04 #@! TF.GenerationSoftware,KiCad,Pcbnew,8.0.5*
G04 #@! TF.CreationDate,2024-09-18T06:09:18+09:00*
G04 #@! TF.ProjectId,SandyLP_Base,53616e64-794c-4505-9f42-6173652e6b69,v.0*
G04 #@! TF.SameCoordinates,Original*
G04 #@! TF.FileFunction,Legend,Top*
G04 #@! TF.FilePolarity,Positive*
%FSLAX46Y46*%
G04 Gerber Fmt 4.6, Leading zero omitted, Abs format (unit mm)*
G04 Created by KiCad (PCBNEW 8.0.5) date 2024-09-18 06:09:18*
%MOMM*%
%LPD*%
G01*
G04 APERTURE LIST*
%ADD10C,0.330000*%
%ADD11C,0.060000*%
%ADD12C,0.120000*%
%ADD13C,0.000000*%
%ADD14C,3.000000*%
%ADD15C,5.000000*%
%ADD16C,1.600000*%
%ADD17C,2.200000*%
%ADD18O,3.300000X2.000000*%
%ADD19O,1.900000X1.600000*%
%ADD20O,1.300000X1.600000*%
%ADD21C,2.000000*%
%ADD22C,0.650000*%
%ADD23O,1.000000X1.600000*%
%ADD24O,1.000000X2.100000*%
%ADD25C,3.600000*%
%ADD26C,4.400000*%
%ADD27R,0.850000X0.850000*%
%ADD28O,0.850000X0.850000*%
%ADD29C,1.700000*%
%ADD30O,1.700000X1.700000*%
G04 APERTURE END LIST*
D10*
X25166189Y-41840905D02*
G75*
G02*
X22625681Y-41840905I-1270254J0D01*
G01*
X22625681Y-41840905D02*
G75*
G02*
X25166189Y-41840905I1270254J0D01*
G01*
X110434939Y-37719030D02*
G75*
G02*
X107894431Y-37719030I-1270254J0D01*
G01*
X107894431Y-37719030D02*
G75*
G02*
X110434939Y-37719030I1270254J0D01*
G01*
X210447439Y-37719030D02*
G75*
G02*
X207906931Y-37719030I-1270254J0D01*
G01*
X207906931Y-37719030D02*
G75*
G02*
X210447439Y-37719030I1270254J0D01*
G01*
X295716189Y-41840905D02*
G75*
G02*
X293175681Y-41840905I-1270254J0D01*
G01*
X293175681Y-41840905D02*
G75*
G02*
X295716189Y-41840905I1270254J0D01*
G01*
D11*
X62658662Y-79770431D02*
X63708662Y-79770431D01*
X62908662Y-79320431D02*
X63958662Y-79320431D01*
X63158662Y-78870431D02*
X64208662Y-78870431D01*
X63383662Y-78420431D02*
X64433662Y-78420431D01*
D12*
X63483662Y-80270431D02*
X64533662Y-78320431D01*
X63633662Y-77870431D02*
X62533662Y-79870431D01*
D11*
X63923461Y-77445478D02*
X64723461Y-78145478D01*
X64673461Y-77645478D02*
X63923461Y-77895478D01*
D12*
X63306302Y-77503036D02*
G75*
G02*
X63388662Y-77250432I97767J107852D01*
G01*
X63388662Y-77250432D02*
G75*
G02*
X65284844Y-78117627I324059J-1798087D01*
G01*
X63483662Y-80270431D02*
G75*
G02*
X62525084Y-79887589I-317503J596509D01*
G01*
X65199168Y-78356921D02*
G75*
G02*
X63278663Y-77470430I-168063J2159455D01*
G01*
X65281128Y-78120893D02*
G75*
G02*
X65199168Y-78356921I-107866J-94788D01*
G01*
D11*
X107902450Y-42861025D02*
X108952450Y-42861025D01*
X108152450Y-42411025D02*
X109202450Y-42411025D01*
X108402450Y-41961025D02*
X109452450Y-41961025D01*
X108627450Y-41511025D02*
X109677450Y-41511025D01*
D12*
X108727450Y-43361025D02*
X109777450Y-41411025D01*
X108877450Y-40961025D02*
X107777450Y-42961025D01*
D11*
X109167249Y-40536072D02*
X109967249Y-41236072D01*
X109917249Y-40736072D02*
X109167249Y-40986072D01*
D12*
X108550090Y-40593630D02*
G75*
G02*
X108632450Y-40341026I97767J107852D01*
G01*
X108632450Y-40341026D02*
G75*
G02*
X110528632Y-41208221I324059J-1798087D01*
G01*
X108727450Y-43361025D02*
G75*
G02*
X107768872Y-42978183I-317503J596509D01*
G01*
X110442956Y-41447515D02*
G75*
G02*
X108522451Y-40561024I-168063J2159455D01*
G01*
X110524916Y-41211487D02*
G75*
G02*
X110442956Y-41447515I-107866J-94788D01*
G01*
D10*
X108053689Y-112087780D02*
G75*
G02*
X105513181Y-112087780I-1270254J0D01*
G01*
X105513181Y-112087780D02*
G75*
G02*
X108053689Y-112087780I1270254J0D01*
G01*
X25966189Y-111287780D02*
G75*
G02*
X23425681Y-111287780I-1270254J0D01*
G01*
X23425681Y-111287780D02*
G75*
G02*
X25966189Y-111287780I1270254J0D01*
G01*
D11*
X26939882Y-109536081D02*
X27989882Y-109536081D01*
X27189882Y-109086081D02*
X28239882Y-109086081D01*
X27439882Y-108636081D02*
X28489882Y-108636081D01*
X27664882Y-108186081D02*
X28714882Y-108186081D01*
D12*
X27764882Y-110036081D02*
X28814882Y-108086081D01*
X27914882Y-107636081D02*
X26814882Y-109636081D01*
D11*
X28204681Y-107211128D02*
X29004681Y-107911128D01*
X28954681Y-107411128D02*
X28204681Y-107661128D01*
D12*
X27587522Y-107268686D02*
G75*
G02*
X27669882Y-107016082I97767J107852D01*
G01*
X27669882Y-107016082D02*
G75*
G02*
X29566064Y-107883277I324059J-1798087D01*
G01*
X27764882Y-110036081D02*
G75*
G02*
X26806304Y-109653239I-317503J596509D01*
G01*
X29480388Y-108122571D02*
G75*
G02*
X27559883Y-107236080I-168063J2159455D01*
G01*
X29562348Y-107886543D02*
G75*
G02*
X29480388Y-108122571I-107866J-94788D01*
G01*
D11*
X290663541Y-109536081D02*
X291713541Y-109536081D01*
X290913541Y-109086081D02*
X291963541Y-109086081D01*
X291163541Y-108636081D02*
X292213541Y-108636081D01*
X291388541Y-108186081D02*
X292438541Y-108186081D01*
D12*
X291488541Y-110036081D02*
X292538541Y-108086081D01*
X291638541Y-107636081D02*
X290538541Y-109636081D01*
D11*
X291928340Y-107211128D02*
X292728340Y-107911128D01*
X292678340Y-107411128D02*
X291928340Y-107661128D01*
D12*
X291311181Y-107268686D02*
G75*
G02*
X291393541Y-107016082I97767J107852D01*
G01*
X291393541Y-107016082D02*
G75*
G02*
X293289723Y-107883277I324059J-1798087D01*
G01*
X291488541Y-110036081D02*
G75*
G02*
X290529963Y-109653239I-317503J596509D01*
G01*
X293204047Y-108122571D02*
G75*
G02*
X291283542Y-107236080I-168063J2159455D01*
G01*
X293286007Y-107886543D02*
G75*
G02*
X293204047Y-108122571I-107866J-94788D01*
G01*
D10*
X294916189Y-111287780D02*
G75*
G02*
X292375681Y-111287780I-1270254J0D01*
G01*
X292375681Y-111287780D02*
G75*
G02*
X294916189Y-111287780I1270254J0D01*
G01*
X65191189Y-74628405D02*
G75*
G02*
X62650681Y-74628405I-1270254J0D01*
G01*
X62650681Y-74628405D02*
G75*
G02*
X65191189Y-74628405I1270254J0D01*
G01*
D11*
X207915034Y-108940768D02*
X208965034Y-108940768D01*
X208165034Y-108490768D02*
X209215034Y-108490768D01*
X208415034Y-108040768D02*
X209465034Y-108040768D01*
X208640034Y-107590768D02*
X209690034Y-107590768D01*
D12*
X208740034Y-109440768D02*
X209790034Y-107490768D01*
X208890034Y-107040768D02*
X207790034Y-109040768D01*
D11*
X209179833Y-106615815D02*
X209979833Y-107315815D01*
X209929833Y-106815815D02*
X209179833Y-107065815D01*
D12*
X208562674Y-106673373D02*
G75*
G02*
X208645034Y-106420769I97767J107852D01*
G01*
X208645034Y-106420769D02*
G75*
G02*
X210541216Y-107287964I324059J-1798087D01*
G01*
X208740034Y-109440768D02*
G75*
G02*
X207781456Y-109057926I-317503J596509D01*
G01*
X210455540Y-107527258D02*
G75*
G02*
X208535035Y-106640767I-168063J2159455D01*
G01*
X210537500Y-107291230D02*
G75*
G02*
X210455540Y-107527258I-107866J-94788D01*
G01*
D11*
X253158822Y-79770431D02*
X254208822Y-79770431D01*
X253408822Y-79320431D02*
X254458822Y-79320431D01*
X253658822Y-78870431D02*
X254708822Y-78870431D01*
X253883822Y-78420431D02*
X254933822Y-78420431D01*
D12*
X253983822Y-80270431D02*
X255033822Y-78320431D01*
X254133822Y-77870431D02*
X253033822Y-79870431D01*
D11*
X254423621Y-77445478D02*
X255223621Y-78145478D01*
X255173621Y-77645478D02*
X254423621Y-77895478D01*
D12*
X253806462Y-77503036D02*
G75*
G02*
X253888822Y-77250432I97767J107852D01*
G01*
X253888822Y-77250432D02*
G75*
G02*
X255785004Y-78117627I324059J-1798087D01*
G01*
X253983822Y-80270431D02*
G75*
G02*
X253025244Y-79887589I-317503J596509D01*
G01*
X255699328Y-78356921D02*
G75*
G02*
X253778823Y-77470430I-168063J2159455D01*
G01*
X255781288Y-78120893D02*
G75*
G02*
X255699328Y-78356921I-107866J-94788D01*
G01*
D10*
X255691189Y-74628405D02*
G75*
G02*
X253150681Y-74628405I-1270254J0D01*
G01*
X253150681Y-74628405D02*
G75*
G02*
X255691189Y-74628405I1270254J0D01*
G01*
D12*
X158521051Y-40517480D02*
X158721051Y-41317480D01*
X158521051Y-40517480D02*
X158771051Y-40067480D01*
X158721051Y-41317480D02*
X158971051Y-40867480D01*
X158721051Y-41317480D02*
X159521051Y-41917480D01*
X158771051Y-40067480D02*
X158971051Y-40867480D01*
X158771051Y-40067480D02*
X159536557Y-39853970D01*
X158971051Y-40867480D02*
X159771051Y-41467480D01*
X159521051Y-41917480D02*
X159771051Y-41467480D01*
X159521051Y-41917480D02*
X160286557Y-41703970D01*
X159536557Y-39853970D02*
X160336557Y-40453970D01*
X159771051Y-41467480D02*
X160536557Y-41253970D01*
X160286557Y-41703970D02*
X160536557Y-41253970D01*
X160336557Y-40453970D02*
X160536557Y-41253970D01*
X157838350Y-41827383D02*
G75*
G02*
X159496050Y-43217480I522704J-1060130D01*
G01*
X158393390Y-42342480D02*
G75*
G02*
X158821051Y-42897065I83516J-377783D01*
G01*
X158792873Y-42908954D02*
G75*
G02*
X158371052Y-42367481I-125701J337117D01*
G01*
X159443390Y-40367480D02*
G75*
G02*
X159871055Y-40922067I83511J-377790D01*
G01*
X159489993Y-43234293D02*
G75*
G02*
X157844087Y-41814017I-813036J721630D01*
G01*
X159842873Y-40933954D02*
G75*
G02*
X159421085Y-40392503I-125722J337074D01*
G01*
D11*
X154336864Y-75603240D02*
X155386864Y-75603240D01*
X154586864Y-75153240D02*
X155636864Y-75153240D01*
X154836864Y-74703240D02*
X155886864Y-74703240D01*
X155061864Y-74253240D02*
X156111864Y-74253240D01*
D12*
X155161864Y-76103240D02*
X156211864Y-74153240D01*
X155311864Y-73703240D02*
X154211864Y-75703240D01*
D11*
X155601663Y-73278287D02*
X156401663Y-73978287D01*
X156351663Y-73478287D02*
X155601663Y-73728287D01*
D12*
X154984504Y-73335845D02*
G75*
G02*
X155066864Y-73083241I97767J107852D01*
G01*
X155066864Y-73083241D02*
G75*
G02*
X156963046Y-73950436I324059J-1798087D01*
G01*
X155161864Y-76103240D02*
G75*
G02*
X154203286Y-75720398I-317503J596509D01*
G01*
X156877370Y-74189730D02*
G75*
G02*
X154956865Y-73303239I-168063J2159455D01*
G01*
X156959330Y-73953702D02*
G75*
G02*
X156877370Y-74189730I-107866J-94788D01*
G01*
D10*
X160441189Y-74628405D02*
G75*
G02*
X157900681Y-74628405I-1270254J0D01*
G01*
X157900681Y-74628405D02*
G75*
G02*
X160441189Y-74628405I1270254J0D01*
G01*
D11*
X22772691Y-47028216D02*
X23822691Y-47028216D01*
X23022691Y-46578216D02*
X24072691Y-46578216D01*
X23272691Y-46128216D02*
X24322691Y-46128216D01*
X23497691Y-45678216D02*
X24547691Y-45678216D01*
D12*
X23597691Y-47528216D02*
X24647691Y-45578216D01*
X23747691Y-45128216D02*
X22647691Y-47128216D01*
D11*
X24037490Y-44703263D02*
X24837490Y-45403263D01*
X24787490Y-44903263D02*
X24037490Y-45153263D01*
D12*
X23420331Y-44760821D02*
G75*
G02*
X23502691Y-44508217I97767J107852D01*
G01*
X23502691Y-44508217D02*
G75*
G02*
X25398873Y-45375412I324059J-1798087D01*
G01*
X23597691Y-47528216D02*
G75*
G02*
X22639113Y-47145374I-317503J596509D01*
G01*
X25313197Y-45614706D02*
G75*
G02*
X23392692Y-44728215I-168063J2159455D01*
G01*
X25395157Y-45378678D02*
G75*
G02*
X25313197Y-45614706I-107866J-94788D01*
G01*
D11*
X105521198Y-108940768D02*
X106571198Y-108940768D01*
X105771198Y-108490768D02*
X106821198Y-108490768D01*
X106021198Y-108040768D02*
X107071198Y-108040768D01*
X106246198Y-107590768D02*
X107296198Y-107590768D01*
D12*
X106346198Y-109440768D02*
X107396198Y-107490768D01*
X106496198Y-107040768D02*
X105396198Y-109040768D01*
D11*
X106785997Y-106615815D02*
X107585997Y-107315815D01*
X107535997Y-106815815D02*
X106785997Y-107065815D01*
D12*
X106168838Y-106673373D02*
G75*
G02*
X106251198Y-106420769I97767J107852D01*
G01*
X106251198Y-106420769D02*
G75*
G02*
X108147380Y-107287964I324059J-1798087D01*
G01*
X106346198Y-109440768D02*
G75*
G02*
X105387620Y-109057926I-317503J596509D01*
G01*
X108061704Y-107527258D02*
G75*
G02*
X106141199Y-106640767I-168063J2159455D01*
G01*
X108143664Y-107291230D02*
G75*
G02*
X108061704Y-107527258I-107866J-94788D01*
G01*
D13*
G36*
X174826452Y-40873864D02*
G01*
X174945456Y-40928685D01*
X174946439Y-40929851D01*
X174989292Y-41006983D01*
X175069270Y-41174417D01*
X175178241Y-41414217D01*
X175308073Y-41708445D01*
X175450633Y-42039162D01*
X175470065Y-42084814D01*
X175926565Y-43158894D01*
X177010965Y-43789693D01*
X177376766Y-44004143D01*
X177652054Y-44170293D01*
X177848923Y-44296722D01*
X177979472Y-44392007D01*
X178055798Y-44464728D01*
X178089995Y-44523462D01*
X178095364Y-44558686D01*
X178081577Y-44645220D01*
X178019567Y-44689261D01*
X177878362Y-44708760D01*
X177831392Y-44711662D01*
X177734496Y-44712141D01*
X177635941Y-44697309D01*
X177519524Y-44659811D01*
X177369039Y-44592289D01*
X177168281Y-44487385D01*
X176901045Y-44337743D01*
X176551127Y-44136006D01*
X176507058Y-44110414D01*
X175446696Y-43494387D01*
X173574033Y-43228311D01*
X173111614Y-43161370D01*
X172680647Y-43096625D01*
X172296457Y-43036560D01*
X171974368Y-42983660D01*
X171729708Y-42940409D01*
X171577801Y-42909294D01*
X171540053Y-42898539D01*
X171417360Y-42815112D01*
X171378736Y-42726701D01*
X171386377Y-42655246D01*
X171416902Y-42601366D01*
X171481715Y-42565090D01*
X171592218Y-42546449D01*
X171759816Y-42545474D01*
X171995911Y-42562193D01*
X172311908Y-42596639D01*
X172719209Y-42648840D01*
X173229217Y-42718827D01*
X173322331Y-42731848D01*
X173755512Y-42791766D01*
X174149645Y-42844823D01*
X174490167Y-42889175D01*
X174762514Y-42922978D01*
X174952122Y-42944389D01*
X175044429Y-42951564D01*
X175050937Y-42950701D01*
X175036026Y-42892746D01*
X174981831Y-42745190D01*
X174895467Y-42526187D01*
X174784049Y-42253893D01*
X174689030Y-42027285D01*
X174562142Y-41718295D01*
X174455182Y-41439936D01*
X174375561Y-41212975D01*
X174330692Y-41058182D01*
X174323895Y-41004121D01*
X174356992Y-40926575D01*
X174447991Y-40885252D01*
X174610202Y-40866458D01*
X174826452Y-40873864D01*
G37*
G36*
X164374476Y-49362557D02*
G01*
X164801277Y-49401166D01*
X164965831Y-49422169D01*
X165577322Y-49535390D01*
X166159652Y-49702578D01*
X166702014Y-49916428D01*
X167193602Y-50169637D01*
X167623610Y-50454901D01*
X167981230Y-50764915D01*
X168255656Y-51092375D01*
X168436083Y-51429978D01*
X168511703Y-51770418D01*
X168513328Y-51819912D01*
X168467233Y-52155016D01*
X168321378Y-52429937D01*
X168137805Y-52605455D01*
X167994649Y-52702736D01*
X167783036Y-52834742D01*
X167524071Y-52989519D01*
X167238858Y-53155113D01*
X166948502Y-53319570D01*
X166674108Y-53470936D01*
X166436781Y-53597255D01*
X166257625Y-53686575D01*
X166157951Y-53726894D01*
X165999784Y-53722497D01*
X165803919Y-53662868D01*
X165776658Y-53650700D01*
X165664796Y-53592864D01*
X165469729Y-53485829D01*
X165204061Y-53336904D01*
X164880396Y-53153396D01*
X164511338Y-52942613D01*
X164109491Y-52711863D01*
X163687458Y-52468453D01*
X163257845Y-52219692D01*
X162833254Y-51972887D01*
X162426290Y-51735345D01*
X162049556Y-51514376D01*
X161715657Y-51317285D01*
X161437196Y-51151382D01*
X161226778Y-51023973D01*
X161097006Y-50942367D01*
X161061131Y-50916641D01*
X161031441Y-50856826D01*
X161949131Y-50856826D01*
X163950885Y-52013834D01*
X164392264Y-52268421D01*
X164801900Y-52503683D01*
X165168695Y-52713322D01*
X165481551Y-52891039D01*
X165729367Y-53030537D01*
X165901046Y-53125517D01*
X165985488Y-53169681D01*
X165992008Y-53172083D01*
X166056411Y-53145152D01*
X166198731Y-53071526D01*
X166395545Y-52963624D01*
X166549283Y-52876593D01*
X166933343Y-52653130D01*
X167225685Y-52472130D01*
X167438558Y-52321697D01*
X167584213Y-52189935D01*
X167674897Y-52064948D01*
X167722862Y-51934840D01*
X167740357Y-51787714D01*
X167741566Y-51718717D01*
X167685187Y-51445518D01*
X167526388Y-51172322D01*
X167279851Y-50906250D01*
X166960262Y-50654424D01*
X166582304Y-50423965D01*
X166160661Y-50221995D01*
X165710017Y-50055636D01*
X165245057Y-49932008D01*
X164780463Y-49858234D01*
X164330920Y-49841434D01*
X163951937Y-49880803D01*
X163757584Y-49922292D01*
X163574320Y-49976947D01*
X163380486Y-50054542D01*
X163154425Y-50164847D01*
X162874475Y-50317636D01*
X162518980Y-50522681D01*
X162484373Y-50542957D01*
X161949131Y-50856826D01*
X161031441Y-50856826D01*
X161008135Y-50809874D01*
X161012977Y-50749500D01*
X161072329Y-50694726D01*
X161217950Y-50593460D01*
X161433500Y-50456090D01*
X161702637Y-50293001D01*
X162009020Y-50114583D01*
X162036413Y-50098954D01*
X162520227Y-49833102D01*
X162934211Y-49631931D01*
X163302498Y-49489866D01*
X163649217Y-49401332D01*
X163998499Y-49360754D01*
X164374476Y-49362557D01*
G37*
G36*
X142923791Y-59038701D02*
G01*
X143115426Y-59082161D01*
X143393473Y-59149692D01*
X143745586Y-59238000D01*
X144159423Y-59343789D01*
X144622638Y-59463767D01*
X145122888Y-59594639D01*
X145647828Y-59733110D01*
X146185114Y-59875887D01*
X146722403Y-60019674D01*
X147247350Y-60161179D01*
X147747611Y-60297106D01*
X148210841Y-60424161D01*
X148624697Y-60539050D01*
X148976835Y-60638479D01*
X149254910Y-60719154D01*
X149446578Y-60777780D01*
X149539494Y-60811063D01*
X149545193Y-60814430D01*
X149600242Y-60918776D01*
X149603853Y-60999369D01*
X149561815Y-61082987D01*
X149458297Y-61127875D01*
X149283119Y-61133569D01*
X149026102Y-61099605D01*
X148677066Y-61025520D01*
X148343479Y-60941963D01*
X147507824Y-60723405D01*
X146506878Y-61297692D01*
X146197612Y-61476542D01*
X145924316Y-61637276D01*
X145702987Y-61770264D01*
X145549622Y-61865878D01*
X145480219Y-61914489D01*
X145478194Y-61916859D01*
X145500760Y-61978536D01*
X145583519Y-62109987D01*
X145712405Y-62290157D01*
X145830101Y-62443604D01*
X146003467Y-62669503D01*
X146109823Y-62825995D01*
X146159409Y-62931974D01*
X146162462Y-63006333D01*
X146150838Y-63035540D01*
X146045122Y-63121539D01*
X145878066Y-63149929D01*
X145689771Y-63122041D01*
X145520338Y-63039202D01*
X145489457Y-63013625D01*
X145421307Y-62939100D01*
X145292322Y-62786914D01*
X145112180Y-62569176D01*
X144890556Y-62297994D01*
X144637130Y-61985478D01*
X144361578Y-61643734D01*
X144073578Y-61284874D01*
X143782807Y-60921004D01*
X143498944Y-60564234D01*
X143231665Y-60226673D01*
X142990649Y-59920429D01*
X142860027Y-59753029D01*
X143749786Y-59753029D01*
X143760867Y-59804387D01*
X143841711Y-59934506D01*
X143985020Y-60133681D01*
X144183494Y-60392212D01*
X144429833Y-60700396D01*
X144716739Y-61048530D01*
X144792177Y-61138562D01*
X145052782Y-61448602D01*
X145237122Y-61340339D01*
X145362448Y-61267856D01*
X145561005Y-61154281D01*
X145803825Y-61016141D01*
X146022732Y-60892124D01*
X146257502Y-60756352D01*
X146449298Y-60639655D01*
X146578032Y-60554661D01*
X146623653Y-60514365D01*
X146569688Y-60489190D01*
X146420354Y-60440705D01*
X146194156Y-60373812D01*
X145909603Y-60293415D01*
X145585203Y-60204416D01*
X145239463Y-60111718D01*
X144890890Y-60020225D01*
X144557992Y-59934840D01*
X144259278Y-59860465D01*
X144013254Y-59802003D01*
X143838428Y-59764357D01*
X143753307Y-59752431D01*
X143749786Y-59753029D01*
X142860027Y-59753029D01*
X142785572Y-59657611D01*
X142626112Y-59450327D01*
X142521946Y-59310686D01*
X142483158Y-59252086D01*
X142497722Y-59152442D01*
X142599087Y-59070185D01*
X142756765Y-59025433D01*
X142830911Y-59022606D01*
X142923791Y-59038701D01*
G37*
G36*
X134872202Y-60265048D02*
G01*
X134986697Y-60354818D01*
X135009221Y-60445830D01*
X134999719Y-60520540D01*
X134958256Y-60577113D01*
X134865396Y-60624409D01*
X134701703Y-60671290D01*
X134447740Y-60726614D01*
X134349846Y-60746423D01*
X133902219Y-60860548D01*
X133486867Y-61012683D01*
X133123049Y-61192707D01*
X132830023Y-61390498D01*
X132627049Y-61595937D01*
X132574711Y-61679289D01*
X132525053Y-61878004D01*
X132586701Y-62056499D01*
X132754551Y-62209124D01*
X133023496Y-62330231D01*
X133208373Y-62380402D01*
X133491546Y-62409231D01*
X133802831Y-62369482D01*
X134160722Y-62256879D01*
X134583715Y-62067142D01*
X134601791Y-62058118D01*
X135064228Y-61842075D01*
X135470167Y-61691136D01*
X135854169Y-61596429D01*
X136250795Y-61549084D01*
X136622385Y-61539445D01*
X136960246Y-61547442D01*
X137217426Y-61569927D01*
X137430163Y-61611672D01*
X137614927Y-61670143D01*
X138074178Y-61871882D01*
X138426626Y-62101818D01*
X138669297Y-62357595D01*
X138789053Y-62600117D01*
X138799044Y-62815922D01*
X138722243Y-63069574D01*
X138569450Y-63333802D01*
X138432549Y-63500392D01*
X138161831Y-63732825D01*
X137801315Y-63957337D01*
X137378355Y-64159757D01*
X136920308Y-64325911D01*
X136739706Y-64377391D01*
X136404393Y-64451405D01*
X136058156Y-64503720D01*
X135727670Y-64532606D01*
X135439608Y-64536331D01*
X135220647Y-64513164D01*
X135126542Y-64482088D01*
X135011129Y-64380860D01*
X134961418Y-64275431D01*
X134960321Y-64206372D01*
X134992922Y-64157241D01*
X135078045Y-64121645D01*
X135234513Y-64093192D01*
X135481151Y-64065491D01*
X135618429Y-64052330D01*
X136036518Y-63992412D01*
X136427779Y-63887229D01*
X136837173Y-63723121D01*
X137069102Y-63611495D01*
X137471549Y-63383367D01*
X137757451Y-63162434D01*
X137926734Y-62948972D01*
X137979322Y-62743258D01*
X137915143Y-62545569D01*
X137734122Y-62356182D01*
X137452357Y-62183448D01*
X137144070Y-62054451D01*
X136840414Y-61988045D01*
X136522364Y-61986177D01*
X136170895Y-62050792D01*
X135766981Y-62183840D01*
X135291598Y-62387265D01*
X135243863Y-62409463D01*
X134794927Y-62604941D01*
X134406069Y-62737919D01*
X134043331Y-62816045D01*
X133672753Y-62846969D01*
X133324599Y-62841777D01*
X132997213Y-62814469D01*
X132740488Y-62762991D01*
X132508685Y-62677851D01*
X132486819Y-62667907D01*
X132141484Y-62480685D01*
X131905255Y-62282482D01*
X131769923Y-62061378D01*
X131727277Y-61805454D01*
X131748713Y-61596331D01*
X131847134Y-61365954D01*
X132046241Y-61135213D01*
X132329740Y-60912694D01*
X132681337Y-60706987D01*
X133084740Y-60526681D01*
X133523654Y-60380363D01*
X133981787Y-60276623D01*
X134338808Y-60231045D01*
X134657487Y-60224190D01*
X134872202Y-60265048D01*
G37*
G36*
X154424320Y-54661069D02*
G01*
X154513500Y-54687321D01*
X154629750Y-54734318D01*
X154782476Y-54806922D01*
X154981081Y-54910000D01*
X155234969Y-55048414D01*
X155553546Y-55227030D01*
X155946216Y-55450711D01*
X156422382Y-55724321D01*
X156927164Y-56015588D01*
X157412026Y-56296935D01*
X157866092Y-56562859D01*
X158279132Y-56807195D01*
X158640917Y-57023778D01*
X158941219Y-57206443D01*
X159169809Y-57349024D01*
X159316459Y-57445355D01*
X159370518Y-57488334D01*
X159382922Y-57605637D01*
X159303264Y-57700878D01*
X159156704Y-57747276D01*
X159126173Y-57748379D01*
X159039774Y-57740247D01*
X158848635Y-57717058D01*
X158564156Y-57680348D01*
X158197738Y-57631652D01*
X157760782Y-57572507D01*
X157264689Y-57504449D01*
X156720860Y-57429014D01*
X156140696Y-57347737D01*
X155892889Y-57312787D01*
X155306447Y-57230247D01*
X154755994Y-57153416D01*
X154252283Y-57083749D01*
X153806064Y-57022704D01*
X153428087Y-56971736D01*
X153129105Y-56932301D01*
X152919867Y-56905856D01*
X152811126Y-56893856D01*
X152797824Y-56893574D01*
X152842922Y-56925449D01*
X152978261Y-57008734D01*
X153192244Y-57136589D01*
X153473275Y-57302171D01*
X153809759Y-57498639D01*
X154190097Y-57719150D01*
X154498453Y-57896942D01*
X154913792Y-58136394D01*
X155302547Y-58361517D01*
X155651468Y-58564562D01*
X155947305Y-58737779D01*
X156176807Y-58873420D01*
X156326724Y-58963735D01*
X156376311Y-58995211D01*
X156496425Y-59115816D01*
X156534373Y-59238811D01*
X156484463Y-59334249D01*
X156444839Y-59355732D01*
X156373982Y-59376605D01*
X156294922Y-59382706D01*
X156198484Y-59369633D01*
X156075496Y-59332982D01*
X155916784Y-59268348D01*
X155713176Y-59171328D01*
X155455498Y-59037518D01*
X155134576Y-58862514D01*
X154741239Y-58641911D01*
X154266312Y-58371307D01*
X153700622Y-58046297D01*
X153617042Y-57998151D01*
X153034338Y-57660531D01*
X152520426Y-57358902D01*
X152080684Y-57096559D01*
X151720490Y-56876798D01*
X151445223Y-56702914D01*
X151260261Y-56578203D01*
X151170983Y-56505959D01*
X151163654Y-56494985D01*
X151171026Y-56377152D01*
X151284692Y-56306713D01*
X151499637Y-56283230D01*
X151598140Y-56290927D01*
X151800918Y-56313359D01*
X152096057Y-56348999D01*
X152471645Y-56396317D01*
X152915767Y-56453786D01*
X153416510Y-56519877D01*
X153961960Y-56593064D01*
X154540205Y-56671818D01*
X154692019Y-56692682D01*
X155268887Y-56771755D01*
X155809604Y-56845183D01*
X156303231Y-56911530D01*
X156738824Y-56969357D01*
X157105443Y-57017227D01*
X157392145Y-57053702D01*
X157587990Y-57077344D01*
X157682036Y-57086716D01*
X157688832Y-57086478D01*
X157643731Y-57054486D01*
X157508078Y-56970766D01*
X157293096Y-56841949D01*
X157010008Y-56674668D01*
X156670037Y-56475556D01*
X156284406Y-56251245D01*
X155874972Y-56014501D01*
X155390490Y-55734428D01*
X154998593Y-55505797D01*
X154689722Y-55322339D01*
X154454316Y-55177783D01*
X154282815Y-55065861D01*
X154165659Y-54980303D01*
X154093288Y-54914840D01*
X154056143Y-54863201D01*
X154044663Y-54819119D01*
X154044556Y-54814123D01*
X154058737Y-54720717D01*
X154122686Y-54674097D01*
X154268510Y-54652931D01*
X154289554Y-54651340D01*
X154352806Y-54650697D01*
X154424320Y-54661069D01*
G37*
G36*
X180687671Y-64188046D02*
G01*
X180842896Y-64271070D01*
X181069296Y-64395755D01*
X181351621Y-64553661D01*
X181674626Y-64736349D01*
X181868352Y-64846766D01*
X182265474Y-65075980D01*
X182569026Y-65256880D01*
X182789044Y-65396201D01*
X182935563Y-65500674D01*
X183018618Y-65577033D01*
X183048245Y-65632010D01*
X183048701Y-65638683D01*
X183026080Y-65691072D01*
X182951524Y-65763835D01*
X182814996Y-65863704D01*
X182606459Y-65997411D01*
X182315874Y-66171688D01*
X181933205Y-66393266D01*
X181867941Y-66430599D01*
X181527181Y-66623562D01*
X181216827Y-66796045D01*
X180952494Y-66939633D01*
X180749796Y-67045914D01*
X180624348Y-67106470D01*
X180593813Y-67117254D01*
X180518576Y-67092132D01*
X180357815Y-67015112D01*
X180126813Y-66894317D01*
X179840849Y-66737871D01*
X179515206Y-66553898D01*
X179297905Y-66428305D01*
X178923082Y-66206195D01*
X178907422Y-66196557D01*
X179454822Y-66196557D01*
X179455331Y-66197145D01*
X179522907Y-66242548D01*
X179663409Y-66327467D01*
X179850882Y-66437104D01*
X180059369Y-66556665D01*
X180262914Y-66671354D01*
X180435559Y-66766376D01*
X180551350Y-66826936D01*
X180584701Y-66840899D01*
X180642902Y-66813852D01*
X180781447Y-66740195D01*
X180978844Y-66631568D01*
X181185971Y-66515273D01*
X181415017Y-66383939D01*
X181600852Y-66274250D01*
X181723024Y-66198487D01*
X181761646Y-66169498D01*
X181714277Y-66134637D01*
X181588624Y-66057553D01*
X181409368Y-65952258D01*
X181201191Y-65832764D01*
X180988774Y-65713081D01*
X180796800Y-65607222D01*
X180649950Y-65529197D01*
X180572905Y-65493019D01*
X180568271Y-65492031D01*
X180491215Y-65520549D01*
X180349033Y-65596097D01*
X180165412Y-65703666D01*
X179964041Y-65828249D01*
X179768607Y-65954838D01*
X179602801Y-66068424D01*
X179490310Y-66154000D01*
X179454822Y-66196557D01*
X178907422Y-66196557D01*
X178605554Y-66010773D01*
X178355793Y-65848903D01*
X178184269Y-65727450D01*
X178101455Y-65653280D01*
X178095364Y-65639871D01*
X178101779Y-65633152D01*
X178477422Y-65633152D01*
X178667686Y-65747475D01*
X178828812Y-65845723D01*
X178965924Y-65931600D01*
X178975272Y-65937617D01*
X179079098Y-65992229D01*
X179127016Y-66002041D01*
X179188038Y-65969934D01*
X179330241Y-65890313D01*
X179533385Y-65774638D01*
X179777232Y-65634367D01*
X179816277Y-65611793D01*
X180455922Y-65241730D01*
X180705757Y-65241730D01*
X181365688Y-65627749D01*
X181613725Y-65770731D01*
X181823946Y-65887940D01*
X181976550Y-65968630D01*
X182051737Y-66002051D01*
X182055550Y-66002207D01*
X182119002Y-65969672D01*
X182253154Y-65897031D01*
X182393142Y-65819846D01*
X182552877Y-65728073D01*
X182658468Y-65661405D01*
X182685843Y-65636832D01*
X182632692Y-65605318D01*
X182493496Y-65524766D01*
X182284103Y-65404293D01*
X182020361Y-65253016D01*
X181718119Y-65080051D01*
X181688321Y-65063017D01*
X180705757Y-64501418D01*
X180705757Y-64871574D01*
X180705757Y-65241730D01*
X180455922Y-65241730D01*
X180471115Y-65232940D01*
X180471115Y-64871574D01*
X180471115Y-64861998D01*
X180469425Y-64661648D01*
X180457809Y-64557161D01*
X180426446Y-64527076D01*
X180365519Y-64549935D01*
X180335784Y-64566255D01*
X180240805Y-64620021D01*
X180064346Y-64720811D01*
X179826577Y-64857070D01*
X179547670Y-65017243D01*
X179338937Y-65137303D01*
X178477422Y-65633152D01*
X178101779Y-65633152D01*
X178143975Y-65588956D01*
X178278510Y-65491599D01*
X178482026Y-65357768D01*
X178737580Y-65197433D01*
X179028227Y-65020562D01*
X179337024Y-64837125D01*
X179647028Y-64657090D01*
X179941294Y-64490428D01*
X180202879Y-64347106D01*
X180414840Y-64237094D01*
X180560232Y-64170362D01*
X180618869Y-64155126D01*
X180687671Y-64188046D01*
G37*
G36*
X174787469Y-59771267D02*
G01*
X174946425Y-59846121D01*
X175150311Y-59954303D01*
X175253063Y-60012408D01*
X175719614Y-60281514D01*
X175719614Y-60880127D01*
X175719614Y-61478740D01*
X175352986Y-61692112D01*
X175237228Y-61759367D01*
X175029929Y-61879682D01*
X174741048Y-62047282D01*
X174380545Y-62256389D01*
X173958380Y-62501228D01*
X173484511Y-62776023D01*
X172968900Y-63074997D01*
X172421504Y-63392375D01*
X171852285Y-63722379D01*
X171809564Y-63747146D01*
X168632770Y-65588808D01*
X169639125Y-66165837D01*
X169955452Y-66348630D01*
X170241677Y-66516690D01*
X170480253Y-66659502D01*
X170653633Y-66766549D01*
X170744269Y-66827315D01*
X170748136Y-66830467D01*
X170797323Y-66892346D01*
X170828276Y-66992443D01*
X170844768Y-67154925D01*
X170850569Y-67403958D01*
X170850792Y-67488212D01*
X170850792Y-68058358D01*
X170347704Y-68359028D01*
X170134610Y-68485572D01*
X169963177Y-68585841D01*
X169855507Y-68646997D01*
X169830081Y-68659699D01*
X169777987Y-68631155D01*
X169635132Y-68549602D01*
X169412090Y-68421157D01*
X169119432Y-68251938D01*
X168767731Y-68048063D01*
X168367559Y-67815649D01*
X167929489Y-67560814D01*
X167691518Y-67422224D01*
X165567491Y-66184749D01*
X165584083Y-65567596D01*
X165585684Y-65508034D01*
X165813970Y-65508034D01*
X165817854Y-65676759D01*
X165835318Y-66037469D01*
X167771115Y-67169172D01*
X168203332Y-67421725D01*
X168602706Y-67654836D01*
X168958163Y-67862062D01*
X169258631Y-68036958D01*
X169493037Y-68173080D01*
X169650308Y-68263985D01*
X169719372Y-68303227D01*
X169721577Y-68304306D01*
X169729084Y-68252674D01*
X169734372Y-68114358D01*
X169736242Y-67931488D01*
X169736242Y-67882447D01*
X169970944Y-67882447D01*
X169975058Y-68072422D01*
X169985846Y-68204922D01*
X169999333Y-68249075D01*
X170060613Y-68220743D01*
X170190262Y-68147322D01*
X170321966Y-68068062D01*
X170616150Y-67887049D01*
X170616150Y-67540118D01*
X170610722Y-67355969D01*
X170596633Y-67230166D01*
X170580800Y-67193186D01*
X170514175Y-67219728D01*
X170379437Y-67288191D01*
X170258227Y-67354502D01*
X169971003Y-67515819D01*
X169970944Y-67882447D01*
X169736242Y-67882447D01*
X169736242Y-67555240D01*
X168783009Y-67001898D01*
X168461447Y-66815530D01*
X168155963Y-66639021D01*
X167888546Y-66485036D01*
X167681184Y-66366239D01*
X167565803Y-66300838D01*
X167415810Y-66215532D01*
X167192758Y-66086962D01*
X166924698Y-65931371D01*
X166639682Y-65764999D01*
X166587762Y-65734585D01*
X166328576Y-65584113D01*
X166106042Y-65457645D01*
X165939367Y-65365890D01*
X165847759Y-65319555D01*
X165837042Y-65316050D01*
X165820512Y-65369304D01*
X165813970Y-65508034D01*
X165585684Y-65508034D01*
X165597823Y-65056539D01*
X165942518Y-65056539D01*
X167883376Y-66178485D01*
X169824233Y-67300431D01*
X170088205Y-67151019D01*
X170246480Y-67058990D01*
X170360562Y-66988176D01*
X170392284Y-66965410D01*
X170353626Y-66928337D01*
X170224965Y-66840732D01*
X170018315Y-66709999D01*
X169745694Y-66543538D01*
X169419116Y-66348754D01*
X169050597Y-66133047D01*
X168896441Y-66043891D01*
X168511089Y-65819229D01*
X168159988Y-65609650D01*
X167855796Y-65423100D01*
X167611174Y-65267524D01*
X167438782Y-65150870D01*
X167351278Y-65081082D01*
X167342979Y-65068878D01*
X167375728Y-65029783D01*
X167382241Y-65024952D01*
X167781412Y-65024952D01*
X167804613Y-65069317D01*
X167900546Y-65148620D01*
X168038204Y-65243004D01*
X168186583Y-65332610D01*
X168314676Y-65397581D01*
X168391476Y-65418059D01*
X168394075Y-65417333D01*
X168449623Y-65386401D01*
X168598365Y-65301318D01*
X168832045Y-65166858D01*
X169142408Y-64987795D01*
X169521196Y-64768900D01*
X169960153Y-64514948D01*
X170451023Y-64230712D01*
X170985550Y-63920964D01*
X171555478Y-63590479D01*
X171957701Y-63357113D01*
X175484972Y-61310186D01*
X175484972Y-60939835D01*
X175484972Y-60569483D01*
X174414418Y-61188984D01*
X174150044Y-61341813D01*
X173798677Y-61544687D01*
X173375011Y-61789136D01*
X172893738Y-62066688D01*
X172369552Y-62368872D01*
X171817145Y-62687215D01*
X171251210Y-63013247D01*
X170686440Y-63338496D01*
X170586819Y-63395854D01*
X170066028Y-63695950D01*
X169575604Y-63979028D01*
X169125015Y-64239592D01*
X168723727Y-64472145D01*
X168381205Y-64671190D01*
X168106917Y-64831229D01*
X167910328Y-64946766D01*
X167800905Y-65012304D01*
X167781412Y-65024952D01*
X167382241Y-65024952D01*
X167483547Y-64949810D01*
X167669509Y-64827109D01*
X167936684Y-64659830D01*
X168288146Y-64446121D01*
X168726964Y-64184132D01*
X169256211Y-63872012D01*
X169878958Y-63507910D01*
X170598278Y-63089975D01*
X171318466Y-62673383D01*
X171944623Y-62311001D01*
X172539501Y-61965161D01*
X173095527Y-61640363D01*
X173605128Y-61341102D01*
X174060731Y-61071876D01*
X174454764Y-60837181D01*
X174779651Y-60641516D01*
X175027821Y-60489378D01*
X175191701Y-60385263D01*
X175263716Y-60333669D01*
X175266232Y-60329066D01*
X175192093Y-60280149D01*
X175052755Y-60197785D01*
X174957027Y-60143657D01*
X174693055Y-59996760D01*
X170317787Y-62526649D01*
X165942518Y-65056539D01*
X165597823Y-65056539D01*
X165600676Y-64950443D01*
X170108335Y-62346872D01*
X170777346Y-61961003D01*
X171418246Y-61592404D01*
X172023645Y-61245265D01*
X172586152Y-60923776D01*
X173098377Y-60632125D01*
X173552929Y-60374503D01*
X173942417Y-60155099D01*
X174259450Y-59978103D01*
X174496638Y-59847704D01*
X174646590Y-59768091D01*
X174701253Y-59743302D01*
X174787469Y-59771267D01*
G37*
G36*
X180700961Y-63195512D02*
G01*
X180867364Y-63281844D01*
X181112110Y-63414471D01*
X181423688Y-63587002D01*
X181790588Y-63793044D01*
X182201303Y-64026207D01*
X182644321Y-64280097D01*
X182809512Y-64375349D01*
X184870653Y-65565763D01*
X184870653Y-66162815D01*
X184870653Y-66759867D01*
X182719960Y-68011210D01*
X182167497Y-68331477D01*
X181707990Y-68595060D01*
X181333973Y-68805935D01*
X181037979Y-68968075D01*
X180812540Y-69085456D01*
X180650190Y-69162051D01*
X180543462Y-69201834D01*
X180484889Y-69208781D01*
X180476196Y-69205442D01*
X180403552Y-69162425D01*
X180242829Y-69068217D01*
X180007365Y-68930602D01*
X179710499Y-68757368D01*
X179365569Y-68556301D01*
X178985913Y-68335190D01*
X178844532Y-68252896D01*
X177305939Y-67357464D01*
X174928480Y-68741838D01*
X174444575Y-69022364D01*
X173989388Y-69283844D01*
X173573373Y-69520443D01*
X173206980Y-69726327D01*
X172900663Y-69895665D01*
X172664873Y-70022621D01*
X172510062Y-70101364D01*
X172447959Y-70126212D01*
X172353942Y-70096934D01*
X172190000Y-70018649D01*
X171984968Y-69905676D01*
X171889300Y-69848751D01*
X171433701Y-69571291D01*
X171438018Y-69412601D01*
X171672039Y-69412601D01*
X171980007Y-69592131D01*
X172144369Y-69686851D01*
X172261690Y-69752398D01*
X172302639Y-69772954D01*
X172310215Y-69720223D01*
X172314856Y-69598546D01*
X172560800Y-69598546D01*
X172570248Y-69730475D01*
X172587756Y-69774248D01*
X172645463Y-69745640D01*
X172794109Y-69663761D01*
X173023338Y-69534530D01*
X173322795Y-69363868D01*
X173682123Y-69157693D01*
X174090966Y-68921924D01*
X174538968Y-68662482D01*
X174907645Y-68448239D01*
X177186127Y-67122229D01*
X177186127Y-67116079D01*
X177420769Y-67116079D01*
X178931277Y-68001675D01*
X179311391Y-68224369D01*
X179657402Y-68426770D01*
X179956755Y-68601560D01*
X180196893Y-68741418D01*
X180365262Y-68839026D01*
X180449307Y-68887063D01*
X180456450Y-68890805D01*
X180463951Y-68839225D01*
X180469238Y-68700924D01*
X180469667Y-68658952D01*
X180714430Y-68658952D01*
X180723377Y-68791367D01*
X180740378Y-68835680D01*
X180798393Y-68807111D01*
X180946356Y-68725699D01*
X181172979Y-68597892D01*
X181466972Y-68430135D01*
X181817046Y-68228875D01*
X182211913Y-68000558D01*
X182640282Y-67751630D01*
X182708304Y-67711993D01*
X184636011Y-66588306D01*
X184636011Y-66219931D01*
X184636011Y-65851556D01*
X183506796Y-66503927D01*
X183110193Y-66732991D01*
X182684847Y-66978552D01*
X182263202Y-67221884D01*
X181877706Y-67444264D01*
X181560802Y-67626966D01*
X181556334Y-67629541D01*
X180735087Y-68102785D01*
X180717623Y-68469232D01*
X180714430Y-68658952D01*
X180469667Y-68658952D01*
X180471115Y-68517462D01*
X180471115Y-68140584D01*
X179635203Y-67657553D01*
X179280843Y-67452691D01*
X178892998Y-67228316D01*
X178513112Y-67008413D01*
X178182627Y-66816964D01*
X178110030Y-66774879D01*
X177420769Y-66375237D01*
X177420769Y-66745658D01*
X177420769Y-67116079D01*
X177186127Y-67116079D01*
X177186127Y-66776414D01*
X177184993Y-66745658D01*
X177179356Y-66592799D01*
X177161783Y-66467752D01*
X177142131Y-66431512D01*
X177083760Y-66460175D01*
X176934376Y-66541823D01*
X176704424Y-66670526D01*
X176404350Y-66840357D01*
X176044598Y-67045387D01*
X175635613Y-67279689D01*
X175187839Y-67537332D01*
X174839706Y-67738345D01*
X172581277Y-69044266D01*
X172563812Y-69409257D01*
X172560800Y-69598546D01*
X172314856Y-69598546D01*
X172315512Y-69581343D01*
X172317304Y-69405316D01*
X172317304Y-69036383D01*
X171994672Y-68851073D01*
X171672039Y-68665762D01*
X171672039Y-69039182D01*
X171672039Y-69412601D01*
X171438018Y-69412601D01*
X171448176Y-69039182D01*
X171450214Y-68964258D01*
X171464857Y-68425981D01*
X171888137Y-68425981D01*
X171908834Y-68473909D01*
X172010695Y-68556468D01*
X172146417Y-68640977D01*
X172452572Y-68813943D01*
X174830407Y-67440205D01*
X175313906Y-67161163D01*
X175767430Y-66899976D01*
X176180647Y-66662554D01*
X176543224Y-66454808D01*
X176844831Y-66282648D01*
X177075134Y-66151985D01*
X177223802Y-66068731D01*
X177279676Y-66039056D01*
X177346337Y-66060655D01*
X177501254Y-66134853D01*
X177731572Y-66254748D01*
X178024435Y-66413434D01*
X178366988Y-66604008D01*
X178746376Y-66819567D01*
X178929439Y-66925048D01*
X179322139Y-67150889D01*
X179684238Y-67356417D01*
X180002776Y-67534490D01*
X180264791Y-67677961D01*
X180457321Y-67779689D01*
X180567405Y-67832528D01*
X180586617Y-67838452D01*
X180653755Y-67810033D01*
X180810581Y-67729101D01*
X181045377Y-67602141D01*
X181346425Y-67435637D01*
X181702006Y-67236077D01*
X182100403Y-67009945D01*
X182529896Y-66763725D01*
X182563300Y-66744477D01*
X183057090Y-66459089D01*
X183457273Y-66225741D01*
X183772442Y-66038859D01*
X184011190Y-65892867D01*
X184182110Y-65782191D01*
X184293795Y-65701256D01*
X184354837Y-65644486D01*
X184373830Y-65606307D01*
X184359365Y-65581143D01*
X184357926Y-65580133D01*
X184203285Y-65480913D01*
X183974979Y-65342749D01*
X183686882Y-65173365D01*
X183352869Y-64980488D01*
X182986813Y-64771843D01*
X182602587Y-64555155D01*
X182214066Y-64338150D01*
X181835122Y-64128553D01*
X181479630Y-63934091D01*
X181161463Y-63762488D01*
X180894496Y-63621470D01*
X180692601Y-63518763D01*
X180569652Y-63462093D01*
X180538917Y-63453520D01*
X180476714Y-63485400D01*
X180322092Y-63570768D01*
X180084188Y-63704372D01*
X179772140Y-63880958D01*
X179395086Y-64095274D01*
X178962163Y-64342069D01*
X178482510Y-64616090D01*
X177965264Y-64912084D01*
X177419562Y-65224800D01*
X176854542Y-65548984D01*
X176279343Y-65879385D01*
X175703101Y-66210750D01*
X175134955Y-66537826D01*
X174584042Y-66855362D01*
X174059500Y-67158106D01*
X173570466Y-67440803D01*
X173126079Y-67698204D01*
X172735476Y-67925054D01*
X172407795Y-68116102D01*
X172152173Y-68266095D01*
X171977748Y-68369781D01*
X171893659Y-68421908D01*
X171888137Y-68425981D01*
X171464857Y-68425981D01*
X171466727Y-68357224D01*
X175983586Y-65748010D01*
X176891633Y-65224498D01*
X177699555Y-64760893D01*
X178407915Y-64356883D01*
X179017272Y-64012155D01*
X179528190Y-63726395D01*
X179941229Y-63499292D01*
X180256951Y-63330531D01*
X180475917Y-63219800D01*
X180598690Y-63166787D01*
X180624408Y-63161866D01*
X180700961Y-63195512D01*
G37*
G36*
X175817861Y-38086482D02*
G01*
X175979358Y-38173089D01*
X176227413Y-38310059D01*
X176554555Y-38493155D01*
X176953313Y-38718138D01*
X177416217Y-38980771D01*
X177935796Y-39276815D01*
X178504578Y-39602034D01*
X179115092Y-39952189D01*
X179759869Y-40323043D01*
X180369908Y-40674829D01*
X184870653Y-43273407D01*
X184870653Y-45954626D01*
X184870653Y-48635845D01*
X180292797Y-51289664D01*
X175714941Y-53943484D01*
X175250726Y-53675725D01*
X175043310Y-53557983D01*
X174876122Y-53466629D01*
X174773645Y-53414871D01*
X174754449Y-53407967D01*
X174746146Y-53464164D01*
X174738567Y-53622906D01*
X174732008Y-53869417D01*
X174726764Y-54188920D01*
X174723131Y-54566641D01*
X174721403Y-54987802D01*
X174721319Y-55065126D01*
X174720252Y-56722285D01*
X170317993Y-59274018D01*
X169654686Y-59658322D01*
X169017873Y-60026937D01*
X168415221Y-60375443D01*
X167854400Y-60699422D01*
X167343077Y-60994453D01*
X166888920Y-61256119D01*
X166499599Y-61480000D01*
X166182781Y-61661677D01*
X165946135Y-61796732D01*
X165797329Y-61880745D01*
X165747246Y-61907962D01*
X165657107Y-61944880D01*
X165573578Y-61949499D01*
X165467431Y-61913665D01*
X165309435Y-61829228D01*
X165168838Y-61746646D01*
X164974777Y-61633659D01*
X164942722Y-61615893D01*
X165746058Y-61615893D01*
X166527035Y-61163546D01*
X166711178Y-61056851D01*
X166986215Y-60897435D01*
X167341553Y-60691442D01*
X167766599Y-60445013D01*
X168250759Y-60164291D01*
X168783442Y-59855416D01*
X169354054Y-59524532D01*
X169952002Y-59177781D01*
X170566693Y-58821304D01*
X170897878Y-58629233D01*
X174487743Y-56547266D01*
X174487743Y-54096202D01*
X174487743Y-51645139D01*
X174326427Y-51732423D01*
X174251652Y-51774744D01*
X174083201Y-51871287D01*
X173828938Y-52017513D01*
X173496733Y-52208883D01*
X173094451Y-52440858D01*
X172629960Y-52708899D01*
X172111127Y-53008467D01*
X171545819Y-53335022D01*
X170941904Y-53684026D01*
X170307248Y-54050939D01*
X169970884Y-54245457D01*
X165776658Y-56671205D01*
X165761358Y-59143549D01*
X165746058Y-61615893D01*
X164942722Y-61615893D01*
X164821180Y-61548529D01*
X164734206Y-61505615D01*
X164725178Y-61503117D01*
X164709789Y-61557235D01*
X164698079Y-61701450D01*
X164691929Y-61908549D01*
X164691438Y-61991577D01*
X164691438Y-62480038D01*
X160197615Y-65085919D01*
X159529276Y-65472978D01*
X158888550Y-65843076D01*
X158282883Y-66191969D01*
X157719720Y-66515412D01*
X157206506Y-66809161D01*
X156750686Y-67068970D01*
X156359707Y-67290596D01*
X156041013Y-67469794D01*
X155802050Y-67602319D01*
X155650262Y-67683927D01*
X155594180Y-67710360D01*
X155510238Y-67687735D01*
X155344212Y-67613541D01*
X155114361Y-67497001D01*
X154838944Y-67347337D01*
X154563250Y-67189631D01*
X154209614Y-66985871D01*
X153943361Y-66840535D01*
X153753372Y-66748314D01*
X153628532Y-66703899D01*
X153557723Y-66701979D01*
X153549941Y-66705686D01*
X153485701Y-66743236D01*
X153327869Y-66835011D01*
X153084365Y-66976417D01*
X152763110Y-67162860D01*
X152372023Y-67389746D01*
X151919023Y-67652481D01*
X151412032Y-67946471D01*
X150858968Y-68267123D01*
X150267752Y-68609842D01*
X149646304Y-68970036D01*
X149485489Y-69063236D01*
X145513027Y-71365443D01*
X143771863Y-70354757D01*
X143359883Y-70116702D01*
X142978859Y-69898613D01*
X142640940Y-69707283D01*
X142358277Y-69549508D01*
X142143020Y-69432081D01*
X142007320Y-69361797D01*
X141964432Y-69344071D01*
X141903342Y-69372768D01*
X141749651Y-69455535D01*
X141512132Y-69587389D01*
X141199557Y-69763345D01*
X140820700Y-69978420D01*
X140384333Y-70227630D01*
X139899230Y-70505989D01*
X139374163Y-70808516D01*
X138817906Y-71130224D01*
X138694673Y-71201654D01*
X138132466Y-71526894D01*
X137599187Y-71833924D01*
X137103652Y-72117763D01*
X136654680Y-72373432D01*
X136261087Y-72595949D01*
X135931689Y-72780335D01*
X135675304Y-72921610D01*
X135500748Y-73014793D01*
X135416839Y-73054905D01*
X135411518Y-73056118D01*
X135350060Y-73026805D01*
X135194603Y-72942607D01*
X134952505Y-72807730D01*
X134631122Y-72626376D01*
X134237810Y-72402750D01*
X133779925Y-72141056D01*
X133264825Y-71845497D01*
X132699866Y-71520279D01*
X132092404Y-71169604D01*
X131449797Y-70797677D01*
X130814995Y-70429379D01*
X126298136Y-67805759D01*
X126298136Y-65180602D01*
X126505680Y-65180602D01*
X126507913Y-67633140D01*
X130890553Y-70169602D01*
X131548272Y-70550169D01*
X132176407Y-70913445D01*
X132767611Y-71255190D01*
X133314537Y-71571166D01*
X133809838Y-71857134D01*
X134246169Y-72108856D01*
X134616181Y-72322093D01*
X134912529Y-72492605D01*
X135127866Y-72616155D01*
X135254845Y-72688503D01*
X135287859Y-72706669D01*
X135290987Y-72650163D01*
X135293887Y-72488470D01*
X135296487Y-72233720D01*
X135298714Y-71898048D01*
X135300495Y-71493585D01*
X135301758Y-71032465D01*
X135302431Y-70526820D01*
X135302523Y-70254766D01*
X135537166Y-70254766D01*
X135537166Y-72710077D01*
X135735462Y-72606019D01*
X135815992Y-72561017D01*
X135990055Y-72461722D01*
X136249709Y-72312718D01*
X136587010Y-72118590D01*
X136994015Y-71883923D01*
X137462779Y-71613301D01*
X137985360Y-71311308D01*
X138553815Y-70982530D01*
X139160199Y-70631551D01*
X139796569Y-70262955D01*
X140133753Y-70067551D01*
X141655654Y-69185423D01*
X142307650Y-69185423D01*
X142315250Y-69204456D01*
X142387048Y-69245783D01*
X142546468Y-69338238D01*
X142779790Y-69473843D01*
X143073296Y-69644618D01*
X143413263Y-69842582D01*
X143785974Y-70059756D01*
X143853504Y-70099120D01*
X144227566Y-70316357D01*
X144568910Y-70513030D01*
X144864370Y-70681678D01*
X145100779Y-70814838D01*
X145264970Y-70905049D01*
X145343775Y-70944850D01*
X145348136Y-70946105D01*
X145357525Y-70889766D01*
X145366211Y-70728254D01*
X145373976Y-70473711D01*
X145380606Y-70138285D01*
X145385883Y-69734121D01*
X145389592Y-69273363D01*
X145391515Y-68768157D01*
X145391720Y-68520676D01*
X145626773Y-68520676D01*
X145627182Y-69124898D01*
X145628649Y-69621736D01*
X145631533Y-70021123D01*
X145636195Y-70332993D01*
X145642995Y-70567281D01*
X145652293Y-70733920D01*
X145664448Y-70842845D01*
X145679822Y-70903989D01*
X145698773Y-70927287D01*
X145713969Y-70926550D01*
X145776893Y-70892648D01*
X145933699Y-70804175D01*
X146176823Y-70665491D01*
X146498700Y-70480954D01*
X146891766Y-70254921D01*
X147348454Y-69991751D01*
X147861200Y-69695802D01*
X148422439Y-69371433D01*
X149024606Y-69023000D01*
X149660136Y-68654863D01*
X150113508Y-68392011D01*
X153378847Y-66498173D01*
X153956565Y-66498173D01*
X154003733Y-66535669D01*
X154130606Y-66618603D01*
X154315241Y-66733831D01*
X154535693Y-66868213D01*
X154770018Y-67008605D01*
X154996272Y-67141867D01*
X155192510Y-67254857D01*
X155336788Y-67334432D01*
X155407162Y-67367451D01*
X155408413Y-67367651D01*
X155411540Y-67311343D01*
X155414439Y-67149836D01*
X155417038Y-66895251D01*
X155419264Y-66559710D01*
X155421046Y-66155333D01*
X155422310Y-65694242D01*
X155422984Y-65188559D01*
X155423075Y-64920091D01*
X155659945Y-64920091D01*
X155660320Y-65443286D01*
X155662308Y-65928256D01*
X155665737Y-66362846D01*
X155670437Y-66734902D01*
X155676236Y-67032270D01*
X155682963Y-67242794D01*
X155690446Y-67354322D01*
X155694478Y-67369168D01*
X155749604Y-67340417D01*
X155898776Y-67257001D01*
X156134590Y-67123179D01*
X156449639Y-66943206D01*
X156836519Y-66721340D01*
X157287824Y-66461838D01*
X157796149Y-66168956D01*
X158354089Y-65846952D01*
X158954237Y-65500083D01*
X159589188Y-65132605D01*
X160094016Y-64840104D01*
X164456796Y-62311041D01*
X164456796Y-59856711D01*
X164456796Y-57402382D01*
X163298251Y-58072419D01*
X163034735Y-58224676D01*
X162682640Y-58427886D01*
X162255080Y-58674492D01*
X161765165Y-58956938D01*
X161226009Y-59267667D01*
X160650722Y-59599122D01*
X160052416Y-59943746D01*
X159444205Y-60293982D01*
X158900938Y-60606736D01*
X155662170Y-62471015D01*
X155659945Y-64920091D01*
X155423075Y-64920091D01*
X155423078Y-64910776D01*
X155423078Y-62452384D01*
X155056450Y-62246438D01*
X154689822Y-62040492D01*
X154674401Y-64056009D01*
X154658979Y-66071526D01*
X154307772Y-66264603D01*
X154131947Y-66366740D01*
X154005967Y-66450370D01*
X153956588Y-66497700D01*
X153956565Y-66498173D01*
X153378847Y-66498173D01*
X154425849Y-65890931D01*
X154425849Y-63438290D01*
X154425849Y-60985649D01*
X150158298Y-63448453D01*
X149505770Y-63825131D01*
X148880552Y-64186245D01*
X148290378Y-64527317D01*
X147742980Y-64843868D01*
X147246093Y-65131421D01*
X146807448Y-65385497D01*
X146434781Y-65601616D01*
X146135823Y-65775301D01*
X145918308Y-65902073D01*
X145789971Y-65977454D01*
X145758759Y-65996299D01*
X145626773Y-66081341D01*
X145626773Y-68520676D01*
X145391720Y-68520676D01*
X145391739Y-68498382D01*
X145391351Y-66081341D01*
X145391346Y-66049306D01*
X144982420Y-65826604D01*
X144573493Y-65603903D01*
X144557523Y-66705324D01*
X144541554Y-67806745D01*
X143384593Y-68481084D01*
X142988309Y-68714717D01*
X142689005Y-68897549D01*
X142480149Y-69033998D01*
X142355208Y-69128483D01*
X142307650Y-69185423D01*
X141655654Y-69185423D01*
X144333748Y-67633140D01*
X144334995Y-65182662D01*
X144336242Y-62732185D01*
X144140494Y-62836242D01*
X144060329Y-62881177D01*
X143886552Y-62980280D01*
X143627104Y-63128979D01*
X143289927Y-63322700D01*
X142882965Y-63556868D01*
X142414159Y-63826909D01*
X141891452Y-64128250D01*
X141322787Y-64456317D01*
X140716104Y-64806536D01*
X140079348Y-65174333D01*
X139740956Y-65369877D01*
X135537166Y-67799455D01*
X135537166Y-70254766D01*
X135302523Y-70254766D01*
X135302524Y-70251004D01*
X135302524Y-67799455D01*
X135302524Y-67794733D01*
X130946981Y-65284133D01*
X130290160Y-64905561D01*
X129662395Y-64543795D01*
X129071135Y-64203124D01*
X128523829Y-63887835D01*
X128027925Y-63602220D01*
X127590871Y-63350566D01*
X127220116Y-63137162D01*
X126923108Y-62966298D01*
X126707297Y-62842262D01*
X126580129Y-62769343D01*
X126547443Y-62750798D01*
X126538112Y-62802471D01*
X126529560Y-62959467D01*
X126521993Y-63209791D01*
X126515619Y-63541446D01*
X126510642Y-63942437D01*
X126507270Y-64400768D01*
X126505708Y-64904442D01*
X126505680Y-65180602D01*
X126298136Y-65180602D01*
X126298136Y-65109057D01*
X126298136Y-62513317D01*
X126752190Y-62513317D01*
X126806200Y-62554718D01*
X126953166Y-62648386D01*
X127184028Y-62789134D01*
X127489729Y-62971772D01*
X127861210Y-63191112D01*
X128289412Y-63441965D01*
X128765277Y-63719143D01*
X129279747Y-64017457D01*
X129823762Y-64331719D01*
X130388264Y-64656739D01*
X130964194Y-64987330D01*
X131542495Y-65318303D01*
X132114106Y-65644470D01*
X132669971Y-65960640D01*
X133201030Y-66261627D01*
X133698224Y-66542242D01*
X134152496Y-66797295D01*
X134554786Y-67021599D01*
X134896036Y-67209965D01*
X135167188Y-67357204D01*
X135359182Y-67458127D01*
X135462960Y-67507547D01*
X135478505Y-67511586D01*
X135541660Y-67477943D01*
X135698806Y-67389974D01*
X135942339Y-67252030D01*
X136264659Y-67068465D01*
X136658163Y-66843630D01*
X137115248Y-66581877D01*
X137628312Y-66287558D01*
X138189754Y-65965025D01*
X138791970Y-65618631D01*
X139427359Y-65252726D01*
X139858185Y-65004390D01*
X140665726Y-64538089D01*
X141375462Y-64126812D01*
X141991768Y-63767929D01*
X142519016Y-63458809D01*
X142961579Y-63196821D01*
X143323829Y-62979336D01*
X143610141Y-62803722D01*
X143824887Y-62667348D01*
X143972439Y-62567585D01*
X144057172Y-62501801D01*
X144083457Y-62467366D01*
X144081742Y-62463649D01*
X144021605Y-62424920D01*
X143867329Y-62332112D01*
X143626480Y-62189634D01*
X143306624Y-62001892D01*
X142915326Y-61773293D01*
X142460150Y-61508246D01*
X141948662Y-61211157D01*
X141388428Y-60886434D01*
X140787013Y-60538484D01*
X140151981Y-60171716D01*
X139718488Y-59921691D01*
X138707895Y-59339133D01*
X139291775Y-59339133D01*
X139341037Y-59374412D01*
X139482645Y-59462410D01*
X139707135Y-59597550D01*
X140005041Y-59774255D01*
X140366897Y-59986948D01*
X140783240Y-60230050D01*
X141244602Y-60497984D01*
X141741520Y-60785173D01*
X141929787Y-60893637D01*
X144568136Y-62412355D01*
X144570401Y-63849537D01*
X144572666Y-65286720D01*
X144997064Y-65534963D01*
X145202403Y-65649675D01*
X145375540Y-65736592D01*
X145487058Y-65781261D01*
X145504468Y-65784270D01*
X145566737Y-65755716D01*
X145722955Y-65672572D01*
X145965579Y-65539110D01*
X146287070Y-65359599D01*
X146679887Y-65138310D01*
X147136491Y-64879514D01*
X147649341Y-64587481D01*
X148210896Y-64266482D01*
X148813616Y-63920786D01*
X149449962Y-63554665D01*
X149921060Y-63282920D01*
X150574031Y-62905095D01*
X151196083Y-62543661D01*
X151779940Y-62202934D01*
X152318329Y-61887228D01*
X152803974Y-61600859D01*
X153229599Y-61348142D01*
X153587931Y-61133392D01*
X153871695Y-60960925D01*
X154073614Y-60835054D01*
X154186415Y-60760096D01*
X154208262Y-60739965D01*
X154145684Y-60700184D01*
X153990734Y-60607674D01*
X153752548Y-60467685D01*
X153440265Y-60285469D01*
X153063021Y-60066278D01*
X152629954Y-59815362D01*
X152150199Y-59537973D01*
X151632894Y-59239362D01*
X151087177Y-58924781D01*
X150522183Y-58599480D01*
X149947051Y-58268712D01*
X149370917Y-57937728D01*
X148802918Y-57611778D01*
X148252191Y-57296115D01*
X147727873Y-56995990D01*
X147239101Y-56716653D01*
X147214642Y-56702702D01*
X147758544Y-56702702D01*
X147819740Y-56738021D01*
X147973991Y-56827100D01*
X148212765Y-56965012D01*
X148527530Y-57146829D01*
X148909755Y-57367621D01*
X149350908Y-57622460D01*
X149842458Y-57906419D01*
X150375872Y-58214568D01*
X150942619Y-58541980D01*
X151228852Y-58707340D01*
X154631161Y-60672901D01*
X154647884Y-61194461D01*
X154664606Y-61716021D01*
X155087838Y-61959975D01*
X155288344Y-62072449D01*
X155450933Y-62157916D01*
X155548404Y-62202276D01*
X155561377Y-62205486D01*
X155618641Y-62177048D01*
X155769973Y-62094095D01*
X156007906Y-61960885D01*
X156324971Y-61781678D01*
X156713699Y-61560733D01*
X157166624Y-61302309D01*
X157676275Y-61010665D01*
X158235186Y-60690061D01*
X158835888Y-60344756D01*
X159470912Y-59979009D01*
X159948399Y-59703551D01*
X160739879Y-59246150D01*
X161434585Y-58843526D01*
X162037758Y-58492515D01*
X162554640Y-58189950D01*
X162990471Y-57932667D01*
X163350492Y-57717500D01*
X163639943Y-57541284D01*
X163864065Y-57400852D01*
X164028098Y-57293041D01*
X164137285Y-57214683D01*
X164196865Y-57162615D01*
X164212078Y-57133670D01*
X164209639Y-57129746D01*
X164144633Y-57086881D01*
X163987801Y-56991701D01*
X163748236Y-56849437D01*
X163435031Y-56665321D01*
X163057279Y-56444584D01*
X162624074Y-56192458D01*
X162144510Y-55914175D01*
X161627678Y-55614965D01*
X161082674Y-55300061D01*
X160518589Y-54974693D01*
X159944518Y-54644095D01*
X159369553Y-54313497D01*
X158802789Y-53988130D01*
X158253317Y-53673227D01*
X157730232Y-53374019D01*
X157242627Y-53095737D01*
X156799595Y-52843614D01*
X156410229Y-52622880D01*
X156083623Y-52438767D01*
X155828870Y-52296507D01*
X155655064Y-52201331D01*
X155571297Y-52158471D01*
X155565418Y-52156543D01*
X155498956Y-52185026D01*
X155342631Y-52266839D01*
X155105817Y-52396523D01*
X154797886Y-52568619D01*
X154428210Y-52777670D01*
X154006164Y-53018217D01*
X153541120Y-53284803D01*
X153042450Y-53571969D01*
X152519529Y-53874257D01*
X151981728Y-54186209D01*
X151438421Y-54502367D01*
X150898980Y-54817272D01*
X150372780Y-55125467D01*
X149869191Y-55421494D01*
X149397588Y-55699894D01*
X148967344Y-55955210D01*
X148587830Y-56181982D01*
X148268421Y-56374754D01*
X148018489Y-56528066D01*
X147847407Y-56636461D01*
X147764549Y-56694481D01*
X147758544Y-56702702D01*
X147214642Y-56702702D01*
X146795012Y-56463357D01*
X146404744Y-56241353D01*
X146077433Y-56055891D01*
X145822215Y-55912224D01*
X145648229Y-55815603D01*
X145564611Y-55771278D01*
X145559182Y-55769049D01*
X145495527Y-55793520D01*
X145341638Y-55870701D01*
X145108219Y-55994494D01*
X144805974Y-56158801D01*
X144445607Y-56357525D01*
X144037821Y-56584570D01*
X143593321Y-56833837D01*
X143122810Y-57099230D01*
X142636992Y-57374652D01*
X142146572Y-57654005D01*
X141662251Y-57931192D01*
X141194736Y-58200116D01*
X140754729Y-58454680D01*
X140352934Y-58688787D01*
X140000055Y-58896339D01*
X139706797Y-59071239D01*
X139483861Y-59207390D01*
X139341954Y-59298695D01*
X139291778Y-59339056D01*
X139291775Y-59339133D01*
X138707895Y-59339133D01*
X135423366Y-57445761D01*
X131079370Y-59954313D01*
X130424829Y-60332981D01*
X129800602Y-60695449D01*
X129214018Y-61037384D01*
X128672409Y-61354448D01*
X128183106Y-61642308D01*
X127753441Y-61896626D01*
X127390744Y-62113067D01*
X127102347Y-62287297D01*
X126895580Y-62414979D01*
X126777776Y-62491778D01*
X126752190Y-62513317D01*
X126298136Y-62513317D01*
X126298136Y-62412355D01*
X130785665Y-59817698D01*
X131453501Y-59431813D01*
X132093378Y-59062573D01*
X132697866Y-58714237D01*
X133259534Y-58391066D01*
X133770952Y-58097319D01*
X134224689Y-57837255D01*
X134613316Y-57615133D01*
X134929401Y-57435212D01*
X135165514Y-57301753D01*
X135314225Y-57219013D01*
X135367187Y-57191437D01*
X135442413Y-57212091D01*
X135609499Y-57288780D01*
X135859848Y-57416933D01*
X136184868Y-57591979D01*
X136575962Y-57809346D01*
X137024536Y-58064464D01*
X137214185Y-58173772D01*
X138967189Y-59187712D01*
X142193398Y-57324398D01*
X142758426Y-56998920D01*
X143294962Y-56691512D01*
X143794150Y-56407139D01*
X144247136Y-56150768D01*
X144645067Y-55927363D01*
X144979086Y-55741890D01*
X145240341Y-55599316D01*
X145419975Y-55504605D01*
X145509135Y-55462724D01*
X145516028Y-55461084D01*
X145596162Y-55489516D01*
X145758741Y-55568386D01*
X145985435Y-55688064D01*
X146257915Y-55838914D01*
X146511878Y-55984478D01*
X146843157Y-56175275D01*
X147089592Y-56311431D01*
X147266276Y-56399764D01*
X147388298Y-56447092D01*
X147470752Y-56460234D01*
X147528728Y-56446006D01*
X147530934Y-56444867D01*
X147599730Y-56406118D01*
X147762091Y-56313317D01*
X148009990Y-56171088D01*
X148335397Y-55984054D01*
X148730283Y-55756835D01*
X149186618Y-55494055D01*
X149696374Y-55200336D01*
X150251521Y-54880300D01*
X150844029Y-54538569D01*
X151465871Y-54179767D01*
X151598384Y-54103287D01*
X155546207Y-51824712D01*
X155792610Y-51950345D01*
X156003492Y-52064173D01*
X156216342Y-52188324D01*
X156258990Y-52214764D01*
X156478967Y-52353549D01*
X156478967Y-52211580D01*
X156719827Y-52211580D01*
X156723754Y-52368711D01*
X156733371Y-52436286D01*
X156787113Y-52475529D01*
X156934842Y-52568549D01*
X157168773Y-52710756D01*
X157481119Y-52897560D01*
X157864096Y-53124371D01*
X158309919Y-53386599D01*
X158810801Y-53679653D01*
X159358958Y-53998945D01*
X159946605Y-54339884D01*
X160565956Y-54697879D01*
X160723758Y-54788885D01*
X164688344Y-57074248D01*
X164691459Y-59127366D01*
X164694573Y-61180484D01*
X165059634Y-61394477D01*
X165244635Y-61500352D01*
X165389913Y-61578744D01*
X165466268Y-61613950D01*
X165468690Y-61614454D01*
X165478080Y-61559126D01*
X165486785Y-61398584D01*
X165494587Y-61144934D01*
X165501268Y-60810284D01*
X165506611Y-60406739D01*
X165510398Y-59946406D01*
X165512412Y-59441392D01*
X165512686Y-59167959D01*
X165512686Y-56715479D01*
X161127813Y-54183361D01*
X156742940Y-51651242D01*
X156725255Y-52010146D01*
X156719827Y-52211580D01*
X156478967Y-52211580D01*
X156478967Y-51834042D01*
X156478967Y-51412573D01*
X156891333Y-51412573D01*
X156941134Y-51446758D01*
X157083856Y-51533901D01*
X157310512Y-51668831D01*
X157612116Y-51846377D01*
X157979681Y-52061369D01*
X158404222Y-52308634D01*
X158876751Y-52583001D01*
X159388281Y-52879301D01*
X159929826Y-53192360D01*
X160492400Y-53517009D01*
X161067016Y-53848076D01*
X161644687Y-54180389D01*
X162216428Y-54508779D01*
X162773250Y-54828073D01*
X163306168Y-55133100D01*
X163806195Y-55418690D01*
X164264344Y-55679671D01*
X164671630Y-55910871D01*
X165019065Y-56107121D01*
X165297662Y-56263249D01*
X165498436Y-56374083D01*
X165612400Y-56434452D01*
X165635549Y-56444259D01*
X165691040Y-56413275D01*
X165840654Y-56327899D01*
X166076928Y-56192428D01*
X166392397Y-56011160D01*
X166779599Y-55788390D01*
X167231070Y-55528418D01*
X167739346Y-55235539D01*
X168296965Y-54914051D01*
X168896463Y-54568251D01*
X169530376Y-54202437D01*
X169992065Y-53935911D01*
X170644913Y-53558600D01*
X171267799Y-53197873D01*
X171853335Y-52858052D01*
X172394134Y-52543458D01*
X172882809Y-52258412D01*
X173311972Y-52007235D01*
X173674238Y-51794249D01*
X173962217Y-51623774D01*
X174168524Y-51500131D01*
X174285771Y-51427642D01*
X174310901Y-51409608D01*
X174261421Y-51375957D01*
X174117621Y-51288081D01*
X173886861Y-51150286D01*
X173576498Y-50966878D01*
X173193891Y-50742162D01*
X172746400Y-50480444D01*
X172241382Y-50186030D01*
X171686195Y-49863226D01*
X171088200Y-49516336D01*
X170454753Y-49149668D01*
X169964530Y-48866412D01*
X169158534Y-48401631D01*
X168448561Y-47993527D01*
X167829516Y-47639286D01*
X167296303Y-47336091D01*
X166843827Y-47081128D01*
X166466994Y-46871579D01*
X166160708Y-46704631D01*
X165919874Y-46577467D01*
X165739398Y-46487271D01*
X165614184Y-46431229D01*
X165539137Y-46406523D01*
X165513279Y-46406572D01*
X165428437Y-46452323D01*
X165254363Y-46550213D01*
X165000057Y-46695018D01*
X164674517Y-46881513D01*
X164286745Y-47104473D01*
X163845738Y-47358672D01*
X163360497Y-47638884D01*
X162840021Y-47939886D01*
X162293309Y-48256452D01*
X161729362Y-48583355D01*
X161157178Y-48915372D01*
X160585758Y-49247277D01*
X160024100Y-49573845D01*
X159481204Y-49889850D01*
X158966070Y-50190068D01*
X158487697Y-50469272D01*
X158055084Y-50722239D01*
X157677232Y-50943742D01*
X157363139Y-51128557D01*
X157121806Y-51271458D01*
X156962231Y-51367220D01*
X156893414Y-51410618D01*
X156891333Y-51412573D01*
X156478967Y-51412573D01*
X156478967Y-51314535D01*
X161016789Y-48694969D01*
X161687384Y-48308193D01*
X162329258Y-47938643D01*
X162935109Y-47590487D01*
X163497632Y-47267892D01*
X164009523Y-46975023D01*
X164463480Y-46716050D01*
X164852199Y-46495137D01*
X165168375Y-46316451D01*
X165404705Y-46184160D01*
X165553887Y-46102431D01*
X165608419Y-46075403D01*
X165680442Y-46103367D01*
X165826301Y-46177984D01*
X166019354Y-46285339D01*
X166100736Y-46332520D01*
X166539244Y-46589637D01*
X166568575Y-44920629D01*
X166570548Y-44808365D01*
X166805343Y-44808365D01*
X166805513Y-45174554D01*
X166807809Y-46749999D01*
X170763596Y-49028100D01*
X174719383Y-51306202D01*
X174735549Y-52191287D01*
X174751716Y-53076372D01*
X175162339Y-53318047D01*
X175572963Y-53559722D01*
X175588281Y-51125507D01*
X175588532Y-51076212D01*
X175839160Y-51076212D01*
X175839538Y-51599407D01*
X175841537Y-52084376D01*
X175844983Y-52518966D01*
X175849705Y-52891022D01*
X175855531Y-53188390D01*
X175862288Y-53398915D01*
X175869805Y-53510442D01*
X175873855Y-53525288D01*
X175929002Y-53496532D01*
X176078190Y-53413101D01*
X176314014Y-53279255D01*
X176629068Y-53099250D01*
X177015947Y-52877344D01*
X177467246Y-52617795D01*
X177975559Y-52324861D01*
X178533482Y-52002799D01*
X179133609Y-51655866D01*
X179768535Y-51288322D01*
X180273393Y-50995737D01*
X184636011Y-48466185D01*
X184636011Y-46012344D01*
X184636011Y-43558502D01*
X183477466Y-44228539D01*
X183213949Y-44380796D01*
X182861855Y-44584006D01*
X182434295Y-44830613D01*
X181944380Y-45113058D01*
X181405224Y-45423787D01*
X180829937Y-45755242D01*
X180231631Y-46099866D01*
X179623419Y-46450102D01*
X179080153Y-46762856D01*
X175841384Y-48627135D01*
X175839160Y-51076212D01*
X175588532Y-51076212D01*
X175591483Y-50496885D01*
X175592317Y-49976639D01*
X175590575Y-49555842D01*
X175586047Y-49225571D01*
X175578524Y-48976898D01*
X175567797Y-48800899D01*
X175553657Y-48688648D01*
X175535894Y-48631220D01*
X175529620Y-48623155D01*
X175469366Y-48584770D01*
X175316519Y-48493236D01*
X175080224Y-48353833D01*
X174769623Y-48171843D01*
X174393858Y-47952549D01*
X173962074Y-47701231D01*
X173483413Y-47423171D01*
X172967017Y-47123652D01*
X172422031Y-46807954D01*
X171857596Y-46481360D01*
X171282856Y-46149150D01*
X170706954Y-45816607D01*
X170139032Y-45489012D01*
X169588234Y-45171647D01*
X169063703Y-44869793D01*
X168574581Y-44588733D01*
X168130012Y-44333747D01*
X167739139Y-44110118D01*
X167411104Y-43923127D01*
X167155051Y-43778055D01*
X166980122Y-43680185D01*
X166895460Y-43634798D01*
X166890677Y-43632672D01*
X166864324Y-43634760D01*
X166843815Y-43671799D01*
X166828476Y-43755993D01*
X166817634Y-43899544D01*
X166810613Y-44114654D01*
X166806741Y-44413527D01*
X166805343Y-44808365D01*
X166570548Y-44808365D01*
X166595864Y-43367774D01*
X167009059Y-43367774D01*
X167066428Y-43404227D01*
X167215898Y-43493488D01*
X167448480Y-43630371D01*
X167755185Y-43809693D01*
X168127024Y-44026268D01*
X168555008Y-44274913D01*
X169030148Y-44550442D01*
X169543453Y-44847671D01*
X170085936Y-45161416D01*
X170648606Y-45486491D01*
X171222475Y-45817713D01*
X171798553Y-46149896D01*
X172367851Y-46477856D01*
X172921380Y-46796409D01*
X173450151Y-47100370D01*
X173945174Y-47384554D01*
X174397460Y-47643777D01*
X174798021Y-47872855D01*
X175137866Y-48066602D01*
X175408007Y-48219834D01*
X175599454Y-48327366D01*
X175703218Y-48384015D01*
X175719614Y-48391627D01*
X175773689Y-48361423D01*
X175921966Y-48276845D01*
X176157034Y-48142159D01*
X176471477Y-47961628D01*
X176857884Y-47739518D01*
X177308840Y-47480091D01*
X177816932Y-47187614D01*
X178374747Y-46866349D01*
X178974872Y-46520562D01*
X179609893Y-46154517D01*
X180103968Y-45869618D01*
X180879819Y-45421839D01*
X181559605Y-45028677D01*
X182149153Y-44686596D01*
X182654292Y-44392059D01*
X183080850Y-44141528D01*
X183434654Y-43931467D01*
X183721533Y-43758339D01*
X183947315Y-43618605D01*
X184117828Y-43508731D01*
X184238899Y-43425178D01*
X184316357Y-43364409D01*
X184356029Y-43322888D01*
X184363744Y-43297078D01*
X184356855Y-43288548D01*
X184266448Y-43232359D01*
X184086686Y-43125340D01*
X183826651Y-42972703D01*
X183495425Y-42779654D01*
X183102093Y-42551403D01*
X182655735Y-42293157D01*
X182165435Y-42010127D01*
X181640277Y-41707519D01*
X181089341Y-41390543D01*
X180521712Y-41064407D01*
X179946472Y-40734321D01*
X179372703Y-40405491D01*
X178809489Y-40083128D01*
X178265912Y-39772438D01*
X177751055Y-39478632D01*
X177274001Y-39206918D01*
X176843831Y-38962503D01*
X176469630Y-38750598D01*
X176160480Y-38576409D01*
X175925463Y-38445146D01*
X175773663Y-38362018D01*
X175714161Y-38332232D01*
X175713947Y-38332216D01*
X175651909Y-38360687D01*
X175498580Y-38442655D01*
X175262898Y-38572947D01*
X174953801Y-38746396D01*
X174580224Y-38957830D01*
X174151107Y-39202079D01*
X173675387Y-39473973D01*
X173162000Y-39768343D01*
X172619886Y-40080017D01*
X172057980Y-40403826D01*
X171485221Y-40734600D01*
X170910547Y-41067169D01*
X170342894Y-41396362D01*
X169791200Y-41717010D01*
X169264402Y-42023941D01*
X168771439Y-42311987D01*
X168321248Y-42575977D01*
X167922766Y-42810741D01*
X167584930Y-43011108D01*
X167316679Y-43171909D01*
X167126949Y-43287974D01*
X167024679Y-43354132D01*
X167009059Y-43367774D01*
X166595864Y-43367774D01*
X166597905Y-43251622D01*
X171114764Y-40642160D01*
X171970077Y-40149055D01*
X172744513Y-39704691D01*
X173435776Y-39310349D01*
X174041572Y-38967311D01*
X174559604Y-38676857D01*
X174987578Y-38440269D01*
X175323198Y-38258828D01*
X175564168Y-38133817D01*
X175708194Y-38066515D01*
X175750393Y-38054475D01*
X175817861Y-38086482D01*
G37*
D10*
X210447439Y-112087780D02*
G75*
G02*
X207906931Y-112087780I-1270254J0D01*
G01*
X207906931Y-112087780D02*
G75*
G02*
X210447439Y-112087780I1270254J0D01*
G01*
D11*
X289472915Y-42861025D02*
X290522915Y-42861025D01*
X289722915Y-42411025D02*
X290772915Y-42411025D01*
X289972915Y-41961025D02*
X291022915Y-41961025D01*
X290197915Y-41511025D02*
X291247915Y-41511025D01*
D12*
X290297915Y-43361025D02*
X291347915Y-41411025D01*
X290447915Y-40961025D02*
X289347915Y-42961025D01*
D11*
X290737714Y-40536072D02*
X291537714Y-41236072D01*
X291487714Y-40736072D02*
X290737714Y-40986072D01*
D12*
X290120555Y-40593630D02*
G75*
G02*
X290202915Y-40341026I97767J107852D01*
G01*
X290202915Y-40341026D02*
G75*
G02*
X292099097Y-41208221I324059J-1798087D01*
G01*
X290297915Y-43361025D02*
G75*
G02*
X289339337Y-42978183I-317503J596509D01*
G01*
X292013421Y-41447515D02*
G75*
G02*
X290092916Y-40561024I-168063J2159455D01*
G01*
X292095381Y-41211487D02*
G75*
G02*
X292013421Y-41447515I-107866J-94788D01*
G01*
X158521051Y-68497191D02*
X158721051Y-69297191D01*
X158521051Y-68497191D02*
X158771051Y-68047191D01*
X158721051Y-69297191D02*
X158971051Y-68847191D01*
X158721051Y-69297191D02*
X159521051Y-69897191D01*
X158771051Y-68047191D02*
X158971051Y-68847191D01*
X158771051Y-68047191D02*
X159536557Y-67833681D01*
X158971051Y-68847191D02*
X159771051Y-69447191D01*
X159521051Y-69897191D02*
X159771051Y-69447191D01*
X159521051Y-69897191D02*
X160286557Y-69683681D01*
X159536557Y-67833681D02*
X160336557Y-68433681D01*
X159771051Y-69447191D02*
X160536557Y-69233681D01*
X160286557Y-69683681D02*
X160536557Y-69233681D01*
X160336557Y-68433681D02*
X160536557Y-69233681D01*
X157838350Y-69807094D02*
G75*
G02*
X159496050Y-71197191I522704J-1060130D01*
G01*
X158393390Y-70322191D02*
G75*
G02*
X158821051Y-70876776I83516J-377783D01*
G01*
X158792873Y-70888665D02*
G75*
G02*
X158371052Y-70347192I-125701J337117D01*
G01*
X159443390Y-68347191D02*
G75*
G02*
X159871055Y-68901778I83511J-377790D01*
G01*
X159489993Y-71214004D02*
G75*
G02*
X157844087Y-69793728I-813036J721630D01*
G01*
X159842873Y-68913665D02*
G75*
G02*
X159421085Y-68372214I-125722J337074D01*
G01*
D11*
X207915034Y-42861025D02*
X208965034Y-42861025D01*
X208165034Y-42411025D02*
X209215034Y-42411025D01*
X208415034Y-41961025D02*
X209465034Y-41961025D01*
X208640034Y-41511025D02*
X209690034Y-41511025D01*
D12*
X208740034Y-43361025D02*
X209790034Y-41411025D01*
X208890034Y-40961025D02*
X207790034Y-42961025D01*
D11*
X209179833Y-40536072D02*
X209979833Y-41236072D01*
X209929833Y-40736072D02*
X209179833Y-40986072D01*
D12*
X208562674Y-40593630D02*
G75*
G02*
X208645034Y-40341026I97767J107852D01*
G01*
X208645034Y-40341026D02*
G75*
G02*
X210541216Y-41208221I324059J-1798087D01*
G01*
X208740034Y-43361025D02*
G75*
G02*
X207781456Y-42978183I-317503J596509D01*
G01*
X210455540Y-41447515D02*
G75*
G02*
X208535035Y-40561024I-168063J2159455D01*
G01*
X210537500Y-41211487D02*
G75*
G02*
X210455540Y-41447515I-107866J-94788D01*
G01*
%LPC*%
D14*
X230371695Y-87903685D03*
D15*
X235371695Y-84153685D03*
D14*
X235371695Y-90103685D03*
D16*
X240371695Y-79003685D03*
D14*
X249421775Y-87903685D03*
D15*
X254421775Y-84153685D03*
D14*
X254421775Y-90103685D03*
D16*
X259421775Y-79003685D03*
D14*
X49395935Y-68853565D03*
D15*
X54395935Y-65103565D03*
D14*
X54395935Y-71053565D03*
D16*
X59395935Y-59953565D03*
D14*
X77970935Y-87903645D03*
D15*
X82970935Y-84153645D03*
D14*
X82970935Y-90103645D03*
D16*
X87970935Y-79003645D03*
D14*
X87495935Y-68853565D03*
D15*
X92495935Y-65103565D03*
D14*
X92495935Y-71053565D03*
D16*
X97495935Y-59953565D03*
D14*
X87495935Y-49803485D03*
D15*
X92495935Y-46053485D03*
D14*
X92495935Y-52003485D03*
D16*
X97495935Y-40903485D03*
D14*
X106545935Y-68853565D03*
D15*
X111545935Y-65103565D03*
D14*
X111545935Y-71053565D03*
D16*
X116545935Y-59953565D03*
D14*
X220846655Y-49803525D03*
D15*
X225846655Y-46053525D03*
D14*
X225846655Y-52003525D03*
D16*
X230846655Y-40903525D03*
D14*
X220846655Y-68853605D03*
D15*
X225846655Y-65103605D03*
D14*
X225846655Y-71053605D03*
D16*
X230846655Y-59953605D03*
D14*
X239896735Y-68853605D03*
D15*
X244896735Y-65103605D03*
D14*
X244896735Y-71053605D03*
D16*
X249896735Y-59953605D03*
D14*
X211321615Y-87903645D03*
D15*
X216321615Y-84153645D03*
D14*
X216321615Y-90103645D03*
D16*
X221321615Y-79003645D03*
D14*
X192271535Y-87903645D03*
D15*
X197271535Y-84153645D03*
D14*
X197271535Y-90103645D03*
D16*
X202271535Y-79003645D03*
D14*
X239896735Y-49803525D03*
D15*
X244896735Y-46053525D03*
D14*
X244896735Y-52003525D03*
D16*
X249896735Y-40903525D03*
D14*
X97020935Y-87903645D03*
D15*
X102020935Y-84153645D03*
D14*
X102020935Y-90103645D03*
D16*
X107020935Y-79003645D03*
D14*
X68445935Y-49803485D03*
D15*
X73445935Y-46053485D03*
D14*
X73445935Y-52003485D03*
D16*
X78445935Y-40903485D03*
D14*
X58920935Y-87903645D03*
D15*
X63920935Y-84153645D03*
D14*
X63920935Y-90103645D03*
D16*
X68920935Y-79003645D03*
D14*
X39870935Y-87903645D03*
D15*
X44870935Y-84153645D03*
D14*
X44870935Y-90103645D03*
D16*
X49870935Y-79003645D03*
D14*
X92258435Y-106953765D03*
D15*
X97258435Y-103203765D03*
D14*
X97258435Y-109153765D03*
D16*
X102258435Y-98053765D03*
D14*
X216083435Y-106953765D03*
D15*
X221083435Y-103203765D03*
D14*
X221083435Y-109153765D03*
D16*
X226083435Y-98053765D03*
D14*
X277995935Y-68853605D03*
D15*
X282995935Y-65103605D03*
D14*
X282995935Y-71053605D03*
D16*
X287995935Y-59953605D03*
D14*
X258945975Y-68853765D03*
D15*
X263945975Y-65103765D03*
D14*
X263945975Y-71053765D03*
D16*
X268945975Y-59953765D03*
D14*
X30345935Y-68853765D03*
D15*
X35345935Y-65103765D03*
D14*
X35345935Y-71053765D03*
D16*
X40345935Y-59953765D03*
D14*
X268472015Y-87903685D03*
D15*
X273472015Y-84153685D03*
D14*
X273472015Y-90103685D03*
D16*
X278472015Y-79003685D03*
D14*
X68445935Y-68853565D03*
D15*
X73445935Y-65103565D03*
D14*
X73445935Y-71053565D03*
D16*
X78445935Y-59953565D03*
D17*
X23895935Y-41840905D03*
X109164685Y-37719030D03*
X209177185Y-37719030D03*
D14*
X73208434Y-106953765D03*
D15*
X78208434Y-103203765D03*
D14*
X78208434Y-109153765D03*
D16*
X83208434Y-98053765D03*
D17*
X294445935Y-41840905D03*
D14*
X201796575Y-68853565D03*
D15*
X206796575Y-65103565D03*
D14*
X206796575Y-71053565D03*
D16*
X211796575Y-59953565D03*
D14*
X113689685Y-106953405D03*
D15*
X118689685Y-103203405D03*
D14*
X118689685Y-109153405D03*
D16*
X123689685Y-98053405D03*
D17*
X106783435Y-112087780D03*
X24695935Y-111287780D03*
D14*
X235133435Y-106953405D03*
D15*
X240133435Y-103203405D03*
D14*
X240133435Y-109153405D03*
D16*
X245133435Y-98053405D03*
D18*
X159170935Y-108803765D03*
D14*
X162920935Y-108203765D03*
D19*
X154670935Y-103203765D03*
D15*
X159170935Y-103203765D03*
D16*
X154020935Y-98203765D03*
D18*
X159170935Y-97603765D03*
D20*
X151670935Y-100703765D03*
X151670935Y-105703765D03*
X151670935Y-103203765D03*
X166170935Y-100703765D03*
X166170935Y-105703765D03*
D14*
X135121375Y-106953765D03*
D15*
X140121375Y-103203765D03*
D14*
X140121375Y-109153765D03*
D16*
X145121375Y-98053765D03*
D14*
X116070935Y-87903405D03*
D15*
X121070935Y-84153405D03*
D14*
X121070935Y-90103405D03*
D16*
X126070935Y-79003405D03*
D14*
X194652185Y-106953405D03*
D15*
X199652185Y-103203405D03*
D14*
X199652185Y-109153405D03*
D16*
X204652185Y-98053405D03*
D14*
X173220975Y-106953765D03*
D15*
X178220975Y-103203765D03*
D14*
X178220975Y-109153765D03*
D16*
X183220975Y-98053765D03*
D17*
X293645935Y-111287780D03*
X63920935Y-74628405D03*
X254420935Y-74628405D03*
X159170935Y-74628405D03*
X209177185Y-112087780D03*
D21*
X130595934Y-103203405D03*
X187745934Y-103203405D03*
X249658434Y-103203405D03*
X68683434Y-103203405D03*
X291330310Y-69865905D03*
X291330310Y-96059655D03*
X230608434Y-103203405D03*
X291330310Y-49625280D03*
X291330310Y-74628405D03*
X291330310Y-56769030D03*
X291330310Y-61531530D03*
D22*
X31955935Y-40647115D03*
X37735935Y-40647115D03*
D23*
X30525935Y-36997115D03*
D24*
X30525935Y-41177115D03*
D23*
X39165935Y-36997115D03*
D24*
X39165935Y-41177115D03*
D21*
X168696059Y-110347219D03*
X291330310Y-44862780D03*
X87733434Y-103203405D03*
D25*
X257345935Y-37078405D03*
D26*
X257345935Y-37078405D03*
D25*
X124642810Y-55578405D03*
D26*
X124642810Y-55578405D03*
D25*
X149645935Y-84153405D03*
D26*
X149645935Y-84153405D03*
D27*
X40658435Y-56684655D03*
D28*
X40658435Y-55684655D03*
X40658435Y-54684655D03*
X40658435Y-53684655D03*
X40658435Y-52684655D03*
X40658435Y-51684655D03*
X40658435Y-50684655D03*
X40658435Y-49684655D03*
X40658435Y-48684655D03*
X40658435Y-47684655D03*
D25*
X292845935Y-37078405D03*
D26*
X292845935Y-37078405D03*
D25*
X25495935Y-37078405D03*
D26*
X25495935Y-37078405D03*
D25*
X294445935Y-52678405D03*
D26*
X294445935Y-52678405D03*
D25*
X44870935Y-46053405D03*
D26*
X44870935Y-46053405D03*
D29*
X44870935Y-65128405D03*
D30*
X44870935Y-62588405D03*
X44870935Y-60048405D03*
D25*
X159170935Y-46053405D03*
D26*
X159170935Y-46053405D03*
D25*
X179411560Y-74628405D03*
D26*
X179411560Y-74628405D03*
D21*
X291330310Y-100822155D03*
D25*
X197270935Y-40100280D03*
D26*
X197270935Y-40100280D03*
D25*
X159170935Y-65103405D03*
D26*
X159170935Y-65103405D03*
D25*
X137739685Y-74628405D03*
D26*
X137739685Y-74628405D03*
D25*
X168695935Y-84153405D03*
D26*
X168695935Y-84153405D03*
D25*
X121070935Y-40100280D03*
D26*
X121070935Y-40100280D03*
D25*
X60995935Y-37078405D03*
D26*
X60995935Y-37078405D03*
D25*
X23895935Y-52678405D03*
D26*
X23895935Y-52678405D03*
D25*
X273470935Y-46053405D03*
D26*
X273470935Y-46053405D03*
D25*
X193699060Y-55578405D03*
D26*
X193699060Y-55578405D03*
%LPD*%
M02*
