M48
; DRILL file {KiCad 8.0.5} date 2024-09-18T06:09:13+0900
; FORMAT={-:-/ absolute / metric / decimal}
; #@! TF.CreationDate,2024-09-18T06:09:13+09:00
; #@! TF.GenerationSoftware,Kicad,Pcbnew,8.0.5
; #@! TF.FileFunction,Plated,1,2,PTH
FMAT,2
METRIC
; #@! TA.AperFunction,Plated,PTH,ComponentDrill
T1C0.350
; #@! TA.AperFunction,Plated,PTH,ViaDrill
T2C0.400
; #@! TA.AperFunction,Plated,PTH,ComponentDrill
T3C0.500
; #@! TA.AperFunction,Plated,PTH,ComponentDrill
T4C0.600
; #@! TA.AperFunction,Plated,PTH,ComponentDrill
T5C0.700
; #@! TA.AperFunction,Plated,PTH,ComponentDrill
T6C1.000
; #@! TA.AperFunction,Plated,PTH,ComponentDrill
T7C1.500
; #@! TA.AperFunction,Plated,PTH,ComponentDrill
T8C2.200
%
G90
G05
T1
X52.483Y-50.51
X52.483Y-51.785
X52.483Y-53.06
X53.758Y-50.51
X53.758Y-51.785
X53.758Y-53.06
X55.033Y-50.51
X55.033Y-51.785
X55.033Y-53.06
T2
X22.249Y-74.628
X22.249Y-93.678
X22.249Y-109.157
X23.871Y-44.928
X23.871Y-49.728
X23.871Y-55.728
X25.771Y-74.228
X26.416Y-113.919
X26.471Y-80.428
X26.471Y-86.328
X26.546Y-72.855
X27.346Y-54.966
X27.358Y-74.515
X28.202Y-35.338
X28.258Y-47.585
X28.371Y-48.728
X28.458Y-71.585
X28.571Y-54.828
X29.988Y-80.582
X29.988Y-86.535
X31.658Y-75.785
X33.671Y-52.428
X34.721Y-45.428
X37.132Y-91.893
X37.608Y-43.935
X37.671Y-46.378
X38.571Y-48.728
X38.571Y-55.028
X38.604Y-74.503
X39.684Y-74.757
X39.971Y-43.828
X40.552Y-72.328
X41.421Y-45.978
X41.971Y-42.028
X42.058Y-69.185
X42.658Y-54.385
X43.085Y-75.819
X43.158Y-58.285
X44.871Y-41.978
X45.637Y-57.163
X46.046Y-74.639
X46.058Y-58.785
X46.062Y-75.819
X46.274Y-60.45
X46.658Y-71.785
X46.843Y-54.6
X47.858Y-46.722
X48.058Y-56.848
X48.071Y-80.278
X48.271Y-41.978
X48.758Y-48.885
X48.832Y-58.895
X48.971Y-95.578
X49.471Y-81.428
X49.521Y-55.928
X49.636Y-56.994
X50.771Y-41.628
X51.419Y-97.25
X51.787Y-58.314
X52.258Y-49.485
X52.271Y-43.118
X53.158Y-53.885
X53.371Y-41.628
X53.71Y-46.1
X54.271Y-43.128
X54.396Y-113.919
X56.108Y-44.324
X56.223Y-74.658
X56.582Y-58.665
X56.708Y-73.112
X57.058Y-42.185
X57.071Y-57.128
X57.071Y-91.979
X57.271Y-69.128
X57.968Y-35.338
X60.349Y-63.317
X60.496Y-48.228
X60.944Y-74.628
X61.403Y-58.708
X61.418Y-57.208
X61.421Y-60.528
X61.446Y-55.728
X61.571Y-54.528
X62.571Y-59.928
X62.587Y-58.212
X62.59Y-56.478
X63.146Y-50.578
X63.396Y-45.578
X63.921Y-35.338
X65.112Y-56.174
X65.458Y-60.385
X65.707Y-63.317
X66.471Y-39.378
X66.671Y-62.229
X66.898Y-74.628
X67.418Y-61.328
X68.683Y-71.057
X69.279Y-82.368
X70.469Y-97.25
X71.396Y-94.328
X72.121Y-95.078
X73.221Y-97.478
X73.255Y-94.798
X73.446Y-82.368
X73.446Y-91.893
X74.637Y-97.25
X74.671Y-100.329
X76.671Y-49.828
X78.208Y-113.919
X82.971Y-56.769
X85.948Y-35.338
X87.746Y-111.029
X88.121Y-91.979
X88.924Y-97.25
X93.091Y-82.368
X94.084Y-72.741
X94.158Y-53.616
X96.663Y-63.317
X98.449Y-53.792
X100.235Y-101.418
X103.807Y-113.919
X105.371Y-44.328
X106.784Y-35.338
X109.165Y-97.25
X109.76Y-113.919
X111.546Y-35.338
X116.471Y-72.728
X121.071Y-56.769
X124.643Y-63.317
X124.643Y-82.368
X126.271Y-88.128
X128.81Y-91.893
X130.671Y-111.028
X131.787Y-97.25
X132.977Y-113.919
X134.168Y-35.338
X143.098Y-101.418
X146.669Y-82.368
X148.458Y-95.528
X149.258Y-94.798
X155.004Y-59.746
X155.599Y-46.053
X155.599Y-74.628
X155.599Y-85.344
X156.79Y-97.846
X159.171Y-35.338
X159.171Y-113.919
X160.957Y-91.893
X161.552Y-97.846
X162.148Y-74.628
X165.124Y-73.438
X168.696Y-94.869
X178.816Y-85.939
X181.198Y-101.418
X184.174Y-35.338
X185.365Y-113.919
X186.555Y-91.893
X187.151Y-73.438
X187.771Y-91.428
X187.771Y-111.028
X197.271Y-56.769
X198.896Y-91.754
X199.057Y-65.699
X200.843Y-82.368
X206.201Y-113.919
X206.796Y-35.338
X206.796Y-44.863
X208.071Y-73.128
X210.368Y-44.267
X211.559Y-35.338
X211.559Y-94.869
X212.154Y-113.919
X213.345Y-91.893
X224.06Y-101.418
X228.471Y-91.979
X230.621Y-111.028
X230.996Y-72.928
X230.997Y-53.879
X232.395Y-35.338
X232.99Y-63.317
X235.371Y-56.769
X238.943Y-82.368
X240.134Y-113.919
X248.468Y-44.267
X251.445Y-74.628
X251.445Y-91.893
X254.421Y-35.338
X255.016Y-94.869
X257.398Y-74.628
X258.371Y-94.778
X258.371Y-96.828
X259.771Y-91.228
X260.374Y-35.338
X260.97Y-95.464
X263.946Y-113.919
X268.113Y-74.033
X269.096Y-72.929
X270.495Y-63.317
X273.471Y-56.769
X276.183Y-55.341
X282.996Y-78.2
X284.187Y-44.267
X285.971Y-80.328
X285.971Y-86.228
X287.163Y-95.464
X289.471Y-76.128
X289.545Y-80.582
X289.545Y-86.535
X290.14Y-35.338
X291.331Y-113.919
X294.902Y-44.863
X294.902Y-49.625
X296.093Y-38.314
X296.093Y-55.578
X296.093Y-74.628
X296.093Y-93.678
X296.093Y-109.157
T3
X40.658Y-47.685
X40.658Y-48.685
X40.658Y-49.685
X40.658Y-50.685
X40.658Y-51.685
X40.658Y-52.685
X40.658Y-53.685
X40.658Y-54.685
X40.658Y-55.685
X40.658Y-56.685
T6
X44.871Y-60.048
X44.871Y-62.588
X44.871Y-65.128
X68.683Y-103.203
X87.733Y-103.203
X130.596Y-103.203
X168.696Y-110.347
X187.746Y-103.203
X230.608Y-103.203
X249.658Y-103.203
X291.33Y-44.863
X291.33Y-49.625
X291.33Y-56.769
X291.33Y-61.532
X291.33Y-69.866
X291.33Y-74.628
X291.33Y-96.06
X291.33Y-100.822
T8
X23.896Y-52.678
X25.496Y-37.078
X44.871Y-46.053
X60.996Y-37.078
X121.071Y-40.1
X124.643Y-55.578
X137.74Y-74.628
X149.646Y-84.153
X159.171Y-46.053
X159.171Y-65.103
X168.696Y-84.153
X179.412Y-74.628
X193.699Y-55.578
X197.271Y-40.1
X257.346Y-37.078
X273.471Y-46.053
X292.846Y-37.078
X294.446Y-52.678
T4
X30.526Y-36.697G85X30.526Y-37.297
G05
X30.526Y-40.627G85X30.526Y-41.727
G05
X39.166Y-36.697G85X39.166Y-37.297
G05
X39.166Y-40.627G85X39.166Y-41.727
G05
T5
X151.671Y-100.854G85X151.671Y-100.554
G05
X151.671Y-103.354G85X151.671Y-103.054
G05
X151.671Y-105.854G85X151.671Y-105.554
G05
X166.171Y-100.854G85X166.171Y-100.554
G05
X166.171Y-105.854G85X166.171Y-105.554
G05
T7
X158.521Y-97.604G85X159.821Y-97.604
G05
X158.521Y-108.804G85X159.821Y-108.804
G05
M30
