G04 #@! TF.GenerationSoftware,KiCad,Pcbnew,8.0.5*
G04 #@! TF.CreationDate,2024-09-18T06:09:18+09:00*
G04 #@! TF.ProjectId,SandyLP_Base,53616e64-794c-4505-9f42-6173652e6b69,v.0*
G04 #@! TF.SameCoordinates,Original*
G04 #@! TF.FileFunction,Soldermask,Top*
G04 #@! TF.FilePolarity,Negative*
%FSLAX46Y46*%
G04 Gerber Fmt 4.6, Leading zero omitted, Abs format (unit mm)*
G04 Created by KiCad (PCBNEW 8.0.5) date 2024-09-18 06:09:18*
%MOMM*%
%LPD*%
G01*
G04 APERTURE LIST*
%ADD10C,3.000000*%
%ADD11C,5.000000*%
%ADD12C,1.600000*%
%ADD13C,2.200000*%
%ADD14O,3.300000X2.000000*%
%ADD15O,1.900000X1.600000*%
%ADD16O,1.300000X1.600000*%
%ADD17C,2.000000*%
%ADD18C,0.650000*%
%ADD19O,1.000000X1.600000*%
%ADD20O,1.000000X2.100000*%
%ADD21C,3.600000*%
%ADD22C,4.400000*%
%ADD23R,0.850000X0.850000*%
%ADD24O,0.850000X0.850000*%
%ADD25C,1.700000*%
%ADD26O,1.700000X1.700000*%
G04 APERTURE END LIST*
D10*
X230371695Y-87903685D03*
D11*
X235371695Y-84153685D03*
D10*
X235371695Y-90103685D03*
D12*
X240371695Y-79003685D03*
D10*
X249421775Y-87903685D03*
D11*
X254421775Y-84153685D03*
D10*
X254421775Y-90103685D03*
D12*
X259421775Y-79003685D03*
D10*
X49395935Y-68853565D03*
D11*
X54395935Y-65103565D03*
D10*
X54395935Y-71053565D03*
D12*
X59395935Y-59953565D03*
D10*
X77970935Y-87903645D03*
D11*
X82970935Y-84153645D03*
D10*
X82970935Y-90103645D03*
D12*
X87970935Y-79003645D03*
D10*
X87495935Y-68853565D03*
D11*
X92495935Y-65103565D03*
D10*
X92495935Y-71053565D03*
D12*
X97495935Y-59953565D03*
D10*
X87495935Y-49803485D03*
D11*
X92495935Y-46053485D03*
D10*
X92495935Y-52003485D03*
D12*
X97495935Y-40903485D03*
D10*
X106545935Y-68853565D03*
D11*
X111545935Y-65103565D03*
D10*
X111545935Y-71053565D03*
D12*
X116545935Y-59953565D03*
D10*
X220846655Y-49803525D03*
D11*
X225846655Y-46053525D03*
D10*
X225846655Y-52003525D03*
D12*
X230846655Y-40903525D03*
D10*
X220846655Y-68853605D03*
D11*
X225846655Y-65103605D03*
D10*
X225846655Y-71053605D03*
D12*
X230846655Y-59953605D03*
D10*
X239896735Y-68853605D03*
D11*
X244896735Y-65103605D03*
D10*
X244896735Y-71053605D03*
D12*
X249896735Y-59953605D03*
D10*
X211321615Y-87903645D03*
D11*
X216321615Y-84153645D03*
D10*
X216321615Y-90103645D03*
D12*
X221321615Y-79003645D03*
D10*
X192271535Y-87903645D03*
D11*
X197271535Y-84153645D03*
D10*
X197271535Y-90103645D03*
D12*
X202271535Y-79003645D03*
D10*
X239896735Y-49803525D03*
D11*
X244896735Y-46053525D03*
D10*
X244896735Y-52003525D03*
D12*
X249896735Y-40903525D03*
D10*
X97020935Y-87903645D03*
D11*
X102020935Y-84153645D03*
D10*
X102020935Y-90103645D03*
D12*
X107020935Y-79003645D03*
D10*
X68445935Y-49803485D03*
D11*
X73445935Y-46053485D03*
D10*
X73445935Y-52003485D03*
D12*
X78445935Y-40903485D03*
D10*
X58920935Y-87903645D03*
D11*
X63920935Y-84153645D03*
D10*
X63920935Y-90103645D03*
D12*
X68920935Y-79003645D03*
D10*
X39870935Y-87903645D03*
D11*
X44870935Y-84153645D03*
D10*
X44870935Y-90103645D03*
D12*
X49870935Y-79003645D03*
D10*
X92258435Y-106953765D03*
D11*
X97258435Y-103203765D03*
D10*
X97258435Y-109153765D03*
D12*
X102258435Y-98053765D03*
D10*
X216083435Y-106953765D03*
D11*
X221083435Y-103203765D03*
D10*
X221083435Y-109153765D03*
D12*
X226083435Y-98053765D03*
D10*
X277995935Y-68853605D03*
D11*
X282995935Y-65103605D03*
D10*
X282995935Y-71053605D03*
D12*
X287995935Y-59953605D03*
D10*
X258945975Y-68853765D03*
D11*
X263945975Y-65103765D03*
D10*
X263945975Y-71053765D03*
D12*
X268945975Y-59953765D03*
D10*
X30345935Y-68853765D03*
D11*
X35345935Y-65103765D03*
D10*
X35345935Y-71053765D03*
D12*
X40345935Y-59953765D03*
D10*
X268472015Y-87903685D03*
D11*
X273472015Y-84153685D03*
D10*
X273472015Y-90103685D03*
D12*
X278472015Y-79003685D03*
D10*
X68445935Y-68853565D03*
D11*
X73445935Y-65103565D03*
D10*
X73445935Y-71053565D03*
D12*
X78445935Y-59953565D03*
D13*
X23895935Y-41840905D03*
X109164685Y-37719030D03*
X209177185Y-37719030D03*
D10*
X73208434Y-106953765D03*
D11*
X78208434Y-103203765D03*
D10*
X78208434Y-109153765D03*
D12*
X83208434Y-98053765D03*
D13*
X294445935Y-41840905D03*
D10*
X201796575Y-68853565D03*
D11*
X206796575Y-65103565D03*
D10*
X206796575Y-71053565D03*
D12*
X211796575Y-59953565D03*
D10*
X113689685Y-106953405D03*
D11*
X118689685Y-103203405D03*
D10*
X118689685Y-109153405D03*
D12*
X123689685Y-98053405D03*
D13*
X106783435Y-112087780D03*
X24695935Y-111287780D03*
D10*
X235133435Y-106953405D03*
D11*
X240133435Y-103203405D03*
D10*
X240133435Y-109153405D03*
D12*
X245133435Y-98053405D03*
D14*
X159170935Y-108803765D03*
D10*
X162920935Y-108203765D03*
D15*
X154670935Y-103203765D03*
D11*
X159170935Y-103203765D03*
D12*
X154020935Y-98203765D03*
D14*
X159170935Y-97603765D03*
D16*
X151670935Y-100703765D03*
X151670935Y-105703765D03*
X151670935Y-103203765D03*
X166170935Y-100703765D03*
X166170935Y-105703765D03*
D10*
X135121375Y-106953765D03*
D11*
X140121375Y-103203765D03*
D10*
X140121375Y-109153765D03*
D12*
X145121375Y-98053765D03*
D10*
X116070935Y-87903405D03*
D11*
X121070935Y-84153405D03*
D10*
X121070935Y-90103405D03*
D12*
X126070935Y-79003405D03*
D10*
X194652185Y-106953405D03*
D11*
X199652185Y-103203405D03*
D10*
X199652185Y-109153405D03*
D12*
X204652185Y-98053405D03*
D10*
X173220975Y-106953765D03*
D11*
X178220975Y-103203765D03*
D10*
X178220975Y-109153765D03*
D12*
X183220975Y-98053765D03*
D13*
X293645935Y-111287780D03*
X63920935Y-74628405D03*
X254420935Y-74628405D03*
X159170935Y-74628405D03*
X209177185Y-112087780D03*
D17*
X130595934Y-103203405D03*
X187745934Y-103203405D03*
X249658434Y-103203405D03*
X68683434Y-103203405D03*
X291330310Y-69865905D03*
X291330310Y-96059655D03*
X230608434Y-103203405D03*
X291330310Y-49625280D03*
X291330310Y-74628405D03*
X291330310Y-56769030D03*
X291330310Y-61531530D03*
D18*
X31955935Y-40647115D03*
X37735935Y-40647115D03*
D19*
X30525935Y-36997115D03*
D20*
X30525935Y-41177115D03*
D19*
X39165935Y-36997115D03*
D20*
X39165935Y-41177115D03*
D17*
X168696059Y-110347219D03*
X291330310Y-44862780D03*
X87733434Y-103203405D03*
D21*
X257345935Y-37078405D03*
D22*
X257345935Y-37078405D03*
D21*
X124642810Y-55578405D03*
D22*
X124642810Y-55578405D03*
D21*
X149645935Y-84153405D03*
D22*
X149645935Y-84153405D03*
D23*
X40658435Y-56684655D03*
D24*
X40658435Y-55684655D03*
X40658435Y-54684655D03*
X40658435Y-53684655D03*
X40658435Y-52684655D03*
X40658435Y-51684655D03*
X40658435Y-50684655D03*
X40658435Y-49684655D03*
X40658435Y-48684655D03*
X40658435Y-47684655D03*
D21*
X292845935Y-37078405D03*
D22*
X292845935Y-37078405D03*
D21*
X25495935Y-37078405D03*
D22*
X25495935Y-37078405D03*
D21*
X294445935Y-52678405D03*
D22*
X294445935Y-52678405D03*
D21*
X44870935Y-46053405D03*
D22*
X44870935Y-46053405D03*
D25*
X44870935Y-65128405D03*
D26*
X44870935Y-62588405D03*
X44870935Y-60048405D03*
D21*
X159170935Y-46053405D03*
D22*
X159170935Y-46053405D03*
D21*
X179411560Y-74628405D03*
D22*
X179411560Y-74628405D03*
D17*
X291330310Y-100822155D03*
D21*
X197270935Y-40100280D03*
D22*
X197270935Y-40100280D03*
D21*
X159170935Y-65103405D03*
D22*
X159170935Y-65103405D03*
D21*
X137739685Y-74628405D03*
D22*
X137739685Y-74628405D03*
D21*
X168695935Y-84153405D03*
D22*
X168695935Y-84153405D03*
D21*
X121070935Y-40100280D03*
D22*
X121070935Y-40100280D03*
D21*
X60995935Y-37078405D03*
D22*
X60995935Y-37078405D03*
D21*
X23895935Y-52678405D03*
D22*
X23895935Y-52678405D03*
D21*
X273470935Y-46053405D03*
D22*
X273470935Y-46053405D03*
D21*
X193699060Y-55578405D03*
D22*
X193699060Y-55578405D03*
M02*
