%TF.GenerationSoftware,KiCad,Pcbnew,8.0.5*%
%TF.CreationDate,2024-09-30T06:21:50+09:00*%
%TF.ProjectId,SandyLP_Plate_Base_LR,53616e64-794c-4505-9f50-6c6174655f42,v.0*%
%TF.SameCoordinates,Original*%
%TF.FileFunction,Drillmap*%
%TF.FilePolarity,Positive*%
%FSLAX45Y45*%
G04 Gerber Fmt 4.5, Leading zero omitted, Abs format (unit mm)*
G04 Created by KiCad (PCBNEW 8.0.5) date 2024-09-30 06:21:50*
%MOMM*%
%LPD*%
G01*
G04 APERTURE LIST*
%ADD10C,0.300000*%
%ADD11C,0.200000*%
G04 APERTURE END LIST*
D10*
X19887547Y-5797528D02*
X19887547Y-7213005D01*
X20621766Y-7413005D02*
X20087547Y-7413005D01*
X20821766Y-7613005D02*
X20822719Y-9118001D01*
X21098016Y-9318001D02*
X21022719Y-9318001D01*
X21298016Y-9518001D02*
X21298969Y-11285653D01*
X21549735Y-5597528D02*
X20087547Y-5597528D01*
X21749735Y-3654403D02*
X21749735Y-5397528D01*
X25283484Y-3454403D02*
X21949735Y-3454403D01*
X25483484Y-3654403D02*
X25483484Y-5397528D01*
X29294734Y-11485653D02*
X21498969Y-11485653D01*
X29570984Y-5597528D02*
X25683484Y-5597528D01*
X29770984Y-5797528D02*
X29770984Y-11009403D01*
X19887547Y-5797528D02*
G75*
G02*
X20087547Y-5597534I199998J-4D01*
G01*
X20087547Y-7413005D02*
G75*
G02*
X19887541Y-7213005I-13J199994D01*
G01*
X20621766Y-7413005D02*
G75*
G02*
X20821761Y-7613005I-11J-200007D01*
G01*
X21022719Y-9318001D02*
G75*
G02*
X20822716Y-9118001I-5J199999D01*
G01*
X21098016Y-9318001D02*
G75*
G02*
X21298016Y-9518001I-11J-200011D01*
G01*
X21498969Y-11485653D02*
G75*
G02*
X21298964Y-11285653I-5J200001D01*
G01*
X21749735Y-3654403D02*
G75*
G02*
X21949735Y-3454402I200010J-9D01*
G01*
X21749735Y-5397528D02*
G75*
G02*
X21549735Y-5597532I-200000J-4D01*
G01*
X25283484Y-3454403D02*
G75*
G02*
X25483483Y-3654403I0J-199999D01*
G01*
X25683484Y-5597528D02*
G75*
G02*
X25483478Y-5397528I0J200006D01*
G01*
X29570984Y-5597528D02*
G75*
G02*
X29770988Y-5797528I0J-200004D01*
G01*
X29770984Y-11009403D02*
G75*
G02*
X29294734Y-11485652I-476250J1D01*
G01*
D11*
X20133318Y-11812137D02*
X20133318Y-11612137D01*
X20133318Y-11612137D02*
X20180937Y-11612137D01*
X20180937Y-11612137D02*
X20209508Y-11621661D01*
X20209508Y-11621661D02*
X20228556Y-11640708D01*
X20228556Y-11640708D02*
X20238080Y-11659756D01*
X20238080Y-11659756D02*
X20247604Y-11697851D01*
X20247604Y-11697851D02*
X20247604Y-11726422D01*
X20247604Y-11726422D02*
X20238080Y-11764518D01*
X20238080Y-11764518D02*
X20228556Y-11783565D01*
X20228556Y-11783565D02*
X20209508Y-11802613D01*
X20209508Y-11802613D02*
X20180937Y-11812137D01*
X20180937Y-11812137D02*
X20133318Y-11812137D01*
X20333318Y-11812137D02*
X20333318Y-11678803D01*
X20333318Y-11716899D02*
X20342842Y-11697851D01*
X20342842Y-11697851D02*
X20352365Y-11688327D01*
X20352365Y-11688327D02*
X20371413Y-11678803D01*
X20371413Y-11678803D02*
X20390461Y-11678803D01*
X20457127Y-11812137D02*
X20457127Y-11678803D01*
X20457127Y-11612137D02*
X20447604Y-11621661D01*
X20447604Y-11621661D02*
X20457127Y-11631184D01*
X20457127Y-11631184D02*
X20466651Y-11621661D01*
X20466651Y-11621661D02*
X20457127Y-11612137D01*
X20457127Y-11612137D02*
X20457127Y-11631184D01*
X20580937Y-11812137D02*
X20561889Y-11802613D01*
X20561889Y-11802613D02*
X20552365Y-11783565D01*
X20552365Y-11783565D02*
X20552365Y-11612137D01*
X20685699Y-11812137D02*
X20666651Y-11802613D01*
X20666651Y-11802613D02*
X20657127Y-11783565D01*
X20657127Y-11783565D02*
X20657127Y-11612137D01*
X20914270Y-11812137D02*
X20914270Y-11612137D01*
X20914270Y-11612137D02*
X20980937Y-11754994D01*
X20980937Y-11754994D02*
X21047604Y-11612137D01*
X21047604Y-11612137D02*
X21047604Y-11812137D01*
X21228556Y-11812137D02*
X21228556Y-11707375D01*
X21228556Y-11707375D02*
X21219032Y-11688327D01*
X21219032Y-11688327D02*
X21199985Y-11678803D01*
X21199985Y-11678803D02*
X21161889Y-11678803D01*
X21161889Y-11678803D02*
X21142842Y-11688327D01*
X21228556Y-11802613D02*
X21209508Y-11812137D01*
X21209508Y-11812137D02*
X21161889Y-11812137D01*
X21161889Y-11812137D02*
X21142842Y-11802613D01*
X21142842Y-11802613D02*
X21133318Y-11783565D01*
X21133318Y-11783565D02*
X21133318Y-11764518D01*
X21133318Y-11764518D02*
X21142842Y-11745470D01*
X21142842Y-11745470D02*
X21161889Y-11735946D01*
X21161889Y-11735946D02*
X21209508Y-11735946D01*
X21209508Y-11735946D02*
X21228556Y-11726422D01*
X21323794Y-11678803D02*
X21323794Y-11878803D01*
X21323794Y-11688327D02*
X21342842Y-11678803D01*
X21342842Y-11678803D02*
X21380937Y-11678803D01*
X21380937Y-11678803D02*
X21399985Y-11688327D01*
X21399985Y-11688327D02*
X21409508Y-11697851D01*
X21409508Y-11697851D02*
X21419032Y-11716899D01*
X21419032Y-11716899D02*
X21419032Y-11774041D01*
X21419032Y-11774041D02*
X21409508Y-11793089D01*
X21409508Y-11793089D02*
X21399985Y-11802613D01*
X21399985Y-11802613D02*
X21380937Y-11812137D01*
X21380937Y-11812137D02*
X21342842Y-11812137D01*
X21342842Y-11812137D02*
X21323794Y-11802613D01*
X21504746Y-11793089D02*
X21514270Y-11802613D01*
X21514270Y-11802613D02*
X21504746Y-11812137D01*
X21504746Y-11812137D02*
X21495223Y-11802613D01*
X21495223Y-11802613D02*
X21504746Y-11793089D01*
X21504746Y-11793089D02*
X21504746Y-11812137D01*
X21504746Y-11688327D02*
X21514270Y-11697851D01*
X21514270Y-11697851D02*
X21504746Y-11707375D01*
X21504746Y-11707375D02*
X21495223Y-11697851D01*
X21495223Y-11697851D02*
X21504746Y-11688327D01*
X21504746Y-11688327D02*
X21504746Y-11707375D01*
M02*
