%TF.GenerationSoftware,KiCad,Pcbnew,8.0.5*%
%TF.CreationDate,2024-09-30T06:21:50+09:00*%
%TF.ProjectId,SandyLP_Plate_Base_LR,53616e64-794c-4505-9f50-6c6174655f42,v.0*%
%TF.SameCoordinates,Original*%
%TF.FileFunction,Drillmap*%
%TF.FilePolarity,Positive*%
%FSLAX45Y45*%
G04 Gerber Fmt 4.5, Leading zero omitted, Abs format (unit mm)*
G04 Created by KiCad (PCBNEW 8.0.5) date 2024-09-30 06:21:50*
%MOMM*%
%LPD*%
G01*
G04 APERTURE LIST*
%ADD10C,0.300000*%
%ADD11C,0.200000*%
%ADD12C,0.100000*%
G04 APERTURE END LIST*
D10*
X19887547Y-5797528D02*
X19887547Y-7213005D01*
X20621766Y-7413005D02*
X20087547Y-7413005D01*
X20821766Y-7613005D02*
X20822719Y-9118001D01*
X21098016Y-9318001D02*
X21022719Y-9318001D01*
X21298016Y-9518001D02*
X21298969Y-11285653D01*
X21549735Y-5597528D02*
X20087547Y-5597528D01*
X21749735Y-3654403D02*
X21749735Y-5397528D01*
X25283484Y-3454403D02*
X21949735Y-3454403D01*
X25483484Y-3654403D02*
X25483484Y-5397528D01*
X29294734Y-11485653D02*
X21498969Y-11485653D01*
X29570984Y-5597528D02*
X25683484Y-5597528D01*
X29770984Y-5797528D02*
X29770984Y-11009403D01*
X19887547Y-5797528D02*
G75*
G02*
X20087547Y-5597534I199998J-4D01*
G01*
X20087547Y-7413005D02*
G75*
G02*
X19887541Y-7213005I-13J199994D01*
G01*
X20621766Y-7413005D02*
G75*
G02*
X20821761Y-7613005I-11J-200007D01*
G01*
X21022719Y-9318001D02*
G75*
G02*
X20822716Y-9118001I-5J199999D01*
G01*
X21098016Y-9318001D02*
G75*
G02*
X21298016Y-9518001I-11J-200011D01*
G01*
X21498969Y-11485653D02*
G75*
G02*
X21298964Y-11285653I-5J200001D01*
G01*
X21749735Y-3654403D02*
G75*
G02*
X21949735Y-3454402I200010J-9D01*
G01*
X21749735Y-5397528D02*
G75*
G02*
X21549735Y-5597532I-200000J-4D01*
G01*
X25283484Y-3454403D02*
G75*
G02*
X25483483Y-3654403I0J-199999D01*
G01*
X25683484Y-5597528D02*
G75*
G02*
X25483478Y-5397528I0J200006D01*
G01*
X29570984Y-5597528D02*
G75*
G02*
X29770988Y-5797528I0J-200004D01*
G01*
X29770984Y-11009403D02*
G75*
G02*
X29294734Y-11485652I-476250J1D01*
G01*
D11*
D12*
X20062235Y-6470032D02*
X20162235Y-6570032D01*
X20162235Y-6470032D02*
X20062235Y-6570032D01*
X20162235Y-7170032D02*
X20162235Y-5870032D01*
X20062235Y-5870032D02*
G75*
G02*
X20162235Y-5870032I50000J0D01*
G01*
X20062235Y-5870032D02*
X20062235Y-7170032D01*
X20062235Y-7170032D02*
G75*
G03*
X20162235Y-7170032I50000J0D01*
G01*
X20712235Y-5820032D02*
X20812235Y-5920032D01*
X20812235Y-5820032D02*
X20712235Y-5920032D01*
X20112235Y-5920032D02*
X21412235Y-5920032D01*
X21412235Y-5820032D02*
G75*
G02*
X21412235Y-5920032I0J-50000D01*
G01*
X21412235Y-5820032D02*
X20112235Y-5820032D01*
X20112235Y-5820032D02*
G75*
G03*
X20112235Y-5920032I0J-50000D01*
G01*
X20712235Y-7120032D02*
X20812235Y-7220032D01*
X20812235Y-7120032D02*
X20712235Y-7220032D01*
X20112235Y-7220032D02*
X21412235Y-7220032D01*
X21412235Y-7120032D02*
G75*
G02*
X21412235Y-7220032I0J-50000D01*
G01*
X21412235Y-7120032D02*
X20112235Y-7120032D01*
X20112235Y-7120032D02*
G75*
G03*
X20112235Y-7220032I0J-50000D01*
G01*
X21014735Y-8375032D02*
X21114735Y-8475032D01*
X21114735Y-8375032D02*
X21014735Y-8475032D01*
X21114735Y-9075032D02*
X21114735Y-7775032D01*
X21014735Y-7775032D02*
G75*
G02*
X21114735Y-7775032I50000J0D01*
G01*
X21014735Y-7775032D02*
X21014735Y-9075032D01*
X21014735Y-9075032D02*
G75*
G03*
X21114735Y-9075032I50000J0D01*
G01*
X21362235Y-6470032D02*
X21462235Y-6570032D01*
X21462235Y-6470032D02*
X21362235Y-6570032D01*
X21462235Y-7170032D02*
X21462235Y-5870032D01*
X21362235Y-5870032D02*
G75*
G02*
X21462235Y-5870032I50000J0D01*
G01*
X21362235Y-5870032D02*
X21362235Y-7170032D01*
X21362235Y-7170032D02*
G75*
G03*
X21462235Y-7170032I50000J0D01*
G01*
X21490985Y-10280032D02*
X21590985Y-10380032D01*
X21590985Y-10280032D02*
X21490985Y-10380032D01*
X21590985Y-10980032D02*
X21590985Y-9680032D01*
X21490985Y-9680032D02*
G75*
G02*
X21590985Y-9680032I50000J0D01*
G01*
X21490985Y-9680032D02*
X21490985Y-10980032D01*
X21490985Y-10980032D02*
G75*
G03*
X21590985Y-10980032I50000J0D01*
G01*
X21664735Y-7725032D02*
X21764735Y-7825032D01*
X21764735Y-7725032D02*
X21664735Y-7825032D01*
X21064735Y-7825032D02*
X22364735Y-7825032D01*
X22364735Y-7725032D02*
G75*
G02*
X22364735Y-7825032I0J-50000D01*
G01*
X22364735Y-7725032D02*
X21064735Y-7725032D01*
X21064735Y-7725032D02*
G75*
G03*
X21064735Y-7825032I0J-50000D01*
G01*
X21664735Y-9025032D02*
X21764735Y-9125032D01*
X21764735Y-9025032D02*
X21664735Y-9125032D01*
X21064735Y-9125032D02*
X22364735Y-9125032D01*
X22364735Y-9025032D02*
G75*
G02*
X22364735Y-9125032I0J-50000D01*
G01*
X22364735Y-9025032D02*
X21064735Y-9025032D01*
X21064735Y-9025032D02*
G75*
G03*
X21064735Y-9125032I0J-50000D01*
G01*
X21967235Y-4565032D02*
X22067235Y-4665032D01*
X22067235Y-4565032D02*
X21967235Y-4665032D01*
X22067235Y-5265032D02*
X22067235Y-3965032D01*
X21967235Y-3965032D02*
G75*
G02*
X22067235Y-3965032I50000J0D01*
G01*
X21967235Y-3965032D02*
X21967235Y-5265032D01*
X21967235Y-5265032D02*
G75*
G03*
X22067235Y-5265032I50000J0D01*
G01*
X21967235Y-6470032D02*
X22067235Y-6570032D01*
X22067235Y-6470032D02*
X21967235Y-6570032D01*
X22067235Y-7170032D02*
X22067235Y-5870032D01*
X21967235Y-5870032D02*
G75*
G02*
X22067235Y-5870032I50000J0D01*
G01*
X21967235Y-5870032D02*
X21967235Y-7170032D01*
X21967235Y-7170032D02*
G75*
G03*
X22067235Y-7170032I50000J0D01*
G01*
X22140985Y-9630032D02*
X22240985Y-9730032D01*
X22240985Y-9630032D02*
X22140985Y-9730032D01*
X21540985Y-9730032D02*
X22840984Y-9730032D01*
X22840984Y-9630032D02*
G75*
G02*
X22840984Y-9730032I0J-50000D01*
G01*
X22840984Y-9630032D02*
X21540985Y-9630032D01*
X21540985Y-9630032D02*
G75*
G03*
X21540985Y-9730032I0J-50000D01*
G01*
X22140985Y-10930032D02*
X22240985Y-11030032D01*
X22240985Y-10930032D02*
X22140985Y-11030032D01*
X21540985Y-11030032D02*
X22840984Y-11030032D01*
X22840984Y-10930032D02*
G75*
G02*
X22840984Y-11030032I0J-50000D01*
G01*
X22840984Y-10930032D02*
X21540985Y-10930032D01*
X21540985Y-10930032D02*
G75*
G03*
X21540985Y-11030032I0J-50000D01*
G01*
X22314735Y-8375032D02*
X22414734Y-8475032D01*
X22414734Y-8375032D02*
X22314735Y-8475032D01*
X22414734Y-9075032D02*
X22414734Y-7775032D01*
X22314735Y-7775032D02*
G75*
G02*
X22414734Y-7775032I50000J0D01*
G01*
X22314735Y-7775032D02*
X22314735Y-9075032D01*
X22314735Y-9075032D02*
G75*
G03*
X22414734Y-9075032I50000J0D01*
G01*
X22617234Y-3915032D02*
X22717234Y-4015032D01*
X22717234Y-3915032D02*
X22617234Y-4015032D01*
X22017235Y-4015032D02*
X23317234Y-4015032D01*
X23317234Y-3915032D02*
G75*
G02*
X23317234Y-4015032I0J-50000D01*
G01*
X23317234Y-3915032D02*
X22017235Y-3915032D01*
X22017235Y-3915032D02*
G75*
G03*
X22017235Y-4015032I0J-50000D01*
G01*
X22617234Y-5215032D02*
X22717234Y-5315032D01*
X22717234Y-5215032D02*
X22617234Y-5315032D01*
X22017235Y-5315032D02*
X23317234Y-5315032D01*
X23317234Y-5215032D02*
G75*
G02*
X23317234Y-5315032I0J-50000D01*
G01*
X23317234Y-5215032D02*
X22017235Y-5215032D01*
X22017235Y-5215032D02*
G75*
G03*
X22017235Y-5315032I0J-50000D01*
G01*
X22617234Y-5820032D02*
X22717234Y-5920032D01*
X22717234Y-5820032D02*
X22617234Y-5920032D01*
X22017235Y-5920032D02*
X23317234Y-5920032D01*
X23317234Y-5820032D02*
G75*
G02*
X23317234Y-5920032I0J-50000D01*
G01*
X23317234Y-5820032D02*
X22017235Y-5820032D01*
X22017235Y-5820032D02*
G75*
G03*
X22017235Y-5920032I0J-50000D01*
G01*
X22617234Y-7120032D02*
X22717234Y-7220032D01*
X22717234Y-7120032D02*
X22617234Y-7220032D01*
X22017235Y-7220032D02*
X23317234Y-7220032D01*
X23317234Y-7120032D02*
G75*
G02*
X23317234Y-7220032I0J-50000D01*
G01*
X23317234Y-7120032D02*
X22017235Y-7120032D01*
X22017235Y-7120032D02*
G75*
G03*
X22017235Y-7220032I0J-50000D01*
G01*
X22790984Y-10280032D02*
X22890984Y-10380032D01*
X22890984Y-10280032D02*
X22790984Y-10380032D01*
X22890984Y-10980032D02*
X22890984Y-9680032D01*
X22790984Y-9680032D02*
G75*
G02*
X22890984Y-9680032I50000J0D01*
G01*
X22790984Y-9680032D02*
X22790984Y-10980032D01*
X22790984Y-10980032D02*
G75*
G03*
X22890984Y-10980032I50000J0D01*
G01*
X22919734Y-8375032D02*
X23019734Y-8475032D01*
X23019734Y-8375032D02*
X22919734Y-8475032D01*
X23019734Y-9075032D02*
X23019734Y-7775032D01*
X22919734Y-7775032D02*
G75*
G02*
X23019734Y-7775032I50000J0D01*
G01*
X22919734Y-7775032D02*
X22919734Y-9075032D01*
X22919734Y-9075032D02*
G75*
G03*
X23019734Y-9075032I50000J0D01*
G01*
X23267234Y-4565032D02*
X23367234Y-4665032D01*
X23367234Y-4565032D02*
X23267234Y-4665032D01*
X23367234Y-5265032D02*
X23367234Y-3965032D01*
X23267234Y-3965032D02*
G75*
G02*
X23367234Y-3965032I50000J0D01*
G01*
X23267234Y-3965032D02*
X23267234Y-5265032D01*
X23267234Y-5265032D02*
G75*
G03*
X23367234Y-5265032I50000J0D01*
G01*
X23267234Y-6470032D02*
X23367234Y-6570032D01*
X23367234Y-6470032D02*
X23267234Y-6570032D01*
X23367234Y-7170032D02*
X23367234Y-5870032D01*
X23267234Y-5870032D02*
G75*
G02*
X23367234Y-5870032I50000J0D01*
G01*
X23267234Y-5870032D02*
X23267234Y-7170032D01*
X23267234Y-7170032D02*
G75*
G03*
X23367234Y-7170032I50000J0D01*
G01*
X23395984Y-10280032D02*
X23495984Y-10380032D01*
X23495984Y-10280032D02*
X23395984Y-10380032D01*
X23495984Y-10980032D02*
X23495984Y-9680032D01*
X23395984Y-9680032D02*
G75*
G02*
X23495984Y-9680032I50000J0D01*
G01*
X23395984Y-9680032D02*
X23395984Y-10980032D01*
X23395984Y-10980032D02*
G75*
G03*
X23495984Y-10980032I50000J0D01*
G01*
X23569734Y-7725032D02*
X23669734Y-7825032D01*
X23669734Y-7725032D02*
X23569734Y-7825032D01*
X22969734Y-7825032D02*
X24269734Y-7825032D01*
X24269734Y-7725032D02*
G75*
G02*
X24269734Y-7825032I0J-50000D01*
G01*
X24269734Y-7725032D02*
X22969734Y-7725032D01*
X22969734Y-7725032D02*
G75*
G03*
X22969734Y-7825032I0J-50000D01*
G01*
X23569734Y-9025032D02*
X23669734Y-9125032D01*
X23669734Y-9025032D02*
X23569734Y-9125032D01*
X22969734Y-9125032D02*
X24269734Y-9125032D01*
X24269734Y-9025032D02*
G75*
G02*
X24269734Y-9125032I0J-50000D01*
G01*
X24269734Y-9025032D02*
X22969734Y-9025032D01*
X22969734Y-9025032D02*
G75*
G03*
X22969734Y-9125032I0J-50000D01*
G01*
X23872234Y-4565032D02*
X23972234Y-4665032D01*
X23972234Y-4565032D02*
X23872234Y-4665032D01*
X23972234Y-5265032D02*
X23972234Y-3965032D01*
X23872234Y-3965032D02*
G75*
G02*
X23972234Y-3965032I50000J0D01*
G01*
X23872234Y-3965032D02*
X23872234Y-5265032D01*
X23872234Y-5265032D02*
G75*
G03*
X23972234Y-5265032I50000J0D01*
G01*
X23872234Y-6470032D02*
X23972234Y-6570032D01*
X23972234Y-6470032D02*
X23872234Y-6570032D01*
X23972234Y-7170032D02*
X23972234Y-5870032D01*
X23872234Y-5870032D02*
G75*
G02*
X23972234Y-5870032I50000J0D01*
G01*
X23872234Y-5870032D02*
X23872234Y-7170032D01*
X23872234Y-7170032D02*
G75*
G03*
X23972234Y-7170032I50000J0D01*
G01*
X24045984Y-9630032D02*
X24145984Y-9730032D01*
X24145984Y-9630032D02*
X24045984Y-9730032D01*
X23445984Y-9730032D02*
X24745984Y-9730032D01*
X24745984Y-9630032D02*
G75*
G02*
X24745984Y-9730032I0J-50000D01*
G01*
X24745984Y-9630032D02*
X23445984Y-9630032D01*
X23445984Y-9630032D02*
G75*
G03*
X23445984Y-9730032I0J-50000D01*
G01*
X24045984Y-10930032D02*
X24145984Y-11030032D01*
X24145984Y-10930032D02*
X24045984Y-11030032D01*
X23445984Y-11030032D02*
X24745984Y-11030032D01*
X24745984Y-10930032D02*
G75*
G02*
X24745984Y-11030032I0J-50000D01*
G01*
X24745984Y-10930032D02*
X23445984Y-10930032D01*
X23445984Y-10930032D02*
G75*
G03*
X23445984Y-11030032I0J-50000D01*
G01*
X24219734Y-8375032D02*
X24319734Y-8475032D01*
X24319734Y-8375032D02*
X24219734Y-8475032D01*
X24319734Y-9075032D02*
X24319734Y-7775032D01*
X24219734Y-7775032D02*
G75*
G02*
X24319734Y-7775032I50000J0D01*
G01*
X24219734Y-7775032D02*
X24219734Y-9075032D01*
X24219734Y-9075032D02*
G75*
G03*
X24319734Y-9075032I50000J0D01*
G01*
X24522234Y-3915032D02*
X24622234Y-4015032D01*
X24622234Y-3915032D02*
X24522234Y-4015032D01*
X23922234Y-4015032D02*
X25222234Y-4015032D01*
X25222234Y-3915032D02*
G75*
G02*
X25222234Y-4015032I0J-50000D01*
G01*
X25222234Y-3915032D02*
X23922234Y-3915032D01*
X23922234Y-3915032D02*
G75*
G03*
X23922234Y-4015032I0J-50000D01*
G01*
X24522234Y-5215032D02*
X24622234Y-5315032D01*
X24622234Y-5215032D02*
X24522234Y-5315032D01*
X23922234Y-5315032D02*
X25222234Y-5315032D01*
X25222234Y-5215032D02*
G75*
G02*
X25222234Y-5315032I0J-50000D01*
G01*
X25222234Y-5215032D02*
X23922234Y-5215032D01*
X23922234Y-5215032D02*
G75*
G03*
X23922234Y-5315032I0J-50000D01*
G01*
X24522234Y-5820032D02*
X24622234Y-5920032D01*
X24622234Y-5820032D02*
X24522234Y-5920032D01*
X23922234Y-5920032D02*
X25222234Y-5920032D01*
X25222234Y-5820032D02*
G75*
G02*
X25222234Y-5920032I0J-50000D01*
G01*
X25222234Y-5820032D02*
X23922234Y-5820032D01*
X23922234Y-5820032D02*
G75*
G03*
X23922234Y-5920032I0J-50000D01*
G01*
X24522234Y-7120032D02*
X24622234Y-7220032D01*
X24622234Y-7120032D02*
X24522234Y-7220032D01*
X23922234Y-7220032D02*
X25222234Y-7220032D01*
X25222234Y-7120032D02*
G75*
G02*
X25222234Y-7220032I0J-50000D01*
G01*
X25222234Y-7120032D02*
X23922234Y-7120032D01*
X23922234Y-7120032D02*
G75*
G03*
X23922234Y-7220032I0J-50000D01*
G01*
X24695984Y-10280032D02*
X24795984Y-10380032D01*
X24795984Y-10280032D02*
X24695984Y-10380032D01*
X24795984Y-10980032D02*
X24795984Y-9680032D01*
X24695984Y-9680032D02*
G75*
G02*
X24795984Y-9680032I50000J0D01*
G01*
X24695984Y-9680032D02*
X24695984Y-10980032D01*
X24695984Y-10980032D02*
G75*
G03*
X24795984Y-10980032I50000J0D01*
G01*
X24824734Y-8375032D02*
X24924734Y-8475032D01*
X24924734Y-8375032D02*
X24824734Y-8475032D01*
X24924734Y-9075032D02*
X24924734Y-7775032D01*
X24824734Y-7775032D02*
G75*
G02*
X24924734Y-7775032I50000J0D01*
G01*
X24824734Y-7775032D02*
X24824734Y-9075032D01*
X24824734Y-9075032D02*
G75*
G03*
X24924734Y-9075032I50000J0D01*
G01*
X25172234Y-4565032D02*
X25272234Y-4665032D01*
X25272234Y-4565032D02*
X25172234Y-4665032D01*
X25272234Y-5265032D02*
X25272234Y-3965032D01*
X25172234Y-3965032D02*
G75*
G02*
X25272234Y-3965032I50000J0D01*
G01*
X25172234Y-3965032D02*
X25172234Y-5265032D01*
X25172234Y-5265032D02*
G75*
G03*
X25272234Y-5265032I50000J0D01*
G01*
X25172234Y-6470032D02*
X25272234Y-6570032D01*
X25272234Y-6470032D02*
X25172234Y-6570032D01*
X25272234Y-7170032D02*
X25272234Y-5870032D01*
X25172234Y-5870032D02*
G75*
G02*
X25272234Y-5870032I50000J0D01*
G01*
X25172234Y-5870032D02*
X25172234Y-7170032D01*
X25172234Y-7170032D02*
G75*
G03*
X25272234Y-7170032I50000J0D01*
G01*
X25474734Y-7725032D02*
X25574734Y-7825032D01*
X25574734Y-7725032D02*
X25474734Y-7825032D01*
X24874734Y-7825032D02*
X26174734Y-7825032D01*
X26174734Y-7725032D02*
G75*
G02*
X26174734Y-7825032I0J-50000D01*
G01*
X26174734Y-7725032D02*
X24874734Y-7725032D01*
X24874734Y-7725032D02*
G75*
G03*
X24874734Y-7825032I0J-50000D01*
G01*
X25474734Y-9025032D02*
X25574734Y-9125032D01*
X25574734Y-9025032D02*
X25474734Y-9125032D01*
X24874734Y-9125032D02*
X26174734Y-9125032D01*
X26174734Y-9025032D02*
G75*
G02*
X26174734Y-9125032I0J-50000D01*
G01*
X26174734Y-9025032D02*
X24874734Y-9025032D01*
X24874734Y-9025032D02*
G75*
G03*
X24874734Y-9125032I0J-50000D01*
G01*
X25777234Y-6470032D02*
X25877234Y-6570032D01*
X25877234Y-6470032D02*
X25777234Y-6570032D01*
X25877234Y-7170032D02*
X25877234Y-5870032D01*
X25777234Y-5870032D02*
G75*
G02*
X25877234Y-5870032I50000J0D01*
G01*
X25777234Y-5870032D02*
X25777234Y-7170032D01*
X25777234Y-7170032D02*
G75*
G03*
X25877234Y-7170032I50000J0D01*
G01*
X26124734Y-8375032D02*
X26224734Y-8475032D01*
X26224734Y-8375032D02*
X26124734Y-8475032D01*
X26224734Y-9075032D02*
X26224734Y-7775032D01*
X26124734Y-7775032D02*
G75*
G02*
X26224734Y-7775032I50000J0D01*
G01*
X26124734Y-7775032D02*
X26124734Y-9075032D01*
X26124734Y-9075032D02*
G75*
G03*
X26224734Y-9075032I50000J0D01*
G01*
X26427234Y-5820032D02*
X26527234Y-5920032D01*
X26527234Y-5820032D02*
X26427234Y-5920032D01*
X25827234Y-5920032D02*
X27127234Y-5920032D01*
X27127234Y-5820032D02*
G75*
G02*
X27127234Y-5920032I0J-50000D01*
G01*
X27127234Y-5820032D02*
X25827234Y-5820032D01*
X25827234Y-5820032D02*
G75*
G03*
X25827234Y-5920032I0J-50000D01*
G01*
X26427234Y-7120032D02*
X26527234Y-7220032D01*
X26527234Y-7120032D02*
X26427234Y-7220032D01*
X25827234Y-7220032D02*
X27127234Y-7220032D01*
X27127234Y-7120032D02*
G75*
G02*
X27127234Y-7220032I0J-50000D01*
G01*
X27127234Y-7120032D02*
X25827234Y-7120032D01*
X25827234Y-7120032D02*
G75*
G03*
X25827234Y-7220032I0J-50000D01*
G01*
X26729734Y-8375032D02*
X26829734Y-8475032D01*
X26829734Y-8375032D02*
X26729734Y-8475032D01*
X26829734Y-9075032D02*
X26829734Y-7775032D01*
X26729734Y-7775032D02*
G75*
G02*
X26829734Y-7775032I50000J0D01*
G01*
X26729734Y-7775032D02*
X26729734Y-9075032D01*
X26729734Y-9075032D02*
G75*
G03*
X26829734Y-9075032I50000J0D01*
G01*
X27077234Y-6470032D02*
X27177234Y-6570032D01*
X27177234Y-6470032D02*
X27077234Y-6570032D01*
X27177234Y-7170032D02*
X27177234Y-5870032D01*
X27077234Y-5870032D02*
G75*
G02*
X27177234Y-5870032I50000J0D01*
G01*
X27077234Y-5870032D02*
X27077234Y-7170032D01*
X27077234Y-7170032D02*
G75*
G03*
X27177234Y-7170032I50000J0D01*
G01*
X27379734Y-7725032D02*
X27479734Y-7825032D01*
X27479734Y-7725032D02*
X27379734Y-7825032D01*
X26779734Y-7825032D02*
X28079734Y-7825032D01*
X28079734Y-7725032D02*
G75*
G02*
X28079734Y-7825032I0J-50000D01*
G01*
X28079734Y-7725032D02*
X26779734Y-7725032D01*
X26779734Y-7725032D02*
G75*
G03*
X26779734Y-7825032I0J-50000D01*
G01*
X27379734Y-9025032D02*
X27479734Y-9125032D01*
X27479734Y-9025032D02*
X27379734Y-9125032D01*
X26779734Y-9125032D02*
X28079734Y-9125032D01*
X28079734Y-9025032D02*
G75*
G02*
X28079734Y-9125032I0J-50000D01*
G01*
X28079734Y-9025032D02*
X26779734Y-9025032D01*
X26779734Y-9025032D02*
G75*
G03*
X26779734Y-9125032I0J-50000D01*
G01*
X27682234Y-6470032D02*
X27782234Y-6570032D01*
X27782234Y-6470032D02*
X27682234Y-6570032D01*
X27782234Y-7170032D02*
X27782234Y-5870032D01*
X27682234Y-5870032D02*
G75*
G02*
X27782234Y-5870032I50000J0D01*
G01*
X27682234Y-5870032D02*
X27682234Y-7170032D01*
X27682234Y-7170032D02*
G75*
G03*
X27782234Y-7170032I50000J0D01*
G01*
X28029734Y-8375032D02*
X28129734Y-8475032D01*
X28129734Y-8375032D02*
X28029734Y-8475032D01*
X28129734Y-9075032D02*
X28129734Y-7775032D01*
X28029734Y-7775032D02*
G75*
G02*
X28129734Y-7775032I50000J0D01*
G01*
X28029734Y-7775032D02*
X28029734Y-9075032D01*
X28029734Y-9075032D02*
G75*
G03*
X28129734Y-9075032I50000J0D01*
G01*
X28332234Y-5820032D02*
X28432234Y-5920032D01*
X28432234Y-5820032D02*
X28332234Y-5920032D01*
X27732234Y-5920032D02*
X29032234Y-5920032D01*
X29032234Y-5820032D02*
G75*
G02*
X29032234Y-5920032I0J-50000D01*
G01*
X29032234Y-5820032D02*
X27732234Y-5820032D01*
X27732234Y-5820032D02*
G75*
G03*
X27732234Y-5920032I0J-50000D01*
G01*
X28332234Y-7120032D02*
X28432234Y-7220032D01*
X28432234Y-7120032D02*
X28332234Y-7220032D01*
X27732234Y-7220032D02*
X29032234Y-7220032D01*
X29032234Y-7120032D02*
G75*
G02*
X29032234Y-7220032I0J-50000D01*
G01*
X29032234Y-7120032D02*
X27732234Y-7120032D01*
X27732234Y-7120032D02*
G75*
G03*
X27732234Y-7220032I0J-50000D01*
G01*
X28982234Y-6470032D02*
X29082234Y-6570032D01*
X29082234Y-6470032D02*
X28982234Y-6570032D01*
X29082234Y-7170032D02*
X29082234Y-5870032D01*
X28982234Y-5870032D02*
G75*
G02*
X29082234Y-5870032I50000J0D01*
G01*
X28982234Y-5870032D02*
X28982234Y-7170032D01*
X28982234Y-7170032D02*
G75*
G03*
X29082234Y-7170032I50000J0D01*
G01*
D11*
X20133318Y-11812137D02*
X20133318Y-11612137D01*
X20133318Y-11612137D02*
X20180937Y-11612137D01*
X20180937Y-11612137D02*
X20209508Y-11621661D01*
X20209508Y-11621661D02*
X20228556Y-11640708D01*
X20228556Y-11640708D02*
X20238080Y-11659756D01*
X20238080Y-11659756D02*
X20247604Y-11697851D01*
X20247604Y-11697851D02*
X20247604Y-11726422D01*
X20247604Y-11726422D02*
X20238080Y-11764518D01*
X20238080Y-11764518D02*
X20228556Y-11783565D01*
X20228556Y-11783565D02*
X20209508Y-11802613D01*
X20209508Y-11802613D02*
X20180937Y-11812137D01*
X20180937Y-11812137D02*
X20133318Y-11812137D01*
X20333318Y-11812137D02*
X20333318Y-11678803D01*
X20333318Y-11716899D02*
X20342842Y-11697851D01*
X20342842Y-11697851D02*
X20352365Y-11688327D01*
X20352365Y-11688327D02*
X20371413Y-11678803D01*
X20371413Y-11678803D02*
X20390461Y-11678803D01*
X20457127Y-11812137D02*
X20457127Y-11678803D01*
X20457127Y-11612137D02*
X20447604Y-11621661D01*
X20447604Y-11621661D02*
X20457127Y-11631184D01*
X20457127Y-11631184D02*
X20466651Y-11621661D01*
X20466651Y-11621661D02*
X20457127Y-11612137D01*
X20457127Y-11612137D02*
X20457127Y-11631184D01*
X20580937Y-11812137D02*
X20561889Y-11802613D01*
X20561889Y-11802613D02*
X20552365Y-11783565D01*
X20552365Y-11783565D02*
X20552365Y-11612137D01*
X20685699Y-11812137D02*
X20666651Y-11802613D01*
X20666651Y-11802613D02*
X20657127Y-11783565D01*
X20657127Y-11783565D02*
X20657127Y-11612137D01*
X20914270Y-11812137D02*
X20914270Y-11612137D01*
X20914270Y-11612137D02*
X20980937Y-11754994D01*
X20980937Y-11754994D02*
X21047604Y-11612137D01*
X21047604Y-11612137D02*
X21047604Y-11812137D01*
X21228556Y-11812137D02*
X21228556Y-11707375D01*
X21228556Y-11707375D02*
X21219032Y-11688327D01*
X21219032Y-11688327D02*
X21199985Y-11678803D01*
X21199985Y-11678803D02*
X21161889Y-11678803D01*
X21161889Y-11678803D02*
X21142842Y-11688327D01*
X21228556Y-11802613D02*
X21209508Y-11812137D01*
X21209508Y-11812137D02*
X21161889Y-11812137D01*
X21161889Y-11812137D02*
X21142842Y-11802613D01*
X21142842Y-11802613D02*
X21133318Y-11783565D01*
X21133318Y-11783565D02*
X21133318Y-11764518D01*
X21133318Y-11764518D02*
X21142842Y-11745470D01*
X21142842Y-11745470D02*
X21161889Y-11735946D01*
X21161889Y-11735946D02*
X21209508Y-11735946D01*
X21209508Y-11735946D02*
X21228556Y-11726422D01*
X21323794Y-11678803D02*
X21323794Y-11878803D01*
X21323794Y-11688327D02*
X21342842Y-11678803D01*
X21342842Y-11678803D02*
X21380937Y-11678803D01*
X21380937Y-11678803D02*
X21399985Y-11688327D01*
X21399985Y-11688327D02*
X21409508Y-11697851D01*
X21409508Y-11697851D02*
X21419032Y-11716899D01*
X21419032Y-11716899D02*
X21419032Y-11774041D01*
X21419032Y-11774041D02*
X21409508Y-11793089D01*
X21409508Y-11793089D02*
X21399985Y-11802613D01*
X21399985Y-11802613D02*
X21380937Y-11812137D01*
X21380937Y-11812137D02*
X21342842Y-11812137D01*
X21342842Y-11812137D02*
X21323794Y-11802613D01*
X21504746Y-11793089D02*
X21514270Y-11802613D01*
X21514270Y-11802613D02*
X21504746Y-11812137D01*
X21504746Y-11812137D02*
X21495223Y-11802613D01*
X21495223Y-11802613D02*
X21504746Y-11793089D01*
X21504746Y-11793089D02*
X21504746Y-11812137D01*
X21504746Y-11688327D02*
X21514270Y-11697851D01*
X21514270Y-11697851D02*
X21504746Y-11707375D01*
X21504746Y-11707375D02*
X21495223Y-11697851D01*
X21495223Y-11697851D02*
X21504746Y-11688327D01*
X21504746Y-11688327D02*
X21504746Y-11707375D01*
D12*
X19772541Y-12090653D02*
X19872541Y-12190653D01*
X19872541Y-12090653D02*
X19772541Y-12190653D01*
D11*
X20238080Y-12232137D02*
X20123794Y-12232137D01*
X20180937Y-12232137D02*
X20180937Y-12032137D01*
X20180937Y-12032137D02*
X20161889Y-12060708D01*
X20161889Y-12060708D02*
X20142842Y-12079756D01*
X20142842Y-12079756D02*
X20123794Y-12089280D01*
X20323794Y-12213089D02*
X20333318Y-12222613D01*
X20333318Y-12222613D02*
X20323794Y-12232137D01*
X20323794Y-12232137D02*
X20314270Y-12222613D01*
X20314270Y-12222613D02*
X20323794Y-12213089D01*
X20323794Y-12213089D02*
X20323794Y-12232137D01*
X20457127Y-12032137D02*
X20476175Y-12032137D01*
X20476175Y-12032137D02*
X20495223Y-12041661D01*
X20495223Y-12041661D02*
X20504746Y-12051184D01*
X20504746Y-12051184D02*
X20514270Y-12070232D01*
X20514270Y-12070232D02*
X20523794Y-12108327D01*
X20523794Y-12108327D02*
X20523794Y-12155946D01*
X20523794Y-12155946D02*
X20514270Y-12194041D01*
X20514270Y-12194041D02*
X20504746Y-12213089D01*
X20504746Y-12213089D02*
X20495223Y-12222613D01*
X20495223Y-12222613D02*
X20476175Y-12232137D01*
X20476175Y-12232137D02*
X20457127Y-12232137D01*
X20457127Y-12232137D02*
X20438080Y-12222613D01*
X20438080Y-12222613D02*
X20428556Y-12213089D01*
X20428556Y-12213089D02*
X20419032Y-12194041D01*
X20419032Y-12194041D02*
X20409508Y-12155946D01*
X20409508Y-12155946D02*
X20409508Y-12108327D01*
X20409508Y-12108327D02*
X20419032Y-12070232D01*
X20419032Y-12070232D02*
X20428556Y-12051184D01*
X20428556Y-12051184D02*
X20438080Y-12041661D01*
X20438080Y-12041661D02*
X20457127Y-12032137D01*
X20647604Y-12032137D02*
X20666651Y-12032137D01*
X20666651Y-12032137D02*
X20685699Y-12041661D01*
X20685699Y-12041661D02*
X20695223Y-12051184D01*
X20695223Y-12051184D02*
X20704746Y-12070232D01*
X20704746Y-12070232D02*
X20714270Y-12108327D01*
X20714270Y-12108327D02*
X20714270Y-12155946D01*
X20714270Y-12155946D02*
X20704746Y-12194041D01*
X20704746Y-12194041D02*
X20695223Y-12213089D01*
X20695223Y-12213089D02*
X20685699Y-12222613D01*
X20685699Y-12222613D02*
X20666651Y-12232137D01*
X20666651Y-12232137D02*
X20647604Y-12232137D01*
X20647604Y-12232137D02*
X20628556Y-12222613D01*
X20628556Y-12222613D02*
X20619032Y-12213089D01*
X20619032Y-12213089D02*
X20609508Y-12194041D01*
X20609508Y-12194041D02*
X20599985Y-12155946D01*
X20599985Y-12155946D02*
X20599985Y-12108327D01*
X20599985Y-12108327D02*
X20609508Y-12070232D01*
X20609508Y-12070232D02*
X20619032Y-12051184D01*
X20619032Y-12051184D02*
X20628556Y-12041661D01*
X20628556Y-12041661D02*
X20647604Y-12032137D01*
X20838080Y-12032137D02*
X20857127Y-12032137D01*
X20857127Y-12032137D02*
X20876175Y-12041661D01*
X20876175Y-12041661D02*
X20885699Y-12051184D01*
X20885699Y-12051184D02*
X20895223Y-12070232D01*
X20895223Y-12070232D02*
X20904746Y-12108327D01*
X20904746Y-12108327D02*
X20904746Y-12155946D01*
X20904746Y-12155946D02*
X20895223Y-12194041D01*
X20895223Y-12194041D02*
X20885699Y-12213089D01*
X20885699Y-12213089D02*
X20876175Y-12222613D01*
X20876175Y-12222613D02*
X20857127Y-12232137D01*
X20857127Y-12232137D02*
X20838080Y-12232137D01*
X20838080Y-12232137D02*
X20819032Y-12222613D01*
X20819032Y-12222613D02*
X20809508Y-12213089D01*
X20809508Y-12213089D02*
X20799985Y-12194041D01*
X20799985Y-12194041D02*
X20790461Y-12155946D01*
X20790461Y-12155946D02*
X20790461Y-12108327D01*
X20790461Y-12108327D02*
X20799985Y-12070232D01*
X20799985Y-12070232D02*
X20809508Y-12051184D01*
X20809508Y-12051184D02*
X20819032Y-12041661D01*
X20819032Y-12041661D02*
X20838080Y-12032137D01*
X20990461Y-12232137D02*
X20990461Y-12098803D01*
X20990461Y-12117851D02*
X20999985Y-12108327D01*
X20999985Y-12108327D02*
X21019032Y-12098803D01*
X21019032Y-12098803D02*
X21047604Y-12098803D01*
X21047604Y-12098803D02*
X21066651Y-12108327D01*
X21066651Y-12108327D02*
X21076175Y-12127375D01*
X21076175Y-12127375D02*
X21076175Y-12232137D01*
X21076175Y-12127375D02*
X21085699Y-12108327D01*
X21085699Y-12108327D02*
X21104746Y-12098803D01*
X21104746Y-12098803D02*
X21133318Y-12098803D01*
X21133318Y-12098803D02*
X21152366Y-12108327D01*
X21152366Y-12108327D02*
X21161889Y-12127375D01*
X21161889Y-12127375D02*
X21161889Y-12232137D01*
X21257127Y-12232137D02*
X21257127Y-12098803D01*
X21257127Y-12117851D02*
X21266651Y-12108327D01*
X21266651Y-12108327D02*
X21285699Y-12098803D01*
X21285699Y-12098803D02*
X21314270Y-12098803D01*
X21314270Y-12098803D02*
X21333318Y-12108327D01*
X21333318Y-12108327D02*
X21342842Y-12127375D01*
X21342842Y-12127375D02*
X21342842Y-12232137D01*
X21342842Y-12127375D02*
X21352366Y-12108327D01*
X21352366Y-12108327D02*
X21371413Y-12098803D01*
X21371413Y-12098803D02*
X21399985Y-12098803D01*
X21399985Y-12098803D02*
X21419032Y-12108327D01*
X21419032Y-12108327D02*
X21428556Y-12127375D01*
X21428556Y-12127375D02*
X21428556Y-12232137D01*
X21819032Y-12022613D02*
X21647604Y-12279756D01*
X22076175Y-12032137D02*
X22095223Y-12032137D01*
X22095223Y-12032137D02*
X22114270Y-12041661D01*
X22114270Y-12041661D02*
X22123794Y-12051184D01*
X22123794Y-12051184D02*
X22133318Y-12070232D01*
X22133318Y-12070232D02*
X22142842Y-12108327D01*
X22142842Y-12108327D02*
X22142842Y-12155946D01*
X22142842Y-12155946D02*
X22133318Y-12194041D01*
X22133318Y-12194041D02*
X22123794Y-12213089D01*
X22123794Y-12213089D02*
X22114270Y-12222613D01*
X22114270Y-12222613D02*
X22095223Y-12232137D01*
X22095223Y-12232137D02*
X22076175Y-12232137D01*
X22076175Y-12232137D02*
X22057128Y-12222613D01*
X22057128Y-12222613D02*
X22047604Y-12213089D01*
X22047604Y-12213089D02*
X22038080Y-12194041D01*
X22038080Y-12194041D02*
X22028556Y-12155946D01*
X22028556Y-12155946D02*
X22028556Y-12108327D01*
X22028556Y-12108327D02*
X22038080Y-12070232D01*
X22038080Y-12070232D02*
X22047604Y-12051184D01*
X22047604Y-12051184D02*
X22057128Y-12041661D01*
X22057128Y-12041661D02*
X22076175Y-12032137D01*
X22228556Y-12213089D02*
X22238080Y-12222613D01*
X22238080Y-12222613D02*
X22228556Y-12232137D01*
X22228556Y-12232137D02*
X22219032Y-12222613D01*
X22219032Y-12222613D02*
X22228556Y-12213089D01*
X22228556Y-12213089D02*
X22228556Y-12232137D01*
X22361889Y-12032137D02*
X22380937Y-12032137D01*
X22380937Y-12032137D02*
X22399985Y-12041661D01*
X22399985Y-12041661D02*
X22409508Y-12051184D01*
X22409508Y-12051184D02*
X22419032Y-12070232D01*
X22419032Y-12070232D02*
X22428556Y-12108327D01*
X22428556Y-12108327D02*
X22428556Y-12155946D01*
X22428556Y-12155946D02*
X22419032Y-12194041D01*
X22419032Y-12194041D02*
X22409508Y-12213089D01*
X22409508Y-12213089D02*
X22399985Y-12222613D01*
X22399985Y-12222613D02*
X22380937Y-12232137D01*
X22380937Y-12232137D02*
X22361889Y-12232137D01*
X22361889Y-12232137D02*
X22342842Y-12222613D01*
X22342842Y-12222613D02*
X22333318Y-12213089D01*
X22333318Y-12213089D02*
X22323794Y-12194041D01*
X22323794Y-12194041D02*
X22314270Y-12155946D01*
X22314270Y-12155946D02*
X22314270Y-12108327D01*
X22314270Y-12108327D02*
X22323794Y-12070232D01*
X22323794Y-12070232D02*
X22333318Y-12051184D01*
X22333318Y-12051184D02*
X22342842Y-12041661D01*
X22342842Y-12041661D02*
X22361889Y-12032137D01*
X22495223Y-12032137D02*
X22619032Y-12032137D01*
X22619032Y-12032137D02*
X22552366Y-12108327D01*
X22552366Y-12108327D02*
X22580937Y-12108327D01*
X22580937Y-12108327D02*
X22599985Y-12117851D01*
X22599985Y-12117851D02*
X22609508Y-12127375D01*
X22609508Y-12127375D02*
X22619032Y-12146422D01*
X22619032Y-12146422D02*
X22619032Y-12194041D01*
X22619032Y-12194041D02*
X22609508Y-12213089D01*
X22609508Y-12213089D02*
X22599985Y-12222613D01*
X22599985Y-12222613D02*
X22580937Y-12232137D01*
X22580937Y-12232137D02*
X22523794Y-12232137D01*
X22523794Y-12232137D02*
X22504747Y-12222613D01*
X22504747Y-12222613D02*
X22495223Y-12213089D01*
X22714270Y-12232137D02*
X22752366Y-12232137D01*
X22752366Y-12232137D02*
X22771413Y-12222613D01*
X22771413Y-12222613D02*
X22780937Y-12213089D01*
X22780937Y-12213089D02*
X22799985Y-12184518D01*
X22799985Y-12184518D02*
X22809508Y-12146422D01*
X22809508Y-12146422D02*
X22809508Y-12070232D01*
X22809508Y-12070232D02*
X22799985Y-12051184D01*
X22799985Y-12051184D02*
X22790461Y-12041661D01*
X22790461Y-12041661D02*
X22771413Y-12032137D01*
X22771413Y-12032137D02*
X22733318Y-12032137D01*
X22733318Y-12032137D02*
X22714270Y-12041661D01*
X22714270Y-12041661D02*
X22704747Y-12051184D01*
X22704747Y-12051184D02*
X22695223Y-12070232D01*
X22695223Y-12070232D02*
X22695223Y-12117851D01*
X22695223Y-12117851D02*
X22704747Y-12136899D01*
X22704747Y-12136899D02*
X22714270Y-12146422D01*
X22714270Y-12146422D02*
X22733318Y-12155946D01*
X22733318Y-12155946D02*
X22771413Y-12155946D01*
X22771413Y-12155946D02*
X22790461Y-12146422D01*
X22790461Y-12146422D02*
X22799985Y-12136899D01*
X22799985Y-12136899D02*
X22809508Y-12117851D01*
X22980937Y-12098803D02*
X22980937Y-12232137D01*
X22933318Y-12022613D02*
X22885699Y-12165470D01*
X22885699Y-12165470D02*
X23009508Y-12165470D01*
X23076175Y-12032137D02*
X23076175Y-12070232D01*
X23152366Y-12032137D02*
X23152366Y-12070232D01*
X23447604Y-12308327D02*
X23438080Y-12298803D01*
X23438080Y-12298803D02*
X23419032Y-12270232D01*
X23419032Y-12270232D02*
X23409509Y-12251184D01*
X23409509Y-12251184D02*
X23399985Y-12222613D01*
X23399985Y-12222613D02*
X23390461Y-12174994D01*
X23390461Y-12174994D02*
X23390461Y-12136899D01*
X23390461Y-12136899D02*
X23399985Y-12089280D01*
X23399985Y-12089280D02*
X23409509Y-12060708D01*
X23409509Y-12060708D02*
X23419032Y-12041661D01*
X23419032Y-12041661D02*
X23438080Y-12013089D01*
X23438080Y-12013089D02*
X23447604Y-12003565D01*
X23561889Y-12032137D02*
X23580937Y-12032137D01*
X23580937Y-12032137D02*
X23599985Y-12041661D01*
X23599985Y-12041661D02*
X23609509Y-12051184D01*
X23609509Y-12051184D02*
X23619032Y-12070232D01*
X23619032Y-12070232D02*
X23628556Y-12108327D01*
X23628556Y-12108327D02*
X23628556Y-12155946D01*
X23628556Y-12155946D02*
X23619032Y-12194041D01*
X23619032Y-12194041D02*
X23609509Y-12213089D01*
X23609509Y-12213089D02*
X23599985Y-12222613D01*
X23599985Y-12222613D02*
X23580937Y-12232137D01*
X23580937Y-12232137D02*
X23561889Y-12232137D01*
X23561889Y-12232137D02*
X23542842Y-12222613D01*
X23542842Y-12222613D02*
X23533318Y-12213089D01*
X23533318Y-12213089D02*
X23523794Y-12194041D01*
X23523794Y-12194041D02*
X23514270Y-12155946D01*
X23514270Y-12155946D02*
X23514270Y-12108327D01*
X23514270Y-12108327D02*
X23523794Y-12070232D01*
X23523794Y-12070232D02*
X23533318Y-12051184D01*
X23533318Y-12051184D02*
X23542842Y-12041661D01*
X23542842Y-12041661D02*
X23561889Y-12032137D01*
X23866651Y-12232137D02*
X23866651Y-12032137D01*
X23952366Y-12232137D02*
X23952366Y-12127375D01*
X23952366Y-12127375D02*
X23942842Y-12108327D01*
X23942842Y-12108327D02*
X23923794Y-12098803D01*
X23923794Y-12098803D02*
X23895223Y-12098803D01*
X23895223Y-12098803D02*
X23876175Y-12108327D01*
X23876175Y-12108327D02*
X23866651Y-12117851D01*
X24076175Y-12232137D02*
X24057128Y-12222613D01*
X24057128Y-12222613D02*
X24047604Y-12213089D01*
X24047604Y-12213089D02*
X24038080Y-12194041D01*
X24038080Y-12194041D02*
X24038080Y-12136899D01*
X24038080Y-12136899D02*
X24047604Y-12117851D01*
X24047604Y-12117851D02*
X24057128Y-12108327D01*
X24057128Y-12108327D02*
X24076175Y-12098803D01*
X24076175Y-12098803D02*
X24104747Y-12098803D01*
X24104747Y-12098803D02*
X24123794Y-12108327D01*
X24123794Y-12108327D02*
X24133318Y-12117851D01*
X24133318Y-12117851D02*
X24142842Y-12136899D01*
X24142842Y-12136899D02*
X24142842Y-12194041D01*
X24142842Y-12194041D02*
X24133318Y-12213089D01*
X24133318Y-12213089D02*
X24123794Y-12222613D01*
X24123794Y-12222613D02*
X24104747Y-12232137D01*
X24104747Y-12232137D02*
X24076175Y-12232137D01*
X24257128Y-12232137D02*
X24238080Y-12222613D01*
X24238080Y-12222613D02*
X24228556Y-12203565D01*
X24228556Y-12203565D02*
X24228556Y-12032137D01*
X24409509Y-12222613D02*
X24390461Y-12232137D01*
X24390461Y-12232137D02*
X24352366Y-12232137D01*
X24352366Y-12232137D02*
X24333318Y-12222613D01*
X24333318Y-12222613D02*
X24323794Y-12203565D01*
X24323794Y-12203565D02*
X24323794Y-12127375D01*
X24323794Y-12127375D02*
X24333318Y-12108327D01*
X24333318Y-12108327D02*
X24352366Y-12098803D01*
X24352366Y-12098803D02*
X24390461Y-12098803D01*
X24390461Y-12098803D02*
X24409509Y-12108327D01*
X24409509Y-12108327D02*
X24419032Y-12127375D01*
X24419032Y-12127375D02*
X24419032Y-12146422D01*
X24419032Y-12146422D02*
X24323794Y-12165470D01*
X24495223Y-12222613D02*
X24514271Y-12232137D01*
X24514271Y-12232137D02*
X24552366Y-12232137D01*
X24552366Y-12232137D02*
X24571413Y-12222613D01*
X24571413Y-12222613D02*
X24580937Y-12203565D01*
X24580937Y-12203565D02*
X24580937Y-12194041D01*
X24580937Y-12194041D02*
X24571413Y-12174994D01*
X24571413Y-12174994D02*
X24552366Y-12165470D01*
X24552366Y-12165470D02*
X24523794Y-12165470D01*
X24523794Y-12165470D02*
X24504747Y-12155946D01*
X24504747Y-12155946D02*
X24495223Y-12136899D01*
X24495223Y-12136899D02*
X24495223Y-12127375D01*
X24495223Y-12127375D02*
X24504747Y-12108327D01*
X24504747Y-12108327D02*
X24523794Y-12098803D01*
X24523794Y-12098803D02*
X24552366Y-12098803D01*
X24552366Y-12098803D02*
X24571413Y-12108327D01*
X24819033Y-12155946D02*
X24971414Y-12155946D01*
X24895223Y-12232137D02*
X24895223Y-12079756D01*
X25314271Y-12032137D02*
X25219033Y-12032137D01*
X25219033Y-12032137D02*
X25209509Y-12127375D01*
X25209509Y-12127375D02*
X25219033Y-12117851D01*
X25219033Y-12117851D02*
X25238080Y-12108327D01*
X25238080Y-12108327D02*
X25285699Y-12108327D01*
X25285699Y-12108327D02*
X25304747Y-12117851D01*
X25304747Y-12117851D02*
X25314271Y-12127375D01*
X25314271Y-12127375D02*
X25323794Y-12146422D01*
X25323794Y-12146422D02*
X25323794Y-12194041D01*
X25323794Y-12194041D02*
X25314271Y-12213089D01*
X25314271Y-12213089D02*
X25304747Y-12222613D01*
X25304747Y-12222613D02*
X25285699Y-12232137D01*
X25285699Y-12232137D02*
X25238080Y-12232137D01*
X25238080Y-12232137D02*
X25219033Y-12222613D01*
X25219033Y-12222613D02*
X25209509Y-12213089D01*
X25399985Y-12051184D02*
X25409509Y-12041661D01*
X25409509Y-12041661D02*
X25428556Y-12032137D01*
X25428556Y-12032137D02*
X25476175Y-12032137D01*
X25476175Y-12032137D02*
X25495223Y-12041661D01*
X25495223Y-12041661D02*
X25504747Y-12051184D01*
X25504747Y-12051184D02*
X25514271Y-12070232D01*
X25514271Y-12070232D02*
X25514271Y-12089280D01*
X25514271Y-12089280D02*
X25504747Y-12117851D01*
X25504747Y-12117851D02*
X25390461Y-12232137D01*
X25390461Y-12232137D02*
X25514271Y-12232137D01*
X25742842Y-12222613D02*
X25761890Y-12232137D01*
X25761890Y-12232137D02*
X25799985Y-12232137D01*
X25799985Y-12232137D02*
X25819033Y-12222613D01*
X25819033Y-12222613D02*
X25828556Y-12203565D01*
X25828556Y-12203565D02*
X25828556Y-12194041D01*
X25828556Y-12194041D02*
X25819033Y-12174994D01*
X25819033Y-12174994D02*
X25799985Y-12165470D01*
X25799985Y-12165470D02*
X25771414Y-12165470D01*
X25771414Y-12165470D02*
X25752366Y-12155946D01*
X25752366Y-12155946D02*
X25742842Y-12136899D01*
X25742842Y-12136899D02*
X25742842Y-12127375D01*
X25742842Y-12127375D02*
X25752366Y-12108327D01*
X25752366Y-12108327D02*
X25771414Y-12098803D01*
X25771414Y-12098803D02*
X25799985Y-12098803D01*
X25799985Y-12098803D02*
X25819033Y-12108327D01*
X25942842Y-12232137D02*
X25923795Y-12222613D01*
X25923795Y-12222613D02*
X25914271Y-12203565D01*
X25914271Y-12203565D02*
X25914271Y-12032137D01*
X26047604Y-12232137D02*
X26028556Y-12222613D01*
X26028556Y-12222613D02*
X26019033Y-12213089D01*
X26019033Y-12213089D02*
X26009509Y-12194041D01*
X26009509Y-12194041D02*
X26009509Y-12136899D01*
X26009509Y-12136899D02*
X26019033Y-12117851D01*
X26019033Y-12117851D02*
X26028556Y-12108327D01*
X26028556Y-12108327D02*
X26047604Y-12098803D01*
X26047604Y-12098803D02*
X26076176Y-12098803D01*
X26076176Y-12098803D02*
X26095223Y-12108327D01*
X26095223Y-12108327D02*
X26104747Y-12117851D01*
X26104747Y-12117851D02*
X26114271Y-12136899D01*
X26114271Y-12136899D02*
X26114271Y-12194041D01*
X26114271Y-12194041D02*
X26104747Y-12213089D01*
X26104747Y-12213089D02*
X26095223Y-12222613D01*
X26095223Y-12222613D02*
X26076176Y-12232137D01*
X26076176Y-12232137D02*
X26047604Y-12232137D01*
X26171414Y-12098803D02*
X26247604Y-12098803D01*
X26199985Y-12032137D02*
X26199985Y-12203565D01*
X26199985Y-12203565D02*
X26209509Y-12222613D01*
X26209509Y-12222613D02*
X26228556Y-12232137D01*
X26228556Y-12232137D02*
X26247604Y-12232137D01*
X26304747Y-12222613D02*
X26323795Y-12232137D01*
X26323795Y-12232137D02*
X26361890Y-12232137D01*
X26361890Y-12232137D02*
X26380937Y-12222613D01*
X26380937Y-12222613D02*
X26390461Y-12203565D01*
X26390461Y-12203565D02*
X26390461Y-12194041D01*
X26390461Y-12194041D02*
X26380937Y-12174994D01*
X26380937Y-12174994D02*
X26361890Y-12165470D01*
X26361890Y-12165470D02*
X26333318Y-12165470D01*
X26333318Y-12165470D02*
X26314271Y-12155946D01*
X26314271Y-12155946D02*
X26304747Y-12136899D01*
X26304747Y-12136899D02*
X26304747Y-12127375D01*
X26304747Y-12127375D02*
X26314271Y-12108327D01*
X26314271Y-12108327D02*
X26333318Y-12098803D01*
X26333318Y-12098803D02*
X26361890Y-12098803D01*
X26361890Y-12098803D02*
X26380937Y-12108327D01*
X26457128Y-12308327D02*
X26466652Y-12298803D01*
X26466652Y-12298803D02*
X26485699Y-12270232D01*
X26485699Y-12270232D02*
X26495223Y-12251184D01*
X26495223Y-12251184D02*
X26504747Y-12222613D01*
X26504747Y-12222613D02*
X26514271Y-12174994D01*
X26514271Y-12174994D02*
X26514271Y-12136899D01*
X26514271Y-12136899D02*
X26504747Y-12089280D01*
X26504747Y-12089280D02*
X26495223Y-12060708D01*
X26495223Y-12060708D02*
X26485699Y-12041661D01*
X26485699Y-12041661D02*
X26466652Y-12013089D01*
X26466652Y-12013089D02*
X26457128Y-12003565D01*
X26819033Y-12308327D02*
X26809509Y-12298803D01*
X26809509Y-12298803D02*
X26790461Y-12270232D01*
X26790461Y-12270232D02*
X26780937Y-12251184D01*
X26780937Y-12251184D02*
X26771414Y-12222613D01*
X26771414Y-12222613D02*
X26761890Y-12174994D01*
X26761890Y-12174994D02*
X26761890Y-12136899D01*
X26761890Y-12136899D02*
X26771414Y-12089280D01*
X26771414Y-12089280D02*
X26780937Y-12060708D01*
X26780937Y-12060708D02*
X26790461Y-12041661D01*
X26790461Y-12041661D02*
X26809509Y-12013089D01*
X26809509Y-12013089D02*
X26819033Y-12003565D01*
X26895223Y-12098803D02*
X26895223Y-12232137D01*
X26895223Y-12117851D02*
X26904747Y-12108327D01*
X26904747Y-12108327D02*
X26923795Y-12098803D01*
X26923795Y-12098803D02*
X26952366Y-12098803D01*
X26952366Y-12098803D02*
X26971414Y-12108327D01*
X26971414Y-12108327D02*
X26980937Y-12127375D01*
X26980937Y-12127375D02*
X26980937Y-12232137D01*
X27104747Y-12232137D02*
X27085699Y-12222613D01*
X27085699Y-12222613D02*
X27076176Y-12213089D01*
X27076176Y-12213089D02*
X27066652Y-12194041D01*
X27066652Y-12194041D02*
X27066652Y-12136899D01*
X27066652Y-12136899D02*
X27076176Y-12117851D01*
X27076176Y-12117851D02*
X27085699Y-12108327D01*
X27085699Y-12108327D02*
X27104747Y-12098803D01*
X27104747Y-12098803D02*
X27133318Y-12098803D01*
X27133318Y-12098803D02*
X27152366Y-12108327D01*
X27152366Y-12108327D02*
X27161890Y-12117851D01*
X27161890Y-12117851D02*
X27171414Y-12136899D01*
X27171414Y-12136899D02*
X27171414Y-12194041D01*
X27171414Y-12194041D02*
X27161890Y-12213089D01*
X27161890Y-12213089D02*
X27152366Y-12222613D01*
X27152366Y-12222613D02*
X27133318Y-12232137D01*
X27133318Y-12232137D02*
X27104747Y-12232137D01*
X27228557Y-12098803D02*
X27304747Y-12098803D01*
X27257128Y-12032137D02*
X27257128Y-12203565D01*
X27257128Y-12203565D02*
X27266652Y-12222613D01*
X27266652Y-12222613D02*
X27285699Y-12232137D01*
X27285699Y-12232137D02*
X27304747Y-12232137D01*
X27523795Y-12098803D02*
X27523795Y-12298803D01*
X27523795Y-12108327D02*
X27542842Y-12098803D01*
X27542842Y-12098803D02*
X27580938Y-12098803D01*
X27580938Y-12098803D02*
X27599985Y-12108327D01*
X27599985Y-12108327D02*
X27609509Y-12117851D01*
X27609509Y-12117851D02*
X27619033Y-12136899D01*
X27619033Y-12136899D02*
X27619033Y-12194041D01*
X27619033Y-12194041D02*
X27609509Y-12213089D01*
X27609509Y-12213089D02*
X27599985Y-12222613D01*
X27599985Y-12222613D02*
X27580938Y-12232137D01*
X27580938Y-12232137D02*
X27542842Y-12232137D01*
X27542842Y-12232137D02*
X27523795Y-12222613D01*
X27733318Y-12232137D02*
X27714271Y-12222613D01*
X27714271Y-12222613D02*
X27704747Y-12203565D01*
X27704747Y-12203565D02*
X27704747Y-12032137D01*
X27895223Y-12232137D02*
X27895223Y-12127375D01*
X27895223Y-12127375D02*
X27885699Y-12108327D01*
X27885699Y-12108327D02*
X27866652Y-12098803D01*
X27866652Y-12098803D02*
X27828557Y-12098803D01*
X27828557Y-12098803D02*
X27809509Y-12108327D01*
X27895223Y-12222613D02*
X27876176Y-12232137D01*
X27876176Y-12232137D02*
X27828557Y-12232137D01*
X27828557Y-12232137D02*
X27809509Y-12222613D01*
X27809509Y-12222613D02*
X27799985Y-12203565D01*
X27799985Y-12203565D02*
X27799985Y-12184518D01*
X27799985Y-12184518D02*
X27809509Y-12165470D01*
X27809509Y-12165470D02*
X27828557Y-12155946D01*
X27828557Y-12155946D02*
X27876176Y-12155946D01*
X27876176Y-12155946D02*
X27895223Y-12146422D01*
X27961890Y-12098803D02*
X28038080Y-12098803D01*
X27990461Y-12032137D02*
X27990461Y-12203565D01*
X27990461Y-12203565D02*
X27999985Y-12222613D01*
X27999985Y-12222613D02*
X28019033Y-12232137D01*
X28019033Y-12232137D02*
X28038080Y-12232137D01*
X28180938Y-12222613D02*
X28161890Y-12232137D01*
X28161890Y-12232137D02*
X28123795Y-12232137D01*
X28123795Y-12232137D02*
X28104747Y-12222613D01*
X28104747Y-12222613D02*
X28095223Y-12203565D01*
X28095223Y-12203565D02*
X28095223Y-12127375D01*
X28095223Y-12127375D02*
X28104747Y-12108327D01*
X28104747Y-12108327D02*
X28123795Y-12098803D01*
X28123795Y-12098803D02*
X28161890Y-12098803D01*
X28161890Y-12098803D02*
X28180938Y-12108327D01*
X28180938Y-12108327D02*
X28190461Y-12127375D01*
X28190461Y-12127375D02*
X28190461Y-12146422D01*
X28190461Y-12146422D02*
X28095223Y-12165470D01*
X28361890Y-12232137D02*
X28361890Y-12032137D01*
X28361890Y-12222613D02*
X28342842Y-12232137D01*
X28342842Y-12232137D02*
X28304747Y-12232137D01*
X28304747Y-12232137D02*
X28285699Y-12222613D01*
X28285699Y-12222613D02*
X28276176Y-12213089D01*
X28276176Y-12213089D02*
X28266652Y-12194041D01*
X28266652Y-12194041D02*
X28266652Y-12136899D01*
X28266652Y-12136899D02*
X28276176Y-12117851D01*
X28276176Y-12117851D02*
X28285699Y-12108327D01*
X28285699Y-12108327D02*
X28304747Y-12098803D01*
X28304747Y-12098803D02*
X28342842Y-12098803D01*
X28342842Y-12098803D02*
X28361890Y-12108327D01*
X28438080Y-12308327D02*
X28447604Y-12298803D01*
X28447604Y-12298803D02*
X28466652Y-12270232D01*
X28466652Y-12270232D02*
X28476176Y-12251184D01*
X28476176Y-12251184D02*
X28485699Y-12222613D01*
X28485699Y-12222613D02*
X28495223Y-12174994D01*
X28495223Y-12174994D02*
X28495223Y-12136899D01*
X28495223Y-12136899D02*
X28485699Y-12089280D01*
X28485699Y-12089280D02*
X28476176Y-12060708D01*
X28476176Y-12060708D02*
X28466652Y-12041661D01*
X28466652Y-12041661D02*
X28447604Y-12013089D01*
X28447604Y-12013089D02*
X28438080Y-12003565D01*
M02*
