G04 #@! TF.GenerationSoftware,KiCad,Pcbnew,8.0.5*
G04 #@! TF.CreationDate,2024-09-30T06:21:52+09:00*
G04 #@! TF.ProjectId,SandyLP_Plate_Base_LR,53616e64-794c-4505-9f50-6c6174655f42,v.0*
G04 #@! TF.SameCoordinates,Original*
G04 #@! TF.FileFunction,Copper,L1,Top*
G04 #@! TF.FilePolarity,Positive*
%FSLAX46Y46*%
G04 Gerber Fmt 4.6, Leading zero omitted, Abs format (unit mm)*
G04 Created by KiCad (PCBNEW 8.0.5) date 2024-09-30 06:21:52*
%MOMM*%
%LPD*%
G01*
G04 APERTURE LIST*
G04 Aperture macros list*
%AMRoundRect*
0 Rectangle with rounded corners*
0 $1 Rounding radius*
0 $2 $3 $4 $5 $6 $7 $8 $9 X,Y pos of 4 corners*
0 Add a 4 corners polygon primitive as box body*
4,1,4,$2,$3,$4,$5,$6,$7,$8,$9,$2,$3,0*
0 Add four circle primitives for the rounded corners*
1,1,$1+$1,$2,$3*
1,1,$1+$1,$4,$5*
1,1,$1+$1,$6,$7*
1,1,$1+$1,$8,$9*
0 Add four rect primitives between the rounded corners*
20,1,$1+$1,$2,$3,$4,$5,0*
20,1,$1+$1,$4,$5,$6,$7,0*
20,1,$1+$1,$6,$7,$8,$9,0*
20,1,$1+$1,$8,$9,$2,$3,0*%
G04 Aperture macros list end*
G04 #@! TA.AperFunction,WasherPad*
%ADD10RoundRect,0.900000X0.000010X-6.500000X0.000010X6.500000X-0.000010X6.500000X-0.000010X-6.500000X0*%
G04 #@! TD*
G04 #@! TA.AperFunction,WasherPad*
%ADD11RoundRect,0.900000X-6.500000X-0.000010X6.500000X-0.000010X6.500000X0.000010X-6.500000X0.000010X0*%
G04 #@! TD*
G04 #@! TA.AperFunction,Conductor*
%ADD12C,0.160000*%
G04 #@! TD*
G04 #@! TA.AperFunction,Conductor*
%ADD13C,0.254000*%
G04 #@! TD*
G04 #@! TA.AperFunction,Conductor*
%ADD14C,0.320000*%
G04 #@! TD*
G04 APERTURE END LIST*
D10*
X248747345Y-84250320D03*
D11*
X255247345Y-77750320D03*
X255247345Y-90750320D03*
D10*
X261747345Y-84250320D03*
X220172345Y-46150320D03*
D11*
X226672345Y-39650320D03*
X226672345Y-52650320D03*
D10*
X233172345Y-46150320D03*
X201122345Y-65200320D03*
D11*
X207622345Y-58700320D03*
X207622345Y-71700320D03*
D10*
X214122345Y-65200320D03*
X277322345Y-65200320D03*
D11*
X283822345Y-58700320D03*
X283822345Y-71700320D03*
D10*
X290322345Y-65200320D03*
X258272345Y-65200320D03*
D11*
X264772345Y-58700320D03*
X264772345Y-71700320D03*
D10*
X271272345Y-65200320D03*
X239222345Y-46150320D03*
D11*
X245722345Y-39650320D03*
X245722345Y-52650320D03*
D10*
X252222345Y-46150320D03*
X267797345Y-84250320D03*
D11*
X274297345Y-77750320D03*
X274297345Y-90750320D03*
D10*
X280797345Y-84250320D03*
X210647345Y-84250320D03*
D11*
X217147345Y-77750320D03*
X217147345Y-90750320D03*
D10*
X223647345Y-84250320D03*
X220172345Y-65200320D03*
D11*
X226672345Y-58700320D03*
X226672345Y-71700320D03*
D10*
X233172345Y-65200320D03*
X229697345Y-84250320D03*
D11*
X236197345Y-77750320D03*
X236197345Y-90750320D03*
D10*
X242697345Y-84250320D03*
X234459845Y-103300320D03*
D11*
X240959845Y-96800320D03*
X240959845Y-109800320D03*
D10*
X247459845Y-103300320D03*
X239222345Y-65200320D03*
D11*
X245722345Y-58700320D03*
X245722345Y-71700320D03*
D10*
X252222345Y-65200320D03*
X215409845Y-103300320D03*
D11*
X221909845Y-96800320D03*
X221909845Y-109800320D03*
D10*
X228409845Y-103300320D03*
D12*
X284745382Y-107524471D02*
X283624845Y-108214070D01*
X264532345Y-112191570D02*
X264552345Y-112201570D01*
X285234845Y-107820320D02*
X282794845Y-106381570D01*
X269322345Y-111381570D02*
X267623360Y-110442585D01*
D13*
X277842345Y-101231570D02*
X278092345Y-101211570D01*
D12*
X274062345Y-107221570D02*
X273582345Y-106971570D01*
D13*
X277452345Y-101411570D02*
X277842345Y-101231570D01*
D12*
X278802345Y-106961570D02*
X278802345Y-104511570D01*
X274552345Y-102616674D02*
X274554793Y-102619122D01*
X269322345Y-108921570D02*
X269312345Y-108911570D01*
X278802345Y-104511570D02*
X283042345Y-102061570D01*
X278282345Y-107261570D02*
X274062345Y-109691570D01*
D13*
X265212345Y-108041570D02*
X264942345Y-108111570D01*
X279842345Y-102561570D02*
X279382345Y-102851570D01*
D12*
X286372345Y-106210945D02*
X287447345Y-106827195D01*
X287455144Y-103683771D02*
X283644845Y-105879070D01*
D13*
X271182345Y-106561570D02*
X271172345Y-106561570D01*
D12*
X278802345Y-99601570D02*
X279340255Y-99913660D01*
X285634845Y-107081570D02*
X285634845Y-107556570D01*
X287034845Y-103464070D02*
X287474845Y-103694070D01*
X283634845Y-105894070D02*
X285584845Y-107044070D01*
X279322345Y-99871570D02*
X279340255Y-99913660D01*
D13*
X279012345Y-103051570D02*
X276802345Y-101801570D01*
D12*
X283184845Y-107494070D02*
X283184845Y-107969070D01*
X283587345Y-103156570D02*
X283572345Y-103161570D01*
X273572345Y-108951570D02*
X273184246Y-109173471D01*
X266220417Y-105803498D02*
X264562345Y-104851570D01*
X285884845Y-106419070D02*
X287434845Y-107295320D01*
X287484845Y-103714070D02*
X287484845Y-104189070D01*
X283042345Y-104521570D02*
X278802345Y-106961570D01*
X273582345Y-108941570D02*
X273572345Y-108951570D01*
X283042345Y-102891570D02*
X283042345Y-104521570D01*
D13*
X272092345Y-104451570D02*
X274402345Y-105751570D01*
X275762345Y-104971570D02*
X272092345Y-104451570D01*
X263172345Y-106681570D02*
X263002345Y-106901570D01*
X269051041Y-106982874D02*
X269472345Y-107511570D01*
D12*
X285881407Y-106925476D02*
X285634845Y-107081570D01*
X268812345Y-107291570D02*
X268812345Y-108631570D01*
X278292345Y-107251570D02*
X278282345Y-107261570D01*
X267623360Y-110442585D02*
X264552345Y-112201570D01*
X268812345Y-109761570D02*
X267623360Y-110442585D01*
D13*
X279592345Y-101641570D02*
X279822345Y-101861570D01*
D12*
X278292345Y-104801570D02*
X278292345Y-106701570D01*
X289394845Y-106196570D02*
X289394845Y-106671570D01*
D13*
X271172345Y-106561570D02*
X270212345Y-106313135D01*
D12*
X274062345Y-102331570D02*
X274042345Y-102341570D01*
X274062345Y-107221570D02*
X278292345Y-104801570D01*
D13*
X281622345Y-97961570D02*
X283522345Y-98241570D01*
D12*
X264552345Y-109741570D02*
X260322345Y-107301570D01*
X273184246Y-109173471D02*
X269322345Y-111381570D01*
D14*
X283072345Y-97191570D02*
X283502345Y-98201570D01*
D12*
X264562345Y-104851570D02*
X260322345Y-107301570D01*
X287832345Y-98271570D02*
X287832345Y-100721570D01*
X264552345Y-109741570D02*
X268812345Y-107291570D01*
X285194845Y-107316570D02*
X282824845Y-105881570D01*
D13*
X270212345Y-106313135D02*
X268042345Y-105751570D01*
D12*
X289394845Y-106671570D02*
X287469845Y-107809070D01*
X283184845Y-107969070D02*
X283594845Y-108206570D01*
X279337345Y-98281570D02*
X283562345Y-95831570D01*
D13*
X263492345Y-107361570D02*
X263882345Y-107361570D01*
X279972345Y-102411570D02*
X279842345Y-102561570D01*
D12*
X274042345Y-102341570D02*
X270223091Y-104550824D01*
X274062345Y-109691570D02*
X273184246Y-109173471D01*
D13*
X265882345Y-107201570D02*
X265972345Y-107391570D01*
D12*
X285234845Y-107306570D02*
X285234845Y-107781570D01*
X285634845Y-107567820D02*
X285234845Y-107820320D01*
X287459845Y-106009070D02*
X286799845Y-106389070D01*
X284337636Y-107291279D02*
X283591720Y-107781257D01*
D13*
X279382345Y-102851570D02*
X279012345Y-103051570D01*
D12*
X289374845Y-106181570D02*
X287469845Y-107299070D01*
D13*
X264942345Y-108111570D02*
X264482345Y-108151570D01*
D12*
X287444845Y-105029070D02*
X284798555Y-106580360D01*
D13*
X278092345Y-101211570D02*
X278532345Y-101242529D01*
X264262345Y-106321570D02*
X263862345Y-106371570D01*
D12*
X269322345Y-111381570D02*
X269322345Y-108921570D01*
X287444845Y-105029070D02*
X289374845Y-106181570D01*
D13*
X280002345Y-102141570D02*
X279972345Y-102411570D01*
X265052345Y-106941570D02*
X265552345Y-107011570D01*
X263482345Y-106491570D02*
X263172345Y-106681570D01*
X265552345Y-107011570D02*
X265882345Y-107201570D01*
D12*
X285574845Y-107071570D02*
X285194845Y-107316570D01*
X283572345Y-103161570D02*
X283572345Y-100731570D01*
X269312345Y-108911570D02*
X268812345Y-108631570D01*
X274552345Y-102061570D02*
X274552345Y-102616674D01*
X278792345Y-99601570D02*
X278802345Y-99601570D01*
X288536095Y-106174695D02*
X287463595Y-106823445D01*
X278292345Y-106701570D02*
X278292345Y-107251570D01*
D13*
X263862345Y-106371570D02*
X263482345Y-106491570D01*
X264712345Y-106991570D02*
X265052345Y-106941570D01*
D12*
X283913015Y-107040900D02*
X283184845Y-107494070D01*
X282784845Y-105894070D02*
X286984845Y-103444070D01*
X287459845Y-105571570D02*
X287459845Y-106046570D01*
X287432345Y-105540320D02*
X286359845Y-106189070D01*
D13*
X265972345Y-107391570D02*
X265892345Y-107591570D01*
D12*
X285884845Y-106419070D02*
X285223151Y-106830764D01*
D13*
X263882345Y-107361570D02*
X264242345Y-107211570D01*
D12*
X278802345Y-106961570D02*
X278292345Y-106701570D01*
X279337345Y-98281570D02*
X279322345Y-99871570D01*
X268812345Y-107291570D02*
X266220417Y-105803498D01*
X264552345Y-112201570D02*
X264552345Y-109741570D01*
D13*
X263002345Y-106901570D02*
X263002345Y-107071570D01*
D12*
X260322345Y-109781570D02*
X264532345Y-112191570D01*
D13*
X268042345Y-105751570D02*
X269051041Y-106982874D01*
D12*
X283574845Y-107724070D02*
X283574845Y-108199070D01*
X283572345Y-100731570D02*
X287812345Y-98281570D01*
D13*
X273462345Y-103661570D02*
X275762345Y-104971570D01*
D12*
X287434845Y-104214070D02*
X284134845Y-106124070D01*
D13*
X269051041Y-106982874D02*
X270212345Y-106313135D01*
X265472345Y-107931570D02*
X265212345Y-108041570D01*
D12*
X285909845Y-106431570D02*
X285909845Y-106906570D01*
X283562345Y-95831570D02*
X283572345Y-95831570D01*
X283572345Y-95831570D02*
X287832345Y-98271570D01*
X274554793Y-102619122D02*
X274062345Y-102331570D01*
X273582345Y-106971570D02*
X273582345Y-108941570D01*
X287464845Y-105552820D02*
X288539845Y-106169070D01*
D13*
X277302345Y-101491570D02*
X277452345Y-101411570D01*
D12*
X270223091Y-104550824D02*
X269322345Y-104031570D01*
X269322345Y-104031570D02*
X266220417Y-105803498D01*
X283184845Y-107494070D02*
X283614845Y-107716570D01*
X283572345Y-103161570D02*
X283042345Y-102891570D01*
X283572345Y-100731570D02*
X283587345Y-100731570D01*
D13*
X276802345Y-101801570D02*
X277302345Y-101491570D01*
D12*
X274552345Y-102061570D02*
X278792345Y-99601570D01*
D13*
X265802345Y-107701570D02*
X265472345Y-107931570D01*
D12*
X285919845Y-106954070D02*
X287449845Y-107806570D01*
X287832345Y-100721570D02*
X283587345Y-103156570D01*
X282784845Y-105894070D02*
X282784845Y-106369070D01*
X270223091Y-104550824D02*
X273572345Y-106481570D01*
D13*
X279822345Y-101851570D02*
X280002345Y-102141570D01*
D12*
X274062345Y-109691570D02*
X274062345Y-107221570D01*
D13*
X279062345Y-101371570D02*
X279592345Y-101641570D01*
X263212345Y-107271570D02*
X263492345Y-107361570D01*
D12*
X273572345Y-106481570D02*
X273582345Y-106481570D01*
X279340255Y-99913660D02*
X283042345Y-102061570D01*
D13*
X283502345Y-98201570D02*
X283522345Y-98241570D01*
X278532345Y-101242529D02*
X279062345Y-101371570D01*
D12*
X278782345Y-104501570D02*
X274552345Y-102061570D01*
D13*
X283522345Y-98241570D02*
X284592345Y-98841570D01*
D12*
X260322345Y-107301570D02*
X260322345Y-109781570D01*
D13*
X264242345Y-107211570D02*
X264712345Y-106991570D01*
D12*
X274554793Y-102619122D02*
X278292345Y-104801570D01*
X283042345Y-102061570D02*
X283042345Y-102891570D01*
D13*
X263002345Y-107071570D02*
X263212345Y-107271570D01*
D12*
X273582345Y-106481570D02*
X273582345Y-106971570D01*
D13*
X265892345Y-107591570D02*
X265802345Y-107701570D01*
D12*
X287442345Y-106020945D02*
X288118233Y-106427458D01*
X268812345Y-108631570D02*
X268812345Y-109761570D01*
X283587345Y-100731570D02*
X279337345Y-98281570D01*
X278802345Y-104511570D02*
X278782345Y-104501570D01*
X269322345Y-108921570D02*
X273572345Y-106481570D01*
X287449845Y-107331570D02*
X287449845Y-107806570D01*
G04 #@! TA.AperFunction,NonConductor*
G36*
X290284845Y-94844070D02*
G01*
X290484845Y-109244070D01*
X278084845Y-113644070D01*
X258684845Y-113444070D01*
X258786273Y-109732999D01*
X259991663Y-109732999D01*
X259991844Y-109781972D01*
X259991845Y-109782428D01*
X259991845Y-109825115D01*
X259991911Y-109825601D01*
X259991986Y-109826163D01*
X259992000Y-109826274D01*
X259992007Y-109826299D01*
X260003219Y-109867538D01*
X260003292Y-109867807D01*
X260014372Y-109909158D01*
X260014565Y-109909618D01*
X260014730Y-109910014D01*
X260014829Y-109910255D01*
X260025235Y-109928125D01*
X260036177Y-109946918D01*
X260036300Y-109947371D01*
X260036406Y-109947311D01*
X260057887Y-109984516D01*
X260058088Y-109984776D01*
X260058364Y-109985134D01*
X260058616Y-109985463D01*
X260088894Y-110015518D01*
X260089218Y-110015841D01*
X260119419Y-110046042D01*
X260119835Y-110046359D01*
X260120174Y-110046618D01*
X260120387Y-110046781D01*
X260120389Y-110046782D01*
X260157650Y-110068112D01*
X260194777Y-110089547D01*
X260194780Y-110089547D01*
X260200230Y-110092694D01*
X260202775Y-110093944D01*
X264327473Y-112455112D01*
X264338825Y-112463262D01*
X264338891Y-112463166D01*
X264345618Y-112467714D01*
X264345623Y-112467719D01*
X264373120Y-112481467D01*
X264379228Y-112484739D01*
X264405913Y-112500015D01*
X264405915Y-112500015D01*
X264406496Y-112500348D01*
X264420708Y-112507355D01*
X264423725Y-112509111D01*
X264424183Y-112509301D01*
X264424433Y-112509405D01*
X264430941Y-112512121D01*
X264431164Y-112512197D01*
X264432356Y-112512692D01*
X264432354Y-112512694D01*
X264435774Y-112513992D01*
X264435778Y-112513982D01*
X264443456Y-112516635D01*
X264443459Y-112516637D01*
X264471967Y-112522469D01*
X264479596Y-112524285D01*
X264507698Y-112531920D01*
X264507705Y-112531921D01*
X264507952Y-112531954D01*
X264515457Y-112532962D01*
X264515699Y-112532978D01*
X264516945Y-112533143D01*
X264516944Y-112533145D01*
X264520604Y-112533516D01*
X264520605Y-112533507D01*
X264528708Y-112534081D01*
X264528714Y-112534083D01*
X264557777Y-112532338D01*
X264565598Y-112532117D01*
X264594719Y-112532218D01*
X264594722Y-112532216D01*
X264594731Y-112532217D01*
X264595027Y-112532179D01*
X264595478Y-112532120D01*
X264602194Y-112531260D01*
X264602564Y-112531187D01*
X264603932Y-112531007D01*
X264603933Y-112531018D01*
X264607606Y-112530422D01*
X264607604Y-112530410D01*
X264615576Y-112528870D01*
X264615580Y-112528870D01*
X264643200Y-112519662D01*
X264650718Y-112517419D01*
X264663724Y-112513982D01*
X264678853Y-112509984D01*
X264678855Y-112509982D01*
X264679023Y-112509914D01*
X264679288Y-112509804D01*
X264686115Y-112506998D01*
X264686328Y-112506893D01*
X264687507Y-112506406D01*
X264687508Y-112506410D01*
X264690829Y-112504917D01*
X264690824Y-112504907D01*
X264698130Y-112501353D01*
X264698137Y-112501351D01*
X264722431Y-112485310D01*
X264729110Y-112481197D01*
X267565713Y-110856477D01*
X267633665Y-110840239D01*
X267687317Y-110855549D01*
X269156185Y-111667354D01*
X269157926Y-111668316D01*
X269160381Y-111669710D01*
X269190948Y-111687530D01*
X269193499Y-111689017D01*
X269193912Y-111689188D01*
X269194342Y-111689367D01*
X269195037Y-111689658D01*
X269195625Y-111689942D01*
X269195746Y-111689990D01*
X269198360Y-111691050D01*
X269199681Y-111691603D01*
X269200395Y-111691837D01*
X269200554Y-111691876D01*
X269200559Y-111691879D01*
X269237772Y-111701106D01*
X269240402Y-111701791D01*
X269277446Y-111711885D01*
X269277448Y-111711885D01*
X269277459Y-111711888D01*
X269277913Y-111711948D01*
X269278332Y-111712004D01*
X269279114Y-111712110D01*
X269279753Y-111712232D01*
X269279945Y-111712254D01*
X269282697Y-111712595D01*
X269284117Y-111712787D01*
X269284858Y-111712828D01*
X269285018Y-111712824D01*
X269285023Y-111712826D01*
X269323380Y-111712108D01*
X269326063Y-111712088D01*
X269364468Y-111712250D01*
X269364471Y-111712248D01*
X269364481Y-111712249D01*
X269364806Y-111712207D01*
X269365440Y-111712125D01*
X269366253Y-111712022D01*
X269366846Y-111711979D01*
X269366848Y-111711979D01*
X269369673Y-111711587D01*
X269371114Y-111711403D01*
X269371859Y-111711247D01*
X269372025Y-111711199D01*
X269372030Y-111711199D01*
X269408864Y-111700586D01*
X269411554Y-111699843D01*
X269448619Y-111690080D01*
X269448621Y-111690078D01*
X269448631Y-111690076D01*
X269448911Y-111689961D01*
X269449361Y-111689776D01*
X269450201Y-111689432D01*
X269450764Y-111689236D01*
X269450825Y-111689210D01*
X269453475Y-111688090D01*
X269454842Y-111687530D01*
X269455496Y-111687199D01*
X269455646Y-111687108D01*
X269455651Y-111687107D01*
X269488482Y-111667322D01*
X269490843Y-111665936D01*
X273119112Y-109591420D01*
X273187079Y-109575234D01*
X273243669Y-109592271D01*
X273850293Y-109950194D01*
X273856158Y-109954156D01*
X273859411Y-109956034D01*
X273859413Y-109956036D01*
X273895269Y-109976737D01*
X273896284Y-109977330D01*
X273931966Y-109998383D01*
X273932830Y-109998741D01*
X273933980Y-109999223D01*
X273934678Y-109999519D01*
X273934772Y-109999544D01*
X273934777Y-109999547D01*
X273974737Y-110010254D01*
X273975824Y-110010551D01*
X273987724Y-110013860D01*
X274015711Y-110021644D01*
X274015713Y-110021644D01*
X274015800Y-110021668D01*
X274016612Y-110021776D01*
X274017741Y-110021930D01*
X274018732Y-110022070D01*
X274018834Y-110022070D01*
X274060215Y-110022070D01*
X274061388Y-110022076D01*
X274102730Y-110022467D01*
X274102733Y-110022466D01*
X274102829Y-110022467D01*
X274103739Y-110022348D01*
X274104917Y-110022198D01*
X274105766Y-110022094D01*
X274106043Y-110022020D01*
X274145803Y-110011366D01*
X274146854Y-110011089D01*
X274186996Y-110000739D01*
X274186998Y-110000737D01*
X274187106Y-110000710D01*
X274187994Y-110000342D01*
X274189144Y-109999871D01*
X274189831Y-109999593D01*
X274189908Y-109999548D01*
X274189913Y-109999547D01*
X274225911Y-109978762D01*
X274226642Y-109978345D01*
X274262768Y-109957942D01*
X274262769Y-109957940D01*
X274266423Y-109955877D01*
X274271659Y-109952416D01*
X278402513Y-107573750D01*
X278403298Y-107573365D01*
X278409909Y-107569547D01*
X278409913Y-107569547D01*
X278447194Y-107548021D01*
X278447316Y-107547953D01*
X278476208Y-107531315D01*
X278484974Y-107526268D01*
X278484978Y-107526263D01*
X278485234Y-107526069D01*
X278485273Y-107526038D01*
X278485277Y-107526036D01*
X278500635Y-107510676D01*
X278515996Y-107495317D01*
X278516017Y-107495338D01*
X278516096Y-107495215D01*
X278546579Y-107464804D01*
X278546579Y-107464802D01*
X278551993Y-107459402D01*
X278552576Y-107458735D01*
X278556811Y-107454502D01*
X278599347Y-107380828D01*
X278600320Y-107379143D01*
X278600320Y-107379141D01*
X278600322Y-107379139D01*
X278600597Y-107378110D01*
X278601067Y-107377339D01*
X278603430Y-107371635D01*
X278604319Y-107372003D01*
X278636954Y-107318448D01*
X278699797Y-107287912D01*
X278752637Y-107290464D01*
X278758368Y-107292009D01*
X278758385Y-107292009D01*
X278758823Y-107292067D01*
X278758834Y-107292070D01*
X278758845Y-107292070D01*
X278766411Y-107293073D01*
X278766453Y-107293076D01*
X278766915Y-107293137D01*
X278766884Y-107293370D01*
X278767997Y-107293487D01*
X278768016Y-107293248D01*
X278776105Y-107293885D01*
X278776117Y-107293888D01*
X278799435Y-107292671D01*
X278807414Y-107292255D01*
X278814026Y-107292086D01*
X278845390Y-107292131D01*
X278845394Y-107292130D01*
X278845671Y-107292094D01*
X278845853Y-107292070D01*
X278845856Y-107292070D01*
X278845858Y-107292069D01*
X278845861Y-107292069D01*
X278853245Y-107291107D01*
X278853410Y-107291075D01*
X278853974Y-107291001D01*
X278854005Y-107291239D01*
X278855071Y-107291071D01*
X278855028Y-107290834D01*
X278863018Y-107289355D01*
X278867462Y-107287912D01*
X278892856Y-107279667D01*
X278899182Y-107277798D01*
X278929479Y-107269726D01*
X278929488Y-107269720D01*
X278929527Y-107269705D01*
X278929842Y-107269575D01*
X278929904Y-107269549D01*
X278929913Y-107269547D01*
X278929920Y-107269542D01*
X278937543Y-107266402D01*
X278937628Y-107266610D01*
X278938556Y-107266197D01*
X278938452Y-107265979D01*
X278945792Y-107262480D01*
X278961939Y-107251998D01*
X278972100Y-107245402D01*
X278977728Y-107241959D01*
X281393039Y-105852016D01*
X282454153Y-105852016D01*
X282454344Y-105894656D01*
X282454345Y-105895211D01*
X282454345Y-106412581D01*
X282476868Y-106496638D01*
X282520379Y-106572002D01*
X282520381Y-106572004D01*
X282524180Y-106576955D01*
X282527926Y-106581266D01*
X282528530Y-106582069D01*
X282589491Y-106644160D01*
X282589493Y-106644161D01*
X282589495Y-106644163D01*
X283098964Y-106944572D01*
X283146712Y-106995579D01*
X283159305Y-107064304D01*
X283132743Y-107128928D01*
X283101499Y-107156662D01*
X283053577Y-107186486D01*
X283045112Y-107191086D01*
X283015391Y-107210122D01*
X283010517Y-107213088D01*
X282981911Y-107229605D01*
X282977558Y-107232943D01*
X282975399Y-107234718D01*
X282974666Y-107235251D01*
X282972157Y-107237367D01*
X282970942Y-107238378D01*
X282970074Y-107239091D01*
X282947679Y-107263650D01*
X282943738Y-107267776D01*
X282920376Y-107291139D01*
X282917053Y-107295468D01*
X282915401Y-107297776D01*
X282914832Y-107298480D01*
X282912992Y-107301122D01*
X282912068Y-107302431D01*
X282911401Y-107303362D01*
X282896122Y-107332887D01*
X282893385Y-107337890D01*
X282876865Y-107366505D01*
X282874756Y-107371595D01*
X282873769Y-107374222D01*
X282873412Y-107375026D01*
X282872336Y-107378004D01*
X282871795Y-107379471D01*
X282871361Y-107380626D01*
X282864242Y-107413108D01*
X282862893Y-107418649D01*
X282854344Y-107450557D01*
X282853625Y-107456022D01*
X282853350Y-107458821D01*
X282853212Y-107459693D01*
X282852943Y-107462867D01*
X282852795Y-107464475D01*
X282852681Y-107465633D01*
X282854213Y-107498826D01*
X282854345Y-107504542D01*
X282854345Y-107969122D01*
X282854282Y-108012111D01*
X282854343Y-108012572D01*
X282865522Y-108054296D01*
X282865545Y-108054471D01*
X282865567Y-108054466D01*
X282876684Y-108096195D01*
X282876723Y-108096288D01*
X282876839Y-108096568D01*
X282876865Y-108096632D01*
X282876867Y-108096636D01*
X282876868Y-108096638D01*
X282898560Y-108134210D01*
X282920088Y-108171622D01*
X282920090Y-108171624D01*
X282920381Y-108172004D01*
X282951111Y-108202734D01*
X282981534Y-108233245D01*
X282981600Y-108233296D01*
X282981908Y-108233533D01*
X283019297Y-108255119D01*
X283019452Y-108255209D01*
X283347984Y-108445517D01*
X283365292Y-108458818D01*
X283365468Y-108458590D01*
X283371916Y-108463538D01*
X283447277Y-108507047D01*
X283449641Y-108508026D01*
X283460393Y-108511684D01*
X283466830Y-108514361D01*
X283466831Y-108514361D01*
X283466834Y-108514363D01*
X283494587Y-108521842D01*
X283505609Y-108525421D01*
X283505973Y-108525507D01*
X283505974Y-108525508D01*
X283523233Y-108529616D01*
X283526740Y-108530507D01*
X283550859Y-108537007D01*
X283550862Y-108537007D01*
X283552349Y-108537205D01*
X283564726Y-108539494D01*
X283590630Y-108545662D01*
X283677619Y-108543218D01*
X283677621Y-108543217D01*
X283677623Y-108543217D01*
X283691120Y-108539190D01*
X283761010Y-108518344D01*
X284679403Y-107953147D01*
X284746812Y-107934776D01*
X284807372Y-107951937D01*
X285025096Y-108080318D01*
X285035673Y-108088182D01*
X285035872Y-108087901D01*
X285042505Y-108092586D01*
X285042510Y-108092590D01*
X285071266Y-108107711D01*
X285076500Y-108110628D01*
X285101619Y-108125440D01*
X285104456Y-108127113D01*
X285111934Y-108130291D01*
X285111933Y-108130291D01*
X285119530Y-108133091D01*
X285119533Y-108133093D01*
X285151191Y-108140248D01*
X285157015Y-108141714D01*
X285188302Y-108150407D01*
X285188306Y-108150407D01*
X285196324Y-108151537D01*
X285204404Y-108152278D01*
X285204413Y-108152280D01*
X285236844Y-108150998D01*
X285242827Y-108150907D01*
X285275321Y-108151206D01*
X285275324Y-108151204D01*
X285275326Y-108151205D01*
X285283371Y-108150221D01*
X285291363Y-108148846D01*
X285291365Y-108148845D01*
X285291368Y-108148845D01*
X285322380Y-108139206D01*
X285328136Y-108137571D01*
X285359581Y-108129455D01*
X285359584Y-108129452D01*
X285367087Y-108126425D01*
X285374472Y-108123020D01*
X285401902Y-108105704D01*
X285407088Y-108102604D01*
X285417768Y-108096568D01*
X285435341Y-108086637D01*
X285435345Y-108086632D01*
X285441832Y-108081749D01*
X285442041Y-108082027D01*
X285452375Y-108073841D01*
X285848058Y-107824070D01*
X285907115Y-107760155D01*
X285947618Y-107683132D01*
X285966805Y-107598252D01*
X285965843Y-107573921D01*
X285982864Y-107506160D01*
X286033819Y-107458355D01*
X286102531Y-107445687D01*
X286150100Y-107460705D01*
X287285987Y-108093610D01*
X287287539Y-108094491D01*
X287322277Y-108114547D01*
X287322278Y-108114547D01*
X287322503Y-108114677D01*
X287323770Y-108115180D01*
X287325527Y-108115892D01*
X287326738Y-108116393D01*
X287326986Y-108116455D01*
X287326989Y-108116457D01*
X287362686Y-108125440D01*
X287365853Y-108126237D01*
X287367650Y-108126704D01*
X287406334Y-108137070D01*
X287406337Y-108137070D01*
X287406583Y-108137136D01*
X287407878Y-108137287D01*
X287409777Y-108137523D01*
X287412233Y-108137846D01*
X287413137Y-108137899D01*
X287419461Y-108138634D01*
X287419337Y-108139693D01*
X287421496Y-108139949D01*
X287421610Y-108139014D01*
X287429672Y-108139992D01*
X287429673Y-108139991D01*
X287429677Y-108139993D01*
X287516695Y-108139113D01*
X287600520Y-108115742D01*
X289561184Y-106957166D01*
X289562019Y-106956679D01*
X289597777Y-106936036D01*
X289597777Y-106936035D01*
X289597872Y-106935981D01*
X289598627Y-106935390D01*
X289599591Y-106934643D01*
X289600355Y-106934056D01*
X289600435Y-106933973D01*
X289600440Y-106933971D01*
X289629402Y-106904415D01*
X289629992Y-106903819D01*
X289659311Y-106874502D01*
X289659313Y-106874497D01*
X289659382Y-106874429D01*
X289659872Y-106873779D01*
X289660621Y-106872792D01*
X289661291Y-106871918D01*
X289661346Y-106871819D01*
X289661348Y-106871818D01*
X289681616Y-106835876D01*
X289682172Y-106834904D01*
X289702876Y-106799044D01*
X289703243Y-106798134D01*
X289703711Y-106796988D01*
X289704068Y-106796123D01*
X289704094Y-106796021D01*
X289704096Y-106796018D01*
X289714392Y-106755975D01*
X289714681Y-106754876D01*
X289725345Y-106715081D01*
X289725345Y-106715077D01*
X289725376Y-106714962D01*
X289725489Y-106714036D01*
X289725648Y-106712773D01*
X289725769Y-106711854D01*
X289725351Y-106670502D01*
X289725345Y-106669249D01*
X289725345Y-106153061D01*
X289725345Y-106153059D01*
X289702822Y-106069002D01*
X289659311Y-105993638D01*
X289597777Y-105932104D01*
X289597774Y-105932102D01*
X289592952Y-105928402D01*
X289587055Y-105924398D01*
X289580745Y-105919407D01*
X289580226Y-105918948D01*
X289579890Y-105918694D01*
X289577765Y-105917049D01*
X289577449Y-105916799D01*
X289576860Y-105916402D01*
X289575935Y-105915702D01*
X289542370Y-105896631D01*
X289540054Y-105895282D01*
X288249534Y-105124648D01*
X287658079Y-104771460D01*
X287646823Y-104763873D01*
X287646024Y-104763268D01*
X287646022Y-104763266D01*
X287646019Y-104763264D01*
X287646016Y-104763262D01*
X287612347Y-104744119D01*
X287610117Y-104742819D01*
X287592122Y-104732074D01*
X287580018Y-104724846D01*
X287532553Y-104673574D01*
X287520344Y-104604779D01*
X287547265Y-104540304D01*
X287581465Y-104511072D01*
X287585716Y-104508612D01*
X287605075Y-104500582D01*
X287604900Y-104500159D01*
X287612405Y-104497048D01*
X287612413Y-104497047D01*
X287687777Y-104453536D01*
X287749311Y-104392002D01*
X287792822Y-104316638D01*
X287815345Y-104232581D01*
X287815345Y-103670559D01*
X287792822Y-103586502D01*
X287787990Y-103578133D01*
X287778347Y-103556167D01*
X287777206Y-103553710D01*
X287777204Y-103553703D01*
X287730571Y-103480230D01*
X287730566Y-103480225D01*
X287666517Y-103421334D01*
X287666514Y-103421332D01*
X287666511Y-103421329D01*
X287666507Y-103421327D01*
X287666506Y-103421326D01*
X287616896Y-103395394D01*
X287612240Y-103392832D01*
X287582990Y-103375908D01*
X287575490Y-103372794D01*
X287575692Y-103372305D01*
X287563975Y-103367730D01*
X287149395Y-103151018D01*
X287149391Y-103151016D01*
X287149390Y-103151016D01*
X287149388Y-103151015D01*
X287149384Y-103151014D01*
X287149154Y-103150963D01*
X287147625Y-103150371D01*
X287141760Y-103148225D01*
X287141800Y-103148114D01*
X287114691Y-103137615D01*
X287111033Y-103135525D01*
X287111032Y-103135524D01*
X287111029Y-103135523D01*
X287111030Y-103135523D01*
X287026878Y-103113378D01*
X287026876Y-103113378D01*
X286992067Y-103113534D01*
X286939852Y-103113768D01*
X286855897Y-103136667D01*
X286855896Y-103136668D01*
X282619165Y-105608094D01*
X282618689Y-105608370D01*
X282581882Y-105629622D01*
X282581618Y-105629827D01*
X282581094Y-105630231D01*
X282580755Y-105630490D01*
X282551104Y-105660409D01*
X282550715Y-105660801D01*
X282520353Y-105691164D01*
X282520185Y-105691386D01*
X282519782Y-105691913D01*
X282519495Y-105692286D01*
X282498481Y-105729060D01*
X282498210Y-105729532D01*
X282476850Y-105766531D01*
X282476694Y-105766915D01*
X282476431Y-105767553D01*
X282476309Y-105767845D01*
X282465496Y-105808931D01*
X282465356Y-105809458D01*
X282454337Y-105850583D01*
X282454265Y-105851158D01*
X282454193Y-105851714D01*
X282454153Y-105852016D01*
X281393039Y-105852016D01*
X283162396Y-104833801D01*
X283163371Y-104833323D01*
X283169910Y-104829547D01*
X283169913Y-104829547D01*
X283207338Y-104807940D01*
X283244904Y-104786322D01*
X283244907Y-104786318D01*
X283245273Y-104786038D01*
X283245277Y-104786036D01*
X283259850Y-104771463D01*
X283275893Y-104755420D01*
X283275919Y-104755446D01*
X283276017Y-104755294D01*
X283306525Y-104724874D01*
X283306526Y-104724871D01*
X283306616Y-104724755D01*
X283306742Y-104724591D01*
X283306803Y-104724509D01*
X283306811Y-104724502D01*
X283322132Y-104697965D01*
X283328567Y-104686821D01*
X283328653Y-104686673D01*
X283350138Y-104649579D01*
X283350138Y-104649578D01*
X283350142Y-104649572D01*
X283350143Y-104649564D01*
X283350212Y-104649401D01*
X283350315Y-104649149D01*
X283350322Y-104649138D01*
X283361449Y-104607610D01*
X283372784Y-104565547D01*
X283372784Y-104565545D01*
X283372845Y-104565086D01*
X283372845Y-104522036D01*
X283372846Y-104520997D01*
X283372906Y-104478524D01*
X283372905Y-104478522D01*
X283372916Y-104471116D01*
X283372845Y-104470019D01*
X283372845Y-103611872D01*
X283392530Y-103544833D01*
X283445334Y-103499078D01*
X283514492Y-103489134D01*
X283528745Y-103492058D01*
X283528831Y-103492069D01*
X283528834Y-103492070D01*
X283528836Y-103492070D01*
X283536893Y-103493131D01*
X283536862Y-103493359D01*
X283538056Y-103493485D01*
X283538074Y-103493259D01*
X283541081Y-103493494D01*
X283541708Y-103493582D01*
X283546941Y-103493956D01*
X283547806Y-103494021D01*
X283548648Y-103494086D01*
X283548710Y-103494082D01*
X283548714Y-103494083D01*
X283578536Y-103492293D01*
X283585966Y-103492070D01*
X283615859Y-103492070D01*
X283623915Y-103491009D01*
X283623945Y-103491241D01*
X283625120Y-103491055D01*
X283625078Y-103490829D01*
X283628058Y-103490275D01*
X283628694Y-103490197D01*
X283633766Y-103489218D01*
X283634669Y-103489047D01*
X283635519Y-103488889D01*
X283635578Y-103488869D01*
X283635580Y-103488869D01*
X283663927Y-103479419D01*
X283671040Y-103477283D01*
X283678690Y-103475233D01*
X283699913Y-103469547D01*
X283699915Y-103469545D01*
X283701728Y-103469060D01*
X283713957Y-103464928D01*
X283714049Y-103464904D01*
X283714056Y-103464899D01*
X283714059Y-103464899D01*
X283719546Y-103462645D01*
X283727782Y-103458954D01*
X283733129Y-103456353D01*
X283733136Y-103456351D01*
X283757543Y-103440234D01*
X283764131Y-103436175D01*
X287952147Y-101033862D01*
X287954093Y-101032907D01*
X287959911Y-101029547D01*
X287959913Y-101029547D01*
X287997244Y-101007993D01*
X288034534Y-100986604D01*
X288034534Y-100986603D01*
X288034539Y-100986601D01*
X288034973Y-100986269D01*
X288035136Y-100986144D01*
X288035274Y-100986037D01*
X288035277Y-100986036D01*
X288035279Y-100986034D01*
X288066084Y-100955229D01*
X288096240Y-100925243D01*
X288096241Y-100925240D01*
X288096674Y-100924679D01*
X288096775Y-100924548D01*
X288096806Y-100924506D01*
X288096811Y-100924502D01*
X288118292Y-100887293D01*
X288118361Y-100887176D01*
X288139960Y-100850007D01*
X288139962Y-100850003D01*
X288139963Y-100850002D01*
X288139964Y-100849998D01*
X288140320Y-100849143D01*
X288140320Y-100849140D01*
X288140322Y-100849138D01*
X288151437Y-100807655D01*
X288162722Y-100766008D01*
X288162722Y-100766005D01*
X288162723Y-100766002D01*
X288162781Y-100765566D01*
X288162816Y-100765300D01*
X288162845Y-100765083D01*
X288162845Y-100722142D01*
X288162845Y-100721808D01*
X288162966Y-100678986D01*
X288162965Y-100678983D01*
X288162984Y-100672269D01*
X288162845Y-100670100D01*
X288162845Y-98323005D01*
X288163014Y-98320356D01*
X288162846Y-98271586D01*
X288162845Y-98271159D01*
X288162845Y-98228059D01*
X288162798Y-98227710D01*
X288162765Y-98227457D01*
X288162694Y-98226926D01*
X288154150Y-98195475D01*
X288151435Y-98185479D01*
X288140322Y-98144002D01*
X288140321Y-98144001D01*
X288140321Y-98143999D01*
X288140225Y-98143769D01*
X288140114Y-98143502D01*
X288139886Y-98142952D01*
X288139881Y-98142944D01*
X288139881Y-98142942D01*
X288118323Y-98105899D01*
X288096811Y-98068638D01*
X288096807Y-98068631D01*
X288096745Y-98068551D01*
X288096501Y-98068234D01*
X288096126Y-98067746D01*
X288096111Y-98067731D01*
X288096110Y-98067729D01*
X288065748Y-98037575D01*
X288065591Y-98037418D01*
X288035274Y-98007100D01*
X288035098Y-98006966D01*
X288034841Y-98006769D01*
X288034379Y-98006415D01*
X287997236Y-97985140D01*
X287996868Y-97984929D01*
X287954372Y-97960394D01*
X287951983Y-97959221D01*
X283737329Y-95545193D01*
X283736961Y-95544982D01*
X283735994Y-95544424D01*
X283699913Y-95523593D01*
X283699910Y-95523592D01*
X283699891Y-95523581D01*
X283699650Y-95523482D01*
X283699253Y-95523319D01*
X283698874Y-95523162D01*
X283698854Y-95523156D01*
X283698853Y-95523156D01*
X283675313Y-95516935D01*
X283657590Y-95512251D01*
X283657184Y-95512143D01*
X283626557Y-95503937D01*
X283615856Y-95501070D01*
X283615855Y-95501070D01*
X283615829Y-95501063D01*
X283615320Y-95500998D01*
X283614909Y-95500945D01*
X283614732Y-95500921D01*
X283583731Y-95501028D01*
X283583542Y-95501029D01*
X283561982Y-95501070D01*
X283518821Y-95501070D01*
X283518709Y-95501085D01*
X283518310Y-95501138D01*
X283518217Y-95501150D01*
X283476569Y-95512394D01*
X283476507Y-95512410D01*
X283451634Y-95519075D01*
X283434764Y-95523596D01*
X283434745Y-95523605D01*
X283434407Y-95523745D01*
X283434207Y-95523827D01*
X283397070Y-95545362D01*
X283396868Y-95545479D01*
X283353277Y-95570645D01*
X283352032Y-95571478D01*
X279173764Y-97994378D01*
X279172546Y-97995075D01*
X279136741Y-98015299D01*
X279135819Y-98016013D01*
X279134511Y-98017010D01*
X279134021Y-98017378D01*
X279105058Y-98046451D01*
X279104065Y-98047437D01*
X279074655Y-98076298D01*
X279074024Y-98077129D01*
X279072970Y-98078495D01*
X279072581Y-98078991D01*
X279072495Y-98079139D01*
X279072495Y-98079140D01*
X279057112Y-98105899D01*
X279052099Y-98114620D01*
X279051397Y-98115825D01*
X279030469Y-98151298D01*
X279030018Y-98152401D01*
X279029372Y-98153950D01*
X279029165Y-98154434D01*
X279018610Y-98194127D01*
X279018243Y-98195475D01*
X279007226Y-98235097D01*
X279007091Y-98236144D01*
X279006897Y-98237582D01*
X279006762Y-98238532D01*
X279006839Y-98279679D01*
X279006833Y-98281079D01*
X278998622Y-99151470D01*
X278978306Y-99218321D01*
X278925073Y-99263575D01*
X278855824Y-99272866D01*
X278849720Y-99271577D01*
X278846457Y-99271149D01*
X278846126Y-99271105D01*
X278845865Y-99271070D01*
X278845856Y-99271070D01*
X278843866Y-99271070D01*
X278842212Y-99270963D01*
X278797606Y-99271057D01*
X278797084Y-99271057D01*
X278752478Y-99270963D01*
X278750825Y-99271070D01*
X278748823Y-99271070D01*
X278748666Y-99271091D01*
X278748292Y-99271141D01*
X278748137Y-99271161D01*
X278706370Y-99282447D01*
X278706120Y-99282514D01*
X278664765Y-99293595D01*
X278664688Y-99293628D01*
X278664207Y-99293828D01*
X278664134Y-99293858D01*
X278627021Y-99315390D01*
X278626795Y-99315520D01*
X278583370Y-99340591D01*
X278581978Y-99341523D01*
X274387101Y-101775344D01*
X274386876Y-101775474D01*
X274386301Y-101775806D01*
X274386275Y-101775821D01*
X274364422Y-101788437D01*
X274349386Y-101797119D01*
X274348880Y-101797508D01*
X274318500Y-101828015D01*
X274318320Y-101828196D01*
X274287858Y-101858658D01*
X274287461Y-101859175D01*
X274266025Y-101896488D01*
X274265895Y-101896715D01*
X274241247Y-101939407D01*
X274240380Y-101941154D01*
X274240317Y-101941264D01*
X274189918Y-101989655D01*
X274121357Y-102003116D01*
X274115578Y-102002073D01*
X274115535Y-102002389D01*
X274107474Y-102001287D01*
X274076477Y-102001134D01*
X274069669Y-102000914D01*
X274038714Y-101999057D01*
X274038713Y-101999057D01*
X274038711Y-101999057D01*
X274030611Y-101999633D01*
X274030600Y-101999483D01*
X274028501Y-101999690D01*
X274028520Y-101999839D01*
X274020460Y-102000859D01*
X273990460Y-102008739D01*
X273983826Y-102010288D01*
X273953453Y-102016504D01*
X273945781Y-102019156D01*
X273945732Y-102019014D01*
X273943754Y-102019759D01*
X273943811Y-102019898D01*
X273936284Y-102022972D01*
X273932162Y-102025325D01*
X273918256Y-102032148D01*
X273914521Y-102033698D01*
X273888795Y-102048578D01*
X273882174Y-102052144D01*
X273855623Y-102065420D01*
X273849269Y-102069717D01*
X273837184Y-102078434D01*
X270284789Y-104133323D01*
X270216902Y-104149851D01*
X270160771Y-104133415D01*
X269488405Y-103745815D01*
X269487841Y-103745488D01*
X269451298Y-103724165D01*
X269450820Y-103723968D01*
X269450210Y-103723714D01*
X269449745Y-103723518D01*
X269436679Y-103720026D01*
X269408770Y-103712567D01*
X269408337Y-103712450D01*
X269367342Y-103701263D01*
X269366972Y-103701215D01*
X269366247Y-103701118D01*
X269365684Y-103701041D01*
X269365638Y-103701041D01*
X269364056Y-103701042D01*
X269323350Y-103701068D01*
X269322706Y-103701067D01*
X269280311Y-103700873D01*
X269279766Y-103700946D01*
X269279060Y-103701038D01*
X269278647Y-103701090D01*
X269237791Y-103712066D01*
X269237166Y-103712232D01*
X269196153Y-103723020D01*
X269195683Y-103723216D01*
X269194982Y-103723504D01*
X269194607Y-103723656D01*
X269157816Y-103744930D01*
X269157252Y-103745254D01*
X266282491Y-105387417D01*
X266214516Y-105403577D01*
X266159247Y-105387283D01*
X264727131Y-104565081D01*
X264703706Y-104551567D01*
X264689794Y-104543542D01*
X264689530Y-104543434D01*
X264689314Y-104543345D01*
X264689165Y-104543283D01*
X264647623Y-104532260D01*
X264647398Y-104532124D01*
X264647380Y-104532195D01*
X264605731Y-104521052D01*
X264605550Y-104521029D01*
X264605311Y-104520997D01*
X264605071Y-104520965D01*
X264605054Y-104520965D01*
X264566230Y-104521058D01*
X264561661Y-104521070D01*
X264561409Y-104521070D01*
X264518699Y-104521085D01*
X264518349Y-104521133D01*
X264518033Y-104521175D01*
X264476168Y-104532501D01*
X264475925Y-104532567D01*
X264434648Y-104543643D01*
X264434390Y-104543752D01*
X264434030Y-104543901D01*
X264396816Y-104565508D01*
X264396595Y-104565637D01*
X260200093Y-106990502D01*
X260200074Y-106990511D01*
X260169386Y-107008244D01*
X260156711Y-107015570D01*
X260145941Y-107021787D01*
X260119406Y-107037107D01*
X260119384Y-107037125D01*
X260119316Y-107037175D01*
X260094139Y-107062373D01*
X260094137Y-107062376D01*
X260088562Y-107067955D01*
X260088530Y-107067986D01*
X260057834Y-107098681D01*
X260040565Y-107128621D01*
X260040553Y-107128641D01*
X260036034Y-107136472D01*
X260036023Y-107136492D01*
X260014335Y-107174059D01*
X260006495Y-107203364D01*
X260006495Y-107203366D01*
X260003164Y-107215816D01*
X260003152Y-107215859D01*
X259991838Y-107258081D01*
X259991828Y-107258167D01*
X259991843Y-107295550D01*
X259991843Y-107295560D01*
X259991845Y-107301689D01*
X259991845Y-109730149D01*
X259991663Y-109732999D01*
X258786273Y-109732999D01*
X259194845Y-94784070D01*
X290284845Y-94844070D01*
G37*
G04 #@! TD.AperFunction*
G04 #@! TA.AperFunction,NonConductor*
G36*
X252838076Y-34619742D02*
G01*
X253079572Y-34635576D01*
X253092393Y-34637264D01*
X253326575Y-34683851D01*
X253339062Y-34687197D01*
X253533114Y-34753074D01*
X253565151Y-34763950D01*
X253577114Y-34768905D01*
X253627970Y-34793985D01*
X253791260Y-34874515D01*
X253802459Y-34880981D01*
X253935881Y-34970135D01*
X254000973Y-35013630D01*
X254011247Y-35021513D01*
X254190755Y-35178944D01*
X254199911Y-35188101D01*
X254357328Y-35367607D01*
X254365211Y-35377881D01*
X254497851Y-35576397D01*
X254504326Y-35587612D01*
X254609919Y-35801743D01*
X254614875Y-35813707D01*
X254691618Y-36039798D01*
X254694969Y-36052307D01*
X254741544Y-36286474D01*
X254743234Y-36299313D01*
X254759133Y-36541939D01*
X254759345Y-36548412D01*
X254759345Y-53934246D01*
X254759319Y-53934322D01*
X254759319Y-54111318D01*
X254794829Y-54381062D01*
X254865247Y-54643867D01*
X254969360Y-54895222D01*
X254969362Y-54895226D01*
X254969364Y-54895230D01*
X255105401Y-55130853D01*
X255117680Y-55146855D01*
X255271030Y-55346703D01*
X255463419Y-55539089D01*
X255518115Y-55581058D01*
X255679269Y-55704713D01*
X255679276Y-55704717D01*
X255679275Y-55704717D01*
X255914884Y-55840742D01*
X255914893Y-55840747D01*
X256166258Y-55944862D01*
X256166262Y-55944863D01*
X256429058Y-56015274D01*
X256429062Y-56015275D01*
X256464570Y-56019948D01*
X256698810Y-56050783D01*
X256834847Y-56050780D01*
X295685316Y-56050780D01*
X295706611Y-56050780D01*
X295713082Y-56050991D01*
X295954587Y-56066814D01*
X295967402Y-56068501D01*
X296201600Y-56115079D01*
X296214092Y-56118426D01*
X296440204Y-56195175D01*
X296452156Y-56200125D01*
X296666300Y-56305724D01*
X296677515Y-56312198D01*
X296876054Y-56444851D01*
X296886313Y-56452723D01*
X297065848Y-56610164D01*
X297074995Y-56619312D01*
X297232421Y-56798817D01*
X297240305Y-56809090D01*
X297372963Y-57007619D01*
X297379438Y-57018834D01*
X297485043Y-57232972D01*
X297489999Y-57244936D01*
X297566753Y-57471036D01*
X297570104Y-57483545D01*
X297616686Y-57717709D01*
X297618377Y-57730548D01*
X297634133Y-57970901D01*
X297634345Y-57977377D01*
X297634345Y-110091863D01*
X297634251Y-110096182D01*
X297616695Y-110498213D01*
X297615942Y-110506816D01*
X297563699Y-110903633D01*
X297562199Y-110912139D01*
X297475569Y-111302890D01*
X297473334Y-111311232D01*
X297352976Y-111692953D01*
X297350022Y-111701069D01*
X297196855Y-112070847D01*
X297193205Y-112078674D01*
X297008396Y-112433687D01*
X297004078Y-112441167D01*
X296789020Y-112778739D01*
X296784066Y-112785813D01*
X296540420Y-113103339D01*
X296534869Y-113109955D01*
X296264461Y-113405054D01*
X296258354Y-113411161D01*
X296133989Y-113525121D01*
X295963271Y-113681555D01*
X295956663Y-113687101D01*
X295639120Y-113930762D01*
X295632045Y-113935716D01*
X295294480Y-114150770D01*
X295287000Y-114155088D01*
X294931987Y-114339898D01*
X294924160Y-114343548D01*
X294554386Y-114496716D01*
X294546270Y-114499670D01*
X294164542Y-114620031D01*
X294156200Y-114622266D01*
X293765454Y-114708895D01*
X293756949Y-114710395D01*
X293360130Y-114762641D01*
X293351526Y-114763394D01*
X292949840Y-114780936D01*
X292945521Y-114781030D01*
X215033915Y-114781030D01*
X215033904Y-114781028D01*
X214992923Y-114781029D01*
X214986450Y-114780817D01*
X214744960Y-114764999D01*
X214732121Y-114763309D01*
X214497951Y-114716739D01*
X214485442Y-114713388D01*
X214259342Y-114636646D01*
X214247381Y-114631692D01*
X214145302Y-114581355D01*
X214033234Y-114526092D01*
X214022019Y-114519617D01*
X213823501Y-114386976D01*
X213813226Y-114379093D01*
X213633704Y-114221659D01*
X213624547Y-114212501D01*
X213570410Y-114150770D01*
X213467122Y-114032993D01*
X213459246Y-114022729D01*
X213326587Y-113824189D01*
X213320118Y-113812985D01*
X213214516Y-113598837D01*
X213209565Y-113586887D01*
X213161089Y-113444070D01*
X258684845Y-113444070D01*
X278084845Y-113644070D01*
X290484845Y-109244070D01*
X290284845Y-94844070D01*
X259194845Y-94784070D01*
X258684845Y-113444070D01*
X213161089Y-113444070D01*
X213132815Y-113360773D01*
X213129466Y-113348271D01*
X213082890Y-113114088D01*
X213081203Y-113101270D01*
X213065405Y-112860120D01*
X213065193Y-112853648D01*
X213065193Y-112816276D01*
X213065170Y-112816135D01*
X213065105Y-112695959D01*
X213057901Y-99337666D01*
X213056487Y-96716050D01*
X214306145Y-96716050D01*
X214306145Y-109716050D01*
X214306145Y-109884590D01*
X214307998Y-109915703D01*
X214308966Y-109931947D01*
X214308967Y-109931956D01*
X214353768Y-110137902D01*
X214353770Y-110137907D01*
X214353771Y-110137910D01*
X214436745Y-110331673D01*
X214554889Y-110506231D01*
X214703934Y-110655276D01*
X214878492Y-110773420D01*
X215072255Y-110856394D01*
X215072259Y-110856395D01*
X215072262Y-110856396D01*
X215278208Y-110901197D01*
X215278211Y-110901197D01*
X215278219Y-110901199D01*
X215325575Y-110904020D01*
X215325588Y-110904020D01*
X228494102Y-110904020D01*
X228494115Y-110904020D01*
X228541471Y-110901199D01*
X228541479Y-110901197D01*
X228541481Y-110901197D01*
X228747427Y-110856396D01*
X228747428Y-110856395D01*
X228747435Y-110856394D01*
X228941198Y-110773420D01*
X229115756Y-110655276D01*
X229264801Y-110506231D01*
X229382945Y-110331673D01*
X229465919Y-110137910D01*
X229474997Y-110096182D01*
X229510722Y-109931956D01*
X229510722Y-109931954D01*
X229510724Y-109931946D01*
X229513545Y-109884590D01*
X229513545Y-96716050D01*
X233356145Y-96716050D01*
X233356145Y-109716050D01*
X233356145Y-109884590D01*
X233357998Y-109915703D01*
X233358966Y-109931947D01*
X233358967Y-109931956D01*
X233403768Y-110137902D01*
X233403770Y-110137907D01*
X233403771Y-110137910D01*
X233486745Y-110331673D01*
X233604889Y-110506231D01*
X233753934Y-110655276D01*
X233928492Y-110773420D01*
X234122255Y-110856394D01*
X234122259Y-110856395D01*
X234122262Y-110856396D01*
X234328208Y-110901197D01*
X234328211Y-110901197D01*
X234328219Y-110901199D01*
X234375575Y-110904020D01*
X234375588Y-110904020D01*
X247544102Y-110904020D01*
X247544115Y-110904020D01*
X247591471Y-110901199D01*
X247591479Y-110901197D01*
X247591481Y-110901197D01*
X247797427Y-110856396D01*
X247797428Y-110856395D01*
X247797435Y-110856394D01*
X247991198Y-110773420D01*
X248165756Y-110655276D01*
X248314801Y-110506231D01*
X248432945Y-110331673D01*
X248515919Y-110137910D01*
X248524997Y-110096182D01*
X248560722Y-109931956D01*
X248560722Y-109931954D01*
X248560724Y-109931946D01*
X248563545Y-109884590D01*
X248563545Y-96716050D01*
X248560724Y-96668694D01*
X248515919Y-96462730D01*
X248432945Y-96268967D01*
X248314801Y-96094409D01*
X248165756Y-95945364D01*
X248151912Y-95935994D01*
X247991200Y-95827221D01*
X247991198Y-95827220D01*
X247797435Y-95744246D01*
X247797432Y-95744245D01*
X247797427Y-95744243D01*
X247591481Y-95699442D01*
X247591472Y-95699441D01*
X247581999Y-95698876D01*
X247544115Y-95696620D01*
X234544115Y-95696620D01*
X234375575Y-95696620D01*
X234347161Y-95698312D01*
X234328217Y-95699441D01*
X234328208Y-95699442D01*
X234122262Y-95744243D01*
X234122255Y-95744246D01*
X233928489Y-95827221D01*
X233753936Y-95945362D01*
X233604887Y-96094411D01*
X233486746Y-96268964D01*
X233403771Y-96462730D01*
X233403768Y-96462737D01*
X233358967Y-96668683D01*
X233358966Y-96668692D01*
X233358966Y-96668694D01*
X233356145Y-96716050D01*
X229513545Y-96716050D01*
X229510724Y-96668694D01*
X229465919Y-96462730D01*
X229382945Y-96268967D01*
X229264801Y-96094409D01*
X229115756Y-95945364D01*
X229101912Y-95935994D01*
X228941200Y-95827221D01*
X228941198Y-95827220D01*
X228747435Y-95744246D01*
X228747432Y-95744245D01*
X228747427Y-95744243D01*
X228541481Y-95699442D01*
X228541472Y-95699441D01*
X228531999Y-95698876D01*
X228494115Y-95696620D01*
X215494115Y-95696620D01*
X215325575Y-95696620D01*
X215297161Y-95698312D01*
X215278217Y-95699441D01*
X215278208Y-95699442D01*
X215072262Y-95744243D01*
X215072255Y-95744246D01*
X214878489Y-95827221D01*
X214703936Y-95945362D01*
X214554887Y-96094411D01*
X214436746Y-96268964D01*
X214353771Y-96462730D01*
X214353768Y-96462737D01*
X214308967Y-96668683D01*
X214308966Y-96668692D01*
X214308966Y-96668694D01*
X214306145Y-96716050D01*
X213056487Y-96716050D01*
X213055645Y-95155367D01*
X213055591Y-95154835D01*
X213055588Y-95043973D01*
X213020067Y-94774240D01*
X212949646Y-94511451D01*
X212845528Y-94260100D01*
X212709497Y-94024489D01*
X212543877Y-93808647D01*
X212351504Y-93616267D01*
X212135667Y-93450641D01*
X211900060Y-93314602D01*
X211900058Y-93314601D01*
X211900056Y-93314600D01*
X211648718Y-93210477D01*
X211385928Y-93140046D01*
X211385916Y-93140044D01*
X211116195Y-93104517D01*
X211116189Y-93104516D01*
X211006702Y-93104508D01*
X211006688Y-93104507D01*
X210995176Y-93104507D01*
X210980164Y-93104507D01*
X210955633Y-93104505D01*
X210955632Y-93104505D01*
X210940990Y-93104504D01*
X210940970Y-93104507D01*
X210271415Y-93104507D01*
X210271404Y-93104505D01*
X210230423Y-93104506D01*
X210223951Y-93104294D01*
X209982462Y-93088477D01*
X209969624Y-93086787D01*
X209887216Y-93070398D01*
X209735452Y-93040216D01*
X209722943Y-93036865D01*
X209496846Y-92960122D01*
X209484881Y-92955166D01*
X209270740Y-92849569D01*
X209259532Y-92843098D01*
X209060999Y-92710446D01*
X209050728Y-92702565D01*
X208871217Y-92545139D01*
X208862060Y-92535982D01*
X208704634Y-92356471D01*
X208696754Y-92346203D01*
X208564098Y-92147663D01*
X208557633Y-92136465D01*
X208452030Y-91922312D01*
X208447080Y-91910360D01*
X208370333Y-91684254D01*
X208366983Y-91671747D01*
X208353764Y-91605277D01*
X208320409Y-91437562D01*
X208318723Y-91424750D01*
X208302904Y-91183246D01*
X208302693Y-91176774D01*
X208302694Y-91139572D01*
X208302665Y-91139397D01*
X208294130Y-77666053D01*
X209543645Y-77666053D01*
X209543645Y-90834586D01*
X209546466Y-90881947D01*
X209546467Y-90881956D01*
X209591268Y-91087902D01*
X209591270Y-91087907D01*
X209591271Y-91087910D01*
X209674245Y-91281673D01*
X209792389Y-91456231D01*
X209941434Y-91605276D01*
X210115992Y-91723420D01*
X210309755Y-91806394D01*
X210309759Y-91806395D01*
X210309762Y-91806396D01*
X210515708Y-91851197D01*
X210515711Y-91851197D01*
X210515719Y-91851199D01*
X210563075Y-91854020D01*
X210563088Y-91854020D01*
X223731602Y-91854020D01*
X223731615Y-91854020D01*
X223778971Y-91851199D01*
X223778979Y-91851197D01*
X223778981Y-91851197D01*
X223984927Y-91806396D01*
X223984928Y-91806395D01*
X223984935Y-91806394D01*
X224178698Y-91723420D01*
X224353256Y-91605276D01*
X224502301Y-91456231D01*
X224620445Y-91281673D01*
X224703419Y-91087910D01*
X224748224Y-90881946D01*
X224751045Y-90834590D01*
X224751045Y-77666053D01*
X228593645Y-77666053D01*
X228593645Y-90834586D01*
X228596466Y-90881947D01*
X228596467Y-90881956D01*
X228641268Y-91087902D01*
X228641270Y-91087907D01*
X228641271Y-91087910D01*
X228724245Y-91281673D01*
X228842389Y-91456231D01*
X228991434Y-91605276D01*
X229165992Y-91723420D01*
X229359755Y-91806394D01*
X229359759Y-91806395D01*
X229359762Y-91806396D01*
X229565708Y-91851197D01*
X229565711Y-91851197D01*
X229565719Y-91851199D01*
X229613075Y-91854020D01*
X229613088Y-91854020D01*
X242781602Y-91854020D01*
X242781615Y-91854020D01*
X242828971Y-91851199D01*
X242828979Y-91851197D01*
X242828981Y-91851197D01*
X243034927Y-91806396D01*
X243034928Y-91806395D01*
X243034935Y-91806394D01*
X243228698Y-91723420D01*
X243403256Y-91605276D01*
X243552301Y-91456231D01*
X243670445Y-91281673D01*
X243753419Y-91087910D01*
X243798224Y-90881946D01*
X243801045Y-90834590D01*
X243801045Y-77666053D01*
X247643645Y-77666053D01*
X247643645Y-90834586D01*
X247646466Y-90881947D01*
X247646467Y-90881956D01*
X247691268Y-91087902D01*
X247691270Y-91087907D01*
X247691271Y-91087910D01*
X247774245Y-91281673D01*
X247892389Y-91456231D01*
X248041434Y-91605276D01*
X248215992Y-91723420D01*
X248409755Y-91806394D01*
X248409759Y-91806395D01*
X248409762Y-91806396D01*
X248615708Y-91851197D01*
X248615711Y-91851197D01*
X248615719Y-91851199D01*
X248663075Y-91854020D01*
X248663088Y-91854020D01*
X261831602Y-91854020D01*
X261831615Y-91854020D01*
X261878971Y-91851199D01*
X261878979Y-91851197D01*
X261878981Y-91851197D01*
X262084927Y-91806396D01*
X262084928Y-91806395D01*
X262084935Y-91806394D01*
X262278698Y-91723420D01*
X262453256Y-91605276D01*
X262602301Y-91456231D01*
X262720445Y-91281673D01*
X262803419Y-91087910D01*
X262848224Y-90881946D01*
X262851045Y-90834590D01*
X262851045Y-77666053D01*
X266693645Y-77666053D01*
X266693645Y-90834586D01*
X266696466Y-90881947D01*
X266696467Y-90881956D01*
X266741268Y-91087902D01*
X266741270Y-91087907D01*
X266741271Y-91087910D01*
X266824245Y-91281673D01*
X266942389Y-91456231D01*
X267091434Y-91605276D01*
X267265992Y-91723420D01*
X267459755Y-91806394D01*
X267459759Y-91806395D01*
X267459762Y-91806396D01*
X267665708Y-91851197D01*
X267665711Y-91851197D01*
X267665719Y-91851199D01*
X267713075Y-91854020D01*
X267713088Y-91854020D01*
X280881602Y-91854020D01*
X280881615Y-91854020D01*
X280928971Y-91851199D01*
X280928979Y-91851197D01*
X280928981Y-91851197D01*
X281134927Y-91806396D01*
X281134928Y-91806395D01*
X281134935Y-91806394D01*
X281328698Y-91723420D01*
X281503256Y-91605276D01*
X281652301Y-91456231D01*
X281770445Y-91281673D01*
X281853419Y-91087910D01*
X281898224Y-90881946D01*
X281901045Y-90834590D01*
X281901045Y-90203506D01*
X289466325Y-90203506D01*
X289486782Y-90450396D01*
X289486783Y-90450398D01*
X289547599Y-90690555D01*
X289593260Y-90794652D01*
X289647111Y-90917422D01*
X289647113Y-90917425D01*
X289647114Y-90917427D01*
X289782614Y-91124825D01*
X289950403Y-91307092D01*
X289950406Y-91307094D01*
X290142012Y-91456228D01*
X290142016Y-91456231D01*
X290145903Y-91459256D01*
X290363782Y-91577166D01*
X290598097Y-91657606D01*
X290842456Y-91698383D01*
X291090194Y-91698383D01*
X291334553Y-91657606D01*
X291568868Y-91577166D01*
X291786747Y-91459256D01*
X291982247Y-91307092D01*
X292150036Y-91124825D01*
X292285536Y-90917427D01*
X292385051Y-90690555D01*
X292445867Y-90450398D01*
X292466325Y-90203506D01*
X292445867Y-89956614D01*
X292385051Y-89716457D01*
X292285536Y-89489585D01*
X292150036Y-89282187D01*
X291982247Y-89099920D01*
X291786747Y-88947756D01*
X291568871Y-88829847D01*
X291551492Y-88823880D01*
X291334553Y-88749406D01*
X291334550Y-88749405D01*
X291334549Y-88749405D01*
X291090194Y-88708629D01*
X290842456Y-88708629D01*
X290598100Y-88749405D01*
X290363778Y-88829847D01*
X290145902Y-88947756D01*
X290145899Y-88947758D01*
X289950406Y-89099917D01*
X289950400Y-89099922D01*
X289782616Y-89282184D01*
X289647111Y-89489589D01*
X289580357Y-89641775D01*
X289547599Y-89716457D01*
X289517191Y-89836535D01*
X289486782Y-89956615D01*
X289466325Y-90203506D01*
X281901045Y-90203506D01*
X281901045Y-84250376D01*
X289466325Y-84250376D01*
X289486782Y-84497266D01*
X289486783Y-84497268D01*
X289547599Y-84737425D01*
X289593260Y-84841522D01*
X289647111Y-84964292D01*
X289647113Y-84964295D01*
X289647114Y-84964297D01*
X289782614Y-85171695D01*
X289950403Y-85353962D01*
X290145903Y-85506126D01*
X290363782Y-85624036D01*
X290598097Y-85704476D01*
X290842456Y-85745253D01*
X291090194Y-85745253D01*
X291334553Y-85704476D01*
X291568868Y-85624036D01*
X291786747Y-85506126D01*
X291982247Y-85353962D01*
X292150036Y-85171695D01*
X292285536Y-84964297D01*
X292385051Y-84737425D01*
X292445867Y-84497268D01*
X292466325Y-84250376D01*
X292445867Y-84003484D01*
X292385051Y-83763327D01*
X292285536Y-83536455D01*
X292150036Y-83329057D01*
X291982247Y-83146790D01*
X291786747Y-82994626D01*
X291568871Y-82876717D01*
X291551492Y-82870750D01*
X291334553Y-82796276D01*
X291334550Y-82796275D01*
X291334549Y-82796275D01*
X291090194Y-82755499D01*
X290842456Y-82755499D01*
X290598100Y-82796275D01*
X290363778Y-82876717D01*
X290145902Y-82994626D01*
X290145899Y-82994628D01*
X289950406Y-83146787D01*
X289950400Y-83146792D01*
X289782616Y-83329054D01*
X289647111Y-83536459D01*
X289563983Y-83725974D01*
X289547599Y-83763327D01*
X289517191Y-83883405D01*
X289486782Y-84003485D01*
X289466325Y-84250376D01*
X281901045Y-84250376D01*
X281901045Y-78297246D01*
X289466325Y-78297246D01*
X289486782Y-78544136D01*
X289486783Y-78544138D01*
X289547599Y-78784295D01*
X289593260Y-78888392D01*
X289647111Y-79011162D01*
X289647113Y-79011165D01*
X289647114Y-79011167D01*
X289782614Y-79218565D01*
X289950403Y-79400832D01*
X290145903Y-79552996D01*
X290363782Y-79670906D01*
X290598097Y-79751346D01*
X290842456Y-79792123D01*
X291090194Y-79792123D01*
X291334553Y-79751346D01*
X291568868Y-79670906D01*
X291786747Y-79552996D01*
X291982247Y-79400832D01*
X292150036Y-79218565D01*
X292285536Y-79011167D01*
X292385051Y-78784295D01*
X292445867Y-78544138D01*
X292466325Y-78297246D01*
X292445867Y-78050354D01*
X292385051Y-77810197D01*
X292285536Y-77583325D01*
X292150036Y-77375927D01*
X291982247Y-77193660D01*
X291932825Y-77155193D01*
X291786750Y-77041498D01*
X291786747Y-77041496D01*
X291568871Y-76923587D01*
X291551492Y-76917620D01*
X291334553Y-76843146D01*
X291334550Y-76843145D01*
X291334549Y-76843145D01*
X291090194Y-76802369D01*
X290842456Y-76802369D01*
X290598100Y-76843145D01*
X290363778Y-76923587D01*
X290145902Y-77041496D01*
X290145899Y-77041498D01*
X289950406Y-77193657D01*
X289950400Y-77193662D01*
X289782616Y-77375924D01*
X289647111Y-77583329D01*
X289563983Y-77772844D01*
X289547599Y-77810197D01*
X289517191Y-77930275D01*
X289486782Y-78050355D01*
X289466325Y-78297246D01*
X281901045Y-78297246D01*
X281901045Y-77666050D01*
X281898224Y-77618694D01*
X281853419Y-77412730D01*
X281770445Y-77218967D01*
X281652301Y-77044409D01*
X281503256Y-76895364D01*
X281426104Y-76843146D01*
X281328700Y-76777221D01*
X281328698Y-76777220D01*
X281134935Y-76694246D01*
X281134932Y-76694245D01*
X281134927Y-76694243D01*
X280928981Y-76649442D01*
X280928972Y-76649441D01*
X280919499Y-76648876D01*
X280881615Y-76646620D01*
X267881615Y-76646620D01*
X267713075Y-76646620D01*
X267684661Y-76648312D01*
X267665717Y-76649441D01*
X267665708Y-76649442D01*
X267459762Y-76694243D01*
X267459755Y-76694246D01*
X267265989Y-76777221D01*
X267091436Y-76895362D01*
X266942387Y-77044411D01*
X266824246Y-77218964D01*
X266741271Y-77412730D01*
X266741268Y-77412737D01*
X266696467Y-77618683D01*
X266696466Y-77618692D01*
X266693645Y-77666053D01*
X262851045Y-77666053D01*
X262851045Y-77666050D01*
X262848224Y-77618694D01*
X262803419Y-77412730D01*
X262720445Y-77218967D01*
X262602301Y-77044409D01*
X262453256Y-76895364D01*
X262376104Y-76843146D01*
X262278700Y-76777221D01*
X262278698Y-76777220D01*
X262084935Y-76694246D01*
X262084932Y-76694245D01*
X262084927Y-76694243D01*
X261878981Y-76649442D01*
X261878972Y-76649441D01*
X261869499Y-76648876D01*
X261831615Y-76646620D01*
X248831615Y-76646620D01*
X248663075Y-76646620D01*
X248634661Y-76648312D01*
X248615717Y-76649441D01*
X248615708Y-76649442D01*
X248409762Y-76694243D01*
X248409755Y-76694246D01*
X248215989Y-76777221D01*
X248041436Y-76895362D01*
X247892387Y-77044411D01*
X247774246Y-77218964D01*
X247691271Y-77412730D01*
X247691268Y-77412737D01*
X247646467Y-77618683D01*
X247646466Y-77618692D01*
X247643645Y-77666053D01*
X243801045Y-77666053D01*
X243801045Y-77666050D01*
X243798224Y-77618694D01*
X243753419Y-77412730D01*
X243670445Y-77218967D01*
X243552301Y-77044409D01*
X243403256Y-76895364D01*
X243326104Y-76843146D01*
X243228700Y-76777221D01*
X243228698Y-76777220D01*
X243034935Y-76694246D01*
X243034932Y-76694245D01*
X243034927Y-76694243D01*
X242828981Y-76649442D01*
X242828972Y-76649441D01*
X242819499Y-76648876D01*
X242781615Y-76646620D01*
X229781615Y-76646620D01*
X229613075Y-76646620D01*
X229584661Y-76648312D01*
X229565717Y-76649441D01*
X229565708Y-76649442D01*
X229359762Y-76694243D01*
X229359755Y-76694246D01*
X229165989Y-76777221D01*
X228991436Y-76895362D01*
X228842387Y-77044411D01*
X228724246Y-77218964D01*
X228641271Y-77412730D01*
X228641268Y-77412737D01*
X228596467Y-77618683D01*
X228596466Y-77618692D01*
X228593645Y-77666053D01*
X224751045Y-77666053D01*
X224751045Y-77666050D01*
X224748224Y-77618694D01*
X224703419Y-77412730D01*
X224620445Y-77218967D01*
X224502301Y-77044409D01*
X224353256Y-76895364D01*
X224276104Y-76843146D01*
X224178700Y-76777221D01*
X224178698Y-76777220D01*
X223984935Y-76694246D01*
X223984932Y-76694245D01*
X223984927Y-76694243D01*
X223778981Y-76649442D01*
X223778972Y-76649441D01*
X223769499Y-76648876D01*
X223731615Y-76646620D01*
X210731615Y-76646620D01*
X210563075Y-76646620D01*
X210534661Y-76648312D01*
X210515717Y-76649441D01*
X210515708Y-76649442D01*
X210309762Y-76694243D01*
X210309755Y-76694246D01*
X210115989Y-76777221D01*
X209941436Y-76895362D01*
X209792387Y-77044411D01*
X209674246Y-77218964D01*
X209591271Y-77412730D01*
X209591268Y-77412737D01*
X209546467Y-77618683D01*
X209546466Y-77618692D01*
X209543645Y-77666053D01*
X208294130Y-77666053D01*
X208293148Y-76114989D01*
X208293147Y-76114987D01*
X208293143Y-76108949D01*
X208293136Y-75994018D01*
X208257609Y-75724284D01*
X208187181Y-75461493D01*
X208083058Y-75210143D01*
X208083058Y-75210142D01*
X207947024Y-74974537D01*
X207947023Y-74974536D01*
X207947021Y-74974532D01*
X207781397Y-74758691D01*
X207589020Y-74566312D01*
X207373179Y-74400687D01*
X207373178Y-74400686D01*
X207373175Y-74400684D01*
X207137570Y-74264648D01*
X207137567Y-74264647D01*
X206886233Y-74160528D01*
X206886224Y-74160525D01*
X206886219Y-74160523D01*
X206802862Y-74138183D01*
X206623429Y-74090093D01*
X206353696Y-74054565D01*
X206353690Y-74054564D01*
X206244202Y-74054556D01*
X206244188Y-74054555D01*
X206232676Y-74054555D01*
X206217664Y-74054555D01*
X206193133Y-74054553D01*
X206193132Y-74054553D01*
X206178490Y-74054552D01*
X206178470Y-74054555D01*
X200914658Y-74054555D01*
X200914637Y-74054552D01*
X200878710Y-74054554D01*
X200872237Y-74054343D01*
X200630731Y-74038533D01*
X200617890Y-74036843D01*
X200383713Y-73990278D01*
X200371204Y-73986927D01*
X200145106Y-73910191D01*
X200133140Y-73905235D01*
X199918997Y-73799642D01*
X199907781Y-73793167D01*
X199709247Y-73660518D01*
X199698980Y-73652640D01*
X199519460Y-73495209D01*
X199510304Y-73486053D01*
X199352876Y-73306541D01*
X199344992Y-73296266D01*
X199212348Y-73097744D01*
X199205872Y-73086528D01*
X199100271Y-72872376D01*
X199095316Y-72860411D01*
X199018580Y-72634323D01*
X199015228Y-72621813D01*
X199001997Y-72555277D01*
X198968655Y-72387615D01*
X198966969Y-72374791D01*
X198951181Y-72133677D01*
X198950970Y-72127209D01*
X198950971Y-72105529D01*
X198950970Y-72105527D01*
X198950970Y-58616053D01*
X200018645Y-58616053D01*
X200018645Y-71784586D01*
X200021466Y-71831947D01*
X200021467Y-71831956D01*
X200066268Y-72037902D01*
X200066270Y-72037907D01*
X200066271Y-72037910D01*
X200149245Y-72231673D01*
X200267389Y-72406231D01*
X200416434Y-72555276D01*
X200590992Y-72673420D01*
X200784755Y-72756394D01*
X200784759Y-72756395D01*
X200784762Y-72756396D01*
X200990708Y-72801197D01*
X200990711Y-72801197D01*
X200990719Y-72801199D01*
X201038075Y-72804020D01*
X201038088Y-72804020D01*
X214206602Y-72804020D01*
X214206615Y-72804020D01*
X214253971Y-72801199D01*
X214253979Y-72801197D01*
X214253981Y-72801197D01*
X214459927Y-72756396D01*
X214459928Y-72756395D01*
X214459935Y-72756394D01*
X214653698Y-72673420D01*
X214828256Y-72555276D01*
X214977301Y-72406231D01*
X215095445Y-72231673D01*
X215178419Y-72037910D01*
X215223224Y-71831946D01*
X215226045Y-71784590D01*
X215226045Y-58616053D01*
X219068645Y-58616053D01*
X219068645Y-71784586D01*
X219071466Y-71831947D01*
X219071467Y-71831956D01*
X219116268Y-72037902D01*
X219116270Y-72037907D01*
X219116271Y-72037910D01*
X219199245Y-72231673D01*
X219317389Y-72406231D01*
X219466434Y-72555276D01*
X219640992Y-72673420D01*
X219834755Y-72756394D01*
X219834759Y-72756395D01*
X219834762Y-72756396D01*
X220040708Y-72801197D01*
X220040711Y-72801197D01*
X220040719Y-72801199D01*
X220088075Y-72804020D01*
X220088088Y-72804020D01*
X233256602Y-72804020D01*
X233256615Y-72804020D01*
X233303971Y-72801199D01*
X233303979Y-72801197D01*
X233303981Y-72801197D01*
X233509927Y-72756396D01*
X233509928Y-72756395D01*
X233509935Y-72756394D01*
X233703698Y-72673420D01*
X233878256Y-72555276D01*
X234027301Y-72406231D01*
X234145445Y-72231673D01*
X234228419Y-72037910D01*
X234273224Y-71831946D01*
X234276045Y-71784590D01*
X234276045Y-58616053D01*
X238118645Y-58616053D01*
X238118645Y-71784586D01*
X238121466Y-71831947D01*
X238121467Y-71831956D01*
X238166268Y-72037902D01*
X238166270Y-72037907D01*
X238166271Y-72037910D01*
X238249245Y-72231673D01*
X238367389Y-72406231D01*
X238516434Y-72555276D01*
X238690992Y-72673420D01*
X238884755Y-72756394D01*
X238884759Y-72756395D01*
X238884762Y-72756396D01*
X239090708Y-72801197D01*
X239090711Y-72801197D01*
X239090719Y-72801199D01*
X239138075Y-72804020D01*
X239138088Y-72804020D01*
X252306602Y-72804020D01*
X252306615Y-72804020D01*
X252353971Y-72801199D01*
X252353979Y-72801197D01*
X252353981Y-72801197D01*
X252559927Y-72756396D01*
X252559928Y-72756395D01*
X252559935Y-72756394D01*
X252753698Y-72673420D01*
X252928256Y-72555276D01*
X253077301Y-72406231D01*
X253195445Y-72231673D01*
X253278419Y-72037910D01*
X253323224Y-71831946D01*
X253326045Y-71784590D01*
X253326045Y-58616053D01*
X257168645Y-58616053D01*
X257168645Y-71784586D01*
X257171466Y-71831947D01*
X257171467Y-71831956D01*
X257216268Y-72037902D01*
X257216270Y-72037907D01*
X257216271Y-72037910D01*
X257299245Y-72231673D01*
X257417389Y-72406231D01*
X257566434Y-72555276D01*
X257740992Y-72673420D01*
X257934755Y-72756394D01*
X257934759Y-72756395D01*
X257934762Y-72756396D01*
X258140708Y-72801197D01*
X258140711Y-72801197D01*
X258140719Y-72801199D01*
X258188075Y-72804020D01*
X258188088Y-72804020D01*
X271356602Y-72804020D01*
X271356615Y-72804020D01*
X271403971Y-72801199D01*
X271403979Y-72801197D01*
X271403981Y-72801197D01*
X271609927Y-72756396D01*
X271609928Y-72756395D01*
X271609935Y-72756394D01*
X271803698Y-72673420D01*
X271978256Y-72555276D01*
X272127301Y-72406231D01*
X272245445Y-72231673D01*
X272328419Y-72037910D01*
X272373224Y-71831946D01*
X272376045Y-71784590D01*
X272376045Y-58616053D01*
X276218645Y-58616053D01*
X276218645Y-71784586D01*
X276221466Y-71831947D01*
X276221467Y-71831956D01*
X276266268Y-72037902D01*
X276266270Y-72037907D01*
X276266271Y-72037910D01*
X276349245Y-72231673D01*
X276467389Y-72406231D01*
X276616434Y-72555276D01*
X276790992Y-72673420D01*
X276984755Y-72756394D01*
X276984759Y-72756395D01*
X276984762Y-72756396D01*
X277190708Y-72801197D01*
X277190711Y-72801197D01*
X277190719Y-72801199D01*
X277238075Y-72804020D01*
X277238088Y-72804020D01*
X290406602Y-72804020D01*
X290406615Y-72804020D01*
X290453971Y-72801199D01*
X290453979Y-72801197D01*
X290453981Y-72801197D01*
X290659927Y-72756396D01*
X290659928Y-72756395D01*
X290659935Y-72756394D01*
X290853698Y-72673420D01*
X291028256Y-72555276D01*
X291177301Y-72406231D01*
X291295445Y-72231673D01*
X291378419Y-72037910D01*
X291423224Y-71831946D01*
X291426045Y-71784590D01*
X291426045Y-58616050D01*
X291423224Y-58568694D01*
X291378419Y-58362730D01*
X291295445Y-58168967D01*
X291177301Y-57994409D01*
X291028256Y-57845364D01*
X290858639Y-57730564D01*
X290853700Y-57727221D01*
X290846391Y-57724091D01*
X290659935Y-57644246D01*
X290659932Y-57644245D01*
X290659927Y-57644243D01*
X290453981Y-57599442D01*
X290453972Y-57599441D01*
X290444499Y-57598876D01*
X290406615Y-57596620D01*
X277406615Y-57596620D01*
X277238075Y-57596620D01*
X277209661Y-57598312D01*
X277190717Y-57599441D01*
X277190708Y-57599442D01*
X276984762Y-57644243D01*
X276984755Y-57644246D01*
X276790989Y-57727221D01*
X276616436Y-57845362D01*
X276467387Y-57994411D01*
X276349246Y-58168964D01*
X276266271Y-58362730D01*
X276266268Y-58362737D01*
X276221467Y-58568683D01*
X276221466Y-58568692D01*
X276218645Y-58616053D01*
X272376045Y-58616053D01*
X272376045Y-58616050D01*
X272373224Y-58568694D01*
X272328419Y-58362730D01*
X272245445Y-58168967D01*
X272127301Y-57994409D01*
X271978256Y-57845364D01*
X271808639Y-57730564D01*
X271803700Y-57727221D01*
X271796391Y-57724091D01*
X271609935Y-57644246D01*
X271609932Y-57644245D01*
X271609927Y-57644243D01*
X271403981Y-57599442D01*
X271403972Y-57599441D01*
X271394499Y-57598876D01*
X271356615Y-57596620D01*
X258356615Y-57596620D01*
X258188075Y-57596620D01*
X258159661Y-57598312D01*
X258140717Y-57599441D01*
X258140708Y-57599442D01*
X257934762Y-57644243D01*
X257934755Y-57644246D01*
X257740989Y-57727221D01*
X257566436Y-57845362D01*
X257417387Y-57994411D01*
X257299246Y-58168964D01*
X257216271Y-58362730D01*
X257216268Y-58362737D01*
X257171467Y-58568683D01*
X257171466Y-58568692D01*
X257168645Y-58616053D01*
X253326045Y-58616053D01*
X253326045Y-58616050D01*
X253323224Y-58568694D01*
X253278419Y-58362730D01*
X253195445Y-58168967D01*
X253077301Y-57994409D01*
X252928256Y-57845364D01*
X252758639Y-57730564D01*
X252753700Y-57727221D01*
X252746391Y-57724091D01*
X252559935Y-57644246D01*
X252559932Y-57644245D01*
X252559927Y-57644243D01*
X252353981Y-57599442D01*
X252353972Y-57599441D01*
X252344499Y-57598876D01*
X252306615Y-57596620D01*
X239306615Y-57596620D01*
X239138075Y-57596620D01*
X239109661Y-57598312D01*
X239090717Y-57599441D01*
X239090708Y-57599442D01*
X238884762Y-57644243D01*
X238884755Y-57644246D01*
X238690989Y-57727221D01*
X238516436Y-57845362D01*
X238367387Y-57994411D01*
X238249246Y-58168964D01*
X238166271Y-58362730D01*
X238166268Y-58362737D01*
X238121467Y-58568683D01*
X238121466Y-58568692D01*
X238118645Y-58616053D01*
X234276045Y-58616053D01*
X234276045Y-58616050D01*
X234273224Y-58568694D01*
X234228419Y-58362730D01*
X234145445Y-58168967D01*
X234027301Y-57994409D01*
X233878256Y-57845364D01*
X233708639Y-57730564D01*
X233703700Y-57727221D01*
X233696391Y-57724091D01*
X233509935Y-57644246D01*
X233509932Y-57644245D01*
X233509927Y-57644243D01*
X233303981Y-57599442D01*
X233303972Y-57599441D01*
X233294499Y-57598876D01*
X233256615Y-57596620D01*
X220256615Y-57596620D01*
X220088075Y-57596620D01*
X220059661Y-57598312D01*
X220040717Y-57599441D01*
X220040708Y-57599442D01*
X219834762Y-57644243D01*
X219834755Y-57644246D01*
X219640989Y-57727221D01*
X219466436Y-57845362D01*
X219317387Y-57994411D01*
X219199246Y-58168964D01*
X219116271Y-58362730D01*
X219116268Y-58362737D01*
X219071467Y-58568683D01*
X219071466Y-58568692D01*
X219068645Y-58616053D01*
X215226045Y-58616053D01*
X215226045Y-58616050D01*
X215223224Y-58568694D01*
X215178419Y-58362730D01*
X215095445Y-58168967D01*
X214977301Y-57994409D01*
X214828256Y-57845364D01*
X214658639Y-57730564D01*
X214653700Y-57727221D01*
X214646391Y-57724091D01*
X214459935Y-57644246D01*
X214459932Y-57644245D01*
X214459927Y-57644243D01*
X214253981Y-57599442D01*
X214253972Y-57599441D01*
X214244499Y-57598876D01*
X214206615Y-57596620D01*
X201206615Y-57596620D01*
X201038075Y-57596620D01*
X201009661Y-57598312D01*
X200990717Y-57599441D01*
X200990708Y-57599442D01*
X200784762Y-57644243D01*
X200784755Y-57644246D01*
X200590989Y-57727221D01*
X200416436Y-57845362D01*
X200267387Y-57994411D01*
X200149246Y-58168964D01*
X200066271Y-58362730D01*
X200066268Y-58362737D01*
X200021467Y-58568683D01*
X200021466Y-58568692D01*
X200018645Y-58616053D01*
X198950970Y-58616053D01*
X198950970Y-57978527D01*
X198951182Y-57972047D01*
X198959492Y-57845364D01*
X198967023Y-57730558D01*
X198968714Y-57717726D01*
X199015307Y-57483545D01*
X199018651Y-57471063D01*
X199095412Y-57244960D01*
X199100359Y-57233016D01*
X199205976Y-57018858D01*
X199212433Y-57007675D01*
X199345099Y-56809132D01*
X199352979Y-56798865D01*
X199510400Y-56619361D01*
X199519547Y-56610213D01*
X199699068Y-56452775D01*
X199709326Y-56444903D01*
X199907858Y-56312244D01*
X199919069Y-56305772D01*
X200133205Y-56200164D01*
X200145147Y-56195217D01*
X200371245Y-56118457D01*
X200383746Y-56115106D01*
X200617922Y-56068514D01*
X200630748Y-56066824D01*
X200872091Y-56050991D01*
X200878572Y-56050780D01*
X215522101Y-56050780D01*
X215522444Y-56050745D01*
X215633378Y-56050748D01*
X215903121Y-56015243D01*
X216165923Y-55944831D01*
X216417284Y-55840719D01*
X216652906Y-55704688D01*
X216868756Y-55539064D01*
X217061140Y-55346683D01*
X217226767Y-55130836D01*
X217362803Y-54895217D01*
X217466920Y-54643857D01*
X217537335Y-54381057D01*
X217572846Y-54111314D01*
X217572845Y-53975279D01*
X217572845Y-39566053D01*
X219068645Y-39566053D01*
X219068645Y-52734586D01*
X219071466Y-52781947D01*
X219071467Y-52781956D01*
X219116268Y-52987902D01*
X219116270Y-52987907D01*
X219116271Y-52987910D01*
X219199245Y-53181673D01*
X219317389Y-53356231D01*
X219466434Y-53505276D01*
X219640992Y-53623420D01*
X219834755Y-53706394D01*
X219834759Y-53706395D01*
X219834762Y-53706396D01*
X220040708Y-53751197D01*
X220040711Y-53751197D01*
X220040719Y-53751199D01*
X220088075Y-53754020D01*
X220088088Y-53754020D01*
X233256602Y-53754020D01*
X233256615Y-53754020D01*
X233303971Y-53751199D01*
X233303979Y-53751197D01*
X233303981Y-53751197D01*
X233509927Y-53706396D01*
X233509928Y-53706395D01*
X233509935Y-53706394D01*
X233703698Y-53623420D01*
X233878256Y-53505276D01*
X234027301Y-53356231D01*
X234145445Y-53181673D01*
X234228419Y-52987910D01*
X234273224Y-52781946D01*
X234276045Y-52734590D01*
X234276045Y-39566053D01*
X238118645Y-39566053D01*
X238118645Y-52734586D01*
X238121466Y-52781947D01*
X238121467Y-52781956D01*
X238166268Y-52987902D01*
X238166270Y-52987907D01*
X238166271Y-52987910D01*
X238249245Y-53181673D01*
X238367389Y-53356231D01*
X238516434Y-53505276D01*
X238690992Y-53623420D01*
X238884755Y-53706394D01*
X238884759Y-53706395D01*
X238884762Y-53706396D01*
X239090708Y-53751197D01*
X239090711Y-53751197D01*
X239090719Y-53751199D01*
X239138075Y-53754020D01*
X239138088Y-53754020D01*
X252306602Y-53754020D01*
X252306615Y-53754020D01*
X252353971Y-53751199D01*
X252353979Y-53751197D01*
X252353981Y-53751197D01*
X252559927Y-53706396D01*
X252559928Y-53706395D01*
X252559935Y-53706394D01*
X252753698Y-53623420D01*
X252928256Y-53505276D01*
X253077301Y-53356231D01*
X253195445Y-53181673D01*
X253278419Y-52987910D01*
X253323224Y-52781946D01*
X253326045Y-52734590D01*
X253326045Y-39566050D01*
X253323224Y-39518694D01*
X253278419Y-39312730D01*
X253195445Y-39118967D01*
X253077301Y-38944409D01*
X252928256Y-38795364D01*
X252914412Y-38785994D01*
X252753700Y-38677221D01*
X252753698Y-38677220D01*
X252559935Y-38594246D01*
X252559932Y-38594245D01*
X252559927Y-38594243D01*
X252353981Y-38549442D01*
X252353972Y-38549441D01*
X252344499Y-38548876D01*
X252306615Y-38546620D01*
X239306615Y-38546620D01*
X239138075Y-38546620D01*
X239109661Y-38548312D01*
X239090717Y-38549441D01*
X239090708Y-38549442D01*
X238884762Y-38594243D01*
X238884755Y-38594246D01*
X238690989Y-38677221D01*
X238516436Y-38795362D01*
X238367387Y-38944411D01*
X238249246Y-39118964D01*
X238166271Y-39312730D01*
X238166268Y-39312737D01*
X238121467Y-39518683D01*
X238121466Y-39518692D01*
X238118645Y-39566053D01*
X234276045Y-39566053D01*
X234276045Y-39566050D01*
X234273224Y-39518694D01*
X234228419Y-39312730D01*
X234145445Y-39118967D01*
X234027301Y-38944409D01*
X233878256Y-38795364D01*
X233864412Y-38785994D01*
X233703700Y-38677221D01*
X233703698Y-38677220D01*
X233509935Y-38594246D01*
X233509932Y-38594245D01*
X233509927Y-38594243D01*
X233303981Y-38549442D01*
X233303972Y-38549441D01*
X233294499Y-38548876D01*
X233256615Y-38546620D01*
X220256615Y-38546620D01*
X220088075Y-38546620D01*
X220059661Y-38548312D01*
X220040717Y-38549441D01*
X220040708Y-38549442D01*
X219834762Y-38594243D01*
X219834755Y-38594246D01*
X219640989Y-38677221D01*
X219466436Y-38795362D01*
X219317387Y-38944411D01*
X219199246Y-39118964D01*
X219116271Y-39312730D01*
X219116268Y-39312737D01*
X219071467Y-39518683D01*
X219071466Y-39518692D01*
X219068645Y-39566053D01*
X217572845Y-39566053D01*
X217572845Y-36547272D01*
X217573057Y-36540794D01*
X217581765Y-36407998D01*
X217588893Y-36299301D01*
X217590583Y-36286474D01*
X217637171Y-36052292D01*
X217640516Y-36039810D01*
X217717274Y-35813707D01*
X217722224Y-35801756D01*
X217827836Y-35587606D01*
X217834300Y-35576410D01*
X217966958Y-35377877D01*
X217974824Y-35367625D01*
X218132275Y-35188090D01*
X218141407Y-35178959D01*
X218320937Y-35021516D01*
X218331181Y-35013656D01*
X218529725Y-34880991D01*
X218540921Y-34874527D01*
X218755074Y-34768917D01*
X218767009Y-34763972D01*
X218993132Y-34687210D01*
X219005611Y-34683866D01*
X219239797Y-34637279D01*
X219252613Y-34635591D01*
X219494347Y-34619741D01*
X219500814Y-34619530D01*
X252831599Y-34619530D01*
X252838076Y-34619742D01*
G37*
G04 #@! TD.AperFunction*
G04 #@! TA.AperFunction,NonConductor*
G36*
X251077836Y-40772927D02*
G01*
X251113800Y-40822427D01*
X251118645Y-40853020D01*
X251118645Y-51447620D01*
X251099738Y-51505811D01*
X251050238Y-51541775D01*
X251019645Y-51546620D01*
X240425045Y-51546620D01*
X240366854Y-51527713D01*
X240330890Y-51478213D01*
X240326045Y-51447620D01*
X240326045Y-40853020D01*
X240344952Y-40794829D01*
X240394452Y-40758865D01*
X240425045Y-40754020D01*
X251019645Y-40754020D01*
X251077836Y-40772927D01*
G37*
G04 #@! TD.AperFunction*
G04 #@! TA.AperFunction,NonConductor*
G36*
X232027836Y-40772927D02*
G01*
X232063800Y-40822427D01*
X232068645Y-40853020D01*
X232068645Y-51447620D01*
X232049738Y-51505811D01*
X232000238Y-51541775D01*
X231969645Y-51546620D01*
X221375045Y-51546620D01*
X221316854Y-51527713D01*
X221280890Y-51478213D01*
X221276045Y-51447620D01*
X221276045Y-40853020D01*
X221294952Y-40794829D01*
X221344452Y-40758865D01*
X221375045Y-40754020D01*
X231969645Y-40754020D01*
X232027836Y-40772927D01*
G37*
G04 #@! TD.AperFunction*
G04 #@! TA.AperFunction,NonConductor*
G36*
X289177836Y-59822927D02*
G01*
X289213800Y-59872427D01*
X289218645Y-59903020D01*
X289218645Y-70497620D01*
X289199738Y-70555811D01*
X289150238Y-70591775D01*
X289119645Y-70596620D01*
X278525045Y-70596620D01*
X278466854Y-70577713D01*
X278430890Y-70528213D01*
X278426045Y-70497620D01*
X278426045Y-59903020D01*
X278444952Y-59844829D01*
X278494452Y-59808865D01*
X278525045Y-59804020D01*
X289119645Y-59804020D01*
X289177836Y-59822927D01*
G37*
G04 #@! TD.AperFunction*
G04 #@! TA.AperFunction,NonConductor*
G36*
X270127836Y-59822927D02*
G01*
X270163800Y-59872427D01*
X270168645Y-59903020D01*
X270168645Y-70497620D01*
X270149738Y-70555811D01*
X270100238Y-70591775D01*
X270069645Y-70596620D01*
X259475045Y-70596620D01*
X259416854Y-70577713D01*
X259380890Y-70528213D01*
X259376045Y-70497620D01*
X259376045Y-59903020D01*
X259394952Y-59844829D01*
X259444452Y-59808865D01*
X259475045Y-59804020D01*
X270069645Y-59804020D01*
X270127836Y-59822927D01*
G37*
G04 #@! TD.AperFunction*
G04 #@! TA.AperFunction,NonConductor*
G36*
X251077836Y-59822927D02*
G01*
X251113800Y-59872427D01*
X251118645Y-59903020D01*
X251118645Y-70497620D01*
X251099738Y-70555811D01*
X251050238Y-70591775D01*
X251019645Y-70596620D01*
X240425045Y-70596620D01*
X240366854Y-70577713D01*
X240330890Y-70528213D01*
X240326045Y-70497620D01*
X240326045Y-59903020D01*
X240344952Y-59844829D01*
X240394452Y-59808865D01*
X240425045Y-59804020D01*
X251019645Y-59804020D01*
X251077836Y-59822927D01*
G37*
G04 #@! TD.AperFunction*
G04 #@! TA.AperFunction,NonConductor*
G36*
X232027836Y-59822927D02*
G01*
X232063800Y-59872427D01*
X232068645Y-59903020D01*
X232068645Y-70497620D01*
X232049738Y-70555811D01*
X232000238Y-70591775D01*
X231969645Y-70596620D01*
X221375045Y-70596620D01*
X221316854Y-70577713D01*
X221280890Y-70528213D01*
X221276045Y-70497620D01*
X221276045Y-59903020D01*
X221294952Y-59844829D01*
X221344452Y-59808865D01*
X221375045Y-59804020D01*
X231969645Y-59804020D01*
X232027836Y-59822927D01*
G37*
G04 #@! TD.AperFunction*
G04 #@! TA.AperFunction,NonConductor*
G36*
X212977836Y-59822927D02*
G01*
X213013800Y-59872427D01*
X213018645Y-59903020D01*
X213018645Y-70497620D01*
X212999738Y-70555811D01*
X212950238Y-70591775D01*
X212919645Y-70596620D01*
X202325045Y-70596620D01*
X202266854Y-70577713D01*
X202230890Y-70528213D01*
X202226045Y-70497620D01*
X202226045Y-59903020D01*
X202244952Y-59844829D01*
X202294452Y-59808865D01*
X202325045Y-59804020D01*
X212919645Y-59804020D01*
X212977836Y-59822927D01*
G37*
G04 #@! TD.AperFunction*
G04 #@! TA.AperFunction,NonConductor*
G36*
X279652836Y-78872927D02*
G01*
X279688800Y-78922427D01*
X279693645Y-78953020D01*
X279693645Y-89547620D01*
X279674738Y-89605811D01*
X279625238Y-89641775D01*
X279594645Y-89646620D01*
X269000045Y-89646620D01*
X268941854Y-89627713D01*
X268905890Y-89578213D01*
X268901045Y-89547620D01*
X268901045Y-78953020D01*
X268919952Y-78894829D01*
X268969452Y-78858865D01*
X269000045Y-78854020D01*
X279594645Y-78854020D01*
X279652836Y-78872927D01*
G37*
G04 #@! TD.AperFunction*
G04 #@! TA.AperFunction,NonConductor*
G36*
X260602836Y-78872927D02*
G01*
X260638800Y-78922427D01*
X260643645Y-78953020D01*
X260643645Y-89547620D01*
X260624738Y-89605811D01*
X260575238Y-89641775D01*
X260544645Y-89646620D01*
X249950045Y-89646620D01*
X249891854Y-89627713D01*
X249855890Y-89578213D01*
X249851045Y-89547620D01*
X249851045Y-78953020D01*
X249869952Y-78894829D01*
X249919452Y-78858865D01*
X249950045Y-78854020D01*
X260544645Y-78854020D01*
X260602836Y-78872927D01*
G37*
G04 #@! TD.AperFunction*
G04 #@! TA.AperFunction,NonConductor*
G36*
X241552836Y-78872927D02*
G01*
X241588800Y-78922427D01*
X241593645Y-78953020D01*
X241593645Y-89547620D01*
X241574738Y-89605811D01*
X241525238Y-89641775D01*
X241494645Y-89646620D01*
X230900045Y-89646620D01*
X230841854Y-89627713D01*
X230805890Y-89578213D01*
X230801045Y-89547620D01*
X230801045Y-78953020D01*
X230819952Y-78894829D01*
X230869452Y-78858865D01*
X230900045Y-78854020D01*
X241494645Y-78854020D01*
X241552836Y-78872927D01*
G37*
G04 #@! TD.AperFunction*
G04 #@! TA.AperFunction,NonConductor*
G36*
X222502836Y-78872927D02*
G01*
X222538800Y-78922427D01*
X222543645Y-78953020D01*
X222543645Y-89547620D01*
X222524738Y-89605811D01*
X222475238Y-89641775D01*
X222444645Y-89646620D01*
X211850045Y-89646620D01*
X211791854Y-89627713D01*
X211755890Y-89578213D01*
X211751045Y-89547620D01*
X211751045Y-78953020D01*
X211769952Y-78894829D01*
X211819452Y-78858865D01*
X211850045Y-78854020D01*
X222444645Y-78854020D01*
X222502836Y-78872927D01*
G37*
G04 #@! TD.AperFunction*
G04 #@! TA.AperFunction,NonConductor*
G36*
X246315336Y-97922927D02*
G01*
X246351300Y-97972427D01*
X246356145Y-98003020D01*
X246356145Y-108597620D01*
X246337238Y-108655811D01*
X246287738Y-108691775D01*
X246257145Y-108696620D01*
X235662545Y-108696620D01*
X235604354Y-108677713D01*
X235568390Y-108628213D01*
X235563545Y-108597620D01*
X235563545Y-98003020D01*
X235582452Y-97944829D01*
X235631952Y-97908865D01*
X235662545Y-97904020D01*
X246257145Y-97904020D01*
X246315336Y-97922927D01*
G37*
G04 #@! TD.AperFunction*
G04 #@! TA.AperFunction,NonConductor*
G36*
X227265336Y-97922927D02*
G01*
X227301300Y-97972427D01*
X227306145Y-98003020D01*
X227306145Y-108597620D01*
X227287238Y-108655811D01*
X227237738Y-108691775D01*
X227207145Y-108696620D01*
X216612545Y-108696620D01*
X216554354Y-108677713D01*
X216518390Y-108628213D01*
X216513545Y-108597620D01*
X216513545Y-98003020D01*
X216532452Y-97944829D01*
X216581952Y-97908865D01*
X216612545Y-97904020D01*
X227207145Y-97904020D01*
X227265336Y-97922927D01*
G37*
G04 #@! TD.AperFunction*
M02*
