M48
; DRILL file {KiCad 8.0.5} date 2024-09-29T21:28:23+0900
; FORMAT={-:-/ absolute / metric / decimal}
; #@! TF.CreationDate,2024-09-29T21:28:23+09:00
; #@! TF.GenerationSoftware,Kicad,Pcbnew,8.0.5
; #@! TF.FileFunction,NonPlated,1,2,NPTH
FMAT,2
METRIC
; #@! TA.AperFunction,NonPlated,NPTH,ComponentDrill
T1C1.000
%
G90
G05
T1
X118.058Y-113.554G85X127.251Y-104.362
G05
X127.251Y-122.746G85X118.058Y-113.554
G05
X136.443Y-113.554G85X127.251Y-104.362
G05
X127.251Y-122.746G85X136.443Y-113.554
G05
X129.845Y-128.708G85X139.037Y-119.516
G05
X139.037Y-137.901G85X129.845Y-128.708
G05
X148.23Y-128.708G85X139.037Y-119.516
G05
X139.037Y-137.901G85X148.23Y-128.708
G05
X144.999Y-113.554G85X154.192Y-104.362
G05
X154.192Y-122.746G85X144.999Y-113.554
G05
X163.384Y-113.554G85X154.192Y-104.362
G05
X154.192Y-122.746G85X163.384Y-113.554
G05
X166.778Y-110.16G85X157.586Y-100.968
G05
X168.546Y-90.007G85X157.586Y-100.968
G05
X177.738Y-99.2G85X166.778Y-110.16
G05
X177.738Y-99.2G85X168.546Y-90.007
G05
X171.94Y-59.673G85X181.132Y-50.48
G05
X181.132Y-68.865G85X171.94Y-59.673
G05
X171.94Y-86.613G85X181.132Y-77.421
G05
X181.132Y-95.806G85X171.94Y-86.613
G05
X190.325Y-59.673G85X181.132Y-50.48
G05
X181.132Y-68.865G85X190.325Y-59.673
G05
X190.325Y-86.613G85X181.132Y-77.421
G05
X181.132Y-95.806G85X190.325Y-86.613
G05
X187.094Y-71.459G85X196.286Y-62.267
G05
X196.286Y-80.651G85X187.094Y-71.459
G05
X205.479Y-71.459G85X196.286Y-62.267
G05
X196.286Y-80.651G85X205.479Y-71.459
G05
M30
