G04 #@! TF.GenerationSoftware,KiCad,Pcbnew,8.0.5*
G04 #@! TF.CreationDate,2024-09-29T21:28:28+09:00*
G04 #@! TF.ProjectId,SandyLP_Plate_Base_Center,53616e64-794c-4505-9f50-6c6174655f42,v.0*
G04 #@! TF.SameCoordinates,Original*
G04 #@! TF.FileFunction,Copper,L2,Bot*
G04 #@! TF.FilePolarity,Positive*
%FSLAX46Y46*%
G04 Gerber Fmt 4.6, Leading zero omitted, Abs format (unit mm)*
G04 Created by KiCad (PCBNEW 8.0.5) date 2024-09-29 21:28:28*
%MOMM*%
%LPD*%
G01*
G04 APERTURE LIST*
G04 Aperture macros list*
%AMRoundRect*
0 Rectangle with rounded corners*
0 $1 Rounding radius*
0 $2 $3 $4 $5 $6 $7 $8 $9 X,Y pos of 4 corners*
0 Add a 4 corners polygon primitive as box body*
4,1,4,$2,$3,$4,$5,$6,$7,$8,$9,$2,$3,0*
0 Add four circle primitives for the rounded corners*
1,1,$1+$1,$2,$3*
1,1,$1+$1,$4,$5*
1,1,$1+$1,$6,$7*
1,1,$1+$1,$8,$9*
0 Add four rect primitives between the rounded corners*
20,1,$1+$1,$2,$3,$4,$5,0*
20,1,$1+$1,$4,$5,$6,$7,0*
20,1,$1+$1,$6,$7,$8,$9,0*
20,1,$1+$1,$8,$9,$2,$3,0*%
G04 Aperture macros list end*
G04 #@! TA.AperFunction,WasherPad*
%ADD10RoundRect,0.900000X4.596201X-4.596187X-4.596187X4.596201X-4.596201X4.596187X4.596187X-4.596201X0*%
G04 #@! TD*
G04 #@! TA.AperFunction,WasherPad*
%ADD11RoundRect,0.900000X-4.596187X-4.596201X4.596201X4.596187X4.596187X4.596201X-4.596201X-4.596187X0*%
G04 #@! TD*
G04 #@! TA.AperFunction,WasherPad*
%ADD12RoundRect,0.900000X5.480070X5.480085X-5.480085X-5.480070X-5.480070X-5.480085X5.480085X5.480070X0*%
G04 #@! TD*
G04 APERTURE END LIST*
D10*
X191690292Y-76055295D03*
D11*
X191690292Y-66862907D03*
X200882680Y-76055295D03*
D10*
X200882680Y-66862907D03*
D12*
X172258113Y-104679861D03*
D10*
X162181841Y-105563745D03*
X173141997Y-94603589D03*
D12*
X163065725Y-95487473D03*
D10*
X122654573Y-118150246D03*
D11*
X122654573Y-108957858D03*
X131846961Y-118150246D03*
D10*
X131846961Y-108957858D03*
X134441159Y-133304428D03*
D11*
X134441159Y-124112040D03*
X143633547Y-133304428D03*
D10*
X143633547Y-124112040D03*
X149595341Y-118150246D03*
D11*
X149595341Y-108957858D03*
X158787729Y-118150246D03*
D10*
X158787729Y-108957858D03*
X176536110Y-91209477D03*
D11*
X176536110Y-82017089D03*
X185728498Y-91209477D03*
D10*
X185728498Y-82017089D03*
X176536110Y-64268709D03*
D11*
X176536110Y-55076321D03*
X185728498Y-64268709D03*
D10*
X185728498Y-55076321D03*
G04 #@! TA.AperFunction,NonConductor*
G36*
X181168139Y-47755136D02*
G01*
X181180964Y-47756824D01*
X181415148Y-47803404D01*
X181427641Y-47806751D01*
X181653749Y-47883499D01*
X181665700Y-47888450D01*
X181879839Y-47994046D01*
X181891053Y-48000520D01*
X181910343Y-48013408D01*
X182089584Y-48133165D01*
X182099845Y-48141039D01*
X182182259Y-48213308D01*
X182281789Y-48300587D01*
X182286520Y-48305017D01*
X193109591Y-59128089D01*
X193109604Y-59128105D01*
X193181852Y-59200348D01*
X193181866Y-59200358D01*
X193231287Y-59249774D01*
X193447139Y-59415388D01*
X193447141Y-59415389D01*
X193682756Y-59551410D01*
X193682758Y-59551411D01*
X193682760Y-59551412D01*
X193934120Y-59655521D01*
X194196917Y-59725932D01*
X194466656Y-59761441D01*
X194466658Y-59761441D01*
X194738720Y-59761441D01*
X194738722Y-59761441D01*
X195008461Y-59725932D01*
X195271258Y-59655521D01*
X195522618Y-59551412D01*
X195758239Y-59415388D01*
X195974091Y-59249774D01*
X196041289Y-59182582D01*
X196041296Y-59182578D01*
X196050151Y-59173723D01*
X196050157Y-59173719D01*
X196053905Y-59169971D01*
X196070287Y-59153590D01*
X196087634Y-59136244D01*
X196087634Y-59136243D01*
X196101550Y-59122328D01*
X196101556Y-59122318D01*
X196607183Y-58616690D01*
X196611883Y-58612289D01*
X196793852Y-58452721D01*
X196804116Y-58444846D01*
X197002651Y-58312199D01*
X197013852Y-58305732D01*
X197228003Y-58200131D01*
X197239944Y-58195184D01*
X197466061Y-58118432D01*
X197478546Y-58115088D01*
X197712735Y-58068507D01*
X197725557Y-58066820D01*
X197963816Y-58051205D01*
X197976754Y-58051205D01*
X198215010Y-58066820D01*
X198227836Y-58068508D01*
X198462019Y-58115087D01*
X198474512Y-58118434D01*
X198700620Y-58195182D01*
X198712571Y-58200133D01*
X198926710Y-58305729D01*
X198937924Y-58312203D01*
X199136448Y-58444843D01*
X199146721Y-58452725D01*
X199328678Y-58612283D01*
X199333409Y-58616714D01*
X200344285Y-59627570D01*
X210889263Y-70172342D01*
X210965527Y-70248604D01*
X210965538Y-70248617D01*
X210986234Y-70269311D01*
X210990662Y-70274038D01*
X211150233Y-70455972D01*
X211158118Y-70466246D01*
X211223709Y-70564398D01*
X211260248Y-70619078D01*
X211290779Y-70664765D01*
X211297255Y-70675981D01*
X211402864Y-70890117D01*
X211407820Y-70902082D01*
X211484572Y-71128168D01*
X211487924Y-71140678D01*
X211534506Y-71374844D01*
X211536197Y-71387684D01*
X211551812Y-71625936D01*
X211551812Y-71638887D01*
X211536193Y-71877140D01*
X211534502Y-71889981D01*
X211487917Y-72124146D01*
X211484565Y-72136655D01*
X211407808Y-72362747D01*
X211402851Y-72374712D01*
X211297241Y-72588840D01*
X211290765Y-72600056D01*
X211158102Y-72798573D01*
X211150217Y-72808847D01*
X210990355Y-72991107D01*
X210985927Y-72995834D01*
X210963037Y-73018720D01*
X210963021Y-73018740D01*
X140573969Y-143407792D01*
X140569237Y-143412223D01*
X140387281Y-143571779D01*
X140377007Y-143579662D01*
X140178482Y-143712301D01*
X140167268Y-143718775D01*
X139953128Y-143824369D01*
X139941165Y-143829324D01*
X139715078Y-143906065D01*
X139702569Y-143909416D01*
X139468401Y-143955991D01*
X139455563Y-143957681D01*
X139217317Y-143973295D01*
X139204369Y-143973295D01*
X138966125Y-143957681D01*
X138953286Y-143955991D01*
X138719115Y-143909414D01*
X138706608Y-143906063D01*
X138480522Y-143829323D01*
X138468558Y-143824368D01*
X138254418Y-143718774D01*
X138243204Y-143712300D01*
X138094657Y-143613053D01*
X138044678Y-143579660D01*
X138034406Y-143571779D01*
X137983892Y-143527484D01*
X137852442Y-143412216D01*
X137847710Y-143407785D01*
X126224040Y-131784115D01*
X126224037Y-131784110D01*
X126195057Y-131755131D01*
X126190629Y-131750404D01*
X126031057Y-131568461D01*
X126023173Y-131558187D01*
X125890515Y-131359665D01*
X125884040Y-131348450D01*
X125866047Y-131311967D01*
X125778434Y-131134316D01*
X125773478Y-131122352D01*
X125696724Y-130896260D01*
X125693372Y-130883751D01*
X125646787Y-130649569D01*
X125645099Y-130636756D01*
X125629480Y-130398482D01*
X125629480Y-130385544D01*
X125645096Y-130147279D01*
X125646783Y-130134459D01*
X125693367Y-129900267D01*
X125696718Y-129887763D01*
X125752505Y-129723424D01*
X125773469Y-129661666D01*
X125778418Y-129649718D01*
X125884031Y-129435562D01*
X125890496Y-129424365D01*
X126023170Y-129225814D01*
X126031025Y-129215577D01*
X126190340Y-129033922D01*
X126194738Y-129029227D01*
X126210118Y-129013849D01*
X126210118Y-129013848D01*
X126224036Y-128999931D01*
X126224040Y-128999925D01*
X126621122Y-128602843D01*
X128741265Y-128602843D01*
X128741265Y-128813625D01*
X128762615Y-128924398D01*
X128781156Y-129020597D01*
X128781158Y-129020601D01*
X128859491Y-129216270D01*
X128859499Y-129216285D01*
X128872451Y-129236438D01*
X128973452Y-129393599D01*
X129004943Y-129429080D01*
X138197331Y-138621468D01*
X138197330Y-138621468D01*
X138316499Y-138740636D01*
X138316507Y-138740644D01*
X138351988Y-138772135D01*
X138446618Y-138832950D01*
X138529301Y-138886087D01*
X138529316Y-138886095D01*
X138641126Y-138930856D01*
X138724991Y-138964431D01*
X138931962Y-139004322D01*
X138931965Y-139004322D01*
X139142741Y-139004322D01*
X139142744Y-139004322D01*
X139349715Y-138964431D01*
X139489722Y-138908380D01*
X139545389Y-138886095D01*
X139545391Y-138886093D01*
X139545398Y-138886091D01*
X139722718Y-138772135D01*
X139758199Y-138740644D01*
X149069763Y-129429080D01*
X149101254Y-129393599D01*
X149215210Y-129216279D01*
X149215497Y-129215564D01*
X149237499Y-129160603D01*
X149293550Y-129020596D01*
X149333441Y-128813625D01*
X149333441Y-128602843D01*
X149293550Y-128395872D01*
X149259975Y-128312007D01*
X149215214Y-128200197D01*
X149215206Y-128200182D01*
X149162069Y-128117499D01*
X149101254Y-128022869D01*
X149069763Y-127987388D01*
X149026709Y-127944334D01*
X148950587Y-127868211D01*
X148950587Y-127868212D01*
X139758199Y-118675824D01*
X139722718Y-118644333D01*
X139687343Y-118621599D01*
X139545404Y-118530380D01*
X139545389Y-118530372D01*
X139349720Y-118452039D01*
X139349716Y-118452037D01*
X139297972Y-118442064D01*
X139142744Y-118412146D01*
X138931962Y-118412146D01*
X138807779Y-118436080D01*
X138724989Y-118452037D01*
X138724985Y-118452039D01*
X138529316Y-118530372D01*
X138529301Y-118530380D01*
X138351992Y-118644330D01*
X138351990Y-118644331D01*
X138351988Y-118644333D01*
X138322529Y-118670478D01*
X138316508Y-118675823D01*
X129124119Y-127868212D01*
X129124118Y-127868211D01*
X129004950Y-127987380D01*
X129004943Y-127987388D01*
X128973452Y-128022869D01*
X128973450Y-128022871D01*
X128973449Y-128022873D01*
X128859499Y-128200182D01*
X128859491Y-128200197D01*
X128781158Y-128395866D01*
X128781156Y-128395870D01*
X128781156Y-128395872D01*
X128741265Y-128602843D01*
X126621122Y-128602843D01*
X126700674Y-128523291D01*
X126700680Y-128523287D01*
X126731939Y-128492027D01*
X126731938Y-128492027D01*
X126731944Y-128492022D01*
X126742561Y-128481405D01*
X126742562Y-128481401D01*
X126749509Y-128474455D01*
X126749729Y-128474183D01*
X126828105Y-128395805D01*
X126993720Y-128179956D01*
X127129746Y-127944338D01*
X127233857Y-127692982D01*
X127304270Y-127430187D01*
X127339782Y-127160450D01*
X127339784Y-126888386D01*
X127304277Y-126618648D01*
X127233868Y-126355852D01*
X127129762Y-126104494D01*
X126993740Y-125868874D01*
X126993736Y-125868869D01*
X126993734Y-125868865D01*
X126828132Y-125653025D01*
X126828127Y-125653019D01*
X126750712Y-125575598D01*
X126750702Y-125575585D01*
X126731945Y-125556827D01*
X126731945Y-125556828D01*
X126714599Y-125539481D01*
X126714597Y-125539480D01*
X115883381Y-114708265D01*
X115878954Y-114703537D01*
X115719383Y-114521581D01*
X115711512Y-114511324D01*
X115578851Y-114312784D01*
X115572387Y-114301589D01*
X115466777Y-114087434D01*
X115461828Y-114075487D01*
X115385077Y-113849385D01*
X115381730Y-113836896D01*
X115335146Y-113602703D01*
X115333457Y-113589869D01*
X115331109Y-113554052D01*
X115324202Y-113448661D01*
X116954679Y-113448661D01*
X116954679Y-113659443D01*
X116972312Y-113750928D01*
X116994570Y-113866415D01*
X116994572Y-113866419D01*
X117072905Y-114062088D01*
X117072913Y-114062103D01*
X117164132Y-114204042D01*
X117186866Y-114239417D01*
X117218357Y-114274898D01*
X126410745Y-123467286D01*
X126410744Y-123467286D01*
X126529913Y-123586454D01*
X126529921Y-123586462D01*
X126565402Y-123617953D01*
X126660032Y-123678768D01*
X126742715Y-123731905D01*
X126742730Y-123731913D01*
X126854540Y-123776674D01*
X126938405Y-123810249D01*
X127145376Y-123850140D01*
X127145379Y-123850140D01*
X127356155Y-123850140D01*
X127356158Y-123850140D01*
X127563129Y-123810249D01*
X127703136Y-123754198D01*
X127758803Y-123731913D01*
X127758805Y-123731911D01*
X127758812Y-123731909D01*
X127936132Y-123617953D01*
X127971613Y-123586462D01*
X137283177Y-114274898D01*
X137314668Y-114239417D01*
X137428624Y-114062097D01*
X137506964Y-113866414D01*
X137546855Y-113659443D01*
X137546855Y-113448661D01*
X143895447Y-113448661D01*
X143895447Y-113659443D01*
X143913080Y-113750928D01*
X143935338Y-113866415D01*
X143935340Y-113866419D01*
X144013673Y-114062088D01*
X144013681Y-114062103D01*
X144104900Y-114204042D01*
X144127634Y-114239417D01*
X144159125Y-114274898D01*
X153351513Y-123467286D01*
X153351512Y-123467286D01*
X153470681Y-123586454D01*
X153470689Y-123586462D01*
X153506170Y-123617953D01*
X153600800Y-123678768D01*
X153683483Y-123731905D01*
X153683498Y-123731913D01*
X153795308Y-123776674D01*
X153879173Y-123810249D01*
X154086144Y-123850140D01*
X154086147Y-123850140D01*
X154296923Y-123850140D01*
X154296926Y-123850140D01*
X154503897Y-123810249D01*
X154643904Y-123754198D01*
X154699571Y-123731913D01*
X154699573Y-123731911D01*
X154699580Y-123731909D01*
X154876900Y-123617953D01*
X154912381Y-123586462D01*
X164223945Y-114274898D01*
X164255436Y-114239417D01*
X164369392Y-114062097D01*
X164447732Y-113866414D01*
X164487623Y-113659443D01*
X164487623Y-113448661D01*
X164447732Y-113241690D01*
X164414157Y-113157825D01*
X164369396Y-113046015D01*
X164369388Y-113046000D01*
X164300861Y-112939370D01*
X164255436Y-112868687D01*
X164223945Y-112833206D01*
X164169538Y-112778799D01*
X164104769Y-112714029D01*
X164104769Y-112714030D01*
X154912381Y-103521642D01*
X154876900Y-103490151D01*
X154841525Y-103467417D01*
X154699586Y-103376198D01*
X154699571Y-103376190D01*
X154503902Y-103297857D01*
X154503898Y-103297855D01*
X154452154Y-103287882D01*
X154296926Y-103257964D01*
X154086144Y-103257964D01*
X153961961Y-103281898D01*
X153879171Y-103297855D01*
X153879167Y-103297857D01*
X153683498Y-103376190D01*
X153683483Y-103376198D01*
X153506174Y-103490148D01*
X153506172Y-103490149D01*
X153506170Y-103490151D01*
X153476711Y-103516296D01*
X153470690Y-103521641D01*
X144278301Y-112714030D01*
X144278300Y-112714029D01*
X144159132Y-112833198D01*
X144159125Y-112833206D01*
X144127634Y-112868687D01*
X144127632Y-112868689D01*
X144127631Y-112868691D01*
X144013681Y-113046000D01*
X144013673Y-113046015D01*
X143935340Y-113241684D01*
X143935338Y-113241688D01*
X143935338Y-113241690D01*
X143895447Y-113448661D01*
X137546855Y-113448661D01*
X137506964Y-113241690D01*
X137473389Y-113157825D01*
X137428628Y-113046015D01*
X137428620Y-113046000D01*
X137360093Y-112939370D01*
X137314668Y-112868687D01*
X137283177Y-112833206D01*
X137228770Y-112778799D01*
X137164001Y-112714029D01*
X137164001Y-112714030D01*
X127971613Y-103521642D01*
X127936132Y-103490151D01*
X127900757Y-103467417D01*
X127758818Y-103376198D01*
X127758803Y-103376190D01*
X127563134Y-103297857D01*
X127563130Y-103297855D01*
X127511386Y-103287882D01*
X127356158Y-103257964D01*
X127145376Y-103257964D01*
X127021193Y-103281898D01*
X126938403Y-103297855D01*
X126938399Y-103297857D01*
X126742730Y-103376190D01*
X126742715Y-103376198D01*
X126565406Y-103490148D01*
X126565404Y-103490149D01*
X126565402Y-103490151D01*
X126535943Y-103516296D01*
X126529922Y-103521641D01*
X117337533Y-112714030D01*
X117337532Y-112714029D01*
X117218364Y-112833198D01*
X117218357Y-112833206D01*
X117186866Y-112868687D01*
X117186864Y-112868689D01*
X117186863Y-112868691D01*
X117072913Y-113046000D01*
X117072905Y-113046015D01*
X116994572Y-113241684D01*
X116994570Y-113241688D01*
X116994570Y-113241690D01*
X116954679Y-113448661D01*
X115324202Y-113448661D01*
X115317842Y-113351618D01*
X115317842Y-113338674D01*
X115333458Y-113100422D01*
X115335148Y-113087590D01*
X115343418Y-113046015D01*
X115381730Y-112853406D01*
X115385077Y-112840914D01*
X115461832Y-112614802D01*
X115466777Y-112602867D01*
X115572392Y-112388701D01*
X115578848Y-112377519D01*
X115711518Y-112178965D01*
X115719372Y-112168730D01*
X115878993Y-111986718D01*
X115883387Y-111982026D01*
X125485203Y-102380211D01*
X125485209Y-102380207D01*
X125514181Y-102351234D01*
X125518898Y-102346815D01*
X125700858Y-102187230D01*
X125711120Y-102179355D01*
X125909665Y-102046684D01*
X125920845Y-102040228D01*
X126135010Y-101934608D01*
X126146950Y-101929662D01*
X126373052Y-101852906D01*
X126385561Y-101849555D01*
X126619742Y-101802971D01*
X126632571Y-101801282D01*
X126870829Y-101785666D01*
X126883767Y-101785666D01*
X127122020Y-101801282D01*
X127134854Y-101802971D01*
X127369035Y-101849555D01*
X127381543Y-101852906D01*
X127607635Y-101929658D01*
X127619592Y-101934611D01*
X127833740Y-102040223D01*
X127844940Y-102046689D01*
X128043465Y-102179347D01*
X128053737Y-102187229D01*
X128104274Y-102231552D01*
X128235682Y-102346802D01*
X128240409Y-102351230D01*
X128269378Y-102380200D01*
X128269392Y-102380212D01*
X138650631Y-112761451D01*
X138650632Y-112761453D01*
X138667979Y-112778799D01*
X138678597Y-112789417D01*
X138678598Y-112789418D01*
X138678597Y-112789418D01*
X138764168Y-112874983D01*
X138764172Y-112874987D01*
X138980023Y-113040610D01*
X139124212Y-113123854D01*
X139215642Y-113176640D01*
X139294044Y-113209114D01*
X139466989Y-113280749D01*
X139466994Y-113280750D01*
X139467003Y-113280754D01*
X139729802Y-113351169D01*
X139999543Y-113386680D01*
X139999544Y-113386680D01*
X140271612Y-113386680D01*
X140271613Y-113386680D01*
X140541354Y-113351169D01*
X140804153Y-113280754D01*
X140804163Y-113280749D01*
X140804166Y-113280749D01*
X140873984Y-113251829D01*
X141055514Y-113176640D01*
X141291134Y-113040609D01*
X141506984Y-112874987D01*
X141578634Y-112803339D01*
X141578638Y-112803337D01*
X141603177Y-112778800D01*
X141634442Y-112747535D01*
X141634446Y-112747528D01*
X153519814Y-100862160D01*
X156481947Y-100862160D01*
X156481947Y-101072942D01*
X156511865Y-101228170D01*
X156521838Y-101279914D01*
X156521840Y-101279918D01*
X156600173Y-101475587D01*
X156600181Y-101475602D01*
X156691400Y-101617541D01*
X156714134Y-101652916D01*
X156745625Y-101688397D01*
X166057189Y-110999961D01*
X166092670Y-111031452D01*
X166187300Y-111092267D01*
X166269983Y-111145404D01*
X166269998Y-111145412D01*
X166381808Y-111190173D01*
X166465673Y-111223748D01*
X166672644Y-111263639D01*
X166672647Y-111263639D01*
X166883423Y-111263639D01*
X166883426Y-111263639D01*
X167090397Y-111223748D01*
X167230404Y-111167697D01*
X167286071Y-111145412D01*
X167286073Y-111145410D01*
X167286080Y-111145408D01*
X167463400Y-111031452D01*
X167498881Y-110999961D01*
X167618057Y-110880785D01*
X167618057Y-110880784D01*
X167620206Y-110878636D01*
X167620234Y-110878605D01*
X178456857Y-100041982D01*
X178456888Y-100041954D01*
X178459037Y-100039805D01*
X178578213Y-99920629D01*
X178609704Y-99885148D01*
X178723660Y-99707828D01*
X178802000Y-99512145D01*
X178841891Y-99305174D01*
X178841891Y-99094392D01*
X178802000Y-98887421D01*
X178768425Y-98803556D01*
X178723664Y-98691746D01*
X178723656Y-98691731D01*
X178670519Y-98609048D01*
X178609704Y-98514418D01*
X178578213Y-98478937D01*
X169266649Y-89167373D01*
X169231168Y-89135882D01*
X169195793Y-89113148D01*
X169053854Y-89021929D01*
X169053839Y-89021921D01*
X168858170Y-88943588D01*
X168858166Y-88943586D01*
X168806422Y-88933613D01*
X168651194Y-88903695D01*
X168440412Y-88903695D01*
X168316229Y-88927629D01*
X168233439Y-88943586D01*
X168233435Y-88943588D01*
X168037766Y-89021921D01*
X168037751Y-89021929D01*
X167860442Y-89135879D01*
X167860440Y-89135880D01*
X167860438Y-89135882D01*
X167830424Y-89162520D01*
X167824949Y-89167380D01*
X167705780Y-89286548D01*
X167705781Y-89286549D01*
X167705773Y-89286557D01*
X156864809Y-100127521D01*
X156864801Y-100127529D01*
X156864800Y-100127528D01*
X156745632Y-100246697D01*
X156745625Y-100246705D01*
X156714134Y-100282186D01*
X156714132Y-100282188D01*
X156714131Y-100282190D01*
X156600181Y-100459499D01*
X156600173Y-100459514D01*
X156521840Y-100655183D01*
X156521838Y-100655187D01*
X156521838Y-100655189D01*
X156481947Y-100862160D01*
X153519814Y-100862160D01*
X167874081Y-86507892D01*
X170836216Y-86507892D01*
X170836216Y-86718674D01*
X170866134Y-86873902D01*
X170876107Y-86925646D01*
X170876109Y-86925650D01*
X170954442Y-87121319D01*
X170954450Y-87121334D01*
X171045669Y-87263273D01*
X171068403Y-87298648D01*
X171099894Y-87334129D01*
X180292282Y-96526517D01*
X180292281Y-96526517D01*
X180411450Y-96645685D01*
X180411458Y-96645693D01*
X180446939Y-96677184D01*
X180541569Y-96737999D01*
X180624252Y-96791136D01*
X180624267Y-96791144D01*
X180736077Y-96835905D01*
X180819942Y-96869480D01*
X181026913Y-96909371D01*
X181026916Y-96909371D01*
X181237692Y-96909371D01*
X181237695Y-96909371D01*
X181444666Y-96869480D01*
X181584673Y-96813429D01*
X181640340Y-96791144D01*
X181640342Y-96791142D01*
X181640349Y-96791140D01*
X181817669Y-96677184D01*
X181853150Y-96645693D01*
X191164714Y-87334129D01*
X191196205Y-87298648D01*
X191310161Y-87121328D01*
X191388501Y-86925645D01*
X191428392Y-86718674D01*
X191428392Y-86507892D01*
X191388501Y-86300921D01*
X191354926Y-86217056D01*
X191310165Y-86105246D01*
X191310157Y-86105231D01*
X191257020Y-86022548D01*
X191196205Y-85927918D01*
X191164714Y-85892437D01*
X191164706Y-85892429D01*
X191045538Y-85773260D01*
X191045538Y-85773261D01*
X181853150Y-76580873D01*
X181817669Y-76549382D01*
X181782294Y-76526648D01*
X181640355Y-76435429D01*
X181640340Y-76435421D01*
X181444671Y-76357088D01*
X181444667Y-76357086D01*
X181392923Y-76347113D01*
X181237695Y-76317195D01*
X181026913Y-76317195D01*
X180902730Y-76341129D01*
X180819940Y-76357086D01*
X180819936Y-76357088D01*
X180624267Y-76435421D01*
X180624252Y-76435429D01*
X180446943Y-76549379D01*
X180446941Y-76549380D01*
X180446939Y-76549382D01*
X180417480Y-76575527D01*
X180411459Y-76580872D01*
X171219070Y-85773261D01*
X171219069Y-85773260D01*
X171099901Y-85892429D01*
X171099894Y-85892437D01*
X171068403Y-85927918D01*
X171068401Y-85927920D01*
X171068400Y-85927922D01*
X170954450Y-86105231D01*
X170954442Y-86105246D01*
X170876109Y-86300915D01*
X170876107Y-86300919D01*
X170876107Y-86300921D01*
X170836216Y-86507892D01*
X167874081Y-86507892D01*
X180274912Y-74107061D01*
X180274989Y-74107022D01*
X180321712Y-74060299D01*
X180321712Y-74060300D01*
X180417904Y-73964107D01*
X180583530Y-73748256D01*
X180719565Y-73512634D01*
X180823681Y-73261271D01*
X180894098Y-72998468D01*
X180929609Y-72728723D01*
X180929607Y-72456650D01*
X180894092Y-72186905D01*
X180823673Y-71924104D01*
X180719553Y-71672742D01*
X180583515Y-71437121D01*
X180519510Y-71353710D01*
X185990398Y-71353710D01*
X185990398Y-71564492D01*
X186003489Y-71632413D01*
X186030289Y-71771464D01*
X186030291Y-71771468D01*
X186108624Y-71967137D01*
X186108632Y-71967152D01*
X186190530Y-72094587D01*
X186222585Y-72144466D01*
X186254076Y-72179947D01*
X195446464Y-81372335D01*
X195446463Y-81372335D01*
X195565632Y-81491503D01*
X195565640Y-81491511D01*
X195601121Y-81523002D01*
X195695751Y-81583817D01*
X195778434Y-81636954D01*
X195778449Y-81636962D01*
X195890259Y-81681723D01*
X195974124Y-81715298D01*
X196181095Y-81755189D01*
X196181098Y-81755189D01*
X196391874Y-81755189D01*
X196391877Y-81755189D01*
X196598848Y-81715298D01*
X196738855Y-81659247D01*
X196794522Y-81636962D01*
X196794524Y-81636960D01*
X196794531Y-81636958D01*
X196971851Y-81523002D01*
X197007332Y-81491511D01*
X206318896Y-72179947D01*
X206350387Y-72144466D01*
X206464343Y-71967146D01*
X206481575Y-71924104D01*
X206500376Y-71877140D01*
X206542683Y-71771463D01*
X206582574Y-71564492D01*
X206582574Y-71353710D01*
X206542683Y-71146739D01*
X206509108Y-71062874D01*
X206464347Y-70951064D01*
X206464339Y-70951049D01*
X206411202Y-70868366D01*
X206350387Y-70773736D01*
X206318896Y-70738255D01*
X206293105Y-70712464D01*
X206199720Y-70619078D01*
X206199720Y-70619079D01*
X197007332Y-61426691D01*
X196971851Y-61395200D01*
X196936476Y-61372466D01*
X196794537Y-61281247D01*
X196794522Y-61281239D01*
X196598853Y-61202906D01*
X196598849Y-61202904D01*
X196547105Y-61192931D01*
X196391877Y-61163013D01*
X196181095Y-61163013D01*
X196056912Y-61186947D01*
X195974122Y-61202904D01*
X195974118Y-61202906D01*
X195778449Y-61281239D01*
X195778434Y-61281247D01*
X195601125Y-61395197D01*
X195601123Y-61395198D01*
X195601121Y-61395200D01*
X195571662Y-61421345D01*
X195565641Y-61426690D01*
X186373252Y-70619079D01*
X186373251Y-70619078D01*
X186254083Y-70738247D01*
X186254076Y-70738255D01*
X186222585Y-70773736D01*
X186222583Y-70773738D01*
X186222582Y-70773740D01*
X186108632Y-70951049D01*
X186108624Y-70951064D01*
X186030291Y-71146733D01*
X186030289Y-71146737D01*
X186014891Y-71226629D01*
X185990398Y-71353710D01*
X180519510Y-71353710D01*
X180417886Y-71221273D01*
X180321693Y-71125081D01*
X180318947Y-71122335D01*
X169894148Y-60697536D01*
X169889717Y-60692804D01*
X169730149Y-60510837D01*
X169722267Y-60500564D01*
X169589629Y-60302043D01*
X169583155Y-60290828D01*
X169477560Y-60076689D01*
X169472606Y-60064732D01*
X169395859Y-59838628D01*
X169392512Y-59826135D01*
X169345933Y-59591952D01*
X169344245Y-59579126D01*
X169343458Y-59567124D01*
X170836216Y-59567124D01*
X170836216Y-59777906D01*
X170847921Y-59838635D01*
X170876107Y-59984878D01*
X170876109Y-59984882D01*
X170954442Y-60180551D01*
X170954450Y-60180566D01*
X171032519Y-60302043D01*
X171068403Y-60357880D01*
X171099894Y-60393361D01*
X180292282Y-69585749D01*
X180292281Y-69585749D01*
X180411450Y-69704917D01*
X180411458Y-69704925D01*
X180446939Y-69736416D01*
X180541569Y-69797231D01*
X180624252Y-69850368D01*
X180624267Y-69850376D01*
X180736077Y-69895137D01*
X180819942Y-69928712D01*
X181026913Y-69968603D01*
X181026916Y-69968603D01*
X181237692Y-69968603D01*
X181237695Y-69968603D01*
X181444666Y-69928712D01*
X181584673Y-69872661D01*
X181640340Y-69850376D01*
X181640342Y-69850374D01*
X181640349Y-69850372D01*
X181817669Y-69736416D01*
X181853150Y-69704925D01*
X191164714Y-60393361D01*
X191196205Y-60357880D01*
X191310161Y-60180560D01*
X191388501Y-59984877D01*
X191428392Y-59777906D01*
X191428392Y-59567124D01*
X191388501Y-59360153D01*
X191344311Y-59249771D01*
X191310165Y-59164478D01*
X191310157Y-59164463D01*
X191230836Y-59041037D01*
X191196205Y-58987150D01*
X191164714Y-58951669D01*
X191141673Y-58928628D01*
X191045538Y-58832492D01*
X191045538Y-58832493D01*
X181853150Y-49640105D01*
X181817669Y-49608614D01*
X181782294Y-49585880D01*
X181640355Y-49494661D01*
X181640340Y-49494653D01*
X181444671Y-49416320D01*
X181444667Y-49416318D01*
X181392923Y-49406345D01*
X181237695Y-49376427D01*
X181026913Y-49376427D01*
X180902730Y-49400361D01*
X180819940Y-49416318D01*
X180819936Y-49416320D01*
X180624267Y-49494653D01*
X180624252Y-49494661D01*
X180446943Y-49608611D01*
X180446941Y-49608612D01*
X180446939Y-49608614D01*
X180417480Y-49634759D01*
X180411459Y-49640104D01*
X171219070Y-58832493D01*
X171219069Y-58832492D01*
X171099901Y-58951661D01*
X171099894Y-58951669D01*
X171068403Y-58987150D01*
X171068401Y-58987152D01*
X171068400Y-58987154D01*
X170954450Y-59164463D01*
X170954442Y-59164478D01*
X170876109Y-59360147D01*
X170876107Y-59360151D01*
X170876107Y-59360153D01*
X170836216Y-59567124D01*
X169343458Y-59567124D01*
X169328630Y-59340870D01*
X169328630Y-59327927D01*
X169333752Y-59249774D01*
X169344245Y-59089673D01*
X169345932Y-59076851D01*
X169392512Y-58842665D01*
X169395862Y-58830164D01*
X169451642Y-58665830D01*
X169472606Y-58604066D01*
X169477558Y-58592114D01*
X169583154Y-58377973D01*
X169589624Y-58366764D01*
X169722269Y-58168232D01*
X169730148Y-58157964D01*
X169764810Y-58118436D01*
X169889697Y-57976015D01*
X169894100Y-57971314D01*
X179560298Y-48305025D01*
X179564998Y-48300623D01*
X179746989Y-48141033D01*
X179757235Y-48133171D01*
X179955779Y-48000517D01*
X179966980Y-47994050D01*
X180181131Y-47888449D01*
X180193072Y-47883502D01*
X180419189Y-47806749D01*
X180431674Y-47803405D01*
X180665864Y-47756823D01*
X180678685Y-47755136D01*
X180916945Y-47739521D01*
X180929883Y-47739521D01*
X181168139Y-47755136D01*
G37*
G04 #@! TD.AperFunction*
G04 #@! TA.AperFunction,NonConductor*
G36*
X181177249Y-52092793D02*
G01*
X181202308Y-52110999D01*
X188693820Y-59602511D01*
X188721597Y-59657028D01*
X188712026Y-59717460D01*
X188693820Y-59742519D01*
X181202308Y-67234031D01*
X181147791Y-67261808D01*
X181087359Y-67252237D01*
X181062300Y-67234031D01*
X173570788Y-59742519D01*
X173543011Y-59688002D01*
X173552582Y-59627570D01*
X173570788Y-59602511D01*
X181062300Y-52110999D01*
X181116817Y-52083222D01*
X181177249Y-52092793D01*
G37*
G04 #@! TD.AperFunction*
G04 #@! TA.AperFunction,NonConductor*
G36*
X196331431Y-63879379D02*
G01*
X196356490Y-63897585D01*
X203848002Y-71389097D01*
X203875779Y-71443614D01*
X203866208Y-71504046D01*
X203848002Y-71529105D01*
X196356490Y-79020617D01*
X196301973Y-79048394D01*
X196241541Y-79038823D01*
X196216482Y-79020617D01*
X188724970Y-71529105D01*
X188697193Y-71474588D01*
X188706764Y-71414156D01*
X188724970Y-71389097D01*
X196216482Y-63897585D01*
X196270999Y-63869808D01*
X196331431Y-63879379D01*
G37*
G04 #@! TD.AperFunction*
G04 #@! TA.AperFunction,NonConductor*
G36*
X181177249Y-79033561D02*
G01*
X181202308Y-79051767D01*
X188693820Y-86543279D01*
X188721597Y-86597796D01*
X188712026Y-86658228D01*
X188693820Y-86683287D01*
X181202308Y-94174799D01*
X181147791Y-94202576D01*
X181087359Y-94193005D01*
X181062300Y-94174799D01*
X173570788Y-86683287D01*
X173543011Y-86628770D01*
X173552582Y-86568338D01*
X173570788Y-86543279D01*
X181062300Y-79051767D01*
X181116817Y-79023990D01*
X181177249Y-79033561D01*
G37*
G04 #@! TD.AperFunction*
G04 #@! TA.AperFunction,NonConductor*
G36*
X168590747Y-91620060D02*
G01*
X168615806Y-91638266D01*
X176107319Y-99129779D01*
X176135096Y-99184296D01*
X176125525Y-99244728D01*
X176107319Y-99269787D01*
X166848039Y-108529067D01*
X166793522Y-108556844D01*
X166733090Y-108547273D01*
X166708031Y-108529067D01*
X159216518Y-101037554D01*
X159188741Y-100983037D01*
X159198312Y-100922605D01*
X159216518Y-100897546D01*
X168475798Y-91638266D01*
X168530315Y-91610489D01*
X168590747Y-91620060D01*
G37*
G04 #@! TD.AperFunction*
G04 #@! TA.AperFunction,NonConductor*
G36*
X154236480Y-105974330D02*
G01*
X154261539Y-105992536D01*
X161753051Y-113484048D01*
X161780828Y-113538565D01*
X161771257Y-113598997D01*
X161753051Y-113624056D01*
X154261539Y-121115568D01*
X154207022Y-121143345D01*
X154146590Y-121133774D01*
X154121531Y-121115568D01*
X146630019Y-113624056D01*
X146602242Y-113569539D01*
X146611813Y-113509107D01*
X146630019Y-113484048D01*
X154121531Y-105992536D01*
X154176048Y-105964759D01*
X154236480Y-105974330D01*
G37*
G04 #@! TD.AperFunction*
G04 #@! TA.AperFunction,NonConductor*
G36*
X127295712Y-105974330D02*
G01*
X127320771Y-105992536D01*
X134812283Y-113484048D01*
X134840060Y-113538565D01*
X134830489Y-113598997D01*
X134812283Y-113624056D01*
X127320771Y-121115568D01*
X127266254Y-121143345D01*
X127205822Y-121133774D01*
X127180763Y-121115568D01*
X119689251Y-113624056D01*
X119661474Y-113569539D01*
X119671045Y-113509107D01*
X119689251Y-113484048D01*
X127180763Y-105992536D01*
X127235280Y-105964759D01*
X127295712Y-105974330D01*
G37*
G04 #@! TD.AperFunction*
G04 #@! TA.AperFunction,NonConductor*
G36*
X139082298Y-121128512D02*
G01*
X139107357Y-121146718D01*
X146598869Y-128638230D01*
X146626646Y-128692747D01*
X146617075Y-128753179D01*
X146598869Y-128778238D01*
X139107357Y-136269750D01*
X139052840Y-136297527D01*
X138992408Y-136287956D01*
X138967349Y-136269750D01*
X131475837Y-128778238D01*
X131448060Y-128723721D01*
X131457631Y-128663289D01*
X131475837Y-128638230D01*
X138967349Y-121146718D01*
X139021866Y-121118941D01*
X139082298Y-121128512D01*
G37*
G04 #@! TD.AperFunction*
M02*
