G04 #@! TF.GenerationSoftware,KiCad,Pcbnew,8.0.5*
G04 #@! TF.CreationDate,2024-09-29T21:28:28+09:00*
G04 #@! TF.ProjectId,SandyLP_Plate_Base_Center,53616e64-794c-4505-9f50-6c6174655f42,v.0*
G04 #@! TF.SameCoordinates,Original*
G04 #@! TF.FileFunction,Legend,Bot*
G04 #@! TF.FilePolarity,Positive*
%FSLAX46Y46*%
G04 Gerber Fmt 4.6, Leading zero omitted, Abs format (unit mm)*
G04 Created by KiCad (PCBNEW 8.0.5) date 2024-09-29 21:28:28*
%MOMM*%
%LPD*%
G01*
G04 APERTURE LIST*
G04 Aperture macros list*
%AMRoundRect*
0 Rectangle with rounded corners*
0 $1 Rounding radius*
0 $2 $3 $4 $5 $6 $7 $8 $9 X,Y pos of 4 corners*
0 Add a 4 corners polygon primitive as box body*
4,1,4,$2,$3,$4,$5,$6,$7,$8,$9,$2,$3,0*
0 Add four circle primitives for the rounded corners*
1,1,$1+$1,$2,$3*
1,1,$1+$1,$4,$5*
1,1,$1+$1,$6,$7*
1,1,$1+$1,$8,$9*
0 Add four rect primitives between the rounded corners*
20,1,$1+$1,$2,$3,$4,$5,0*
20,1,$1+$1,$4,$5,$6,$7,0*
20,1,$1+$1,$6,$7,$8,$9,0*
20,1,$1+$1,$8,$9,$2,$3,0*%
G04 Aperture macros list end*
%ADD10C,0.150000*%
%ADD11RoundRect,0.900000X4.596201X-4.596187X-4.596187X4.596201X-4.596201X4.596187X4.596187X-4.596201X0*%
%ADD12RoundRect,0.900000X-4.596187X-4.596201X4.596201X4.596187X4.596187X4.596201X-4.596201X-4.596187X0*%
%ADD13RoundRect,0.900000X5.480070X5.480085X-5.480085X-5.480070X-5.480070X-5.480085X5.480085X5.480070X0*%
G04 APERTURE END LIST*
D10*
X177470491Y-79146377D02*
X176763385Y-78439270D01*
X176763385Y-78439270D02*
X176595026Y-78607629D01*
X176595026Y-78607629D02*
X176527682Y-78742316D01*
X176527682Y-78742316D02*
X176527682Y-78877003D01*
X176527682Y-78877003D02*
X176561354Y-78978018D01*
X176561354Y-78978018D02*
X176662369Y-79146377D01*
X176662369Y-79146377D02*
X176763385Y-79247392D01*
X176763385Y-79247392D02*
X176931743Y-79348408D01*
X176931743Y-79348408D02*
X177032759Y-79382079D01*
X177032759Y-79382079D02*
X177167446Y-79382079D01*
X177167446Y-79382079D02*
X177302133Y-79314736D01*
X177302133Y-79314736D02*
X177470491Y-79146377D01*
X176763385Y-79853484D02*
X176056278Y-79146377D01*
X176056278Y-79146377D02*
X176359324Y-80257545D01*
X176359324Y-80257545D02*
X175652217Y-79550438D01*
X175180812Y-80021843D02*
X175113469Y-80089186D01*
X175113469Y-80089186D02*
X175079797Y-80190201D01*
X175079797Y-80190201D02*
X175079797Y-80257545D01*
X175079797Y-80257545D02*
X175113469Y-80358560D01*
X175113469Y-80358560D02*
X175214484Y-80526919D01*
X175214484Y-80526919D02*
X175382843Y-80695278D01*
X175382843Y-80695278D02*
X175551202Y-80796293D01*
X175551202Y-80796293D02*
X175652217Y-80829965D01*
X175652217Y-80829965D02*
X175719560Y-80829965D01*
X175719560Y-80829965D02*
X175820576Y-80796293D01*
X175820576Y-80796293D02*
X175887919Y-80728949D01*
X175887919Y-80728949D02*
X175921591Y-80627934D01*
X175921591Y-80627934D02*
X175921591Y-80560591D01*
X175921591Y-80560591D02*
X175887919Y-80459575D01*
X175887919Y-80459575D02*
X175786904Y-80291217D01*
X175786904Y-80291217D02*
X175618545Y-80122858D01*
X175618545Y-80122858D02*
X175450186Y-80021843D01*
X175450186Y-80021843D02*
X175349171Y-79988171D01*
X175349171Y-79988171D02*
X175281828Y-79988171D01*
X175281828Y-79988171D02*
X175180812Y-80021843D01*
X174507377Y-80695278D02*
X174440034Y-80762621D01*
X174440034Y-80762621D02*
X174406362Y-80863636D01*
X174406362Y-80863636D02*
X174406362Y-80930980D01*
X174406362Y-80930980D02*
X174440034Y-81031995D01*
X174440034Y-81031995D02*
X174541049Y-81200354D01*
X174541049Y-81200354D02*
X174709408Y-81368713D01*
X174709408Y-81368713D02*
X174877766Y-81469728D01*
X174877766Y-81469728D02*
X174978782Y-81503400D01*
X174978782Y-81503400D02*
X175046125Y-81503400D01*
X175046125Y-81503400D02*
X175147140Y-81469728D01*
X175147140Y-81469728D02*
X175214484Y-81402384D01*
X175214484Y-81402384D02*
X175248156Y-81301369D01*
X175248156Y-81301369D02*
X175248156Y-81234026D01*
X175248156Y-81234026D02*
X175214484Y-81133010D01*
X175214484Y-81133010D02*
X175113469Y-80964652D01*
X175113469Y-80964652D02*
X174945110Y-80796293D01*
X174945110Y-80796293D02*
X174776751Y-80695278D01*
X174776751Y-80695278D02*
X174675736Y-80661606D01*
X174675736Y-80661606D02*
X174608392Y-80661606D01*
X174608392Y-80661606D02*
X174507377Y-80695278D01*
X174305347Y-82311522D02*
X174709408Y-81907461D01*
X174507377Y-82109491D02*
X173800270Y-81402384D01*
X173800270Y-81402384D02*
X173968629Y-81436056D01*
X173968629Y-81436056D02*
X174103316Y-81436056D01*
X174103316Y-81436056D02*
X174204331Y-81402384D01*
X173631912Y-82984957D02*
X174035973Y-82580896D01*
X173833942Y-82782926D02*
X173126835Y-82075819D01*
X173126835Y-82075819D02*
X173295194Y-82109491D01*
X173295194Y-82109491D02*
X173429881Y-82109491D01*
X173429881Y-82109491D02*
X173530896Y-82075819D01*
X153795861Y-102821007D02*
X153088754Y-102113900D01*
X153088754Y-102113900D02*
X152819380Y-102383274D01*
X152819380Y-102383274D02*
X152785709Y-102484290D01*
X152785709Y-102484290D02*
X152785709Y-102551633D01*
X152785709Y-102551633D02*
X152819380Y-102652648D01*
X152819380Y-102652648D02*
X152920396Y-102753664D01*
X152920396Y-102753664D02*
X153021411Y-102787335D01*
X153021411Y-102787335D02*
X153088754Y-102787335D01*
X153088754Y-102787335D02*
X153189770Y-102753664D01*
X153189770Y-102753664D02*
X153459144Y-102484290D01*
X152987739Y-103629129D02*
X153021411Y-103528114D01*
X153021411Y-103528114D02*
X152987739Y-103427099D01*
X152987739Y-103427099D02*
X152381648Y-102821007D01*
X152415319Y-104201549D02*
X152044930Y-103831160D01*
X152044930Y-103831160D02*
X152011258Y-103730145D01*
X152011258Y-103730145D02*
X152044930Y-103629130D01*
X152044930Y-103629130D02*
X152179617Y-103494443D01*
X152179617Y-103494443D02*
X152280632Y-103460771D01*
X152381647Y-104167878D02*
X152482663Y-104134206D01*
X152482663Y-104134206D02*
X152651021Y-103965847D01*
X152651021Y-103965847D02*
X152684693Y-103864832D01*
X152684693Y-103864832D02*
X152651021Y-103763817D01*
X152651021Y-103763817D02*
X152583678Y-103696473D01*
X152583678Y-103696473D02*
X152482663Y-103662801D01*
X152482663Y-103662801D02*
X152381647Y-103696473D01*
X152381647Y-103696473D02*
X152213289Y-103864832D01*
X152213289Y-103864832D02*
X152112273Y-103898504D01*
X151708212Y-103965847D02*
X151438838Y-104235221D01*
X151371495Y-103831160D02*
X151977586Y-104437252D01*
X151977586Y-104437252D02*
X152011258Y-104538267D01*
X152011258Y-104538267D02*
X151977586Y-104639282D01*
X151977586Y-104639282D02*
X151910243Y-104706626D01*
X151371494Y-105178030D02*
X151472510Y-105144359D01*
X151472510Y-105144359D02*
X151607197Y-105009672D01*
X151607197Y-105009672D02*
X151640868Y-104908656D01*
X151640868Y-104908656D02*
X151607197Y-104807641D01*
X151607197Y-104807641D02*
X151337823Y-104538267D01*
X151337823Y-104538267D02*
X151236807Y-104504595D01*
X151236807Y-104504595D02*
X151135792Y-104538267D01*
X151135792Y-104538267D02*
X151001105Y-104672954D01*
X151001105Y-104672954D02*
X150967433Y-104773969D01*
X150967433Y-104773969D02*
X151001105Y-104874985D01*
X151001105Y-104874985D02*
X151068449Y-104942328D01*
X151068449Y-104942328D02*
X151472510Y-104672954D01*
X150159311Y-105514748D02*
X149889937Y-105784122D01*
X150529700Y-106087168D02*
X149923609Y-105481076D01*
X149923609Y-105481076D02*
X149822594Y-105447405D01*
X149822594Y-105447405D02*
X149721578Y-105481076D01*
X149721578Y-105481076D02*
X149654235Y-105548420D01*
X150024624Y-106592245D02*
X150058295Y-106491229D01*
X150058295Y-106491229D02*
X150058295Y-106423886D01*
X150058295Y-106423886D02*
X150024624Y-106322871D01*
X150024624Y-106322871D02*
X149822593Y-106120840D01*
X149822593Y-106120840D02*
X149721578Y-106087168D01*
X149721578Y-106087168D02*
X149654234Y-106087168D01*
X149654234Y-106087168D02*
X149553219Y-106120840D01*
X149553219Y-106120840D02*
X149452204Y-106221855D01*
X149452204Y-106221855D02*
X149418532Y-106322871D01*
X149418532Y-106322871D02*
X149418532Y-106390214D01*
X149418532Y-106390214D02*
X149452204Y-106491229D01*
X149452204Y-106491229D02*
X149654234Y-106693260D01*
X149654234Y-106693260D02*
X149755250Y-106726932D01*
X149755250Y-106726932D02*
X149822593Y-106726932D01*
X149822593Y-106726932D02*
X149923608Y-106693260D01*
X149923608Y-106693260D02*
X150024624Y-106592245D01*
X149485876Y-107130993D02*
X149014471Y-106659588D01*
X149149158Y-106794275D02*
X149048143Y-106760603D01*
X149048143Y-106760603D02*
X148980799Y-106760603D01*
X148980799Y-106760603D02*
X148879784Y-106794275D01*
X148879784Y-106794275D02*
X148812441Y-106861619D01*
X147903303Y-107972787D02*
X147835959Y-108107474D01*
X147835959Y-108107474D02*
X147835959Y-108174817D01*
X147835959Y-108174817D02*
X147869631Y-108275833D01*
X147869631Y-108275833D02*
X147970646Y-108376848D01*
X147970646Y-108376848D02*
X148071662Y-108410520D01*
X148071662Y-108410520D02*
X148139005Y-108410520D01*
X148139005Y-108410520D02*
X148240020Y-108376848D01*
X148240020Y-108376848D02*
X148509394Y-108107474D01*
X148509394Y-108107474D02*
X147802288Y-107400367D01*
X147802288Y-107400367D02*
X147566585Y-107636069D01*
X147566585Y-107636069D02*
X147532914Y-107737085D01*
X147532914Y-107737085D02*
X147532914Y-107804428D01*
X147532914Y-107804428D02*
X147566585Y-107905443D01*
X147566585Y-107905443D02*
X147633929Y-107972787D01*
X147633929Y-107972787D02*
X147734944Y-108006459D01*
X147734944Y-108006459D02*
X147802288Y-108006459D01*
X147802288Y-108006459D02*
X147903303Y-107972787D01*
X147903303Y-107972787D02*
X148139005Y-107737085D01*
X147499242Y-109117626D02*
X147128853Y-108747237D01*
X147128853Y-108747237D02*
X147095181Y-108646222D01*
X147095181Y-108646222D02*
X147128853Y-108545207D01*
X147128853Y-108545207D02*
X147263540Y-108410520D01*
X147263540Y-108410520D02*
X147364555Y-108376848D01*
X147465570Y-109083955D02*
X147566585Y-109050283D01*
X147566585Y-109050283D02*
X147734944Y-108881924D01*
X147734944Y-108881924D02*
X147768616Y-108780909D01*
X147768616Y-108780909D02*
X147734944Y-108679894D01*
X147734944Y-108679894D02*
X147667601Y-108612550D01*
X147667601Y-108612550D02*
X147566585Y-108578878D01*
X147566585Y-108578878D02*
X147465570Y-108612550D01*
X147465570Y-108612550D02*
X147297211Y-108780909D01*
X147297211Y-108780909D02*
X147196196Y-108814581D01*
X147162524Y-109387001D02*
X147128853Y-109488016D01*
X147128853Y-109488016D02*
X146994166Y-109622703D01*
X146994166Y-109622703D02*
X146893150Y-109656375D01*
X146893150Y-109656375D02*
X146792135Y-109622703D01*
X146792135Y-109622703D02*
X146758463Y-109589031D01*
X146758463Y-109589031D02*
X146724792Y-109488016D01*
X146724792Y-109488016D02*
X146758463Y-109387001D01*
X146758463Y-109387001D02*
X146859479Y-109285985D01*
X146859479Y-109285985D02*
X146893150Y-109184970D01*
X146893150Y-109184970D02*
X146859479Y-109083955D01*
X146859479Y-109083955D02*
X146825807Y-109050283D01*
X146825807Y-109050283D02*
X146724792Y-109016611D01*
X146724792Y-109016611D02*
X146623776Y-109050283D01*
X146623776Y-109050283D02*
X146522761Y-109151298D01*
X146522761Y-109151298D02*
X146489089Y-109252314D01*
X146287059Y-110262466D02*
X146388074Y-110228794D01*
X146388074Y-110228794D02*
X146522761Y-110094107D01*
X146522761Y-110094107D02*
X146556433Y-109993092D01*
X146556433Y-109993092D02*
X146522761Y-109892077D01*
X146522761Y-109892077D02*
X146253387Y-109622703D01*
X146253387Y-109622703D02*
X146152372Y-109589031D01*
X146152372Y-109589031D02*
X146051356Y-109622703D01*
X146051356Y-109622703D02*
X145916669Y-109757390D01*
X145916669Y-109757390D02*
X145882998Y-109858405D01*
X145882998Y-109858405D02*
X145916669Y-109959420D01*
X145916669Y-109959420D02*
X145984013Y-110026764D01*
X145984013Y-110026764D02*
X146388074Y-109757390D01*
X145714639Y-110363482D02*
X145175891Y-110902230D01*
X144637143Y-111845038D02*
X144704486Y-111845038D01*
X144704486Y-111845038D02*
X144839173Y-111777695D01*
X144839173Y-111777695D02*
X144906517Y-111710351D01*
X144906517Y-111710351D02*
X144973860Y-111575664D01*
X144973860Y-111575664D02*
X144973860Y-111440977D01*
X144973860Y-111440977D02*
X144940189Y-111339962D01*
X144940189Y-111339962D02*
X144839173Y-111171603D01*
X144839173Y-111171603D02*
X144738158Y-111070588D01*
X144738158Y-111070588D02*
X144569799Y-110969573D01*
X144569799Y-110969573D02*
X144468784Y-110935901D01*
X144468784Y-110935901D02*
X144334097Y-110935901D01*
X144334097Y-110935901D02*
X144199410Y-111003245D01*
X144199410Y-111003245D02*
X144132067Y-111070588D01*
X144132067Y-111070588D02*
X144064723Y-111205275D01*
X144064723Y-111205275D02*
X144064723Y-111272619D01*
X144401441Y-112215428D02*
X143694334Y-111508321D01*
X143694334Y-111508321D02*
X143997380Y-112619489D01*
X143997380Y-112619489D02*
X143290273Y-111912382D01*
X143054571Y-112148084D02*
X142650510Y-112552145D01*
X143559647Y-113057221D02*
X142852540Y-112350115D01*
X193870542Y-61803518D02*
X193365465Y-62308594D01*
X193365465Y-61702502D02*
X194476633Y-62409609D01*
X193735855Y-62544296D02*
X194240931Y-62039220D01*
X194240931Y-62645312D02*
X193129763Y-61938205D01*
X193601168Y-62948357D02*
X193533824Y-63083044D01*
X193533824Y-63083044D02*
X193365465Y-63251403D01*
X193365465Y-63251403D02*
X193264450Y-63285075D01*
X193264450Y-63285075D02*
X193197107Y-63285075D01*
X193197107Y-63285075D02*
X193096091Y-63251403D01*
X193096091Y-63251403D02*
X193028748Y-63184060D01*
X193028748Y-63184060D02*
X192995076Y-63083044D01*
X192995076Y-63083044D02*
X192995076Y-63015701D01*
X192995076Y-63015701D02*
X193028748Y-62914686D01*
X193028748Y-62914686D02*
X193129763Y-62746327D01*
X193129763Y-62746327D02*
X193163435Y-62645312D01*
X193163435Y-62645312D02*
X193163435Y-62577968D01*
X193163435Y-62577968D02*
X193129763Y-62476953D01*
X193129763Y-62476953D02*
X193062420Y-62409609D01*
X193062420Y-62409609D02*
X192961404Y-62375938D01*
X192961404Y-62375938D02*
X192894061Y-62375938D01*
X192894061Y-62375938D02*
X192793046Y-62409609D01*
X192793046Y-62409609D02*
X192624687Y-62577968D01*
X192624687Y-62577968D02*
X192557343Y-62712655D01*
X192624687Y-63992182D02*
X192254297Y-63621792D01*
X192254297Y-63621792D02*
X192220626Y-63520777D01*
X192220626Y-63520777D02*
X192254297Y-63419762D01*
X192254297Y-63419762D02*
X192388984Y-63285075D01*
X192388984Y-63285075D02*
X192490000Y-63251403D01*
X192591015Y-63958510D02*
X192692030Y-63924838D01*
X192692030Y-63924838D02*
X192860389Y-63756479D01*
X192860389Y-63756479D02*
X192894061Y-63655464D01*
X192894061Y-63655464D02*
X192860389Y-63554449D01*
X192860389Y-63554449D02*
X192793045Y-63487105D01*
X192793045Y-63487105D02*
X192692030Y-63453434D01*
X192692030Y-63453434D02*
X192591015Y-63487105D01*
X192591015Y-63487105D02*
X192422656Y-63655464D01*
X192422656Y-63655464D02*
X192321641Y-63689136D01*
X191816565Y-63857495D02*
X192287969Y-64328899D01*
X191883908Y-63924838D02*
X191816565Y-63924838D01*
X191816565Y-63924838D02*
X191715549Y-63958510D01*
X191715549Y-63958510D02*
X191614534Y-64059525D01*
X191614534Y-64059525D02*
X191580862Y-64160540D01*
X191580862Y-64160540D02*
X191614534Y-64261556D01*
X191614534Y-64261556D02*
X191984923Y-64631945D01*
X191345160Y-65271708D02*
X190638053Y-64564602D01*
X191311488Y-65238037D02*
X191412504Y-65204365D01*
X191412504Y-65204365D02*
X191547191Y-65069678D01*
X191547191Y-65069678D02*
X191580862Y-64968663D01*
X191580862Y-64968663D02*
X191580862Y-64901319D01*
X191580862Y-64901319D02*
X191547191Y-64800304D01*
X191547191Y-64800304D02*
X191345160Y-64598273D01*
X191345160Y-64598273D02*
X191244145Y-64564602D01*
X191244145Y-64564602D02*
X191176801Y-64564602D01*
X191176801Y-64564602D02*
X191075786Y-64598273D01*
X191075786Y-64598273D02*
X190941099Y-64732960D01*
X190941099Y-64732960D02*
X190907427Y-64833976D01*
X190604381Y-65069678D02*
X190907427Y-65709441D01*
X190267664Y-65406395D02*
X190907427Y-65709441D01*
X190907427Y-65709441D02*
X191143129Y-65810456D01*
X191143129Y-65810456D02*
X191210473Y-65810456D01*
X191210473Y-65810456D02*
X191311488Y-65776785D01*
X190132977Y-66483892D02*
X190469694Y-66147174D01*
X190469694Y-66147174D02*
X189762587Y-65440067D01*
X189897274Y-66719594D02*
X189190168Y-66012487D01*
X189190168Y-66012487D02*
X188920794Y-66281861D01*
X188920794Y-66281861D02*
X188887122Y-66382876D01*
X188887122Y-66382876D02*
X188887122Y-66450220D01*
X188887122Y-66450220D02*
X188920794Y-66551235D01*
X188920794Y-66551235D02*
X189021809Y-66652250D01*
X189021809Y-66652250D02*
X189122824Y-66685922D01*
X189122824Y-66685922D02*
X189190168Y-66685922D01*
X189190168Y-66685922D02*
X189291183Y-66652250D01*
X189291183Y-66652250D02*
X189560557Y-66382876D01*
X189425870Y-67325686D02*
X188887122Y-67864434D01*
X188651419Y-67965449D02*
X187944313Y-67258342D01*
X188314702Y-67763418D02*
X188382045Y-68234823D01*
X187910641Y-67763418D02*
X188449389Y-67763418D01*
X188078999Y-68537869D02*
X187371893Y-67830762D01*
X187641267Y-68100136D02*
X187540251Y-68133808D01*
X187540251Y-68133808D02*
X187405564Y-68268495D01*
X187405564Y-68268495D02*
X187371893Y-68369510D01*
X187371893Y-68369510D02*
X187371893Y-68436854D01*
X187371893Y-68436854D02*
X187405564Y-68537869D01*
X187405564Y-68537869D02*
X187607595Y-68739899D01*
X187607595Y-68739899D02*
X187708610Y-68773571D01*
X187708610Y-68773571D02*
X187775954Y-68773571D01*
X187775954Y-68773571D02*
X187876969Y-68739899D01*
X187876969Y-68739899D02*
X188011656Y-68605212D01*
X188011656Y-68605212D02*
X188045328Y-68504197D01*
X187136190Y-69480678D02*
X186429084Y-68773571D01*
X187102519Y-69447006D02*
X187203534Y-69413334D01*
X187203534Y-69413334D02*
X187338221Y-69278647D01*
X187338221Y-69278647D02*
X187371893Y-69177632D01*
X187371893Y-69177632D02*
X187371893Y-69110289D01*
X187371893Y-69110289D02*
X187338221Y-69009273D01*
X187338221Y-69009273D02*
X187136190Y-68807243D01*
X187136190Y-68807243D02*
X187035175Y-68773571D01*
X187035175Y-68773571D02*
X186967832Y-68773571D01*
X186967832Y-68773571D02*
X186866816Y-68807243D01*
X186866816Y-68807243D02*
X186732129Y-68941930D01*
X186732129Y-68941930D02*
X186698458Y-69042945D01*
X136621360Y-119995508D02*
X135914254Y-119288401D01*
X136183628Y-119557775D02*
X136082612Y-119591447D01*
X136082612Y-119591447D02*
X135947925Y-119726134D01*
X135947925Y-119726134D02*
X135914254Y-119827149D01*
X135914254Y-119827149D02*
X135914254Y-119894493D01*
X135914254Y-119894493D02*
X135947925Y-119995508D01*
X135947925Y-119995508D02*
X136149956Y-120197539D01*
X136149956Y-120197539D02*
X136250971Y-120231210D01*
X136250971Y-120231210D02*
X136318315Y-120231210D01*
X136318315Y-120231210D02*
X136419330Y-120197539D01*
X136419330Y-120197539D02*
X136554017Y-120062852D01*
X136554017Y-120062852D02*
X136587689Y-119961836D01*
X135577536Y-120096523D02*
X135880582Y-120736287D01*
X135240818Y-120433241D02*
X135880582Y-120736287D01*
X135880582Y-120736287D02*
X136116284Y-120837302D01*
X136116284Y-120837302D02*
X136183627Y-120837302D01*
X136183627Y-120837302D02*
X136284643Y-120803630D01*
X134129650Y-121813783D02*
X134129650Y-121746440D01*
X134129650Y-121746440D02*
X134163322Y-121645424D01*
X134163322Y-121645424D02*
X134230666Y-121578081D01*
X134230666Y-121578081D02*
X134331681Y-121544409D01*
X134331681Y-121544409D02*
X134399024Y-121544409D01*
X134399024Y-121544409D02*
X134500040Y-121578081D01*
X134500040Y-121578081D02*
X134567383Y-121645424D01*
X134567383Y-121645424D02*
X134601055Y-121746440D01*
X134601055Y-121746440D02*
X134601055Y-121813783D01*
X134601055Y-121813783D02*
X134567383Y-121914798D01*
X134567383Y-121914798D02*
X134500040Y-121982142D01*
X134500040Y-121982142D02*
X134399024Y-122015814D01*
X134399024Y-122015814D02*
X134331681Y-122015814D01*
X134062307Y-121746440D02*
X134331681Y-122015814D01*
X134331681Y-122015814D02*
X134331681Y-122083157D01*
X134331681Y-122083157D02*
X134298009Y-122116829D01*
X134298009Y-122116829D02*
X134196994Y-122150501D01*
X134196994Y-122150501D02*
X134095979Y-122116829D01*
X134095979Y-122116829D02*
X133927620Y-121948470D01*
X133927620Y-121948470D02*
X133893948Y-121780111D01*
X133893948Y-121780111D02*
X133927620Y-121611753D01*
X133927620Y-121611753D02*
X134028635Y-121443394D01*
X134028635Y-121443394D02*
X134196994Y-121342379D01*
X134196994Y-121342379D02*
X134365353Y-121308707D01*
X134365353Y-121308707D02*
X134533711Y-121342379D01*
X134533711Y-121342379D02*
X134702070Y-121443394D01*
X134702070Y-121443394D02*
X134803085Y-121611753D01*
X134803085Y-121611753D02*
X134836757Y-121780111D01*
X134836757Y-121780111D02*
X134803085Y-121948470D01*
X134803085Y-121948470D02*
X134702070Y-122116829D01*
X134702070Y-122116829D02*
X134533711Y-122217844D01*
X134533711Y-122217844D02*
X134365353Y-122251516D01*
X133523559Y-122150500D02*
X134129650Y-122756592D01*
X134129650Y-122756592D02*
X134230666Y-122790264D01*
X134230666Y-122790264D02*
X134331681Y-122756592D01*
X134331681Y-122756592D02*
X134365353Y-122722920D01*
X133287857Y-121914798D02*
X133355200Y-121914798D01*
X133355200Y-121914798D02*
X133355200Y-121982142D01*
X133355200Y-121982142D02*
X133287857Y-121982142D01*
X133287857Y-121982142D02*
X133287857Y-121914798D01*
X133287857Y-121914798D02*
X133355200Y-121982142D01*
X133186842Y-122487218D02*
X133893949Y-123194324D01*
X133220514Y-122520889D02*
X133119498Y-122554561D01*
X133119498Y-122554561D02*
X132984811Y-122689248D01*
X132984811Y-122689248D02*
X132951140Y-122790263D01*
X132951140Y-122790263D02*
X132951140Y-122857607D01*
X132951140Y-122857607D02*
X132984811Y-122958622D01*
X132984811Y-122958622D02*
X133186842Y-123160653D01*
X133186842Y-123160653D02*
X133287857Y-123194324D01*
X133287857Y-123194324D02*
X133355201Y-123194324D01*
X133355201Y-123194324D02*
X133456216Y-123160653D01*
X133456216Y-123160653D02*
X133590903Y-123025966D01*
X133590903Y-123025966D02*
X133624575Y-122924950D01*
X133018483Y-123531042D02*
X132984811Y-123632057D01*
X132984811Y-123632057D02*
X132850124Y-123766744D01*
X132850124Y-123766744D02*
X132749109Y-123800416D01*
X132749109Y-123800416D02*
X132648094Y-123766744D01*
X132648094Y-123766744D02*
X132614422Y-123733072D01*
X132614422Y-123733072D02*
X132580750Y-123632057D01*
X132580750Y-123632057D02*
X132614422Y-123531042D01*
X132614422Y-123531042D02*
X132715437Y-123430027D01*
X132715437Y-123430027D02*
X132749109Y-123329011D01*
X132749109Y-123329011D02*
X132715437Y-123227996D01*
X132715437Y-123227996D02*
X132681765Y-123194324D01*
X132681765Y-123194324D02*
X132580750Y-123160653D01*
X132580750Y-123160653D02*
X132479735Y-123194324D01*
X132479735Y-123194324D02*
X132378720Y-123295340D01*
X132378720Y-123295340D02*
X132345048Y-123396355D01*
X132446063Y-124170805D02*
X131738956Y-123463699D01*
X132109346Y-123968775D02*
X132176689Y-124440179D01*
X131705285Y-123968775D02*
X132244033Y-123968775D01*
X131570597Y-124978927D02*
X131671613Y-124945256D01*
X131671613Y-124945256D02*
X131806300Y-124810569D01*
X131806300Y-124810569D02*
X131839971Y-124709553D01*
X131839971Y-124709553D02*
X131806300Y-124608538D01*
X131806300Y-124608538D02*
X131536926Y-124339164D01*
X131536926Y-124339164D02*
X131435910Y-124305492D01*
X131435910Y-124305492D02*
X131334895Y-124339164D01*
X131334895Y-124339164D02*
X131200208Y-124473851D01*
X131200208Y-124473851D02*
X131166536Y-124574866D01*
X131166536Y-124574866D02*
X131200208Y-124675882D01*
X131200208Y-124675882D02*
X131267552Y-124743225D01*
X131267552Y-124743225D02*
X131671613Y-124473851D01*
X130796147Y-124877912D02*
X131267552Y-125349317D01*
X130863490Y-124945256D02*
X130796147Y-124945256D01*
X130796147Y-124945256D02*
X130695132Y-124978928D01*
X130695132Y-124978928D02*
X130594116Y-125079943D01*
X130594116Y-125079943D02*
X130560445Y-125180958D01*
X130560445Y-125180958D02*
X130594116Y-125281973D01*
X130594116Y-125281973D02*
X130964506Y-125652363D01*
X130156384Y-125517676D02*
X130627788Y-125989080D01*
X130223727Y-125585019D02*
X130156384Y-125585019D01*
X130156384Y-125585019D02*
X130055368Y-125618691D01*
X130055368Y-125618691D02*
X129954353Y-125719706D01*
X129954353Y-125719706D02*
X129920681Y-125820721D01*
X129920681Y-125820721D02*
X129954353Y-125921737D01*
X129954353Y-125921737D02*
X130324742Y-126292126D01*
%LPC*%
D11*
X191690292Y-76055295D03*
D12*
X191690292Y-66862907D03*
X200882680Y-76055295D03*
D11*
X200882680Y-66862907D03*
D13*
X172258113Y-104679861D03*
D11*
X162181841Y-105563745D03*
X173141997Y-94603589D03*
D13*
X163065725Y-95487473D03*
D11*
X122654573Y-118150246D03*
D12*
X122654573Y-108957858D03*
X131846961Y-118150246D03*
D11*
X131846961Y-108957858D03*
X134441159Y-133304428D03*
D12*
X134441159Y-124112040D03*
X143633547Y-133304428D03*
D11*
X143633547Y-124112040D03*
X149595341Y-118150246D03*
D12*
X149595341Y-108957858D03*
X158787729Y-118150246D03*
D11*
X158787729Y-108957858D03*
X176536110Y-91209477D03*
D12*
X176536110Y-82017089D03*
X185728498Y-91209477D03*
D11*
X185728498Y-82017089D03*
X176536110Y-64268709D03*
D12*
X176536110Y-55076321D03*
X185728498Y-64268709D03*
D11*
X185728498Y-55076321D03*
%LPD*%
M02*
