%TF.GenerationSoftware,KiCad,Pcbnew,8.0.5*%
%TF.CreationDate,2024-09-29T21:28:24+09:00*%
%TF.ProjectId,SandyLP_Plate_Base_Center,53616e64-794c-4505-9f50-6c6174655f42,v.0*%
%TF.SameCoordinates,Original*%
%TF.FileFunction,Drillmap*%
%TF.FilePolarity,Positive*%
%FSLAX45Y45*%
G04 Gerber Fmt 4.5, Leading zero omitted, Abs format (unit mm)*
G04 Created by KiCad (PCBNEW 8.0.5) date 2024-09-29 21:28:24*
%MOMM*%
%LPD*%
G01*
G04 APERTURE LIST*
%ADD10C,0.300000*%
%ADD11C,0.200000*%
G04 APERTURE END LIST*
D10*
X12613939Y-13180623D02*
X13779663Y-14346348D01*
X12613939Y-12897781D02*
X12667855Y-12843864D01*
X11582771Y-11475936D02*
X12667855Y-12561021D01*
X11582771Y-11193093D02*
X12546308Y-10229556D01*
X12829151Y-10229556D02*
X13872136Y-11272541D01*
X18026831Y-7400689D02*
X14154979Y-11272541D01*
X16983845Y-6074861D02*
X18026831Y-7117847D01*
X17950920Y-4824935D02*
X16983845Y-5792019D01*
X18233763Y-4824935D02*
X19318848Y-5910020D01*
X19655607Y-5856103D02*
X19601690Y-5910020D01*
X21104190Y-7304663D02*
X14062506Y-14346348D01*
X19938450Y-5856103D02*
X21104190Y-7021821D01*
X12613939Y-13180623D02*
G75*
G02*
X12613940Y-12897782I141409J141420D01*
G01*
X14062506Y-14346348D02*
G75*
G02*
X13779663Y-14346348I-141422J141437D01*
G01*
X11582771Y-11475936D02*
G75*
G02*
X11582766Y-11193089I141432J141426D01*
G01*
X12667855Y-12561021D02*
G75*
G02*
X12667857Y-12843865I-141433J-141423D01*
G01*
X12546308Y-10229556D02*
G75*
G02*
X12829156Y-10229551I141426J-141422D01*
G01*
X14154979Y-11272541D02*
G75*
G02*
X13872138Y-11272539I-141420J141423D01*
G01*
X16983845Y-6074861D02*
G75*
G02*
X16983850Y-5792023I141422J141417D01*
G01*
X18026831Y-7117847D02*
G75*
G02*
X18026832Y-7400691I-141423J-141423D01*
G01*
X17950920Y-4824935D02*
G75*
G02*
X18233764Y-4824934I141422J-141435D01*
G01*
X19601690Y-5910020D02*
G75*
G02*
X19318847Y-5910020I-141422J141437D01*
G01*
X19655607Y-5856103D02*
G75*
G02*
X19938450Y-5856103I141421J-141434D01*
G01*
X21104190Y-7021821D02*
G75*
G02*
X21104193Y-7304666I-141412J-141424D01*
G01*
D11*
X11769968Y-14731406D02*
X11769968Y-14531406D01*
X11769968Y-14531406D02*
X11817587Y-14531406D01*
X11817587Y-14531406D02*
X11846159Y-14540930D01*
X11846159Y-14540930D02*
X11865207Y-14559977D01*
X11865207Y-14559977D02*
X11874730Y-14579025D01*
X11874730Y-14579025D02*
X11884254Y-14617120D01*
X11884254Y-14617120D02*
X11884254Y-14645692D01*
X11884254Y-14645692D02*
X11874730Y-14683787D01*
X11874730Y-14683787D02*
X11865207Y-14702834D01*
X11865207Y-14702834D02*
X11846159Y-14721882D01*
X11846159Y-14721882D02*
X11817587Y-14731406D01*
X11817587Y-14731406D02*
X11769968Y-14731406D01*
X11969968Y-14731406D02*
X11969968Y-14598072D01*
X11969968Y-14636168D02*
X11979492Y-14617120D01*
X11979492Y-14617120D02*
X11989016Y-14607596D01*
X11989016Y-14607596D02*
X12008064Y-14598072D01*
X12008064Y-14598072D02*
X12027111Y-14598072D01*
X12093778Y-14731406D02*
X12093778Y-14598072D01*
X12093778Y-14531406D02*
X12084254Y-14540930D01*
X12084254Y-14540930D02*
X12093778Y-14550453D01*
X12093778Y-14550453D02*
X12103302Y-14540930D01*
X12103302Y-14540930D02*
X12093778Y-14531406D01*
X12093778Y-14531406D02*
X12093778Y-14550453D01*
X12217587Y-14731406D02*
X12198540Y-14721882D01*
X12198540Y-14721882D02*
X12189016Y-14702834D01*
X12189016Y-14702834D02*
X12189016Y-14531406D01*
X12322349Y-14731406D02*
X12303302Y-14721882D01*
X12303302Y-14721882D02*
X12293778Y-14702834D01*
X12293778Y-14702834D02*
X12293778Y-14531406D01*
X12550921Y-14731406D02*
X12550921Y-14531406D01*
X12550921Y-14531406D02*
X12617588Y-14674263D01*
X12617588Y-14674263D02*
X12684254Y-14531406D01*
X12684254Y-14531406D02*
X12684254Y-14731406D01*
X12865207Y-14731406D02*
X12865207Y-14626644D01*
X12865207Y-14626644D02*
X12855683Y-14607596D01*
X12855683Y-14607596D02*
X12836635Y-14598072D01*
X12836635Y-14598072D02*
X12798540Y-14598072D01*
X12798540Y-14598072D02*
X12779492Y-14607596D01*
X12865207Y-14721882D02*
X12846159Y-14731406D01*
X12846159Y-14731406D02*
X12798540Y-14731406D01*
X12798540Y-14731406D02*
X12779492Y-14721882D01*
X12779492Y-14721882D02*
X12769968Y-14702834D01*
X12769968Y-14702834D02*
X12769968Y-14683787D01*
X12769968Y-14683787D02*
X12779492Y-14664739D01*
X12779492Y-14664739D02*
X12798540Y-14655215D01*
X12798540Y-14655215D02*
X12846159Y-14655215D01*
X12846159Y-14655215D02*
X12865207Y-14645692D01*
X12960445Y-14598072D02*
X12960445Y-14798072D01*
X12960445Y-14607596D02*
X12979492Y-14598072D01*
X12979492Y-14598072D02*
X13017588Y-14598072D01*
X13017588Y-14598072D02*
X13036635Y-14607596D01*
X13036635Y-14607596D02*
X13046159Y-14617120D01*
X13046159Y-14617120D02*
X13055683Y-14636168D01*
X13055683Y-14636168D02*
X13055683Y-14693311D01*
X13055683Y-14693311D02*
X13046159Y-14712358D01*
X13046159Y-14712358D02*
X13036635Y-14721882D01*
X13036635Y-14721882D02*
X13017588Y-14731406D01*
X13017588Y-14731406D02*
X12979492Y-14731406D01*
X12979492Y-14731406D02*
X12960445Y-14721882D01*
X13141397Y-14712358D02*
X13150921Y-14721882D01*
X13150921Y-14721882D02*
X13141397Y-14731406D01*
X13141397Y-14731406D02*
X13131873Y-14721882D01*
X13131873Y-14721882D02*
X13141397Y-14712358D01*
X13141397Y-14712358D02*
X13141397Y-14731406D01*
X13141397Y-14607596D02*
X13150921Y-14617120D01*
X13150921Y-14617120D02*
X13141397Y-14626644D01*
X13141397Y-14626644D02*
X13131873Y-14617120D01*
X13131873Y-14617120D02*
X13141397Y-14607596D01*
X13141397Y-14607596D02*
X13141397Y-14626644D01*
M02*
