G04 #@! TF.GenerationSoftware,KiCad,Pcbnew,8.0.5*
G04 #@! TF.CreationDate,2024-09-29T21:28:28+09:00*
G04 #@! TF.ProjectId,SandyLP_Plate_Base_Center,53616e64-794c-4505-9f50-6c6174655f42,v.0*
G04 #@! TF.SameCoordinates,Original*
G04 #@! TF.FileFunction,Profile,NP*
%FSLAX46Y46*%
G04 Gerber Fmt 4.6, Leading zero omitted, Abs format (unit mm)*
G04 Created by KiCad (PCBNEW 8.0.5) date 2024-09-29 21:28:28*
%MOMM*%
%LPD*%
G01*
G04 APERTURE LIST*
G04 #@! TA.AperFunction,Profile*
%ADD10C,0.300000*%
G04 #@! TD*
G04 APERTURE END LIST*
D10*
X126139386Y-131806234D02*
X137796630Y-143463478D01*
X126139386Y-128977807D02*
X126678555Y-128438638D01*
X115827706Y-114759363D02*
X126678555Y-125610211D01*
X115827706Y-111930935D02*
X125463084Y-102295558D01*
X128291511Y-102295558D02*
X138721364Y-112725411D01*
X180268307Y-74006895D02*
X141549792Y-112725411D01*
X169838454Y-60748615D02*
X180268307Y-71178468D01*
X179509200Y-48249351D02*
X169838454Y-57920188D01*
X182337627Y-48249351D02*
X193188475Y-59100200D01*
X196556071Y-58561031D02*
X196016903Y-59100200D01*
X211041903Y-73046633D02*
X140625057Y-143463478D01*
X199384499Y-58561031D02*
X211041903Y-70218206D01*
X126139386Y-131806234D02*
G75*
G02*
X126139397Y-128977819I1414093J1414202D01*
G01*
X140625057Y-143463478D02*
G75*
G02*
X137796628Y-143463481I-1414216J1414367D01*
G01*
X115827706Y-114759363D02*
G75*
G02*
X115827659Y-111930888I1414318J1414261D01*
G01*
X126678555Y-125610211D02*
G75*
G02*
X126678567Y-128438649I-1414334J-1414225D01*
G01*
X125463084Y-102295558D02*
G75*
G02*
X128291557Y-102295511I1414260J-1414224D01*
G01*
X141549792Y-112725411D02*
G75*
G02*
X138721382Y-112725393I-1414196J1414231D01*
G01*
X169838454Y-60748615D02*
G75*
G02*
X169838499Y-57920234I1414224J1414168D01*
G01*
X180268307Y-71178468D02*
G75*
G02*
X180268324Y-74006912I-1414231J-1414231D01*
G01*
X179509200Y-48249351D02*
G75*
G02*
X182337637Y-48249340I1414224J-1414350D01*
G01*
X196016903Y-59100200D02*
G75*
G02*
X193188474Y-59100201I-1414215J1414372D01*
G01*
X196556071Y-58561031D02*
G75*
G02*
X199384498Y-58561032I1414213J-1414338D01*
G01*
X211041903Y-70218206D02*
G75*
G02*
X211041932Y-73046662I-1414116J-1414242D01*
G01*
M02*
