M48
; DRILL file {KiCad 8.0.5} date 2024-09-30T06:21:50+0900
; FORMAT={-:-/ absolute / metric / decimal}
; #@! TF.CreationDate,2024-09-30T06:21:50+09:00
; #@! TF.GenerationSoftware,Kicad,Pcbnew,8.0.5
; #@! TF.FileFunction,NonPlated,1,2,NPTH
FMAT,2
METRIC
; #@! TA.AperFunction,NonPlated,NPTH,ComponentDrill
T1C1.000
%
G90
G05
T1
X201.122Y-71.7G85X201.122Y-58.7
G05
X201.122Y-58.7G85X214.122Y-58.7
G05
X201.122Y-71.7G85X214.122Y-71.7
G05
X210.647Y-90.75G85X210.647Y-77.75
G05
X214.122Y-71.7G85X214.122Y-58.7
G05
X215.41Y-109.8G85X215.41Y-96.8
G05
X210.647Y-77.75G85X223.647Y-77.75
G05
X210.647Y-90.75G85X223.647Y-90.75
G05
X220.172Y-52.65G85X220.172Y-39.65
G05
X220.172Y-71.7G85X220.172Y-58.7
G05
X215.41Y-96.8G85X228.41Y-96.8
G05
X215.41Y-109.8G85X228.41Y-109.8
G05
X223.647Y-90.75G85X223.647Y-77.75
G05
X220.172Y-39.65G85X233.172Y-39.65
G05
X220.172Y-52.65G85X233.172Y-52.65
G05
X220.172Y-58.7G85X233.172Y-58.7
G05
X220.172Y-71.7G85X233.172Y-71.7
G05
X228.41Y-109.8G85X228.41Y-96.8
G05
X229.697Y-90.75G85X229.697Y-77.75
G05
X233.172Y-52.65G85X233.172Y-39.65
G05
X233.172Y-71.7G85X233.172Y-58.7
G05
X234.46Y-109.8G85X234.46Y-96.8
G05
X229.697Y-77.75G85X242.697Y-77.75
G05
X229.697Y-90.75G85X242.697Y-90.75
G05
X239.222Y-52.65G85X239.222Y-39.65
G05
X239.222Y-71.7G85X239.222Y-58.7
G05
X234.46Y-96.8G85X247.46Y-96.8
G05
X234.46Y-109.8G85X247.46Y-109.8
G05
X242.697Y-90.75G85X242.697Y-77.75
G05
X239.222Y-39.65G85X252.222Y-39.65
G05
X239.222Y-52.65G85X252.222Y-52.65
G05
X239.222Y-58.7G85X252.222Y-58.7
G05
X239.222Y-71.7G85X252.222Y-71.7
G05
X247.46Y-109.8G85X247.46Y-96.8
G05
X248.747Y-90.75G85X248.747Y-77.75
G05
X252.222Y-52.65G85X252.222Y-39.65
G05
X252.222Y-71.7G85X252.222Y-58.7
G05
X248.747Y-77.75G85X261.747Y-77.75
G05
X248.747Y-90.75G85X261.747Y-90.75
G05
X258.272Y-71.7G85X258.272Y-58.7
G05
X261.747Y-90.75G85X261.747Y-77.75
G05
X258.272Y-58.7G85X271.272Y-58.7
G05
X258.272Y-71.7G85X271.272Y-71.7
G05
X267.797Y-90.75G85X267.797Y-77.75
G05
X271.272Y-71.7G85X271.272Y-58.7
G05
X267.797Y-77.75G85X280.797Y-77.75
G05
X267.797Y-90.75G85X280.797Y-90.75
G05
X277.322Y-71.7G85X277.322Y-58.7
G05
X280.797Y-90.75G85X280.797Y-77.75
G05
X277.322Y-58.7G85X290.322Y-58.7
G05
X277.322Y-71.7G85X290.322Y-71.7
G05
X290.322Y-71.7G85X290.322Y-58.7
G05
M30
