G04 #@! TF.GenerationSoftware,KiCad,Pcbnew,8.0.5*
G04 #@! TF.CreationDate,2024-09-30T06:21:52+09:00*
G04 #@! TF.ProjectId,SandyLP_Plate_Base_LR,53616e64-794c-4505-9f50-6c6174655f42,v.0*
G04 #@! TF.SameCoordinates,Original*
G04 #@! TF.FileFunction,Copper,L2,Bot*
G04 #@! TF.FilePolarity,Positive*
%FSLAX46Y46*%
G04 Gerber Fmt 4.6, Leading zero omitted, Abs format (unit mm)*
G04 Created by KiCad (PCBNEW 8.0.5) date 2024-09-30 06:21:52*
%MOMM*%
%LPD*%
G01*
G04 APERTURE LIST*
G04 Aperture macros list*
%AMRoundRect*
0 Rectangle with rounded corners*
0 $1 Rounding radius*
0 $2 $3 $4 $5 $6 $7 $8 $9 X,Y pos of 4 corners*
0 Add a 4 corners polygon primitive as box body*
4,1,4,$2,$3,$4,$5,$6,$7,$8,$9,$2,$3,0*
0 Add four circle primitives for the rounded corners*
1,1,$1+$1,$2,$3*
1,1,$1+$1,$4,$5*
1,1,$1+$1,$6,$7*
1,1,$1+$1,$8,$9*
0 Add four rect primitives between the rounded corners*
20,1,$1+$1,$2,$3,$4,$5,0*
20,1,$1+$1,$4,$5,$6,$7,0*
20,1,$1+$1,$6,$7,$8,$9,0*
20,1,$1+$1,$8,$9,$2,$3,0*%
G04 Aperture macros list end*
G04 #@! TA.AperFunction,WasherPad*
%ADD10RoundRect,0.900000X0.000010X-6.500000X0.000010X6.500000X-0.000010X6.500000X-0.000010X-6.500000X0*%
G04 #@! TD*
G04 #@! TA.AperFunction,WasherPad*
%ADD11RoundRect,0.900000X-6.500000X-0.000010X6.500000X-0.000010X6.500000X0.000010X-6.500000X0.000010X0*%
G04 #@! TD*
G04 APERTURE END LIST*
D10*
X248747345Y-84250320D03*
D11*
X255247345Y-77750320D03*
X255247345Y-90750320D03*
D10*
X261747345Y-84250320D03*
X220172345Y-46150320D03*
D11*
X226672345Y-39650320D03*
X226672345Y-52650320D03*
D10*
X233172345Y-46150320D03*
X201122345Y-65200320D03*
D11*
X207622345Y-58700320D03*
X207622345Y-71700320D03*
D10*
X214122345Y-65200320D03*
X277322345Y-65200320D03*
D11*
X283822345Y-58700320D03*
X283822345Y-71700320D03*
D10*
X290322345Y-65200320D03*
X258272345Y-65200320D03*
D11*
X264772345Y-58700320D03*
X264772345Y-71700320D03*
D10*
X271272345Y-65200320D03*
X239222345Y-46150320D03*
D11*
X245722345Y-39650320D03*
X245722345Y-52650320D03*
D10*
X252222345Y-46150320D03*
X267797345Y-84250320D03*
D11*
X274297345Y-77750320D03*
X274297345Y-90750320D03*
D10*
X280797345Y-84250320D03*
X210647345Y-84250320D03*
D11*
X217147345Y-77750320D03*
X217147345Y-90750320D03*
D10*
X223647345Y-84250320D03*
X220172345Y-65200320D03*
D11*
X226672345Y-58700320D03*
X226672345Y-71700320D03*
D10*
X233172345Y-65200320D03*
X229697345Y-84250320D03*
D11*
X236197345Y-77750320D03*
X236197345Y-90750320D03*
D10*
X242697345Y-84250320D03*
X234459845Y-103300320D03*
D11*
X240959845Y-96800320D03*
X240959845Y-109800320D03*
D10*
X247459845Y-103300320D03*
X239222345Y-65200320D03*
D11*
X245722345Y-58700320D03*
X245722345Y-71700320D03*
D10*
X252222345Y-65200320D03*
X215409845Y-103300320D03*
D11*
X221909845Y-96800320D03*
X221909845Y-109800320D03*
D10*
X228409845Y-103300320D03*
G04 #@! TA.AperFunction,NonConductor*
G36*
X252838076Y-34619742D02*
G01*
X253079572Y-34635576D01*
X253092393Y-34637264D01*
X253326575Y-34683851D01*
X253339062Y-34687197D01*
X253533114Y-34753074D01*
X253565151Y-34763950D01*
X253577114Y-34768905D01*
X253627970Y-34793985D01*
X253791260Y-34874515D01*
X253802459Y-34880981D01*
X253935881Y-34970135D01*
X254000973Y-35013630D01*
X254011247Y-35021513D01*
X254190755Y-35178944D01*
X254199911Y-35188101D01*
X254357328Y-35367607D01*
X254365211Y-35377881D01*
X254497851Y-35576397D01*
X254504326Y-35587612D01*
X254609919Y-35801743D01*
X254614875Y-35813707D01*
X254691618Y-36039798D01*
X254694969Y-36052307D01*
X254741544Y-36286474D01*
X254743234Y-36299313D01*
X254759133Y-36541939D01*
X254759345Y-36548412D01*
X254759345Y-53934246D01*
X254759319Y-53934322D01*
X254759319Y-54111318D01*
X254794829Y-54381062D01*
X254865247Y-54643867D01*
X254969360Y-54895222D01*
X254969362Y-54895226D01*
X254969364Y-54895230D01*
X255105401Y-55130853D01*
X255117680Y-55146855D01*
X255271030Y-55346703D01*
X255463419Y-55539089D01*
X255518115Y-55581058D01*
X255679269Y-55704713D01*
X255679276Y-55704717D01*
X255679275Y-55704717D01*
X255914884Y-55840742D01*
X255914893Y-55840747D01*
X256166258Y-55944862D01*
X256166262Y-55944863D01*
X256429058Y-56015274D01*
X256429062Y-56015275D01*
X256464570Y-56019948D01*
X256698810Y-56050783D01*
X256834847Y-56050780D01*
X295685316Y-56050780D01*
X295706611Y-56050780D01*
X295713082Y-56050991D01*
X295954587Y-56066814D01*
X295967402Y-56068501D01*
X296201600Y-56115079D01*
X296214092Y-56118426D01*
X296440204Y-56195175D01*
X296452156Y-56200125D01*
X296666300Y-56305724D01*
X296677515Y-56312198D01*
X296876054Y-56444851D01*
X296886313Y-56452723D01*
X297065848Y-56610164D01*
X297074995Y-56619312D01*
X297232421Y-56798817D01*
X297240305Y-56809090D01*
X297372963Y-57007619D01*
X297379438Y-57018834D01*
X297485043Y-57232972D01*
X297489999Y-57244936D01*
X297566753Y-57471036D01*
X297570104Y-57483545D01*
X297616686Y-57717709D01*
X297618377Y-57730548D01*
X297634133Y-57970901D01*
X297634345Y-57977377D01*
X297634345Y-110091863D01*
X297634251Y-110096182D01*
X297616695Y-110498213D01*
X297615942Y-110506816D01*
X297563699Y-110903633D01*
X297562199Y-110912139D01*
X297475569Y-111302890D01*
X297473334Y-111311232D01*
X297352976Y-111692953D01*
X297350022Y-111701069D01*
X297196855Y-112070847D01*
X297193205Y-112078674D01*
X297008396Y-112433687D01*
X297004078Y-112441167D01*
X296789020Y-112778739D01*
X296784066Y-112785813D01*
X296540420Y-113103339D01*
X296534869Y-113109955D01*
X296264461Y-113405054D01*
X296258354Y-113411161D01*
X296133989Y-113525121D01*
X295963271Y-113681555D01*
X295956663Y-113687101D01*
X295639120Y-113930762D01*
X295632045Y-113935716D01*
X295294480Y-114150770D01*
X295287000Y-114155088D01*
X294931987Y-114339898D01*
X294924160Y-114343548D01*
X294554386Y-114496716D01*
X294546270Y-114499670D01*
X294164542Y-114620031D01*
X294156200Y-114622266D01*
X293765454Y-114708895D01*
X293756949Y-114710395D01*
X293360130Y-114762641D01*
X293351526Y-114763394D01*
X292949840Y-114780936D01*
X292945521Y-114781030D01*
X215033915Y-114781030D01*
X215033904Y-114781028D01*
X214992923Y-114781029D01*
X214986450Y-114780817D01*
X214744960Y-114764999D01*
X214732121Y-114763309D01*
X214497951Y-114716739D01*
X214485442Y-114713388D01*
X214259342Y-114636646D01*
X214247381Y-114631692D01*
X214145302Y-114581355D01*
X214033234Y-114526092D01*
X214022019Y-114519617D01*
X213823501Y-114386976D01*
X213813226Y-114379093D01*
X213633704Y-114221659D01*
X213624547Y-114212501D01*
X213570410Y-114150770D01*
X213467122Y-114032993D01*
X213459246Y-114022729D01*
X213326587Y-113824189D01*
X213320118Y-113812985D01*
X213214516Y-113598837D01*
X213209565Y-113586887D01*
X213132815Y-113360773D01*
X213129466Y-113348271D01*
X213082890Y-113114088D01*
X213081203Y-113101270D01*
X213065405Y-112860120D01*
X213065193Y-112853648D01*
X213065193Y-112816276D01*
X213065170Y-112816135D01*
X213065105Y-112695959D01*
X213056487Y-96716053D01*
X214306145Y-96716053D01*
X214306145Y-109884586D01*
X214308966Y-109931947D01*
X214308967Y-109931956D01*
X214353768Y-110137902D01*
X214353770Y-110137907D01*
X214353771Y-110137910D01*
X214436745Y-110331673D01*
X214554889Y-110506231D01*
X214703934Y-110655276D01*
X214878492Y-110773420D01*
X215072255Y-110856394D01*
X215072259Y-110856395D01*
X215072262Y-110856396D01*
X215278208Y-110901197D01*
X215278211Y-110901197D01*
X215278219Y-110901199D01*
X215325575Y-110904020D01*
X215325588Y-110904020D01*
X228494102Y-110904020D01*
X228494115Y-110904020D01*
X228541471Y-110901199D01*
X228541479Y-110901197D01*
X228541481Y-110901197D01*
X228747427Y-110856396D01*
X228747428Y-110856395D01*
X228747435Y-110856394D01*
X228941198Y-110773420D01*
X229115756Y-110655276D01*
X229264801Y-110506231D01*
X229382945Y-110331673D01*
X229465919Y-110137910D01*
X229474997Y-110096182D01*
X229510722Y-109931956D01*
X229510722Y-109931954D01*
X229510724Y-109931946D01*
X229513545Y-109884590D01*
X229513545Y-96716053D01*
X233356145Y-96716053D01*
X233356145Y-109884586D01*
X233358966Y-109931947D01*
X233358967Y-109931956D01*
X233403768Y-110137902D01*
X233403770Y-110137907D01*
X233403771Y-110137910D01*
X233486745Y-110331673D01*
X233604889Y-110506231D01*
X233753934Y-110655276D01*
X233928492Y-110773420D01*
X234122255Y-110856394D01*
X234122259Y-110856395D01*
X234122262Y-110856396D01*
X234328208Y-110901197D01*
X234328211Y-110901197D01*
X234328219Y-110901199D01*
X234375575Y-110904020D01*
X234375588Y-110904020D01*
X247544102Y-110904020D01*
X247544115Y-110904020D01*
X247591471Y-110901199D01*
X247591479Y-110901197D01*
X247591481Y-110901197D01*
X247797427Y-110856396D01*
X247797428Y-110856395D01*
X247797435Y-110856394D01*
X247991198Y-110773420D01*
X248165756Y-110655276D01*
X248314801Y-110506231D01*
X248432945Y-110331673D01*
X248515919Y-110137910D01*
X248524997Y-110096182D01*
X248560722Y-109931956D01*
X248560722Y-109931954D01*
X248560724Y-109931946D01*
X248563545Y-109884590D01*
X248563545Y-96716050D01*
X248560724Y-96668694D01*
X248515919Y-96462730D01*
X248432945Y-96268967D01*
X248314801Y-96094409D01*
X248165756Y-95945364D01*
X248151912Y-95935994D01*
X247991200Y-95827221D01*
X247991198Y-95827220D01*
X247797435Y-95744246D01*
X247797432Y-95744245D01*
X247797427Y-95744243D01*
X247591481Y-95699442D01*
X247591472Y-95699441D01*
X247581999Y-95698876D01*
X247544115Y-95696620D01*
X234544115Y-95696620D01*
X234375575Y-95696620D01*
X234347161Y-95698312D01*
X234328217Y-95699441D01*
X234328208Y-95699442D01*
X234122262Y-95744243D01*
X234122255Y-95744246D01*
X233928489Y-95827221D01*
X233753936Y-95945362D01*
X233604887Y-96094411D01*
X233486746Y-96268964D01*
X233403771Y-96462730D01*
X233403768Y-96462737D01*
X233358967Y-96668683D01*
X233358966Y-96668692D01*
X233356145Y-96716053D01*
X229513545Y-96716053D01*
X229513545Y-96716050D01*
X229510724Y-96668694D01*
X229465919Y-96462730D01*
X229382945Y-96268967D01*
X229264801Y-96094409D01*
X229115756Y-95945364D01*
X229101912Y-95935994D01*
X228941200Y-95827221D01*
X228941198Y-95827220D01*
X228747435Y-95744246D01*
X228747432Y-95744245D01*
X228747427Y-95744243D01*
X228541481Y-95699442D01*
X228541472Y-95699441D01*
X228531999Y-95698876D01*
X228494115Y-95696620D01*
X215494115Y-95696620D01*
X215325575Y-95696620D01*
X215297161Y-95698312D01*
X215278217Y-95699441D01*
X215278208Y-95699442D01*
X215072262Y-95744243D01*
X215072255Y-95744246D01*
X214878489Y-95827221D01*
X214703936Y-95945362D01*
X214554887Y-96094411D01*
X214436746Y-96268964D01*
X214353771Y-96462730D01*
X214353768Y-96462737D01*
X214308967Y-96668683D01*
X214308966Y-96668692D01*
X214306145Y-96716053D01*
X213056487Y-96716053D01*
X213056350Y-96462730D01*
X213055645Y-95155367D01*
X213055591Y-95154835D01*
X213055588Y-95043973D01*
X213020067Y-94774240D01*
X212949646Y-94511451D01*
X212845528Y-94260100D01*
X212709497Y-94024489D01*
X212543877Y-93808647D01*
X212351504Y-93616267D01*
X212135667Y-93450641D01*
X211900060Y-93314602D01*
X211900058Y-93314601D01*
X211900056Y-93314600D01*
X211648718Y-93210477D01*
X211385928Y-93140046D01*
X211385916Y-93140044D01*
X211116195Y-93104517D01*
X211116189Y-93104516D01*
X211006702Y-93104508D01*
X211006688Y-93104507D01*
X210995176Y-93104507D01*
X210980164Y-93104507D01*
X210955633Y-93104505D01*
X210955632Y-93104505D01*
X210940990Y-93104504D01*
X210940970Y-93104507D01*
X210271415Y-93104507D01*
X210271404Y-93104505D01*
X210230423Y-93104506D01*
X210223951Y-93104294D01*
X209982462Y-93088477D01*
X209969624Y-93086787D01*
X209887216Y-93070398D01*
X209735452Y-93040216D01*
X209722943Y-93036865D01*
X209496846Y-92960122D01*
X209484881Y-92955166D01*
X209270740Y-92849569D01*
X209259532Y-92843098D01*
X209060999Y-92710446D01*
X209050728Y-92702565D01*
X208871217Y-92545139D01*
X208862060Y-92535982D01*
X208704634Y-92356471D01*
X208696754Y-92346203D01*
X208564098Y-92147663D01*
X208557633Y-92136465D01*
X208452030Y-91922312D01*
X208447080Y-91910360D01*
X208370333Y-91684254D01*
X208366983Y-91671747D01*
X208353764Y-91605277D01*
X208320409Y-91437562D01*
X208318723Y-91424750D01*
X208302904Y-91183246D01*
X208302693Y-91176774D01*
X208302694Y-91139572D01*
X208302665Y-91139397D01*
X208294130Y-77666053D01*
X209543645Y-77666053D01*
X209543645Y-90834586D01*
X209546466Y-90881947D01*
X209546467Y-90881956D01*
X209591268Y-91087902D01*
X209591270Y-91087907D01*
X209591271Y-91087910D01*
X209674245Y-91281673D01*
X209792389Y-91456231D01*
X209941434Y-91605276D01*
X210115992Y-91723420D01*
X210309755Y-91806394D01*
X210309759Y-91806395D01*
X210309762Y-91806396D01*
X210515708Y-91851197D01*
X210515711Y-91851197D01*
X210515719Y-91851199D01*
X210563075Y-91854020D01*
X210563088Y-91854020D01*
X223731602Y-91854020D01*
X223731615Y-91854020D01*
X223778971Y-91851199D01*
X223778979Y-91851197D01*
X223778981Y-91851197D01*
X223984927Y-91806396D01*
X223984928Y-91806395D01*
X223984935Y-91806394D01*
X224178698Y-91723420D01*
X224353256Y-91605276D01*
X224502301Y-91456231D01*
X224620445Y-91281673D01*
X224703419Y-91087910D01*
X224748224Y-90881946D01*
X224751045Y-90834590D01*
X224751045Y-77666053D01*
X228593645Y-77666053D01*
X228593645Y-90834586D01*
X228596466Y-90881947D01*
X228596467Y-90881956D01*
X228641268Y-91087902D01*
X228641270Y-91087907D01*
X228641271Y-91087910D01*
X228724245Y-91281673D01*
X228842389Y-91456231D01*
X228991434Y-91605276D01*
X229165992Y-91723420D01*
X229359755Y-91806394D01*
X229359759Y-91806395D01*
X229359762Y-91806396D01*
X229565708Y-91851197D01*
X229565711Y-91851197D01*
X229565719Y-91851199D01*
X229613075Y-91854020D01*
X229613088Y-91854020D01*
X242781602Y-91854020D01*
X242781615Y-91854020D01*
X242828971Y-91851199D01*
X242828979Y-91851197D01*
X242828981Y-91851197D01*
X243034927Y-91806396D01*
X243034928Y-91806395D01*
X243034935Y-91806394D01*
X243228698Y-91723420D01*
X243403256Y-91605276D01*
X243552301Y-91456231D01*
X243670445Y-91281673D01*
X243753419Y-91087910D01*
X243798224Y-90881946D01*
X243801045Y-90834590D01*
X243801045Y-77666053D01*
X247643645Y-77666053D01*
X247643645Y-90834586D01*
X247646466Y-90881947D01*
X247646467Y-90881956D01*
X247691268Y-91087902D01*
X247691270Y-91087907D01*
X247691271Y-91087910D01*
X247774245Y-91281673D01*
X247892389Y-91456231D01*
X248041434Y-91605276D01*
X248215992Y-91723420D01*
X248409755Y-91806394D01*
X248409759Y-91806395D01*
X248409762Y-91806396D01*
X248615708Y-91851197D01*
X248615711Y-91851197D01*
X248615719Y-91851199D01*
X248663075Y-91854020D01*
X248663088Y-91854020D01*
X261831602Y-91854020D01*
X261831615Y-91854020D01*
X261878971Y-91851199D01*
X261878979Y-91851197D01*
X261878981Y-91851197D01*
X262084927Y-91806396D01*
X262084928Y-91806395D01*
X262084935Y-91806394D01*
X262278698Y-91723420D01*
X262453256Y-91605276D01*
X262602301Y-91456231D01*
X262720445Y-91281673D01*
X262803419Y-91087910D01*
X262848224Y-90881946D01*
X262851045Y-90834590D01*
X262851045Y-77666053D01*
X266693645Y-77666053D01*
X266693645Y-90834586D01*
X266696466Y-90881947D01*
X266696467Y-90881956D01*
X266741268Y-91087902D01*
X266741270Y-91087907D01*
X266741271Y-91087910D01*
X266824245Y-91281673D01*
X266942389Y-91456231D01*
X267091434Y-91605276D01*
X267265992Y-91723420D01*
X267459755Y-91806394D01*
X267459759Y-91806395D01*
X267459762Y-91806396D01*
X267665708Y-91851197D01*
X267665711Y-91851197D01*
X267665719Y-91851199D01*
X267713075Y-91854020D01*
X267713088Y-91854020D01*
X280881602Y-91854020D01*
X280881615Y-91854020D01*
X280928971Y-91851199D01*
X280928979Y-91851197D01*
X280928981Y-91851197D01*
X281134927Y-91806396D01*
X281134928Y-91806395D01*
X281134935Y-91806394D01*
X281328698Y-91723420D01*
X281503256Y-91605276D01*
X281652301Y-91456231D01*
X281770445Y-91281673D01*
X281853419Y-91087910D01*
X281898224Y-90881946D01*
X281901045Y-90834590D01*
X281901045Y-90203506D01*
X289466325Y-90203506D01*
X289486782Y-90450396D01*
X289486783Y-90450398D01*
X289547599Y-90690555D01*
X289593260Y-90794652D01*
X289647111Y-90917422D01*
X289647113Y-90917425D01*
X289647114Y-90917427D01*
X289782614Y-91124825D01*
X289950403Y-91307092D01*
X289950406Y-91307094D01*
X290142012Y-91456228D01*
X290142016Y-91456231D01*
X290145903Y-91459256D01*
X290363782Y-91577166D01*
X290598097Y-91657606D01*
X290842456Y-91698383D01*
X291090194Y-91698383D01*
X291334553Y-91657606D01*
X291568868Y-91577166D01*
X291786747Y-91459256D01*
X291982247Y-91307092D01*
X292150036Y-91124825D01*
X292285536Y-90917427D01*
X292385051Y-90690555D01*
X292445867Y-90450398D01*
X292466325Y-90203506D01*
X292445867Y-89956614D01*
X292385051Y-89716457D01*
X292285536Y-89489585D01*
X292150036Y-89282187D01*
X291982247Y-89099920D01*
X291786747Y-88947756D01*
X291568871Y-88829847D01*
X291551492Y-88823880D01*
X291334553Y-88749406D01*
X291334550Y-88749405D01*
X291334549Y-88749405D01*
X291090194Y-88708629D01*
X290842456Y-88708629D01*
X290598100Y-88749405D01*
X290363778Y-88829847D01*
X290145902Y-88947756D01*
X290145899Y-88947758D01*
X289950406Y-89099917D01*
X289950400Y-89099922D01*
X289782616Y-89282184D01*
X289647111Y-89489589D01*
X289580357Y-89641775D01*
X289547599Y-89716457D01*
X289517191Y-89836535D01*
X289486782Y-89956615D01*
X289466325Y-90203506D01*
X281901045Y-90203506D01*
X281901045Y-84250376D01*
X289466325Y-84250376D01*
X289486782Y-84497266D01*
X289486783Y-84497268D01*
X289547599Y-84737425D01*
X289593260Y-84841522D01*
X289647111Y-84964292D01*
X289647113Y-84964295D01*
X289647114Y-84964297D01*
X289782614Y-85171695D01*
X289950403Y-85353962D01*
X290145903Y-85506126D01*
X290363782Y-85624036D01*
X290598097Y-85704476D01*
X290842456Y-85745253D01*
X291090194Y-85745253D01*
X291334553Y-85704476D01*
X291568868Y-85624036D01*
X291786747Y-85506126D01*
X291982247Y-85353962D01*
X292150036Y-85171695D01*
X292285536Y-84964297D01*
X292385051Y-84737425D01*
X292445867Y-84497268D01*
X292466325Y-84250376D01*
X292445867Y-84003484D01*
X292385051Y-83763327D01*
X292285536Y-83536455D01*
X292150036Y-83329057D01*
X291982247Y-83146790D01*
X291786747Y-82994626D01*
X291568871Y-82876717D01*
X291551492Y-82870750D01*
X291334553Y-82796276D01*
X291334550Y-82796275D01*
X291334549Y-82796275D01*
X291090194Y-82755499D01*
X290842456Y-82755499D01*
X290598100Y-82796275D01*
X290363778Y-82876717D01*
X290145902Y-82994626D01*
X290145899Y-82994628D01*
X289950406Y-83146787D01*
X289950400Y-83146792D01*
X289782616Y-83329054D01*
X289647111Y-83536459D01*
X289563983Y-83725974D01*
X289547599Y-83763327D01*
X289517191Y-83883405D01*
X289486782Y-84003485D01*
X289466325Y-84250376D01*
X281901045Y-84250376D01*
X281901045Y-78297246D01*
X289466325Y-78297246D01*
X289486782Y-78544136D01*
X289486783Y-78544138D01*
X289547599Y-78784295D01*
X289593260Y-78888392D01*
X289647111Y-79011162D01*
X289647113Y-79011165D01*
X289647114Y-79011167D01*
X289782614Y-79218565D01*
X289950403Y-79400832D01*
X290145903Y-79552996D01*
X290363782Y-79670906D01*
X290598097Y-79751346D01*
X290842456Y-79792123D01*
X291090194Y-79792123D01*
X291334553Y-79751346D01*
X291568868Y-79670906D01*
X291786747Y-79552996D01*
X291982247Y-79400832D01*
X292150036Y-79218565D01*
X292285536Y-79011167D01*
X292385051Y-78784295D01*
X292445867Y-78544138D01*
X292466325Y-78297246D01*
X292445867Y-78050354D01*
X292385051Y-77810197D01*
X292285536Y-77583325D01*
X292150036Y-77375927D01*
X291982247Y-77193660D01*
X291932825Y-77155193D01*
X291786750Y-77041498D01*
X291786747Y-77041496D01*
X291568871Y-76923587D01*
X291551492Y-76917620D01*
X291334553Y-76843146D01*
X291334550Y-76843145D01*
X291334549Y-76843145D01*
X291090194Y-76802369D01*
X290842456Y-76802369D01*
X290598100Y-76843145D01*
X290363778Y-76923587D01*
X290145902Y-77041496D01*
X290145899Y-77041498D01*
X289950406Y-77193657D01*
X289950400Y-77193662D01*
X289782616Y-77375924D01*
X289647111Y-77583329D01*
X289563983Y-77772844D01*
X289547599Y-77810197D01*
X289517191Y-77930275D01*
X289486782Y-78050355D01*
X289466325Y-78297246D01*
X281901045Y-78297246D01*
X281901045Y-77666050D01*
X281898224Y-77618694D01*
X281853419Y-77412730D01*
X281770445Y-77218967D01*
X281652301Y-77044409D01*
X281503256Y-76895364D01*
X281426104Y-76843146D01*
X281328700Y-76777221D01*
X281328698Y-76777220D01*
X281134935Y-76694246D01*
X281134932Y-76694245D01*
X281134927Y-76694243D01*
X280928981Y-76649442D01*
X280928972Y-76649441D01*
X280919499Y-76648876D01*
X280881615Y-76646620D01*
X267881615Y-76646620D01*
X267713075Y-76646620D01*
X267684661Y-76648312D01*
X267665717Y-76649441D01*
X267665708Y-76649442D01*
X267459762Y-76694243D01*
X267459755Y-76694246D01*
X267265989Y-76777221D01*
X267091436Y-76895362D01*
X266942387Y-77044411D01*
X266824246Y-77218964D01*
X266741271Y-77412730D01*
X266741268Y-77412737D01*
X266696467Y-77618683D01*
X266696466Y-77618692D01*
X266693645Y-77666053D01*
X262851045Y-77666053D01*
X262851045Y-77666050D01*
X262848224Y-77618694D01*
X262803419Y-77412730D01*
X262720445Y-77218967D01*
X262602301Y-77044409D01*
X262453256Y-76895364D01*
X262376104Y-76843146D01*
X262278700Y-76777221D01*
X262278698Y-76777220D01*
X262084935Y-76694246D01*
X262084932Y-76694245D01*
X262084927Y-76694243D01*
X261878981Y-76649442D01*
X261878972Y-76649441D01*
X261869499Y-76648876D01*
X261831615Y-76646620D01*
X248831615Y-76646620D01*
X248663075Y-76646620D01*
X248634661Y-76648312D01*
X248615717Y-76649441D01*
X248615708Y-76649442D01*
X248409762Y-76694243D01*
X248409755Y-76694246D01*
X248215989Y-76777221D01*
X248041436Y-76895362D01*
X247892387Y-77044411D01*
X247774246Y-77218964D01*
X247691271Y-77412730D01*
X247691268Y-77412737D01*
X247646467Y-77618683D01*
X247646466Y-77618692D01*
X247643645Y-77666053D01*
X243801045Y-77666053D01*
X243801045Y-77666050D01*
X243798224Y-77618694D01*
X243753419Y-77412730D01*
X243670445Y-77218967D01*
X243552301Y-77044409D01*
X243403256Y-76895364D01*
X243326104Y-76843146D01*
X243228700Y-76777221D01*
X243228698Y-76777220D01*
X243034935Y-76694246D01*
X243034932Y-76694245D01*
X243034927Y-76694243D01*
X242828981Y-76649442D01*
X242828972Y-76649441D01*
X242819499Y-76648876D01*
X242781615Y-76646620D01*
X229781615Y-76646620D01*
X229613075Y-76646620D01*
X229584661Y-76648312D01*
X229565717Y-76649441D01*
X229565708Y-76649442D01*
X229359762Y-76694243D01*
X229359755Y-76694246D01*
X229165989Y-76777221D01*
X228991436Y-76895362D01*
X228842387Y-77044411D01*
X228724246Y-77218964D01*
X228641271Y-77412730D01*
X228641268Y-77412737D01*
X228596467Y-77618683D01*
X228596466Y-77618692D01*
X228593645Y-77666053D01*
X224751045Y-77666053D01*
X224751045Y-77666050D01*
X224748224Y-77618694D01*
X224703419Y-77412730D01*
X224620445Y-77218967D01*
X224502301Y-77044409D01*
X224353256Y-76895364D01*
X224276104Y-76843146D01*
X224178700Y-76777221D01*
X224178698Y-76777220D01*
X223984935Y-76694246D01*
X223984932Y-76694245D01*
X223984927Y-76694243D01*
X223778981Y-76649442D01*
X223778972Y-76649441D01*
X223769499Y-76648876D01*
X223731615Y-76646620D01*
X210731615Y-76646620D01*
X210563075Y-76646620D01*
X210534661Y-76648312D01*
X210515717Y-76649441D01*
X210515708Y-76649442D01*
X210309762Y-76694243D01*
X210309755Y-76694246D01*
X210115989Y-76777221D01*
X209941436Y-76895362D01*
X209792387Y-77044411D01*
X209674246Y-77218964D01*
X209591271Y-77412730D01*
X209591268Y-77412737D01*
X209546467Y-77618683D01*
X209546466Y-77618692D01*
X209543645Y-77666053D01*
X208294130Y-77666053D01*
X208293148Y-76114989D01*
X208293147Y-76114987D01*
X208293143Y-76108949D01*
X208293136Y-75994018D01*
X208257609Y-75724284D01*
X208187181Y-75461493D01*
X208083058Y-75210143D01*
X208083058Y-75210142D01*
X207947024Y-74974537D01*
X207947023Y-74974536D01*
X207947021Y-74974532D01*
X207781397Y-74758691D01*
X207589020Y-74566312D01*
X207373179Y-74400687D01*
X207373178Y-74400686D01*
X207373175Y-74400684D01*
X207137570Y-74264648D01*
X207137567Y-74264647D01*
X206886233Y-74160528D01*
X206886224Y-74160525D01*
X206886219Y-74160523D01*
X206802862Y-74138183D01*
X206623429Y-74090093D01*
X206353696Y-74054565D01*
X206353690Y-74054564D01*
X206244202Y-74054556D01*
X206244188Y-74054555D01*
X206232676Y-74054555D01*
X206217664Y-74054555D01*
X206193133Y-74054553D01*
X206193132Y-74054553D01*
X206178490Y-74054552D01*
X206178470Y-74054555D01*
X200914658Y-74054555D01*
X200914637Y-74054552D01*
X200878710Y-74054554D01*
X200872237Y-74054343D01*
X200630731Y-74038533D01*
X200617890Y-74036843D01*
X200383713Y-73990278D01*
X200371204Y-73986927D01*
X200145106Y-73910191D01*
X200133140Y-73905235D01*
X199918997Y-73799642D01*
X199907781Y-73793167D01*
X199709247Y-73660518D01*
X199698980Y-73652640D01*
X199519460Y-73495209D01*
X199510304Y-73486053D01*
X199352876Y-73306541D01*
X199344992Y-73296266D01*
X199212348Y-73097744D01*
X199205872Y-73086528D01*
X199100271Y-72872376D01*
X199095316Y-72860411D01*
X199018580Y-72634323D01*
X199015228Y-72621813D01*
X199001997Y-72555277D01*
X198968655Y-72387615D01*
X198966969Y-72374791D01*
X198951181Y-72133677D01*
X198950970Y-72127209D01*
X198950971Y-72105529D01*
X198950970Y-72105527D01*
X198950970Y-58616053D01*
X200018645Y-58616053D01*
X200018645Y-71784586D01*
X200021466Y-71831947D01*
X200021467Y-71831956D01*
X200066268Y-72037902D01*
X200066270Y-72037907D01*
X200066271Y-72037910D01*
X200149245Y-72231673D01*
X200267389Y-72406231D01*
X200416434Y-72555276D01*
X200590992Y-72673420D01*
X200784755Y-72756394D01*
X200784759Y-72756395D01*
X200784762Y-72756396D01*
X200990708Y-72801197D01*
X200990711Y-72801197D01*
X200990719Y-72801199D01*
X201038075Y-72804020D01*
X201038088Y-72804020D01*
X214206602Y-72804020D01*
X214206615Y-72804020D01*
X214253971Y-72801199D01*
X214253979Y-72801197D01*
X214253981Y-72801197D01*
X214459927Y-72756396D01*
X214459928Y-72756395D01*
X214459935Y-72756394D01*
X214653698Y-72673420D01*
X214828256Y-72555276D01*
X214977301Y-72406231D01*
X215095445Y-72231673D01*
X215178419Y-72037910D01*
X215223224Y-71831946D01*
X215226045Y-71784590D01*
X215226045Y-58616053D01*
X219068645Y-58616053D01*
X219068645Y-71784586D01*
X219071466Y-71831947D01*
X219071467Y-71831956D01*
X219116268Y-72037902D01*
X219116270Y-72037907D01*
X219116271Y-72037910D01*
X219199245Y-72231673D01*
X219317389Y-72406231D01*
X219466434Y-72555276D01*
X219640992Y-72673420D01*
X219834755Y-72756394D01*
X219834759Y-72756395D01*
X219834762Y-72756396D01*
X220040708Y-72801197D01*
X220040711Y-72801197D01*
X220040719Y-72801199D01*
X220088075Y-72804020D01*
X220088088Y-72804020D01*
X233256602Y-72804020D01*
X233256615Y-72804020D01*
X233303971Y-72801199D01*
X233303979Y-72801197D01*
X233303981Y-72801197D01*
X233509927Y-72756396D01*
X233509928Y-72756395D01*
X233509935Y-72756394D01*
X233703698Y-72673420D01*
X233878256Y-72555276D01*
X234027301Y-72406231D01*
X234145445Y-72231673D01*
X234228419Y-72037910D01*
X234273224Y-71831946D01*
X234276045Y-71784590D01*
X234276045Y-58616053D01*
X238118645Y-58616053D01*
X238118645Y-71784586D01*
X238121466Y-71831947D01*
X238121467Y-71831956D01*
X238166268Y-72037902D01*
X238166270Y-72037907D01*
X238166271Y-72037910D01*
X238249245Y-72231673D01*
X238367389Y-72406231D01*
X238516434Y-72555276D01*
X238690992Y-72673420D01*
X238884755Y-72756394D01*
X238884759Y-72756395D01*
X238884762Y-72756396D01*
X239090708Y-72801197D01*
X239090711Y-72801197D01*
X239090719Y-72801199D01*
X239138075Y-72804020D01*
X239138088Y-72804020D01*
X252306602Y-72804020D01*
X252306615Y-72804020D01*
X252353971Y-72801199D01*
X252353979Y-72801197D01*
X252353981Y-72801197D01*
X252559927Y-72756396D01*
X252559928Y-72756395D01*
X252559935Y-72756394D01*
X252753698Y-72673420D01*
X252928256Y-72555276D01*
X253077301Y-72406231D01*
X253195445Y-72231673D01*
X253278419Y-72037910D01*
X253323224Y-71831946D01*
X253326045Y-71784590D01*
X253326045Y-58616053D01*
X257168645Y-58616053D01*
X257168645Y-71784586D01*
X257171466Y-71831947D01*
X257171467Y-71831956D01*
X257216268Y-72037902D01*
X257216270Y-72037907D01*
X257216271Y-72037910D01*
X257299245Y-72231673D01*
X257417389Y-72406231D01*
X257566434Y-72555276D01*
X257740992Y-72673420D01*
X257934755Y-72756394D01*
X257934759Y-72756395D01*
X257934762Y-72756396D01*
X258140708Y-72801197D01*
X258140711Y-72801197D01*
X258140719Y-72801199D01*
X258188075Y-72804020D01*
X258188088Y-72804020D01*
X271356602Y-72804020D01*
X271356615Y-72804020D01*
X271403971Y-72801199D01*
X271403979Y-72801197D01*
X271403981Y-72801197D01*
X271609927Y-72756396D01*
X271609928Y-72756395D01*
X271609935Y-72756394D01*
X271803698Y-72673420D01*
X271978256Y-72555276D01*
X272127301Y-72406231D01*
X272245445Y-72231673D01*
X272328419Y-72037910D01*
X272373224Y-71831946D01*
X272376045Y-71784590D01*
X272376045Y-58616053D01*
X276218645Y-58616053D01*
X276218645Y-71784586D01*
X276221466Y-71831947D01*
X276221467Y-71831956D01*
X276266268Y-72037902D01*
X276266270Y-72037907D01*
X276266271Y-72037910D01*
X276349245Y-72231673D01*
X276467389Y-72406231D01*
X276616434Y-72555276D01*
X276790992Y-72673420D01*
X276984755Y-72756394D01*
X276984759Y-72756395D01*
X276984762Y-72756396D01*
X277190708Y-72801197D01*
X277190711Y-72801197D01*
X277190719Y-72801199D01*
X277238075Y-72804020D01*
X277238088Y-72804020D01*
X290406602Y-72804020D01*
X290406615Y-72804020D01*
X290453971Y-72801199D01*
X290453979Y-72801197D01*
X290453981Y-72801197D01*
X290659927Y-72756396D01*
X290659928Y-72756395D01*
X290659935Y-72756394D01*
X290853698Y-72673420D01*
X291028256Y-72555276D01*
X291177301Y-72406231D01*
X291295445Y-72231673D01*
X291378419Y-72037910D01*
X291423224Y-71831946D01*
X291426045Y-71784590D01*
X291426045Y-58616050D01*
X291423224Y-58568694D01*
X291378419Y-58362730D01*
X291295445Y-58168967D01*
X291177301Y-57994409D01*
X291028256Y-57845364D01*
X290858639Y-57730564D01*
X290853700Y-57727221D01*
X290846391Y-57724091D01*
X290659935Y-57644246D01*
X290659932Y-57644245D01*
X290659927Y-57644243D01*
X290453981Y-57599442D01*
X290453972Y-57599441D01*
X290444499Y-57598876D01*
X290406615Y-57596620D01*
X277406615Y-57596620D01*
X277238075Y-57596620D01*
X277209661Y-57598312D01*
X277190717Y-57599441D01*
X277190708Y-57599442D01*
X276984762Y-57644243D01*
X276984755Y-57644246D01*
X276790989Y-57727221D01*
X276616436Y-57845362D01*
X276467387Y-57994411D01*
X276349246Y-58168964D01*
X276266271Y-58362730D01*
X276266268Y-58362737D01*
X276221467Y-58568683D01*
X276221466Y-58568692D01*
X276218645Y-58616053D01*
X272376045Y-58616053D01*
X272376045Y-58616050D01*
X272373224Y-58568694D01*
X272328419Y-58362730D01*
X272245445Y-58168967D01*
X272127301Y-57994409D01*
X271978256Y-57845364D01*
X271808639Y-57730564D01*
X271803700Y-57727221D01*
X271796391Y-57724091D01*
X271609935Y-57644246D01*
X271609932Y-57644245D01*
X271609927Y-57644243D01*
X271403981Y-57599442D01*
X271403972Y-57599441D01*
X271394499Y-57598876D01*
X271356615Y-57596620D01*
X258356615Y-57596620D01*
X258188075Y-57596620D01*
X258159661Y-57598312D01*
X258140717Y-57599441D01*
X258140708Y-57599442D01*
X257934762Y-57644243D01*
X257934755Y-57644246D01*
X257740989Y-57727221D01*
X257566436Y-57845362D01*
X257417387Y-57994411D01*
X257299246Y-58168964D01*
X257216271Y-58362730D01*
X257216268Y-58362737D01*
X257171467Y-58568683D01*
X257171466Y-58568692D01*
X257168645Y-58616053D01*
X253326045Y-58616053D01*
X253326045Y-58616050D01*
X253323224Y-58568694D01*
X253278419Y-58362730D01*
X253195445Y-58168967D01*
X253077301Y-57994409D01*
X252928256Y-57845364D01*
X252758639Y-57730564D01*
X252753700Y-57727221D01*
X252746391Y-57724091D01*
X252559935Y-57644246D01*
X252559932Y-57644245D01*
X252559927Y-57644243D01*
X252353981Y-57599442D01*
X252353972Y-57599441D01*
X252344499Y-57598876D01*
X252306615Y-57596620D01*
X239306615Y-57596620D01*
X239138075Y-57596620D01*
X239109661Y-57598312D01*
X239090717Y-57599441D01*
X239090708Y-57599442D01*
X238884762Y-57644243D01*
X238884755Y-57644246D01*
X238690989Y-57727221D01*
X238516436Y-57845362D01*
X238367387Y-57994411D01*
X238249246Y-58168964D01*
X238166271Y-58362730D01*
X238166268Y-58362737D01*
X238121467Y-58568683D01*
X238121466Y-58568692D01*
X238118645Y-58616053D01*
X234276045Y-58616053D01*
X234276045Y-58616050D01*
X234273224Y-58568694D01*
X234228419Y-58362730D01*
X234145445Y-58168967D01*
X234027301Y-57994409D01*
X233878256Y-57845364D01*
X233708639Y-57730564D01*
X233703700Y-57727221D01*
X233696391Y-57724091D01*
X233509935Y-57644246D01*
X233509932Y-57644245D01*
X233509927Y-57644243D01*
X233303981Y-57599442D01*
X233303972Y-57599441D01*
X233294499Y-57598876D01*
X233256615Y-57596620D01*
X220256615Y-57596620D01*
X220088075Y-57596620D01*
X220059661Y-57598312D01*
X220040717Y-57599441D01*
X220040708Y-57599442D01*
X219834762Y-57644243D01*
X219834755Y-57644246D01*
X219640989Y-57727221D01*
X219466436Y-57845362D01*
X219317387Y-57994411D01*
X219199246Y-58168964D01*
X219116271Y-58362730D01*
X219116268Y-58362737D01*
X219071467Y-58568683D01*
X219071466Y-58568692D01*
X219068645Y-58616053D01*
X215226045Y-58616053D01*
X215226045Y-58616050D01*
X215223224Y-58568694D01*
X215178419Y-58362730D01*
X215095445Y-58168967D01*
X214977301Y-57994409D01*
X214828256Y-57845364D01*
X214658639Y-57730564D01*
X214653700Y-57727221D01*
X214646391Y-57724091D01*
X214459935Y-57644246D01*
X214459932Y-57644245D01*
X214459927Y-57644243D01*
X214253981Y-57599442D01*
X214253972Y-57599441D01*
X214244499Y-57598876D01*
X214206615Y-57596620D01*
X201206615Y-57596620D01*
X201038075Y-57596620D01*
X201009661Y-57598312D01*
X200990717Y-57599441D01*
X200990708Y-57599442D01*
X200784762Y-57644243D01*
X200784755Y-57644246D01*
X200590989Y-57727221D01*
X200416436Y-57845362D01*
X200267387Y-57994411D01*
X200149246Y-58168964D01*
X200066271Y-58362730D01*
X200066268Y-58362737D01*
X200021467Y-58568683D01*
X200021466Y-58568692D01*
X200018645Y-58616053D01*
X198950970Y-58616053D01*
X198950970Y-57978527D01*
X198951182Y-57972047D01*
X198959492Y-57845364D01*
X198967023Y-57730558D01*
X198968714Y-57717726D01*
X199015307Y-57483545D01*
X199018651Y-57471063D01*
X199095412Y-57244960D01*
X199100359Y-57233016D01*
X199205976Y-57018858D01*
X199212433Y-57007675D01*
X199345099Y-56809132D01*
X199352979Y-56798865D01*
X199510400Y-56619361D01*
X199519547Y-56610213D01*
X199699068Y-56452775D01*
X199709326Y-56444903D01*
X199907858Y-56312244D01*
X199919069Y-56305772D01*
X200133205Y-56200164D01*
X200145147Y-56195217D01*
X200371245Y-56118457D01*
X200383746Y-56115106D01*
X200617922Y-56068514D01*
X200630748Y-56066824D01*
X200872091Y-56050991D01*
X200878572Y-56050780D01*
X215522101Y-56050780D01*
X215522444Y-56050745D01*
X215633378Y-56050748D01*
X215903121Y-56015243D01*
X216165923Y-55944831D01*
X216417284Y-55840719D01*
X216652906Y-55704688D01*
X216868756Y-55539064D01*
X217061140Y-55346683D01*
X217226767Y-55130836D01*
X217362803Y-54895217D01*
X217466920Y-54643857D01*
X217537335Y-54381057D01*
X217572846Y-54111314D01*
X217572845Y-53975279D01*
X217572845Y-39566053D01*
X219068645Y-39566053D01*
X219068645Y-52734586D01*
X219071466Y-52781947D01*
X219071467Y-52781956D01*
X219116268Y-52987902D01*
X219116270Y-52987907D01*
X219116271Y-52987910D01*
X219199245Y-53181673D01*
X219317389Y-53356231D01*
X219466434Y-53505276D01*
X219640992Y-53623420D01*
X219834755Y-53706394D01*
X219834759Y-53706395D01*
X219834762Y-53706396D01*
X220040708Y-53751197D01*
X220040711Y-53751197D01*
X220040719Y-53751199D01*
X220088075Y-53754020D01*
X220088088Y-53754020D01*
X233256602Y-53754020D01*
X233256615Y-53754020D01*
X233303971Y-53751199D01*
X233303979Y-53751197D01*
X233303981Y-53751197D01*
X233509927Y-53706396D01*
X233509928Y-53706395D01*
X233509935Y-53706394D01*
X233703698Y-53623420D01*
X233878256Y-53505276D01*
X234027301Y-53356231D01*
X234145445Y-53181673D01*
X234228419Y-52987910D01*
X234273224Y-52781946D01*
X234276045Y-52734590D01*
X234276045Y-39566053D01*
X238118645Y-39566053D01*
X238118645Y-52734586D01*
X238121466Y-52781947D01*
X238121467Y-52781956D01*
X238166268Y-52987902D01*
X238166270Y-52987907D01*
X238166271Y-52987910D01*
X238249245Y-53181673D01*
X238367389Y-53356231D01*
X238516434Y-53505276D01*
X238690992Y-53623420D01*
X238884755Y-53706394D01*
X238884759Y-53706395D01*
X238884762Y-53706396D01*
X239090708Y-53751197D01*
X239090711Y-53751197D01*
X239090719Y-53751199D01*
X239138075Y-53754020D01*
X239138088Y-53754020D01*
X252306602Y-53754020D01*
X252306615Y-53754020D01*
X252353971Y-53751199D01*
X252353979Y-53751197D01*
X252353981Y-53751197D01*
X252559927Y-53706396D01*
X252559928Y-53706395D01*
X252559935Y-53706394D01*
X252753698Y-53623420D01*
X252928256Y-53505276D01*
X253077301Y-53356231D01*
X253195445Y-53181673D01*
X253278419Y-52987910D01*
X253323224Y-52781946D01*
X253326045Y-52734590D01*
X253326045Y-39566050D01*
X253323224Y-39518694D01*
X253278419Y-39312730D01*
X253195445Y-39118967D01*
X253077301Y-38944409D01*
X252928256Y-38795364D01*
X252914412Y-38785994D01*
X252753700Y-38677221D01*
X252753698Y-38677220D01*
X252559935Y-38594246D01*
X252559932Y-38594245D01*
X252559927Y-38594243D01*
X252353981Y-38549442D01*
X252353972Y-38549441D01*
X252344499Y-38548876D01*
X252306615Y-38546620D01*
X239306615Y-38546620D01*
X239138075Y-38546620D01*
X239109661Y-38548312D01*
X239090717Y-38549441D01*
X239090708Y-38549442D01*
X238884762Y-38594243D01*
X238884755Y-38594246D01*
X238690989Y-38677221D01*
X238516436Y-38795362D01*
X238367387Y-38944411D01*
X238249246Y-39118964D01*
X238166271Y-39312730D01*
X238166268Y-39312737D01*
X238121467Y-39518683D01*
X238121466Y-39518692D01*
X238118645Y-39566053D01*
X234276045Y-39566053D01*
X234276045Y-39566050D01*
X234273224Y-39518694D01*
X234228419Y-39312730D01*
X234145445Y-39118967D01*
X234027301Y-38944409D01*
X233878256Y-38795364D01*
X233864412Y-38785994D01*
X233703700Y-38677221D01*
X233703698Y-38677220D01*
X233509935Y-38594246D01*
X233509932Y-38594245D01*
X233509927Y-38594243D01*
X233303981Y-38549442D01*
X233303972Y-38549441D01*
X233294499Y-38548876D01*
X233256615Y-38546620D01*
X220256615Y-38546620D01*
X220088075Y-38546620D01*
X220059661Y-38548312D01*
X220040717Y-38549441D01*
X220040708Y-38549442D01*
X219834762Y-38594243D01*
X219834755Y-38594246D01*
X219640989Y-38677221D01*
X219466436Y-38795362D01*
X219317387Y-38944411D01*
X219199246Y-39118964D01*
X219116271Y-39312730D01*
X219116268Y-39312737D01*
X219071467Y-39518683D01*
X219071466Y-39518692D01*
X219068645Y-39566053D01*
X217572845Y-39566053D01*
X217572845Y-36547272D01*
X217573057Y-36540794D01*
X217581765Y-36407998D01*
X217588893Y-36299301D01*
X217590583Y-36286474D01*
X217637171Y-36052292D01*
X217640516Y-36039810D01*
X217717274Y-35813707D01*
X217722224Y-35801756D01*
X217827836Y-35587606D01*
X217834300Y-35576410D01*
X217966958Y-35377877D01*
X217974824Y-35367625D01*
X218132275Y-35188090D01*
X218141407Y-35178959D01*
X218320937Y-35021516D01*
X218331181Y-35013656D01*
X218529725Y-34880991D01*
X218540921Y-34874527D01*
X218755074Y-34768917D01*
X218767009Y-34763972D01*
X218993132Y-34687210D01*
X219005611Y-34683866D01*
X219239797Y-34637279D01*
X219252613Y-34635591D01*
X219494347Y-34619741D01*
X219500814Y-34619530D01*
X252831599Y-34619530D01*
X252838076Y-34619742D01*
G37*
G04 #@! TD.AperFunction*
G04 #@! TA.AperFunction,NonConductor*
G36*
X251077836Y-40772927D02*
G01*
X251113800Y-40822427D01*
X251118645Y-40853020D01*
X251118645Y-51447620D01*
X251099738Y-51505811D01*
X251050238Y-51541775D01*
X251019645Y-51546620D01*
X240425045Y-51546620D01*
X240366854Y-51527713D01*
X240330890Y-51478213D01*
X240326045Y-51447620D01*
X240326045Y-40853020D01*
X240344952Y-40794829D01*
X240394452Y-40758865D01*
X240425045Y-40754020D01*
X251019645Y-40754020D01*
X251077836Y-40772927D01*
G37*
G04 #@! TD.AperFunction*
G04 #@! TA.AperFunction,NonConductor*
G36*
X232027836Y-40772927D02*
G01*
X232063800Y-40822427D01*
X232068645Y-40853020D01*
X232068645Y-51447620D01*
X232049738Y-51505811D01*
X232000238Y-51541775D01*
X231969645Y-51546620D01*
X221375045Y-51546620D01*
X221316854Y-51527713D01*
X221280890Y-51478213D01*
X221276045Y-51447620D01*
X221276045Y-40853020D01*
X221294952Y-40794829D01*
X221344452Y-40758865D01*
X221375045Y-40754020D01*
X231969645Y-40754020D01*
X232027836Y-40772927D01*
G37*
G04 #@! TD.AperFunction*
G04 #@! TA.AperFunction,NonConductor*
G36*
X289177836Y-59822927D02*
G01*
X289213800Y-59872427D01*
X289218645Y-59903020D01*
X289218645Y-70497620D01*
X289199738Y-70555811D01*
X289150238Y-70591775D01*
X289119645Y-70596620D01*
X278525045Y-70596620D01*
X278466854Y-70577713D01*
X278430890Y-70528213D01*
X278426045Y-70497620D01*
X278426045Y-59903020D01*
X278444952Y-59844829D01*
X278494452Y-59808865D01*
X278525045Y-59804020D01*
X289119645Y-59804020D01*
X289177836Y-59822927D01*
G37*
G04 #@! TD.AperFunction*
G04 #@! TA.AperFunction,NonConductor*
G36*
X270127836Y-59822927D02*
G01*
X270163800Y-59872427D01*
X270168645Y-59903020D01*
X270168645Y-70497620D01*
X270149738Y-70555811D01*
X270100238Y-70591775D01*
X270069645Y-70596620D01*
X259475045Y-70596620D01*
X259416854Y-70577713D01*
X259380890Y-70528213D01*
X259376045Y-70497620D01*
X259376045Y-59903020D01*
X259394952Y-59844829D01*
X259444452Y-59808865D01*
X259475045Y-59804020D01*
X270069645Y-59804020D01*
X270127836Y-59822927D01*
G37*
G04 #@! TD.AperFunction*
G04 #@! TA.AperFunction,NonConductor*
G36*
X251077836Y-59822927D02*
G01*
X251113800Y-59872427D01*
X251118645Y-59903020D01*
X251118645Y-70497620D01*
X251099738Y-70555811D01*
X251050238Y-70591775D01*
X251019645Y-70596620D01*
X240425045Y-70596620D01*
X240366854Y-70577713D01*
X240330890Y-70528213D01*
X240326045Y-70497620D01*
X240326045Y-59903020D01*
X240344952Y-59844829D01*
X240394452Y-59808865D01*
X240425045Y-59804020D01*
X251019645Y-59804020D01*
X251077836Y-59822927D01*
G37*
G04 #@! TD.AperFunction*
G04 #@! TA.AperFunction,NonConductor*
G36*
X232027836Y-59822927D02*
G01*
X232063800Y-59872427D01*
X232068645Y-59903020D01*
X232068645Y-70497620D01*
X232049738Y-70555811D01*
X232000238Y-70591775D01*
X231969645Y-70596620D01*
X221375045Y-70596620D01*
X221316854Y-70577713D01*
X221280890Y-70528213D01*
X221276045Y-70497620D01*
X221276045Y-59903020D01*
X221294952Y-59844829D01*
X221344452Y-59808865D01*
X221375045Y-59804020D01*
X231969645Y-59804020D01*
X232027836Y-59822927D01*
G37*
G04 #@! TD.AperFunction*
G04 #@! TA.AperFunction,NonConductor*
G36*
X212977836Y-59822927D02*
G01*
X213013800Y-59872427D01*
X213018645Y-59903020D01*
X213018645Y-70497620D01*
X212999738Y-70555811D01*
X212950238Y-70591775D01*
X212919645Y-70596620D01*
X202325045Y-70596620D01*
X202266854Y-70577713D01*
X202230890Y-70528213D01*
X202226045Y-70497620D01*
X202226045Y-59903020D01*
X202244952Y-59844829D01*
X202294452Y-59808865D01*
X202325045Y-59804020D01*
X212919645Y-59804020D01*
X212977836Y-59822927D01*
G37*
G04 #@! TD.AperFunction*
G04 #@! TA.AperFunction,NonConductor*
G36*
X279652836Y-78872927D02*
G01*
X279688800Y-78922427D01*
X279693645Y-78953020D01*
X279693645Y-89547620D01*
X279674738Y-89605811D01*
X279625238Y-89641775D01*
X279594645Y-89646620D01*
X269000045Y-89646620D01*
X268941854Y-89627713D01*
X268905890Y-89578213D01*
X268901045Y-89547620D01*
X268901045Y-78953020D01*
X268919952Y-78894829D01*
X268969452Y-78858865D01*
X269000045Y-78854020D01*
X279594645Y-78854020D01*
X279652836Y-78872927D01*
G37*
G04 #@! TD.AperFunction*
G04 #@! TA.AperFunction,NonConductor*
G36*
X260602836Y-78872927D02*
G01*
X260638800Y-78922427D01*
X260643645Y-78953020D01*
X260643645Y-89547620D01*
X260624738Y-89605811D01*
X260575238Y-89641775D01*
X260544645Y-89646620D01*
X249950045Y-89646620D01*
X249891854Y-89627713D01*
X249855890Y-89578213D01*
X249851045Y-89547620D01*
X249851045Y-78953020D01*
X249869952Y-78894829D01*
X249919452Y-78858865D01*
X249950045Y-78854020D01*
X260544645Y-78854020D01*
X260602836Y-78872927D01*
G37*
G04 #@! TD.AperFunction*
G04 #@! TA.AperFunction,NonConductor*
G36*
X241552836Y-78872927D02*
G01*
X241588800Y-78922427D01*
X241593645Y-78953020D01*
X241593645Y-89547620D01*
X241574738Y-89605811D01*
X241525238Y-89641775D01*
X241494645Y-89646620D01*
X230900045Y-89646620D01*
X230841854Y-89627713D01*
X230805890Y-89578213D01*
X230801045Y-89547620D01*
X230801045Y-78953020D01*
X230819952Y-78894829D01*
X230869452Y-78858865D01*
X230900045Y-78854020D01*
X241494645Y-78854020D01*
X241552836Y-78872927D01*
G37*
G04 #@! TD.AperFunction*
G04 #@! TA.AperFunction,NonConductor*
G36*
X222502836Y-78872927D02*
G01*
X222538800Y-78922427D01*
X222543645Y-78953020D01*
X222543645Y-89547620D01*
X222524738Y-89605811D01*
X222475238Y-89641775D01*
X222444645Y-89646620D01*
X211850045Y-89646620D01*
X211791854Y-89627713D01*
X211755890Y-89578213D01*
X211751045Y-89547620D01*
X211751045Y-78953020D01*
X211769952Y-78894829D01*
X211819452Y-78858865D01*
X211850045Y-78854020D01*
X222444645Y-78854020D01*
X222502836Y-78872927D01*
G37*
G04 #@! TD.AperFunction*
G04 #@! TA.AperFunction,NonConductor*
G36*
X246315336Y-97922927D02*
G01*
X246351300Y-97972427D01*
X246356145Y-98003020D01*
X246356145Y-108597620D01*
X246337238Y-108655811D01*
X246287738Y-108691775D01*
X246257145Y-108696620D01*
X235662545Y-108696620D01*
X235604354Y-108677713D01*
X235568390Y-108628213D01*
X235563545Y-108597620D01*
X235563545Y-98003020D01*
X235582452Y-97944829D01*
X235631952Y-97908865D01*
X235662545Y-97904020D01*
X246257145Y-97904020D01*
X246315336Y-97922927D01*
G37*
G04 #@! TD.AperFunction*
G04 #@! TA.AperFunction,NonConductor*
G36*
X227265336Y-97922927D02*
G01*
X227301300Y-97972427D01*
X227306145Y-98003020D01*
X227306145Y-108597620D01*
X227287238Y-108655811D01*
X227237738Y-108691775D01*
X227207145Y-108696620D01*
X216612545Y-108696620D01*
X216554354Y-108677713D01*
X216518390Y-108628213D01*
X216513545Y-108597620D01*
X216513545Y-98003020D01*
X216532452Y-97944829D01*
X216581952Y-97908865D01*
X216612545Y-97904020D01*
X227207145Y-97904020D01*
X227265336Y-97922927D01*
G37*
G04 #@! TD.AperFunction*
M02*
