G04 #@! TF.GenerationSoftware,KiCad,Pcbnew,8.0.5*
G04 #@! TF.CreationDate,2024-09-18T07:39:23+09:00*
G04 #@! TF.ProjectId,SandyLP_Plate_Middle_Isolated_area,53616e64-794c-4505-9f50-6c6174655f4d,v.0*
G04 #@! TF.SameCoordinates,Original*
G04 #@! TF.FileFunction,Copper,L2,Bot*
G04 #@! TF.FilePolarity,Positive*
%FSLAX46Y46*%
G04 Gerber Fmt 4.6, Leading zero omitted, Abs format (unit mm)*
G04 Created by KiCad (PCBNEW 8.0.5) date 2024-09-18 07:39:23*
%MOMM*%
%LPD*%
G01*
G04 APERTURE LIST*
G04 Aperture macros list*
%AMRoundRect*
0 Rectangle with rounded corners*
0 $1 Rounding radius*
0 $2 $3 $4 $5 $6 $7 $8 $9 X,Y pos of 4 corners*
0 Add a 4 corners polygon primitive as box body*
4,1,4,$2,$3,$4,$5,$6,$7,$8,$9,$2,$3,0*
0 Add four circle primitives for the rounded corners*
1,1,$1+$1,$2,$3*
1,1,$1+$1,$4,$5*
1,1,$1+$1,$6,$7*
1,1,$1+$1,$8,$9*
0 Add four rect primitives between the rounded corners*
20,1,$1+$1,$2,$3,$4,$5,0*
20,1,$1+$1,$4,$5,$6,$7,0*
20,1,$1+$1,$6,$7,$8,$9,0*
20,1,$1+$1,$8,$9,$2,$3,0*%
G04 Aperture macros list end*
G04 #@! TA.AperFunction,WasherPad*
%ADD10RoundRect,0.900000X0.000010X-6.500000X0.000010X6.500000X-0.000010X6.500000X-0.000010X-6.500000X0*%
G04 #@! TD*
G04 #@! TA.AperFunction,WasherPad*
%ADD11RoundRect,0.900000X-6.500000X-0.000010X6.500000X-0.000010X6.500000X0.000010X-6.500000X0.000010X0*%
G04 #@! TD*
G04 APERTURE END LIST*
D10*
X33608435Y-49625280D03*
D11*
X40108435Y-43125280D03*
X40108435Y-56125280D03*
D10*
X46608435Y-49625280D03*
X52658435Y-49625280D03*
D11*
X59158435Y-43125280D03*
X59158435Y-56125280D03*
D10*
X65658435Y-49625280D03*
G04 #@! TA.AperFunction,NonConductor*
G36*
X66334089Y-38169491D02*
G01*
X66365204Y-38169490D01*
X66371675Y-38169701D01*
X66603381Y-38184882D01*
X66616204Y-38186569D01*
X66840763Y-38231232D01*
X66853265Y-38234581D01*
X66867909Y-38239552D01*
X67070071Y-38308173D01*
X67082035Y-38313128D01*
X67287380Y-38414391D01*
X67298585Y-38420860D01*
X67488961Y-38548064D01*
X67499218Y-38555934D01*
X67671361Y-38706900D01*
X67680513Y-38716053D01*
X67831475Y-38888196D01*
X67839358Y-38898470D01*
X67966547Y-39088828D01*
X67973022Y-39100043D01*
X68074279Y-39305382D01*
X68079235Y-39317347D01*
X68152823Y-39534152D01*
X68156174Y-39546661D01*
X68200831Y-39771208D01*
X68202521Y-39784048D01*
X68217720Y-40016097D01*
X68217932Y-40022627D01*
X68207961Y-56804827D01*
X68207935Y-56805065D01*
X68207935Y-56847043D01*
X68207723Y-56853517D01*
X68192539Y-57085217D01*
X68190849Y-57098056D01*
X68146183Y-57322615D01*
X68142831Y-57335123D01*
X68069243Y-57551915D01*
X68064288Y-57563879D01*
X67963023Y-57769231D01*
X67956548Y-57780446D01*
X67829355Y-57970809D01*
X67821472Y-57981083D01*
X67670514Y-58153223D01*
X67661357Y-58162380D01*
X67489226Y-58313339D01*
X67478953Y-58321223D01*
X67288590Y-58448423D01*
X67277375Y-58454898D01*
X67072026Y-58556168D01*
X67060062Y-58561123D01*
X66843269Y-58634719D01*
X66830761Y-58638071D01*
X66606211Y-58682741D01*
X66593371Y-58684432D01*
X66362520Y-58699566D01*
X66356007Y-58699778D01*
X28116062Y-58685581D01*
X28115917Y-58685566D01*
X28105283Y-58685566D01*
X28074170Y-58685566D01*
X28067697Y-58685354D01*
X27835998Y-58670171D01*
X27823158Y-58668481D01*
X27598607Y-58623818D01*
X27586098Y-58620466D01*
X27369302Y-58546876D01*
X27357338Y-58541921D01*
X27151996Y-58440659D01*
X27140781Y-58434184D01*
X26971719Y-58321223D01*
X26950410Y-58306985D01*
X26940139Y-58299103D01*
X26786942Y-58164753D01*
X26768007Y-58148147D01*
X26758851Y-58138991D01*
X26607893Y-57966856D01*
X26600017Y-57956592D01*
X26482321Y-57780446D01*
X26472815Y-57766219D01*
X26466340Y-57755004D01*
X26365077Y-57549660D01*
X26360127Y-57537709D01*
X26286530Y-57320892D01*
X26283183Y-57308397D01*
X26240849Y-57095557D01*
X26238517Y-57083833D01*
X26236829Y-57071007D01*
X26221647Y-56839319D01*
X26221435Y-56832846D01*
X26221435Y-43041245D01*
X32507935Y-43041245D01*
X32507935Y-56209314D01*
X32510747Y-56256526D01*
X32510748Y-56256535D01*
X32555420Y-56461884D01*
X32555420Y-56461887D01*
X32555421Y-56461891D01*
X32555422Y-56461892D01*
X32638156Y-56655093D01*
X32755958Y-56829145D01*
X32904570Y-56977757D01*
X33078622Y-57095559D01*
X33271823Y-57178293D01*
X33271828Y-57178294D01*
X33477179Y-57222966D01*
X33477182Y-57222966D01*
X33477190Y-57222968D01*
X33524397Y-57225780D01*
X33524410Y-57225780D01*
X46692460Y-57225780D01*
X46692473Y-57225780D01*
X46739680Y-57222968D01*
X46739688Y-57222966D01*
X46739690Y-57222966D01*
X46779019Y-57214410D01*
X46945047Y-57178293D01*
X47138248Y-57095559D01*
X47312300Y-56977757D01*
X47460912Y-56829145D01*
X47578714Y-56655093D01*
X47661448Y-56461892D01*
X47706123Y-56256525D01*
X47708935Y-56209318D01*
X47708935Y-43041245D01*
X51557935Y-43041245D01*
X51557935Y-56209314D01*
X51560747Y-56256526D01*
X51560748Y-56256535D01*
X51605420Y-56461884D01*
X51605420Y-56461887D01*
X51605421Y-56461891D01*
X51605422Y-56461892D01*
X51688156Y-56655093D01*
X51805958Y-56829145D01*
X51954570Y-56977757D01*
X52128622Y-57095559D01*
X52321823Y-57178293D01*
X52321828Y-57178294D01*
X52527179Y-57222966D01*
X52527182Y-57222966D01*
X52527190Y-57222968D01*
X52574397Y-57225780D01*
X52574410Y-57225780D01*
X65742460Y-57225780D01*
X65742473Y-57225780D01*
X65789680Y-57222968D01*
X65789688Y-57222966D01*
X65789690Y-57222966D01*
X65829019Y-57214410D01*
X65995047Y-57178293D01*
X66188248Y-57095559D01*
X66362300Y-56977757D01*
X66510912Y-56829145D01*
X66628714Y-56655093D01*
X66711448Y-56461892D01*
X66756123Y-56256525D01*
X66758935Y-56209318D01*
X66758935Y-43041242D01*
X66756123Y-42994035D01*
X66711448Y-42788668D01*
X66628714Y-42595467D01*
X66510912Y-42421415D01*
X66362300Y-42272803D01*
X66188248Y-42155001D01*
X65995047Y-42072267D01*
X65995044Y-42072266D01*
X65995041Y-42072265D01*
X65789690Y-42027593D01*
X65789681Y-42027592D01*
X65780238Y-42027029D01*
X65742473Y-42024780D01*
X52742473Y-42024780D01*
X52574397Y-42024780D01*
X52546072Y-42026467D01*
X52527188Y-42027592D01*
X52527179Y-42027593D01*
X52321830Y-42072265D01*
X52321827Y-42072265D01*
X52128620Y-42155002D01*
X52128618Y-42155003D01*
X51954572Y-42272801D01*
X51805956Y-42421417D01*
X51688158Y-42595463D01*
X51688157Y-42595465D01*
X51605420Y-42788672D01*
X51605420Y-42788675D01*
X51560748Y-42994024D01*
X51560747Y-42994033D01*
X51557935Y-43041245D01*
X47708935Y-43041245D01*
X47708935Y-43041242D01*
X47706123Y-42994035D01*
X47661448Y-42788668D01*
X47578714Y-42595467D01*
X47460912Y-42421415D01*
X47312300Y-42272803D01*
X47138248Y-42155001D01*
X46945047Y-42072267D01*
X46945044Y-42072266D01*
X46945041Y-42072265D01*
X46739690Y-42027593D01*
X46739681Y-42027592D01*
X46730238Y-42027029D01*
X46692473Y-42024780D01*
X33692473Y-42024780D01*
X33524397Y-42024780D01*
X33496072Y-42026467D01*
X33477188Y-42027592D01*
X33477179Y-42027593D01*
X33271830Y-42072265D01*
X33271827Y-42072265D01*
X33078620Y-42155002D01*
X33078618Y-42155003D01*
X32904572Y-42272801D01*
X32755956Y-42421417D01*
X32638158Y-42595463D01*
X32638157Y-42595465D01*
X32555420Y-42788672D01*
X32555420Y-42788675D01*
X32510748Y-42994024D01*
X32510747Y-42994033D01*
X32507935Y-43041245D01*
X26221435Y-43041245D01*
X26221435Y-42783655D01*
X26221529Y-42779337D01*
X26229557Y-42595463D01*
X26238797Y-42383829D01*
X26239547Y-42375253D01*
X26290939Y-41984896D01*
X26292438Y-41976400D01*
X26349922Y-41717109D01*
X26377649Y-41592033D01*
X26379883Y-41583698D01*
X26468478Y-41302714D01*
X26498275Y-41208207D01*
X26501227Y-41200099D01*
X26651889Y-40836366D01*
X26655531Y-40828554D01*
X26837332Y-40479318D01*
X26841639Y-40471857D01*
X27053194Y-40139781D01*
X27058133Y-40132730D01*
X27297810Y-39820376D01*
X27303348Y-39813775D01*
X27569355Y-39523479D01*
X27575437Y-39517398D01*
X27865719Y-39251403D01*
X27872310Y-39245872D01*
X28184676Y-39006184D01*
X28191727Y-39001246D01*
X28523803Y-38789691D01*
X28531264Y-38785384D01*
X28880499Y-38603583D01*
X28888293Y-38599948D01*
X29252051Y-38449275D01*
X29260153Y-38446326D01*
X29635662Y-38327928D01*
X29643961Y-38325704D01*
X30028369Y-38240483D01*
X30036830Y-38238990D01*
X30427198Y-38187597D01*
X30435774Y-38186847D01*
X30831167Y-38169583D01*
X30835485Y-38169490D01*
X30867786Y-38169490D01*
X66334087Y-38169490D01*
X66334089Y-38169491D01*
G37*
G04 #@! TD.AperFunction*
G04 #@! TA.AperFunction,NonConductor*
G36*
X64517126Y-44244687D02*
G01*
X64553090Y-44294187D01*
X64557935Y-44324780D01*
X64557935Y-54925780D01*
X64539028Y-54983971D01*
X64489528Y-55019935D01*
X64458935Y-55024780D01*
X53857935Y-55024780D01*
X53799744Y-55005873D01*
X53763780Y-54956373D01*
X53758935Y-54925780D01*
X53758935Y-44324780D01*
X53777842Y-44266589D01*
X53827342Y-44230625D01*
X53857935Y-44225780D01*
X64458935Y-44225780D01*
X64517126Y-44244687D01*
G37*
G04 #@! TD.AperFunction*
G04 #@! TA.AperFunction,NonConductor*
G36*
X45467126Y-44244687D02*
G01*
X45503090Y-44294187D01*
X45507935Y-44324780D01*
X45507935Y-54925780D01*
X45489028Y-54983971D01*
X45439528Y-55019935D01*
X45408935Y-55024780D01*
X34807935Y-55024780D01*
X34749744Y-55005873D01*
X34713780Y-54956373D01*
X34708935Y-54925780D01*
X34708935Y-44324780D01*
X34727842Y-44266589D01*
X34777342Y-44230625D01*
X34807935Y-44225780D01*
X45408935Y-44225780D01*
X45467126Y-44244687D01*
G37*
G04 #@! TD.AperFunction*
M02*
