G04 #@! TF.GenerationSoftware,KiCad,Pcbnew,8.0.5*
G04 #@! TF.CreationDate,2024-09-16T20:13:51+09:00*
G04 #@! TF.ProjectId,SandyLP_Plate_Middle,53616e64-794c-4505-9f50-6c6174655f4d,v.0*
G04 #@! TF.SameCoordinates,Original*
G04 #@! TF.FileFunction,Copper,L2,Bot*
G04 #@! TF.FilePolarity,Positive*
%FSLAX46Y46*%
G04 Gerber Fmt 4.6, Leading zero omitted, Abs format (unit mm)*
G04 Created by KiCad (PCBNEW 8.0.5) date 2024-09-16 20:13:51*
%MOMM*%
%LPD*%
G01*
G04 APERTURE LIST*
G04 Aperture macros list*
%AMRoundRect*
0 Rectangle with rounded corners*
0 $1 Rounding radius*
0 $2 $3 $4 $5 $6 $7 $8 $9 X,Y pos of 4 corners*
0 Add a 4 corners polygon primitive as box body*
4,1,4,$2,$3,$4,$5,$6,$7,$8,$9,$2,$3,0*
0 Add four circle primitives for the rounded corners*
1,1,$1+$1,$2,$3*
1,1,$1+$1,$4,$5*
1,1,$1+$1,$6,$7*
1,1,$1+$1,$8,$9*
0 Add four rect primitives between the rounded corners*
20,1,$1+$1,$2,$3,$4,$5,0*
20,1,$1+$1,$4,$5,$6,$7,0*
20,1,$1+$1,$6,$7,$8,$9,0*
20,1,$1+$1,$8,$9,$2,$3,0*%
G04 Aperture macros list end*
G04 #@! TA.AperFunction,WasherPad*
%ADD10RoundRect,0.900000X4.596201X-4.596187X-4.596187X4.596201X-4.596201X4.596187X4.596187X-4.596201X0*%
G04 #@! TD*
G04 #@! TA.AperFunction,WasherPad*
%ADD11RoundRect,0.900000X-4.596187X-4.596201X4.596201X4.596187X4.596187X4.596201X-4.596201X-4.596187X0*%
G04 #@! TD*
G04 APERTURE END LIST*
D10*
X193472835Y-70291280D03*
D11*
X193472835Y-61098892D03*
X202665223Y-70291280D03*
D10*
X202665223Y-61098892D03*
X186737643Y-23144935D03*
D11*
X186737643Y-13952547D03*
X195930031Y-23144935D03*
D10*
X195930031Y-13952547D03*
X146344196Y-90514562D03*
D11*
X146344196Y-81322174D03*
X155536584Y-90514562D03*
D10*
X155536584Y-81322174D03*
X186737643Y-50085703D03*
D11*
X186737643Y-40893315D03*
X195930031Y-50085703D03*
D10*
X195930031Y-40893315D03*
X119385722Y-90496856D03*
D11*
X119385722Y-81304468D03*
X128578110Y-90496856D03*
D10*
X128578110Y-81304468D03*
X166532067Y-97232048D03*
D11*
X166532067Y-88039660D03*
X175724455Y-97232048D03*
D10*
X175724455Y-88039660D03*
X180002451Y-83761664D03*
D11*
X180002451Y-74569276D03*
X189194839Y-83761664D03*
D10*
X189194839Y-74569276D03*
G04 #@! TA.AperFunction,NonConductor*
G36*
X189673084Y-5021506D02*
G01*
X189692398Y-5024049D01*
X189910522Y-5067436D01*
X189929341Y-5072479D01*
X190139949Y-5143970D01*
X190157945Y-5151424D01*
X190357406Y-5249787D01*
X190374274Y-5259525D01*
X190455829Y-5314018D01*
X190559197Y-5383086D01*
X190574659Y-5394950D01*
X190745534Y-5544802D01*
X190752651Y-5551468D01*
X202403314Y-17202130D01*
X202403312Y-17202131D01*
X202403325Y-17202141D01*
X202407941Y-17206758D01*
X202414598Y-17213866D01*
X202564458Y-17384760D01*
X202576312Y-17400209D01*
X202699870Y-17585137D01*
X202709613Y-17602014D01*
X202807971Y-17801473D01*
X202815429Y-17819480D01*
X202886911Y-18030072D01*
X202891955Y-18048897D01*
X202935340Y-18267017D01*
X202937884Y-18286340D01*
X202952428Y-18508258D01*
X202952428Y-18527747D01*
X202937883Y-18749665D01*
X202935339Y-18768988D01*
X202891953Y-18987110D01*
X202886909Y-19005934D01*
X202815428Y-19216520D01*
X202807970Y-19234526D01*
X202709609Y-19433992D01*
X202699865Y-19450870D01*
X202576319Y-19635781D01*
X202564455Y-19651245D01*
X202414529Y-19822212D01*
X202407867Y-19829324D01*
X202375865Y-19861329D01*
X202375685Y-19861553D01*
X191755880Y-30495452D01*
X191755881Y-30495453D01*
X191755319Y-30496016D01*
X191755297Y-30496038D01*
X191723729Y-30527649D01*
X191723724Y-30527644D01*
X191723636Y-30527750D01*
X191663338Y-30588046D01*
X191502887Y-30792840D01*
X191368300Y-31015466D01*
X191368293Y-31015479D01*
X191261520Y-31252709D01*
X191184117Y-31501095D01*
X191137219Y-31756989D01*
X191121508Y-32016678D01*
X191121508Y-32016683D01*
X191137213Y-32276363D01*
X191137214Y-32276367D01*
X191184107Y-32532267D01*
X191261505Y-32780648D01*
X191333864Y-32941426D01*
X191368279Y-33017895D01*
X191502863Y-33240523D01*
X191502868Y-33240531D01*
X191663314Y-33445326D01*
X191663315Y-33445327D01*
X191725630Y-33507641D01*
X191725634Y-33507646D01*
X202362443Y-44144453D01*
X202363848Y-44145858D01*
X202370517Y-44152979D01*
X202520365Y-44323861D01*
X202532225Y-44339318D01*
X202655773Y-44524232D01*
X202665516Y-44541110D01*
X202763877Y-44740577D01*
X202771336Y-44758584D01*
X202842818Y-44969179D01*
X202847861Y-44988003D01*
X202891245Y-45206118D01*
X202893789Y-45225441D01*
X202908333Y-45447359D01*
X202908333Y-45466848D01*
X202893788Y-45688766D01*
X202891244Y-45708089D01*
X202847858Y-45926211D01*
X202842814Y-45945035D01*
X202771332Y-46155624D01*
X202763874Y-46173630D01*
X202665518Y-46373086D01*
X202655774Y-46389965D01*
X202532221Y-46574886D01*
X202520357Y-46590348D01*
X202370419Y-46761331D01*
X202363757Y-46768444D01*
X202331754Y-46800450D01*
X202331253Y-46801078D01*
X198481042Y-50665314D01*
X198480263Y-50666096D01*
X198393312Y-50753042D01*
X198232856Y-50957833D01*
X198232854Y-50957836D01*
X198098253Y-51180476D01*
X197991475Y-51417712D01*
X197914068Y-51666103D01*
X197867170Y-51922000D01*
X197851460Y-52181691D01*
X197851460Y-52181696D01*
X197867168Y-52441387D01*
X197914063Y-52697277D01*
X197991470Y-52945676D01*
X198072432Y-53125555D01*
X198098249Y-53182915D01*
X198232848Y-53405556D01*
X198298604Y-53489481D01*
X198393304Y-53610349D01*
X198455618Y-53672659D01*
X198455623Y-53672664D01*
X209160634Y-64377673D01*
X209181463Y-64398502D01*
X209188127Y-64405618D01*
X209338001Y-64576514D01*
X209349866Y-64591976D01*
X209473425Y-64776891D01*
X209483170Y-64793770D01*
X209573205Y-64976339D01*
X209581534Y-64993227D01*
X209588993Y-65011234D01*
X209660482Y-65221829D01*
X209665527Y-65240654D01*
X209708918Y-65458781D01*
X209711462Y-65478103D01*
X209726012Y-65700027D01*
X209726012Y-65719518D01*
X209711470Y-65941433D01*
X209708927Y-65960755D01*
X209665543Y-66178885D01*
X209660498Y-66197712D01*
X209589014Y-66408310D01*
X209581556Y-66426316D01*
X209483195Y-66625783D01*
X209473451Y-66642662D01*
X209349899Y-66827581D01*
X209338034Y-66843044D01*
X209188793Y-67013227D01*
X209182131Y-67020341D01*
X209152140Y-67050335D01*
X209152136Y-67050339D01*
X172474839Y-103733591D01*
X172467671Y-103740229D01*
X172467708Y-103740271D01*
X172296838Y-103890120D01*
X172281375Y-103901985D01*
X172096457Y-104025543D01*
X172079578Y-104035288D01*
X171880123Y-104133648D01*
X171862117Y-104141106D01*
X171651517Y-104212596D01*
X171632690Y-104217641D01*
X171414575Y-104261026D01*
X171395253Y-104263570D01*
X171173335Y-104278116D01*
X171153843Y-104278116D01*
X170931924Y-104263570D01*
X170912602Y-104261026D01*
X170694486Y-104217641D01*
X170675659Y-104212596D01*
X170465059Y-104141106D01*
X170447053Y-104133648D01*
X170247598Y-104035288D01*
X170230719Y-104025543D01*
X170045806Y-103901988D01*
X170030343Y-103890123D01*
X169859441Y-103740245D01*
X169852325Y-103733580D01*
X159174992Y-93056246D01*
X159104176Y-92985430D01*
X158899392Y-92824992D01*
X158899386Y-92824988D01*
X158899383Y-92824986D01*
X158760349Y-92740937D01*
X158676750Y-92690399D01*
X158676739Y-92690393D01*
X158439498Y-92583620D01*
X158439493Y-92583618D01*
X158269871Y-92530761D01*
X160835373Y-92530761D01*
X160835373Y-92740947D01*
X160875147Y-92947310D01*
X160875148Y-92947311D01*
X160941988Y-93114270D01*
X160953259Y-93142425D01*
X161063693Y-93314265D01*
X161066886Y-93319232D01*
X161098278Y-93354601D01*
X170290666Y-102546989D01*
X170409514Y-102665837D01*
X170444883Y-102697229D01*
X170621689Y-102810855D01*
X170816804Y-102888967D01*
X171023167Y-102928741D01*
X171023174Y-102928741D01*
X171023176Y-102928742D01*
X171023177Y-102928742D01*
X171023178Y-102928742D01*
X171233344Y-102928742D01*
X171233346Y-102928742D01*
X171233348Y-102928741D01*
X171233354Y-102928741D01*
X171353937Y-102905499D01*
X171439718Y-102888967D01*
X171634833Y-102810855D01*
X171811639Y-102697229D01*
X171847008Y-102665837D01*
X171965856Y-102546989D01*
X181158244Y-93354601D01*
X181189636Y-93319232D01*
X181303262Y-93142426D01*
X181314534Y-93114270D01*
X181381374Y-92947311D01*
X181404950Y-92824986D01*
X181421148Y-92740947D01*
X181421149Y-92740937D01*
X181421149Y-92530773D01*
X181421149Y-92530770D01*
X181399211Y-92416942D01*
X181381374Y-92324397D01*
X181303262Y-92129282D01*
X181189636Y-91952476D01*
X181158244Y-91917107D01*
X181039396Y-91798259D01*
X171847008Y-82605871D01*
X171811639Y-82574479D01*
X171811636Y-82574477D01*
X171811635Y-82574476D01*
X171634830Y-82460851D01*
X171548983Y-82426484D01*
X171548981Y-82426483D01*
X171439718Y-82382741D01*
X171439717Y-82382740D01*
X171233354Y-82342966D01*
X171233346Y-82342966D01*
X171233345Y-82342966D01*
X171023176Y-82342966D01*
X171023167Y-82342966D01*
X170816804Y-82382740D01*
X170816803Y-82382741D01*
X170707538Y-82426483D01*
X170707539Y-82426484D01*
X170621689Y-82460852D01*
X170444886Y-82574476D01*
X170444884Y-82574478D01*
X170409511Y-82605873D01*
X161098280Y-91917104D01*
X161066885Y-91952477D01*
X161066883Y-91952479D01*
X160953259Y-92129282D01*
X160875148Y-92324397D01*
X160875147Y-92324398D01*
X160857311Y-92416943D01*
X160835373Y-92530761D01*
X158269871Y-92530761D01*
X158191120Y-92506221D01*
X158191111Y-92506219D01*
X157935232Y-92459327D01*
X157935208Y-92459324D01*
X157675530Y-92443617D01*
X157675524Y-92443617D01*
X157415845Y-92459324D01*
X157415821Y-92459327D01*
X157159944Y-92506219D01*
X157159936Y-92506221D01*
X156911559Y-92583618D01*
X156911554Y-92583620D01*
X156674314Y-92690393D01*
X156674303Y-92690399D01*
X156451671Y-92824986D01*
X156451661Y-92824992D01*
X156246877Y-92985430D01*
X156176061Y-93056247D01*
X156176058Y-93056249D01*
X156154890Y-93077416D01*
X156133728Y-93098579D01*
X156133726Y-93098582D01*
X152251570Y-96980736D01*
X152244453Y-96987401D01*
X152199752Y-97026604D01*
X152073584Y-97137250D01*
X152058121Y-97149115D01*
X151873203Y-97272673D01*
X151856324Y-97282418D01*
X151656869Y-97380778D01*
X151638863Y-97388236D01*
X151428263Y-97459726D01*
X151409436Y-97464771D01*
X151191321Y-97508156D01*
X151171999Y-97510700D01*
X150950081Y-97525246D01*
X150930589Y-97525246D01*
X150708670Y-97510700D01*
X150689348Y-97508156D01*
X150471232Y-97464771D01*
X150452405Y-97459726D01*
X150241805Y-97388236D01*
X150223799Y-97380778D01*
X150024344Y-97282418D01*
X150007465Y-97272673D01*
X149822552Y-97149118D01*
X149807089Y-97137253D01*
X149684594Y-97029827D01*
X149636180Y-96987368D01*
X149629071Y-96980710D01*
X139004771Y-86356409D01*
X138933955Y-86285593D01*
X138729171Y-86125155D01*
X138729165Y-86125151D01*
X138729162Y-86125149D01*
X138560937Y-86023453D01*
X138506529Y-85990562D01*
X138506518Y-85990556D01*
X138269277Y-85883783D01*
X138269272Y-85883781D01*
X138043026Y-85813279D01*
X140647502Y-85813279D01*
X140647502Y-86023461D01*
X140687276Y-86229823D01*
X140746428Y-86377577D01*
X140765389Y-86424940D01*
X140765390Y-86424941D01*
X140867634Y-86584038D01*
X140879015Y-86601746D01*
X140910407Y-86637115D01*
X150102795Y-95829503D01*
X150221643Y-95948351D01*
X150257012Y-95979743D01*
X150433818Y-96093369D01*
X150628933Y-96171481D01*
X150835296Y-96211255D01*
X150835303Y-96211255D01*
X150835305Y-96211256D01*
X150835306Y-96211256D01*
X150835307Y-96211256D01*
X151045473Y-96211256D01*
X151045475Y-96211256D01*
X151045477Y-96211255D01*
X151045483Y-96211255D01*
X151166066Y-96188013D01*
X151251847Y-96171481D01*
X151446962Y-96093369D01*
X151623768Y-95979743D01*
X151659137Y-95948351D01*
X151777985Y-95829503D01*
X160970373Y-86637115D01*
X161001765Y-86601746D01*
X161115391Y-86424940D01*
X161134352Y-86377577D01*
X161193503Y-86229825D01*
X161216264Y-86111731D01*
X161233277Y-86023461D01*
X161233278Y-86023451D01*
X161233278Y-85813281D01*
X161229867Y-85795581D01*
X161193503Y-85606913D01*
X161193503Y-85606911D01*
X161115391Y-85411796D01*
X161044753Y-85301881D01*
X161001767Y-85234993D01*
X161001766Y-85234992D01*
X161001765Y-85234990D01*
X160970373Y-85199621D01*
X160851525Y-85080773D01*
X151659137Y-75888385D01*
X151623768Y-75856993D01*
X151623765Y-75856991D01*
X151623764Y-75856990D01*
X151467340Y-75756463D01*
X151446962Y-75743367D01*
X151402734Y-75725661D01*
X151402729Y-75725659D01*
X151251847Y-75665255D01*
X151251846Y-75665254D01*
X151045483Y-75625480D01*
X151045475Y-75625480D01*
X151045474Y-75625480D01*
X150835305Y-75625480D01*
X150835296Y-75625480D01*
X150628933Y-75665254D01*
X150628932Y-75665255D01*
X150478045Y-75725660D01*
X150478046Y-75725661D01*
X150433818Y-75743366D01*
X150257015Y-75856990D01*
X150257013Y-75856992D01*
X150221640Y-75888387D01*
X140910409Y-85199618D01*
X140879014Y-85234991D01*
X140879012Y-85234993D01*
X140765388Y-85411796D01*
X140687276Y-85606913D01*
X140650915Y-85795574D01*
X140650915Y-85795575D01*
X140647502Y-85813279D01*
X138043026Y-85813279D01*
X138020899Y-85806384D01*
X138020890Y-85806382D01*
X137765011Y-85759490D01*
X137764987Y-85759487D01*
X137505309Y-85743780D01*
X137505303Y-85743780D01*
X137245624Y-85759487D01*
X137245600Y-85759490D01*
X136989723Y-85806382D01*
X136989715Y-85806384D01*
X136741338Y-85883781D01*
X136741333Y-85883783D01*
X136504093Y-85990556D01*
X136504082Y-85990562D01*
X136281450Y-86125149D01*
X136281440Y-86125155D01*
X136076656Y-86285593D01*
X136005841Y-86356409D01*
X136005838Y-86356411D01*
X135984674Y-86377573D01*
X135984675Y-86377574D01*
X135965469Y-86396781D01*
X135965466Y-86396784D01*
X125339086Y-97023162D01*
X125331969Y-97029827D01*
X125195945Y-97149118D01*
X125161100Y-97179676D01*
X125145637Y-97191541D01*
X124960719Y-97315099D01*
X124943840Y-97324844D01*
X124744385Y-97423204D01*
X124726379Y-97430662D01*
X124515779Y-97502152D01*
X124496952Y-97507197D01*
X124278837Y-97550582D01*
X124259515Y-97553126D01*
X124037597Y-97567672D01*
X124018105Y-97567672D01*
X123796186Y-97553126D01*
X123776864Y-97550582D01*
X123558748Y-97507197D01*
X123539921Y-97502152D01*
X123329321Y-97430662D01*
X123311315Y-97423204D01*
X123111860Y-97324844D01*
X123094981Y-97315099D01*
X122910068Y-97191544D01*
X122894605Y-97179679D01*
X122723703Y-97029801D01*
X122716587Y-97023136D01*
X111489020Y-85795569D01*
X113689028Y-85795569D01*
X113689028Y-86005755D01*
X113728802Y-86212118D01*
X113728802Y-86212119D01*
X113758219Y-86285596D01*
X113758219Y-86285597D01*
X113806913Y-86407231D01*
X113818294Y-86424941D01*
X113920541Y-86584040D01*
X113951933Y-86619409D01*
X123144321Y-95811797D01*
X123263169Y-95930645D01*
X123298538Y-95962037D01*
X123475344Y-96075663D01*
X123670459Y-96153775D01*
X123876822Y-96193549D01*
X123876829Y-96193549D01*
X123876831Y-96193550D01*
X123876832Y-96193550D01*
X123876833Y-96193550D01*
X124086999Y-96193550D01*
X124087001Y-96193550D01*
X124087003Y-96193549D01*
X124087009Y-96193549D01*
X124207592Y-96170307D01*
X124293373Y-96153775D01*
X124488488Y-96075663D01*
X124665294Y-95962037D01*
X124700663Y-95930645D01*
X124819511Y-95811797D01*
X134011899Y-86619409D01*
X134043291Y-86584040D01*
X134156917Y-86407234D01*
X134205613Y-86285596D01*
X134235029Y-86212119D01*
X134263474Y-86064534D01*
X134274803Y-86005755D01*
X134274804Y-86005745D01*
X134274804Y-85795581D01*
X134274804Y-85795578D01*
X134252866Y-85681750D01*
X134235029Y-85589205D01*
X134156917Y-85394090D01*
X134043291Y-85217284D01*
X134011899Y-85181915D01*
X133893051Y-85063067D01*
X124700663Y-75870679D01*
X124665294Y-75839287D01*
X124665291Y-75839285D01*
X124665290Y-75839284D01*
X124488485Y-75725659D01*
X124387016Y-75685038D01*
X124387014Y-75685037D01*
X124293373Y-75647549D01*
X124293372Y-75647548D01*
X124087009Y-75607774D01*
X124087001Y-75607774D01*
X124087000Y-75607774D01*
X123876831Y-75607774D01*
X123876822Y-75607774D01*
X123670459Y-75647548D01*
X123670458Y-75647549D01*
X123576815Y-75685037D01*
X123576816Y-75685038D01*
X123475344Y-75725660D01*
X123298541Y-75839284D01*
X123298539Y-75839286D01*
X123263166Y-75870681D01*
X113951935Y-85181912D01*
X113920540Y-85217285D01*
X113920538Y-85217287D01*
X113806914Y-85394090D01*
X113728803Y-85589205D01*
X113728802Y-85589206D01*
X113710966Y-85681751D01*
X113689028Y-85795569D01*
X111489020Y-85795569D01*
X110998780Y-85305329D01*
X110992116Y-85298214D01*
X110842260Y-85127340D01*
X110830397Y-85111879D01*
X110825912Y-85105167D01*
X110706841Y-84926967D01*
X110697098Y-84910093D01*
X110622129Y-84758072D01*
X110598727Y-84710617D01*
X110591275Y-84692626D01*
X110519786Y-84482031D01*
X110514743Y-84463210D01*
X110471355Y-84245085D01*
X110468811Y-84225762D01*
X110454265Y-84003831D01*
X110454265Y-83984364D01*
X110468811Y-83762430D01*
X110471355Y-83743112D01*
X110473086Y-83734409D01*
X110514746Y-83524977D01*
X110519786Y-83506169D01*
X110591280Y-83295558D01*
X110598728Y-83277578D01*
X110697103Y-83078097D01*
X110706835Y-83061241D01*
X110830406Y-82876308D01*
X110842256Y-82860864D01*
X110992190Y-82689902D01*
X110998812Y-82682832D01*
X119462776Y-74218868D01*
X130249760Y-74218868D01*
X130264332Y-74552639D01*
X130264334Y-74552652D01*
X130302189Y-74817804D01*
X130311555Y-74883402D01*
X130311556Y-74883409D01*
X130390966Y-75207937D01*
X130390967Y-75207942D01*
X130390969Y-75207947D01*
X130501811Y-75523137D01*
X130501814Y-75523145D01*
X130643017Y-75825954D01*
X130813205Y-76113439D01*
X130813209Y-76113446D01*
X130813215Y-76113455D01*
X131010779Y-76382898D01*
X131233801Y-76631678D01*
X131233805Y-76631682D01*
X131233810Y-76631687D01*
X131480134Y-76857401D01*
X131747400Y-77057888D01*
X131747405Y-77057891D01*
X132033041Y-77231219D01*
X132254584Y-77337483D01*
X132313124Y-77387701D01*
X132338711Y-77460461D01*
X132324490Y-77536267D01*
X132317527Y-77549125D01*
X132189983Y-77759310D01*
X132189981Y-77759314D01*
X132045492Y-78060547D01*
X132045484Y-78060566D01*
X131931215Y-78374518D01*
X131931214Y-78374523D01*
X131848267Y-78698166D01*
X131848266Y-78698171D01*
X131848266Y-78698172D01*
X131824280Y-78854013D01*
X131797438Y-79028403D01*
X131797437Y-79028406D01*
X131779226Y-79361997D01*
X131779225Y-79362020D01*
X131793797Y-79695791D01*
X131793799Y-79695806D01*
X131841020Y-80026553D01*
X131841021Y-80026560D01*
X131920431Y-80351088D01*
X131920432Y-80351093D01*
X131920434Y-80351098D01*
X132031276Y-80666289D01*
X132031279Y-80666297D01*
X132172481Y-80969106D01*
X132342672Y-81256595D01*
X132342678Y-81256603D01*
X132342680Y-81256607D01*
X132540244Y-81526049D01*
X132540247Y-81526052D01*
X132540248Y-81526054D01*
X132763269Y-81774834D01*
X132763274Y-81774839D01*
X133009593Y-82000548D01*
X133276865Y-82201040D01*
X133276870Y-82201043D01*
X133562506Y-82374371D01*
X133671153Y-82426484D01*
X133863744Y-82518862D01*
X133863748Y-82518863D01*
X133863755Y-82518867D01*
X133863761Y-82518869D01*
X133863763Y-82518870D01*
X134016539Y-82574476D01*
X134177718Y-82633140D01*
X134501369Y-82716089D01*
X134831592Y-82766916D01*
X134831601Y-82766916D01*
X134831603Y-82766917D01*
X135041405Y-82778370D01*
X135165208Y-82785129D01*
X135165212Y-82785128D01*
X135165217Y-82785129D01*
X135498988Y-82770557D01*
X135498992Y-82770556D01*
X135499001Y-82770556D01*
X135829758Y-82723334D01*
X136154295Y-82643921D01*
X136469486Y-82533079D01*
X144475910Y-78799622D01*
X144763419Y-78629419D01*
X145032862Y-78431855D01*
X145281643Y-78208834D01*
X145507365Y-77962501D01*
X145707856Y-77695229D01*
X145881183Y-77409593D01*
X146025680Y-77108344D01*
X146139953Y-76794381D01*
X146222902Y-76470730D01*
X146273729Y-76140507D01*
X146291942Y-75806891D01*
X146291942Y-75806881D01*
X146277370Y-75473111D01*
X146277369Y-75473105D01*
X146277369Y-75473099D01*
X146230147Y-75142341D01*
X146150733Y-74817804D01*
X146039892Y-74502614D01*
X145907579Y-74218868D01*
X157190529Y-74218868D01*
X157205101Y-74552639D01*
X157205103Y-74552652D01*
X157242958Y-74817804D01*
X157252324Y-74883402D01*
X157252325Y-74883409D01*
X157331735Y-75207937D01*
X157331736Y-75207942D01*
X157331738Y-75207947D01*
X157442580Y-75523137D01*
X157442583Y-75523145D01*
X157583786Y-75825954D01*
X157753974Y-76113439D01*
X157753978Y-76113446D01*
X157753984Y-76113455D01*
X157951548Y-76382898D01*
X158174570Y-76631678D01*
X158174574Y-76631682D01*
X158174579Y-76631687D01*
X158420903Y-76857401D01*
X158688169Y-77057888D01*
X158688174Y-77057891D01*
X158973810Y-77231219D01*
X159195353Y-77337483D01*
X159253893Y-77387701D01*
X159279480Y-77460461D01*
X159265259Y-77536267D01*
X159258296Y-77549125D01*
X159130752Y-77759310D01*
X159130750Y-77759314D01*
X158986261Y-78060547D01*
X158986253Y-78060566D01*
X158871984Y-78374518D01*
X158871983Y-78374523D01*
X158789036Y-78698166D01*
X158789035Y-78698171D01*
X158789035Y-78698172D01*
X158765049Y-78854013D01*
X158738207Y-79028403D01*
X158738206Y-79028406D01*
X158719995Y-79361997D01*
X158719994Y-79362020D01*
X158734566Y-79695791D01*
X158734568Y-79695806D01*
X158781789Y-80026553D01*
X158781790Y-80026560D01*
X158861200Y-80351088D01*
X158861201Y-80351093D01*
X158861203Y-80351098D01*
X158972045Y-80666289D01*
X158972048Y-80666297D01*
X159113250Y-80969106D01*
X159283441Y-81256595D01*
X159283447Y-81256603D01*
X159283449Y-81256607D01*
X159481013Y-81526049D01*
X159481016Y-81526052D01*
X159481017Y-81526054D01*
X159704038Y-81774834D01*
X159704043Y-81774839D01*
X159950362Y-82000548D01*
X160217634Y-82201040D01*
X160217639Y-82201043D01*
X160503275Y-82374371D01*
X160611922Y-82426484D01*
X160804513Y-82518862D01*
X160804517Y-82518863D01*
X160804524Y-82518867D01*
X160804530Y-82518869D01*
X160804532Y-82518870D01*
X160957308Y-82574476D01*
X161118487Y-82633140D01*
X161442138Y-82716089D01*
X161772361Y-82766916D01*
X161772370Y-82766916D01*
X161772372Y-82766917D01*
X161982174Y-82778370D01*
X162105977Y-82785129D01*
X162105981Y-82785128D01*
X162105986Y-82785129D01*
X162439757Y-82770557D01*
X162439761Y-82770556D01*
X162439770Y-82770556D01*
X162770527Y-82723334D01*
X163095064Y-82643921D01*
X163410255Y-82533079D01*
X170857488Y-79060377D01*
X174305757Y-79060377D01*
X174305757Y-79270560D01*
X174327696Y-79384381D01*
X174327696Y-79384383D01*
X174345531Y-79476922D01*
X174345533Y-79476929D01*
X174423642Y-79672039D01*
X174438906Y-79695791D01*
X174537270Y-79848848D01*
X174568662Y-79884217D01*
X183761050Y-89076605D01*
X183879898Y-89195453D01*
X183915267Y-89226845D01*
X184092073Y-89340471D01*
X184287188Y-89418583D01*
X184493551Y-89458357D01*
X184493558Y-89458357D01*
X184493560Y-89458358D01*
X184493561Y-89458358D01*
X184493562Y-89458358D01*
X184703728Y-89458358D01*
X184703730Y-89458358D01*
X184703732Y-89458357D01*
X184703738Y-89458357D01*
X184824321Y-89435115D01*
X184910102Y-89418583D01*
X185105217Y-89340471D01*
X185282023Y-89226845D01*
X185317392Y-89195453D01*
X185436240Y-89076605D01*
X194628628Y-79884217D01*
X194660020Y-79848848D01*
X194773646Y-79672042D01*
X194851758Y-79476926D01*
X194869595Y-79384382D01*
X194873909Y-79361997D01*
X194891532Y-79270563D01*
X194891533Y-79270553D01*
X194891533Y-79060389D01*
X194891533Y-79060386D01*
X194869595Y-78946558D01*
X194851758Y-78854013D01*
X194773646Y-78658898D01*
X194660020Y-78482092D01*
X194628628Y-78446723D01*
X194509780Y-78327875D01*
X185317392Y-69135487D01*
X185282023Y-69104095D01*
X185282020Y-69104093D01*
X185282019Y-69104092D01*
X185105216Y-68990468D01*
X184959084Y-68931966D01*
X184910102Y-68912357D01*
X184910101Y-68912356D01*
X184703738Y-68872582D01*
X184703730Y-68872582D01*
X184703729Y-68872582D01*
X184493560Y-68872582D01*
X184493551Y-68872582D01*
X184287189Y-68912356D01*
X184092073Y-68990468D01*
X183915270Y-69104092D01*
X183915268Y-69104094D01*
X183879895Y-69135489D01*
X174568664Y-78446720D01*
X174537269Y-78482093D01*
X174537267Y-78482095D01*
X174423643Y-78658898D01*
X174345532Y-78854013D01*
X174345531Y-78854014D01*
X174327695Y-78946559D01*
X174305757Y-79060377D01*
X170857488Y-79060377D01*
X171416679Y-78799622D01*
X171704188Y-78629419D01*
X171973631Y-78431855D01*
X172222412Y-78208834D01*
X172448134Y-77962501D01*
X172648625Y-77695229D01*
X172821952Y-77409593D01*
X172966449Y-77108344D01*
X173080722Y-76794381D01*
X173163671Y-76470730D01*
X173214498Y-76140507D01*
X173232711Y-75806891D01*
X173232711Y-75806881D01*
X173218139Y-75473111D01*
X173218138Y-75473105D01*
X173218138Y-75473099D01*
X173170916Y-75142341D01*
X173091502Y-74817804D01*
X172980661Y-74502614D01*
X172839459Y-74199805D01*
X172839457Y-74199802D01*
X172839454Y-74199795D01*
X172669266Y-73912311D01*
X172669264Y-73912309D01*
X172669257Y-73912296D01*
X172471693Y-73642853D01*
X172248672Y-73394072D01*
X172248667Y-73394067D01*
X172248662Y-73394062D01*
X172002343Y-73168353D01*
X171735071Y-72967861D01*
X171449429Y-72794530D01*
X171449425Y-72794528D01*
X171148191Y-72650039D01*
X171148172Y-72650031D01*
X170834221Y-72535762D01*
X170834216Y-72535761D01*
X170510572Y-72452814D01*
X170510569Y-72452813D01*
X170510567Y-72452813D01*
X170180345Y-72401986D01*
X170180341Y-72401985D01*
X170180336Y-72401985D01*
X170180333Y-72401984D01*
X169846742Y-72383773D01*
X169846719Y-72383772D01*
X169512948Y-72398344D01*
X169512933Y-72398346D01*
X169182186Y-72445567D01*
X169182179Y-72445568D01*
X168857651Y-72524978D01*
X168542442Y-72635826D01*
X167550359Y-73098442D01*
X167474403Y-73111835D01*
X167401926Y-73085456D01*
X167352349Y-73026372D01*
X167338611Y-72955279D01*
X167352967Y-72692318D01*
X167352968Y-72692297D01*
X167338395Y-72358530D01*
X167338393Y-72358508D01*
X167291173Y-72027757D01*
X167211759Y-71703220D01*
X167100918Y-71388029D01*
X166959716Y-71085221D01*
X166959714Y-71085218D01*
X166959711Y-71085211D01*
X166789522Y-70797726D01*
X166789520Y-70797724D01*
X166789513Y-70797711D01*
X166591950Y-70528269D01*
X166368928Y-70279488D01*
X166368923Y-70279483D01*
X166368918Y-70279478D01*
X166122599Y-70053769D01*
X165855327Y-69853277D01*
X165569698Y-69679953D01*
X165569684Y-69679945D01*
X165268448Y-69535455D01*
X165268429Y-69535447D01*
X164954477Y-69421178D01*
X164954472Y-69421177D01*
X164630829Y-69338230D01*
X164630826Y-69338229D01*
X164630824Y-69338229D01*
X164300601Y-69287402D01*
X164300597Y-69287401D01*
X164300592Y-69287401D01*
X164300589Y-69287400D01*
X163966998Y-69269189D01*
X163966976Y-69269188D01*
X163633205Y-69283760D01*
X163633190Y-69283762D01*
X163302442Y-69330983D01*
X163302435Y-69330984D01*
X162977907Y-69410395D01*
X162977899Y-69410397D01*
X162977898Y-69410398D01*
X162947247Y-69421177D01*
X162662699Y-69521242D01*
X159006567Y-71226126D01*
X159006563Y-71226128D01*
X158719052Y-71396331D01*
X158719046Y-71396335D01*
X158449617Y-71593888D01*
X158449612Y-71593892D01*
X158449609Y-71593895D01*
X158327651Y-71703226D01*
X158200824Y-71816921D01*
X158200819Y-71816926D01*
X157975105Y-72063250D01*
X157774618Y-72330516D01*
X157601287Y-72616158D01*
X157601285Y-72616162D01*
X157456796Y-72917396D01*
X157456788Y-72917415D01*
X157342519Y-73231367D01*
X157342518Y-73231372D01*
X157259571Y-73555015D01*
X157208742Y-73885252D01*
X157208741Y-73885255D01*
X157190530Y-74218846D01*
X157190529Y-74218868D01*
X145907579Y-74218868D01*
X145898690Y-74199805D01*
X145898688Y-74199802D01*
X145898685Y-74199795D01*
X145728497Y-73912311D01*
X145728495Y-73912309D01*
X145728488Y-73912296D01*
X145530924Y-73642853D01*
X145307903Y-73394072D01*
X145307898Y-73394067D01*
X145307893Y-73394062D01*
X145061574Y-73168353D01*
X144794302Y-72967861D01*
X144508660Y-72794530D01*
X144508656Y-72794528D01*
X144207422Y-72650039D01*
X144207403Y-72650031D01*
X143893452Y-72535762D01*
X143893447Y-72535761D01*
X143569803Y-72452814D01*
X143569800Y-72452813D01*
X143569798Y-72452813D01*
X143239576Y-72401986D01*
X143239572Y-72401985D01*
X143239567Y-72401985D01*
X143239564Y-72401984D01*
X142905973Y-72383773D01*
X142905950Y-72383772D01*
X142572179Y-72398344D01*
X142572164Y-72398346D01*
X142241417Y-72445567D01*
X142241410Y-72445568D01*
X141916882Y-72524978D01*
X141601673Y-72635826D01*
X140609590Y-73098442D01*
X140533634Y-73111835D01*
X140461157Y-73085456D01*
X140411580Y-73026372D01*
X140397842Y-72955279D01*
X140412198Y-72692318D01*
X140412199Y-72692297D01*
X140397626Y-72358530D01*
X140397624Y-72358508D01*
X140350404Y-72027757D01*
X140270990Y-71703220D01*
X140160149Y-71388029D01*
X140018947Y-71085221D01*
X140018945Y-71085218D01*
X140018942Y-71085211D01*
X139848753Y-70797726D01*
X139848751Y-70797724D01*
X139848744Y-70797711D01*
X139651181Y-70528269D01*
X139428159Y-70279488D01*
X139428154Y-70279483D01*
X139428149Y-70279478D01*
X139181830Y-70053769D01*
X138914558Y-69853277D01*
X138628929Y-69679953D01*
X138628915Y-69679945D01*
X138327679Y-69535455D01*
X138327660Y-69535447D01*
X138013708Y-69421178D01*
X138013703Y-69421177D01*
X137690060Y-69338230D01*
X137690057Y-69338229D01*
X137690055Y-69338229D01*
X137359832Y-69287402D01*
X137359828Y-69287401D01*
X137359823Y-69287401D01*
X137359820Y-69287400D01*
X137026229Y-69269189D01*
X137026207Y-69269188D01*
X136692436Y-69283760D01*
X136692421Y-69283762D01*
X136361673Y-69330983D01*
X136361666Y-69330984D01*
X136037138Y-69410395D01*
X136037130Y-69410397D01*
X136037129Y-69410398D01*
X136006478Y-69421177D01*
X135721930Y-69521242D01*
X132065798Y-71226126D01*
X132065794Y-71226128D01*
X131778283Y-71396331D01*
X131778277Y-71396335D01*
X131508848Y-71593888D01*
X131508843Y-71593892D01*
X131508840Y-71593895D01*
X131386882Y-71703226D01*
X131260055Y-71816921D01*
X131260050Y-71816926D01*
X131034336Y-72063250D01*
X130833849Y-72330516D01*
X130660518Y-72616158D01*
X130660516Y-72616162D01*
X130516027Y-72917396D01*
X130516019Y-72917415D01*
X130401750Y-73231367D01*
X130401749Y-73231372D01*
X130318802Y-73555015D01*
X130267973Y-73885252D01*
X130267972Y-73885255D01*
X130249761Y-74218846D01*
X130249760Y-74218868D01*
X119462776Y-74218868D01*
X132342094Y-61339550D01*
X137377498Y-61339550D01*
X137377498Y-61631632D01*
X137410200Y-61921877D01*
X137475195Y-62206636D01*
X137571662Y-62482324D01*
X137571665Y-62482333D01*
X137662101Y-62670123D01*
X137698393Y-62745484D01*
X137853790Y-62992797D01*
X138035900Y-63221156D01*
X138242433Y-63427689D01*
X138470792Y-63609799D01*
X138718105Y-63765196D01*
X138981261Y-63891926D01*
X139256953Y-63988394D01*
X139541712Y-64053389D01*
X139831957Y-64086091D01*
X140124039Y-64086091D01*
X140414284Y-64053389D01*
X140699043Y-63988394D01*
X140974735Y-63891926D01*
X141237891Y-63765196D01*
X141485204Y-63609799D01*
X141713563Y-63427689D01*
X141920096Y-63221156D01*
X142102206Y-62992797D01*
X142257603Y-62745484D01*
X142384333Y-62482328D01*
X142480801Y-62206636D01*
X142545796Y-61921877D01*
X142578498Y-61631632D01*
X142578498Y-61339550D01*
X142545796Y-61049305D01*
X142480801Y-60764546D01*
X142468995Y-60730806D01*
X143737822Y-60730806D01*
X143752394Y-61064577D01*
X143752396Y-61064590D01*
X143799618Y-61395348D01*
X143803944Y-61413026D01*
X143879028Y-61719875D01*
X143879029Y-61719880D01*
X143879031Y-61719885D01*
X143978492Y-62002712D01*
X143989876Y-62035083D01*
X144131079Y-62337892D01*
X144301267Y-62625377D01*
X144301271Y-62625384D01*
X144301277Y-62625393D01*
X144348136Y-62689300D01*
X144448342Y-62825965D01*
X144498841Y-62894836D01*
X144721863Y-63143616D01*
X144721867Y-63143620D01*
X144721872Y-63143625D01*
X144968196Y-63369339D01*
X145235462Y-63569826D01*
X145235467Y-63569829D01*
X145521103Y-63743157D01*
X145567049Y-63765195D01*
X145742646Y-63849421D01*
X145801186Y-63899639D01*
X145826773Y-63972399D01*
X145812552Y-64048205D01*
X145805591Y-64061057D01*
X145745515Y-64160060D01*
X145678045Y-64271248D01*
X145678043Y-64271252D01*
X145533554Y-64572485D01*
X145533546Y-64572504D01*
X145419277Y-64886456D01*
X145419276Y-64886461D01*
X145336329Y-65210104D01*
X145336328Y-65210109D01*
X145336328Y-65210110D01*
X145287681Y-65526174D01*
X145285500Y-65540341D01*
X145285499Y-65540344D01*
X145267288Y-65873935D01*
X145267287Y-65873958D01*
X145281859Y-66207729D01*
X145281861Y-66207744D01*
X145329082Y-66538491D01*
X145329083Y-66538498D01*
X145408493Y-66863026D01*
X145408494Y-66863031D01*
X145408496Y-66863036D01*
X145471377Y-67041845D01*
X145519341Y-67178235D01*
X145660543Y-67481044D01*
X145830734Y-67768533D01*
X145830740Y-67768541D01*
X145830742Y-67768545D01*
X146028306Y-68037987D01*
X146028309Y-68037990D01*
X146028310Y-68037992D01*
X146044158Y-68055670D01*
X146243159Y-68277657D01*
X146251331Y-68286772D01*
X146251336Y-68286777D01*
X146497655Y-68512486D01*
X146497658Y-68512488D01*
X146497660Y-68512490D01*
X146564288Y-68562470D01*
X146764927Y-68712978D01*
X146764932Y-68712981D01*
X147050568Y-68886309D01*
X147104874Y-68912357D01*
X147351806Y-69030800D01*
X147351810Y-69030801D01*
X147351817Y-69030805D01*
X147351823Y-69030807D01*
X147351825Y-69030808D01*
X147635755Y-69134150D01*
X147665780Y-69145078D01*
X147989431Y-69228027D01*
X148319654Y-69278854D01*
X148319663Y-69278854D01*
X148319665Y-69278855D01*
X148529467Y-69290308D01*
X148653270Y-69297067D01*
X148653274Y-69297066D01*
X148653279Y-69297067D01*
X148987050Y-69282495D01*
X148987054Y-69282494D01*
X148987063Y-69282494D01*
X149317820Y-69235272D01*
X149642357Y-69155859D01*
X149957548Y-69045017D01*
X150121897Y-68968378D01*
X150197853Y-68954985D01*
X150270330Y-68981364D01*
X150319907Y-69040447D01*
X150333127Y-69088580D01*
X150337687Y-69134147D01*
X150337689Y-69134160D01*
X150399125Y-69419691D01*
X150399128Y-69419704D01*
X150492149Y-69696562D01*
X150492152Y-69696569D01*
X151139686Y-71085211D01*
X151164995Y-71139485D01*
X151217942Y-71226129D01*
X151317291Y-71388708D01*
X151317291Y-71388709D01*
X151317294Y-71388713D01*
X151317296Y-71388716D01*
X151496546Y-71619327D01*
X151496550Y-71619331D01*
X151496556Y-71619338D01*
X151689269Y-71816917D01*
X151700489Y-71828420D01*
X151926559Y-72013362D01*
X151926562Y-72013364D01*
X151926561Y-72013364D01*
X152171906Y-72171824D01*
X152171910Y-72171826D01*
X152171916Y-72171830D01*
X152433472Y-72301830D01*
X152658606Y-72383772D01*
X152698642Y-72398344D01*
X152707940Y-72401728D01*
X152991866Y-72470267D01*
X153281681Y-72506586D01*
X153450176Y-72508686D01*
X153573729Y-72510227D01*
X153573730Y-72510227D01*
X153573731Y-72510226D01*
X153573740Y-72510227D01*
X153864371Y-72481145D01*
X154149918Y-72419706D01*
X154149921Y-72419704D01*
X154149925Y-72419704D01*
X154332045Y-72358514D01*
X154426790Y-72326681D01*
X154691506Y-72203242D01*
X154940737Y-72050941D01*
X155171348Y-71871691D01*
X155380441Y-71667748D01*
X155565383Y-71441678D01*
X155723851Y-71196321D01*
X155853851Y-70934765D01*
X155953749Y-70660297D01*
X156022288Y-70376371D01*
X156058607Y-70086556D01*
X156062248Y-69794497D01*
X156033166Y-69503866D01*
X155971727Y-69218319D01*
X155971726Y-69218317D01*
X155971725Y-69218311D01*
X155878704Y-68941453D01*
X155878702Y-68941447D01*
X155205859Y-67498531D01*
X155053558Y-67249300D01*
X154874308Y-67018689D01*
X154874302Y-67018682D01*
X154874297Y-67018677D01*
X154842332Y-66985905D01*
X154804604Y-66918635D01*
X154805565Y-66841513D01*
X154844959Y-66775204D01*
X154886019Y-66746832D01*
X156877429Y-65818223D01*
X168520404Y-65818223D01*
X168520404Y-65818224D01*
X168520405Y-65818233D01*
X168520405Y-65818234D01*
X168549487Y-66108865D01*
X168549488Y-66108871D01*
X168549489Y-66108877D01*
X168610924Y-66394406D01*
X168610927Y-66394419D01*
X168703948Y-66671277D01*
X168703951Y-66671284D01*
X168819292Y-66918635D01*
X168827390Y-66936000D01*
X168897261Y-67050339D01*
X168979686Y-67185223D01*
X168979686Y-67185224D01*
X168979689Y-67185228D01*
X168979691Y-67185231D01*
X169158941Y-67415842D01*
X169158945Y-67415846D01*
X169158951Y-67415853D01*
X169222528Y-67481035D01*
X169362884Y-67624935D01*
X169588954Y-67809877D01*
X169588957Y-67809879D01*
X169588956Y-67809879D01*
X169834301Y-67968339D01*
X169834305Y-67968341D01*
X169834311Y-67968345D01*
X170095867Y-68098345D01*
X170370335Y-68198243D01*
X170654261Y-68266782D01*
X170944076Y-68303101D01*
X171112571Y-68305201D01*
X171236124Y-68306742D01*
X171236125Y-68306742D01*
X171236126Y-68306741D01*
X171236135Y-68306742D01*
X171526766Y-68277660D01*
X171812313Y-68216221D01*
X171812316Y-68216219D01*
X171812320Y-68216219D01*
X171950749Y-68169708D01*
X172089185Y-68123196D01*
X172657788Y-67858051D01*
X172733741Y-67844659D01*
X172806218Y-67871038D01*
X172840915Y-67904987D01*
X172951393Y-68055659D01*
X172951401Y-68055670D01*
X173011937Y-68123198D01*
X173173212Y-68303101D01*
X173174422Y-68304450D01*
X173174427Y-68304455D01*
X173420746Y-68530164D01*
X173688018Y-68730656D01*
X173688023Y-68730659D01*
X173973659Y-68903987D01*
X174079981Y-68954985D01*
X174274897Y-69048478D01*
X174274901Y-69048479D01*
X174274908Y-69048483D01*
X174274914Y-69048485D01*
X174274916Y-69048486D01*
X174569921Y-69155859D01*
X174588871Y-69162756D01*
X174912522Y-69245705D01*
X175242745Y-69296532D01*
X175242754Y-69296532D01*
X175242756Y-69296533D01*
X175452558Y-69307986D01*
X175576361Y-69314745D01*
X175576365Y-69314744D01*
X175576370Y-69314745D01*
X175910141Y-69300173D01*
X175910145Y-69300172D01*
X175910154Y-69300172D01*
X176240911Y-69252950D01*
X176565448Y-69173537D01*
X176880639Y-69062695D01*
X184327861Y-65589998D01*
X187776141Y-65589998D01*
X187776141Y-65800179D01*
X187815915Y-66006542D01*
X187815916Y-66006543D01*
X187865913Y-66131430D01*
X187894027Y-66201657D01*
X187909261Y-66225362D01*
X188007654Y-66378464D01*
X188039046Y-66413833D01*
X197231434Y-75606221D01*
X197350282Y-75725069D01*
X197385651Y-75756461D01*
X197385653Y-75756462D01*
X197385654Y-75756463D01*
X197514526Y-75839284D01*
X197562457Y-75870087D01*
X197757572Y-75948199D01*
X197963935Y-75987973D01*
X197963942Y-75987973D01*
X197963944Y-75987974D01*
X197963945Y-75987974D01*
X197963946Y-75987974D01*
X198174112Y-75987974D01*
X198174114Y-75987974D01*
X198174116Y-75987973D01*
X198174122Y-75987973D01*
X198294705Y-75964731D01*
X198380486Y-75948199D01*
X198575601Y-75870087D01*
X198752407Y-75756461D01*
X198787776Y-75725069D01*
X198906624Y-75606221D01*
X208099012Y-66413833D01*
X208130404Y-66378464D01*
X208244030Y-66201658D01*
X208272145Y-66131430D01*
X208322142Y-66006543D01*
X208347696Y-65873958D01*
X208361916Y-65800179D01*
X208361917Y-65800169D01*
X208361917Y-65590004D01*
X208361915Y-65589992D01*
X208352346Y-65540341D01*
X208349616Y-65526175D01*
X208322142Y-65383629D01*
X208244030Y-65188514D01*
X208130404Y-65011708D01*
X208099012Y-64976339D01*
X207980164Y-64857491D01*
X198787776Y-55665103D01*
X198752407Y-55633711D01*
X198752404Y-55633709D01*
X198752403Y-55633708D01*
X198575600Y-55520084D01*
X198574124Y-55519493D01*
X198574120Y-55519492D01*
X198380486Y-55441973D01*
X198380485Y-55441972D01*
X198174122Y-55402198D01*
X198174114Y-55402198D01*
X198174113Y-55402198D01*
X197963944Y-55402198D01*
X197963935Y-55402198D01*
X197757573Y-55441972D01*
X197641258Y-55488537D01*
X197563938Y-55519492D01*
X197563933Y-55519493D01*
X197562457Y-55520084D01*
X197385654Y-55633708D01*
X197385652Y-55633710D01*
X197350279Y-55665105D01*
X188039048Y-64976336D01*
X188007653Y-65011709D01*
X188007651Y-65011711D01*
X187894027Y-65188514D01*
X187815915Y-65383631D01*
X187788443Y-65526174D01*
X187788443Y-65526177D01*
X187776141Y-65589998D01*
X184327861Y-65589998D01*
X184887063Y-65329238D01*
X185174572Y-65159035D01*
X185444015Y-64961471D01*
X185692796Y-64738450D01*
X185918518Y-64492117D01*
X186119009Y-64224845D01*
X186292336Y-63939209D01*
X186436833Y-63637960D01*
X186551106Y-63323997D01*
X186634055Y-63000346D01*
X186684882Y-62670123D01*
X186703095Y-62336507D01*
X186702324Y-62318842D01*
X186688523Y-62002727D01*
X186688522Y-62002721D01*
X186688522Y-62002715D01*
X186641300Y-61671957D01*
X186561886Y-61347420D01*
X186451045Y-61032230D01*
X186442797Y-61014543D01*
X186326222Y-60764546D01*
X186309843Y-60729421D01*
X186309841Y-60729418D01*
X186309838Y-60729411D01*
X186139650Y-60441927D01*
X186139648Y-60441925D01*
X186139641Y-60441912D01*
X185942077Y-60172469D01*
X185926229Y-60154791D01*
X185847487Y-60066953D01*
X185719056Y-59923688D01*
X185719051Y-59923683D01*
X185719046Y-59923678D01*
X185472727Y-59697969D01*
X185205455Y-59497477D01*
X184919813Y-59324146D01*
X184919809Y-59324144D01*
X184618575Y-59179655D01*
X184618556Y-59179647D01*
X184304605Y-59065378D01*
X184304600Y-59065377D01*
X183980956Y-58982430D01*
X183980953Y-58982429D01*
X183980951Y-58982429D01*
X183650729Y-58931602D01*
X183650725Y-58931601D01*
X183650720Y-58931601D01*
X183650717Y-58931600D01*
X183317126Y-58913389D01*
X183317103Y-58913388D01*
X182983332Y-58927960D01*
X182983317Y-58927962D01*
X182652570Y-58975183D01*
X182652563Y-58975184D01*
X182328035Y-59054594D01*
X182328027Y-59054596D01*
X182328026Y-59054597D01*
X182257906Y-59079256D01*
X182012826Y-59165442D01*
X181020743Y-59628058D01*
X180944787Y-59641451D01*
X180872310Y-59615072D01*
X180822733Y-59555988D01*
X180808995Y-59484895D01*
X180823351Y-59221934D01*
X180823352Y-59221913D01*
X180808779Y-58888146D01*
X180808777Y-58888124D01*
X180806253Y-58870446D01*
X180761557Y-58557373D01*
X180682143Y-58232836D01*
X180571302Y-57917645D01*
X180430100Y-57614837D01*
X180430098Y-57614834D01*
X180430095Y-57614827D01*
X180259906Y-57327342D01*
X180259904Y-57327340D01*
X180259897Y-57327327D01*
X180062334Y-57057885D01*
X179839312Y-56809104D01*
X179839307Y-56809099D01*
X179839302Y-56809094D01*
X179592983Y-56583385D01*
X179325711Y-56382893D01*
X179040082Y-56209569D01*
X179040068Y-56209561D01*
X178738832Y-56065071D01*
X178738813Y-56065063D01*
X178424861Y-55950794D01*
X178424856Y-55950793D01*
X178101213Y-55867846D01*
X178101210Y-55867845D01*
X178101208Y-55867845D01*
X177770985Y-55817018D01*
X177770981Y-55817017D01*
X177770976Y-55817017D01*
X177770973Y-55817016D01*
X177437382Y-55798805D01*
X177437360Y-55798804D01*
X177103589Y-55813376D01*
X177103574Y-55813378D01*
X176772826Y-55860599D01*
X176772819Y-55860600D01*
X176448291Y-55940011D01*
X176133083Y-56050858D01*
X172476951Y-57755742D01*
X172476947Y-57755744D01*
X172189436Y-57925947D01*
X172189430Y-57925951D01*
X171920001Y-58123504D01*
X171919996Y-58123508D01*
X171919993Y-58123511D01*
X171798035Y-58232842D01*
X171671208Y-58346537D01*
X171671203Y-58346542D01*
X171445489Y-58592866D01*
X171245002Y-58860132D01*
X171071671Y-59145774D01*
X171071669Y-59145778D01*
X170927180Y-59447012D01*
X170927172Y-59447031D01*
X170812903Y-59760983D01*
X170812902Y-59760988D01*
X170729955Y-60084631D01*
X170729954Y-60084636D01*
X170729954Y-60084637D01*
X170708243Y-60225697D01*
X170679126Y-60414868D01*
X170679125Y-60414871D01*
X170660914Y-60748462D01*
X170660913Y-60748484D01*
X170675485Y-61082255D01*
X170675487Y-61082268D01*
X170713342Y-61347420D01*
X170722708Y-61413018D01*
X170722709Y-61413025D01*
X170802119Y-61737553D01*
X170802120Y-61737558D01*
X170802122Y-61737563D01*
X170906747Y-62035075D01*
X170912967Y-62052761D01*
X171054170Y-62355570D01*
X171207763Y-62615022D01*
X171228537Y-62689300D01*
X171209389Y-62764013D01*
X171155449Y-62819142D01*
X171142516Y-62825965D01*
X169891152Y-63409486D01*
X169891149Y-63409488D01*
X169641923Y-63561785D01*
X169641922Y-63561785D01*
X169411300Y-63741044D01*
X169411293Y-63741050D01*
X169202213Y-63944981D01*
X169202210Y-63944984D01*
X169017267Y-64171056D01*
X168858807Y-64416400D01*
X168858800Y-64416413D01*
X168728807Y-64677954D01*
X168728800Y-64677970D01*
X168628904Y-64952431D01*
X168628904Y-64952432D01*
X168561640Y-65231079D01*
X168560365Y-65236360D01*
X168524046Y-65526175D01*
X168524045Y-65526182D01*
X168524045Y-65526190D01*
X168520404Y-65818223D01*
X156877429Y-65818223D01*
X157963972Y-65311560D01*
X158251481Y-65141357D01*
X158520924Y-64943793D01*
X158769705Y-64720772D01*
X158995427Y-64474439D01*
X159195918Y-64207167D01*
X159369245Y-63921531D01*
X159513742Y-63620282D01*
X159628015Y-63306319D01*
X159710964Y-62982668D01*
X159761791Y-62652445D01*
X159780004Y-62318829D01*
X159775106Y-62206636D01*
X159765432Y-61985049D01*
X159765431Y-61985043D01*
X159765431Y-61985037D01*
X159718209Y-61654279D01*
X159638795Y-61329742D01*
X159527954Y-61014552D01*
X159386752Y-60711743D01*
X159386750Y-60711740D01*
X159386747Y-60711733D01*
X159216559Y-60424249D01*
X159216557Y-60424247D01*
X159216550Y-60424234D01*
X159018986Y-60154791D01*
X158795965Y-59906010D01*
X158795960Y-59906005D01*
X158795955Y-59906000D01*
X158549636Y-59680291D01*
X158282364Y-59479799D01*
X158025855Y-59324146D01*
X157996724Y-59306469D01*
X157996718Y-59306466D01*
X157695484Y-59161977D01*
X157695465Y-59161969D01*
X157381514Y-59047700D01*
X157381509Y-59047699D01*
X157057865Y-58964752D01*
X157057862Y-58964751D01*
X157057860Y-58964751D01*
X156727638Y-58913924D01*
X156727634Y-58913923D01*
X156727629Y-58913923D01*
X156727626Y-58913922D01*
X156394035Y-58895711D01*
X156394012Y-58895710D01*
X156060241Y-58910282D01*
X156060226Y-58910284D01*
X155729479Y-58957505D01*
X155729472Y-58957506D01*
X155404944Y-59036916D01*
X155404936Y-59036918D01*
X155404935Y-59036919D01*
X155354666Y-59054597D01*
X155089735Y-59147764D01*
X154097652Y-59610380D01*
X154021696Y-59623773D01*
X153949219Y-59597394D01*
X153899642Y-59538310D01*
X153885904Y-59467217D01*
X153899295Y-59221934D01*
X153900261Y-59204245D01*
X153899187Y-59179655D01*
X153885688Y-58870468D01*
X153885686Y-58870446D01*
X153884214Y-58860137D01*
X153838466Y-58539695D01*
X153759052Y-58215158D01*
X153648211Y-57899967D01*
X153507009Y-57597159D01*
X153507007Y-57597156D01*
X153507004Y-57597149D01*
X153336815Y-57309664D01*
X153336813Y-57309662D01*
X153336806Y-57309649D01*
X153139243Y-57040207D01*
X152916221Y-56791426D01*
X152916216Y-56791421D01*
X152916211Y-56791416D01*
X152669892Y-56565707D01*
X152402620Y-56365215D01*
X152116991Y-56191891D01*
X152116977Y-56191883D01*
X151815741Y-56047393D01*
X151815722Y-56047385D01*
X151501770Y-55933116D01*
X151501765Y-55933115D01*
X151178122Y-55850168D01*
X151178119Y-55850167D01*
X151178117Y-55850167D01*
X150847894Y-55799340D01*
X150847890Y-55799339D01*
X150847885Y-55799339D01*
X150847882Y-55799338D01*
X150514291Y-55781127D01*
X150514269Y-55781126D01*
X150180498Y-55795698D01*
X150180483Y-55795700D01*
X149849735Y-55842921D01*
X149849728Y-55842922D01*
X149525200Y-55922333D01*
X149525192Y-55922335D01*
X149525191Y-55922336D01*
X149444270Y-55950793D01*
X149209992Y-56033180D01*
X145553860Y-57738064D01*
X145553856Y-57738066D01*
X145266345Y-57908269D01*
X145266339Y-57908273D01*
X144996910Y-58105826D01*
X144996905Y-58105830D01*
X144996902Y-58105833D01*
X144874944Y-58215164D01*
X144748117Y-58328859D01*
X144748112Y-58328864D01*
X144522398Y-58575188D01*
X144321911Y-58842454D01*
X144148580Y-59128096D01*
X144148578Y-59128100D01*
X144004089Y-59429334D01*
X144004081Y-59429353D01*
X143889812Y-59743305D01*
X143889811Y-59743310D01*
X143806864Y-60066953D01*
X143806863Y-60066958D01*
X143806863Y-60066959D01*
X143782431Y-60225697D01*
X143756035Y-60397190D01*
X143756034Y-60397193D01*
X143737823Y-60730784D01*
X143737822Y-60730806D01*
X142468995Y-60730806D01*
X142384333Y-60488854D01*
X142257603Y-60225698D01*
X142102206Y-59978385D01*
X141920096Y-59750026D01*
X141713563Y-59543493D01*
X141485204Y-59361383D01*
X141237891Y-59205986D01*
X141234255Y-59204235D01*
X140974740Y-59079258D01*
X140974737Y-59079257D01*
X140974735Y-59079256D01*
X140699043Y-58982788D01*
X140699031Y-58982785D01*
X140699027Y-58982784D01*
X140496467Y-58936550D01*
X140414284Y-58917793D01*
X140414282Y-58917792D01*
X140414279Y-58917792D01*
X140124039Y-58885091D01*
X139831957Y-58885091D01*
X139541716Y-58917792D01*
X139256968Y-58982784D01*
X139256961Y-58982786D01*
X139256953Y-58982788D01*
X138981264Y-59079255D01*
X138981255Y-59079258D01*
X138718104Y-59205986D01*
X138470799Y-59361378D01*
X138470795Y-59361380D01*
X138470792Y-59361383D01*
X138249495Y-59537861D01*
X138242428Y-59543497D01*
X138035904Y-59750021D01*
X138035900Y-59750025D01*
X138035900Y-59750026D01*
X137853790Y-59978385D01*
X137853787Y-59978388D01*
X137853785Y-59978392D01*
X137698393Y-60225697D01*
X137571665Y-60488848D01*
X137571663Y-60488854D01*
X137475195Y-60764546D01*
X137475193Y-60764554D01*
X137475191Y-60764561D01*
X137410199Y-61049309D01*
X137378603Y-61329742D01*
X137377498Y-61339550D01*
X132342094Y-61339550D01*
X141369160Y-52312484D01*
X155085375Y-52312484D01*
X155085375Y-52312485D01*
X155085376Y-52312494D01*
X155085376Y-52312495D01*
X155114458Y-52603126D01*
X155114459Y-52603132D01*
X155114460Y-52603138D01*
X155175895Y-52888667D01*
X155175898Y-52888680D01*
X155268919Y-53165538D01*
X155268922Y-53165545D01*
X155392361Y-53430261D01*
X155443393Y-53513771D01*
X155544657Y-53679484D01*
X155544657Y-53679485D01*
X155544660Y-53679489D01*
X155544662Y-53679492D01*
X155723912Y-53910103D01*
X155723916Y-53910107D01*
X155723922Y-53910114D01*
X155927853Y-54119194D01*
X155927855Y-54119196D01*
X156153925Y-54304138D01*
X156153928Y-54304140D01*
X156153927Y-54304140D01*
X156399272Y-54462600D01*
X156399276Y-54462602D01*
X156399282Y-54462606D01*
X156660838Y-54592606D01*
X156935306Y-54692504D01*
X157219232Y-54761043D01*
X157509047Y-54797362D01*
X157677542Y-54799462D01*
X157801095Y-54801003D01*
X157801096Y-54801003D01*
X157801097Y-54801002D01*
X157801106Y-54801003D01*
X158091737Y-54771921D01*
X158377284Y-54710482D01*
X158377287Y-54710480D01*
X158377291Y-54710480D01*
X158515720Y-54663969D01*
X158654156Y-54617457D01*
X159177094Y-54373606D01*
X159253047Y-54360214D01*
X159325524Y-54386593D01*
X159360219Y-54420540D01*
X159391064Y-54462607D01*
X159481009Y-54585275D01*
X159481017Y-54585286D01*
X159487580Y-54592607D01*
X159648327Y-54771921D01*
X159704038Y-54834066D01*
X159704043Y-54834071D01*
X159950362Y-55059780D01*
X160217634Y-55260272D01*
X160217639Y-55260275D01*
X160503275Y-55433603D01*
X160681152Y-55518923D01*
X160804513Y-55578094D01*
X160804517Y-55578095D01*
X160804524Y-55578099D01*
X160804530Y-55578101D01*
X160804532Y-55578102D01*
X161041936Y-55664510D01*
X161118487Y-55692372D01*
X161442138Y-55775321D01*
X161772361Y-55826148D01*
X161772370Y-55826148D01*
X161772372Y-55826149D01*
X161982174Y-55837602D01*
X162105977Y-55844361D01*
X162105981Y-55844360D01*
X162105986Y-55844361D01*
X162439757Y-55829789D01*
X162439761Y-55829788D01*
X162439770Y-55829788D01*
X162770527Y-55782566D01*
X163095064Y-55703153D01*
X163410255Y-55592311D01*
X171416679Y-51858854D01*
X171704188Y-51688651D01*
X171973631Y-51491087D01*
X172222412Y-51268066D01*
X172448134Y-51021733D01*
X172482548Y-50975857D01*
X172617026Y-50796585D01*
X172677700Y-50748967D01*
X172754053Y-50738066D01*
X172817055Y-50760830D01*
X172910226Y-50821006D01*
X173171782Y-50951006D01*
X173446250Y-51050904D01*
X173730176Y-51119443D01*
X174019991Y-51155762D01*
X174188486Y-51157862D01*
X174312039Y-51159403D01*
X174312040Y-51159403D01*
X174312041Y-51159402D01*
X174312050Y-51159403D01*
X174602681Y-51130321D01*
X174888228Y-51068882D01*
X174888231Y-51068880D01*
X174888235Y-51068880D01*
X175028561Y-51021732D01*
X175165100Y-50975857D01*
X176608016Y-50303014D01*
X176857247Y-50150713D01*
X177087858Y-49971463D01*
X177296951Y-49767520D01*
X177481893Y-49541450D01*
X177640361Y-49296093D01*
X177770361Y-49034537D01*
X177870259Y-48760069D01*
X177938798Y-48476143D01*
X177975117Y-48186328D01*
X177978758Y-47894269D01*
X177949676Y-47603638D01*
X177888237Y-47318091D01*
X177888236Y-47318089D01*
X177888235Y-47318083D01*
X177795214Y-47041225D01*
X177795212Y-47041219D01*
X177671773Y-46776503D01*
X177519472Y-46527272D01*
X177340222Y-46296661D01*
X177340216Y-46296654D01*
X177340211Y-46296649D01*
X177136280Y-46087569D01*
X177136277Y-46087566D01*
X176910205Y-45902623D01*
X176910206Y-45902623D01*
X176664861Y-45744163D01*
X176664848Y-45744156D01*
X176403307Y-45614163D01*
X176403291Y-45614156D01*
X176128830Y-45514260D01*
X175844903Y-45445721D01*
X175748297Y-45433614D01*
X175555087Y-45409402D01*
X175555084Y-45409401D01*
X175555071Y-45409401D01*
X175263038Y-45405760D01*
X175263037Y-45405760D01*
X175226853Y-45409380D01*
X174972397Y-45434843D01*
X174972390Y-45434844D01*
X174972384Y-45434845D01*
X174686855Y-45496280D01*
X174686842Y-45496283D01*
X174409984Y-45589304D01*
X174409977Y-45589307D01*
X172967067Y-46262147D01*
X172967063Y-46262149D01*
X172967062Y-46262150D01*
X172920507Y-46290599D01*
X172717838Y-46414446D01*
X172717837Y-46414446D01*
X172530476Y-46560079D01*
X172459404Y-46590038D01*
X172382874Y-46580448D01*
X172328093Y-46541898D01*
X172248672Y-46453304D01*
X172248664Y-46453296D01*
X172248662Y-46453294D01*
X172002343Y-46227585D01*
X171735071Y-46027093D01*
X171449429Y-45853762D01*
X171449425Y-45853760D01*
X171148191Y-45709271D01*
X171148172Y-45709263D01*
X170834221Y-45594994D01*
X170834216Y-45594993D01*
X170510572Y-45512046D01*
X170510569Y-45512045D01*
X170510567Y-45512045D01*
X170180345Y-45461218D01*
X170180341Y-45461217D01*
X170180336Y-45461217D01*
X170180333Y-45461216D01*
X169846742Y-45443005D01*
X169846719Y-45443004D01*
X169512948Y-45457576D01*
X169512933Y-45457578D01*
X169182186Y-45504799D01*
X169182179Y-45504800D01*
X168857651Y-45584210D01*
X168857643Y-45584212D01*
X168857642Y-45584213D01*
X168826988Y-45594993D01*
X168542442Y-45695058D01*
X167550359Y-46157674D01*
X167474403Y-46171067D01*
X167401926Y-46144688D01*
X167352349Y-46085604D01*
X167338611Y-46014511D01*
X167350269Y-45800966D01*
X167352968Y-45751539D01*
X167351122Y-45709267D01*
X167338395Y-45417762D01*
X167338393Y-45417740D01*
X167337203Y-45409402D01*
X167333636Y-45384416D01*
X181040949Y-45384416D01*
X181040949Y-45594602D01*
X181080723Y-45800965D01*
X181080723Y-45800966D01*
X181134698Y-45935786D01*
X181158836Y-45996081D01*
X181158837Y-45996082D01*
X181261367Y-46155624D01*
X181272462Y-46172887D01*
X181303854Y-46208256D01*
X190496242Y-55400644D01*
X190615090Y-55519492D01*
X190650459Y-55550884D01*
X190827265Y-55664510D01*
X191022380Y-55742622D01*
X191228743Y-55782396D01*
X191228750Y-55782396D01*
X191228752Y-55782397D01*
X191228753Y-55782397D01*
X191228754Y-55782397D01*
X191438920Y-55782397D01*
X191438922Y-55782397D01*
X191438924Y-55782396D01*
X191438930Y-55782396D01*
X191559513Y-55759154D01*
X191645294Y-55742622D01*
X191840409Y-55664510D01*
X192017215Y-55550884D01*
X192052584Y-55519492D01*
X192171432Y-55400644D01*
X201363820Y-46208256D01*
X201395212Y-46172887D01*
X201508838Y-45996081D01*
X201532976Y-45935786D01*
X201586950Y-45800966D01*
X201611153Y-45675389D01*
X201626724Y-45594602D01*
X201626725Y-45594592D01*
X201626725Y-45384428D01*
X201626725Y-45384425D01*
X201604787Y-45270597D01*
X201586950Y-45178052D01*
X201508838Y-44982937D01*
X201482222Y-44941522D01*
X201395214Y-44806134D01*
X201395213Y-44806133D01*
X201395212Y-44806131D01*
X201363820Y-44770762D01*
X201244972Y-44651914D01*
X192052584Y-35459526D01*
X192017215Y-35428134D01*
X192017212Y-35428132D01*
X192017211Y-35428131D01*
X191840406Y-35314506D01*
X191738937Y-35273885D01*
X191738935Y-35273884D01*
X191645294Y-35236396D01*
X191645293Y-35236395D01*
X191438930Y-35196621D01*
X191438922Y-35196621D01*
X191438921Y-35196621D01*
X191228752Y-35196621D01*
X191228743Y-35196621D01*
X191022380Y-35236395D01*
X191022379Y-35236396D01*
X190928736Y-35273884D01*
X190928737Y-35273885D01*
X190827265Y-35314507D01*
X190650462Y-35428131D01*
X190650460Y-35428133D01*
X190615087Y-35459528D01*
X181303856Y-44770759D01*
X181272461Y-44806132D01*
X181272459Y-44806134D01*
X181158835Y-44982937D01*
X181080724Y-45178052D01*
X181080723Y-45178053D01*
X181062887Y-45270598D01*
X181040949Y-45384416D01*
X167333636Y-45384416D01*
X167291173Y-45086989D01*
X167211759Y-44762452D01*
X167100918Y-44447261D01*
X166959716Y-44144453D01*
X166959714Y-44144450D01*
X166959711Y-44144443D01*
X166789522Y-43856958D01*
X166789520Y-43856956D01*
X166789513Y-43856943D01*
X166591950Y-43587501D01*
X166368928Y-43338720D01*
X166368923Y-43338715D01*
X166368918Y-43338710D01*
X166122599Y-43113001D01*
X165855327Y-42912509D01*
X165569698Y-42739185D01*
X165569684Y-42739177D01*
X165268448Y-42594687D01*
X165268429Y-42594679D01*
X164954477Y-42480410D01*
X164954472Y-42480409D01*
X164630829Y-42397462D01*
X164630826Y-42397461D01*
X164630824Y-42397461D01*
X164300601Y-42346634D01*
X164300597Y-42346633D01*
X164300592Y-42346633D01*
X164300589Y-42346632D01*
X163966998Y-42328421D01*
X163966976Y-42328420D01*
X163633205Y-42342992D01*
X163633190Y-42342994D01*
X163302442Y-42390215D01*
X163302435Y-42390216D01*
X162977907Y-42469627D01*
X162662699Y-42580474D01*
X159006567Y-44285358D01*
X159006563Y-44285360D01*
X158719052Y-44455563D01*
X158719046Y-44455567D01*
X158449617Y-44653120D01*
X158449612Y-44653124D01*
X158449609Y-44653127D01*
X158327651Y-44762458D01*
X158200824Y-44876153D01*
X158200819Y-44876158D01*
X157975105Y-45122482D01*
X157774618Y-45389748D01*
X157601287Y-45675390D01*
X157601285Y-45675394D01*
X157456796Y-45976628D01*
X157456788Y-45976647D01*
X157342519Y-46290599D01*
X157342518Y-46290604D01*
X157259571Y-46614247D01*
X157259570Y-46614252D01*
X157259570Y-46614253D01*
X157217783Y-46885747D01*
X157208742Y-46944484D01*
X157208741Y-46944487D01*
X157190530Y-47278078D01*
X157190529Y-47278100D01*
X157205101Y-47611871D01*
X157205103Y-47611886D01*
X157252324Y-47942634D01*
X157252325Y-47942641D01*
X157331735Y-48267169D01*
X157331736Y-48267174D01*
X157331738Y-48267179D01*
X157405224Y-48476143D01*
X157442583Y-48582377D01*
X157583786Y-48885186D01*
X157728625Y-49129851D01*
X157749399Y-49204129D01*
X157730251Y-49278842D01*
X157676311Y-49333971D01*
X157663378Y-49340794D01*
X156456123Y-49903747D01*
X156456120Y-49903749D01*
X156206894Y-50056046D01*
X156206893Y-50056046D01*
X155976271Y-50235305D01*
X155976264Y-50235311D01*
X155767184Y-50439242D01*
X155767181Y-50439245D01*
X155582238Y-50665317D01*
X155423778Y-50910661D01*
X155423771Y-50910674D01*
X155293778Y-51172215D01*
X155293771Y-51172231D01*
X155193875Y-51446692D01*
X155193875Y-51446693D01*
X155125336Y-51730619D01*
X155089017Y-52020437D01*
X155089016Y-52020451D01*
X155085375Y-52312484D01*
X141369160Y-52312484D01*
X159282862Y-34398782D01*
X164318266Y-34398782D01*
X164318266Y-34690863D01*
X164350967Y-34981104D01*
X164400157Y-35196621D01*
X164415963Y-35265868D01*
X164512430Y-35541556D01*
X164512433Y-35541565D01*
X164602864Y-35729345D01*
X164639161Y-35804716D01*
X164794558Y-36052029D01*
X164976668Y-36280388D01*
X165183201Y-36486921D01*
X165411560Y-36669031D01*
X165658873Y-36824428D01*
X165922029Y-36951158D01*
X166197721Y-37047626D01*
X166482480Y-37112621D01*
X166772725Y-37145323D01*
X167064807Y-37145323D01*
X167355052Y-37112621D01*
X167639811Y-37047626D01*
X167915503Y-36951158D01*
X168178659Y-36824428D01*
X168425972Y-36669031D01*
X168654331Y-36486921D01*
X168860864Y-36280388D01*
X169042974Y-36052029D01*
X169198371Y-35804716D01*
X169325101Y-35541560D01*
X169421569Y-35265868D01*
X169486564Y-34981109D01*
X169519266Y-34690864D01*
X169519266Y-34398782D01*
X169486564Y-34108537D01*
X169421569Y-33823778D01*
X169415948Y-33807715D01*
X170660913Y-33807715D01*
X170675485Y-34141486D01*
X170675487Y-34141499D01*
X170713342Y-34406651D01*
X170722708Y-34472249D01*
X170722709Y-34472256D01*
X170802119Y-34796784D01*
X170802120Y-34796789D01*
X170802122Y-34796794D01*
X170912964Y-35111984D01*
X170912967Y-35111992D01*
X171054170Y-35414801D01*
X171224358Y-35702286D01*
X171224362Y-35702293D01*
X171224368Y-35702302D01*
X171421932Y-35971745D01*
X171644954Y-36220525D01*
X171644958Y-36220529D01*
X171644963Y-36220534D01*
X171891287Y-36446248D01*
X172158553Y-36646735D01*
X172158558Y-36646738D01*
X172444194Y-36820066D01*
X172665737Y-36926330D01*
X172724277Y-36976548D01*
X172749864Y-37049308D01*
X172735643Y-37125114D01*
X172728680Y-37137972D01*
X172601136Y-37348157D01*
X172601134Y-37348161D01*
X172456645Y-37649394D01*
X172456637Y-37649413D01*
X172342368Y-37963365D01*
X172342367Y-37963370D01*
X172259420Y-38287013D01*
X172208591Y-38617250D01*
X172208590Y-38617253D01*
X172190379Y-38950844D01*
X172190378Y-38950867D01*
X172204950Y-39284638D01*
X172204952Y-39284653D01*
X172252173Y-39615400D01*
X172252174Y-39615407D01*
X172331584Y-39939935D01*
X172331585Y-39939940D01*
X172331587Y-39939945D01*
X172442429Y-40255136D01*
X172442432Y-40255144D01*
X172583634Y-40557953D01*
X172753825Y-40845442D01*
X172753831Y-40845450D01*
X172753833Y-40845454D01*
X172951397Y-41114896D01*
X172951400Y-41114899D01*
X172951401Y-41114901D01*
X173174422Y-41363681D01*
X173174427Y-41363686D01*
X173420746Y-41589395D01*
X173688018Y-41789887D01*
X173688023Y-41789890D01*
X173973659Y-41963218D01*
X174151536Y-42048538D01*
X174274897Y-42107709D01*
X174274901Y-42107710D01*
X174274908Y-42107714D01*
X174588871Y-42221987D01*
X174912522Y-42304936D01*
X175242745Y-42355763D01*
X175242754Y-42355763D01*
X175242756Y-42355764D01*
X175452558Y-42367217D01*
X175576361Y-42373976D01*
X175576365Y-42373975D01*
X175576370Y-42373976D01*
X175910141Y-42359404D01*
X175910145Y-42359403D01*
X175910154Y-42359403D01*
X176240911Y-42312181D01*
X176565448Y-42232768D01*
X176880639Y-42121926D01*
X184887063Y-38388469D01*
X185174572Y-38218266D01*
X185444015Y-38020702D01*
X185692796Y-37797681D01*
X185918518Y-37551348D01*
X186119009Y-37284076D01*
X186292336Y-36998440D01*
X186436833Y-36697191D01*
X186551106Y-36383228D01*
X186634055Y-36059577D01*
X186684882Y-35729354D01*
X186703095Y-35395738D01*
X186699549Y-35314507D01*
X186688523Y-35061958D01*
X186688522Y-35061952D01*
X186688522Y-35061946D01*
X186641300Y-34731188D01*
X186561886Y-34406651D01*
X186451045Y-34091461D01*
X186309843Y-33788652D01*
X186309841Y-33788649D01*
X186309838Y-33788642D01*
X186139650Y-33501158D01*
X186139648Y-33501156D01*
X186139641Y-33501143D01*
X185942077Y-33231700D01*
X185719056Y-32982919D01*
X185719051Y-32982914D01*
X185719046Y-32982909D01*
X185472727Y-32757200D01*
X185205455Y-32556708D01*
X184981180Y-32420615D01*
X184919815Y-32383378D01*
X184919809Y-32383375D01*
X184618575Y-32238886D01*
X184618556Y-32238878D01*
X184304605Y-32124609D01*
X184304600Y-32124608D01*
X183980956Y-32041661D01*
X183980953Y-32041660D01*
X183980951Y-32041660D01*
X183650729Y-31990833D01*
X183650725Y-31990832D01*
X183650720Y-31990832D01*
X183650717Y-31990831D01*
X183317126Y-31972620D01*
X183317103Y-31972619D01*
X182983332Y-31987191D01*
X182983317Y-31987193D01*
X182652570Y-32034414D01*
X182652563Y-32034415D01*
X182328035Y-32113825D01*
X182012826Y-32224673D01*
X181020743Y-32687289D01*
X180944787Y-32700682D01*
X180872310Y-32674303D01*
X180822733Y-32615219D01*
X180808995Y-32544126D01*
X180823351Y-32281165D01*
X180823352Y-32281144D01*
X180808779Y-31947377D01*
X180808777Y-31947355D01*
X180808344Y-31944323D01*
X180761557Y-31616604D01*
X180682143Y-31292067D01*
X180571302Y-30976876D01*
X180430100Y-30674068D01*
X180430098Y-30674065D01*
X180430095Y-30674058D01*
X180259906Y-30386573D01*
X180259904Y-30386571D01*
X180259897Y-30386558D01*
X180062334Y-30117116D01*
X179839312Y-29868335D01*
X179839307Y-29868330D01*
X179839302Y-29868325D01*
X179592983Y-29642616D01*
X179325711Y-29442124D01*
X179040082Y-29268800D01*
X179040068Y-29268792D01*
X178738832Y-29124302D01*
X178738813Y-29124294D01*
X178424861Y-29010025D01*
X178424856Y-29010024D01*
X178101213Y-28927077D01*
X178101210Y-28927076D01*
X178101208Y-28927076D01*
X177770985Y-28876249D01*
X177770981Y-28876248D01*
X177770976Y-28876248D01*
X177770973Y-28876247D01*
X177437382Y-28858036D01*
X177437360Y-28858035D01*
X177103589Y-28872607D01*
X177103574Y-28872609D01*
X176772826Y-28919830D01*
X176772819Y-28919831D01*
X176448291Y-28999242D01*
X176133083Y-29110089D01*
X172476951Y-30814973D01*
X172476947Y-30814975D01*
X172189436Y-30985178D01*
X172189430Y-30985182D01*
X171920001Y-31182735D01*
X171919996Y-31182739D01*
X171919993Y-31182742D01*
X171798035Y-31292073D01*
X171671208Y-31405768D01*
X171671203Y-31405773D01*
X171445489Y-31652097D01*
X171245002Y-31919363D01*
X171071671Y-32205005D01*
X171071669Y-32205009D01*
X170927180Y-32506243D01*
X170927172Y-32506262D01*
X170812903Y-32820214D01*
X170812902Y-32820219D01*
X170729955Y-33143862D01*
X170729954Y-33143867D01*
X170729954Y-33143868D01*
X170683555Y-33445326D01*
X170679126Y-33474099D01*
X170679125Y-33474102D01*
X170660914Y-33807693D01*
X170660913Y-33807715D01*
X169415948Y-33807715D01*
X169325101Y-33548086D01*
X169198371Y-33284930D01*
X169042974Y-33037617D01*
X168860864Y-32809258D01*
X168654331Y-32602725D01*
X168425972Y-32420615D01*
X168178659Y-32265218D01*
X168163856Y-32258089D01*
X167915508Y-32138490D01*
X167915505Y-32138489D01*
X167915503Y-32138488D01*
X167639811Y-32042020D01*
X167639799Y-32042017D01*
X167639795Y-32042016D01*
X167399600Y-31987193D01*
X167355052Y-31977025D01*
X167355050Y-31977024D01*
X167355047Y-31977024D01*
X167064807Y-31944323D01*
X166772725Y-31944323D01*
X166482484Y-31977024D01*
X166197736Y-32042016D01*
X166197729Y-32042018D01*
X166197721Y-32042020D01*
X165922032Y-32138487D01*
X165922023Y-32138490D01*
X165658872Y-32265218D01*
X165411567Y-32420610D01*
X165411563Y-32420612D01*
X165411560Y-32420615D01*
X165304186Y-32506243D01*
X165183196Y-32602729D01*
X164976672Y-32809253D01*
X164976668Y-32809257D01*
X164976668Y-32809258D01*
X164794558Y-33037617D01*
X164794555Y-33037620D01*
X164794553Y-33037624D01*
X164639161Y-33284929D01*
X164512433Y-33548080D01*
X164512431Y-33548086D01*
X164415963Y-33823778D01*
X164415961Y-33823786D01*
X164415959Y-33823793D01*
X164350967Y-34108541D01*
X164318266Y-34398782D01*
X159282862Y-34398782D01*
X175237995Y-18443648D01*
X181040949Y-18443648D01*
X181040949Y-18653831D01*
X181064822Y-18777687D01*
X181064822Y-18777689D01*
X181080723Y-18860193D01*
X181080725Y-18860200D01*
X181158834Y-19055310D01*
X181158836Y-19055313D01*
X181272462Y-19232119D01*
X181303854Y-19267488D01*
X190496242Y-28459876D01*
X190615090Y-28578724D01*
X190650459Y-28610116D01*
X190827265Y-28723742D01*
X191022380Y-28801854D01*
X191228743Y-28841628D01*
X191228750Y-28841628D01*
X191228752Y-28841629D01*
X191228753Y-28841629D01*
X191228754Y-28841629D01*
X191438920Y-28841629D01*
X191438922Y-28841629D01*
X191438924Y-28841628D01*
X191438930Y-28841628D01*
X191559513Y-28818386D01*
X191645294Y-28801854D01*
X191840409Y-28723742D01*
X192017215Y-28610116D01*
X192052584Y-28578724D01*
X192171432Y-28459876D01*
X201363820Y-19267488D01*
X201395212Y-19232119D01*
X201508838Y-19055313D01*
X201586950Y-18860197D01*
X201602853Y-18777688D01*
X201608254Y-18749665D01*
X201626724Y-18653834D01*
X201626725Y-18653824D01*
X201626725Y-18443660D01*
X201626725Y-18443657D01*
X201604787Y-18329829D01*
X201586950Y-18237284D01*
X201508838Y-18042169D01*
X201395212Y-17865363D01*
X201363820Y-17829994D01*
X201244972Y-17711146D01*
X192052584Y-8518758D01*
X192017215Y-8487366D01*
X192017212Y-8487364D01*
X192017211Y-8487363D01*
X191840408Y-8373739D01*
X191694276Y-8315237D01*
X191645294Y-8295628D01*
X191645293Y-8295627D01*
X191438930Y-8255853D01*
X191438922Y-8255853D01*
X191438921Y-8255853D01*
X191228752Y-8255853D01*
X191228743Y-8255853D01*
X191022381Y-8295627D01*
X190827265Y-8373739D01*
X190650462Y-8487363D01*
X190650460Y-8487365D01*
X190615087Y-8518760D01*
X181303856Y-17829991D01*
X181272461Y-17865364D01*
X181272459Y-17865366D01*
X181158835Y-18042169D01*
X181080724Y-18237284D01*
X181080723Y-18237285D01*
X181062887Y-18329830D01*
X181040949Y-18443648D01*
X175237995Y-18443648D01*
X188130190Y-5551453D01*
X188137261Y-5544830D01*
X188308184Y-5394938D01*
X188323623Y-5383092D01*
X188508546Y-5259532D01*
X188525417Y-5249790D01*
X188724886Y-5151423D01*
X188742886Y-5143968D01*
X188953490Y-5072477D01*
X188972302Y-5067437D01*
X189190433Y-5024049D01*
X189209743Y-5021506D01*
X189431681Y-5006960D01*
X189451149Y-5006960D01*
X189673084Y-5021506D01*
G37*
G04 #@! TD.AperFunction*
G04 #@! TA.AperFunction,NonConductor*
G36*
X191439196Y-11018054D02*
G01*
X198864524Y-18443382D01*
X198903088Y-18510177D01*
X198903088Y-18587305D01*
X198864524Y-18654100D01*
X191439196Y-26079428D01*
X191372401Y-26117992D01*
X191295273Y-26117992D01*
X191228478Y-26079428D01*
X183803150Y-18654100D01*
X183764586Y-18587305D01*
X183764586Y-18510177D01*
X183803150Y-18443382D01*
X191228478Y-11018054D01*
X191295273Y-10979490D01*
X191372401Y-10979490D01*
X191439196Y-11018054D01*
G37*
G04 #@! TD.AperFunction*
G04 #@! TA.AperFunction,NonConductor*
G36*
X191439196Y-37958822D02*
G01*
X198864524Y-45384150D01*
X198903088Y-45450945D01*
X198903088Y-45528073D01*
X198864524Y-45594868D01*
X191439196Y-53020196D01*
X191372401Y-53058760D01*
X191295273Y-53058760D01*
X191228478Y-53020196D01*
X183803150Y-45594868D01*
X183764586Y-45528073D01*
X183764586Y-45450945D01*
X183803150Y-45384150D01*
X191228478Y-37958822D01*
X191295273Y-37920258D01*
X191372401Y-37920258D01*
X191439196Y-37958822D01*
G37*
G04 #@! TD.AperFunction*
G04 #@! TA.AperFunction,NonConductor*
G36*
X198174388Y-58164399D02*
G01*
X205599716Y-65589727D01*
X205638280Y-65656522D01*
X205638280Y-65733650D01*
X205599716Y-65800445D01*
X198174388Y-73225773D01*
X198107593Y-73264337D01*
X198030465Y-73264337D01*
X197963670Y-73225773D01*
X190538342Y-65800445D01*
X190499778Y-65733650D01*
X190499778Y-65656522D01*
X190538342Y-65589727D01*
X197963670Y-58164399D01*
X198030465Y-58125835D01*
X198107593Y-58125835D01*
X198174388Y-58164399D01*
G37*
G04 #@! TD.AperFunction*
G04 #@! TA.AperFunction,NonConductor*
G36*
X184704004Y-71634783D02*
G01*
X192129332Y-79060111D01*
X192167896Y-79126906D01*
X192167896Y-79204034D01*
X192129332Y-79270829D01*
X184704004Y-86696157D01*
X184637209Y-86734721D01*
X184560081Y-86734721D01*
X184493286Y-86696157D01*
X177067958Y-79270829D01*
X177029394Y-79204034D01*
X177029394Y-79126906D01*
X177067958Y-79060111D01*
X184493286Y-71634783D01*
X184560081Y-71596219D01*
X184637209Y-71596219D01*
X184704004Y-71634783D01*
G37*
G04 #@! TD.AperFunction*
G04 #@! TA.AperFunction,NonConductor*
G36*
X124087275Y-78369975D02*
G01*
X131512603Y-85795303D01*
X131551167Y-85862098D01*
X131551167Y-85939226D01*
X131512603Y-86006021D01*
X124087275Y-93431349D01*
X124020480Y-93469913D01*
X123943352Y-93469913D01*
X123876557Y-93431349D01*
X116451229Y-86006021D01*
X116412665Y-85939226D01*
X116412665Y-85862098D01*
X116451229Y-85795303D01*
X123876557Y-78369975D01*
X123943352Y-78331411D01*
X124020480Y-78331411D01*
X124087275Y-78369975D01*
G37*
G04 #@! TD.AperFunction*
G04 #@! TA.AperFunction,NonConductor*
G36*
X151045749Y-78387681D02*
G01*
X158471077Y-85813009D01*
X158509641Y-85879804D01*
X158509641Y-85956932D01*
X158471077Y-86023727D01*
X151045749Y-93449055D01*
X150978954Y-93487619D01*
X150901826Y-93487619D01*
X150835031Y-93449055D01*
X143409703Y-86023727D01*
X143371139Y-85956932D01*
X143371139Y-85879804D01*
X143409703Y-85813009D01*
X150835031Y-78387681D01*
X150901826Y-78349117D01*
X150978954Y-78349117D01*
X151045749Y-78387681D01*
G37*
G04 #@! TD.AperFunction*
G04 #@! TA.AperFunction,NonConductor*
G36*
X171233620Y-85105167D02*
G01*
X178658948Y-92530495D01*
X178697512Y-92597290D01*
X178697512Y-92674418D01*
X178658948Y-92741213D01*
X171233620Y-100166541D01*
X171166825Y-100205105D01*
X171089697Y-100205105D01*
X171022902Y-100166541D01*
X163597574Y-92741213D01*
X163559010Y-92674418D01*
X163559010Y-92597290D01*
X163597574Y-92530495D01*
X171022902Y-85105167D01*
X171089697Y-85066603D01*
X171166825Y-85066603D01*
X171233620Y-85105167D01*
G37*
G04 #@! TD.AperFunction*
M02*
