G04 #@! TF.GenerationSoftware,KiCad,Pcbnew,8.0.5*
G04 #@! TF.CreationDate,2024-09-16T20:13:52+09:00*
G04 #@! TF.ProjectId,SandyLP_Plate_Middle,53616e64-794c-4505-9f50-6c6174655f4d,v.0*
G04 #@! TF.SameCoordinates,Original*
G04 #@! TF.FileFunction,Profile,NP*
%FSLAX46Y46*%
G04 Gerber Fmt 4.6, Leading zero omitted, Abs format (unit mm)*
G04 Created by KiCad (PCBNEW 8.0.5) date 2024-09-16 20:13:52*
%MOMM*%
%LPD*%
G01*
G04 APERTURE LIST*
G04 #@! TA.AperFunction,Profile*
%ADD10C,0.300000*%
G04 #@! TD*
G04 APERTURE END LIST*
D10*
X122613637Y-97133025D02*
X110888922Y-85408311D01*
X125442064Y-97133025D02*
X136091092Y-86483997D01*
X149526121Y-97090599D02*
X138919519Y-86483997D01*
X152354548Y-97090599D02*
X156261313Y-93183834D01*
X169749375Y-103843469D02*
X159089740Y-93183834D01*
X172577802Y-103843469D02*
X209291342Y-67123969D01*
X209291342Y-64295542D02*
X198591704Y-53595905D01*
X198591704Y-50767478D02*
X202473721Y-46871320D01*
X202473721Y-44042892D02*
X191861715Y-33430887D01*
X191861715Y-30602460D02*
X202517814Y-19932218D01*
X188027201Y-5441605D02*
X110888922Y-82579884D01*
X202517814Y-17103791D02*
X190855628Y-5441605D01*
X110888922Y-85408311D02*
G75*
G02*
X110888921Y-82579883I1414212J1414214D01*
G01*
X125442064Y-97133025D02*
G75*
G02*
X122613636Y-97133026I-1414214J1414212D01*
G01*
X136091092Y-86483997D02*
G75*
G02*
X138919518Y-86483997I1414213J-1414212D01*
G01*
X152354548Y-97090599D02*
G75*
G02*
X149526120Y-97090600I-1414214J1414212D01*
G01*
X156261313Y-93183834D02*
G75*
G02*
X159089739Y-93183834I1414213J-1414212D01*
G01*
X172577802Y-103843469D02*
G75*
G02*
X169749374Y-103843470I-1414214J1414212D01*
G01*
X198591704Y-53595905D02*
G75*
G02*
X198591722Y-50767497I1414091J1414195D01*
G01*
X209291342Y-64295542D02*
G75*
G02*
X209291381Y-67124007I-1414317J-1414252D01*
G01*
X191861715Y-33430887D02*
G75*
G02*
X191861713Y-30602458I1414212J1414215D01*
G01*
X202473721Y-44042892D02*
G75*
G02*
X202473739Y-46871338I-1414337J-1414232D01*
G01*
X188027201Y-5441605D02*
G75*
G02*
X190855620Y-5441612I1414206J-1414207D01*
G01*
X202517814Y-17103791D02*
G75*
G02*
X202517792Y-19932196I-1414236J-1414191D01*
G01*
M02*
