%TF.GenerationSoftware,KiCad,Pcbnew,8.0.5*%
%TF.CreationDate,2024-09-16T20:13:48+09:00*%
%TF.ProjectId,SandyLP_Plate_Middle,53616e64-794c-4505-9f50-6c6174655f4d,v.0*%
%TF.SameCoordinates,Original*%
%TF.FileFunction,Drillmap*%
%TF.FilePolarity,Positive*%
%FSLAX45Y45*%
G04 Gerber Fmt 4.5, Leading zero omitted, Abs format (unit mm)*
G04 Created by KiCad (PCBNEW 8.0.5) date 2024-09-16 20:13:48*
%MOMM*%
%LPD*%
G01*
G04 APERTURE LIST*
%ADD10C,0.300000*%
%ADD11C,0.200000*%
%ADD12C,0.100000*%
%ADD13C,0.470000*%
%ADD14C,0.630000*%
G04 APERTURE END LIST*
D10*
X12261364Y-9713303D02*
X11088892Y-8540831D01*
X12544206Y-9713303D02*
X13609109Y-8648400D01*
X14952612Y-9709060D02*
X13891952Y-8648400D01*
X15235455Y-9709060D02*
X15626131Y-9318383D01*
X16974938Y-10384347D02*
X15908974Y-9318383D01*
X17257780Y-10384347D02*
X20929134Y-6712397D01*
X20929134Y-6429554D02*
X19859170Y-5359591D01*
X19859170Y-5076748D02*
X20247372Y-4687132D01*
X20247372Y-4404289D02*
X19186172Y-3343089D01*
X19186172Y-3060246D02*
X20251781Y-1993222D01*
X18802720Y-544161D02*
X11088892Y-8257988D01*
X20251781Y-1710379D02*
X19085563Y-544161D01*
X11088892Y-8540831D02*
G75*
G02*
X11088892Y-8257988I141421J141421D01*
G01*
X12544206Y-9713303D02*
G75*
G02*
X12261364Y-9713303I-141421J141421D01*
G01*
X13609109Y-8648400D02*
G75*
G02*
X13891952Y-8648400I141421J-141421D01*
G01*
X15235455Y-9709060D02*
G75*
G02*
X14952612Y-9709060I-141421J141421D01*
G01*
X15626131Y-9318383D02*
G75*
G02*
X15908974Y-9318383I141421J-141421D01*
G01*
X17257780Y-10384347D02*
G75*
G02*
X16974937Y-10384347I-141421J141421D01*
G01*
X19859170Y-5359591D02*
G75*
G02*
X19859172Y-5076750I141409J141420D01*
G01*
X20929134Y-6429554D02*
G75*
G02*
X20929138Y-6712401I-141432J-141425D01*
G01*
X19186172Y-3343089D02*
G75*
G02*
X19186171Y-3060246I141421J141422D01*
G01*
X20247372Y-4404289D02*
G75*
G02*
X20247374Y-4687134I-141434J-141423D01*
G01*
X18802720Y-544161D02*
G75*
G02*
X19085562Y-544161I141421J-141421D01*
G01*
X20251781Y-1710379D02*
G75*
G02*
X20251779Y-1993220I-141424J-141419D01*
G01*
D11*
D12*
X11888572Y-8080447D02*
X11988572Y-8180447D01*
X11988572Y-8080447D02*
X11888572Y-8180447D01*
X11514308Y-8625422D02*
X12433547Y-7706183D01*
X12362836Y-7635472D02*
G75*
G02*
X12433547Y-7706183I35355J-35355D01*
G01*
X12362836Y-7635472D02*
X11443597Y-8554711D01*
X11443597Y-8554711D02*
G75*
G03*
X11514308Y-8625422I35355J-35355D01*
G01*
X11888572Y-8999686D02*
X11988572Y-9099686D01*
X11988572Y-8999686D02*
X11888572Y-9099686D01*
X12433547Y-9473950D02*
X11514308Y-8554711D01*
X11443597Y-8625422D02*
G75*
G02*
X11514308Y-8554711I35355J35355D01*
G01*
X11443597Y-8625422D02*
X12362836Y-9544660D01*
X12362836Y-9544660D02*
G75*
G03*
X12433547Y-9473950I35355J35355D01*
G01*
X12807811Y-8080447D02*
X12907811Y-8180447D01*
X12907811Y-8080447D02*
X12807811Y-8180447D01*
X13352786Y-8554711D02*
X12433547Y-7635472D01*
X12362836Y-7706183D02*
G75*
G02*
X12433547Y-7635472I35355J35355D01*
G01*
X12362836Y-7706183D02*
X13282075Y-8625422D01*
X13282075Y-8625422D02*
G75*
G03*
X13352786Y-8554711I35355J35355D01*
G01*
X12807811Y-8999686D02*
X12907811Y-9099686D01*
X12907811Y-8999686D02*
X12807811Y-9099686D01*
X12433547Y-9544660D02*
X13352786Y-8625422D01*
X13282075Y-8554711D02*
G75*
G02*
X13352786Y-8625422I35355J-35355D01*
G01*
X13282075Y-8554711D02*
X12362836Y-9473950D01*
X12362836Y-9473950D02*
G75*
G03*
X12433547Y-9544660I35355J-35355D01*
G01*
X14584420Y-8082217D02*
X14684420Y-8182217D01*
X14684420Y-8082217D02*
X14584420Y-8182217D01*
X14210155Y-8627192D02*
X15129394Y-7707953D01*
X15058684Y-7637243D02*
G75*
G02*
X15129394Y-7707953I35355J-35355D01*
G01*
X15058684Y-7637243D02*
X14139445Y-8556482D01*
X14139445Y-8556482D02*
G75*
G03*
X14210155Y-8627192I35355J-35355D01*
G01*
X14584420Y-9001456D02*
X14684420Y-9101456D01*
X14684420Y-9001456D02*
X14584420Y-9101456D01*
X15129394Y-9475720D02*
X14210155Y-8556482D01*
X14139445Y-8627192D02*
G75*
G02*
X14210155Y-8556482I35355J35355D01*
G01*
X14139445Y-8627192D02*
X15058684Y-9546431D01*
X15058684Y-9546431D02*
G75*
G03*
X15129394Y-9475720I35355J35355D01*
G01*
X15503658Y-8082217D02*
X15603658Y-8182217D01*
X15603658Y-8082217D02*
X15503658Y-8182217D01*
X16048633Y-8556482D02*
X15129394Y-7637243D01*
X15058684Y-7707953D02*
G75*
G02*
X15129394Y-7637243I35355J35355D01*
G01*
X15058684Y-7707953D02*
X15977922Y-8627192D01*
X15977922Y-8627192D02*
G75*
G03*
X16048633Y-8556482I35355J35355D01*
G01*
X15503658Y-9001456D02*
X15603658Y-9101456D01*
X15603658Y-9001456D02*
X15503658Y-9101456D01*
X15129394Y-9546431D02*
X16048633Y-8627192D01*
X15977922Y-8556482D02*
G75*
G02*
X16048633Y-8627192I35355J-35355D01*
G01*
X15977922Y-8556482D02*
X15058684Y-9475720D01*
X15058684Y-9475720D02*
G75*
G03*
X15129394Y-9546431I35355J-35355D01*
G01*
X16603207Y-8753966D02*
X16703207Y-8853966D01*
X16703207Y-8753966D02*
X16603207Y-8853966D01*
X16228943Y-9298941D02*
X17148181Y-8379702D01*
X17077471Y-8308991D02*
G75*
G02*
X17148181Y-8379702I35355J-35355D01*
G01*
X17077471Y-8308991D02*
X16158232Y-9228230D01*
X16158232Y-9228230D02*
G75*
G03*
X16228943Y-9298941I35355J-35355D01*
G01*
X16603207Y-9673205D02*
X16703207Y-9773205D01*
X16703207Y-9673205D02*
X16603207Y-9773205D01*
X17148181Y-10147469D02*
X16228943Y-9228230D01*
X16158232Y-9298941D02*
G75*
G02*
X16228943Y-9228230I35355J35355D01*
G01*
X16158232Y-9298941D02*
X17077471Y-10218180D01*
X17077471Y-10218180D02*
G75*
G03*
X17148181Y-10147469I35355J35355D01*
G01*
X17522446Y-8753966D02*
X17622446Y-8853966D01*
X17622446Y-8753966D02*
X17522446Y-8853966D01*
X18067420Y-9228230D02*
X17148181Y-8308991D01*
X17077471Y-8379702D02*
G75*
G02*
X17148181Y-8308991I35355J35355D01*
G01*
X17077471Y-8379702D02*
X17996710Y-9298941D01*
X17996710Y-9298941D02*
G75*
G03*
X18067420Y-9228230I35355J35355D01*
G01*
X17522446Y-9673205D02*
X17622446Y-9773205D01*
X17622446Y-9673205D02*
X17522446Y-9773205D01*
X17148181Y-10218180D02*
X18067420Y-9298941D01*
X17996710Y-9228230D02*
G75*
G02*
X18067420Y-9298941I35355J-35355D01*
G01*
X17996710Y-9228230D02*
X17077471Y-10147469D01*
X17077471Y-10147469D02*
G75*
G03*
X17148181Y-10218180I35355J-35355D01*
G01*
X17950245Y-7406928D02*
X18050245Y-7506928D01*
X18050245Y-7406928D02*
X17950245Y-7506928D01*
X17575981Y-7951902D02*
X18495220Y-7032663D01*
X18424509Y-6961953D02*
G75*
G02*
X18495220Y-7032663I35355J-35355D01*
G01*
X18424509Y-6961953D02*
X17505270Y-7881192D01*
X17505270Y-7881192D02*
G75*
G03*
X17575981Y-7951902I35355J-35355D01*
G01*
X17950245Y-8326166D02*
X18050245Y-8426166D01*
X18050245Y-8326166D02*
X17950245Y-8426166D01*
X18495220Y-8800431D02*
X17575981Y-7881192D01*
X17505270Y-7951902D02*
G75*
G02*
X17575981Y-7881192I35355J35355D01*
G01*
X17505270Y-7951902D02*
X18424509Y-8871141D01*
X18424509Y-8871141D02*
G75*
G03*
X18495220Y-8800431I35355J35355D01*
G01*
X18623764Y-1345255D02*
X18723764Y-1445255D01*
X18723764Y-1345255D02*
X18623764Y-1445255D01*
X18249500Y-1890229D02*
X19168739Y-970991D01*
X19098028Y-900280D02*
G75*
G02*
X19168739Y-970991I35355J-35355D01*
G01*
X19098028Y-900280D02*
X18178790Y-1819519D01*
X18178790Y-1819519D02*
G75*
G03*
X18249500Y-1890229I35355J-35355D01*
G01*
X18623764Y-2264494D02*
X18723764Y-2364494D01*
X18723764Y-2264494D02*
X18623764Y-2364494D01*
X19168739Y-2738758D02*
X18249500Y-1819519D01*
X18178790Y-1890229D02*
G75*
G02*
X18249500Y-1819519I35355J35355D01*
G01*
X18178790Y-1890229D02*
X19098028Y-2809468D01*
X19098028Y-2809468D02*
G75*
G03*
X19168739Y-2738758I35355J35355D01*
G01*
X18623764Y-4039331D02*
X18723764Y-4139331D01*
X18723764Y-4039331D02*
X18623764Y-4139331D01*
X18249500Y-4584306D02*
X19168739Y-3665067D01*
X19098028Y-3594357D02*
G75*
G02*
X19168739Y-3665067I35355J-35355D01*
G01*
X19098028Y-3594357D02*
X18178790Y-4513596D01*
X18178790Y-4513596D02*
G75*
G03*
X18249500Y-4584306I35355J-35355D01*
G01*
X18623764Y-4958570D02*
X18723764Y-5058570D01*
X18723764Y-4958570D02*
X18623764Y-5058570D01*
X19168739Y-5432834D02*
X18249500Y-4513596D01*
X18178790Y-4584306D02*
G75*
G02*
X18249500Y-4513596I35355J35355D01*
G01*
X18178790Y-4584306D02*
X19098028Y-5503545D01*
X19098028Y-5503545D02*
G75*
G03*
X19168739Y-5432834I35355J35355D01*
G01*
X18869484Y-7406928D02*
X18969484Y-7506928D01*
X18969484Y-7406928D02*
X18869484Y-7506928D01*
X19414459Y-7881192D02*
X18495220Y-6961953D01*
X18424509Y-7032663D02*
G75*
G02*
X18495220Y-6961953I35355J35355D01*
G01*
X18424509Y-7032663D02*
X19343748Y-7951902D01*
X19343748Y-7951902D02*
G75*
G03*
X19414459Y-7881192I35355J35355D01*
G01*
X18869484Y-8326166D02*
X18969484Y-8426166D01*
X18969484Y-8326166D02*
X18869484Y-8426166D01*
X18495220Y-8871141D02*
X19414459Y-7951902D01*
X19343748Y-7881192D02*
G75*
G02*
X19414459Y-7951902I35355J-35355D01*
G01*
X19343748Y-7881192D02*
X18424509Y-8800431D01*
X18424509Y-8800431D02*
G75*
G03*
X18495220Y-8871141I35355J-35355D01*
G01*
X19297284Y-6059889D02*
X19397284Y-6159889D01*
X19397284Y-6059889D02*
X19297284Y-6159889D01*
X18923019Y-6604864D02*
X19842258Y-5685625D01*
X19771548Y-5614914D02*
G75*
G02*
X19842258Y-5685625I35355J-35355D01*
G01*
X19771548Y-5614914D02*
X18852309Y-6534153D01*
X18852309Y-6534153D02*
G75*
G03*
X18923019Y-6604864I35355J-35355D01*
G01*
X19297284Y-6979128D02*
X19397284Y-7079128D01*
X19397284Y-6979128D02*
X19297284Y-7079128D01*
X19842258Y-7453392D02*
X18923019Y-6534153D01*
X18852309Y-6604864D02*
G75*
G02*
X18923019Y-6534153I35355J35355D01*
G01*
X18852309Y-6604864D02*
X19771548Y-7524103D01*
X19771548Y-7524103D02*
G75*
G03*
X19842258Y-7453392I35355J35355D01*
G01*
X19543003Y-1345255D02*
X19643003Y-1445255D01*
X19643003Y-1345255D02*
X19543003Y-1445255D01*
X20087978Y-1819519D02*
X19168739Y-900280D01*
X19098028Y-970991D02*
G75*
G02*
X19168739Y-900280I35355J35355D01*
G01*
X19098028Y-970991D02*
X20017267Y-1890229D01*
X20017267Y-1890229D02*
G75*
G03*
X20087978Y-1819519I35355J35355D01*
G01*
X19543003Y-2264494D02*
X19643003Y-2364494D01*
X19643003Y-2264494D02*
X19543003Y-2364494D01*
X19168739Y-2809468D02*
X20087978Y-1890229D01*
X20017267Y-1819519D02*
G75*
G02*
X20087978Y-1890229I35355J-35355D01*
G01*
X20017267Y-1819519D02*
X19098028Y-2738758D01*
X19098028Y-2738758D02*
G75*
G03*
X19168739Y-2809468I35355J-35355D01*
G01*
X19543003Y-4039331D02*
X19643003Y-4139331D01*
X19643003Y-4039331D02*
X19543003Y-4139331D01*
X20087978Y-4513596D02*
X19168739Y-3594357D01*
X19098028Y-3665067D02*
G75*
G02*
X19168739Y-3594357I35355J35355D01*
G01*
X19098028Y-3665067D02*
X20017267Y-4584306D01*
X20017267Y-4584306D02*
G75*
G03*
X20087978Y-4513596I35355J35355D01*
G01*
X19543003Y-4958570D02*
X19643003Y-5058570D01*
X19643003Y-4958570D02*
X19543003Y-5058570D01*
X19168739Y-5503545D02*
X20087978Y-4584306D01*
X20017267Y-4513596D02*
G75*
G02*
X20087978Y-4584306I35355J-35355D01*
G01*
X20017267Y-4513596D02*
X19098028Y-5432834D01*
X19098028Y-5432834D02*
G75*
G03*
X19168739Y-5503545I35355J-35355D01*
G01*
X20216522Y-6059889D02*
X20316522Y-6159889D01*
X20316522Y-6059889D02*
X20216522Y-6159889D01*
X20761497Y-6534153D02*
X19842258Y-5614914D01*
X19771548Y-5685625D02*
G75*
G02*
X19842258Y-5614914I35355J35355D01*
G01*
X19771548Y-5685625D02*
X20690786Y-6604864D01*
X20690786Y-6604864D02*
G75*
G03*
X20761497Y-6534153I35355J35355D01*
G01*
X20216522Y-6979128D02*
X20316522Y-7079128D01*
X20316522Y-6979128D02*
X20216522Y-7079128D01*
X19842258Y-7524103D02*
X20761497Y-6604864D01*
X20690786Y-6534153D02*
G75*
G02*
X20761497Y-6604864I35355J-35355D01*
G01*
X20690786Y-6534153D02*
X19771548Y-7453392D01*
X19771548Y-7453392D02*
G75*
G03*
X19842258Y-7524103I35355J-35355D01*
G01*
D13*
X14232800Y-6148559D02*
G75*
G02*
X13762800Y-6148559I-235000J0D01*
G01*
X13762800Y-6148559D02*
G75*
G02*
X14232800Y-6148559I235000J0D01*
G01*
X15553543Y-6931901D02*
G75*
G02*
X15083543Y-6931901I-235000J0D01*
G01*
X15083543Y-6931901D02*
G75*
G02*
X15553543Y-6931901I235000J0D01*
G01*
D12*
X15078090Y-6972306D02*
X15133031Y-7090126D01*
X15558995Y-6891495D02*
G75*
G02*
X15133031Y-7090126I-212982J-99315D01*
G01*
X15558995Y-6891495D02*
X15504055Y-6773675D01*
X15504055Y-6773675D02*
G75*
G03*
X15078090Y-6972306I-212982J-99315D01*
G01*
D13*
X16062659Y-5192418D02*
G75*
G02*
X15592659Y-5192418I-235000J0D01*
G01*
X15592659Y-5192418D02*
G75*
G02*
X16062659Y-5192418I235000J0D01*
G01*
D12*
X15868065Y-5432871D02*
X15985885Y-5377930D01*
X15787254Y-4951966D02*
G75*
G02*
X15985885Y-5377930I99315J-212982D01*
G01*
X15787254Y-4951966D02*
X15669434Y-5006906D01*
X15669434Y-5006906D02*
G75*
G03*
X15868065Y-5432871I99315J-212982D01*
G01*
D13*
X16926877Y-3454482D02*
G75*
G02*
X16456877Y-3454482I-235000J0D01*
G01*
X16456877Y-3454482D02*
G75*
G02*
X16926877Y-3454482I235000J0D01*
G01*
X17406162Y-6542992D02*
G75*
G02*
X16936162Y-6542992I-235000J0D01*
G01*
X16936162Y-6542992D02*
G75*
G02*
X17406162Y-6542992I235000J0D01*
G01*
D12*
X17211568Y-6783445D02*
X17329388Y-6728504D01*
X17130757Y-6302540D02*
G75*
G02*
X17329388Y-6728504I99315J-212982D01*
G01*
X17130757Y-6302540D02*
X17012937Y-6357480D01*
X17012937Y-6357480D02*
G75*
G03*
X17211568Y-6783445I99315J-212982D01*
G01*
D13*
X17713754Y-4828258D02*
G75*
G02*
X17243754Y-4828258I-235000J0D01*
G01*
X17243754Y-4828258D02*
G75*
G02*
X17713754Y-4828258I235000J0D01*
G01*
D12*
X17519159Y-5068711D02*
X17636979Y-5013770D01*
X17438349Y-4587806D02*
G75*
G02*
X17636979Y-5013770I99315J-212982D01*
G01*
X17438349Y-4587806D02*
X17320529Y-4642746D01*
X17320529Y-4642746D02*
G75*
G03*
X17519159Y-5068711I99315J-212982D01*
G01*
D14*
X13533098Y-7030558D02*
X13533098Y-7660558D01*
X13218098Y-7345558D02*
X13848098Y-7345558D01*
D12*
X13498556Y-7709230D02*
X13833890Y-7552861D01*
X13567640Y-6981887D02*
G75*
G02*
X13833890Y-7552861I133125J-285487D01*
G01*
X13567640Y-6981887D02*
X13232306Y-7138256D01*
X13232306Y-7138256D02*
G75*
G03*
X13498556Y-7709230I133125J-285487D01*
G01*
D14*
X13903558Y-7443445D02*
X13903558Y-8073445D01*
X13588558Y-7758445D02*
X14218558Y-7758445D01*
D12*
X13651502Y-8223545D02*
X14421864Y-7864319D01*
X14155614Y-7293345D02*
G75*
G02*
X14421864Y-7864319I133125J-285487D01*
G01*
X14155614Y-7293345D02*
X13385253Y-7652571D01*
X13385253Y-7652571D02*
G75*
G03*
X13651502Y-8223545I133125J-285487D01*
G01*
D14*
X14881904Y-5681752D02*
X14881904Y-6311752D01*
X14566904Y-5996752D02*
X15196904Y-5996752D01*
D12*
X14847362Y-6360423D02*
X15182696Y-6204055D01*
X14916446Y-5633081D02*
G75*
G02*
X15182696Y-6204055I133125J-285487D01*
G01*
X14916446Y-5633081D02*
X14581112Y-5789449D01*
X14581112Y-5789449D02*
G75*
G03*
X14847362Y-6360423I133125J-285487D01*
G01*
D14*
X15252365Y-6094639D02*
X15252365Y-6724639D01*
X14937365Y-6409639D02*
X15567365Y-6409639D01*
D12*
X15000308Y-6874739D02*
X15770670Y-6515513D01*
X15504421Y-5944539D02*
G75*
G02*
X15770670Y-6515513I133125J-285487D01*
G01*
X15504421Y-5944539D02*
X14734059Y-6303765D01*
X14734059Y-6303765D02*
G75*
G03*
X15000309Y-6874739I133125J-285487D01*
G01*
D14*
X16227175Y-4336482D02*
X16227175Y-4966482D01*
X15912175Y-4651482D02*
X16542175Y-4651482D01*
D12*
X16192633Y-5015153D02*
X16527967Y-4858784D01*
X16261717Y-4287810D02*
G75*
G02*
X16527967Y-4858784I133125J-285487D01*
G01*
X16261717Y-4287810D02*
X15926383Y-4444179D01*
X15926383Y-4444179D02*
G75*
G03*
X16192633Y-5015153I133125J-285487D01*
G01*
D14*
X16227175Y-7030558D02*
X16227175Y-7660558D01*
X15912175Y-7345558D02*
X16542175Y-7345558D01*
D12*
X16192633Y-7709230D02*
X16527967Y-7552861D01*
X16261717Y-6981887D02*
G75*
G02*
X16527967Y-7552861I133125J-285487D01*
G01*
X16261717Y-6981887D02*
X15926383Y-7138256D01*
X15926383Y-7138256D02*
G75*
G03*
X16192633Y-7709230I133125J-285487D01*
G01*
D14*
X16597635Y-4749368D02*
X16597635Y-5379368D01*
X16282635Y-5064368D02*
X16912635Y-5064368D01*
D12*
X16345579Y-5529468D02*
X17115941Y-5170243D01*
X16849691Y-4599269D02*
G75*
G02*
X17115941Y-5170243I133125J-285487D01*
G01*
X16849691Y-4599269D02*
X16079330Y-4958494D01*
X16079330Y-4958494D02*
G75*
G03*
X16345579Y-5529468I133125J-285487D01*
G01*
D14*
X16597635Y-7443445D02*
X16597635Y-8073445D01*
X16282635Y-7758445D02*
X16912635Y-7758445D01*
D12*
X16345579Y-8223545D02*
X17115941Y-7864319D01*
X16849691Y-7293345D02*
G75*
G02*
X17115941Y-7864319I133125J-285487D01*
G01*
X16849691Y-7293345D02*
X16079330Y-7652571D01*
X16079330Y-7652571D02*
G75*
G03*
X16345579Y-8223545I133125J-285487D01*
G01*
D14*
X17574213Y-2989443D02*
X17574213Y-3619443D01*
X17259213Y-3304443D02*
X17889213Y-3304443D01*
D12*
X17539671Y-3668114D02*
X17875005Y-3511746D01*
X17608755Y-2940772D02*
G75*
G02*
X17875005Y-3511746I133125J-285487D01*
G01*
X17608756Y-2940772D02*
X17273422Y-3097140D01*
X17273422Y-3097140D02*
G75*
G03*
X17539671Y-3668114I133125J-285487D01*
G01*
D14*
X17574213Y-5683520D02*
X17574213Y-6313520D01*
X17259213Y-5998520D02*
X17889213Y-5998520D01*
D12*
X17539671Y-6362191D02*
X17875005Y-6205822D01*
X17608755Y-5634848D02*
G75*
G02*
X17875005Y-6205822I133125J-285487D01*
G01*
X17608756Y-5634849D02*
X17273422Y-5791217D01*
X17273422Y-5791217D02*
G75*
G03*
X17539671Y-6362191I133125J-285487D01*
G01*
D14*
X17944674Y-3402330D02*
X17944674Y-4032330D01*
X17629674Y-3717330D02*
X18259674Y-3717330D01*
D12*
X17692618Y-4182429D02*
X18462979Y-3823204D01*
X18196730Y-3252230D02*
G75*
G02*
X18462979Y-3823204I133125J-285487D01*
G01*
X18196730Y-3252230D02*
X17426368Y-3611456D01*
X17426368Y-3611456D02*
G75*
G03*
X17692618Y-4182430I133125J-285487D01*
G01*
D14*
X17944674Y-6096407D02*
X17944674Y-6726407D01*
X17629674Y-6411407D02*
X18259674Y-6411407D01*
D12*
X17692618Y-6876506D02*
X18462979Y-6517281D01*
X18196730Y-5946307D02*
G75*
G02*
X18462979Y-6517281I133125J-285487D01*
G01*
X18196730Y-5946307D02*
X17426368Y-6305532D01*
X17426368Y-6305532D02*
G75*
G03*
X17692618Y-6876506I133125J-285487D01*
G01*
D11*
X11276090Y-10769409D02*
X11276090Y-10569409D01*
X11276090Y-10569409D02*
X11323709Y-10569409D01*
X11323709Y-10569409D02*
X11352281Y-10578933D01*
X11352281Y-10578933D02*
X11371328Y-10597981D01*
X11371328Y-10597981D02*
X11380852Y-10617028D01*
X11380852Y-10617028D02*
X11390376Y-10655124D01*
X11390376Y-10655124D02*
X11390376Y-10683695D01*
X11390376Y-10683695D02*
X11380852Y-10721790D01*
X11380852Y-10721790D02*
X11371328Y-10740838D01*
X11371328Y-10740838D02*
X11352281Y-10759886D01*
X11352281Y-10759886D02*
X11323709Y-10769409D01*
X11323709Y-10769409D02*
X11276090Y-10769409D01*
X11476090Y-10769409D02*
X11476090Y-10636076D01*
X11476090Y-10674171D02*
X11485614Y-10655124D01*
X11485614Y-10655124D02*
X11495138Y-10645600D01*
X11495138Y-10645600D02*
X11514185Y-10636076D01*
X11514185Y-10636076D02*
X11533233Y-10636076D01*
X11599900Y-10769409D02*
X11599900Y-10636076D01*
X11599900Y-10569409D02*
X11590376Y-10578933D01*
X11590376Y-10578933D02*
X11599900Y-10588457D01*
X11599900Y-10588457D02*
X11609424Y-10578933D01*
X11609424Y-10578933D02*
X11599900Y-10569409D01*
X11599900Y-10569409D02*
X11599900Y-10588457D01*
X11723709Y-10769409D02*
X11704662Y-10759886D01*
X11704662Y-10759886D02*
X11695138Y-10740838D01*
X11695138Y-10740838D02*
X11695138Y-10569409D01*
X11828471Y-10769409D02*
X11809424Y-10759886D01*
X11809424Y-10759886D02*
X11799900Y-10740838D01*
X11799900Y-10740838D02*
X11799900Y-10569409D01*
X12057043Y-10769409D02*
X12057043Y-10569409D01*
X12057043Y-10569409D02*
X12123709Y-10712267D01*
X12123709Y-10712267D02*
X12190376Y-10569409D01*
X12190376Y-10569409D02*
X12190376Y-10769409D01*
X12371328Y-10769409D02*
X12371328Y-10664648D01*
X12371328Y-10664648D02*
X12361805Y-10645600D01*
X12361805Y-10645600D02*
X12342757Y-10636076D01*
X12342757Y-10636076D02*
X12304662Y-10636076D01*
X12304662Y-10636076D02*
X12285614Y-10645600D01*
X12371328Y-10759886D02*
X12352281Y-10769409D01*
X12352281Y-10769409D02*
X12304662Y-10769409D01*
X12304662Y-10769409D02*
X12285614Y-10759886D01*
X12285614Y-10759886D02*
X12276090Y-10740838D01*
X12276090Y-10740838D02*
X12276090Y-10721790D01*
X12276090Y-10721790D02*
X12285614Y-10702743D01*
X12285614Y-10702743D02*
X12304662Y-10693219D01*
X12304662Y-10693219D02*
X12352281Y-10693219D01*
X12352281Y-10693219D02*
X12371328Y-10683695D01*
X12466566Y-10636076D02*
X12466566Y-10836076D01*
X12466566Y-10645600D02*
X12485614Y-10636076D01*
X12485614Y-10636076D02*
X12523709Y-10636076D01*
X12523709Y-10636076D02*
X12542757Y-10645600D01*
X12542757Y-10645600D02*
X12552281Y-10655124D01*
X12552281Y-10655124D02*
X12561805Y-10674171D01*
X12561805Y-10674171D02*
X12561805Y-10731314D01*
X12561805Y-10731314D02*
X12552281Y-10750362D01*
X12552281Y-10750362D02*
X12542757Y-10759886D01*
X12542757Y-10759886D02*
X12523709Y-10769409D01*
X12523709Y-10769409D02*
X12485614Y-10769409D01*
X12485614Y-10769409D02*
X12466566Y-10759886D01*
X12647519Y-10750362D02*
X12657043Y-10759886D01*
X12657043Y-10759886D02*
X12647519Y-10769409D01*
X12647519Y-10769409D02*
X12637995Y-10759886D01*
X12637995Y-10759886D02*
X12647519Y-10750362D01*
X12647519Y-10750362D02*
X12647519Y-10769409D01*
X12647519Y-10645600D02*
X12657043Y-10655124D01*
X12657043Y-10655124D02*
X12647519Y-10664648D01*
X12647519Y-10664648D02*
X12637995Y-10655124D01*
X12637995Y-10655124D02*
X12647519Y-10645600D01*
X12647519Y-10645600D02*
X12647519Y-10664648D01*
D12*
X10915314Y-11047926D02*
X11015314Y-11147926D01*
X11015314Y-11047926D02*
X10915314Y-11147926D01*
D11*
X11380852Y-11189409D02*
X11266566Y-11189409D01*
X11323709Y-11189409D02*
X11323709Y-10989409D01*
X11323709Y-10989409D02*
X11304662Y-11017981D01*
X11304662Y-11017981D02*
X11285614Y-11037028D01*
X11285614Y-11037028D02*
X11266566Y-11046552D01*
X11466566Y-11170362D02*
X11476090Y-11179886D01*
X11476090Y-11179886D02*
X11466566Y-11189409D01*
X11466566Y-11189409D02*
X11457043Y-11179886D01*
X11457043Y-11179886D02*
X11466566Y-11170362D01*
X11466566Y-11170362D02*
X11466566Y-11189409D01*
X11599900Y-10989409D02*
X11618947Y-10989409D01*
X11618947Y-10989409D02*
X11637995Y-10998933D01*
X11637995Y-10998933D02*
X11647519Y-11008457D01*
X11647519Y-11008457D02*
X11657043Y-11027505D01*
X11657043Y-11027505D02*
X11666566Y-11065600D01*
X11666566Y-11065600D02*
X11666566Y-11113219D01*
X11666566Y-11113219D02*
X11657043Y-11151314D01*
X11657043Y-11151314D02*
X11647519Y-11170362D01*
X11647519Y-11170362D02*
X11637995Y-11179886D01*
X11637995Y-11179886D02*
X11618947Y-11189409D01*
X11618947Y-11189409D02*
X11599900Y-11189409D01*
X11599900Y-11189409D02*
X11580852Y-11179886D01*
X11580852Y-11179886D02*
X11571328Y-11170362D01*
X11571328Y-11170362D02*
X11561805Y-11151314D01*
X11561805Y-11151314D02*
X11552281Y-11113219D01*
X11552281Y-11113219D02*
X11552281Y-11065600D01*
X11552281Y-11065600D02*
X11561805Y-11027505D01*
X11561805Y-11027505D02*
X11571328Y-11008457D01*
X11571328Y-11008457D02*
X11580852Y-10998933D01*
X11580852Y-10998933D02*
X11599900Y-10989409D01*
X11790376Y-10989409D02*
X11809424Y-10989409D01*
X11809424Y-10989409D02*
X11828471Y-10998933D01*
X11828471Y-10998933D02*
X11837995Y-11008457D01*
X11837995Y-11008457D02*
X11847519Y-11027505D01*
X11847519Y-11027505D02*
X11857043Y-11065600D01*
X11857043Y-11065600D02*
X11857043Y-11113219D01*
X11857043Y-11113219D02*
X11847519Y-11151314D01*
X11847519Y-11151314D02*
X11837995Y-11170362D01*
X11837995Y-11170362D02*
X11828471Y-11179886D01*
X11828471Y-11179886D02*
X11809424Y-11189409D01*
X11809424Y-11189409D02*
X11790376Y-11189409D01*
X11790376Y-11189409D02*
X11771328Y-11179886D01*
X11771328Y-11179886D02*
X11761805Y-11170362D01*
X11761805Y-11170362D02*
X11752281Y-11151314D01*
X11752281Y-11151314D02*
X11742757Y-11113219D01*
X11742757Y-11113219D02*
X11742757Y-11065600D01*
X11742757Y-11065600D02*
X11752281Y-11027505D01*
X11752281Y-11027505D02*
X11761805Y-11008457D01*
X11761805Y-11008457D02*
X11771328Y-10998933D01*
X11771328Y-10998933D02*
X11790376Y-10989409D01*
X11980852Y-10989409D02*
X11999900Y-10989409D01*
X11999900Y-10989409D02*
X12018947Y-10998933D01*
X12018947Y-10998933D02*
X12028471Y-11008457D01*
X12028471Y-11008457D02*
X12037995Y-11027505D01*
X12037995Y-11027505D02*
X12047519Y-11065600D01*
X12047519Y-11065600D02*
X12047519Y-11113219D01*
X12047519Y-11113219D02*
X12037995Y-11151314D01*
X12037995Y-11151314D02*
X12028471Y-11170362D01*
X12028471Y-11170362D02*
X12018947Y-11179886D01*
X12018947Y-11179886D02*
X11999900Y-11189409D01*
X11999900Y-11189409D02*
X11980852Y-11189409D01*
X11980852Y-11189409D02*
X11961805Y-11179886D01*
X11961805Y-11179886D02*
X11952281Y-11170362D01*
X11952281Y-11170362D02*
X11942757Y-11151314D01*
X11942757Y-11151314D02*
X11933233Y-11113219D01*
X11933233Y-11113219D02*
X11933233Y-11065600D01*
X11933233Y-11065600D02*
X11942757Y-11027505D01*
X11942757Y-11027505D02*
X11952281Y-11008457D01*
X11952281Y-11008457D02*
X11961805Y-10998933D01*
X11961805Y-10998933D02*
X11980852Y-10989409D01*
X12133233Y-11189409D02*
X12133233Y-11056076D01*
X12133233Y-11075124D02*
X12142757Y-11065600D01*
X12142757Y-11065600D02*
X12161805Y-11056076D01*
X12161805Y-11056076D02*
X12190376Y-11056076D01*
X12190376Y-11056076D02*
X12209424Y-11065600D01*
X12209424Y-11065600D02*
X12218947Y-11084648D01*
X12218947Y-11084648D02*
X12218947Y-11189409D01*
X12218947Y-11084648D02*
X12228471Y-11065600D01*
X12228471Y-11065600D02*
X12247519Y-11056076D01*
X12247519Y-11056076D02*
X12276090Y-11056076D01*
X12276090Y-11056076D02*
X12295138Y-11065600D01*
X12295138Y-11065600D02*
X12304662Y-11084648D01*
X12304662Y-11084648D02*
X12304662Y-11189409D01*
X12399900Y-11189409D02*
X12399900Y-11056076D01*
X12399900Y-11075124D02*
X12409424Y-11065600D01*
X12409424Y-11065600D02*
X12428471Y-11056076D01*
X12428471Y-11056076D02*
X12457043Y-11056076D01*
X12457043Y-11056076D02*
X12476090Y-11065600D01*
X12476090Y-11065600D02*
X12485614Y-11084648D01*
X12485614Y-11084648D02*
X12485614Y-11189409D01*
X12485614Y-11084648D02*
X12495138Y-11065600D01*
X12495138Y-11065600D02*
X12514186Y-11056076D01*
X12514186Y-11056076D02*
X12542757Y-11056076D01*
X12542757Y-11056076D02*
X12561805Y-11065600D01*
X12561805Y-11065600D02*
X12571328Y-11084648D01*
X12571328Y-11084648D02*
X12571328Y-11189409D01*
X12961805Y-10979886D02*
X12790376Y-11237028D01*
X13218948Y-10989409D02*
X13237995Y-10989409D01*
X13237995Y-10989409D02*
X13257043Y-10998933D01*
X13257043Y-10998933D02*
X13266567Y-11008457D01*
X13266567Y-11008457D02*
X13276090Y-11027505D01*
X13276090Y-11027505D02*
X13285614Y-11065600D01*
X13285614Y-11065600D02*
X13285614Y-11113219D01*
X13285614Y-11113219D02*
X13276090Y-11151314D01*
X13276090Y-11151314D02*
X13266567Y-11170362D01*
X13266567Y-11170362D02*
X13257043Y-11179886D01*
X13257043Y-11179886D02*
X13237995Y-11189409D01*
X13237995Y-11189409D02*
X13218948Y-11189409D01*
X13218948Y-11189409D02*
X13199900Y-11179886D01*
X13199900Y-11179886D02*
X13190376Y-11170362D01*
X13190376Y-11170362D02*
X13180852Y-11151314D01*
X13180852Y-11151314D02*
X13171329Y-11113219D01*
X13171329Y-11113219D02*
X13171329Y-11065600D01*
X13171329Y-11065600D02*
X13180852Y-11027505D01*
X13180852Y-11027505D02*
X13190376Y-11008457D01*
X13190376Y-11008457D02*
X13199900Y-10998933D01*
X13199900Y-10998933D02*
X13218948Y-10989409D01*
X13371329Y-11170362D02*
X13380852Y-11179886D01*
X13380852Y-11179886D02*
X13371329Y-11189409D01*
X13371329Y-11189409D02*
X13361805Y-11179886D01*
X13361805Y-11179886D02*
X13371329Y-11170362D01*
X13371329Y-11170362D02*
X13371329Y-11189409D01*
X13504662Y-10989409D02*
X13523710Y-10989409D01*
X13523710Y-10989409D02*
X13542757Y-10998933D01*
X13542757Y-10998933D02*
X13552281Y-11008457D01*
X13552281Y-11008457D02*
X13561805Y-11027505D01*
X13561805Y-11027505D02*
X13571329Y-11065600D01*
X13571329Y-11065600D02*
X13571329Y-11113219D01*
X13571329Y-11113219D02*
X13561805Y-11151314D01*
X13561805Y-11151314D02*
X13552281Y-11170362D01*
X13552281Y-11170362D02*
X13542757Y-11179886D01*
X13542757Y-11179886D02*
X13523710Y-11189409D01*
X13523710Y-11189409D02*
X13504662Y-11189409D01*
X13504662Y-11189409D02*
X13485614Y-11179886D01*
X13485614Y-11179886D02*
X13476090Y-11170362D01*
X13476090Y-11170362D02*
X13466567Y-11151314D01*
X13466567Y-11151314D02*
X13457043Y-11113219D01*
X13457043Y-11113219D02*
X13457043Y-11065600D01*
X13457043Y-11065600D02*
X13466567Y-11027505D01*
X13466567Y-11027505D02*
X13476090Y-11008457D01*
X13476090Y-11008457D02*
X13485614Y-10998933D01*
X13485614Y-10998933D02*
X13504662Y-10989409D01*
X13637995Y-10989409D02*
X13761805Y-10989409D01*
X13761805Y-10989409D02*
X13695138Y-11065600D01*
X13695138Y-11065600D02*
X13723710Y-11065600D01*
X13723710Y-11065600D02*
X13742757Y-11075124D01*
X13742757Y-11075124D02*
X13752281Y-11084648D01*
X13752281Y-11084648D02*
X13761805Y-11103695D01*
X13761805Y-11103695D02*
X13761805Y-11151314D01*
X13761805Y-11151314D02*
X13752281Y-11170362D01*
X13752281Y-11170362D02*
X13742757Y-11179886D01*
X13742757Y-11179886D02*
X13723710Y-11189409D01*
X13723710Y-11189409D02*
X13666567Y-11189409D01*
X13666567Y-11189409D02*
X13647519Y-11179886D01*
X13647519Y-11179886D02*
X13637995Y-11170362D01*
X13857043Y-11189409D02*
X13895138Y-11189409D01*
X13895138Y-11189409D02*
X13914186Y-11179886D01*
X13914186Y-11179886D02*
X13923710Y-11170362D01*
X13923710Y-11170362D02*
X13942757Y-11141790D01*
X13942757Y-11141790D02*
X13952281Y-11103695D01*
X13952281Y-11103695D02*
X13952281Y-11027505D01*
X13952281Y-11027505D02*
X13942757Y-11008457D01*
X13942757Y-11008457D02*
X13933233Y-10998933D01*
X13933233Y-10998933D02*
X13914186Y-10989409D01*
X13914186Y-10989409D02*
X13876090Y-10989409D01*
X13876090Y-10989409D02*
X13857043Y-10998933D01*
X13857043Y-10998933D02*
X13847519Y-11008457D01*
X13847519Y-11008457D02*
X13837995Y-11027505D01*
X13837995Y-11027505D02*
X13837995Y-11075124D01*
X13837995Y-11075124D02*
X13847519Y-11094171D01*
X13847519Y-11094171D02*
X13857043Y-11103695D01*
X13857043Y-11103695D02*
X13876090Y-11113219D01*
X13876090Y-11113219D02*
X13914186Y-11113219D01*
X13914186Y-11113219D02*
X13933233Y-11103695D01*
X13933233Y-11103695D02*
X13942757Y-11094171D01*
X13942757Y-11094171D02*
X13952281Y-11075124D01*
X14123710Y-11056076D02*
X14123710Y-11189409D01*
X14076090Y-10979886D02*
X14028471Y-11122743D01*
X14028471Y-11122743D02*
X14152281Y-11122743D01*
X14218948Y-10989409D02*
X14218948Y-11027505D01*
X14295138Y-10989409D02*
X14295138Y-11027505D01*
X14590376Y-11265600D02*
X14580852Y-11256076D01*
X14580852Y-11256076D02*
X14561805Y-11227505D01*
X14561805Y-11227505D02*
X14552281Y-11208457D01*
X14552281Y-11208457D02*
X14542757Y-11179886D01*
X14542757Y-11179886D02*
X14533233Y-11132267D01*
X14533233Y-11132267D02*
X14533233Y-11094171D01*
X14533233Y-11094171D02*
X14542757Y-11046552D01*
X14542757Y-11046552D02*
X14552281Y-11017981D01*
X14552281Y-11017981D02*
X14561805Y-10998933D01*
X14561805Y-10998933D02*
X14580852Y-10970362D01*
X14580852Y-10970362D02*
X14590376Y-10960838D01*
X14704662Y-10989409D02*
X14723710Y-10989409D01*
X14723710Y-10989409D02*
X14742757Y-10998933D01*
X14742757Y-10998933D02*
X14752281Y-11008457D01*
X14752281Y-11008457D02*
X14761805Y-11027505D01*
X14761805Y-11027505D02*
X14771329Y-11065600D01*
X14771329Y-11065600D02*
X14771329Y-11113219D01*
X14771329Y-11113219D02*
X14761805Y-11151314D01*
X14761805Y-11151314D02*
X14752281Y-11170362D01*
X14752281Y-11170362D02*
X14742757Y-11179886D01*
X14742757Y-11179886D02*
X14723710Y-11189409D01*
X14723710Y-11189409D02*
X14704662Y-11189409D01*
X14704662Y-11189409D02*
X14685614Y-11179886D01*
X14685614Y-11179886D02*
X14676091Y-11170362D01*
X14676091Y-11170362D02*
X14666567Y-11151314D01*
X14666567Y-11151314D02*
X14657043Y-11113219D01*
X14657043Y-11113219D02*
X14657043Y-11065600D01*
X14657043Y-11065600D02*
X14666567Y-11027505D01*
X14666567Y-11027505D02*
X14676091Y-11008457D01*
X14676091Y-11008457D02*
X14685614Y-10998933D01*
X14685614Y-10998933D02*
X14704662Y-10989409D01*
X15009424Y-11189409D02*
X15009424Y-10989409D01*
X15095138Y-11189409D02*
X15095138Y-11084648D01*
X15095138Y-11084648D02*
X15085614Y-11065600D01*
X15085614Y-11065600D02*
X15066567Y-11056076D01*
X15066567Y-11056076D02*
X15037995Y-11056076D01*
X15037995Y-11056076D02*
X15018948Y-11065600D01*
X15018948Y-11065600D02*
X15009424Y-11075124D01*
X15218948Y-11189409D02*
X15199900Y-11179886D01*
X15199900Y-11179886D02*
X15190376Y-11170362D01*
X15190376Y-11170362D02*
X15180853Y-11151314D01*
X15180853Y-11151314D02*
X15180853Y-11094171D01*
X15180853Y-11094171D02*
X15190376Y-11075124D01*
X15190376Y-11075124D02*
X15199900Y-11065600D01*
X15199900Y-11065600D02*
X15218948Y-11056076D01*
X15218948Y-11056076D02*
X15247519Y-11056076D01*
X15247519Y-11056076D02*
X15266567Y-11065600D01*
X15266567Y-11065600D02*
X15276091Y-11075124D01*
X15276091Y-11075124D02*
X15285614Y-11094171D01*
X15285614Y-11094171D02*
X15285614Y-11151314D01*
X15285614Y-11151314D02*
X15276091Y-11170362D01*
X15276091Y-11170362D02*
X15266567Y-11179886D01*
X15266567Y-11179886D02*
X15247519Y-11189409D01*
X15247519Y-11189409D02*
X15218948Y-11189409D01*
X15399900Y-11189409D02*
X15380853Y-11179886D01*
X15380853Y-11179886D02*
X15371329Y-11160838D01*
X15371329Y-11160838D02*
X15371329Y-10989409D01*
X15552281Y-11179886D02*
X15533234Y-11189409D01*
X15533234Y-11189409D02*
X15495138Y-11189409D01*
X15495138Y-11189409D02*
X15476091Y-11179886D01*
X15476091Y-11179886D02*
X15466567Y-11160838D01*
X15466567Y-11160838D02*
X15466567Y-11084648D01*
X15466567Y-11084648D02*
X15476091Y-11065600D01*
X15476091Y-11065600D02*
X15495138Y-11056076D01*
X15495138Y-11056076D02*
X15533234Y-11056076D01*
X15533234Y-11056076D02*
X15552281Y-11065600D01*
X15552281Y-11065600D02*
X15561805Y-11084648D01*
X15561805Y-11084648D02*
X15561805Y-11103695D01*
X15561805Y-11103695D02*
X15466567Y-11122743D01*
X15637995Y-11179886D02*
X15657043Y-11189409D01*
X15657043Y-11189409D02*
X15695138Y-11189409D01*
X15695138Y-11189409D02*
X15714186Y-11179886D01*
X15714186Y-11179886D02*
X15723710Y-11160838D01*
X15723710Y-11160838D02*
X15723710Y-11151314D01*
X15723710Y-11151314D02*
X15714186Y-11132267D01*
X15714186Y-11132267D02*
X15695138Y-11122743D01*
X15695138Y-11122743D02*
X15666567Y-11122743D01*
X15666567Y-11122743D02*
X15647519Y-11113219D01*
X15647519Y-11113219D02*
X15637995Y-11094171D01*
X15637995Y-11094171D02*
X15637995Y-11084648D01*
X15637995Y-11084648D02*
X15647519Y-11065600D01*
X15647519Y-11065600D02*
X15666567Y-11056076D01*
X15666567Y-11056076D02*
X15695138Y-11056076D01*
X15695138Y-11056076D02*
X15714186Y-11065600D01*
X15961805Y-11113219D02*
X16114186Y-11113219D01*
X16037996Y-11189409D02*
X16037996Y-11037028D01*
X16352281Y-11008457D02*
X16361805Y-10998933D01*
X16361805Y-10998933D02*
X16380853Y-10989409D01*
X16380853Y-10989409D02*
X16428472Y-10989409D01*
X16428472Y-10989409D02*
X16447519Y-10998933D01*
X16447519Y-10998933D02*
X16457043Y-11008457D01*
X16457043Y-11008457D02*
X16466567Y-11027505D01*
X16466567Y-11027505D02*
X16466567Y-11046552D01*
X16466567Y-11046552D02*
X16457043Y-11075124D01*
X16457043Y-11075124D02*
X16342757Y-11189409D01*
X16342757Y-11189409D02*
X16466567Y-11189409D01*
X16580853Y-11075124D02*
X16561805Y-11065600D01*
X16561805Y-11065600D02*
X16552281Y-11056076D01*
X16552281Y-11056076D02*
X16542757Y-11037028D01*
X16542757Y-11037028D02*
X16542757Y-11027505D01*
X16542757Y-11027505D02*
X16552281Y-11008457D01*
X16552281Y-11008457D02*
X16561805Y-10998933D01*
X16561805Y-10998933D02*
X16580853Y-10989409D01*
X16580853Y-10989409D02*
X16618948Y-10989409D01*
X16618948Y-10989409D02*
X16637996Y-10998933D01*
X16637996Y-10998933D02*
X16647519Y-11008457D01*
X16647519Y-11008457D02*
X16657043Y-11027505D01*
X16657043Y-11027505D02*
X16657043Y-11037028D01*
X16657043Y-11037028D02*
X16647519Y-11056076D01*
X16647519Y-11056076D02*
X16637996Y-11065600D01*
X16637996Y-11065600D02*
X16618948Y-11075124D01*
X16618948Y-11075124D02*
X16580853Y-11075124D01*
X16580853Y-11075124D02*
X16561805Y-11084648D01*
X16561805Y-11084648D02*
X16552281Y-11094171D01*
X16552281Y-11094171D02*
X16542757Y-11113219D01*
X16542757Y-11113219D02*
X16542757Y-11151314D01*
X16542757Y-11151314D02*
X16552281Y-11170362D01*
X16552281Y-11170362D02*
X16561805Y-11179886D01*
X16561805Y-11179886D02*
X16580853Y-11189409D01*
X16580853Y-11189409D02*
X16618948Y-11189409D01*
X16618948Y-11189409D02*
X16637996Y-11179886D01*
X16637996Y-11179886D02*
X16647519Y-11170362D01*
X16647519Y-11170362D02*
X16657043Y-11151314D01*
X16657043Y-11151314D02*
X16657043Y-11113219D01*
X16657043Y-11113219D02*
X16647519Y-11094171D01*
X16647519Y-11094171D02*
X16637996Y-11084648D01*
X16637996Y-11084648D02*
X16618948Y-11075124D01*
X16885615Y-11179886D02*
X16904662Y-11189409D01*
X16904662Y-11189409D02*
X16942758Y-11189409D01*
X16942758Y-11189409D02*
X16961805Y-11179886D01*
X16961805Y-11179886D02*
X16971329Y-11160838D01*
X16971329Y-11160838D02*
X16971329Y-11151314D01*
X16971329Y-11151314D02*
X16961805Y-11132267D01*
X16961805Y-11132267D02*
X16942758Y-11122743D01*
X16942758Y-11122743D02*
X16914186Y-11122743D01*
X16914186Y-11122743D02*
X16895139Y-11113219D01*
X16895139Y-11113219D02*
X16885615Y-11094171D01*
X16885615Y-11094171D02*
X16885615Y-11084648D01*
X16885615Y-11084648D02*
X16895139Y-11065600D01*
X16895139Y-11065600D02*
X16914186Y-11056076D01*
X16914186Y-11056076D02*
X16942758Y-11056076D01*
X16942758Y-11056076D02*
X16961805Y-11065600D01*
X17085615Y-11189409D02*
X17066567Y-11179886D01*
X17066567Y-11179886D02*
X17057043Y-11160838D01*
X17057043Y-11160838D02*
X17057043Y-10989409D01*
X17190377Y-11189409D02*
X17171329Y-11179886D01*
X17171329Y-11179886D02*
X17161805Y-11170362D01*
X17161805Y-11170362D02*
X17152281Y-11151314D01*
X17152281Y-11151314D02*
X17152281Y-11094171D01*
X17152281Y-11094171D02*
X17161805Y-11075124D01*
X17161805Y-11075124D02*
X17171329Y-11065600D01*
X17171329Y-11065600D02*
X17190377Y-11056076D01*
X17190377Y-11056076D02*
X17218948Y-11056076D01*
X17218948Y-11056076D02*
X17237996Y-11065600D01*
X17237996Y-11065600D02*
X17247520Y-11075124D01*
X17247520Y-11075124D02*
X17257043Y-11094171D01*
X17257043Y-11094171D02*
X17257043Y-11151314D01*
X17257043Y-11151314D02*
X17247520Y-11170362D01*
X17247520Y-11170362D02*
X17237996Y-11179886D01*
X17237996Y-11179886D02*
X17218948Y-11189409D01*
X17218948Y-11189409D02*
X17190377Y-11189409D01*
X17314186Y-11056076D02*
X17390377Y-11056076D01*
X17342758Y-10989409D02*
X17342758Y-11160838D01*
X17342758Y-11160838D02*
X17352281Y-11179886D01*
X17352281Y-11179886D02*
X17371329Y-11189409D01*
X17371329Y-11189409D02*
X17390377Y-11189409D01*
X17447520Y-11179886D02*
X17466567Y-11189409D01*
X17466567Y-11189409D02*
X17504662Y-11189409D01*
X17504662Y-11189409D02*
X17523710Y-11179886D01*
X17523710Y-11179886D02*
X17533234Y-11160838D01*
X17533234Y-11160838D02*
X17533234Y-11151314D01*
X17533234Y-11151314D02*
X17523710Y-11132267D01*
X17523710Y-11132267D02*
X17504662Y-11122743D01*
X17504662Y-11122743D02*
X17476091Y-11122743D01*
X17476091Y-11122743D02*
X17457043Y-11113219D01*
X17457043Y-11113219D02*
X17447520Y-11094171D01*
X17447520Y-11094171D02*
X17447520Y-11084648D01*
X17447520Y-11084648D02*
X17457043Y-11065600D01*
X17457043Y-11065600D02*
X17476091Y-11056076D01*
X17476091Y-11056076D02*
X17504662Y-11056076D01*
X17504662Y-11056076D02*
X17523710Y-11065600D01*
X17599901Y-11265600D02*
X17609424Y-11256076D01*
X17609424Y-11256076D02*
X17628472Y-11227505D01*
X17628472Y-11227505D02*
X17637996Y-11208457D01*
X17637996Y-11208457D02*
X17647520Y-11179886D01*
X17647520Y-11179886D02*
X17657043Y-11132267D01*
X17657043Y-11132267D02*
X17657043Y-11094171D01*
X17657043Y-11094171D02*
X17647520Y-11046552D01*
X17647520Y-11046552D02*
X17637996Y-11017981D01*
X17637996Y-11017981D02*
X17628472Y-10998933D01*
X17628472Y-10998933D02*
X17609424Y-10970362D01*
X17609424Y-10970362D02*
X17599901Y-10960838D01*
X17961805Y-11265600D02*
X17952281Y-11256076D01*
X17952281Y-11256076D02*
X17933234Y-11227505D01*
X17933234Y-11227505D02*
X17923710Y-11208457D01*
X17923710Y-11208457D02*
X17914186Y-11179886D01*
X17914186Y-11179886D02*
X17904662Y-11132267D01*
X17904662Y-11132267D02*
X17904662Y-11094171D01*
X17904662Y-11094171D02*
X17914186Y-11046552D01*
X17914186Y-11046552D02*
X17923710Y-11017981D01*
X17923710Y-11017981D02*
X17933234Y-10998933D01*
X17933234Y-10998933D02*
X17952281Y-10970362D01*
X17952281Y-10970362D02*
X17961805Y-10960838D01*
X18037996Y-11056076D02*
X18037996Y-11189409D01*
X18037996Y-11075124D02*
X18047520Y-11065600D01*
X18047520Y-11065600D02*
X18066567Y-11056076D01*
X18066567Y-11056076D02*
X18095139Y-11056076D01*
X18095139Y-11056076D02*
X18114186Y-11065600D01*
X18114186Y-11065600D02*
X18123710Y-11084648D01*
X18123710Y-11084648D02*
X18123710Y-11189409D01*
X18247520Y-11189409D02*
X18228472Y-11179886D01*
X18228472Y-11179886D02*
X18218948Y-11170362D01*
X18218948Y-11170362D02*
X18209424Y-11151314D01*
X18209424Y-11151314D02*
X18209424Y-11094171D01*
X18209424Y-11094171D02*
X18218948Y-11075124D01*
X18218948Y-11075124D02*
X18228472Y-11065600D01*
X18228472Y-11065600D02*
X18247520Y-11056076D01*
X18247520Y-11056076D02*
X18276091Y-11056076D01*
X18276091Y-11056076D02*
X18295139Y-11065600D01*
X18295139Y-11065600D02*
X18304662Y-11075124D01*
X18304662Y-11075124D02*
X18314186Y-11094171D01*
X18314186Y-11094171D02*
X18314186Y-11151314D01*
X18314186Y-11151314D02*
X18304662Y-11170362D01*
X18304662Y-11170362D02*
X18295139Y-11179886D01*
X18295139Y-11179886D02*
X18276091Y-11189409D01*
X18276091Y-11189409D02*
X18247520Y-11189409D01*
X18371329Y-11056076D02*
X18447520Y-11056076D01*
X18399901Y-10989409D02*
X18399901Y-11160838D01*
X18399901Y-11160838D02*
X18409424Y-11179886D01*
X18409424Y-11179886D02*
X18428472Y-11189409D01*
X18428472Y-11189409D02*
X18447520Y-11189409D01*
X18666567Y-11056076D02*
X18666567Y-11256076D01*
X18666567Y-11065600D02*
X18685615Y-11056076D01*
X18685615Y-11056076D02*
X18723710Y-11056076D01*
X18723710Y-11056076D02*
X18742758Y-11065600D01*
X18742758Y-11065600D02*
X18752282Y-11075124D01*
X18752282Y-11075124D02*
X18761805Y-11094171D01*
X18761805Y-11094171D02*
X18761805Y-11151314D01*
X18761805Y-11151314D02*
X18752282Y-11170362D01*
X18752282Y-11170362D02*
X18742758Y-11179886D01*
X18742758Y-11179886D02*
X18723710Y-11189409D01*
X18723710Y-11189409D02*
X18685615Y-11189409D01*
X18685615Y-11189409D02*
X18666567Y-11179886D01*
X18876091Y-11189409D02*
X18857043Y-11179886D01*
X18857043Y-11179886D02*
X18847520Y-11160838D01*
X18847520Y-11160838D02*
X18847520Y-10989409D01*
X19037996Y-11189409D02*
X19037996Y-11084648D01*
X19037996Y-11084648D02*
X19028472Y-11065600D01*
X19028472Y-11065600D02*
X19009424Y-11056076D01*
X19009424Y-11056076D02*
X18971329Y-11056076D01*
X18971329Y-11056076D02*
X18952282Y-11065600D01*
X19037996Y-11179886D02*
X19018948Y-11189409D01*
X19018948Y-11189409D02*
X18971329Y-11189409D01*
X18971329Y-11189409D02*
X18952282Y-11179886D01*
X18952282Y-11179886D02*
X18942758Y-11160838D01*
X18942758Y-11160838D02*
X18942758Y-11141790D01*
X18942758Y-11141790D02*
X18952282Y-11122743D01*
X18952282Y-11122743D02*
X18971329Y-11113219D01*
X18971329Y-11113219D02*
X19018948Y-11113219D01*
X19018948Y-11113219D02*
X19037996Y-11103695D01*
X19104663Y-11056076D02*
X19180853Y-11056076D01*
X19133234Y-10989409D02*
X19133234Y-11160838D01*
X19133234Y-11160838D02*
X19142758Y-11179886D01*
X19142758Y-11179886D02*
X19161805Y-11189409D01*
X19161805Y-11189409D02*
X19180853Y-11189409D01*
X19323710Y-11179886D02*
X19304663Y-11189409D01*
X19304663Y-11189409D02*
X19266567Y-11189409D01*
X19266567Y-11189409D02*
X19247520Y-11179886D01*
X19247520Y-11179886D02*
X19237996Y-11160838D01*
X19237996Y-11160838D02*
X19237996Y-11084648D01*
X19237996Y-11084648D02*
X19247520Y-11065600D01*
X19247520Y-11065600D02*
X19266567Y-11056076D01*
X19266567Y-11056076D02*
X19304663Y-11056076D01*
X19304663Y-11056076D02*
X19323710Y-11065600D01*
X19323710Y-11065600D02*
X19333234Y-11084648D01*
X19333234Y-11084648D02*
X19333234Y-11103695D01*
X19333234Y-11103695D02*
X19237996Y-11122743D01*
X19504663Y-11189409D02*
X19504663Y-10989409D01*
X19504663Y-11179886D02*
X19485615Y-11189409D01*
X19485615Y-11189409D02*
X19447520Y-11189409D01*
X19447520Y-11189409D02*
X19428472Y-11179886D01*
X19428472Y-11179886D02*
X19418948Y-11170362D01*
X19418948Y-11170362D02*
X19409424Y-11151314D01*
X19409424Y-11151314D02*
X19409424Y-11094171D01*
X19409424Y-11094171D02*
X19418948Y-11075124D01*
X19418948Y-11075124D02*
X19428472Y-11065600D01*
X19428472Y-11065600D02*
X19447520Y-11056076D01*
X19447520Y-11056076D02*
X19485615Y-11056076D01*
X19485615Y-11056076D02*
X19504663Y-11065600D01*
X19580853Y-11265600D02*
X19590377Y-11256076D01*
X19590377Y-11256076D02*
X19609424Y-11227505D01*
X19609424Y-11227505D02*
X19618948Y-11208457D01*
X19618948Y-11208457D02*
X19628472Y-11179886D01*
X19628472Y-11179886D02*
X19637996Y-11132267D01*
X19637996Y-11132267D02*
X19637996Y-11094171D01*
X19637996Y-11094171D02*
X19628472Y-11046552D01*
X19628472Y-11046552D02*
X19618948Y-11017981D01*
X19618948Y-11017981D02*
X19609424Y-10998933D01*
X19609424Y-10998933D02*
X19590377Y-10970362D01*
X19590377Y-10970362D02*
X19580853Y-10960838D01*
X11015314Y-11361926D02*
G75*
G02*
X10815314Y-11361926I-100000J0D01*
G01*
X10815314Y-11361926D02*
G75*
G02*
X11015314Y-11361926I100000J0D01*
G01*
X11361805Y-11320076D02*
X11361805Y-11453409D01*
X11314185Y-11243886D02*
X11266566Y-11386743D01*
X11266566Y-11386743D02*
X11390376Y-11386743D01*
X11466566Y-11434362D02*
X11476090Y-11443886D01*
X11476090Y-11443886D02*
X11466566Y-11453409D01*
X11466566Y-11453409D02*
X11457043Y-11443886D01*
X11457043Y-11443886D02*
X11466566Y-11434362D01*
X11466566Y-11434362D02*
X11466566Y-11453409D01*
X11542757Y-11253409D02*
X11676090Y-11253409D01*
X11676090Y-11253409D02*
X11590376Y-11453409D01*
X11790376Y-11253409D02*
X11809424Y-11253409D01*
X11809424Y-11253409D02*
X11828471Y-11262933D01*
X11828471Y-11262933D02*
X11837995Y-11272457D01*
X11837995Y-11272457D02*
X11847519Y-11291505D01*
X11847519Y-11291505D02*
X11857043Y-11329600D01*
X11857043Y-11329600D02*
X11857043Y-11377219D01*
X11857043Y-11377219D02*
X11847519Y-11415314D01*
X11847519Y-11415314D02*
X11837995Y-11434362D01*
X11837995Y-11434362D02*
X11828471Y-11443886D01*
X11828471Y-11443886D02*
X11809424Y-11453409D01*
X11809424Y-11453409D02*
X11790376Y-11453409D01*
X11790376Y-11453409D02*
X11771328Y-11443886D01*
X11771328Y-11443886D02*
X11761805Y-11434362D01*
X11761805Y-11434362D02*
X11752281Y-11415314D01*
X11752281Y-11415314D02*
X11742757Y-11377219D01*
X11742757Y-11377219D02*
X11742757Y-11329600D01*
X11742757Y-11329600D02*
X11752281Y-11291505D01*
X11752281Y-11291505D02*
X11761805Y-11272457D01*
X11761805Y-11272457D02*
X11771328Y-11262933D01*
X11771328Y-11262933D02*
X11790376Y-11253409D01*
X11980852Y-11253409D02*
X11999900Y-11253409D01*
X11999900Y-11253409D02*
X12018947Y-11262933D01*
X12018947Y-11262933D02*
X12028471Y-11272457D01*
X12028471Y-11272457D02*
X12037995Y-11291505D01*
X12037995Y-11291505D02*
X12047519Y-11329600D01*
X12047519Y-11329600D02*
X12047519Y-11377219D01*
X12047519Y-11377219D02*
X12037995Y-11415314D01*
X12037995Y-11415314D02*
X12028471Y-11434362D01*
X12028471Y-11434362D02*
X12018947Y-11443886D01*
X12018947Y-11443886D02*
X11999900Y-11453409D01*
X11999900Y-11453409D02*
X11980852Y-11453409D01*
X11980852Y-11453409D02*
X11961805Y-11443886D01*
X11961805Y-11443886D02*
X11952281Y-11434362D01*
X11952281Y-11434362D02*
X11942757Y-11415314D01*
X11942757Y-11415314D02*
X11933233Y-11377219D01*
X11933233Y-11377219D02*
X11933233Y-11329600D01*
X11933233Y-11329600D02*
X11942757Y-11291505D01*
X11942757Y-11291505D02*
X11952281Y-11272457D01*
X11952281Y-11272457D02*
X11961805Y-11262933D01*
X11961805Y-11262933D02*
X11980852Y-11253409D01*
X12133233Y-11453409D02*
X12133233Y-11320076D01*
X12133233Y-11339124D02*
X12142757Y-11329600D01*
X12142757Y-11329600D02*
X12161805Y-11320076D01*
X12161805Y-11320076D02*
X12190376Y-11320076D01*
X12190376Y-11320076D02*
X12209424Y-11329600D01*
X12209424Y-11329600D02*
X12218947Y-11348647D01*
X12218947Y-11348647D02*
X12218947Y-11453409D01*
X12218947Y-11348647D02*
X12228471Y-11329600D01*
X12228471Y-11329600D02*
X12247519Y-11320076D01*
X12247519Y-11320076D02*
X12276090Y-11320076D01*
X12276090Y-11320076D02*
X12295138Y-11329600D01*
X12295138Y-11329600D02*
X12304662Y-11348647D01*
X12304662Y-11348647D02*
X12304662Y-11453409D01*
X12399900Y-11453409D02*
X12399900Y-11320076D01*
X12399900Y-11339124D02*
X12409424Y-11329600D01*
X12409424Y-11329600D02*
X12428471Y-11320076D01*
X12428471Y-11320076D02*
X12457043Y-11320076D01*
X12457043Y-11320076D02*
X12476090Y-11329600D01*
X12476090Y-11329600D02*
X12485614Y-11348647D01*
X12485614Y-11348647D02*
X12485614Y-11453409D01*
X12485614Y-11348647D02*
X12495138Y-11329600D01*
X12495138Y-11329600D02*
X12514186Y-11320076D01*
X12514186Y-11320076D02*
X12542757Y-11320076D01*
X12542757Y-11320076D02*
X12561805Y-11329600D01*
X12561805Y-11329600D02*
X12571328Y-11348647D01*
X12571328Y-11348647D02*
X12571328Y-11453409D01*
X12961805Y-11243886D02*
X12790376Y-11501028D01*
X13218948Y-11253409D02*
X13237995Y-11253409D01*
X13237995Y-11253409D02*
X13257043Y-11262933D01*
X13257043Y-11262933D02*
X13266567Y-11272457D01*
X13266567Y-11272457D02*
X13276090Y-11291505D01*
X13276090Y-11291505D02*
X13285614Y-11329600D01*
X13285614Y-11329600D02*
X13285614Y-11377219D01*
X13285614Y-11377219D02*
X13276090Y-11415314D01*
X13276090Y-11415314D02*
X13266567Y-11434362D01*
X13266567Y-11434362D02*
X13257043Y-11443886D01*
X13257043Y-11443886D02*
X13237995Y-11453409D01*
X13237995Y-11453409D02*
X13218948Y-11453409D01*
X13218948Y-11453409D02*
X13199900Y-11443886D01*
X13199900Y-11443886D02*
X13190376Y-11434362D01*
X13190376Y-11434362D02*
X13180852Y-11415314D01*
X13180852Y-11415314D02*
X13171329Y-11377219D01*
X13171329Y-11377219D02*
X13171329Y-11329600D01*
X13171329Y-11329600D02*
X13180852Y-11291505D01*
X13180852Y-11291505D02*
X13190376Y-11272457D01*
X13190376Y-11272457D02*
X13199900Y-11262933D01*
X13199900Y-11262933D02*
X13218948Y-11253409D01*
X13371329Y-11434362D02*
X13380852Y-11443886D01*
X13380852Y-11443886D02*
X13371329Y-11453409D01*
X13371329Y-11453409D02*
X13361805Y-11443886D01*
X13361805Y-11443886D02*
X13371329Y-11434362D01*
X13371329Y-11434362D02*
X13371329Y-11453409D01*
X13571329Y-11453409D02*
X13457043Y-11453409D01*
X13514186Y-11453409D02*
X13514186Y-11253409D01*
X13514186Y-11253409D02*
X13495138Y-11281981D01*
X13495138Y-11281981D02*
X13476090Y-11301028D01*
X13476090Y-11301028D02*
X13457043Y-11310552D01*
X13685614Y-11339124D02*
X13666567Y-11329600D01*
X13666567Y-11329600D02*
X13657043Y-11320076D01*
X13657043Y-11320076D02*
X13647519Y-11301028D01*
X13647519Y-11301028D02*
X13647519Y-11291505D01*
X13647519Y-11291505D02*
X13657043Y-11272457D01*
X13657043Y-11272457D02*
X13666567Y-11262933D01*
X13666567Y-11262933D02*
X13685614Y-11253409D01*
X13685614Y-11253409D02*
X13723710Y-11253409D01*
X13723710Y-11253409D02*
X13742757Y-11262933D01*
X13742757Y-11262933D02*
X13752281Y-11272457D01*
X13752281Y-11272457D02*
X13761805Y-11291505D01*
X13761805Y-11291505D02*
X13761805Y-11301028D01*
X13761805Y-11301028D02*
X13752281Y-11320076D01*
X13752281Y-11320076D02*
X13742757Y-11329600D01*
X13742757Y-11329600D02*
X13723710Y-11339124D01*
X13723710Y-11339124D02*
X13685614Y-11339124D01*
X13685614Y-11339124D02*
X13666567Y-11348647D01*
X13666567Y-11348647D02*
X13657043Y-11358171D01*
X13657043Y-11358171D02*
X13647519Y-11377219D01*
X13647519Y-11377219D02*
X13647519Y-11415314D01*
X13647519Y-11415314D02*
X13657043Y-11434362D01*
X13657043Y-11434362D02*
X13666567Y-11443886D01*
X13666567Y-11443886D02*
X13685614Y-11453409D01*
X13685614Y-11453409D02*
X13723710Y-11453409D01*
X13723710Y-11453409D02*
X13742757Y-11443886D01*
X13742757Y-11443886D02*
X13752281Y-11434362D01*
X13752281Y-11434362D02*
X13761805Y-11415314D01*
X13761805Y-11415314D02*
X13761805Y-11377219D01*
X13761805Y-11377219D02*
X13752281Y-11358171D01*
X13752281Y-11358171D02*
X13742757Y-11348647D01*
X13742757Y-11348647D02*
X13723710Y-11339124D01*
X13942757Y-11253409D02*
X13847519Y-11253409D01*
X13847519Y-11253409D02*
X13837995Y-11348647D01*
X13837995Y-11348647D02*
X13847519Y-11339124D01*
X13847519Y-11339124D02*
X13866567Y-11329600D01*
X13866567Y-11329600D02*
X13914186Y-11329600D01*
X13914186Y-11329600D02*
X13933233Y-11339124D01*
X13933233Y-11339124D02*
X13942757Y-11348647D01*
X13942757Y-11348647D02*
X13952281Y-11367695D01*
X13952281Y-11367695D02*
X13952281Y-11415314D01*
X13952281Y-11415314D02*
X13942757Y-11434362D01*
X13942757Y-11434362D02*
X13933233Y-11443886D01*
X13933233Y-11443886D02*
X13914186Y-11453409D01*
X13914186Y-11453409D02*
X13866567Y-11453409D01*
X13866567Y-11453409D02*
X13847519Y-11443886D01*
X13847519Y-11443886D02*
X13837995Y-11434362D01*
X14076090Y-11253409D02*
X14095138Y-11253409D01*
X14095138Y-11253409D02*
X14114186Y-11262933D01*
X14114186Y-11262933D02*
X14123710Y-11272457D01*
X14123710Y-11272457D02*
X14133233Y-11291505D01*
X14133233Y-11291505D02*
X14142757Y-11329600D01*
X14142757Y-11329600D02*
X14142757Y-11377219D01*
X14142757Y-11377219D02*
X14133233Y-11415314D01*
X14133233Y-11415314D02*
X14123710Y-11434362D01*
X14123710Y-11434362D02*
X14114186Y-11443886D01*
X14114186Y-11443886D02*
X14095138Y-11453409D01*
X14095138Y-11453409D02*
X14076090Y-11453409D01*
X14076090Y-11453409D02*
X14057043Y-11443886D01*
X14057043Y-11443886D02*
X14047519Y-11434362D01*
X14047519Y-11434362D02*
X14037995Y-11415314D01*
X14037995Y-11415314D02*
X14028471Y-11377219D01*
X14028471Y-11377219D02*
X14028471Y-11329600D01*
X14028471Y-11329600D02*
X14037995Y-11291505D01*
X14037995Y-11291505D02*
X14047519Y-11272457D01*
X14047519Y-11272457D02*
X14057043Y-11262933D01*
X14057043Y-11262933D02*
X14076090Y-11253409D01*
X14218948Y-11253409D02*
X14218948Y-11291505D01*
X14295138Y-11253409D02*
X14295138Y-11291505D01*
X14590376Y-11529600D02*
X14580852Y-11520076D01*
X14580852Y-11520076D02*
X14561805Y-11491505D01*
X14561805Y-11491505D02*
X14552281Y-11472457D01*
X14552281Y-11472457D02*
X14542757Y-11443886D01*
X14542757Y-11443886D02*
X14533233Y-11396266D01*
X14533233Y-11396266D02*
X14533233Y-11358171D01*
X14533233Y-11358171D02*
X14542757Y-11310552D01*
X14542757Y-11310552D02*
X14552281Y-11281981D01*
X14552281Y-11281981D02*
X14561805Y-11262933D01*
X14561805Y-11262933D02*
X14580852Y-11234362D01*
X14580852Y-11234362D02*
X14590376Y-11224838D01*
X14657043Y-11272457D02*
X14666567Y-11262933D01*
X14666567Y-11262933D02*
X14685614Y-11253409D01*
X14685614Y-11253409D02*
X14733233Y-11253409D01*
X14733233Y-11253409D02*
X14752281Y-11262933D01*
X14752281Y-11262933D02*
X14761805Y-11272457D01*
X14761805Y-11272457D02*
X14771329Y-11291505D01*
X14771329Y-11291505D02*
X14771329Y-11310552D01*
X14771329Y-11310552D02*
X14761805Y-11339124D01*
X14761805Y-11339124D02*
X14647519Y-11453409D01*
X14647519Y-11453409D02*
X14771329Y-11453409D01*
X15009424Y-11453409D02*
X15009424Y-11253409D01*
X15095138Y-11453409D02*
X15095138Y-11348647D01*
X15095138Y-11348647D02*
X15085614Y-11329600D01*
X15085614Y-11329600D02*
X15066567Y-11320076D01*
X15066567Y-11320076D02*
X15037995Y-11320076D01*
X15037995Y-11320076D02*
X15018948Y-11329600D01*
X15018948Y-11329600D02*
X15009424Y-11339124D01*
X15218948Y-11453409D02*
X15199900Y-11443886D01*
X15199900Y-11443886D02*
X15190376Y-11434362D01*
X15190376Y-11434362D02*
X15180853Y-11415314D01*
X15180853Y-11415314D02*
X15180853Y-11358171D01*
X15180853Y-11358171D02*
X15190376Y-11339124D01*
X15190376Y-11339124D02*
X15199900Y-11329600D01*
X15199900Y-11329600D02*
X15218948Y-11320076D01*
X15218948Y-11320076D02*
X15247519Y-11320076D01*
X15247519Y-11320076D02*
X15266567Y-11329600D01*
X15266567Y-11329600D02*
X15276091Y-11339124D01*
X15276091Y-11339124D02*
X15285614Y-11358171D01*
X15285614Y-11358171D02*
X15285614Y-11415314D01*
X15285614Y-11415314D02*
X15276091Y-11434362D01*
X15276091Y-11434362D02*
X15266567Y-11443886D01*
X15266567Y-11443886D02*
X15247519Y-11453409D01*
X15247519Y-11453409D02*
X15218948Y-11453409D01*
X15399900Y-11453409D02*
X15380853Y-11443886D01*
X15380853Y-11443886D02*
X15371329Y-11424838D01*
X15371329Y-11424838D02*
X15371329Y-11253409D01*
X15552281Y-11443886D02*
X15533234Y-11453409D01*
X15533234Y-11453409D02*
X15495138Y-11453409D01*
X15495138Y-11453409D02*
X15476091Y-11443886D01*
X15476091Y-11443886D02*
X15466567Y-11424838D01*
X15466567Y-11424838D02*
X15466567Y-11348647D01*
X15466567Y-11348647D02*
X15476091Y-11329600D01*
X15476091Y-11329600D02*
X15495138Y-11320076D01*
X15495138Y-11320076D02*
X15533234Y-11320076D01*
X15533234Y-11320076D02*
X15552281Y-11329600D01*
X15552281Y-11329600D02*
X15561805Y-11348647D01*
X15561805Y-11348647D02*
X15561805Y-11367695D01*
X15561805Y-11367695D02*
X15466567Y-11386743D01*
X15637995Y-11443886D02*
X15657043Y-11453409D01*
X15657043Y-11453409D02*
X15695138Y-11453409D01*
X15695138Y-11453409D02*
X15714186Y-11443886D01*
X15714186Y-11443886D02*
X15723710Y-11424838D01*
X15723710Y-11424838D02*
X15723710Y-11415314D01*
X15723710Y-11415314D02*
X15714186Y-11396266D01*
X15714186Y-11396266D02*
X15695138Y-11386743D01*
X15695138Y-11386743D02*
X15666567Y-11386743D01*
X15666567Y-11386743D02*
X15647519Y-11377219D01*
X15647519Y-11377219D02*
X15637995Y-11358171D01*
X15637995Y-11358171D02*
X15637995Y-11348647D01*
X15637995Y-11348647D02*
X15647519Y-11329600D01*
X15647519Y-11329600D02*
X15666567Y-11320076D01*
X15666567Y-11320076D02*
X15695138Y-11320076D01*
X15695138Y-11320076D02*
X15714186Y-11329600D01*
X15961805Y-11377219D02*
X16114186Y-11377219D01*
X16037996Y-11453409D02*
X16037996Y-11301028D01*
X16447519Y-11320076D02*
X16447519Y-11453409D01*
X16399900Y-11243886D02*
X16352281Y-11386743D01*
X16352281Y-11386743D02*
X16476091Y-11386743D01*
X16695138Y-11443886D02*
X16714186Y-11453409D01*
X16714186Y-11453409D02*
X16752281Y-11453409D01*
X16752281Y-11453409D02*
X16771329Y-11443886D01*
X16771329Y-11443886D02*
X16780853Y-11424838D01*
X16780853Y-11424838D02*
X16780853Y-11415314D01*
X16780853Y-11415314D02*
X16771329Y-11396266D01*
X16771329Y-11396266D02*
X16752281Y-11386743D01*
X16752281Y-11386743D02*
X16723710Y-11386743D01*
X16723710Y-11386743D02*
X16704662Y-11377219D01*
X16704662Y-11377219D02*
X16695138Y-11358171D01*
X16695138Y-11358171D02*
X16695138Y-11348647D01*
X16695138Y-11348647D02*
X16704662Y-11329600D01*
X16704662Y-11329600D02*
X16723710Y-11320076D01*
X16723710Y-11320076D02*
X16752281Y-11320076D01*
X16752281Y-11320076D02*
X16771329Y-11329600D01*
X16895139Y-11453409D02*
X16876091Y-11443886D01*
X16876091Y-11443886D02*
X16866567Y-11424838D01*
X16866567Y-11424838D02*
X16866567Y-11253409D01*
X16999900Y-11453409D02*
X16980853Y-11443886D01*
X16980853Y-11443886D02*
X16971329Y-11434362D01*
X16971329Y-11434362D02*
X16961805Y-11415314D01*
X16961805Y-11415314D02*
X16961805Y-11358171D01*
X16961805Y-11358171D02*
X16971329Y-11339124D01*
X16971329Y-11339124D02*
X16980853Y-11329600D01*
X16980853Y-11329600D02*
X16999900Y-11320076D01*
X16999900Y-11320076D02*
X17028472Y-11320076D01*
X17028472Y-11320076D02*
X17047520Y-11329600D01*
X17047520Y-11329600D02*
X17057043Y-11339124D01*
X17057043Y-11339124D02*
X17066567Y-11358171D01*
X17066567Y-11358171D02*
X17066567Y-11415314D01*
X17066567Y-11415314D02*
X17057043Y-11434362D01*
X17057043Y-11434362D02*
X17047520Y-11443886D01*
X17047520Y-11443886D02*
X17028472Y-11453409D01*
X17028472Y-11453409D02*
X16999900Y-11453409D01*
X17123710Y-11320076D02*
X17199900Y-11320076D01*
X17152281Y-11253409D02*
X17152281Y-11424838D01*
X17152281Y-11424838D02*
X17161805Y-11443886D01*
X17161805Y-11443886D02*
X17180853Y-11453409D01*
X17180853Y-11453409D02*
X17199900Y-11453409D01*
X17257043Y-11443886D02*
X17276091Y-11453409D01*
X17276091Y-11453409D02*
X17314186Y-11453409D01*
X17314186Y-11453409D02*
X17333234Y-11443886D01*
X17333234Y-11443886D02*
X17342758Y-11424838D01*
X17342758Y-11424838D02*
X17342758Y-11415314D01*
X17342758Y-11415314D02*
X17333234Y-11396266D01*
X17333234Y-11396266D02*
X17314186Y-11386743D01*
X17314186Y-11386743D02*
X17285615Y-11386743D01*
X17285615Y-11386743D02*
X17266567Y-11377219D01*
X17266567Y-11377219D02*
X17257043Y-11358171D01*
X17257043Y-11358171D02*
X17257043Y-11348647D01*
X17257043Y-11348647D02*
X17266567Y-11329600D01*
X17266567Y-11329600D02*
X17285615Y-11320076D01*
X17285615Y-11320076D02*
X17314186Y-11320076D01*
X17314186Y-11320076D02*
X17333234Y-11329600D01*
X17409424Y-11529600D02*
X17418948Y-11520076D01*
X17418948Y-11520076D02*
X17437996Y-11491505D01*
X17437996Y-11491505D02*
X17447520Y-11472457D01*
X17447520Y-11472457D02*
X17457043Y-11443886D01*
X17457043Y-11443886D02*
X17466567Y-11396266D01*
X17466567Y-11396266D02*
X17466567Y-11358171D01*
X17466567Y-11358171D02*
X17457043Y-11310552D01*
X17457043Y-11310552D02*
X17447520Y-11281981D01*
X17447520Y-11281981D02*
X17437996Y-11262933D01*
X17437996Y-11262933D02*
X17418948Y-11234362D01*
X17418948Y-11234362D02*
X17409424Y-11224838D01*
X17771329Y-11529600D02*
X17761805Y-11520076D01*
X17761805Y-11520076D02*
X17742758Y-11491505D01*
X17742758Y-11491505D02*
X17733234Y-11472457D01*
X17733234Y-11472457D02*
X17723710Y-11443886D01*
X17723710Y-11443886D02*
X17714186Y-11396266D01*
X17714186Y-11396266D02*
X17714186Y-11358171D01*
X17714186Y-11358171D02*
X17723710Y-11310552D01*
X17723710Y-11310552D02*
X17733234Y-11281981D01*
X17733234Y-11281981D02*
X17742758Y-11262933D01*
X17742758Y-11262933D02*
X17761805Y-11234362D01*
X17761805Y-11234362D02*
X17771329Y-11224838D01*
X17847520Y-11320076D02*
X17847520Y-11453409D01*
X17847520Y-11339124D02*
X17857043Y-11329600D01*
X17857043Y-11329600D02*
X17876091Y-11320076D01*
X17876091Y-11320076D02*
X17904662Y-11320076D01*
X17904662Y-11320076D02*
X17923710Y-11329600D01*
X17923710Y-11329600D02*
X17933234Y-11348647D01*
X17933234Y-11348647D02*
X17933234Y-11453409D01*
X18057043Y-11453409D02*
X18037996Y-11443886D01*
X18037996Y-11443886D02*
X18028472Y-11434362D01*
X18028472Y-11434362D02*
X18018948Y-11415314D01*
X18018948Y-11415314D02*
X18018948Y-11358171D01*
X18018948Y-11358171D02*
X18028472Y-11339124D01*
X18028472Y-11339124D02*
X18037996Y-11329600D01*
X18037996Y-11329600D02*
X18057043Y-11320076D01*
X18057043Y-11320076D02*
X18085615Y-11320076D01*
X18085615Y-11320076D02*
X18104662Y-11329600D01*
X18104662Y-11329600D02*
X18114186Y-11339124D01*
X18114186Y-11339124D02*
X18123710Y-11358171D01*
X18123710Y-11358171D02*
X18123710Y-11415314D01*
X18123710Y-11415314D02*
X18114186Y-11434362D01*
X18114186Y-11434362D02*
X18104662Y-11443886D01*
X18104662Y-11443886D02*
X18085615Y-11453409D01*
X18085615Y-11453409D02*
X18057043Y-11453409D01*
X18180853Y-11320076D02*
X18257043Y-11320076D01*
X18209424Y-11253409D02*
X18209424Y-11424838D01*
X18209424Y-11424838D02*
X18218948Y-11443886D01*
X18218948Y-11443886D02*
X18237996Y-11453409D01*
X18237996Y-11453409D02*
X18257043Y-11453409D01*
X18476091Y-11320076D02*
X18476091Y-11520076D01*
X18476091Y-11329600D02*
X18495139Y-11320076D01*
X18495139Y-11320076D02*
X18533234Y-11320076D01*
X18533234Y-11320076D02*
X18552282Y-11329600D01*
X18552282Y-11329600D02*
X18561805Y-11339124D01*
X18561805Y-11339124D02*
X18571329Y-11358171D01*
X18571329Y-11358171D02*
X18571329Y-11415314D01*
X18571329Y-11415314D02*
X18561805Y-11434362D01*
X18561805Y-11434362D02*
X18552282Y-11443886D01*
X18552282Y-11443886D02*
X18533234Y-11453409D01*
X18533234Y-11453409D02*
X18495139Y-11453409D01*
X18495139Y-11453409D02*
X18476091Y-11443886D01*
X18685615Y-11453409D02*
X18666567Y-11443886D01*
X18666567Y-11443886D02*
X18657043Y-11424838D01*
X18657043Y-11424838D02*
X18657043Y-11253409D01*
X18847520Y-11453409D02*
X18847520Y-11348647D01*
X18847520Y-11348647D02*
X18837996Y-11329600D01*
X18837996Y-11329600D02*
X18818948Y-11320076D01*
X18818948Y-11320076D02*
X18780853Y-11320076D01*
X18780853Y-11320076D02*
X18761805Y-11329600D01*
X18847520Y-11443886D02*
X18828472Y-11453409D01*
X18828472Y-11453409D02*
X18780853Y-11453409D01*
X18780853Y-11453409D02*
X18761805Y-11443886D01*
X18761805Y-11443886D02*
X18752282Y-11424838D01*
X18752282Y-11424838D02*
X18752282Y-11405790D01*
X18752282Y-11405790D02*
X18761805Y-11386743D01*
X18761805Y-11386743D02*
X18780853Y-11377219D01*
X18780853Y-11377219D02*
X18828472Y-11377219D01*
X18828472Y-11377219D02*
X18847520Y-11367695D01*
X18914186Y-11320076D02*
X18990377Y-11320076D01*
X18942758Y-11253409D02*
X18942758Y-11424838D01*
X18942758Y-11424838D02*
X18952282Y-11443886D01*
X18952282Y-11443886D02*
X18971329Y-11453409D01*
X18971329Y-11453409D02*
X18990377Y-11453409D01*
X19133234Y-11443886D02*
X19114186Y-11453409D01*
X19114186Y-11453409D02*
X19076091Y-11453409D01*
X19076091Y-11453409D02*
X19057043Y-11443886D01*
X19057043Y-11443886D02*
X19047520Y-11424838D01*
X19047520Y-11424838D02*
X19047520Y-11348647D01*
X19047520Y-11348647D02*
X19057043Y-11329600D01*
X19057043Y-11329600D02*
X19076091Y-11320076D01*
X19076091Y-11320076D02*
X19114186Y-11320076D01*
X19114186Y-11320076D02*
X19133234Y-11329600D01*
X19133234Y-11329600D02*
X19142758Y-11348647D01*
X19142758Y-11348647D02*
X19142758Y-11367695D01*
X19142758Y-11367695D02*
X19047520Y-11386743D01*
X19314186Y-11453409D02*
X19314186Y-11253409D01*
X19314186Y-11443886D02*
X19295139Y-11453409D01*
X19295139Y-11453409D02*
X19257043Y-11453409D01*
X19257043Y-11453409D02*
X19237996Y-11443886D01*
X19237996Y-11443886D02*
X19228472Y-11434362D01*
X19228472Y-11434362D02*
X19218948Y-11415314D01*
X19218948Y-11415314D02*
X19218948Y-11358171D01*
X19218948Y-11358171D02*
X19228472Y-11339124D01*
X19228472Y-11339124D02*
X19237996Y-11329600D01*
X19237996Y-11329600D02*
X19257043Y-11320076D01*
X19257043Y-11320076D02*
X19295139Y-11320076D01*
X19295139Y-11320076D02*
X19314186Y-11329600D01*
X19390377Y-11529600D02*
X19399901Y-11520076D01*
X19399901Y-11520076D02*
X19418948Y-11491505D01*
X19418948Y-11491505D02*
X19428472Y-11472457D01*
X19428472Y-11472457D02*
X19437996Y-11443886D01*
X19437996Y-11443886D02*
X19447520Y-11396266D01*
X19447520Y-11396266D02*
X19447520Y-11358171D01*
X19447520Y-11358171D02*
X19437996Y-11310552D01*
X19437996Y-11310552D02*
X19428472Y-11281981D01*
X19428472Y-11281981D02*
X19418948Y-11262933D01*
X19418948Y-11262933D02*
X19399901Y-11234362D01*
X19399901Y-11234362D02*
X19390377Y-11224838D01*
X10915314Y-11581926D02*
X10915314Y-11781926D01*
X10815314Y-11681926D02*
X11015314Y-11681926D01*
X11361805Y-11573409D02*
X11323709Y-11573409D01*
X11323709Y-11573409D02*
X11304662Y-11582933D01*
X11304662Y-11582933D02*
X11295138Y-11592457D01*
X11295138Y-11592457D02*
X11276090Y-11621028D01*
X11276090Y-11621028D02*
X11266566Y-11659124D01*
X11266566Y-11659124D02*
X11266566Y-11735314D01*
X11266566Y-11735314D02*
X11276090Y-11754362D01*
X11276090Y-11754362D02*
X11285614Y-11763886D01*
X11285614Y-11763886D02*
X11304662Y-11773409D01*
X11304662Y-11773409D02*
X11342757Y-11773409D01*
X11342757Y-11773409D02*
X11361805Y-11763886D01*
X11361805Y-11763886D02*
X11371328Y-11754362D01*
X11371328Y-11754362D02*
X11380852Y-11735314D01*
X11380852Y-11735314D02*
X11380852Y-11687695D01*
X11380852Y-11687695D02*
X11371328Y-11668647D01*
X11371328Y-11668647D02*
X11361805Y-11659124D01*
X11361805Y-11659124D02*
X11342757Y-11649600D01*
X11342757Y-11649600D02*
X11304662Y-11649600D01*
X11304662Y-11649600D02*
X11285614Y-11659124D01*
X11285614Y-11659124D02*
X11276090Y-11668647D01*
X11276090Y-11668647D02*
X11266566Y-11687695D01*
X11466566Y-11754362D02*
X11476090Y-11763886D01*
X11476090Y-11763886D02*
X11466566Y-11773409D01*
X11466566Y-11773409D02*
X11457043Y-11763886D01*
X11457043Y-11763886D02*
X11466566Y-11754362D01*
X11466566Y-11754362D02*
X11466566Y-11773409D01*
X11542757Y-11573409D02*
X11666566Y-11573409D01*
X11666566Y-11573409D02*
X11599900Y-11649600D01*
X11599900Y-11649600D02*
X11628471Y-11649600D01*
X11628471Y-11649600D02*
X11647519Y-11659124D01*
X11647519Y-11659124D02*
X11657043Y-11668647D01*
X11657043Y-11668647D02*
X11666566Y-11687695D01*
X11666566Y-11687695D02*
X11666566Y-11735314D01*
X11666566Y-11735314D02*
X11657043Y-11754362D01*
X11657043Y-11754362D02*
X11647519Y-11763886D01*
X11647519Y-11763886D02*
X11628471Y-11773409D01*
X11628471Y-11773409D02*
X11571328Y-11773409D01*
X11571328Y-11773409D02*
X11552281Y-11763886D01*
X11552281Y-11763886D02*
X11542757Y-11754362D01*
X11790376Y-11573409D02*
X11809424Y-11573409D01*
X11809424Y-11573409D02*
X11828471Y-11582933D01*
X11828471Y-11582933D02*
X11837995Y-11592457D01*
X11837995Y-11592457D02*
X11847519Y-11611505D01*
X11847519Y-11611505D02*
X11857043Y-11649600D01*
X11857043Y-11649600D02*
X11857043Y-11697219D01*
X11857043Y-11697219D02*
X11847519Y-11735314D01*
X11847519Y-11735314D02*
X11837995Y-11754362D01*
X11837995Y-11754362D02*
X11828471Y-11763886D01*
X11828471Y-11763886D02*
X11809424Y-11773409D01*
X11809424Y-11773409D02*
X11790376Y-11773409D01*
X11790376Y-11773409D02*
X11771328Y-11763886D01*
X11771328Y-11763886D02*
X11761805Y-11754362D01*
X11761805Y-11754362D02*
X11752281Y-11735314D01*
X11752281Y-11735314D02*
X11742757Y-11697219D01*
X11742757Y-11697219D02*
X11742757Y-11649600D01*
X11742757Y-11649600D02*
X11752281Y-11611505D01*
X11752281Y-11611505D02*
X11761805Y-11592457D01*
X11761805Y-11592457D02*
X11771328Y-11582933D01*
X11771328Y-11582933D02*
X11790376Y-11573409D01*
X11980852Y-11573409D02*
X11999900Y-11573409D01*
X11999900Y-11573409D02*
X12018947Y-11582933D01*
X12018947Y-11582933D02*
X12028471Y-11592457D01*
X12028471Y-11592457D02*
X12037995Y-11611505D01*
X12037995Y-11611505D02*
X12047519Y-11649600D01*
X12047519Y-11649600D02*
X12047519Y-11697219D01*
X12047519Y-11697219D02*
X12037995Y-11735314D01*
X12037995Y-11735314D02*
X12028471Y-11754362D01*
X12028471Y-11754362D02*
X12018947Y-11763886D01*
X12018947Y-11763886D02*
X11999900Y-11773409D01*
X11999900Y-11773409D02*
X11980852Y-11773409D01*
X11980852Y-11773409D02*
X11961805Y-11763886D01*
X11961805Y-11763886D02*
X11952281Y-11754362D01*
X11952281Y-11754362D02*
X11942757Y-11735314D01*
X11942757Y-11735314D02*
X11933233Y-11697219D01*
X11933233Y-11697219D02*
X11933233Y-11649600D01*
X11933233Y-11649600D02*
X11942757Y-11611505D01*
X11942757Y-11611505D02*
X11952281Y-11592457D01*
X11952281Y-11592457D02*
X11961805Y-11582933D01*
X11961805Y-11582933D02*
X11980852Y-11573409D01*
X12133233Y-11773409D02*
X12133233Y-11640076D01*
X12133233Y-11659124D02*
X12142757Y-11649600D01*
X12142757Y-11649600D02*
X12161805Y-11640076D01*
X12161805Y-11640076D02*
X12190376Y-11640076D01*
X12190376Y-11640076D02*
X12209424Y-11649600D01*
X12209424Y-11649600D02*
X12218947Y-11668647D01*
X12218947Y-11668647D02*
X12218947Y-11773409D01*
X12218947Y-11668647D02*
X12228471Y-11649600D01*
X12228471Y-11649600D02*
X12247519Y-11640076D01*
X12247519Y-11640076D02*
X12276090Y-11640076D01*
X12276090Y-11640076D02*
X12295138Y-11649600D01*
X12295138Y-11649600D02*
X12304662Y-11668647D01*
X12304662Y-11668647D02*
X12304662Y-11773409D01*
X12399900Y-11773409D02*
X12399900Y-11640076D01*
X12399900Y-11659124D02*
X12409424Y-11649600D01*
X12409424Y-11649600D02*
X12428471Y-11640076D01*
X12428471Y-11640076D02*
X12457043Y-11640076D01*
X12457043Y-11640076D02*
X12476090Y-11649600D01*
X12476090Y-11649600D02*
X12485614Y-11668647D01*
X12485614Y-11668647D02*
X12485614Y-11773409D01*
X12485614Y-11668647D02*
X12495138Y-11649600D01*
X12495138Y-11649600D02*
X12514186Y-11640076D01*
X12514186Y-11640076D02*
X12542757Y-11640076D01*
X12542757Y-11640076D02*
X12561805Y-11649600D01*
X12561805Y-11649600D02*
X12571328Y-11668647D01*
X12571328Y-11668647D02*
X12571328Y-11773409D01*
X12961805Y-11563886D02*
X12790376Y-11821028D01*
X13218948Y-11573409D02*
X13237995Y-11573409D01*
X13237995Y-11573409D02*
X13257043Y-11582933D01*
X13257043Y-11582933D02*
X13266567Y-11592457D01*
X13266567Y-11592457D02*
X13276090Y-11611505D01*
X13276090Y-11611505D02*
X13285614Y-11649600D01*
X13285614Y-11649600D02*
X13285614Y-11697219D01*
X13285614Y-11697219D02*
X13276090Y-11735314D01*
X13276090Y-11735314D02*
X13266567Y-11754362D01*
X13266567Y-11754362D02*
X13257043Y-11763886D01*
X13257043Y-11763886D02*
X13237995Y-11773409D01*
X13237995Y-11773409D02*
X13218948Y-11773409D01*
X13218948Y-11773409D02*
X13199900Y-11763886D01*
X13199900Y-11763886D02*
X13190376Y-11754362D01*
X13190376Y-11754362D02*
X13180852Y-11735314D01*
X13180852Y-11735314D02*
X13171329Y-11697219D01*
X13171329Y-11697219D02*
X13171329Y-11649600D01*
X13171329Y-11649600D02*
X13180852Y-11611505D01*
X13180852Y-11611505D02*
X13190376Y-11592457D01*
X13190376Y-11592457D02*
X13199900Y-11582933D01*
X13199900Y-11582933D02*
X13218948Y-11573409D01*
X13371329Y-11754362D02*
X13380852Y-11763886D01*
X13380852Y-11763886D02*
X13371329Y-11773409D01*
X13371329Y-11773409D02*
X13361805Y-11763886D01*
X13361805Y-11763886D02*
X13371329Y-11754362D01*
X13371329Y-11754362D02*
X13371329Y-11773409D01*
X13457043Y-11592457D02*
X13466567Y-11582933D01*
X13466567Y-11582933D02*
X13485614Y-11573409D01*
X13485614Y-11573409D02*
X13533233Y-11573409D01*
X13533233Y-11573409D02*
X13552281Y-11582933D01*
X13552281Y-11582933D02*
X13561805Y-11592457D01*
X13561805Y-11592457D02*
X13571329Y-11611505D01*
X13571329Y-11611505D02*
X13571329Y-11630552D01*
X13571329Y-11630552D02*
X13561805Y-11659124D01*
X13561805Y-11659124D02*
X13447519Y-11773409D01*
X13447519Y-11773409D02*
X13571329Y-11773409D01*
X13742757Y-11640076D02*
X13742757Y-11773409D01*
X13695138Y-11563886D02*
X13647519Y-11706743D01*
X13647519Y-11706743D02*
X13771329Y-11706743D01*
X13876090Y-11659124D02*
X13857043Y-11649600D01*
X13857043Y-11649600D02*
X13847519Y-11640076D01*
X13847519Y-11640076D02*
X13837995Y-11621028D01*
X13837995Y-11621028D02*
X13837995Y-11611505D01*
X13837995Y-11611505D02*
X13847519Y-11592457D01*
X13847519Y-11592457D02*
X13857043Y-11582933D01*
X13857043Y-11582933D02*
X13876090Y-11573409D01*
X13876090Y-11573409D02*
X13914186Y-11573409D01*
X13914186Y-11573409D02*
X13933233Y-11582933D01*
X13933233Y-11582933D02*
X13942757Y-11592457D01*
X13942757Y-11592457D02*
X13952281Y-11611505D01*
X13952281Y-11611505D02*
X13952281Y-11621028D01*
X13952281Y-11621028D02*
X13942757Y-11640076D01*
X13942757Y-11640076D02*
X13933233Y-11649600D01*
X13933233Y-11649600D02*
X13914186Y-11659124D01*
X13914186Y-11659124D02*
X13876090Y-11659124D01*
X13876090Y-11659124D02*
X13857043Y-11668647D01*
X13857043Y-11668647D02*
X13847519Y-11678171D01*
X13847519Y-11678171D02*
X13837995Y-11697219D01*
X13837995Y-11697219D02*
X13837995Y-11735314D01*
X13837995Y-11735314D02*
X13847519Y-11754362D01*
X13847519Y-11754362D02*
X13857043Y-11763886D01*
X13857043Y-11763886D02*
X13876090Y-11773409D01*
X13876090Y-11773409D02*
X13914186Y-11773409D01*
X13914186Y-11773409D02*
X13933233Y-11763886D01*
X13933233Y-11763886D02*
X13942757Y-11754362D01*
X13942757Y-11754362D02*
X13952281Y-11735314D01*
X13952281Y-11735314D02*
X13952281Y-11697219D01*
X13952281Y-11697219D02*
X13942757Y-11678171D01*
X13942757Y-11678171D02*
X13933233Y-11668647D01*
X13933233Y-11668647D02*
X13914186Y-11659124D01*
X14076090Y-11573409D02*
X14095138Y-11573409D01*
X14095138Y-11573409D02*
X14114186Y-11582933D01*
X14114186Y-11582933D02*
X14123710Y-11592457D01*
X14123710Y-11592457D02*
X14133233Y-11611505D01*
X14133233Y-11611505D02*
X14142757Y-11649600D01*
X14142757Y-11649600D02*
X14142757Y-11697219D01*
X14142757Y-11697219D02*
X14133233Y-11735314D01*
X14133233Y-11735314D02*
X14123710Y-11754362D01*
X14123710Y-11754362D02*
X14114186Y-11763886D01*
X14114186Y-11763886D02*
X14095138Y-11773409D01*
X14095138Y-11773409D02*
X14076090Y-11773409D01*
X14076090Y-11773409D02*
X14057043Y-11763886D01*
X14057043Y-11763886D02*
X14047519Y-11754362D01*
X14047519Y-11754362D02*
X14037995Y-11735314D01*
X14037995Y-11735314D02*
X14028471Y-11697219D01*
X14028471Y-11697219D02*
X14028471Y-11649600D01*
X14028471Y-11649600D02*
X14037995Y-11611505D01*
X14037995Y-11611505D02*
X14047519Y-11592457D01*
X14047519Y-11592457D02*
X14057043Y-11582933D01*
X14057043Y-11582933D02*
X14076090Y-11573409D01*
X14218948Y-11573409D02*
X14218948Y-11611505D01*
X14295138Y-11573409D02*
X14295138Y-11611505D01*
X14590376Y-11849600D02*
X14580852Y-11840076D01*
X14580852Y-11840076D02*
X14561805Y-11811505D01*
X14561805Y-11811505D02*
X14552281Y-11792457D01*
X14552281Y-11792457D02*
X14542757Y-11763886D01*
X14542757Y-11763886D02*
X14533233Y-11716266D01*
X14533233Y-11716266D02*
X14533233Y-11678171D01*
X14533233Y-11678171D02*
X14542757Y-11630552D01*
X14542757Y-11630552D02*
X14552281Y-11601981D01*
X14552281Y-11601981D02*
X14561805Y-11582933D01*
X14561805Y-11582933D02*
X14580852Y-11554362D01*
X14580852Y-11554362D02*
X14590376Y-11544838D01*
X14704662Y-11573409D02*
X14723710Y-11573409D01*
X14723710Y-11573409D02*
X14742757Y-11582933D01*
X14742757Y-11582933D02*
X14752281Y-11592457D01*
X14752281Y-11592457D02*
X14761805Y-11611505D01*
X14761805Y-11611505D02*
X14771329Y-11649600D01*
X14771329Y-11649600D02*
X14771329Y-11697219D01*
X14771329Y-11697219D02*
X14761805Y-11735314D01*
X14761805Y-11735314D02*
X14752281Y-11754362D01*
X14752281Y-11754362D02*
X14742757Y-11763886D01*
X14742757Y-11763886D02*
X14723710Y-11773409D01*
X14723710Y-11773409D02*
X14704662Y-11773409D01*
X14704662Y-11773409D02*
X14685614Y-11763886D01*
X14685614Y-11763886D02*
X14676091Y-11754362D01*
X14676091Y-11754362D02*
X14666567Y-11735314D01*
X14666567Y-11735314D02*
X14657043Y-11697219D01*
X14657043Y-11697219D02*
X14657043Y-11649600D01*
X14657043Y-11649600D02*
X14666567Y-11611505D01*
X14666567Y-11611505D02*
X14676091Y-11592457D01*
X14676091Y-11592457D02*
X14685614Y-11582933D01*
X14685614Y-11582933D02*
X14704662Y-11573409D01*
X15009424Y-11773409D02*
X15009424Y-11573409D01*
X15095138Y-11773409D02*
X15095138Y-11668647D01*
X15095138Y-11668647D02*
X15085614Y-11649600D01*
X15085614Y-11649600D02*
X15066567Y-11640076D01*
X15066567Y-11640076D02*
X15037995Y-11640076D01*
X15037995Y-11640076D02*
X15018948Y-11649600D01*
X15018948Y-11649600D02*
X15009424Y-11659124D01*
X15218948Y-11773409D02*
X15199900Y-11763886D01*
X15199900Y-11763886D02*
X15190376Y-11754362D01*
X15190376Y-11754362D02*
X15180853Y-11735314D01*
X15180853Y-11735314D02*
X15180853Y-11678171D01*
X15180853Y-11678171D02*
X15190376Y-11659124D01*
X15190376Y-11659124D02*
X15199900Y-11649600D01*
X15199900Y-11649600D02*
X15218948Y-11640076D01*
X15218948Y-11640076D02*
X15247519Y-11640076D01*
X15247519Y-11640076D02*
X15266567Y-11649600D01*
X15266567Y-11649600D02*
X15276091Y-11659124D01*
X15276091Y-11659124D02*
X15285614Y-11678171D01*
X15285614Y-11678171D02*
X15285614Y-11735314D01*
X15285614Y-11735314D02*
X15276091Y-11754362D01*
X15276091Y-11754362D02*
X15266567Y-11763886D01*
X15266567Y-11763886D02*
X15247519Y-11773409D01*
X15247519Y-11773409D02*
X15218948Y-11773409D01*
X15399900Y-11773409D02*
X15380853Y-11763886D01*
X15380853Y-11763886D02*
X15371329Y-11744838D01*
X15371329Y-11744838D02*
X15371329Y-11573409D01*
X15552281Y-11763886D02*
X15533234Y-11773409D01*
X15533234Y-11773409D02*
X15495138Y-11773409D01*
X15495138Y-11773409D02*
X15476091Y-11763886D01*
X15476091Y-11763886D02*
X15466567Y-11744838D01*
X15466567Y-11744838D02*
X15466567Y-11668647D01*
X15466567Y-11668647D02*
X15476091Y-11649600D01*
X15476091Y-11649600D02*
X15495138Y-11640076D01*
X15495138Y-11640076D02*
X15533234Y-11640076D01*
X15533234Y-11640076D02*
X15552281Y-11649600D01*
X15552281Y-11649600D02*
X15561805Y-11668647D01*
X15561805Y-11668647D02*
X15561805Y-11687695D01*
X15561805Y-11687695D02*
X15466567Y-11706743D01*
X15637995Y-11763886D02*
X15657043Y-11773409D01*
X15657043Y-11773409D02*
X15695138Y-11773409D01*
X15695138Y-11773409D02*
X15714186Y-11763886D01*
X15714186Y-11763886D02*
X15723710Y-11744838D01*
X15723710Y-11744838D02*
X15723710Y-11735314D01*
X15723710Y-11735314D02*
X15714186Y-11716266D01*
X15714186Y-11716266D02*
X15695138Y-11706743D01*
X15695138Y-11706743D02*
X15666567Y-11706743D01*
X15666567Y-11706743D02*
X15647519Y-11697219D01*
X15647519Y-11697219D02*
X15637995Y-11678171D01*
X15637995Y-11678171D02*
X15637995Y-11668647D01*
X15637995Y-11668647D02*
X15647519Y-11649600D01*
X15647519Y-11649600D02*
X15666567Y-11640076D01*
X15666567Y-11640076D02*
X15695138Y-11640076D01*
X15695138Y-11640076D02*
X15714186Y-11649600D01*
X15961805Y-11697219D02*
X16114186Y-11697219D01*
X16037996Y-11773409D02*
X16037996Y-11621028D01*
X16466567Y-11773409D02*
X16352281Y-11773409D01*
X16409424Y-11773409D02*
X16409424Y-11573409D01*
X16409424Y-11573409D02*
X16390376Y-11601981D01*
X16390376Y-11601981D02*
X16371329Y-11621028D01*
X16371329Y-11621028D02*
X16352281Y-11630552D01*
X16542757Y-11592457D02*
X16552281Y-11582933D01*
X16552281Y-11582933D02*
X16571329Y-11573409D01*
X16571329Y-11573409D02*
X16618948Y-11573409D01*
X16618948Y-11573409D02*
X16637996Y-11582933D01*
X16637996Y-11582933D02*
X16647519Y-11592457D01*
X16647519Y-11592457D02*
X16657043Y-11611505D01*
X16657043Y-11611505D02*
X16657043Y-11630552D01*
X16657043Y-11630552D02*
X16647519Y-11659124D01*
X16647519Y-11659124D02*
X16533234Y-11773409D01*
X16533234Y-11773409D02*
X16657043Y-11773409D01*
X16885615Y-11763886D02*
X16904662Y-11773409D01*
X16904662Y-11773409D02*
X16942758Y-11773409D01*
X16942758Y-11773409D02*
X16961805Y-11763886D01*
X16961805Y-11763886D02*
X16971329Y-11744838D01*
X16971329Y-11744838D02*
X16971329Y-11735314D01*
X16971329Y-11735314D02*
X16961805Y-11716266D01*
X16961805Y-11716266D02*
X16942758Y-11706743D01*
X16942758Y-11706743D02*
X16914186Y-11706743D01*
X16914186Y-11706743D02*
X16895139Y-11697219D01*
X16895139Y-11697219D02*
X16885615Y-11678171D01*
X16885615Y-11678171D02*
X16885615Y-11668647D01*
X16885615Y-11668647D02*
X16895139Y-11649600D01*
X16895139Y-11649600D02*
X16914186Y-11640076D01*
X16914186Y-11640076D02*
X16942758Y-11640076D01*
X16942758Y-11640076D02*
X16961805Y-11649600D01*
X17085615Y-11773409D02*
X17066567Y-11763886D01*
X17066567Y-11763886D02*
X17057043Y-11744838D01*
X17057043Y-11744838D02*
X17057043Y-11573409D01*
X17190377Y-11773409D02*
X17171329Y-11763886D01*
X17171329Y-11763886D02*
X17161805Y-11754362D01*
X17161805Y-11754362D02*
X17152281Y-11735314D01*
X17152281Y-11735314D02*
X17152281Y-11678171D01*
X17152281Y-11678171D02*
X17161805Y-11659124D01*
X17161805Y-11659124D02*
X17171329Y-11649600D01*
X17171329Y-11649600D02*
X17190377Y-11640076D01*
X17190377Y-11640076D02*
X17218948Y-11640076D01*
X17218948Y-11640076D02*
X17237996Y-11649600D01*
X17237996Y-11649600D02*
X17247520Y-11659124D01*
X17247520Y-11659124D02*
X17257043Y-11678171D01*
X17257043Y-11678171D02*
X17257043Y-11735314D01*
X17257043Y-11735314D02*
X17247520Y-11754362D01*
X17247520Y-11754362D02*
X17237996Y-11763886D01*
X17237996Y-11763886D02*
X17218948Y-11773409D01*
X17218948Y-11773409D02*
X17190377Y-11773409D01*
X17314186Y-11640076D02*
X17390377Y-11640076D01*
X17342758Y-11573409D02*
X17342758Y-11744838D01*
X17342758Y-11744838D02*
X17352281Y-11763886D01*
X17352281Y-11763886D02*
X17371329Y-11773409D01*
X17371329Y-11773409D02*
X17390377Y-11773409D01*
X17447520Y-11763886D02*
X17466567Y-11773409D01*
X17466567Y-11773409D02*
X17504662Y-11773409D01*
X17504662Y-11773409D02*
X17523710Y-11763886D01*
X17523710Y-11763886D02*
X17533234Y-11744838D01*
X17533234Y-11744838D02*
X17533234Y-11735314D01*
X17533234Y-11735314D02*
X17523710Y-11716266D01*
X17523710Y-11716266D02*
X17504662Y-11706743D01*
X17504662Y-11706743D02*
X17476091Y-11706743D01*
X17476091Y-11706743D02*
X17457043Y-11697219D01*
X17457043Y-11697219D02*
X17447520Y-11678171D01*
X17447520Y-11678171D02*
X17447520Y-11668647D01*
X17447520Y-11668647D02*
X17457043Y-11649600D01*
X17457043Y-11649600D02*
X17476091Y-11640076D01*
X17476091Y-11640076D02*
X17504662Y-11640076D01*
X17504662Y-11640076D02*
X17523710Y-11649600D01*
X17599901Y-11849600D02*
X17609424Y-11840076D01*
X17609424Y-11840076D02*
X17628472Y-11811505D01*
X17628472Y-11811505D02*
X17637996Y-11792457D01*
X17637996Y-11792457D02*
X17647520Y-11763886D01*
X17647520Y-11763886D02*
X17657043Y-11716266D01*
X17657043Y-11716266D02*
X17657043Y-11678171D01*
X17657043Y-11678171D02*
X17647520Y-11630552D01*
X17647520Y-11630552D02*
X17637996Y-11601981D01*
X17637996Y-11601981D02*
X17628472Y-11582933D01*
X17628472Y-11582933D02*
X17609424Y-11554362D01*
X17609424Y-11554362D02*
X17599901Y-11544838D01*
X17961805Y-11849600D02*
X17952281Y-11840076D01*
X17952281Y-11840076D02*
X17933234Y-11811505D01*
X17933234Y-11811505D02*
X17923710Y-11792457D01*
X17923710Y-11792457D02*
X17914186Y-11763886D01*
X17914186Y-11763886D02*
X17904662Y-11716266D01*
X17904662Y-11716266D02*
X17904662Y-11678171D01*
X17904662Y-11678171D02*
X17914186Y-11630552D01*
X17914186Y-11630552D02*
X17923710Y-11601981D01*
X17923710Y-11601981D02*
X17933234Y-11582933D01*
X17933234Y-11582933D02*
X17952281Y-11554362D01*
X17952281Y-11554362D02*
X17961805Y-11544838D01*
X18037996Y-11640076D02*
X18037996Y-11773409D01*
X18037996Y-11659124D02*
X18047520Y-11649600D01*
X18047520Y-11649600D02*
X18066567Y-11640076D01*
X18066567Y-11640076D02*
X18095139Y-11640076D01*
X18095139Y-11640076D02*
X18114186Y-11649600D01*
X18114186Y-11649600D02*
X18123710Y-11668647D01*
X18123710Y-11668647D02*
X18123710Y-11773409D01*
X18247520Y-11773409D02*
X18228472Y-11763886D01*
X18228472Y-11763886D02*
X18218948Y-11754362D01*
X18218948Y-11754362D02*
X18209424Y-11735314D01*
X18209424Y-11735314D02*
X18209424Y-11678171D01*
X18209424Y-11678171D02*
X18218948Y-11659124D01*
X18218948Y-11659124D02*
X18228472Y-11649600D01*
X18228472Y-11649600D02*
X18247520Y-11640076D01*
X18247520Y-11640076D02*
X18276091Y-11640076D01*
X18276091Y-11640076D02*
X18295139Y-11649600D01*
X18295139Y-11649600D02*
X18304662Y-11659124D01*
X18304662Y-11659124D02*
X18314186Y-11678171D01*
X18314186Y-11678171D02*
X18314186Y-11735314D01*
X18314186Y-11735314D02*
X18304662Y-11754362D01*
X18304662Y-11754362D02*
X18295139Y-11763886D01*
X18295139Y-11763886D02*
X18276091Y-11773409D01*
X18276091Y-11773409D02*
X18247520Y-11773409D01*
X18371329Y-11640076D02*
X18447520Y-11640076D01*
X18399901Y-11573409D02*
X18399901Y-11744838D01*
X18399901Y-11744838D02*
X18409424Y-11763886D01*
X18409424Y-11763886D02*
X18428472Y-11773409D01*
X18428472Y-11773409D02*
X18447520Y-11773409D01*
X18666567Y-11640076D02*
X18666567Y-11840076D01*
X18666567Y-11649600D02*
X18685615Y-11640076D01*
X18685615Y-11640076D02*
X18723710Y-11640076D01*
X18723710Y-11640076D02*
X18742758Y-11649600D01*
X18742758Y-11649600D02*
X18752282Y-11659124D01*
X18752282Y-11659124D02*
X18761805Y-11678171D01*
X18761805Y-11678171D02*
X18761805Y-11735314D01*
X18761805Y-11735314D02*
X18752282Y-11754362D01*
X18752282Y-11754362D02*
X18742758Y-11763886D01*
X18742758Y-11763886D02*
X18723710Y-11773409D01*
X18723710Y-11773409D02*
X18685615Y-11773409D01*
X18685615Y-11773409D02*
X18666567Y-11763886D01*
X18876091Y-11773409D02*
X18857043Y-11763886D01*
X18857043Y-11763886D02*
X18847520Y-11744838D01*
X18847520Y-11744838D02*
X18847520Y-11573409D01*
X19037996Y-11773409D02*
X19037996Y-11668647D01*
X19037996Y-11668647D02*
X19028472Y-11649600D01*
X19028472Y-11649600D02*
X19009424Y-11640076D01*
X19009424Y-11640076D02*
X18971329Y-11640076D01*
X18971329Y-11640076D02*
X18952282Y-11649600D01*
X19037996Y-11763886D02*
X19018948Y-11773409D01*
X19018948Y-11773409D02*
X18971329Y-11773409D01*
X18971329Y-11773409D02*
X18952282Y-11763886D01*
X18952282Y-11763886D02*
X18942758Y-11744838D01*
X18942758Y-11744838D02*
X18942758Y-11725790D01*
X18942758Y-11725790D02*
X18952282Y-11706743D01*
X18952282Y-11706743D02*
X18971329Y-11697219D01*
X18971329Y-11697219D02*
X19018948Y-11697219D01*
X19018948Y-11697219D02*
X19037996Y-11687695D01*
X19104663Y-11640076D02*
X19180853Y-11640076D01*
X19133234Y-11573409D02*
X19133234Y-11744838D01*
X19133234Y-11744838D02*
X19142758Y-11763886D01*
X19142758Y-11763886D02*
X19161805Y-11773409D01*
X19161805Y-11773409D02*
X19180853Y-11773409D01*
X19323710Y-11763886D02*
X19304663Y-11773409D01*
X19304663Y-11773409D02*
X19266567Y-11773409D01*
X19266567Y-11773409D02*
X19247520Y-11763886D01*
X19247520Y-11763886D02*
X19237996Y-11744838D01*
X19237996Y-11744838D02*
X19237996Y-11668647D01*
X19237996Y-11668647D02*
X19247520Y-11649600D01*
X19247520Y-11649600D02*
X19266567Y-11640076D01*
X19266567Y-11640076D02*
X19304663Y-11640076D01*
X19304663Y-11640076D02*
X19323710Y-11649600D01*
X19323710Y-11649600D02*
X19333234Y-11668647D01*
X19333234Y-11668647D02*
X19333234Y-11687695D01*
X19333234Y-11687695D02*
X19237996Y-11706743D01*
X19504663Y-11773409D02*
X19504663Y-11573409D01*
X19504663Y-11763886D02*
X19485615Y-11773409D01*
X19485615Y-11773409D02*
X19447520Y-11773409D01*
X19447520Y-11773409D02*
X19428472Y-11763886D01*
X19428472Y-11763886D02*
X19418948Y-11754362D01*
X19418948Y-11754362D02*
X19409424Y-11735314D01*
X19409424Y-11735314D02*
X19409424Y-11678171D01*
X19409424Y-11678171D02*
X19418948Y-11659124D01*
X19418948Y-11659124D02*
X19428472Y-11649600D01*
X19428472Y-11649600D02*
X19447520Y-11640076D01*
X19447520Y-11640076D02*
X19485615Y-11640076D01*
X19485615Y-11640076D02*
X19504663Y-11649600D01*
X19580853Y-11849600D02*
X19590377Y-11840076D01*
X19590377Y-11840076D02*
X19609424Y-11811505D01*
X19609424Y-11811505D02*
X19618948Y-11792457D01*
X19618948Y-11792457D02*
X19628472Y-11763886D01*
X19628472Y-11763886D02*
X19637996Y-11716266D01*
X19637996Y-11716266D02*
X19637996Y-11678171D01*
X19637996Y-11678171D02*
X19628472Y-11630552D01*
X19628472Y-11630552D02*
X19618948Y-11601981D01*
X19618948Y-11601981D02*
X19609424Y-11582933D01*
X19609424Y-11582933D02*
X19590377Y-11554362D01*
X19590377Y-11554362D02*
X19580853Y-11544838D01*
M02*
