M48
; DRILL file {KiCad 8.0.5} date 2024-09-18T07:34:32+0900
; FORMAT={-:-/ absolute / metric / decimal}
; #@! TF.CreationDate,2024-09-18T07:34:32+09:00
; #@! TF.GenerationSoftware,Kicad,Pcbnew,8.0.5
; #@! TF.FileFunction,NonPlated,1,2,NPTH
FMAT,2
METRIC
; #@! TA.AperFunction,NonPlated,NPTH,ComponentDrill
T1C1.000
; #@! TA.AperFunction,NonPlated,NPTH,ComponentDrill
T2C4.700
; #@! TA.AperFunction,NonPlated,NPTH,ComponentDrill
T3C6.000
; #@! TA.AperFunction,NonPlated,NPTH,ComponentDrill
T4C6.300
%
G90
G05
T2
X139.978Y-61.486
X166.919Y-34.545
T1
X114.79Y-85.901G85X123.982Y-76.708
G05
X123.982Y-95.093G85X114.79Y-85.901
G05
X133.174Y-85.901G85X123.982Y-76.708
G05
X123.982Y-95.093G85X133.174Y-85.901
G05
X141.748Y-85.918G85X150.94Y-76.726
G05
X150.94Y-95.111G85X141.748Y-85.918
G05
X160.133Y-85.918G85X150.94Y-76.726
G05
X150.94Y-95.111G85X160.133Y-85.918
G05
X161.936Y-92.636G85X171.128Y-83.443
G05
X171.128Y-101.828G85X161.936Y-92.636
G05
X180.321Y-92.636G85X171.128Y-83.443
G05
X171.128Y-101.828G85X180.321Y-92.636
G05
X175.406Y-79.165G85X184.599Y-69.973
G05
X184.599Y-88.358G85X175.406Y-79.165
G05
X182.141Y-18.549G85X191.334Y-9.356
G05
X191.334Y-27.741G85X182.141Y-18.549
G05
X182.141Y-45.49G85X191.334Y-36.297
G05
X191.334Y-54.682G85X182.141Y-45.49
G05
X193.791Y-79.165G85X184.599Y-69.973
G05
X184.599Y-88.358G85X193.791Y-79.165
G05
X188.877Y-65.695G85X198.069Y-56.503
G05
X198.069Y-74.887G85X188.877Y-65.695
G05
X200.526Y-18.549G85X191.334Y-9.356
G05
X191.334Y-27.741G85X200.526Y-18.549
G05
X200.526Y-45.49G85X191.334Y-36.297
G05
X191.334Y-54.682G85X200.526Y-45.49
G05
X207.261Y-65.695G85X198.069Y-56.503
G05
X198.069Y-74.887G85X207.261Y-65.695
G05
T2
X152.911Y-68.73G85X153.46Y-69.908
G05
X157.687Y-52.199G85X158.866Y-51.649
G05
X171.123Y-65.705G85X172.301Y-65.155
G05
X174.198Y-48.557G85X175.377Y-48.008
G05
T3
X135.74Y-79.748G85X142.841Y-75.648
G05
X149.21Y-66.278G85X156.312Y-62.178
G05
X162.645Y-79.713G85X169.747Y-75.613
G05
X162.681Y-52.807G85X169.782Y-48.707
G05
X176.116Y-66.242G85X183.217Y-62.142
G05
X176.151Y-39.337G85X183.253Y-35.237
G05
T4
X133.654Y-74.237G85X137.008Y-72.674
G05
X147.125Y-60.767G85X150.478Y-59.203
G05
X160.595Y-47.297G85X163.948Y-45.733
G05
X160.595Y-74.237G85X163.948Y-72.674
G05
X174.065Y-33.826G85X177.419Y-32.263
G05
X174.065Y-60.767G85X177.419Y-59.203
G05
M30
