G04 #@! TF.GenerationSoftware,KiCad,Pcbnew,8.0.5*
G04 #@! TF.CreationDate,2024-09-18T07:34:35+09:00*
G04 #@! TF.ProjectId,SandyLP_Plate_Middle,53616e64-794c-4505-9f50-6c6174655f4d,v.0*
G04 #@! TF.SameCoordinates,Original*
G04 #@! TF.FileFunction,AssemblyDrawing,Bot*
%FSLAX46Y46*%
G04 Gerber Fmt 4.6, Leading zero omitted, Abs format (unit mm)*
G04 Created by KiCad (PCBNEW 8.0.5) date 2024-09-18 07:34:35*
%MOMM*%
%LPD*%
G01*
G04 APERTURE LIST*
%ADD10C,0.120000*%
%ADD11C,0.150000*%
G04 APERTURE END LIST*
D10*
X132502553Y-80915560D02*
X134270320Y-79147793D01*
X134270320Y-82683327D02*
X132502553Y-80915560D01*
X133563213Y-78440686D02*
X136886615Y-81764088D01*
X136038087Y-80915560D02*
X134270320Y-82683327D01*
D11*
X136886615Y-81764088D02*
X140068596Y-78582107D01*
X136745194Y-75258705D02*
X133563213Y-78440686D01*
X137240169Y-75753680D02*
X136745194Y-75258705D01*
X140775703Y-78582107D02*
X141482809Y-79289214D01*
X142189916Y-79289214D02*
X141482809Y-79289214D01*
X141129256Y-73985913D02*
X139361489Y-75753680D01*
X144311236Y-77167894D02*
X142189916Y-79289214D01*
X141836363Y-73985913D02*
X141129256Y-73985913D01*
D10*
X141871718Y-74021268D02*
X144311236Y-76460787D01*
X142225271Y-74374822D02*
X143993038Y-72607055D01*
D11*
X144311236Y-76460787D02*
X144311236Y-77167894D01*
D10*
X143993038Y-72607055D02*
X145760805Y-74374822D01*
X145760805Y-74374822D02*
X143993038Y-76142589D01*
X145972937Y-67445175D02*
X147740704Y-65677408D01*
X147740704Y-69212942D02*
X145972937Y-67445175D01*
X159443322Y-80915560D02*
X161211088Y-79147793D01*
X161211088Y-82683327D02*
X159443322Y-80915560D01*
X147033598Y-64970302D02*
X150356999Y-68293704D01*
X149508471Y-67445175D02*
X147740704Y-69212942D01*
D11*
X150356999Y-68293704D02*
X153538980Y-65111723D01*
D10*
X160503982Y-78440686D02*
X163827384Y-81764088D01*
X162978855Y-80915560D02*
X161211088Y-82683327D01*
D11*
X163827384Y-81764088D02*
X167009364Y-78582107D01*
X150215578Y-61788321D02*
X147033598Y-64970302D01*
X150710553Y-62283296D02*
X150215578Y-61788321D01*
X163685962Y-75258705D02*
X160503982Y-78440686D01*
X164180937Y-75753680D02*
X163685962Y-75258705D01*
X154246087Y-65111723D02*
X154953193Y-65818830D01*
X167716471Y-78582107D02*
X168423578Y-79289214D01*
X155660300Y-65818830D02*
X154953193Y-65818830D01*
X169130684Y-79289214D02*
X168423578Y-79289214D01*
X154599640Y-60515529D02*
X152831873Y-62283296D01*
X157781621Y-63697509D02*
X155660300Y-65818830D01*
X168070024Y-73985913D02*
X166302257Y-75753680D01*
X171252005Y-77167894D02*
X169130684Y-79289214D01*
X155306747Y-60515529D02*
X154599640Y-60515529D01*
D10*
X155342102Y-60550884D02*
X157781621Y-62990403D01*
X155695656Y-60904438D02*
X157463423Y-59136671D01*
D11*
X157781621Y-62990403D02*
X157781621Y-63697509D01*
X168777131Y-73985913D02*
X168070024Y-73985913D01*
D10*
X168812486Y-74021268D02*
X171252005Y-76460787D01*
X169166040Y-74374822D02*
X170933807Y-72607055D01*
D11*
X171252005Y-76460787D02*
X171252005Y-77167894D01*
D10*
X157463423Y-59136671D02*
X159231189Y-60904438D01*
X159231189Y-60904438D02*
X157463423Y-62672205D01*
X170933807Y-72607055D02*
X172701574Y-74374822D01*
X172701574Y-74374822D02*
X170933807Y-76142589D01*
X159443322Y-53974791D02*
X161211088Y-52207024D01*
X161211088Y-55742558D02*
X159443322Y-53974791D01*
X172913706Y-67445175D02*
X174681473Y-65677408D01*
X174681473Y-69212942D02*
X172913706Y-67445175D01*
X160503982Y-51499917D02*
X163827384Y-54823319D01*
X162978855Y-53974791D02*
X161211088Y-55742558D01*
D11*
X163827384Y-54823319D02*
X167009364Y-51641339D01*
D10*
X173974366Y-64970302D02*
X177297768Y-68293704D01*
X176449240Y-67445175D02*
X174681473Y-69212942D01*
D11*
X177297768Y-68293704D02*
X180479748Y-65111723D01*
X163685962Y-48317937D02*
X160503982Y-51499917D01*
X164180937Y-48812912D02*
X163685962Y-48317937D01*
X177156346Y-61788321D02*
X173974366Y-64970302D01*
X177651321Y-62283296D02*
X177156346Y-61788321D01*
X167716471Y-51641339D02*
X168423578Y-52348446D01*
X181186855Y-65111723D02*
X181893962Y-65818830D01*
X169130684Y-52348446D02*
X168423578Y-52348446D01*
X182601069Y-65818830D02*
X181893962Y-65818830D01*
X168070024Y-47045145D02*
X166302257Y-48812912D01*
X171252005Y-50227125D02*
X169130684Y-52348446D01*
X181540408Y-60515529D02*
X179772641Y-62283296D01*
X184722389Y-63697509D02*
X182601069Y-65818830D01*
X168777131Y-47045145D02*
X168070024Y-47045145D01*
D10*
X168812486Y-47080500D02*
X171252005Y-49520018D01*
X169166040Y-47434053D02*
X170933807Y-45666287D01*
D11*
X171252005Y-49520018D02*
X171252005Y-50227125D01*
X182247515Y-60515529D02*
X181540408Y-60515529D01*
D10*
X182282871Y-60550884D02*
X184722389Y-62990403D01*
X182636424Y-60904438D02*
X184404191Y-59136671D01*
D11*
X184722389Y-62990403D02*
X184722389Y-63697509D01*
D10*
X170933807Y-45666287D02*
X172701574Y-47434053D01*
X172701574Y-47434053D02*
X170933807Y-49201820D01*
X184404191Y-59136671D02*
X186171958Y-60904438D01*
X186171958Y-60904438D02*
X184404191Y-62672205D01*
X172913706Y-40504407D02*
X174681473Y-38736640D01*
X174681473Y-42272174D02*
X172913706Y-40504407D01*
X173974366Y-38029533D02*
X177297768Y-41352935D01*
X176449240Y-40504407D02*
X174681473Y-42272174D01*
D11*
X177297768Y-41352935D02*
X180479748Y-38170955D01*
X177156346Y-34847553D02*
X173974366Y-38029533D01*
X177651321Y-35342528D02*
X177156346Y-34847553D01*
X181186855Y-38170955D02*
X181893962Y-38878061D01*
X182601069Y-38878061D02*
X181893962Y-38878061D01*
X181540408Y-33574761D02*
X179772641Y-35342528D01*
X184722389Y-36756741D02*
X182601069Y-38878061D01*
X182247515Y-33574761D02*
X181540408Y-33574761D01*
D10*
X182282871Y-33610116D02*
X184722389Y-36049634D01*
X182636424Y-33963669D02*
X184404191Y-32195902D01*
D11*
X184722389Y-36049634D02*
X184722389Y-36756741D01*
D10*
X184404191Y-32195902D02*
X186171958Y-33963669D01*
X186171958Y-33963669D02*
X184404191Y-35731436D01*
D11*
X140068596Y-78582107D02*
G75*
G02*
X140775703Y-78582107I353553J-353555D01*
G01*
X139361489Y-75753680D02*
G75*
G02*
X137240169Y-75753680I-1060660J1060662D01*
G01*
X153538980Y-65111723D02*
G75*
G02*
X154246087Y-65111723I353553J-353555D01*
G01*
X167009364Y-78582107D02*
G75*
G02*
X167716471Y-78582107I353553J-353555D01*
G01*
X152831873Y-62283296D02*
G75*
G02*
X150710553Y-62283296I-1060660J1060662D01*
G01*
X166302257Y-75753680D02*
G75*
G02*
X164180937Y-75753680I-1060660J1060662D01*
G01*
X167009364Y-51641339D02*
G75*
G02*
X167716470Y-51641339I353553J-353553D01*
G01*
X180479748Y-65111723D02*
G75*
G02*
X181186856Y-65111722I353554J-353553D01*
G01*
X166302257Y-48812912D02*
G75*
G02*
X164180937Y-48812912I-1060660J1060660D01*
G01*
X179772641Y-62283296D02*
G75*
G02*
X177651321Y-62283296I-1060660J1060660D01*
G01*
X180479748Y-38170955D02*
G75*
G02*
X181186856Y-38170954I353554J-353553D01*
G01*
X179772641Y-35342528D02*
G75*
G02*
X177651321Y-35342528I-1060660J1060661D01*
G01*
M02*
