G04 #@! TF.GenerationSoftware,KiCad,Pcbnew,8.0.5*
G04 #@! TF.CreationDate,2024-09-30T06:21:52+09:00*
G04 #@! TF.ProjectId,SandyLP_Plate_Base_LR,53616e64-794c-4505-9f50-6c6174655f42,v.0*
G04 #@! TF.SameCoordinates,Original*
G04 #@! TF.FileFunction,AssemblyDrawing,Top*
%FSLAX46Y46*%
G04 Gerber Fmt 4.6, Leading zero omitted, Abs format (unit mm)*
G04 Created by KiCad (PCBNEW 8.0.5) date 2024-09-30 06:21:52*
%MOMM*%
%LPD*%
G01*
G04 APERTURE LIST*
%ADD10C,0.150000*%
%ADD11C,0.120000*%
G04 APERTURE END LIST*
D10*
X304257021Y-81277691D02*
X304257021Y-80277691D01*
X304257021Y-80277691D02*
X304495116Y-80277691D01*
X304495116Y-80277691D02*
X304637973Y-80325310D01*
X304637973Y-80325310D02*
X304733211Y-80420548D01*
X304733211Y-80420548D02*
X304780830Y-80515786D01*
X304780830Y-80515786D02*
X304828449Y-80706262D01*
X304828449Y-80706262D02*
X304828449Y-80849119D01*
X304828449Y-80849119D02*
X304780830Y-81039595D01*
X304780830Y-81039595D02*
X304733211Y-81134833D01*
X304733211Y-81134833D02*
X304637973Y-81230072D01*
X304637973Y-81230072D02*
X304495116Y-81277691D01*
X304495116Y-81277691D02*
X304257021Y-81277691D01*
X305447497Y-80277691D02*
X305637973Y-80277691D01*
X305637973Y-80277691D02*
X305733211Y-80325310D01*
X305733211Y-80325310D02*
X305828449Y-80420548D01*
X305828449Y-80420548D02*
X305876068Y-80611024D01*
X305876068Y-80611024D02*
X305876068Y-80944357D01*
X305876068Y-80944357D02*
X305828449Y-81134833D01*
X305828449Y-81134833D02*
X305733211Y-81230072D01*
X305733211Y-81230072D02*
X305637973Y-81277691D01*
X305637973Y-81277691D02*
X305447497Y-81277691D01*
X305447497Y-81277691D02*
X305352259Y-81230072D01*
X305352259Y-81230072D02*
X305257021Y-81134833D01*
X305257021Y-81134833D02*
X305209402Y-80944357D01*
X305209402Y-80944357D02*
X305209402Y-80611024D01*
X305209402Y-80611024D02*
X305257021Y-80420548D01*
X305257021Y-80420548D02*
X305352259Y-80325310D01*
X305352259Y-80325310D02*
X305447497Y-80277691D01*
X307066545Y-81277691D02*
X307066545Y-80277691D01*
X307066545Y-80277691D02*
X307637973Y-81277691D01*
X307637973Y-81277691D02*
X307637973Y-80277691D01*
X308304640Y-80277691D02*
X308495116Y-80277691D01*
X308495116Y-80277691D02*
X308590354Y-80325310D01*
X308590354Y-80325310D02*
X308685592Y-80420548D01*
X308685592Y-80420548D02*
X308733211Y-80611024D01*
X308733211Y-80611024D02*
X308733211Y-80944357D01*
X308733211Y-80944357D02*
X308685592Y-81134833D01*
X308685592Y-81134833D02*
X308590354Y-81230072D01*
X308590354Y-81230072D02*
X308495116Y-81277691D01*
X308495116Y-81277691D02*
X308304640Y-81277691D01*
X308304640Y-81277691D02*
X308209402Y-81230072D01*
X308209402Y-81230072D02*
X308114164Y-81134833D01*
X308114164Y-81134833D02*
X308066545Y-80944357D01*
X308066545Y-80944357D02*
X308066545Y-80611024D01*
X308066545Y-80611024D02*
X308114164Y-80420548D01*
X308114164Y-80420548D02*
X308209402Y-80325310D01*
X308209402Y-80325310D02*
X308304640Y-80277691D01*
X309018926Y-80277691D02*
X309590354Y-80277691D01*
X309304640Y-81277691D02*
X309304640Y-80277691D01*
X311114164Y-81277691D02*
X311114164Y-80277691D01*
X311114164Y-81230072D02*
X311018926Y-81277691D01*
X311018926Y-81277691D02*
X310828450Y-81277691D01*
X310828450Y-81277691D02*
X310733212Y-81230072D01*
X310733212Y-81230072D02*
X310685593Y-81182452D01*
X310685593Y-81182452D02*
X310637974Y-81087214D01*
X310637974Y-81087214D02*
X310637974Y-80801500D01*
X310637974Y-80801500D02*
X310685593Y-80706262D01*
X310685593Y-80706262D02*
X310733212Y-80658643D01*
X310733212Y-80658643D02*
X310828450Y-80611024D01*
X310828450Y-80611024D02*
X311018926Y-80611024D01*
X311018926Y-80611024D02*
X311114164Y-80658643D01*
X311590355Y-81277691D02*
X311590355Y-80611024D01*
X311590355Y-80801500D02*
X311637974Y-80706262D01*
X311637974Y-80706262D02*
X311685593Y-80658643D01*
X311685593Y-80658643D02*
X311780831Y-80611024D01*
X311780831Y-80611024D02*
X311876069Y-80611024D01*
X312209403Y-81277691D02*
X312209403Y-80611024D01*
X312209403Y-80277691D02*
X312161784Y-80325310D01*
X312161784Y-80325310D02*
X312209403Y-80372929D01*
X312209403Y-80372929D02*
X312257022Y-80325310D01*
X312257022Y-80325310D02*
X312209403Y-80277691D01*
X312209403Y-80277691D02*
X312209403Y-80372929D01*
X312828450Y-81277691D02*
X312733212Y-81230072D01*
X312733212Y-81230072D02*
X312685593Y-81134833D01*
X312685593Y-81134833D02*
X312685593Y-80277691D01*
X313352260Y-81277691D02*
X313257022Y-81230072D01*
X313257022Y-81230072D02*
X313209403Y-81134833D01*
X313209403Y-81134833D02*
X313209403Y-80277691D01*
X314923689Y-81230072D02*
X314828451Y-81277691D01*
X314828451Y-81277691D02*
X314637975Y-81277691D01*
X314637975Y-81277691D02*
X314542737Y-81230072D01*
X314542737Y-81230072D02*
X314495118Y-81182452D01*
X314495118Y-81182452D02*
X314447499Y-81087214D01*
X314447499Y-81087214D02*
X314447499Y-80801500D01*
X314447499Y-80801500D02*
X314495118Y-80706262D01*
X314495118Y-80706262D02*
X314542737Y-80658643D01*
X314542737Y-80658643D02*
X314637975Y-80611024D01*
X314637975Y-80611024D02*
X314828451Y-80611024D01*
X314828451Y-80611024D02*
X314923689Y-80658643D01*
X315352261Y-81277691D02*
X315352261Y-80611024D01*
X315352261Y-80277691D02*
X315304642Y-80325310D01*
X315304642Y-80325310D02*
X315352261Y-80372929D01*
X315352261Y-80372929D02*
X315399880Y-80325310D01*
X315399880Y-80325310D02*
X315352261Y-80277691D01*
X315352261Y-80277691D02*
X315352261Y-80372929D01*
X315828451Y-81277691D02*
X315828451Y-80611024D01*
X315828451Y-80801500D02*
X315876070Y-80706262D01*
X315876070Y-80706262D02*
X315923689Y-80658643D01*
X315923689Y-80658643D02*
X316018927Y-80611024D01*
X316018927Y-80611024D02*
X316114165Y-80611024D01*
X316876070Y-81230072D02*
X316780832Y-81277691D01*
X316780832Y-81277691D02*
X316590356Y-81277691D01*
X316590356Y-81277691D02*
X316495118Y-81230072D01*
X316495118Y-81230072D02*
X316447499Y-81182452D01*
X316447499Y-81182452D02*
X316399880Y-81087214D01*
X316399880Y-81087214D02*
X316399880Y-80801500D01*
X316399880Y-80801500D02*
X316447499Y-80706262D01*
X316447499Y-80706262D02*
X316495118Y-80658643D01*
X316495118Y-80658643D02*
X316590356Y-80611024D01*
X316590356Y-80611024D02*
X316780832Y-80611024D01*
X316780832Y-80611024D02*
X316876070Y-80658643D01*
X317447499Y-81277691D02*
X317352261Y-81230072D01*
X317352261Y-81230072D02*
X317304642Y-81134833D01*
X317304642Y-81134833D02*
X317304642Y-80277691D01*
X318209404Y-81230072D02*
X318114166Y-81277691D01*
X318114166Y-81277691D02*
X317923690Y-81277691D01*
X317923690Y-81277691D02*
X317828452Y-81230072D01*
X317828452Y-81230072D02*
X317780833Y-81134833D01*
X317780833Y-81134833D02*
X317780833Y-80753881D01*
X317780833Y-80753881D02*
X317828452Y-80658643D01*
X317828452Y-80658643D02*
X317923690Y-80611024D01*
X317923690Y-80611024D02*
X318114166Y-80611024D01*
X318114166Y-80611024D02*
X318209404Y-80658643D01*
X318209404Y-80658643D02*
X318257023Y-80753881D01*
X318257023Y-80753881D02*
X318257023Y-80849119D01*
X318257023Y-80849119D02*
X317780833Y-80944357D01*
X318637976Y-81230072D02*
X318733214Y-81277691D01*
X318733214Y-81277691D02*
X318923690Y-81277691D01*
X318923690Y-81277691D02*
X319018928Y-81230072D01*
X319018928Y-81230072D02*
X319066547Y-81134833D01*
X319066547Y-81134833D02*
X319066547Y-81087214D01*
X319066547Y-81087214D02*
X319018928Y-80991976D01*
X319018928Y-80991976D02*
X318923690Y-80944357D01*
X318923690Y-80944357D02*
X318780833Y-80944357D01*
X318780833Y-80944357D02*
X318685595Y-80896738D01*
X318685595Y-80896738D02*
X318637976Y-80801500D01*
X318637976Y-80801500D02*
X318637976Y-80753881D01*
X318637976Y-80753881D02*
X318685595Y-80658643D01*
X318685595Y-80658643D02*
X318780833Y-80611024D01*
X318780833Y-80611024D02*
X318923690Y-80611024D01*
X318923690Y-80611024D02*
X319018928Y-80658643D01*
X319495119Y-81182452D02*
X319542738Y-81230072D01*
X319542738Y-81230072D02*
X319495119Y-81277691D01*
X319495119Y-81277691D02*
X319447500Y-81230072D01*
X319447500Y-81230072D02*
X319495119Y-81182452D01*
X319495119Y-81182452D02*
X319495119Y-81277691D01*
X304114164Y-81887635D02*
X304685592Y-81887635D01*
X304399878Y-82887635D02*
X304399878Y-81887635D01*
X305018926Y-82887635D02*
X305018926Y-81887635D01*
X305447497Y-82887635D02*
X305447497Y-82363825D01*
X305447497Y-82363825D02*
X305399878Y-82268587D01*
X305399878Y-82268587D02*
X305304640Y-82220968D01*
X305304640Y-82220968D02*
X305161783Y-82220968D01*
X305161783Y-82220968D02*
X305066545Y-82268587D01*
X305066545Y-82268587D02*
X305018926Y-82316206D01*
X306066545Y-82887635D02*
X305971307Y-82840016D01*
X305971307Y-82840016D02*
X305923688Y-82792396D01*
X305923688Y-82792396D02*
X305876069Y-82697158D01*
X305876069Y-82697158D02*
X305876069Y-82411444D01*
X305876069Y-82411444D02*
X305923688Y-82316206D01*
X305923688Y-82316206D02*
X305971307Y-82268587D01*
X305971307Y-82268587D02*
X306066545Y-82220968D01*
X306066545Y-82220968D02*
X306209402Y-82220968D01*
X306209402Y-82220968D02*
X306304640Y-82268587D01*
X306304640Y-82268587D02*
X306352259Y-82316206D01*
X306352259Y-82316206D02*
X306399878Y-82411444D01*
X306399878Y-82411444D02*
X306399878Y-82697158D01*
X306399878Y-82697158D02*
X306352259Y-82792396D01*
X306352259Y-82792396D02*
X306304640Y-82840016D01*
X306304640Y-82840016D02*
X306209402Y-82887635D01*
X306209402Y-82887635D02*
X306066545Y-82887635D01*
X306780831Y-82840016D02*
X306876069Y-82887635D01*
X306876069Y-82887635D02*
X307066545Y-82887635D01*
X307066545Y-82887635D02*
X307161783Y-82840016D01*
X307161783Y-82840016D02*
X307209402Y-82744777D01*
X307209402Y-82744777D02*
X307209402Y-82697158D01*
X307209402Y-82697158D02*
X307161783Y-82601920D01*
X307161783Y-82601920D02*
X307066545Y-82554301D01*
X307066545Y-82554301D02*
X306923688Y-82554301D01*
X306923688Y-82554301D02*
X306828450Y-82506682D01*
X306828450Y-82506682D02*
X306780831Y-82411444D01*
X306780831Y-82411444D02*
X306780831Y-82363825D01*
X306780831Y-82363825D02*
X306828450Y-82268587D01*
X306828450Y-82268587D02*
X306923688Y-82220968D01*
X306923688Y-82220968D02*
X307066545Y-82220968D01*
X307066545Y-82220968D02*
X307161783Y-82268587D01*
X308018926Y-82840016D02*
X307923688Y-82887635D01*
X307923688Y-82887635D02*
X307733212Y-82887635D01*
X307733212Y-82887635D02*
X307637974Y-82840016D01*
X307637974Y-82840016D02*
X307590355Y-82744777D01*
X307590355Y-82744777D02*
X307590355Y-82363825D01*
X307590355Y-82363825D02*
X307637974Y-82268587D01*
X307637974Y-82268587D02*
X307733212Y-82220968D01*
X307733212Y-82220968D02*
X307923688Y-82220968D01*
X307923688Y-82220968D02*
X308018926Y-82268587D01*
X308018926Y-82268587D02*
X308066545Y-82363825D01*
X308066545Y-82363825D02*
X308066545Y-82459063D01*
X308066545Y-82459063D02*
X307590355Y-82554301D01*
X309685593Y-82887635D02*
X309685593Y-82363825D01*
X309685593Y-82363825D02*
X309637974Y-82268587D01*
X309637974Y-82268587D02*
X309542736Y-82220968D01*
X309542736Y-82220968D02*
X309352260Y-82220968D01*
X309352260Y-82220968D02*
X309257022Y-82268587D01*
X309685593Y-82840016D02*
X309590355Y-82887635D01*
X309590355Y-82887635D02*
X309352260Y-82887635D01*
X309352260Y-82887635D02*
X309257022Y-82840016D01*
X309257022Y-82840016D02*
X309209403Y-82744777D01*
X309209403Y-82744777D02*
X309209403Y-82649539D01*
X309209403Y-82649539D02*
X309257022Y-82554301D01*
X309257022Y-82554301D02*
X309352260Y-82506682D01*
X309352260Y-82506682D02*
X309590355Y-82506682D01*
X309590355Y-82506682D02*
X309685593Y-82459063D01*
X310161784Y-82887635D02*
X310161784Y-82220968D01*
X310161784Y-82411444D02*
X310209403Y-82316206D01*
X310209403Y-82316206D02*
X310257022Y-82268587D01*
X310257022Y-82268587D02*
X310352260Y-82220968D01*
X310352260Y-82220968D02*
X310447498Y-82220968D01*
X311161784Y-82840016D02*
X311066546Y-82887635D01*
X311066546Y-82887635D02*
X310876070Y-82887635D01*
X310876070Y-82887635D02*
X310780832Y-82840016D01*
X310780832Y-82840016D02*
X310733213Y-82744777D01*
X310733213Y-82744777D02*
X310733213Y-82363825D01*
X310733213Y-82363825D02*
X310780832Y-82268587D01*
X310780832Y-82268587D02*
X310876070Y-82220968D01*
X310876070Y-82220968D02*
X311066546Y-82220968D01*
X311066546Y-82220968D02*
X311161784Y-82268587D01*
X311161784Y-82268587D02*
X311209403Y-82363825D01*
X311209403Y-82363825D02*
X311209403Y-82459063D01*
X311209403Y-82459063D02*
X310733213Y-82554301D01*
X312399880Y-82887635D02*
X312399880Y-81887635D01*
X312399880Y-81887635D02*
X312971308Y-82887635D01*
X312971308Y-82887635D02*
X312971308Y-81887635D01*
X313637975Y-81887635D02*
X313828451Y-81887635D01*
X313828451Y-81887635D02*
X313923689Y-81935254D01*
X313923689Y-81935254D02*
X314018927Y-82030492D01*
X314018927Y-82030492D02*
X314066546Y-82220968D01*
X314066546Y-82220968D02*
X314066546Y-82554301D01*
X314066546Y-82554301D02*
X314018927Y-82744777D01*
X314018927Y-82744777D02*
X313923689Y-82840016D01*
X313923689Y-82840016D02*
X313828451Y-82887635D01*
X313828451Y-82887635D02*
X313637975Y-82887635D01*
X313637975Y-82887635D02*
X313542737Y-82840016D01*
X313542737Y-82840016D02*
X313447499Y-82744777D01*
X313447499Y-82744777D02*
X313399880Y-82554301D01*
X313399880Y-82554301D02*
X313399880Y-82220968D01*
X313399880Y-82220968D02*
X313447499Y-82030492D01*
X313447499Y-82030492D02*
X313542737Y-81935254D01*
X313542737Y-81935254D02*
X313637975Y-81887635D01*
X314352261Y-81887635D02*
X314923689Y-81887635D01*
X314637975Y-82887635D02*
X314637975Y-81887635D01*
X316018928Y-82887635D02*
X316018928Y-81887635D01*
X316447499Y-82887635D02*
X316447499Y-82363825D01*
X316447499Y-82363825D02*
X316399880Y-82268587D01*
X316399880Y-82268587D02*
X316304642Y-82220968D01*
X316304642Y-82220968D02*
X316161785Y-82220968D01*
X316161785Y-82220968D02*
X316066547Y-82268587D01*
X316066547Y-82268587D02*
X316018928Y-82316206D01*
X317066547Y-82887635D02*
X316971309Y-82840016D01*
X316971309Y-82840016D02*
X316923690Y-82792396D01*
X316923690Y-82792396D02*
X316876071Y-82697158D01*
X316876071Y-82697158D02*
X316876071Y-82411444D01*
X316876071Y-82411444D02*
X316923690Y-82316206D01*
X316923690Y-82316206D02*
X316971309Y-82268587D01*
X316971309Y-82268587D02*
X317066547Y-82220968D01*
X317066547Y-82220968D02*
X317209404Y-82220968D01*
X317209404Y-82220968D02*
X317304642Y-82268587D01*
X317304642Y-82268587D02*
X317352261Y-82316206D01*
X317352261Y-82316206D02*
X317399880Y-82411444D01*
X317399880Y-82411444D02*
X317399880Y-82697158D01*
X317399880Y-82697158D02*
X317352261Y-82792396D01*
X317352261Y-82792396D02*
X317304642Y-82840016D01*
X317304642Y-82840016D02*
X317209404Y-82887635D01*
X317209404Y-82887635D02*
X317066547Y-82887635D01*
X317971309Y-82887635D02*
X317876071Y-82840016D01*
X317876071Y-82840016D02*
X317828452Y-82744777D01*
X317828452Y-82744777D02*
X317828452Y-81887635D01*
X318733214Y-82840016D02*
X318637976Y-82887635D01*
X318637976Y-82887635D02*
X318447500Y-82887635D01*
X318447500Y-82887635D02*
X318352262Y-82840016D01*
X318352262Y-82840016D02*
X318304643Y-82744777D01*
X318304643Y-82744777D02*
X318304643Y-82363825D01*
X318304643Y-82363825D02*
X318352262Y-82268587D01*
X318352262Y-82268587D02*
X318447500Y-82220968D01*
X318447500Y-82220968D02*
X318637976Y-82220968D01*
X318637976Y-82220968D02*
X318733214Y-82268587D01*
X318733214Y-82268587D02*
X318780833Y-82363825D01*
X318780833Y-82363825D02*
X318780833Y-82459063D01*
X318780833Y-82459063D02*
X318304643Y-82554301D01*
X319161786Y-82840016D02*
X319257024Y-82887635D01*
X319257024Y-82887635D02*
X319447500Y-82887635D01*
X319447500Y-82887635D02*
X319542738Y-82840016D01*
X319542738Y-82840016D02*
X319590357Y-82744777D01*
X319590357Y-82744777D02*
X319590357Y-82697158D01*
X319590357Y-82697158D02*
X319542738Y-82601920D01*
X319542738Y-82601920D02*
X319447500Y-82554301D01*
X319447500Y-82554301D02*
X319304643Y-82554301D01*
X319304643Y-82554301D02*
X319209405Y-82506682D01*
X319209405Y-82506682D02*
X319161786Y-82411444D01*
X319161786Y-82411444D02*
X319161786Y-82363825D01*
X319161786Y-82363825D02*
X319209405Y-82268587D01*
X319209405Y-82268587D02*
X319304643Y-82220968D01*
X319304643Y-82220968D02*
X319447500Y-82220968D01*
X319447500Y-82220968D02*
X319542738Y-82268587D01*
X320018929Y-82792396D02*
X320066548Y-82840016D01*
X320066548Y-82840016D02*
X320018929Y-82887635D01*
X320018929Y-82887635D02*
X319971310Y-82840016D01*
X319971310Y-82840016D02*
X320018929Y-82792396D01*
X320018929Y-82792396D02*
X320018929Y-82887635D01*
X304257021Y-86107523D02*
X304257021Y-85107523D01*
X304257021Y-85107523D02*
X304828449Y-86107523D01*
X304828449Y-86107523D02*
X304828449Y-85107523D01*
X305447497Y-86107523D02*
X305352259Y-86059904D01*
X305352259Y-86059904D02*
X305304640Y-86012284D01*
X305304640Y-86012284D02*
X305257021Y-85917046D01*
X305257021Y-85917046D02*
X305257021Y-85631332D01*
X305257021Y-85631332D02*
X305304640Y-85536094D01*
X305304640Y-85536094D02*
X305352259Y-85488475D01*
X305352259Y-85488475D02*
X305447497Y-85440856D01*
X305447497Y-85440856D02*
X305590354Y-85440856D01*
X305590354Y-85440856D02*
X305685592Y-85488475D01*
X305685592Y-85488475D02*
X305733211Y-85536094D01*
X305733211Y-85536094D02*
X305780830Y-85631332D01*
X305780830Y-85631332D02*
X305780830Y-85917046D01*
X305780830Y-85917046D02*
X305733211Y-86012284D01*
X305733211Y-86012284D02*
X305685592Y-86059904D01*
X305685592Y-86059904D02*
X305590354Y-86107523D01*
X305590354Y-86107523D02*
X305447497Y-86107523D01*
X307304640Y-85583713D02*
X306971307Y-85583713D01*
X306971307Y-86107523D02*
X306971307Y-85107523D01*
X306971307Y-85107523D02*
X307447497Y-85107523D01*
X307828450Y-86012284D02*
X307876069Y-86059904D01*
X307876069Y-86059904D02*
X307828450Y-86107523D01*
X307828450Y-86107523D02*
X307780831Y-86059904D01*
X307780831Y-86059904D02*
X307828450Y-86012284D01*
X307828450Y-86012284D02*
X307828450Y-86107523D01*
X308876068Y-86012284D02*
X308828449Y-86059904D01*
X308828449Y-86059904D02*
X308685592Y-86107523D01*
X308685592Y-86107523D02*
X308590354Y-86107523D01*
X308590354Y-86107523D02*
X308447497Y-86059904D01*
X308447497Y-86059904D02*
X308352259Y-85964665D01*
X308352259Y-85964665D02*
X308304640Y-85869427D01*
X308304640Y-85869427D02*
X308257021Y-85678951D01*
X308257021Y-85678951D02*
X308257021Y-85536094D01*
X308257021Y-85536094D02*
X308304640Y-85345618D01*
X308304640Y-85345618D02*
X308352259Y-85250380D01*
X308352259Y-85250380D02*
X308447497Y-85155142D01*
X308447497Y-85155142D02*
X308590354Y-85107523D01*
X308590354Y-85107523D02*
X308685592Y-85107523D01*
X308685592Y-85107523D02*
X308828449Y-85155142D01*
X308828449Y-85155142D02*
X308876068Y-85202761D01*
X309733211Y-85440856D02*
X309733211Y-86107523D01*
X309304640Y-85440856D02*
X309304640Y-85964665D01*
X309304640Y-85964665D02*
X309352259Y-86059904D01*
X309352259Y-86059904D02*
X309447497Y-86107523D01*
X309447497Y-86107523D02*
X309590354Y-86107523D01*
X309590354Y-86107523D02*
X309685592Y-86059904D01*
X309685592Y-86059904D02*
X309733211Y-86012284D01*
X310257021Y-86059904D02*
X310257021Y-86107523D01*
X310257021Y-86107523D02*
X310209402Y-86202761D01*
X310209402Y-86202761D02*
X310161783Y-86250380D01*
X311780830Y-85583713D02*
X311923687Y-85631332D01*
X311923687Y-85631332D02*
X311971306Y-85678951D01*
X311971306Y-85678951D02*
X312018925Y-85774189D01*
X312018925Y-85774189D02*
X312018925Y-85917046D01*
X312018925Y-85917046D02*
X311971306Y-86012284D01*
X311971306Y-86012284D02*
X311923687Y-86059904D01*
X311923687Y-86059904D02*
X311828449Y-86107523D01*
X311828449Y-86107523D02*
X311447497Y-86107523D01*
X311447497Y-86107523D02*
X311447497Y-85107523D01*
X311447497Y-85107523D02*
X311780830Y-85107523D01*
X311780830Y-85107523D02*
X311876068Y-85155142D01*
X311876068Y-85155142D02*
X311923687Y-85202761D01*
X311923687Y-85202761D02*
X311971306Y-85297999D01*
X311971306Y-85297999D02*
X311971306Y-85393237D01*
X311971306Y-85393237D02*
X311923687Y-85488475D01*
X311923687Y-85488475D02*
X311876068Y-85536094D01*
X311876068Y-85536094D02*
X311780830Y-85583713D01*
X311780830Y-85583713D02*
X311447497Y-85583713D01*
X312495116Y-86059904D02*
X312495116Y-86107523D01*
X312495116Y-86107523D02*
X312447497Y-86202761D01*
X312447497Y-86202761D02*
X312399878Y-86250380D01*
X313495115Y-86012284D02*
X313447496Y-86059904D01*
X313447496Y-86059904D02*
X313304639Y-86107523D01*
X313304639Y-86107523D02*
X313209401Y-86107523D01*
X313209401Y-86107523D02*
X313066544Y-86059904D01*
X313066544Y-86059904D02*
X312971306Y-85964665D01*
X312971306Y-85964665D02*
X312923687Y-85869427D01*
X312923687Y-85869427D02*
X312876068Y-85678951D01*
X312876068Y-85678951D02*
X312876068Y-85536094D01*
X312876068Y-85536094D02*
X312923687Y-85345618D01*
X312923687Y-85345618D02*
X312971306Y-85250380D01*
X312971306Y-85250380D02*
X313066544Y-85155142D01*
X313066544Y-85155142D02*
X313209401Y-85107523D01*
X313209401Y-85107523D02*
X313304639Y-85107523D01*
X313304639Y-85107523D02*
X313447496Y-85155142D01*
X313447496Y-85155142D02*
X313495115Y-85202761D01*
X314352258Y-85440856D02*
X314352258Y-86107523D01*
X313923687Y-85440856D02*
X313923687Y-85964665D01*
X313923687Y-85964665D02*
X313971306Y-86059904D01*
X313971306Y-86059904D02*
X314066544Y-86107523D01*
X314066544Y-86107523D02*
X314209401Y-86107523D01*
X314209401Y-86107523D02*
X314304639Y-86059904D01*
X314304639Y-86059904D02*
X314352258Y-86012284D01*
X316399878Y-86107523D02*
X316352259Y-86107523D01*
X316352259Y-86107523D02*
X316257020Y-86059904D01*
X316257020Y-86059904D02*
X316114163Y-85917046D01*
X316114163Y-85917046D02*
X315876068Y-85631332D01*
X315876068Y-85631332D02*
X315780830Y-85488475D01*
X315780830Y-85488475D02*
X315733211Y-85345618D01*
X315733211Y-85345618D02*
X315733211Y-85250380D01*
X315733211Y-85250380D02*
X315780830Y-85155142D01*
X315780830Y-85155142D02*
X315876068Y-85107523D01*
X315876068Y-85107523D02*
X315923687Y-85107523D01*
X315923687Y-85107523D02*
X316018925Y-85155142D01*
X316018925Y-85155142D02*
X316066544Y-85250380D01*
X316066544Y-85250380D02*
X316066544Y-85297999D01*
X316066544Y-85297999D02*
X316018925Y-85393237D01*
X316018925Y-85393237D02*
X315971306Y-85440856D01*
X315971306Y-85440856D02*
X315685592Y-85631332D01*
X315685592Y-85631332D02*
X315637973Y-85678951D01*
X315637973Y-85678951D02*
X315590354Y-85774189D01*
X315590354Y-85774189D02*
X315590354Y-85917046D01*
X315590354Y-85917046D02*
X315637973Y-86012284D01*
X315637973Y-86012284D02*
X315685592Y-86059904D01*
X315685592Y-86059904D02*
X315780830Y-86107523D01*
X315780830Y-86107523D02*
X315923687Y-86107523D01*
X315923687Y-86107523D02*
X316018925Y-86059904D01*
X316018925Y-86059904D02*
X316066544Y-86012284D01*
X316066544Y-86012284D02*
X316209401Y-85821808D01*
X316209401Y-85821808D02*
X316257020Y-85678951D01*
X316257020Y-85678951D02*
X316257020Y-85583713D01*
X317923687Y-85583713D02*
X317590354Y-85583713D01*
X317590354Y-86107523D02*
X317590354Y-85107523D01*
X317590354Y-85107523D02*
X318066544Y-85107523D01*
X318447497Y-86012284D02*
X318495116Y-86059904D01*
X318495116Y-86059904D02*
X318447497Y-86107523D01*
X318447497Y-86107523D02*
X318399878Y-86059904D01*
X318399878Y-86059904D02*
X318447497Y-86012284D01*
X318447497Y-86012284D02*
X318447497Y-86107523D01*
X318923687Y-86107523D02*
X318923687Y-85107523D01*
X318923687Y-85107523D02*
X319257020Y-85821808D01*
X319257020Y-85821808D02*
X319590353Y-85107523D01*
X319590353Y-85107523D02*
X319590353Y-86107523D01*
X320495115Y-86107523D02*
X320495115Y-85583713D01*
X320495115Y-85583713D02*
X320447496Y-85488475D01*
X320447496Y-85488475D02*
X320352258Y-85440856D01*
X320352258Y-85440856D02*
X320161782Y-85440856D01*
X320161782Y-85440856D02*
X320066544Y-85488475D01*
X320495115Y-86059904D02*
X320399877Y-86107523D01*
X320399877Y-86107523D02*
X320161782Y-86107523D01*
X320161782Y-86107523D02*
X320066544Y-86059904D01*
X320066544Y-86059904D02*
X320018925Y-85964665D01*
X320018925Y-85964665D02*
X320018925Y-85869427D01*
X320018925Y-85869427D02*
X320066544Y-85774189D01*
X320066544Y-85774189D02*
X320161782Y-85726570D01*
X320161782Y-85726570D02*
X320399877Y-85726570D01*
X320399877Y-85726570D02*
X320495115Y-85678951D01*
X320923687Y-86059904D02*
X321018925Y-86107523D01*
X321018925Y-86107523D02*
X321209401Y-86107523D01*
X321209401Y-86107523D02*
X321304639Y-86059904D01*
X321304639Y-86059904D02*
X321352258Y-85964665D01*
X321352258Y-85964665D02*
X321352258Y-85917046D01*
X321352258Y-85917046D02*
X321304639Y-85821808D01*
X321304639Y-85821808D02*
X321209401Y-85774189D01*
X321209401Y-85774189D02*
X321066544Y-85774189D01*
X321066544Y-85774189D02*
X320971306Y-85726570D01*
X320971306Y-85726570D02*
X320923687Y-85631332D01*
X320923687Y-85631332D02*
X320923687Y-85583713D01*
X320923687Y-85583713D02*
X320971306Y-85488475D01*
X320971306Y-85488475D02*
X321066544Y-85440856D01*
X321066544Y-85440856D02*
X321209401Y-85440856D01*
X321209401Y-85440856D02*
X321304639Y-85488475D01*
X321780830Y-86107523D02*
X321780830Y-85107523D01*
X321876068Y-85726570D02*
X322161782Y-86107523D01*
X322161782Y-85440856D02*
X321780830Y-85821808D01*
X322637973Y-86059904D02*
X322637973Y-86107523D01*
X322637973Y-86107523D02*
X322590354Y-86202761D01*
X322590354Y-86202761D02*
X322542735Y-86250380D01*
X324161782Y-85583713D02*
X324304639Y-85631332D01*
X324304639Y-85631332D02*
X324352258Y-85678951D01*
X324352258Y-85678951D02*
X324399877Y-85774189D01*
X324399877Y-85774189D02*
X324399877Y-85917046D01*
X324399877Y-85917046D02*
X324352258Y-86012284D01*
X324352258Y-86012284D02*
X324304639Y-86059904D01*
X324304639Y-86059904D02*
X324209401Y-86107523D01*
X324209401Y-86107523D02*
X323828449Y-86107523D01*
X323828449Y-86107523D02*
X323828449Y-85107523D01*
X323828449Y-85107523D02*
X324161782Y-85107523D01*
X324161782Y-85107523D02*
X324257020Y-85155142D01*
X324257020Y-85155142D02*
X324304639Y-85202761D01*
X324304639Y-85202761D02*
X324352258Y-85297999D01*
X324352258Y-85297999D02*
X324352258Y-85393237D01*
X324352258Y-85393237D02*
X324304639Y-85488475D01*
X324304639Y-85488475D02*
X324257020Y-85536094D01*
X324257020Y-85536094D02*
X324161782Y-85583713D01*
X324161782Y-85583713D02*
X323828449Y-85583713D01*
X324828449Y-86012284D02*
X324876068Y-86059904D01*
X324876068Y-86059904D02*
X324828449Y-86107523D01*
X324828449Y-86107523D02*
X324780830Y-86059904D01*
X324780830Y-86059904D02*
X324828449Y-86012284D01*
X324828449Y-86012284D02*
X324828449Y-86107523D01*
X325304639Y-86107523D02*
X325304639Y-85107523D01*
X325304639Y-85107523D02*
X325637972Y-85821808D01*
X325637972Y-85821808D02*
X325971305Y-85107523D01*
X325971305Y-85107523D02*
X325971305Y-86107523D01*
X326876067Y-86107523D02*
X326876067Y-85583713D01*
X326876067Y-85583713D02*
X326828448Y-85488475D01*
X326828448Y-85488475D02*
X326733210Y-85440856D01*
X326733210Y-85440856D02*
X326542734Y-85440856D01*
X326542734Y-85440856D02*
X326447496Y-85488475D01*
X326876067Y-86059904D02*
X326780829Y-86107523D01*
X326780829Y-86107523D02*
X326542734Y-86107523D01*
X326542734Y-86107523D02*
X326447496Y-86059904D01*
X326447496Y-86059904D02*
X326399877Y-85964665D01*
X326399877Y-85964665D02*
X326399877Y-85869427D01*
X326399877Y-85869427D02*
X326447496Y-85774189D01*
X326447496Y-85774189D02*
X326542734Y-85726570D01*
X326542734Y-85726570D02*
X326780829Y-85726570D01*
X326780829Y-85726570D02*
X326876067Y-85678951D01*
X327304639Y-86059904D02*
X327399877Y-86107523D01*
X327399877Y-86107523D02*
X327590353Y-86107523D01*
X327590353Y-86107523D02*
X327685591Y-86059904D01*
X327685591Y-86059904D02*
X327733210Y-85964665D01*
X327733210Y-85964665D02*
X327733210Y-85917046D01*
X327733210Y-85917046D02*
X327685591Y-85821808D01*
X327685591Y-85821808D02*
X327590353Y-85774189D01*
X327590353Y-85774189D02*
X327447496Y-85774189D01*
X327447496Y-85774189D02*
X327352258Y-85726570D01*
X327352258Y-85726570D02*
X327304639Y-85631332D01*
X327304639Y-85631332D02*
X327304639Y-85583713D01*
X327304639Y-85583713D02*
X327352258Y-85488475D01*
X327352258Y-85488475D02*
X327447496Y-85440856D01*
X327447496Y-85440856D02*
X327590353Y-85440856D01*
X327590353Y-85440856D02*
X327685591Y-85488475D01*
X328161782Y-86107523D02*
X328161782Y-85107523D01*
X328257020Y-85726570D02*
X328542734Y-86107523D01*
X328542734Y-85440856D02*
X328161782Y-85821808D01*
X304257021Y-87336514D02*
X305018926Y-87336514D01*
X305495116Y-87336514D02*
X306257021Y-87336514D01*
X306733211Y-87050800D02*
X307495116Y-87336514D01*
X307495116Y-87336514D02*
X306733211Y-87622228D01*
X309066544Y-87193657D02*
X309209401Y-87241276D01*
X309209401Y-87241276D02*
X309257020Y-87288895D01*
X309257020Y-87288895D02*
X309304639Y-87384133D01*
X309304639Y-87384133D02*
X309304639Y-87526990D01*
X309304639Y-87526990D02*
X309257020Y-87622228D01*
X309257020Y-87622228D02*
X309209401Y-87669848D01*
X309209401Y-87669848D02*
X309114163Y-87717467D01*
X309114163Y-87717467D02*
X308733211Y-87717467D01*
X308733211Y-87717467D02*
X308733211Y-86717467D01*
X308733211Y-86717467D02*
X309066544Y-86717467D01*
X309066544Y-86717467D02*
X309161782Y-86765086D01*
X309161782Y-86765086D02*
X309209401Y-86812705D01*
X309209401Y-86812705D02*
X309257020Y-86907943D01*
X309257020Y-86907943D02*
X309257020Y-87003181D01*
X309257020Y-87003181D02*
X309209401Y-87098419D01*
X309209401Y-87098419D02*
X309161782Y-87146038D01*
X309161782Y-87146038D02*
X309066544Y-87193657D01*
X309066544Y-87193657D02*
X308733211Y-87193657D01*
X310161782Y-87717467D02*
X310161782Y-87193657D01*
X310161782Y-87193657D02*
X310114163Y-87098419D01*
X310114163Y-87098419D02*
X310018925Y-87050800D01*
X310018925Y-87050800D02*
X309828449Y-87050800D01*
X309828449Y-87050800D02*
X309733211Y-87098419D01*
X310161782Y-87669848D02*
X310066544Y-87717467D01*
X310066544Y-87717467D02*
X309828449Y-87717467D01*
X309828449Y-87717467D02*
X309733211Y-87669848D01*
X309733211Y-87669848D02*
X309685592Y-87574609D01*
X309685592Y-87574609D02*
X309685592Y-87479371D01*
X309685592Y-87479371D02*
X309733211Y-87384133D01*
X309733211Y-87384133D02*
X309828449Y-87336514D01*
X309828449Y-87336514D02*
X310066544Y-87336514D01*
X310066544Y-87336514D02*
X310161782Y-87288895D01*
X310637973Y-87717467D02*
X310637973Y-87050800D01*
X310637973Y-87241276D02*
X310685592Y-87146038D01*
X310685592Y-87146038D02*
X310733211Y-87098419D01*
X310733211Y-87098419D02*
X310828449Y-87050800D01*
X310828449Y-87050800D02*
X310923687Y-87050800D01*
X311637973Y-87669848D02*
X311542735Y-87717467D01*
X311542735Y-87717467D02*
X311352259Y-87717467D01*
X311352259Y-87717467D02*
X311257021Y-87669848D01*
X311257021Y-87669848D02*
X311209402Y-87574609D01*
X311209402Y-87574609D02*
X311209402Y-87193657D01*
X311209402Y-87193657D02*
X311257021Y-87098419D01*
X311257021Y-87098419D02*
X311352259Y-87050800D01*
X311352259Y-87050800D02*
X311542735Y-87050800D01*
X311542735Y-87050800D02*
X311637973Y-87098419D01*
X311637973Y-87098419D02*
X311685592Y-87193657D01*
X311685592Y-87193657D02*
X311685592Y-87288895D01*
X311685592Y-87288895D02*
X311209402Y-87384133D01*
X313209402Y-87193657D02*
X312876069Y-87193657D01*
X312876069Y-87717467D02*
X312876069Y-86717467D01*
X312876069Y-86717467D02*
X313352259Y-86717467D01*
X314304640Y-87717467D02*
X313971307Y-87241276D01*
X313733212Y-87717467D02*
X313733212Y-86717467D01*
X313733212Y-86717467D02*
X314114164Y-86717467D01*
X314114164Y-86717467D02*
X314209402Y-86765086D01*
X314209402Y-86765086D02*
X314257021Y-86812705D01*
X314257021Y-86812705D02*
X314304640Y-86907943D01*
X314304640Y-86907943D02*
X314304640Y-87050800D01*
X314304640Y-87050800D02*
X314257021Y-87146038D01*
X314257021Y-87146038D02*
X314209402Y-87193657D01*
X314209402Y-87193657D02*
X314114164Y-87241276D01*
X314114164Y-87241276D02*
X313733212Y-87241276D01*
X314733212Y-87336514D02*
X315495117Y-87336514D01*
X316399878Y-87050800D02*
X316399878Y-87717467D01*
X316161783Y-86669848D02*
X315923688Y-87384133D01*
X315923688Y-87384133D02*
X316542735Y-87384133D01*
D11*
X303170242Y-79487872D02*
X331149953Y-79487872D01*
X331149953Y-89012880D01*
X303170242Y-89012880D01*
X303170242Y-79487872D01*
M02*
